<?xml version="1.0" encoding="utf-8"?>
<svg viewBox="220.1057 389.2991 622.5214 709.1673" width="622.521px" height="709.167px" xmlns="http://www.w3.org/2000/svg">
  <path fill="#F2F2F3" opacity="1.000000" stroke="none" d="&#10;M705.294067,620.581665 &#10;&#9;C715.285767,617.306396 725.277466,614.031128 735.229980,610.768677 &#10;&#9;C737.435364,625.345886 738.788025,639.617371 741.845520,653.513611 &#10;&#9;C751.679382,698.208191 772.736450,736.215881 809.892700,764.260254 &#10;&#9;C820.750305,772.455200 831.393311,780.934387 842.627075,789.666016 &#10;&#9;C799.061340,857.245667 750.686890,920.538635 692.677063,977.188782 &#10;&#9;C680.545837,960.153687 669.609619,942.787109 653.921753,928.946045 &#10;&#9;C654.618652,940.578064 659.448425,951.082825 661.712097,963.582520 &#10;&#9;C636.021912,987.126709 609.834473,1011.126587 583.167969,1035.565552 &#10;&#9;C591.697815,1041.910522 599.944397,1048.044678 608.993286,1054.775635 &#10;&#9;C592.068481,1071.775269 572.943237,1085.202515 553.087952,1098.466431 &#10;&#9;C545.809631,1093.596558 538.664612,1088.815918 531.533264,1084.044434 &#10;&#9;C524.234619,1088.890503 517.330078,1093.474731 509.981873,1098.353760 &#10;&#9;C490.014526,1085.607666 471.204773,1071.563110 453.698792,1054.938232 &#10;&#9;C462.674622,1048.272583 471.193359,1041.946167 480.199860,1035.257690 &#10;&#9;C472.751038,1028.674194 465.711609,1022.634033 458.874207,1016.373291 &#10;&#9;C442.162842,1001.071411 425.708038,985.484558 408.800262,970.404419 &#10;&#9;C402.942352,965.179688 400.250244,960.253296 403.714813,952.432007 &#10;&#9;C406.252014,946.704224 407.471466,940.382019 409.144714,934.288147 &#10;&#9;C409.715271,932.210144 409.878998,930.020447 410.526093,926.061707 &#10;&#9;C394.094696,941.998108 383.027069,959.771301 370.304504,977.379333 &#10;&#9;C312.383423,920.849121 264.042572,857.578003 220.105652,789.623657 &#10;&#9;C245.838013,769.457214 273.230316,751.342896 292.572021,722.806213 &#10;&#9;C299.321899,710.041931 306.140747,698.599060 311.053375,686.389221 &#10;&#9;C320.619965,662.612854 326.858429,637.958191 326.019043,611.988770 &#10;&#9;C326.019043,611.988770 325.987671,612.008484 326.738220,611.650879 &#10;&#9;C338.342987,614.841797 349.197205,618.390381 360.051392,621.938965 &#10;&#9;C360.051392,621.938965 360.000000,622.000000 360.057373,622.915527 &#10;&#9;C361.455322,667.386108 362.360718,710.960754 364.326752,754.487549 &#10;&#9;C365.258667,775.120117 370.038666,795.230225 377.333313,814.693542 &#10;&#9;C395.874664,864.165039 425.838593,906.133240 462.203430,943.812622 &#10;&#9;C480.552063,962.824707 501.341492,978.831299 524.823914,991.172852 &#10;&#9;C528.411255,993.058350 531.558105,994.432922 535.912964,992.145691 &#10;&#9;C559.042053,979.998047 580.035950,965.076294 598.590881,945.733887 &#10;&#9;C626.856140,917.637939 650.203918,886.540344 668.882996,852.068604 &#10;&#9;C684.887512,822.532654 695.626160,791.283875 698.477661,757.484131 &#10;&#9;C702.067078,714.936707 703.082642,672.328247 702.831421,629.664612 &#10;&#9;C702.812073,626.377136 702.007202,622.943726 705.294067,620.581665 &#10;M652.959839,927.990173 &#10;&#9;C653.023071,927.395630 653.086304,926.801025 653.149475,926.206482 &#10;&#9;C652.763611,926.471313 652.377808,926.736145 652.959839,927.990173 &#10;z"/>
  <path fill="#F2F2F3" opacity="1.000000" stroke="none" d="&#10;M643.550232,579.877014 &#10;&#9;C654.533386,566.195190 665.516541,552.513306 677.413513,537.693115 &#10;&#9;C707.248718,558.053406 742.812012,561.924500 780.139954,565.570129 &#10;&#9;C767.988403,575.510925 756.592407,582.778687 744.160583,588.233398 &#10;&#9;C728.681763,595.025024 712.974426,601.295837 696.065918,608.156128 &#10;&#9;C692.499268,609.667297 690.232605,610.813782 687.965942,611.960327 &#10;&#9;C686.332031,612.430847 684.698059,612.901367 681.796936,613.738831 &#10;&#9;C672.173828,617.380005 663.701050,620.386230 655.481384,623.972778 &#10;&#9;C608.603882,644.427551 565.631958,670.363831 533.627197,711.543762 &#10;&#9;C533.041809,712.296997 532.112366,712.782837 531.091736,713.593201 &#10;&#9;C530.007019,712.256165 528.938232,711.054260 527.996155,709.760193 &#10;&#9;C512.658569,688.691223 492.387817,673.048340 471.220612,658.462585 &#10;&#9;C465.948730,654.829956 460.010498,652.172302 454.425201,648.984741 &#10;&#9;C445.595184,643.945496 436.804565,638.837158 427.578156,633.210205 &#10;&#9;C420.803101,629.822449 414.522156,626.798279 408.078491,624.173767 &#10;&#9;C375.846069,611.045837 343.570953,598.022766 311.310852,584.962769 &#10;&#9;C311.310852,584.962769 311.058136,584.820496 310.472961,584.304810 &#10;&#9;C301.414307,578.329651 292.940826,572.870178 282.594696,566.204102 &#10;&#9;C299.282684,563.904785 313.388062,562.261414 327.385559,559.961548 &#10;&#9;C347.761749,556.613586 367.077698,550.264465 384.054749,538.013062 &#10;&#9;C384.054749,538.013062 384.001587,537.986145 384.515594,538.051086 &#10;&#9;C385.350952,537.991272 385.672302,537.866455 386.440613,537.937988 &#10;&#9;C386.887573,538.134460 387.860321,538.219421 387.860321,538.219421 &#10;&#9;C387.860321,538.219421 387.975708,538.054810 387.960632,538.688660 &#10;&#9;C389.385437,541.128418 390.825348,542.934326 392.265228,544.740234 &#10;&#9;C392.265228,544.740234 392.411194,545.497864 392.867249,546.325073 &#10;&#9;C396.188812,550.806824 399.054352,554.461487 401.919861,558.116089 &#10;&#9;C401.919861,558.116089 402.006104,558.017212 402.015625,558.652039 &#10;&#9;C403.612579,561.111023 405.200043,562.935242 406.787506,564.759399 &#10;&#9;C406.787506,564.759399 406.974457,565.183716 407.223114,565.510315 &#10;&#9;C407.471771,565.836914 408.197479,566.335266 408.197479,566.335266 &#10;&#9;C408.197479,566.335266 408.403046,567.166199 408.957764,567.969299 &#10;&#9;C411.703461,571.145630 413.894440,573.518921 416.085419,575.892151 &#10;&#9;C416.085419,575.892151 415.998657,575.992859 416.127045,576.489990 &#10;&#9;C416.832855,577.350586 417.410278,577.714111 417.987671,578.077698 &#10;&#9;C418.057068,578.751465 418.362396,579.291992 419.461914,580.437927 &#10;&#9;C420.646423,581.553711 421.272644,581.930725 421.898895,582.307739 &#10;&#9;C424.106232,584.743591 426.313599,587.179443 429.301941,590.527710 &#10;&#9;C441.268463,600.548584 452.454010,609.657043 463.530060,618.593689 &#10;&#9;C463.420593,618.421936 463.822357,618.442444 463.822357,618.442444 &#10;&#9;C463.822357,618.442444 463.368195,618.617676 463.705383,617.959473 &#10;&#9;C454.107635,605.445862 444.172668,593.590332 434.237701,581.734863 &#10;&#9;C434.237701,581.734863 434.027557,581.953552 434.086792,581.286560 &#10;&#9;C433.085052,579.503784 432.024078,578.388000 430.963135,577.272217 &#10;&#9;C430.963135,577.272217 430.823364,577.254822 430.678772,576.634949 &#10;&#9;C429.733978,575.284851 428.933746,574.554565 428.133545,573.824341 &#10;&#9;C428.133545,573.824341 428.007904,573.967346 428.006165,573.305786 &#10;&#9;C426.654541,571.099487 425.304626,569.554810 423.954742,568.010132 &#10;&#9;C411.685913,548.128662 401.234894,527.421265 394.804443,504.832458 &#10;&#9;C384.687347,469.293304 391.477478,436.348267 410.080536,405.278870 &#10;&#9;C415.173401,396.773193 418.793701,393.565735 425.206665,389.673401 &#10;&#9;C436.558563,403.110779 447.840698,416.465576 459.525848,430.297394 &#10;&#9;C439.229675,455.133820 439.960754,483.178162 450.559265,513.283691 &#10;&#9;C481.983887,500.464691 505.459229,477.479340 531.390137,456.536072 &#10;&#9;C533.748840,458.400909 536.234985,460.412506 538.768738,462.362244 &#10;&#9;C556.168152,475.751221 573.388733,489.384552 591.087646,502.365540 &#10;&#9;C597.141846,506.805847 604.403320,509.600159 612.100891,513.668457 &#10;&#9;C623.581909,483.092468 623.644592,455.079773 603.597717,430.313721 &#10;&#9;C615.289307,416.408081 626.377502,403.220062 638.082031,389.299103 &#10;&#9;C643.334595,392.093506 647.781494,397.387238 651.439270,403.153107 &#10;&#9;C670.676208,433.476837 677.924744,466.105469 668.899231,501.407166 &#10;&#9;C662.491699,526.469116 651.497375,549.505371 635.570618,571.408447 &#10;&#9;C630.863159,577.158203 627.290588,582.255127 623.418518,587.113403 &#10;&#9;C616.283447,596.065735 608.972290,604.877808 601.213745,613.923157 &#10;&#9;C600.652893,614.554260 600.612793,615.010620 600.572693,615.466919 &#10;&#9;C601.372925,615.414001 602.173157,615.361145 603.595154,615.012939 &#10;&#9;C618.497986,604.424927 632.573853,593.900574 643.550232,579.877014 &#10;z"/>
  <path fill="#F2F2F3" opacity="1.000000" stroke="none" d="&#10;M526.503052,849.064392 &#10;&#9;C526.512695,868.959229 526.294556,887.931702 526.197144,906.904663 &#10;&#9;C526.099609,925.891296 526.122070,944.878540 526.093750,963.865479 &#10;&#9;C526.088928,967.080811 526.093079,970.296204 526.093079,974.986145 &#10;&#9;C522.684326,972.933960 520.457397,971.768311 518.416626,970.337219 &#10;&#9;C500.481781,957.760742 481.773987,945.724426 467.264648,929.362549 &#10;&#9;C451.016388,911.039734 436.372345,891.151428 422.376770,871.008789 &#10;&#9;C403.253723,843.486511 389.823364,813.137268 383.190735,780.121399 &#10;&#9;C380.967529,769.054749 379.096741,757.780151 378.586670,746.531616 &#10;&#9;C376.927368,709.936218 375.955109,673.309448 374.781586,636.692749 &#10;&#9;C374.699585,634.134583 375.133392,631.559937 375.390686,628.154297 &#10;&#9;C394.131805,634.250916 411.101471,642.590820 429.012939,650.552124 &#10;&#9;C452.691498,663.313965 475.011200,676.952026 494.574768,694.491882 &#10;&#9;C504.180359,703.103821 512.847656,712.765625 521.888916,722.002014 &#10;&#9;C525.036926,725.218018 526.386536,729.019409 526.253357,733.681641 &#10;&#9;C525.970337,743.587769 526.166870,753.507568 526.166870,764.186401 &#10;&#9;C513.533936,764.867126 501.507477,761.834778 488.110779,757.875793 &#10;&#9;C485.163910,757.549805 483.669800,757.569092 482.095917,757.145508 &#10;&#9;C481.821442,756.032532 481.375244,755.688354 480.368286,754.927551 &#10;&#9;C479.622955,752.245422 478.706543,750.273438 478.835541,748.372375 &#10;&#9;C479.341461,740.914124 475.806946,735.940979 470.033264,731.734985 &#10;&#9;C455.787628,721.357666 441.754120,710.689575 427.558228,700.243103 &#10;&#9;C425.879883,699.008057 423.720947,698.426147 421.108307,697.232300 &#10;&#9;C421.467438,703.565430 421.499634,708.893311 422.114227,714.153259 &#10;&#9;C424.893646,737.940430 426.627350,761.934204 431.010834,785.429382 &#10;&#9;C437.320648,819.249512 455.080536,847.856323 476.241486,874.440857 &#10;&#9;C477.542755,876.075623 479.118927,877.491638 482.034485,880.547119 &#10;&#9;C481.462677,860.808105 480.956238,843.324341 480.445129,825.680359 &#10;&#9;C471.401428,822.299927 462.939789,819.358093 454.685211,815.919312 &#10;&#9;C452.150452,814.863403 449.115204,812.903381 448.123138,810.582153 &#10;&#9;C439.988312,791.548096 436.741333,771.362610 434.054626,750.089294 &#10;&#9;C439.038971,752.347107 442.929749,754.201355 446.891815,755.887939 &#10;&#9;C462.171753,762.392578 477.341400,769.243530 494.010162,771.584290 &#10;&#9;C504.352631,773.756226 514.695129,775.928101 526.328064,778.370972 &#10;&#9;C526.328064,801.399719 526.328064,824.770996 526.503052,849.064392 &#10;z"/>
  <path fill="#F1F1F1" opacity="1.000000" stroke="none" d="&#10;M588.717041,937.518555 &#10;&#9;C572.588623,951.668396 556.095642,964.287964 536.199585,975.674927 &#10;&#9;C536.199585,933.254456 536.199585,892.544434 536.006104,850.914429 &#10;&#9;C535.812622,826.388428 535.812622,802.782410 535.812622,778.897461 &#10;&#9;C554.846252,775.772217 573.035461,772.785645 592.891479,769.525391 &#10;&#9;C587.689514,782.358032 582.798401,794.423767 577.416382,807.426025 &#10;&#9;C576.390137,809.297302 575.854919,810.231934 575.518677,811.552307 &#10;&#9;C575.577698,812.177124 575.437683,812.416138 575.297668,812.655212 &#10;&#9;C575.327698,812.655762 575.357727,812.656372 575.387756,812.656982 &#10;&#9;C575.387146,812.109924 575.386597,811.562927 575.943726,811.383728 &#10;&#9;C577.595703,810.476685 578.689880,809.201721 579.783997,807.926758 &#10;&#9;C587.575317,795.638367 595.623779,783.502197 603.031982,770.987061 &#10;&#9;C606.015991,765.946106 609.271973,762.102966 614.754761,759.579773 &#10;&#9;C639.855286,748.028381 648.614075,726.690796 649.677795,698.984741 &#10;&#9;C643.420105,702.082764 638.204468,704.664917 631.727539,707.871460 &#10;&#9;C634.331848,699.288330 636.679871,691.550110 639.531738,682.397705 &#10;&#9;C639.924255,679.896606 639.812866,678.809631 639.701416,677.722717 &#10;&#9;C638.865601,678.318665 637.871399,678.784546 637.242493,679.550354 &#10;&#9;C636.711121,680.197388 636.603088,681.192139 636.307678,682.032959 &#10;&#9;C631.880615,689.846008 627.455566,697.660217 623.025879,705.471741 &#10;&#9;C618.375488,713.672607 612.890381,721.092834 604.499329,725.939758 &#10;&#9;C602.202820,727.266296 600.248779,729.184937 597.954468,730.516296 &#10;&#9;C589.031372,735.694092 582.515869,742.099609 586.315613,754.163330 &#10;&#9;C570.307373,761.270874 554.118591,763.715393 536.246338,764.743408 &#10;&#9;C536.246338,752.923889 535.984375,741.677307 536.443176,730.460327 &#10;&#9;C536.548889,727.876099 538.696594,724.991699 540.629822,722.923340 &#10;&#9;C571.381592,690.021973 605.742493,661.937439 647.498901,643.932800 &#10;&#9;C659.105408,638.928284 670.867065,634.281494 682.588989,629.548462 &#10;&#9;C684.965332,628.588989 687.483215,627.979919 690.085388,627.162292 &#10;&#9;C690.528381,628.777527 691.021179,629.723389 691.012451,630.664551 &#10;&#9;C690.544434,680.959473 690.757507,731.302185 680.098755,780.862549 &#10;&#9;C675.760742,801.033386 676.066223,801.785767 656.796509,807.684326 &#10;&#9;C632.663818,815.071289 608.114868,821.098328 582.323364,828.098389 &#10;&#9;C581.832336,843.856567 581.289978,861.262512 580.685364,880.665710 &#10;&#9;C589.474915,872.654968 595.980042,864.965027 601.608398,856.553040 &#10;&#9;C604.933594,851.583252 607.939026,846.362671 610.654114,841.033691 &#10;&#9;C612.630493,837.154541 615.363708,835.101685 619.578003,833.935364 &#10;&#9;C634.914490,829.690552 650.145569,825.064758 666.802002,820.175903 &#10;&#9;C648.733215,864.837585 623.174011,903.694580 588.717041,937.518555 &#10;M641.061890,672.488281 &#10;&#9;C640.961426,673.541992 640.860901,674.595703 640.760376,675.649414 &#10;&#9;C641.146973,674.933960 641.533508,674.218445 641.061890,672.488281 &#10;z"/>
  <path fill="#F1F1F1" opacity="1.000000" stroke="none" d="&#10;M624.766418,721.589905 &#10;&#9;C629.151001,718.570496 633.104370,716.211487 637.451782,713.617310 &#10;&#9;C636.828979,740.645996 620.414185,752.215027 598.507080,757.632080 &#10;&#9;C594.377747,744.555969 595.449890,741.351318 606.866089,733.802979 &#10;&#9;C607.718445,734.199951 608.816528,734.836731 609.994629,735.240051 &#10;&#9;C618.890747,738.285889 623.295776,735.475342 624.157898,726.226929 &#10;&#9;C624.280884,724.907288 624.279114,723.576111 624.766418,721.589905 &#10;z"/>
</svg>