<?xml version="1.0" encoding="utf-8"?>
<svg viewBox="0 0 4730 4730" width="4730" height="4730" xmlns="http://www.w3.org/2000/svg">
  <path fill="currentColor" opacity="1.000000" stroke="none" d="M 4374.122 2537.608 C 4357.835 2738.002 4313.798 2930.139 4240.641 3115.441 C 4034.99 3636.343 3626.861 4045 3106.007 4251.734 C 2978.64 4302.287 2847.39 4339.185 2712.369 4362.942 C 2581.864 4385.905 2450.424 4396.243 2317.999 4393.307 C 2241.935 4391.622 2166.175 4385.551 2090.739 4375.139 C 1784.567 4332.88 1501.786 4227.662 1245.34 4055.579 C 844.493 3786.602 574.315 3419.475 431.162 2959.008 C 401.263 2862.834 380.545 2764.51 365.864 2664.823 C 346.95 2536.405 340.675 2407.316 347.917 2277.952 C 371.981 1848.152 514.837 1462.02 783.23 1124.736 C 1044.305 796.652 1377.394 572.071 1778.377 448.52 C 1878.556 417.653 1980.787 395.797 2084.671 381.411 C 2191.964 366.552 2299.712 360.227 2407.959 362.59 C 2474.683 364.047 2541.158 369.08 2607.455 377.064 C 2734.252 392.333 2858.359 419.671 2979.932 458.544 C 3580.294 650.511 4058.832 1116.526 4266.91 1711.286 C 4305.275 1820.951 4334.006 1933.032 4353.148 2047.542 C 4363.479 2109.33 4370.57 2171.535 4375.108 2234.07 C 4381.195 2317.986 4381.322 2401.899 4377.64 2485.874 C 4376.911 2502.513 4375.382 2519.117 4374.122 2537.608 M 3185.576 1896.474 C 3164.406 1902.37 3143.034 1907.638 3122.123 1914.341 C 3101.217 1921.042 3080.518 1928.563 3060.195 1936.863 C 3040.485 1944.913 3021.018 1953.735 3002.084 1963.46 C 2982.546 1973.495 2963.348 1984.351 2944.796 1996.096 C 2926.237 2007.844 2908.233 2020.581 2890.769 2033.908 C 2873.375 2047.179 2856.956 2061.722 2839.607 2076.125 C 2836.89 2073.19 2834.584 2070.906 2832.51 2068.431 C 2813.173 2045.364 2791.661 2024.575 2768.27 2005.597 C 2708.751 1957.305 2640.848 1926.005 2567.275 1906.303 C 2491.543 1886.022 2414.116 1877.1 2335.99 1874.174 C 2230.561 1870.227 2125.199 1871.984 2020.085 1881.54 C 1979.596 1885.221 1939.233 1890.3 1898.848 1895.045 C 1889.786 1896.109 1880.873 1898.439 1871.696 1900.225 C 1871.696 1905.432 1871.426 1909.391 1871.744 1913.301 C 1873.039 1929.239 1874.519 1945.162 1875.926 1961.091 C 1879.094 1996.933 1882.166 2032.784 1885.446 2068.615 C 1890.125 2119.704 1895.043 2170.772 1899.697 2221.863 C 1903.02 2258.359 1905.952 2294.891 1909.288 2331.386 C 1913.957 2382.476 1918.956 2433.536 1923.594 2484.629 C 1928.233 2535.724 1932.516 2586.852 1937.107 2637.952 C 1943.608 2710.286 1950.211 2782.61 1956.857 2854.931 C 1958.07 2868.149 1959.69 2881.329 1961.168 2894.928 C 1964.046 2895.793 1966.487 2896.985 1969.015 2897.213 C 1988.275 2898.95 2007.529 2900.96 2026.832 2902.009 C 2066.125 2904.143 2105.444 2905.85 2144.759 2907.512 C 2231.547 2911.18 2318.143 2909.122 2404.446 2898.54 C 2462.79 2891.386 2520.239 2880.064 2576.183 2861.787 C 2640.76 2840.689 2700.838 2811.222 2752.6 2766.413 C 2754.485 2764.782 2756.814 2763.662 2758.677 2762.471 C 2772.899 2775.673 2785.953 2789.062 2800.305 2800.881 C 2848.458 2840.543 2904.135 2865.414 2963.858 2881.917 C 3033.097 2901.049 3103.984 2908.006 3175.498 2909.732 C 3238.301 2911.248 3300.781 2906.773 3363.096 2898.976 C 3424.009 2891.354 3484.309 2880.569 3543.963 2866.147 C 3548.377 2865.079 3552.637 2863.375 3557.053 2861.939 C 3558.668 2856.127 3560.177 2851.051 3561.489 2845.927 C 3575.529 2791.118 3589.513 2736.296 3603.564 2681.49 C 3629.187 2581.555 3654.873 2481.635 3680.396 2381.673 C 3681.445 2377.559 3681.119 2373.094 3681.466 2368.363 C 3677.383 2368.03 3674.758 2367.633 3672.133 2367.629 C 3536.702 2367.448 3401.269 2367.285 3265.835 2367.222 C 3262.07 2367.22 3258.301 2368.323 3254.92 2368.851 C 3241.049 2433.318 3225.523 2527.958 3226.088 2546.043 C 3232.593 2546.043 3239.162 2546.043 3245.73 2546.043 C 3290.43 2546.043 3335.129 2546.005 3379.828 2546.106 C 3384.146 2546.116 3388.46 2546.985 3393.784 2547.564 C 3380.159 2612.64 3367.654 2676.514 3353.416 2740.606 C 3342.53 2742.586 3332.789 2744.659 3322.953 2746.092 C 3289.843 2750.919 3256.486 2751.279 3223.117 2751.112 C 3180.748 2750.9 3139.412 2743.965 3099.468 2730.05 C 3032.688 2706.785 2982.279 2664.773 2954.193 2598.795 C 2940.214 2565.952 2934.677 2531.079 2933.285 2495.557 C 2932.155 2466.776 2935.492 2438.322 2940.853 2410.121 C 2953.166 2345.342 2979.652 2287.152 3023.127 2237.204 C 3068.859 2184.664 3125.959 2148.966 3191.217 2125.791 C 3248.941 2105.292 3308.719 2096.082 3369.785 2095.295 C 3411.839 2094.752 3453.836 2097.03 3495.543 2102.587 C 3541.963 2108.773 3587.205 2119.698 3630.226 2138.727 C 3634.41 2140.578 3638.722 2142.141 3643.004 2143.848 C 3644.684 2141.85 3646.286 2140.522 3647.164 2138.82 C 3682.523 2070.156 3717.821 2001.459 3753.091 1932.75 C 3753.354 1932.237 3753.225 1931.478 3753.15 1930.85 C 3753.073 1930.2 3752.839 1929.569 3752.289 1927.441 C 3741.504 1923.039 3730.003 1917.862 3718.17 1913.6 C 3668.394 1895.672 3616.804 1885.364 3564.514 1878.53 C 3502.871 1870.475 3440.89 1867.968 3378.795 1870.384 C 3352.173 1871.419 3325.601 1874.168 3299.053 1876.648 C 3261.828 1880.126 3225.211 1887.377 3185.576 1896.474 M 1784.913 2426.889 C 1781.703 2395.244 1778.111 2363.65 1773.456 2331.294 C 1764.955 2331.087 1757.732 2330.764 1750.51 2330.757 C 1623.761 2330.637 1497.012 2330.59 1370.264 2330.375 C 1363.108 2330.363 1355.588 2332.242 1348.886 2328.262 C 1325.336 2220.993 1305.926 2118.965 1306.137 2102.447 C 1332.082 2102.447 1358.049 2102.441 1384.015 2102.448 C 1410.032 2102.456 1436.049 2102.478 1462.067 2102.493 C 1487.416 2102.507 1512.767 2102.519 1538.116 2102.535 C 1564.135 2102.552 1590.151 2102.572 1616.168 2102.592 C 1642.185 2102.612 1668.203 2102.787 1694.218 2102.612 C 1720.064 2102.438 1745.947 2103.606 1771.7 2101.899 C 1772.274 2082.287 1751.98 1899.223 1747.54 1882.907 C 1745.719 1882.536 1743.789 1881.799 1741.856 1881.798 C 1488.368 1881.677 1234.878 1881.609 981.389 1881.571 C 980.775 1881.571 980.133 1882.009 979.554 1882.333 C 979.032 1882.625 978.58 1883.043 977.41 1883.92 C 978.447 1889.37 979.272 1895.266 980.712 1901.009 C 987.988 1930.06 995.508 1959.051 1002.792 1988.1 C 1077.579 2286.374 1152.33 2584.657 1227.139 2882.925 C 1228.392 2887.911 1230.217 2892.754 1231.963 2898.262 C 1447.836 2898.262 1662.617 2898.265 1877.399 2898.196 C 1879.253 2898.196 1881.107 2897.208 1884.188 2896.332 C 1878.605 2844.206 1873.675 2792.144 1866.88 2738.71 C 1837.308 2738.632 1808.751 2738.61 1780.193 2738.602 C 1750.841 2738.594 1721.488 2738.544 1692.137 2738.517 C 1663.452 2738.49 1634.764 2738.467 1606.079 2738.446 C 1576.727 2738.424 1547.375 2738.4 1518.023 2738.39 C 1489.398 2738.381 1460.773 2738.388 1431.149 2738.388 C 1422.135 2701.321 1415.706 2664.678 1408.473 2628.243 C 1401.268 2591.952 1392.922 2555.83 1387.191 2517.595 C 1405.37 2517.149 1421.951 2517.403 1438.518 2517.367 C 1455.864 2517.329 1473.208 2517.398 1490.552 2517.408 C 1507.23 2517.418 1523.908 2517.404 1540.586 2517.413 C 1557.263 2517.422 1573.941 2517.448 1590.617 2517.463 C 1607.962 2517.478 1625.306 2517.492 1642.652 2517.5 C 1659.33 2517.509 1676.006 2517.504 1692.684 2517.517 C 1710.028 2517.53 1727.378 2517.808 1744.716 2517.508 C 1761.251 2517.222 1777.882 2518.915 1795.637 2516.1 C 1792.17 2487.111 1788.783 2458.786 1784.913 2426.889 M 2270.359 1193.704 C 2268.442 1188.735 2266.469 1183.786 2264.62 1178.792 C 2259.921 1166.097 2259.944 1166.088 2266.704 1153.213 C 2264.737 1152.766 2262.957 1152.016 2261.174 1152.008 C 2241.988 1151.923 2222.799 1151.955 2203.082 1151.955 C 2209.251 1165.529 2209.353 1165.57 2204.298 1178.202 C 2192.427 1207.871 2180.501 1237.518 2168.451 1267.114 C 2166.928 1270.857 2164.527 1274.244 2161.436 1279.744 C 2147.558 1243.068 2134.534 1208.889 2121.786 1174.606 C 2120.449 1171.011 2119.953 1166.684 2120.535 1162.923 C 2121.045 1159.625 2123.619 1156.646 2125.54 1153.04 C 2093.31 1150.573 2075.079 1151.159 2064.999 1154.462 C 2069.205 1161.502 2074.613 1168.333 2077.702 1176.086 C 2097.41 1225.557 2116.67 1275.207 2135.93 1324.856 C 2140.806 1337.422 2140.555 1337.519 2133.153 1351.167 C 2152.892 1350.786 2171.84 1352.751 2194.222 1349.295 C 2180.248 1342.948 2182.805 1334.957 2186.236 1326.43 C 2200.146 1291.85 2213.818 1257.174 2227.741 1222.6 C 2229.077 1219.285 2231.547 1216.427 2234.269 1212.126 C 2249.904 1251.674 2264.876 1289.408 2279.673 1327.211 C 2281.099 1330.856 2282.563 1335.12 2281.951 1338.75 C 2281.318 1342.516 2278.181 1345.861 2275.131 1351.13 C 2283.373 1351.13 2289.942 1351.13 2296.512 1351.13 C 2302.517 1351.13 2308.53 1351.336 2314.522 1351.073 C 2320.865 1350.795 2327.573 1352.564 2334.713 1348.7 C 2327.043 1344.049 2325.273 1338.451 2327.85 1331.392 C 2329.902 1325.768 2331.713 1320.051 2333.883 1314.473 C 2350.778 1271.046 2367.711 1227.635 2384.695 1184.243 C 2387.119 1178.053 2389.403 1171.729 2392.639 1165.964 C 2395.049 1161.67 2398.892 1158.18 2402.344 1154.033 C 2384.405 1151.084 2357.831 1151.072 2341.49 1153.878 C 2348.826 1164.916 2349.094 1165.015 2344.732 1176.664 C 2332.824 1208.457 2320.674 1240.158 2308.608 1271.891 C 2307.697 1274.287 2306.971 1277.011 2301.966 1275.453 C 2292.084 1249.716 2281.867 1223.109 2270.359 1193.704 M 2339.935 1563.792 C 2350.71 1544.642 2361.476 1525.487 2372.27 1506.349 C 2373.816 1503.611 2374.88 1499.973 2379.893 1501.938 C 2379.893 1535.725 2379.901 1569.666 2379.883 1603.608 C 2379.88 1608.936 2380.485 1614.41 2379.461 1619.549 C 2378.53 1624.229 2375.766 1628.544 2373.637 1633.418 C 2392.574 1633.418 2410.478 1633.418 2430.401 1633.418 C 2423.009 1625.802 2421.565 1617.965 2421.614 1609.199 C 2421.895 1559.225 2421.886 1509.248 2421.622 1459.274 C 2421.575 1450.457 2422.885 1442.513 2430.462 1434.917 C 2405.963 1434.917 2383.401 1434.917 2360.831 1434.93 C 2364.314 1447.876 2364.477 1447.965 2358.676 1458.664 C 2342.489 1488.515 2326.185 1518.302 2309.822 1548.057 C 2308.362 1550.714 2306.142 1552.954 2303.432 1556.488 C 2300.855 1552.196 2299.081 1549.529 2297.591 1546.712 C 2282.639 1518.466 2267.695 1490.216 2252.859 1461.909 C 2250.713 1457.812 2248.076 1453.525 2247.607 1449.119 C 2247.124 1444.578 2249.013 1439.785 2249.946 1434.664 C 2227.073 1434.664 2205.081 1434.658 2183.087 1434.697 C 2182.475 1434.698 2181.807 1435.103 2181.273 1435.474 C 2180.916 1435.722 2180.752 1436.245 2180.108 1437.275 C 2187.082 1442.727 2187.264 1450.596 2187.239 1458.815 C 2187.095 1508.79 2187.044 1558.767 2187.284 1608.741 C 2187.326 1617.597 2186.231 1625.676 2178.302 1633.23 C 2197.403 1633.23 2214.601 1633.23 2233.72 1633.23 C 2226.025 1625.181 2225.099 1616.395 2225.224 1606.873 C 2225.634 1575.561 2225.285 1544.239 2225.498 1512.923 C 2225.522 1509.395 2223.213 1504.836 2229.582 1501.54 C 2236.085 1511.109 2240.916 1521.85 2246.546 1532.076 C 2252.646 1543.157 2258.512 1554.366 2264.472 1565.525 C 2270.117 1576.096 2275.537 1586.795 2281.448 1597.216 C 2287.571 1608.006 2292.397 1619.612 2300.919 1631.361 C 2315.08 1609.102 2326.183 1587.365 2339.935 1563.792 M 1846.347 3310.809 C 1849.923 3314.611 1853.982 3318.067 1856.991 3322.273 C 1870.567 3341.241 1883.87 3360.405 1897.221 3379.532 C 1903.425 3388.419 1903.374 3388.455 1904.792 3400.548 C 1939.44 3402.838 1955.907 3402.307 1969.181 3397.828 C 1957.254 3391.47 1952.138 3380.6 1945.166 3371.25 C 1937.997 3361.634 1931.05 3351.839 1924.365 3341.881 C 1917.872 3332.212 1909.252 3323.742 1905.759 3311.992 C 1910.557 3310.671 1914.519 3309.906 1918.237 3308.504 C 1943.57 3298.957 1959.264 3276.812 1959.59 3250.402 C 1959.923 3223.531 1945.165 3202.851 1918.366 3192.766 C 1906.384 3188.255 1893.948 3186.29 1881.15 3186.3 C 1837.113 3186.336 1793.076 3186.279 1749.04 3186.364 C 1746.052 3186.369 1743.064 3187.251 1739.628 3187.796 C 1746.739 3199.329 1746.846 3199.329 1746.855 3210.504 C 1746.897 3263.169 1746.878 3315.833 1746.876 3368.497 C 1746.876 3385.878 1746.87 3385.878 1740.517 3400.601 C 1758.658 3402.344 1776.548 3401.702 1794.43 3401.044 C 1795.231 3401.014 1795.975 3399.412 1796.736 3398.535 C 1790.829 3389.474 1790.681 3389.475 1790.635 3380.924 C 1790.527 3360.926 1790.52 3340.926 1790.618 3320.928 C 1790.633 3317.84 1791.421 3314.756 1792.003 3310.58 C 1809.816 3310.58 1826.392 3310.58 1846.347 3310.809 M 3216.419 3224.932 C 3211.85 3220.077 3207.217 3215.28 3202.732 3210.35 C 3198.434 3205.626 3194.288 3200.762 3190.146 3196.04 C 3194.226 3192.158 3194.226 3192.158 3194.547 3187.648 C 3168.34 3185.151 3146.749 3185.658 3131.477 3189.785 C 3141.75 3194.941 3139.903 3203.328 3139.91 3211.152 C 3139.956 3258.465 3139.933 3305.779 3139.933 3353.093 C 3139.933 3358.424 3139.949 3363.755 3139.929 3369.086 C 3139.907 3375.082 3139.24 3381.157 3139.994 3387.051 C 3140.69 3392.484 3131.54 3394.188 3135.89 3401.251 C 3150.907 3401.251 3166.153 3401.286 3181.4 3401.163 C 3182.321 3401.155 3183.232 3399.88 3184.141 3399.185 C 3178.386 3388.972 3178.184 3388.972 3178.178 3381.503 C 3178.143 3340.188 3178.187 3298.873 3178.357 3257.558 C 3178.363 3255.95 3179.922 3254.348 3181.103 3252.081 C 3183.637 3254.181 3185.845 3255.641 3187.603 3257.523 C 3227.184 3299.904 3266.556 3342.484 3306.46 3384.558 C 3311.485 3389.858 3310.287 3394.793 3310.021 3401.594 C 3322.759 3401.594 3335.377 3401.594 3347.995 3401.594 C 3352.564 3401.594 3357.133 3401.594 3362.945 3401.594 C 3360.314 3395.467 3357.585 3391.144 3356.688 3386.469 C 3355.7 3381.321 3356.368 3375.85 3356.368 3370.52 C 3356.375 3319.875 3356.393 3269.229 3356.411 3218.583 C 3356.413 3213.252 3355.713 3207.791 3356.65 3202.627 C 3357.585 3197.465 3360.162 3192.6 3362.478 3186.375 C 3348.679 3186.375 3336.058 3186.343 3323.439 3186.397 C 3320.118 3186.411 3316.796 3186.667 3313.477 3186.872 C 3312.828 3186.912 3312.053 3187.066 3311.602 3187.468 C 3311.242 3187.789 3311.286 3188.565 3310.736 3190.892 C 3318.419 3193.203 3317.147 3200.226 3317.153 3206.727 C 3317.19 3244.045 3317.214 3281.363 3317.07 3318.68 C 3317.059 3321.453 3315.696 3324.222 3314.419 3329.033 C 3281.331 3293.891 3249.843 3260.447 3216.419 3224.932 M 1038.461 3385.47 C 1038.455 3344.858 1038.401 3304.245 1038.524 3263.633 C 1038.535 3260.011 1036.811 3255.473 1042.903 3252.694 C 1085.658 3298.54 1128.663 3344.656 1171.277 3390.347 C 1170.158 3394.305 1169.345 3397.186 1168.095 3401.614 C 1175.662 3401.614 1181.527 3401.614 1187.392 3401.614 C 1193.389 3401.614 1199.39 3401.758 1205.383 3401.571 C 1210.972 3401.397 1216.816 3402.523 1222.591 3400.088 C 1215.766 3389.315 1215.672 3389.315 1215.66 3377.543 C 1215.602 3322.284 1215.585 3267.024 1215.591 3211.765 C 1215.592 3199.339 1215.663 3199.339 1222.264 3187.265 C 1204.807 3185.773 1187.85 3186.124 1170.526 3187.01 C 1176.217 3199.5 1176.267 3199.5 1176.275 3211.659 C 1176.298 3246.279 1176.338 3280.899 1176.182 3315.519 C 1176.166 3319.13 1177.874 3323.526 1173.482 3326.17 C 1159.92 3315.204 1060.551 3209.557 1051.117 3196.082 C 1052.485 3193.499 1053.854 3190.916 1056.039 3186.792 C 1033.843 3186.474 1013.784 3185.324 993.124 3187.531 C 999.039 3198.586 999.134 3198.586 999.141 3208.859 C 999.175 3262.787 999.173 3316.715 999.136 3370.643 C 999.132 3377.29 999.421 3384.022 998.45 3390.549 C 997.967 3393.796 994.938 3396.666 992.222 3401.065 C 1010.93 3401.298 1027.731 3403.257 1045.292 3399.937 C 1042.523 3395.317 1040.594 3392.101 1038.461 3385.47 M 2181.144 3326.842 C 2178.632 3324.694 2175.897 3322.757 2173.644 3320.365 C 2136.645 3281.068 2099.694 3241.725 2062.789 3202.34 C 2061.026 3200.458 2059.775 3198.096 2058.607 3196.417 C 2060.56 3193.244 2062.121 3190.703 2064.801 3186.345 C 2042.322 3186.754 2022.07 3185.451 1995.508 3187.875 C 2009.508 3194.317 2007.47 3202.655 2007.476 3210.384 C 2007.523 3265.677 2007.514 3320.969 2007.49 3376.261 C 2007.485 3388.305 2007.425 3388.305 2001.636 3400.837 C 2018.696 3401.634 2035.399 3402.951 2052.66 3399.975 C 2046.394 3388.608 2046.177 3388.608 2046.164 3380.723 C 2046.098 3340.753 2046.137 3300.783 2046.195 3260.813 C 2046.199 3257.588 2045.958 3253.984 2051.43 3253.174 C 2094.082 3299 2137.111 3345.231 2178.982 3390.218 C 2178.243 3395.287 2177.823 3398.178 2177.327 3401.595 C 2187.384 3401.595 2196.052 3401.79 2204.708 3401.539 C 2213.08 3401.296 2221.634 3402.822 2230.178 3400.183 C 2223.9 3389.116 2223.803 3389.116 2223.8 3377.807 C 2223.791 3321.849 2223.818 3265.891 2223.879 3209.932 C 2223.89 3199.035 2223.987 3199.035 2230.464 3187.397 C 2212.995 3185.61 2195.952 3186.213 2176.312 3187.14 C 2181.215 3193.292 2184.871 3198.133 2184.764 3205.145 C 2184.154 3245.099 2184.227 3285.063 2181.144 3326.842 M 1684.629 3401.602 C 1690.599 3402.921 1696.572 3404.241 1703.655 3405.806 C 1703.505 3389.64 1704.517 3374.577 1702.623 3357.459 C 1695.033 3363.299 1687.915 3365.351 1679.698 3365.273 C 1639.695 3364.894 1599.685 3365.133 1559.679 3365.052 C 1555.826 3365.044 1551.976 3364.335 1548.105 3363.949 C 1545.108 3354.696 1546.339 3345.997 1546.525 3337.485 C 1546.719 3328.517 1544.585 3319.196 1548.447 3309.748 C 1571.215 3309.748 1593.151 3309.748 1615.084 3309.749 C 1621.087 3309.749 1627.148 3309.222 1633.071 3309.906 C 1639.074 3310.598 1644.94 3312.49 1651.415 3313.983 C 1651.415 3297.967 1651.415 3282.741 1651.415 3266.656 C 1646.039 3269.035 1641.603 3271.995 1636.787 3272.872 C 1630.972 3273.932 1624.831 3273.271 1618.833 3273.277 C 1598.829 3273.298 1578.825 3273.364 1558.821 3273.212 C 1555.032 3273.183 1551.248 3272.234 1546.209 3271.536 C 1546.209 3262.83 1545.989 3254.894 1546.272 3246.976 C 1546.549 3239.269 1544.815 3231.252 1548.508 3222.767 C 1553.083 3222.767 1556.98 3222.767 1560.875 3222.767 C 1598.882 3222.768 1636.891 3222.973 1674.896 3222.619 C 1683.725 3222.536 1691.836 3223.357 1699.553 3231.033 C 1701.04 3213.15 1701.541 3197.527 1699.612 3183.208 C 1690.303 3184.312 1681.926 3186.128 1673.543 3186.168 C 1618.867 3186.428 1564.19 3186.27 1509.512 3186.369 C 1505.253 3186.377 1500.533 3184.941 1496.671 3188.301 C 1502.585 3199.12 1502.68 3199.12 1502.688 3210.651 C 1502.726 3263.948 1502.715 3317.245 1502.695 3370.541 C 1502.693 3376.534 1503.26 3382.662 1502.184 3388.473 C 1501.443 3392.486 1498.327 3396.06 1495.31 3401.592 C 1558.407 3401.592 1619.632 3401.592 1684.629 3401.602 M 2046.289 1227.106 C 2044.468 1220.727 2043.039 1214.204 2040.757 1207.993 C 2030.891 1181.128 2012.482 1163.21 1984.226 1156.907 C 1971.969 1154.173 1959.31 1152.106 1946.793 1151.883 C 1911.531 1151.255 1876.246 1151.714 1840.97 1151.831 C 1837.928 1151.842 1834.89 1152.488 1831.397 1152.892 C 1837.327 1164.359 1837.527 1164.359 1837.54 1173.925 C 1837.61 1225.797 1837.613 1277.669 1837.536 1329.54 C 1837.522 1339.373 1837.308 1339.372 1830.924 1350.13 C 1834.569 1350.506 1837.648 1351.096 1840.729 1351.101 C 1876.005 1351.155 1911.283 1351.189 1946.558 1351.051 C 1953.867 1351.023 1961.226 1350.676 1968.473 1349.775 C 2008.559 1344.791 2034.97 1321.265 2045.368 1282.012 C 2049.898 1264.915 2048.563 1247.742 2046.289 1227.106 M 3093.501 3312.396 C 3095.511 3296.42 3095.608 3280.396 3091.595 3264.792 C 3081.805 3226.744 3056.689 3202.85 3020.045 3190.798 C 2992.246 3181.654 2963.706 3180.788 2935.276 3187.546 C 2903.539 3195.09 2877.373 3211.174 2861.46 3240.682 C 2827.858 3302.984 2859.124 3377.872 2926.902 3397.878 C 2949.621 3404.584 2972.801 3405.488 2996.146 3402.308 C 3044.89 3395.667 3084.543 3365.304 3093.501 3312.396 M 2656.193 1536.665 C 2680.31 1561.558 2704.454 1586.425 2728.502 1611.383 C 2731.246 1614.231 2734.623 1617.272 2735.599 1620.804 C 2736.685 1624.736 2735.361 1629.334 2735.056 1634.111 C 2753.551 1633.933 2771.918 1634.964 2793.05 1633.19 C 2783.445 1626.316 2784.062 1618.203 2784.069 1610.177 C 2784.114 1560.207 2784.077 1510.236 2784.114 1460.266 C 2784.118 1455.615 2783.754 1450.794 2784.844 1446.366 C 2785.784 1442.542 2788.551 1439.166 2791.042 1434.625 C 2773.275 1434.625 2757.298 1434.62 2741.321 1434.642 C 2740.665 1434.643 2739.91 1434.733 2739.397 1435.074 C 2739.082 1435.283 2739.139 1436.05 2739.029 1436.567 C 2744.63 1447.016 2744.763 1447.016 2744.781 1456.881 C 2744.845 1490.194 2744.835 1523.508 2744.757 1556.821 C 2744.75 1559.85 2745.982 1563.619 2741.573 1565.097 C 2740.507 1564.382 2739.242 1563.813 2738.347 1562.887 C 2704.079 1527.411 2669.797 1491.948 2635.643 1456.364 C 2628.45 1448.869 2628.671 1448.657 2631.213 1434.216 C 2624.512 1434.216 2617.989 1434.216 2611.466 1434.216 C 2604.13 1434.217 2596.794 1434.124 2589.46 1434.247 C 2583.259 1434.35 2577.063 1434.705 2570.269 1434.972 C 2576.916 1446.871 2577.025 1446.871 2577.036 1458.529 C 2577.081 1507.167 2577.062 1555.805 2577.044 1604.442 C 2577.042 1609.77 2577.626 1615.247 2576.581 1620.379 C 2575.686 1624.758 2572.842 1628.739 2570.522 1633.604 C 2588.887 1633.604 2605.519 1633.604 2625.505 1633.604 C 2614.353 1625.166 2616.512 1615.034 2616.486 1605.424 C 2616.403 1573.443 2616.407 1541.461 2616.535 1509.481 C 2616.547 1506.485 2615.066 1502.826 2618.605 1500.559 C 2619.315 1500.559 2620.147 1500.307 2620.435 1500.596 C 2631.732 1511.91 2642.979 1523.273 2656.193 1536.665 M 2742.448 1269.732 C 2753.037 1269.753 2763.626 1269.773 2773.746 1269.792 C 2788.524 1291.278 2802.382 1311.618 2816.469 1331.799 C 2820.541 1337.631 2821.925 1343.453 2817.806 1350.459 C 2839.288 1350.459 2859.722 1350.459 2880.93 1350.459 C 2864.632 1334.512 2828.842 1284.491 2821.853 1267.991 C 2825.674 1266.997 2829.469 1266.2 2833.142 1265.026 C 2861.967 1255.812 2874.368 1238.494 2873.653 1208.593 C 2872.928 1178.314 2855.644 1158.555 2825.557 1154.361 C 2815.68 1152.985 2805.627 1152.359 2795.65 1152.298 C 2756.312 1152.057 2716.972 1152.153 2677.633 1152.219 C 2675.201 1152.223 2672.215 1151.411 2670.677 1154.492 C 2676.344 1164.537 2676.45 1164.537 2676.46 1176.187 C 2676.503 1225.484 2676.398 1274.782 2676.55 1324.079 C 2676.578 1333.159 2676.805 1342.085 2668.333 1351.198 C 2679.816 1351.198 2688.439 1351.514 2697.029 1351.112 C 2706.208 1350.682 2715.623 1352.973 2725.255 1349.148 C 2719.803 1342.972 2718.625 1336.054 2718.768 1328.501 C 2719.058 1313.184 2718.806 1297.858 2718.889 1282.536 C 2718.909 1278.761 2719.355 1274.989 2719.679 1270.1 C 2726.801 1269.961 2732.691 1269.846 2742.448 1269.732 M 3025.525 1351.234 C 3034.173 1350.757 3042.882 1350.763 3051.464 1349.72 C 3090.854 1344.934 3116.283 1322.701 3126.762 1285.126 C 3134.837 1256.167 3132.78 1226.864 3119.531 1199.383 C 3109.199 1177.952 3092.495 1162.951 3068.847 1157.7 C 3055.281 1154.687 3041.284 1152.432 3027.432 1152.133 C 2992.782 1151.384 2958.103 1151.901 2923.439 1152.058 C 2920.433 1152.071 2916.72 1150.682 2914.568 1154.372 C 2920.296 1164.625 2920.457 1164.624 2920.468 1174.295 C 2920.525 1225.583 2920.525 1276.872 2920.472 1328.16 C 2920.46 1339.27 2920.322 1339.27 2914.522 1349.155 C 2914.98 1349.67 2915.407 1350.575 2915.841 1350.579 C 2951.159 1350.844 2986.477 1351.039 3025.525 1351.234 M 1619.799 1351.703 C 1669.119 1351.704 1718.437 1351.704 1767.757 1351.709 C 1771.088 1351.709 1774.457 1351.454 1777.742 1351.853 C 1780.981 1352.247 1784.145 1353.296 1787.329 1354.106 C 1789.973 1354.779 1791.283 1359.188 1795.175 1357.255 C 1795.175 1342.314 1795.175 1327.777 1795.175 1311.404 C 1788.1 1318.55 1780.637 1319.774 1772.423 1319.719 C 1735.768 1319.475 1699.111 1319.619 1662.456 1319.571 C 1659.302 1319.567 1656.147 1319.182 1652.019 1318.909 C 1650.671 1306.745 1651.455 1295.519 1651.336 1284.353 C 1651.267 1277.798 1651.657 1271.237 1651.857 1264.068 C 1656.18 1263.688 1659.372 1263.175 1662.566 1263.164 C 1683.227 1263.088 1703.894 1263.423 1724.544 1262.976 C 1733.02 1262.793 1740.198 1264.695 1747.972 1273.363 C 1747.701 1256.189 1748.569 1241.83 1747.24 1225.455 C 1738.689 1233.089 1729.668 1233.532 1720.253 1233.356 C 1701.598 1233.008 1682.932 1233.316 1664.271 1233.2 C 1660.444 1233.176 1656.623 1232.484 1652.115 1232.031 C 1651.42 1215.506 1649.638 1199.938 1653.265 1183.812 C 1693.503 1183.812 1732.807 1183.775 1772.11 1183.88 C 1775.379 1183.889 1778.82 1184.386 1781.865 1185.512 C 1784.99 1186.667 1787.728 1188.873 1791.396 1191.075 C 1791.396 1174.995 1791.396 1160.485 1791.396 1143.741 C 1783.269 1152.203 1774.598 1152.98 1765.201 1152.923 C 1715.217 1152.623 1665.231 1152.741 1615.246 1152.86 C 1610.889 1152.87 1605.96 1151.175 1602.294 1155.331 C 1608.107 1164.3 1608.25 1164.3 1608.261 1174.857 C 1608.316 1226.13 1608.312 1277.403 1608.266 1328.676 C 1608.256 1339.851 1608.136 1339.851 1602.419 1350.91 C 1607.347 1351.19 1611.845 1351.446 1619.799 1351.703 M 1807.549 1635.79 C 1845.637 1630.489 1876.383 1619.128 1894.655 1603.2 C 1888.361 1599.354 1886.527 1593.453 1886.753 1586.459 C 1887.033 1577.814 1887.095 1569.14 1886.723 1560.502 C 1886.345 1551.716 1886.936 1543.361 1896.03 1535.003 C 1887.737 1535.003 1882.567 1535.003 1877.397 1535.003 C 1854.742 1535.002 1832.087 1535.043 1809.431 1534.964 C 1805.461 1534.951 1801.282 1535.106 1797.581 1533.954 C 1794.481 1532.989 1791.942 1530.23 1787.229 1526.908 C 1787.229 1540.517 1787.159 1551.737 1787.302 1562.955 C 1787.324 1564.71 1788.311 1566.453 1788.888 1568.319 C 1793.19 1566.016 1796.841 1562.54 1800.711 1562.276 C 1812.651 1561.461 1824.676 1561.806 1836.667 1561.838 C 1841.175 1561.85 1845.682 1562.239 1850.952 1562.493 C 1850.952 1572.144 1850.952 1580.583 1850.952 1590.369 C 1821.559 1604.617 1790.928 1610.416 1758.797 1599.853 C 1738.186 1593.077 1722.986 1579.646 1715.67 1558.582 C 1704.597 1526.704 1714.938 1483.976 1759.083 1468.247 C 1791.639 1456.647 1834.674 1466.564 1858.615 1491.398 C 1866.366 1477.429 1873.478 1463.328 1879.373 1449.351 C 1870.162 1447.417 1862.001 1445.925 1853.963 1443.93 C 1849.466 1442.814 1845.241 1440.643 1840.783 1439.325 C 1812.939 1431.102 1784.751 1427.715 1755.965 1433.767 C 1734.747 1438.229 1714.784 1446.046 1699.265 1461.397 C 1644.7 1515.368 1667.315 1599.981 1725.908 1625.764 C 1751.006 1636.809 1776.996 1640.073 1807.549 1635.79 M 2859.086 1610.054 C 2882.151 1629.184 2909.08 1637.731 2938.634 1637.686 C 2975.266 1637.631 3009.905 1628.794 3042.301 1611.576 C 3045.671 1609.785 3048.76 1607.467 3051.93 1605.425 C 3049.097 1600.58 3045.639 1596.987 3044.924 1592.913 C 3043.785 1586.434 3044.439 1579.635 3044.402 1572.971 C 3044.366 1566.305 3043.712 1559.541 3044.63 1553.002 C 3045.457 1547.096 3048.04 1541.435 3050.059 1534.998 C 3023.326 1534.998 2997.319 1535.025 2971.312 1534.987 C 2957.069 1534.966 2957.069 1534.916 2945.064 1528.867 C 2944.653 1542.217 2943.953 1555.19 2945.587 1568.496 C 2950.568 1566.029 2954.485 1562.795 2958.739 1562.262 C 2966.628 1561.276 2974.72 1561.666 2982.718 1561.858 C 2991.219 1562.061 2999.88 1560.635 3008.76 1563.28 C 3008.76 1572.397 3008.76 1580.899 3008.76 1589.142 C 2983.53 1604.255 2945.891 1609.653 2919.712 1601.196 C 2896.976 1593.852 2879.896 1580.039 2872.449 1556.269 C 2859.992 1516.503 2882.444 1476.449 2922.866 1466.263 C 2942.985 1461.194 2962.558 1464.156 2982.065 1469.508 C 2995.693 1473.248 3007.841 1479.125 3016.001 1494.29 C 3022.56 1477.34 3032.656 1464.191 3036.536 1447.383 C 3026.412 1449.489 3018.361 1446.662 3010.223 1443.501 C 2994.623 1437.443 2978.439 1433.508 2961.787 1431.724 C 2932.591 1428.595 2904.582 1432.458 2878.367 1446.363 C 2840.726 1466.327 2820.449 1508.163 2827.399 1550.451 C 2831.098 1572.96 2840.954 1592.049 2859.086 1610.054 M 2349.716 3190.772 C 2351.818 3194.031 2354.909 3196.946 2352.899 3201.484 C 2351.017 3205.733 2349.396 3210.097 2347.501 3214.341 C 2326.918 3260.475 2306.394 3306.635 2285.649 3352.696 C 2278.469 3368.64 2273.386 3385.647 2259.478 3401.044 C 2270.708 3401.274 2279.115 3401.696 2287.512 3401.551 C 2296.006 3401.404 2304.642 3402.737 2312.862 3400.46 C 2310.028 3378.978 2323.671 3364.024 2330.297 3347.159 C 2350.001 3344.871 2415.525 3345.025 2431.777 3347.389 C 2436.891 3358.359 2442.713 3369.596 2447.337 3381.304 C 2449.562 3386.936 2449.526 3393.46 2450.708 3400.784 C 2467.081 3402.388 2484.951 3401.677 2502.807 3401.102 C 2503.659 3401.075 2504.46 3399.475 2504.767 3399.151 C 2500.191 3391.1 2495.205 3383.523 2491.375 3375.402 C 2465.569 3320.689 2440 3265.863 2414.373 3211.065 C 2409.221 3200.047 2409.26 3200.029 2411.735 3186.213 C 2391.043 3187.07 2370.596 3184.809 2349.716 3190.772 M 3483.921 3193.482 C 3488.967 3199.693 3484.001 3204.757 3481.738 3209.867 C 3456.698 3266.388 3431.57 3322.87 3406.26 3379.27 C 3403.881 3384.574 3400.034 3389.211 3397.01 3394.243 C 3395.867 3396.144 3395.128 3398.286 3393.551 3401.75 C 3411.98 3400.947 3428.521 3402.85 3445.037 3400.65 C 3442.997 3378.823 3455.745 3363.175 3464.262 3345.513 C 3497.846 3345.518 3530.365 3345.452 3562.87 3345.556 C 3565.628 3350.784 3567.839 3354.806 3569.891 3358.907 C 3572.27 3363.666 3574.629 3368.441 3576.77 3373.309 C 3578.641 3377.564 3580.887 3381.831 3581.706 3386.322 C 3582.556 3390.984 3581.895 3395.922 3581.895 3401.504 C 3600.043 3401.504 3617.288 3401.538 3634.533 3401.416 C 3635.518 3401.409 3636.492 3400.122 3638.618 3398.619 C 3626.852 3387.403 3622.438 3372.094 3615.774 3358.028 C 3593.58 3311.167 3571.787 3264.115 3549.838 3217.138 C 3547.587 3212.319 3546.214 3206.715 3542.835 3202.882 C 3537.463 3196.788 3548.717 3192.228 3543.139 3186.368 C 3524.717 3186.368 3506.079 3186.364 3487.441 3186.373 C 3484.605 3186.374 3482.315 3187.114 3483.921 3193.482 M 2605.146 1278.975 C 2588.951 1246.211 2572.692 1213.479 2556.594 1180.668 C 2549.911 1167.046 2550.068 1166.969 2556.266 1152.639 C 2534.939 1151.495 2514.064 1151.434 2492.747 1152.689 C 2499.009 1167.639 2499.008 1167.639 2493.046 1180.968 C 2492.774 1181.575 2492.57 1182.213 2492.283 1182.812 C 2469.011 1231.352 2445.863 1279.95 2422.324 1328.36 C 2418.672 1335.87 2413.242 1342.516 2408.25 1350.15 C 2427.129 1352.304 2446.708 1351.262 2467.228 1350.884 C 2460.113 1339.948 2459.017 1337.725 2461.242 1332.67 C 2466.009 1321.841 2470.288 1310.694 2477.501 1300.958 C 2507.853 1300.958 2537.71 1300.958 2568.816 1300.958 C 2573.515 1310.382 2578.503 1319.695 2582.774 1329.326 C 2584.3 1332.765 2584.993 1337.123 2584.386 1340.784 C 2583.881 1343.827 2580.916 1346.463 2578.056 1350.754 C 2586.858 1350.965 2594.059 1351.213 2601.262 1351.291 C 2609.253 1351.378 2617.256 1351.592 2625.228 1351.221 C 2631.959 1350.907 2639.144 1352.939 2646.727 1348.484 C 2637.631 1343.31 2633.29 1335.943 2629.455 1328.111 C 2621.859 1312.597 2614.134 1297.145 2605.146 1278.975 M 1976.31 1519.914 C 1964.258 1545.094 1952.207 1570.273 1940.154 1595.452 C 1938.145 1599.649 1936.189 1603.872 1934.106 1608.032 C 1931.727 1612.786 1929.567 1617.699 1926.683 1622.136 C 1924.368 1625.7 1921.115 1628.658 1917.027 1633.306 C 1938.257 1633.306 1957.328 1633.306 1976.441 1633.306 C 1969.793 1618.692 1969.716 1618.656 1976.445 1604.405 C 1979.806 1597.283 1983.514 1590.323 1986.762 1583.888 C 2009.968 1581.668 2064.009 1582.025 2079.698 1584.468 C 2083.427 1591.853 2087.466 1599.485 2091.173 1607.275 C 2097.039 1619.602 2096.944 1619.647 2090.034 1633.55 C 2093.618 1633.686 2096.671 1633.897 2099.725 1633.902 C 2118.203 1633.933 2136.68 1633.917 2157.929 1633.917 C 2152.624 1628.31 2148.73 1624.968 2145.828 1620.918 C 2142.754 1616.631 2140.46 1611.749 2138.103 1606.991 C 2114.785 1559.946 2091.513 1512.878 2068.266 1465.798 C 2066.21 1461.634 2064.376 1457.357 2062.514 1453.1 C 2060.789 1449.152 2061.042 1445.49 2063.862 1441.96 C 2065.313 1440.145 2066.178 1437.864 2067.714 1435.053 C 2045.488 1435.053 2024.451 1435.053 2003.134 1435.053 C 2009.468 1450.475 2009.587 1450.53 2002.68 1465.124 C 1994.437 1482.545 1985.965 1499.858 1976.31 1519.914 M 1379.054 3401.587 C 1382.311 3401.304 1385.567 3401.022 1394.713 3400.229 C 1378.845 3393.106 1381.564 3382.697 1381.561 3373.129 C 1381.547 3328.521 1381.599 3283.913 1381.772 3239.305 C 1381.792 3234.259 1382.726 3229.217 1383.366 3222.872 C 1402.49 3222.872 1420.378 3222.85 1438.264 3222.88 C 1452.819 3222.904 1452.819 3222.932 1464.013 3228.497 C 1467.689 3209.458 1467.227 3191.699 1462.775 3180.984 C 1453.526 3186.278 1453.526 3186.361 1440.987 3186.369 C 1387.011 3186.403 1333.034 3186.399 1279.057 3186.372 C 1266.039 3186.365 1266.039 3186.298 1254.436 3180.998 C 1252.009 3196.361 1252.876 3211.44 1253.813 3226.502 C 1253.868 3227.389 1255.495 3228.178 1257.158 3229.725 C 1261.84 3223.268 1268.674 3222.51 1276.195 3222.669 C 1292.847 3223.021 1309.513 3222.674 1326.169 3222.866 C 1329.861 3222.909 1333.54 3224.005 1338.319 3224.798 C 1338.319 3232.426 1338.319 3239.009 1338.319 3245.592 C 1338.319 3286.205 1338.32 3326.819 1338.316 3367.432 C 1338.316 3373.425 1337.284 3379.635 1338.527 3385.354 C 1340.089 3392.529 1329.978 3393.507 1331.832 3401.589 C 1346.449 3401.589 1361.002 3401.589 1379.054 3401.587 M 2505.444 3182.214 C 2504.164 3182.029 2502.886 3181.844 2500.952 3181.565 C 2499.498 3197.317 2499.351 3212.953 2501.262 3231.097 C 2508.375 3223.252 2515.979 3222.535 2524.077 3222.691 C 2540.064 3222.996 2556.064 3222.682 2572.058 3222.852 C 2575.82 3222.892 2579.573 3223.838 2584.383 3224.515 C 2584.383 3231.398 2584.383 3237.303 2584.383 3243.207 C 2584.383 3286.488 2584.39 3329.769 2584.378 3373.05 C 2584.374 3387.489 2584.351 3387.489 2577.518 3400.845 C 2596.949 3400.845 2616 3400.845 2635.308 3400.845 C 2628.346 3387.348 2628.243 3387.348 2628.238 3379.47 C 2628.206 3330.862 2628.204 3282.254 2628.273 3233.646 C 2628.277 3230.526 2628.957 3227.407 2629.479 3222.954 C 2644.436 3222.931 2658.303 3222.905 2672.172 3222.889 C 2678.836 3222.881 2685.626 3223.696 2692.134 3222.687 C 2699.744 3221.507 2704.674 3228.237 2712.203 3228.962 C 2712.465 3212.266 2713.628 3196.622 2710.885 3176.197 C 2704.194 3188.182 2695.863 3186.334 2688.062 3186.342 C 2633.413 3186.396 2578.764 3186.42 2524.117 3186.294 C 2518.878 3186.282 2513.642 3185.184 2505.444 3182.214 M 3677.432 3292.118 C 3677.432 3298.113 3677.432 3304.107 3677.432 3310.102 C 3677.432 3316.097 3677.432 3322.091 3677.432 3328.086 C 3677.432 3334.081 3677.432 3340.075 3677.432 3346.07 C 3677.432 3352.731 3677.434 3359.391 3677.432 3366.052 C 3677.431 3372.047 3676.192 3378.386 3677.746 3383.945 C 3679.532 3390.334 3671.65 3393.783 3673.951 3400.567 C 3681.124 3400.567 3687.749 3400.567 3694.373 3400.567 C 3741.038 3400.567 3787.705 3400.512 3834.371 3400.608 C 3845.362 3400.631 3856.548 3399.091 3867.855 3405.36 C 3867.855 3389.865 3867.855 3376.043 3867.855 3359.206 C 3858.47 3367.919 3848.48 3365.722 3838.846 3365.759 C 3805.513 3365.889 3772.18 3365.844 3738.848 3365.779 C 3732.957 3365.768 3727.07 3365.341 3720.428 3365.076 C 3719.939 3360.361 3719.202 3356.534 3719.196 3352.706 C 3719.117 3304.749 3719.331 3256.791 3718.952 3208.836 C 3718.891 3201.134 3721.063 3194.731 3725.96 3187.697 C 3707.429 3187.697 3690.195 3187.697 3671.311 3187.697 C 3677.944 3195.262 3677.546 3203.691 3677.491 3212.186 C 3677.327 3237.496 3677.432 3262.807 3677.432 3292.118 M 2754.88 3386.366 C 2756.809 3394.019 2745.297 3393.175 2746.186 3401.562 C 2762.039 3401.562 2777.942 3401.628 2793.845 3401.521 C 2798.364 3401.49 2802.878 3400.959 2807.866 3400.626 C 2798.369 3387.479 2798.265 3387.479 2798.282 3376.238 C 2798.367 3320.968 2798.508 3265.698 2798.652 3210.427 C 2798.661 3207.106 2798.416 3203.681 2799.137 3200.497 C 2799.666 3198.163 2801.259 3195.827 2802.969 3194.066 C 2804.916 3192.063 2809.167 3191.581 2806.091 3186.327 C 2799.879 3186.327 2793.248 3186.327 2786.617 3186.327 C 2779.286 3186.327 2771.951 3186.179 2764.623 3186.373 C 2758.417 3186.537 2751.969 3185.324 2745.258 3187.865 C 2754.809 3198.291 2754.812 3198.291 2754.981 3210.902 C 2755.008 3212.9 2754.99 3214.898 2754.989 3216.896 C 2754.982 3272.166 2754.973 3327.437 2754.88 3386.366 M 898.926 3401.613 C 913.424 3401.561 927.932 3401.733 943.221 3401.474 C 934.742 3387.166 934.729 3387.166 934.743 3371.86 C 934.793 3319.868 934.851 3267.875 934.909 3215.883 C 934.914 3211.217 935.037 3206.549 934.934 3201.886 C 934.835 3197.411 936.763 3194.543 940.768 3192.481 C 942.015 3191.838 942.331 3189.387 943.748 3186.289 C 922.376 3186.647 902.209 3185.27 878.323 3187.62 C 884.125 3191.891 887.094 3194.077 890.344 3196.469 C 890.344 3261.576 890.344 3326.823 890.344 3391.305 C 887.622 3394.935 881.373 3393.807 882.515 3400.832 C 886.636 3401.079 891.065 3401.345 898.926 3401.613 M 2478.243 1468.827 C 2478.242 1515.488 2478.108 1562.15 2478.36 1608.81 C 2478.408 1617.638 2477.543 1625.799 2469.27 1634.019 C 2485.026 1634.019 2498.315 1634.019 2511.602 1634.019 C 2516.745 1634.019 2521.888 1634.019 2529.983 1634.019 C 2520.89 1624.887 2520.895 1615.793 2520.934 1606.429 C 2521.125 1559.768 2521.018 1513.107 2521.021 1466.446 C 2521.021 1461.113 2520.286 1455.631 2521.289 1450.49 C 2522.316 1445.241 2525.064 1440.327 2527.24 1434.805 C 2508.215 1434.805 2490.273 1434.805 2468.923 1434.805 C 2480.599 1443.982 2477.933 1454.822 2478.243 1468.827 Z" style=""/>
  <path fill="currentColor" opacity="1.000000" stroke="none" d="M 2178.327 2491.997 C 2176.618 2452.856 2174.949 2415.588 2173.51 2378.311 C 2169.994 2287.112 2166.581 2195.91 2163.147 2104.708 C 2163.025 2101.453 2163.132 2098.19 2163.132 2094.098 C 2167.308 2092.731 2170.84 2090.985 2174.547 2090.45 C 2234.856 2081.742 2295.385 2079.311 2355.972 2086.592 C 2398.409 2091.691 2440.099 2100.631 2479.446 2118.017 C 2544.026 2146.552 2593.517 2190.941 2622.949 2256.023 C 2636.235 2285.4 2644.14 2316.445 2647.674 2348.245 C 2655.656 2420.084 2648.973 2490.544 2623.056 2558.497 C 2588.866 2648.135 2523.458 2704.621 2433.455 2733.837 C 2386.239 2749.163 2337.347 2755.714 2287.744 2755.873 C 2259.753 2755.962 2231.755 2754.773 2203.766 2753.953 C 2199.265 2753.821 2194.796 2752.602 2189.137 2751.698 C 2184.793 2665.29 2181.974 2579.563 2178.327 2491.997 Z" style=""/>
  <path fill="currentColor" opacity="1.000000" stroke="none" d="M 1859.469 3223.052 C 1868.707 3223.12 1876.14 3222.441 1883.327 3223.47 C 1890.455 3224.491 1897.977 3226.059 1904.197 3229.452 C 1920.172 3238.164 1920.048 3259.432 1904.16 3268.328 C 1899.084 3271.17 1892.924 3273.478 1887.219 3273.57 C 1856.061 3274.074 1824.892 3273.81 1792.711 3273.81 C 1790.615 3265.274 1791.628 3257.365 1791.467 3249.597 C 1791.303 3241.649 1791.431 3233.696 1791.431 3225.402 C 1803.202 3221.095 1814.533 3223.605 1825.591 3223.147 C 1836.229 3222.706 1846.898 3223.051 1859.469 3223.052 Z" style=""/>
  <path fill="currentColor" opacity="1.000000" stroke="none" d="M 2001.265 1281.119 C 1990.779 1306.862 1972.312 1318.817 1946.546 1319.386 C 1925.292 1319.856 1904.017 1319.482 1882.132 1319.482 C 1878.269 1304.514 1880.7 1289.936 1880.276 1275.556 C 1879.826 1260.276 1880.175 1244.973 1880.175 1229.679 C 1880.175 1215.112 1880.175 1200.545 1880.175 1185.186 C 1884.994 1184.479 1888.776 1183.494 1892.57 1183.444 C 1907.209 1183.252 1921.853 1183.211 1936.491 1183.427 C 1942.452 1183.515 1948.403 1184.369 1954.352 1184.938 C 1984.362 1187.809 1998.33 1206.746 2003.315 1232.243 C 2006.353 1247.771 2006.985 1263.968 2001.265 1281.119 Z" style=""/>
  <path fill="currentColor" opacity="1.000000" stroke="none" d="M 2919.701 3359.669 C 2895.183 3337.497 2889.343 3310.449 2893.446 3280.606 C 2898.166 3246.28 2928.676 3220.067 2964.284 3219.556 C 2976.897 3219.376 2989.462 3220.951 3001.405 3225.789 C 3043.935 3243.014 3063.349 3291.936 3043.999 3333.354 C 3024.811 3374.422 2974.124 3391.148 2934.015 3369.51 C 2929.368 3367.003 2925.187 3363.631 2919.701 3359.669 Z" style=""/>
  <path fill="currentColor" opacity="1.000000" stroke="none" d="M 2760.908 1238.04 C 2746.385 1238.04 2733.821 1238.04 2721.543 1238.04 C 2717.721 1223.01 2717.611 1200.103 2721.223 1183.814 C 2724.144 1183.569 2727.329 1183.081 2730.513 1183.071 C 2751.067 1183.009 2771.621 1182.884 2792.17 1183.157 C 2798.753 1183.245 2805.354 1184.258 2811.889 1185.228 C 2824.613 1187.116 2831.182 1199.668 2831.881 1209.387 C 2832.698 1220.773 2825.422 1231.806 2814.224 1235.269 C 2808.631 1236.999 2802.562 1237.671 2796.677 1237.883 C 2785.42 1238.29 2774.138 1238.025 2760.908 1238.04 Z" style=""/>
  <path fill="currentColor" opacity="1.000000" stroke="none" d="M 2982.182 1183.29 C 2995.347 1183.289 3006.661 1183.087 3017.962 1183.358 C 3024.582 1183.517 3031.189 1184.401 3037.796 1185.005 C 3063.824 1187.385 3079.242 1204.013 3085.279 1229.09 C 3089.212 1245.425 3090.304 1262.097 3084.921 1278.31 C 3077.95 1299.299 3064.407 1313.656 3041.744 1317.878 C 3029.714 1320.119 2979.127 1320 2964.463 1317.536 C 2961.998 1303.439 2961.367 1212.105 2963.575 1186.37 C 2968.306 1181.216 2974.677 1184.089 2982.182 1183.29 Z" style=""/>
  <path fill="currentColor" opacity="1.000000" stroke="none" d="M 2395.025 3271.799 C 2400.354 3284.125 2404.992 3295.1 2409.545 3306.111 C 2409.729 3306.556 2409.118 3307.328 2408.32 3309.382 C 2399.376 3310.931 2389.569 3309.832 2379.875 3310.019 C 2369.917 3310.212 2359.952 3310.062 2349.606 3310.062 C 2349.21 3307.609 2348.141 3305.487 2348.747 3304.091 C 2357.994 3282.802 2367.46 3261.607 2377.168 3239.729 C 2383.738 3243.157 2384.307 3249.399 2386.873 3254.141 C 2389.71 3259.386 2391.865 3265.001 2395.025 3271.799 Z" style=""/>
  <path fill="currentColor" opacity="1.000000" stroke="none" d="M 3513.4 3310.062 C 3501.639 3310.062 3491.783 3310.062 3481.396 3310.062 C 3481.396 3306.993 3480.783 3304.817 3481.488 3303.219 C 3490.798 3282.084 3500.293 3261.03 3510.032 3239.307 C 3519.909 3253.398 3537.087 3290.566 3541.794 3307.558 C 3538.365 3311.809 3533.469 3309.674 3529.222 3309.985 C 3524.606 3310.323 3519.946 3310.062 3513.4 3310.062 Z" style=""/>
  <path fill="currentColor" opacity="1.000000" stroke="none" d="M 2527.114 1208.912 C 2536.295 1230.761 2547.252 1250.335 2554.956 1272.627 C 2547.393 1275.239 2540.87 1274.057 2534.552 1274.218 C 2527.267 1274.405 2519.975 1274.262 2512.686 1274.262 C 2506.087 1274.262 2499.486 1274.262 2492.496 1274.262 C 2492.241 1271.658 2491.336 1269.499 2491.989 1268.034 C 2501.666 1246.337 2511.548 1224.731 2521.705 1202.395 C 2523.917 1204.859 2525.171 1206.258 2527.114 1208.912 Z" style=""/>
  <path fill="currentColor" opacity="1.000000" stroke="none" d="M 2029.161 1491.498 C 2031.249 1488.868 2032.696 1487.571 2034.815 1485.67 C 2044.649 1507.074 2054.317 1528.022 2063.845 1549.034 C 2064.588 1550.674 2064.342 1552.762 2064.484 1554.009 C 2063.866 1555.282 2063.718 1556.058 2063.251 1556.419 C 2062.781 1556.78 2061.993 1556.833 2061.343 1556.839 C 2044.821 1556.978 2028.299 1557.122 2011.776 1557.189 C 2008.594 1557.202 2005.41 1556.899 2000.71 1556.667 C 2007.981 1533.732 2019.739 1513.899 2029.161 1491.498 Z" style=""/>
  <path fill="currentColor" opacity="1.000000" stroke="none" d="M 3274.821 4548.688 C 3137.063 4606.168 2996.662 4649.629 2852.251 4680.04 C 2786.54 4693.879 2720.291 4704.512 2653.635 4712.938 C 2532.22 4728.289 2410.358 4732.623 2288.165 4729.292 C 2218.099 4727.382 2148.319 4721.462 2078.701 4713.131 C 1910.36 4692.985 1746.195 4654.841 1586.227 4598.923 C 994.041 4391.93 514.33 3961.03 243.341 3410.632 C 151.013 3223.104 85.017 3026.644 44.563 2821.644 C 27.219 2733.746 15.205 2645.079 7.846 2555.727 C 1.015 2472.808 -1.257 2389.817 0.647 2306.707 C 2.334 2233.016 7.935 2159.582 16.598 2086.343 C 42.371 1868.485 97.886 1658.502 182.03 1455.995 C 434.109 849.329 929.837 373.524 1545.959 146.671 C 1680.385 97.174 1818.074 59.814 1959.128 35.089 C 2034.54 21.871 2110.414 11.575 2186.91 7.185 C 2241.701 4.041 2296.55 0.939 2351.405 0.181 C 2445.389 -1.117 2539.101 4.612 2632.476 15.63 C 3085.491 69.085 3491.759 236.313 3846.807 522.622 C 4236.682 837.013 4499.917 1237.108 4639.665 1718.223 C 4668.495 1817.479 4689.536 1918.424 4704.672 2020.675 C 4724.938 2157.538 4732.997 2295.095 4729.013 2433.318 C 4726.66 2514.94 4719.857 2596.241 4709.114 2677.252 C 4679.013 2904.19 4617.561 3122.237 4523.984 3331.077 C 4278.654 3878.575 3838.638 4309.452 3286.316 4543.819 C 3282.996 4545.228 3279.662 4546.608 3274.821 4548.688 M 4543.385 2541.699 C 4544.644 2523.685 4546.301 2505.688 4547.089 2487.654 C 4551.076 2396.631 4550.938 2305.679 4544.346 2214.723 C 4539.433 2146.941 4531.756 2079.517 4520.571 2012.544 C 4499.842 1888.427 4468.731 1766.945 4427.188 1648.078 C 4201.878 1003.417 3683.711 498.305 3033.627 290.232 C 2901.987 248.096 2767.603 218.465 2630.306 201.916 C 2558.516 193.262 2486.537 187.806 2414.287 186.227 C 2297.077 183.667 2180.405 190.521 2064.224 206.627 C 1951.74 222.219 1841.042 245.909 1732.566 279.366 C 1298.372 413.283 937.701 656.706 655.005 1012.316 C 364.385 1377.898 209.698 1796.427 183.642 2262.287 C 175.799 2402.504 182.592 2542.422 203.075 2681.615 C 218.972 2789.665 241.404 2896.238 273.781 3000.483 C 428.79 3499.581 721.341 3897.509 1155.384 4189.055 C 1433.069 4375.575 1739.269 4489.62 2070.797 4535.424 C 2152.48 4546.711 2234.515 4553.289 2316.878 4555.118 C 2460.27 4558.299 2602.594 4547.093 2743.909 4522.204 C 2890.112 4496.455 3032.23 4456.462 3170.143 4401.666 C 3734.134 4177.586 4176.065 3734.646 4398.746 3170.039 C 4477.96 2969.191 4525.645 2760.933 4543.385 2541.699 Z"/>
</svg>