<?xml version="1.0" encoding="utf-8"?>
<svg viewBox="0 0 642 642" width="642" height="642" xmlns="http://www.w3.org/2000/svg">
  <path fill="currentColor" opacity="1.000000" stroke="none" d="M 20.851 435.534 C 15.891 418.572 9.844 402.238 6.312 385.378 C 1.019 360.107 -0.771 334.397 0.293 308.45 C 1.19 286.586 3.917 265.032 9.194 243.898 C 15.785 217.5 25.567 192.258 38.644 168.279 C 63.313 123.046 96.979 86.001 139.185 56.653 C 157.078 44.211 175.99 33.414 196.365 25.647 C 212.766 19.394 229.325 13.088 246.343 9.022 C 279.129 1.189 312.549 -2.194 346.268 1.492 C 362.721 3.29 379.267 5.27 395.375 8.915 C 416.214 13.63 436.33 20.876 455.834 29.903 C 476.586 39.508 496.119 51.062 514.316 64.749 C 536.807 81.666 556.794 101.286 574.12 123.53 C 593.294 148.146 608.715 174.864 620.008 204.023 C 627.538 223.467 632.928 243.379 637.05 263.822 C 642.337 290.045 642.679 316.463 641.328 342.854 C 640.483 359.335 637.497 375.817 634.192 392.038 C 628.801 418.489 619.192 443.556 606.832 467.579 C 594.042 492.44 578.294 515.198 559.553 535.943 C 530.456 568.153 496.214 593.385 457.009 611.895 C 436.129 621.752 414.315 629.125 391.865 634.308 C 360.043 641.655 327.65 643.272 295.175 641.066 C 281.825 640.159 268.606 637.136 255.365 634.858 C 233.304 631.061 212.312 623.778 191.887 614.799 C 138.284 591.236 94.483 555.517 60.129 508.16 C 44.791 487.016 32.374 464.249 22.668 439.999 C 22.119 438.624 21.484 437.284 20.851 435.534 M 380.829 604.284 C 402.394 599.413 423.3 592.64 443.356 583.221 C 479.644 566.18 511.174 542.77 537.692 512.744 C 567.239 479.288 588.312 441.203 600.126 397.983 C 604.688 381.291 607.96 364.414 609.442 347.262 C 611.811 319.815 610.569 292.535 605.012 265.396 C 601.693 249.187 597.343 233.39 591.533 217.948 C 582.021 192.665 568.872 169.395 552.703 147.794 C 532.525 120.839 508.379 98.051 480.237 79.628 C 452.207 61.278 422.056 47.825 389.253 40.186 C 371.22 35.986 353.118 33.071 334.668 32.292 C 315.341 31.475 296.002 31.705 276.966 35.493 C 261.425 38.586 245.704 41.429 230.671 46.271 C 206.516 54.05 183.769 65.174 162.493 79.233 C 134.428 97.779 110.137 120.303 89.924 147.161 C 68.004 176.289 51.407 208.157 42.432 243.617 C 38.585 258.822 34.883 274.222 33.12 289.76 C 30.473 313.088 30.161 336.624 34.416 359.911 C 37.06 374.385 38.852 389.211 43.42 403.091 C 49.446 421.401 56.595 439.572 65.442 456.674 C 83.118 490.844 107.434 520.025 137.297 544.397 C 170.469 571.471 207.62 590.58 249.272 601.191 C 271.935 606.964 294.841 609.937 318.084 610.344 C 338.89 610.708 359.556 608.585 380.829 604.284 Z" transform="matrix(1, 0, 0, 1, 7.105427357601002e-15, -3.552713678800501e-15)"/>
  <path fill="currentColor" opacity="1.000000" stroke="none" d="M 422.972 364.825 C 419.234 376.016 417.951 387.564 419.141 399.219 C 420.86 416.058 423.482 432.806 425.111 449.652 C 426.167 460.567 426.639 471.595 426.474 482.558 C 426.249 497.338 424.275 511.945 418.943 525.905 C 410.378 548.326 395.273 564.397 372.997 573.668 C 347.225 584.394 319.967 585.861 293.303 581.657 C 260.834 576.538 234.673 559.713 220.581 528.266 C 215.569 517.082 213.207 505.148 211.406 492.931 C 208.927 476.117 210.961 459.682 213.579 443.331 C 215.532 431.136 219.279 419.204 222.623 407.265 C 225.367 397.461 228.473 387.742 231.812 378.123 C 236.927 363.397 242.448 348.812 247.667 334.122 C 252.131 321.561 257.665 309.231 256.054 295.316 C 253.787 275.727 237.118 267.166 220.075 270.866 C 200.591 275.097 188.235 287.873 179.676 305.667 C 179.861 302.758 179.759 299.797 180.277 296.95 C 184.528 273.643 196.212 254.18 211.782 236.805 C 226.498 220.384 243.564 206.916 263.178 196.797 C 288.165 183.906 314.365 178.557 342.463 183.511 C 361.635 186.891 379.26 193.378 394.874 205.265 C 407.383 214.788 414.312 227.84 419.916 242.011 C 426.669 259.09 429.556 276.816 425.322 294.617 C 421.683 309.916 416.155 324.848 410.455 339.552 C 403.79 356.741 396.049 373.513 388.736 390.449 C 386.852 394.813 384.748 399.082 382.895 403.459 C 382.226 405.043 381.996 406.814 381.328 409.43 C 389.19 406.69 395.92 403.532 400.42 397.923 C 406.131 390.804 410.682 382.739 415.566 374.977 C 417.74 371.523 419.505 367.812 422.001 364.324 C 422.688 364.562 422.83 364.694 422.972 364.825 Z" transform="matrix(1, 0, 0, 1, 7.105427357601002e-15, -3.552713678800501e-15)"/>
  <path fill="currentColor" opacity="1.000000" stroke="none" d="M 191.922 383.488 C 195.591 389.572 198.469 395.82 202.688 400.968 C 206.07 405.093 205.445 409.005 204.348 413.009 C 196.815 440.488 192.748 468.127 197.641 496.669 C 202.128 522.838 213.179 545.075 234.467 561.47 C 240.139 565.838 246.581 569.207 253.348 573.46 C 251.167 573.46 249.275 573.884 247.655 573.399 C 204.488 560.455 166.629 538.486 134.726 506.522 C 111.629 483.382 93.451 456.765 80.407 426.849 C 73.245 410.423 68.05 393.289 64.411 375.602 C 59.13 349.937 57.585 324.153 60.032 298.192 C 62.241 274.744 67.752 252.024 76.218 229.918 C 91.945 188.842 116.678 154.257 149.807 125.619 C 174.504 104.272 202.238 87.969 233.289 77.626 C 244.318 73.952 255.535 70.835 267.815 67.116 C 256.309 87.341 252.165 107.481 261.783 128.137 C 271.213 148.391 287.28 160.877 309.963 164.667 C 258.368 171.743 218.092 196.431 192.874 242.427 C 167.458 288.787 168.098 336.06 191.922 383.488 Z" transform="matrix(1, 0, 0, 1, 7.105427357601002e-15, -3.552713678800501e-15)"/>
  <path fill="currentColor" opacity="1.000000" stroke="none" d="M 527.912 165.883 C 529.145 166.487 530.81 166.766 531.547 167.744 C 542.703 182.532 552.724 198.141 559.635 215.302 C 566.386 232.065 572.7 249.166 577.188 266.638 C 582.315 286.596 583.979 307.269 582.885 327.952 C 582.184 341.212 581.325 354.519 579.453 367.65 C 575.965 392.137 568.039 415.404 557.187 437.551 C 541.642 469.277 520.47 496.83 493.709 519.97 C 472.325 538.459 448.677 553.205 422.44 563.988 C 407.739 570.03 392.706 574.66 377.289 578.216 C 374.602 578.836 371.745 578.721 368.314 578.998 C 376.909 574.827 385.125 571.533 392.638 567.058 C 410.707 556.294 422.876 540.522 431.081 521.169 C 441.376 496.884 443.935 471.492 442.774 445.636 C 441.985 428.071 439.29 410.6 438.181 393.04 C 436.383 364.589 444.166 339.43 465.428 319.396 C 486.153 299.869 505.203 279.01 517.574 252.95 C 523.026 241.464 527.542 229.519 528.733 216.818 C 529.956 203.789 530.198 190.655 530.483 177.558 C 530.564 173.817 529.301 170.047 528.329 166.073 C 528.005 165.856 527.912 165.883 527.912 165.883 Z" transform="matrix(1, 0, 0, 1, 7.105427357601002e-15, -3.552713678800501e-15)"/>
  <path fill="currentColor" opacity="1.000000" stroke="none" d="M 397.624 125.476 C 403.585 114.575 402.495 89.94 394.236 73.751 C 398.91 75.246 402.838 76.107 406.43 77.721 C 421.573 84.523 437.134 90.632 451.55 98.754 C 465.891 106.834 474.334 120.58 479.637 136.027 C 486.344 155.561 485.999 175.472 482.443 195.534 C 478.735 216.451 471.154 236.05 462.165 255.705 C 438.312 206.149 399.947 175.687 345.377 165.591 C 369.964 161.572 387.508 148.593 397.624 125.476 Z" transform="matrix(1, 0, 0, 1, 7.105427357601002e-15, -3.552713678800501e-15)"/>
  <path fill="currentColor" opacity="1.000000" stroke="none" d="M 359.962 155.946 C 353.316 159.106 347.169 162.943 340.48 164.637 C 334.684 166.106 328.155 165.965 322.155 165.108 C 302.866 162.35 287.256 153.345 277.116 136.156 C 270.276 124.56 266.949 111.854 269.069 98.632 C 274.713 63.455 306.201 40.996 341.253 48.612 C 365.726 53.929 383.727 74.346 386.55 97.49 C 389.521 121.846 380.877 141.664 359.962 155.946 Z" transform="matrix(1, 0, 0, 1, 7.105427357601002e-15, -3.552713678800501e-15)"/>
  <path fill="currentColor" opacity="1.000000" stroke="none" d="M 423.707 361.574 C 423.868 360.656 424.028 359.737 424.189 358.819 C 424.566 358.874 424.943 358.929 425.32 358.985 C 425.051 359.864 424.782 360.743 424.132 361.617 C 423.752 361.612 423.707 361.574 423.707 361.574 Z" transform="matrix(1, 0, 0, 1, 7.105427357601002e-15, -3.552713678800501e-15)"/>
  <path fill="currentColor" opacity="1.000000" stroke="none" d="M 423.777 361.627 C 423.75 362.581 423.697 363.519 423.308 364.642 C 422.83 364.694 422.688 364.562 422.337 364.23 C 422.429 363.194 422.731 362.36 423.37 361.549 C 423.707 361.574 423.752 361.612 423.777 361.627 Z" transform="matrix(1, 0, 0, 1, 7.105427357601002e-15, -3.552713678800501e-15)"/>
  <path fill="currentColor" opacity="1.000000" stroke="none" d="M 527.964 165.872 C 528.184 165.632 528.445 165.377 528.706 165.121 C 528.621 165.309 528.536 165.496 528.181 165.783 C 527.912 165.883 528.005 165.856 527.964 165.872 Z" transform="matrix(1, 0, 0, 1, 7.105427357601002e-15, -3.552713678800501e-15)"/>
</svg>