<?xml version="1.0" encoding="utf-8"?>
<svg viewBox="0 0 2060 1168" width="2060px" height="1168px" xmlns="http://www.w3.org/2000/svg">
  <path fill="#C8102E" opacity="1.000000" stroke="none" d="M 2060 871.302 C 2057.507 875.4 2054.942 879.013 2052.542 882.733 C 2050.939 885.216 2048.997 887.691 2048.222 890.455 C 2046.548 896.416 2042.545 896.855 2037.287 896.851 C 1876.74 896.741 1716.196 896.797 1555.65 896.611 C 1550.13 896.605 1547.279 898.573 1545.002 903.096 C 1536.707 919.576 1528.295 935.997 1519.852 952.401 C 1504.633 981.973 1489.362 1011.519 1474.106 1041.07 C 1464.514 1059.649 1454.941 1078.237 1445.298 1096.789 C 1433.457 1119.574 1421.572 1142.337 1409.608 1165.058 C 1408.965 1166.279 1407.425 1167.827 1406.272 1167.853 C 1396.306 1168.074 1386.331 1167.98 1375.684 1167.98 C 1375.684 1165.813 1375.684 1164.045 1375.684 1162.275 C 1375.684 880.253 1375.69 598.23 1375.615 316.209 C 1375.614 312.922 1376.648 310.689 1378.928 308.415 C 1419.304 268.143 1459.627 227.817 1499.864 187.406 C 1502.322 184.937 1504.759 184.084 1508.16 184.09 C 1569.509 184.182 1630.861 184.193 1692.212 184.046 C 1695.11 184.039 1698.431 183.058 1700.836 181.452 C 1741.807 154.127 1782.651 126.613 1823.551 99.18 C 1852.991 79.435 1882.487 59.773 1911.925 40.023 C 1930.193 27.768 1948.403 15.427 1966.621 3.096 C 1967.683 2.377 1968.581 1.41 1969.257 0.279 C 1980.319 0 1991.677 0 2003.492 0.368 C 1996.415 15.56 1988.888 30.386 1981.352 45.207 C 1971.571 64.446 1961.783 83.684 1951.993 102.919 C 1942.352 121.859 1932.697 140.794 1923.062 159.738 C 1913.354 178.829 1903.671 197.932 1893.962 217.022 C 1884.328 235.967 1874.638 254.883 1865.038 273.845 C 1851.938 299.719 1838.83 325.586 1825.924 351.555 C 1824.148 355.13 1822.172 356.411 1818.111 356.404 C 1734.582 356.27 1651.053 356.304 1567.523 356.304 C 1565.417 356.304 1563.311 356.304 1561.186 356.304 C 1561.186 479.087 1561.186 601.219 1561.186 723.332 C 1622.238 723.332 1682.874 723.332 1743.985 723.332 C 1742.569 714.936 1741.212 706.884 1739.854 698.834 C 1737.374 684.116 1734.906 669.395 1732.404 654.681 C 1729.904 639.967 1727.352 625.263 1724.85 610.55 C 1722.624 597.454 1720.458 584.345 1718.221 571.25 C 1716.812 563.006 1715.185 554.797 1713.906 546.534 C 1712.991 540.635 1713.944 539.473 1718.951 539.47 C 1752.629 539.45 1786.309 539.427 1819.986 539.56 C 1821.595 539.566 1823.765 540.615 1824.717 541.892 C 1834.226 554.668 1843.574 567.566 1852.894 580.483 C 1867.875 601.251 1882.751 622.098 1897.768 642.84 C 1915.101 666.779 1932.588 690.606 1949.916 714.549 C 1964.932 735.293 1979.768 756.165 1994.775 776.916 C 2015.462 805.522 2036.225 834.073 2057.013 862.606 C 2057.696 863.544 2058.991 864.035 2060 864.734 C 2060 866.778 2060 868.822 2060 871.302 Z" transform="matrix(1, 0, 0, 1, 1.4210854715202004e-14, 1.4210854715202004e-14)"/>
  <path fill="#C8102E" opacity="1.000000" stroke="none" d="M 90.492 0 C 91.791 1.069 92.414 2.441 93.48 3.161 C 111.158 15.119 128.878 27.015 146.615 38.886 C 176.069 58.6 205.558 78.262 235.002 97.99 C 264.18 117.539 293.323 137.139 322.478 156.724 C 334.6 164.867 346.628 173.153 358.896 181.071 C 361.465 182.728 364.897 183.859 367.936 183.867 C 429.129 184.028 490.321 184.012 551.512 183.924 C 555.058 183.919 557.652 184.75 560.261 187.369 C 600.372 227.641 640.578 267.817 680.869 307.908 C 683.475 310.501 684.361 313.065 684.36 316.631 C 684.288 597.905 684.294 879.179 684.294 1160.453 C 684.294 1162.41 684.294 1164.368 684.294 1166.904 C 673.689 1166.904 663.571 1166.981 653.458 1166.789 C 652.414 1166.769 651.013 1165.348 650.432 1164.236 C 640.366 1144.988 630.395 1125.692 620.421 1106.397 C 605.159 1076.873 589.925 1047.334 574.651 1017.816 C 564.897 998.963 555.072 980.148 545.314 961.299 C 535.026 941.428 524.713 921.568 514.568 901.623 C 512.483 897.528 509.966 895.808 505.055 895.812 C 343.988 895.965 182.92 895.92 21.852 896.026 C 17.089 896.029 14.066 895.218 11.835 890.38 C 8.721 883.63 4.426 877.422 0.274 870.962 C -0.09 868.899 -0.09 866.857 0.269 864.363 C 1.413 863.162 2.332 862.511 2.962 861.648 C 9.347 852.897 15.684 844.111 22.037 835.338 C 36.76 815.005 51.487 794.677 66.205 774.343 C 78.523 757.326 90.811 740.288 103.148 723.286 C 118.759 701.772 134.438 680.307 150.028 658.778 C 162.348 641.767 174.545 624.666 186.86 607.651 C 202.636 585.854 218.525 564.137 234.227 542.287 C 236.09 539.695 238.037 538.882 241.142 538.893 C 273.658 539.009 306.174 538.962 338.691 538.965 C 346.326 538.966 347.137 540.337 345.57 548.106 C 343.821 556.78 342.57 565.553 341.097 574.283 C 338.916 587.21 336.741 600.139 334.543 613.064 C 332.072 627.604 329.566 642.139 327.1 656.68 C 324.606 671.383 322.141 686.092 319.663 700.799 C 318.449 707.998 317.237 715.199 315.994 722.574 C 377.343 722.574 438.096 722.574 498.895 722.574 C 498.895 600.291 498.895 478.388 498.895 355.977 C 496.648 355.977 494.688 355.977 492.73 355.977 C 440.538 355.977 388.346 355.977 336.153 355.977 C 304.303 355.977 272.454 355.93 240.605 356.05 C 237.52 356.061 236.013 355.137 234.643 352.331 C 229.593 341.983 224.172 331.814 218.92 321.564 C 209.384 302.953 199.839 284.346 190.353 265.711 C 180.495 246.345 170.727 226.932 160.869 207.566 C 151.382 188.93 141.802 170.341 132.312 151.708 C 122.152 131.755 112.069 111.763 101.911 91.809 C 92.725 73.76 83.39 55.786 74.297 37.691 C 68.023 25.206 62.049 12.569 55.941 0 C 67.302 0 78.662 0 90.492 0 Z" transform="matrix(1, 0, 0, 1, 1.4210854715202004e-14, 1.4210854715202004e-14)"/>
  <path fill="#C8102E" opacity="1.000000" stroke="none" d="M 811.367 355.977 C 796.564 355.977 782.262 355.977 767.653 355.977 C 767.653 299.59 767.653 243.676 767.653 186.987 C 769.411 186.987 771.166 186.987 772.922 186.987 C 903.158 186.987 1033.395 187 1163.631 186.916 C 1166.924 186.914 1169.149 187.969 1171.418 190.244 C 1210.74 229.665 1250.165 268.981 1289.429 308.457 C 1291.165 310.203 1292.505 313.241 1292.507 315.679 C 1292.653 467.165 1292.652 618.651 1292.511 770.136 C 1292.508 772.585 1291.232 775.649 1289.504 777.387 C 1250.122 816.981 1210.62 856.456 1171.001 895.814 C 1169.263 897.54 1166.194 898.809 1163.743 898.812 C 1033.507 898.955 903.27 898.938 773.034 898.938 C 771.386 898.938 769.739 898.938 767.72 898.938 C 767.72 779.904 767.72 661.211 767.72 542.241 C 817.833 542.241 867.784 542.241 918.09 542.241 C 920.877 558.712 923.621 575.159 926.451 591.592 C 929.316 608.222 932.336 624.824 935.157 641.461 C 937.678 656.333 940.008 671.237 942.446 686.123 C 944.461 698.417 946.421 710.724 948.685 722.973 C 948.903 724.151 950.995 725.203 952.426 725.862 C 953.391 726.304 954.722 725.951 955.889 725.951 C 1004.248 725.951 1052.607 725.951 1100.968 725.951 C 1102.935 725.951 1104.903 725.951 1107.199 725.951 C 1107.199 602.611 1107.199 479.703 1107.199 355.977 C 1008.793 355.977 910.329 355.977 811.367 355.977 Z" transform="matrix(1, 0, 0, 1, 1.4210854715202004e-14, 1.4210854715202004e-14)"/>
</svg>