<?xml version="1.0" encoding="utf-8"?>
<svg viewBox="0 0 410 410" width="410" height="410" xmlns="http://www.w3.org/2000/svg">
  <path fill="#B04EC4" opacity="1.000000" stroke="none" d="M 410 141.617 C 409.29 142.824 408.214 143.478 407.924 144.382 C 401.587 164.19 395.304 184.014 389.075 203.857 C 379.831 233.302 370.609 262.754 361.428 292.219 C 351.807 323.097 342.246 353.996 332.652 384.883 C 332.101 386.656 331.485 388.41 330.626 391 C 320.899 379.66 311.811 368.957 302.6 358.363 C 296.744 351.628 290.65 345.102 284.758 338.398 C 273.227 325.274 261.802 312.056 250.257 298.946 C 241.859 289.41 233.277 280.037 224.887 270.496 C 213.58 257.637 202.404 244.662 191.119 231.783 C 185.462 225.328 179.858 218.811 173.883 212.66 C 171.503 210.21 170.906 208.164 171.969 204.977 C 180.144 180.468 188.199 155.919 196.261 131.372 C 203.716 108.68 211.133 85.976 218.651 63.02 C 185.505 63.02 152.672 62.989 119.84 63.134 C 118.544 63.14 116.475 64.565 116.084 65.759 C 111.694 79.186 107.557 92.696 103.362 106.187 C 97.631 124.617 91.909 143.05 86.103 161.741 C 114.915 161.741 143.608 161.741 172.96 161.741 C 171.311 166.852 169.649 171.964 168.012 177.085 C 164.994 186.528 161.853 195.937 159.058 205.446 C 158.188 208.406 156.783 209.159 153.856 209.147 C 128.02 209.037 102.182 209.154 76.346 209.007 C 72.383 208.985 70.542 209.748 69.244 214.103 C 62.798 235.742 55.741 257.198 48.945 278.733 C 45.982 288.121 43.126 297.543 39.985 307.714 C 35.131 301.324 30.529 295.308 25.973 289.258 C 18.308 279.081 10.688 268.869 3 258.71 C 2.315 257.807 1.267 257.178 0.163 256.763 C -0.063 255.39 -0.063 253.674 0.218 251.872 C 0.987 250.985 1.663 250.243 1.93 249.377 C 4.084 242.402 6.099 235.384 8.273 228.416 C 14.166 209.525 20.087 190.644 26.052 171.777 C 38.139 133.556 50.3 95.359 62.35 57.128 C 66.343 44.458 70.089 31.712 73.949 19 C 142.98 19 212.011 19 281.502 19.388 C 275.63 39.727 269.333 59.69 262.957 79.628 C 257.418 96.944 251.716 114.209 246.229 131.541 C 243.06 141.553 240.174 151.653 237.057 162.063 C 247.841 162.063 258.321 162.063 268.802 162.063 C 295.45 162.063 322.099 162.107 348.747 161.963 C 350.489 161.954 353.395 160.886 353.786 159.674 C 360.068 140.218 365.999 120.65 372.089 101.132 C 373.063 98.013 374.418 95.013 375.559 92.055 C 378.571 95.904 381.312 99.291 383.93 102.771 C 391.577 112.937 399.144 123.164 406.846 133.289 C 407.514 134.167 408.931 134.477 410 135.051 C 410 137.094 410 139.136 410 141.617 M 322.483 207.081 C 290.144 207.081 257.805 207.081 224.799 207.081 C 253.179 239.421 280.858 270.96 308.795 302.793 C 318.849 270.91 328.853 239.184 338.872 207.413 C 338.121 207.254 337.797 207.128 337.474 207.127 C 332.809 207.102 328.145 207.093 322.483 207.081 Z" transform="matrix(1, 0, 0, 1.0000000000000002, 0, -8.881784197001252e-16)"/>
</svg>