<?xml version="1.0" encoding="utf-8"?>
<svg viewBox="0 0 339 339" width="339px" height="339px" xmlns="http://www.w3.org/2000/svg">
  <path opacity="1.000000" stroke="none" d="M 45.185 187.701 C 45.102 153.01 45.107 118.753 45 84.498 C 44.99 81.34 45.903 79.316 48.672 77.532 C 88.045 52.168 127.356 26.708 166.633 1.196 C 169.106 -0.409 170.997 -0.392 173.457 1.204 C 212.886 26.778 252.358 52.287 291.849 77.764 C 294.058 79.189 294.983 80.913 294.979 83.535 C 294.931 117.624 294.931 151.713 295 185.803 C 295.005 188.544 293.796 190.544 292.286 192.595 C 267.514 226.242 242.763 259.905 218.009 293.566 C 207.514 307.837 197.027 322.115 186.526 336.383 C 185.489 337.793 184.743 339.568 182.685 340 C 181.175 338.032 181.831 335.967 181.829 334.068 C 181.789 280.762 181.799 227.455 181.8 174.149 C 181.8 172.812 181.82 171.474 181.768 170.139 C 181.644 166.863 180.126 165.908 177.21 167.541 C 176.192 168.111 175.19 168.753 174.305 169.507 C 171.47 171.925 168.796 172.079 165.779 169.628 C 164.082 168.247 162.176 165.845 159.681 167.338 C 157.337 168.742 158.251 171.592 158.249 173.849 C 158.187 226.989 158.175 280.128 158.109 333.267 C 158.106 335.33 158.766 337.598 157.086 339.464 C 154.805 339.268 154.177 337.321 153.15 335.926 C 118.462 288.806 83.791 241.672 49.153 194.517 C 47.681 192.512 46.538 190.268 45.185 187.701 M 158.264 133.293 C 160.176 134.637 162.284 135.774 163.961 137.365 C 168.041 141.239 171.79 141.537 176.06 137.51 C 178.668 135.05 181.424 132.623 185.607 132.645 C 196.135 132.7 206.751 131.553 217.169 132.564 C 227.527 133.569 235.718 130.371 243.222 124.024 C 245.774 121.865 249.467 120.989 251.594 116.522 C 197.375 116.518 143.974 116.465 90.302 117.67 C 95.227 122.496 100.487 126.134 105.623 129.937 C 108.757 132.258 112.138 132.809 115.978 132.785 C 129.839 132.699 143.703 132.912 158.264 133.293 Z" style="fill: rgb(255, 0, 0);" transform="matrix(1, 0, 0, 1, 3.552713678800501e-15, 0)"/>
</svg>