<?xml version="1.0" encoding="utf-8"?>
<svg viewBox="1395.5481 431.6163 519.059 717.9025" width="519.059px" height="717.903px" xmlns="http://www.w3.org/2000/svg">
  <path opacity="1.000000" stroke="none" d="&#10;M1514.220581,993.338379 &#10;&#9;C1508.325562,984.903870 1502.556763,976.377808 1496.514526,968.050232 &#10;&#9;C1464.637695,924.117310 1432.707764,880.222961 1400.744629,836.352783 &#10;&#9;C1397.769653,832.269592 1395.531860,828.387024 1395.548218,822.841187 &#10;&#9;C1395.763550,750.220215 1395.696777,677.598450 1395.714478,604.976868 &#10;&#9;C1395.714722,603.988892 1395.890747,603.000977 1396.083984,600.968872 &#10;&#9;C1481.932983,544.913208 1568.286987,488.527893 1655.446899,431.616333 &#10;&#9;C1741.629272,487.843201 1827.961304,544.167725 1914.413086,600.570374 &#10;&#9;C1914.413086,604.311890 1914.412109,607.629517 1914.413086,610.947144 &#10;&#9;C1914.432739,681.236816 1914.372681,751.526794 1914.606934,821.815796 &#10;&#9;C1914.628296,828.236511 1912.735107,833.177917 1909.040405,838.225708 &#10;&#9;C1877.376221,881.484619 1845.902100,924.882690 1813.549561,969.191528 &#10;&#9;C1808.413208,976.393921 1804.098511,982.644104 1799.225708,989.229614 &#10;&#9;C1798.316406,990.341553 1797.964966,991.118225 1797.143066,992.069580 &#10;&#9;C1796.458130,992.855591 1796.243774,993.466858 1795.455078,994.413696 &#10;&#9;C1791.186035,999.790161 1787.491455,1004.831055 1783.882446,1009.914307 &#10;&#9;C1783.968018,1009.956665 1783.866333,1009.795044 1783.247803,1010.102051 &#10;&#9;C1772.987793,1024.214111 1763.346313,1038.018921 1753.075439,1052.087036 &#10;&#9;C1745.631958,1062.236694 1738.817749,1072.123291 1731.457031,1082.306519 &#10;&#9;C1729.867310,1084.362549 1728.824463,1086.121948 1727.861328,1087.894531 &#10;&#9;C1727.940918,1087.907837 1727.893311,1087.753540 1727.399658,1087.952881 &#10;&#9;C1726.648560,1088.784668 1726.390991,1089.417236 1726.066895,1090.041260 &#10;&#9;C1726.000244,1090.032837 1726.075806,1090.143921 1725.508423,1090.490967 &#10;&#9;C1712.705566,1107.925781 1700.470093,1125.013550 1687.654663,1142.525391 &#10;&#9;C1685.776245,1144.523315 1684.477905,1146.097290 1681.655029,1149.518799 &#10;&#9;C1681.655029,1143.317261 1681.654785,1139.745605 1681.655029,1136.173950 &#10;&#9;C1681.659424,1076.412720 1681.672852,1016.651428 1681.645630,956.890137 &#10;&#9;C1681.644043,953.257446 1681.318848,949.624939 1681.356934,945.077148 &#10;&#9;C1681.598999,891.421753 1681.633423,838.681580 1681.638428,785.941406 &#10;&#9;C1681.638672,783.966553 1681.353394,781.991760 1681.323242,779.328735 &#10;&#9;C1680.004028,778.980164 1678.562744,779.319763 1676.475586,779.813049 &#10;&#9;C1668.985474,784.540100 1662.141235,789.113464 1655.332642,793.663025 &#10;&#9;C1646.917725,787.973694 1639.056152,782.658569 1629.986816,776.526917 &#10;&#9;C1629.766235,781.204895 1629.489380,784.363403 1629.487671,787.522095 &#10;&#9;C1629.468628,823.057922 1629.467529,858.593750 1629.525879,894.129456 &#10;&#9;C1629.536743,900.754944 1629.833008,907.379883 1629.755371,914.776367 &#10;&#9;C1629.495850,989.864014 1629.481934,1064.180420 1629.444702,1138.496704 &#10;&#9;C1629.443481,1140.816528 1629.214844,1143.137329 1629.051636,1145.454834 &#10;&#9;C1629.033569,1145.710205 1628.797119,1146.022583 1628.571533,1146.172241 &#10;&#9;C1628.307007,1146.347778 1627.943359,1146.373779 1627.188354,1146.587891 &#10;&#9;C1624.765991,1143.825928 1622.212402,1140.914429 1619.496338,1137.358032 &#10;&#9;C1590.355835,1096.881714 1561.388428,1057.042969 1532.377441,1017.235779 &#10;&#9;C1530.447876,1014.588379 1528.188599,1012.181213 1526.082642,1009.662354 &#10;&#9;C1526.205322,1009.041870 1526.038208,1008.513000 1525.018921,1007.256592 &#10;&#9;C1523.019653,1004.790955 1521.582764,1003.144470 1520.145874,1001.497925 &#10;&#9;C1520.145874,1001.497925 1520.056519,1000.630432 1519.652100,999.895325 &#10;&#9;C1518.572998,998.482727 1517.898315,997.805237 1517.223633,997.127808 &#10;&#9;C1517.223633,997.127808 1517.058228,997.038086 1516.864258,996.385376 &#10;&#9;C1515.853760,994.934631 1515.037109,994.136475 1514.220581,993.338379 &#10;M1770.118164,676.279175 &#10;&#9;C1749.405640,676.406555 1728.693237,676.533997 1706.145264,676.272400 &#10;&#9;C1632.722656,676.242432 1559.300171,676.209351 1485.877563,676.198608 &#10;&#9;C1483.894531,676.198303 1481.911377,676.438110 1478.949585,676.167419 &#10;&#9;C1478.359497,676.547974 1477.769287,676.928528 1477.179199,677.309021 &#10;&#9;C1478.103271,677.977356 1479.027344,678.645691 1480.931763,680.321106 &#10;&#9;C1494.622437,689.715515 1508.460083,698.905762 1521.929199,708.607788 &#10;&#9;C1527.095825,712.329407 1532.330933,713.606628 1538.560425,713.557068 &#10;&#9;C1566.466431,713.334839 1594.375488,713.540771 1622.282227,713.379822 &#10;&#9;C1627.174316,713.351624 1631.183716,714.380493 1635.057129,717.576782 &#10;&#9;C1641.437500,722.841553 1648.275879,727.551208 1655.220093,732.717346 &#10;&#9;C1657.854492,730.900330 1660.510620,729.479187 1662.667725,727.511108 &#10;&#9;C1673.255127,717.851196 1684.881836,711.023010 1701.773193,713.403748 &#10;&#9;C1722.490601,713.247925 1743.207886,713.092102 1765.656494,713.443726 &#10;&#9;C1776.420288,714.953857 1785.517822,711.879333 1794.210815,705.150024 &#10;&#9;C1805.223145,696.625244 1817.154419,689.290710 1828.639282,681.370056 &#10;&#9;C1830.300537,680.224243 1831.682495,678.673035 1833.935425,676.640015 &#10;&#9;C1812.331055,676.640015 1792.143188,676.640015 1770.118164,676.279175 &#10;z" style="fill: rgb(244, 0, 0);"/>
</svg>