<?xml version="1.0" encoding="utf-8"?>
<svg viewBox="117.1905 653.3119 803.4294 344.7912" width="803.429px" height="344.791px" xmlns="http://www.w3.org/2000/svg">
  <path fill="#F3F3F4" opacity="1.000000" stroke="none" d="&#10;M493.397461,685.385620 &#10;&#9;C490.169769,686.846924 487.410522,687.915588 484.565430,688.246704 &#10;&#9;C461.407684,690.941528 438.190704,693.169312 415.078430,696.200012 &#10;&#9;C396.144226,698.682861 385.832123,711.203125 385.833618,730.367249 &#10;&#9;C385.836334,765.361328 385.827881,800.355469 385.912262,835.349365 &#10;&#9;C385.965698,857.524841 396.191467,869.105042 418.402649,871.764160 &#10;&#9;C440.889709,874.456421 463.402161,876.980347 485.947662,879.110229 &#10;&#9;C491.683960,879.652222 494.311157,881.611206 494.756927,887.384277 &#10;&#9;C495.217529,893.348694 496.473663,899.247742 497.249603,905.192688 &#10;&#9;C498.273804,913.039246 497.525116,914.144531 489.627502,914.061218 &#10;&#9;C470.972992,913.864258 452.304993,913.741089 433.672119,912.916626 &#10;&#9;C361.445587,909.720947 289.230835,906.259949 217.011398,902.904419 &#10;&#9;C195.711090,901.914734 174.411972,900.895264 153.107925,899.992920 &#10;&#9;C143.066635,899.567566 134.147324,896.562744 127.003036,889.260803 &#10;&#9;C120.138817,882.245178 117.147163,873.870056 117.190994,863.954590 &#10;&#9;C117.401657,816.295959 117.334084,768.636169 117.365417,720.976746 &#10;&#9;C117.369362,714.977661 117.803185,708.941956 117.295219,702.986572 &#10;&#9;C115.956459,687.290833 129.729858,668.720276 150.828415,667.775208 &#10;&#9;C176.455994,666.627319 202.072586,665.234009 227.694214,663.952576 &#10;&#9;C278.937958,661.389587 330.169800,658.546326 381.429932,656.368286 &#10;&#9;C416.376007,654.883362 451.361633,654.328674 486.329803,653.367065 &#10;&#9;C487.994934,653.321289 489.669556,653.263489 491.327576,653.381775 &#10;&#9;C497.144318,653.796753 498.175629,654.901123 497.398804,660.937317 &#10;&#9;C496.378662,668.863953 495.032227,676.748535 493.397461,685.385620 &#10;z" transform="matrix(1, 0, 0, 1.0000000000000002, 2.1316282072803006e-14, 0)"/>
  <path fill="#F3F3F4" opacity="1.000000" stroke="none" d="&#10;M676.200439,910.046509 &#10;&#9;C634.288269,911.436523 593.340637,912.850098 552.386780,914.056641 &#10;&#9;C539.590942,914.433655 539.594971,914.179443 541.454224,901.258057 &#10;&#9;C542.165588,896.313599 543.054871,891.377319 543.416748,886.404785 &#10;&#9;C543.779419,881.420959 546.255127,879.661804 551.051880,879.235168 &#10;&#9;C568.633545,877.671448 586.189819,875.815918 603.746521,873.983154 &#10;&#9;C609.707153,873.360840 615.643799,872.503113 621.586243,871.713867 &#10;&#9;C638.609436,869.452942 652.891724,857.396484 652.363464,836.516602 &#10;&#9;C651.461914,800.882385 651.603638,765.197632 652.360596,729.556396 &#10;&#9;C652.714966,712.869873 641.175049,698.405640 623.177002,696.142700 &#10;&#9;C599.719971,693.193359 576.193481,690.787659 552.683228,688.276001 &#10;&#9;C544.734436,687.426819 544.639038,687.617737 543.327393,679.758911 &#10;&#9;C542.340698,673.847107 541.515137,667.906067 540.738831,661.962280 &#10;&#9;C539.762512,654.487854 540.666504,653.289246 548.675842,653.429443 &#10;&#9;C572.989014,653.854980 597.313721,654.143738 621.605469,655.163696 &#10;&#9;C671.198242,657.245972 720.774597,659.724976 770.353394,662.128540 &#10;&#9;C809.285156,664.015869 848.214661,665.958069 887.136902,668.030334 &#10;&#9;C905.883423,669.028503 919.384644,682.703796 920.493103,701.406738 &#10;&#9;C920.630981,703.732544 920.599792,706.070007 920.600281,708.402039 &#10;&#9;C920.609863,758.721924 920.661133,809.041992 920.545593,859.361572 &#10;&#9;C920.533508,864.636658 920.310120,870.139343 918.838379,875.140198 &#10;&#9;C914.486389,889.927979 902.039246,898.666626 884.778320,899.589905 &#10;&#9;C859.162903,900.960022 833.537659,902.146667 807.917480,903.428345 &#10;&#9;C764.332153,905.608704 720.747437,907.802185 676.200439,910.046509 &#10;z" transform="matrix(1, 0, 0, 1.0000000000000002, 2.1316282072803006e-14, 0)"/>
  <path fill="#E7E8EC" opacity="1.000000" stroke="none" d="&#10;M625.643921,942.736450 &#10;&#9;C635.611755,943.717163 635.695007,943.716064 635.803040,951.769836 &#10;&#9;C635.910278,959.763855 635.636658,967.766418 635.893066,975.753601 &#10;&#9;C636.062561,981.032104 634.072266,984.575378 629.462952,987.104858 &#10;&#9;C623.695862,990.269714 618.121887,993.786682 610.864807,998.103088 &#10;&#9;C610.864807,985.248108 610.864807,973.916138 610.864807,960.997681 &#10;&#9;C607.061096,963.167175 604.814026,964.311646 602.706970,965.672974 &#10;&#9;C588.723694,974.706970 574.889771,983.981079 560.721680,992.713928 &#10;&#9;C557.269165,994.841980 552.787720,996.099976 548.716553,996.272095 &#10;&#9;C537.478088,996.747253 526.206482,996.436340 514.126587,996.436340 &#10;&#9;C512.096375,980.486694 514.290649,965.230103 512.537170,948.409424 &#10;&#9;C500.599823,955.540710 489.597900,962.113159 477.396973,969.401855 &#10;&#9;C486.050659,978.103638 494.336182,986.435242 504.269775,996.424011 &#10;&#9;C494.254120,996.424011 486.646515,996.718140 479.086609,996.246887 &#10;&#9;C476.786530,996.103455 474.216492,994.247131 472.470520,992.482361 &#10;&#9;C468.502228,988.471436 464.968597,984.030518 461.005035,979.473083 &#10;&#9;C453.759796,983.764587 447.588348,986.914429 441.987488,990.871826 &#10;&#9;C435.688690,995.322388 429.063934,996.842529 421.413269,996.662415 &#10;&#9;C398.852692,996.131531 401.995087,999.624207 402.047668,976.912720 &#10;&#9;C402.102264,953.334656 398.574799,959.108948 419.757355,946.048523 &#10;&#9;C421.676697,944.865173 423.797577,944.008545 426.762390,942.533936 &#10;&#9;C428.898956,955.955139 426.761322,968.793640 428.121918,982.399658 &#10;&#9;C430.944550,981.097534 433.319000,980.248962 435.444641,978.982727 &#10;&#9;C453.175842,968.420105 470.936462,957.902710 488.512939,947.086914 &#10;&#9;C493.547943,943.988647 498.599762,942.412231 504.510864,942.646973 &#10;&#9;C512.161133,942.950684 519.834106,942.634705 527.493896,942.772400 &#10;&#9;C530.690430,942.829895 533.878418,943.368347 537.829956,943.764221 &#10;&#9;C537.829956,959.563110 537.829956,974.420715 537.829956,990.650391 &#10;&#9;C541.258545,988.869507 543.560669,987.899414 545.627563,986.564880 &#10;&#9;C564.926147,974.104431 584.324646,961.789734 603.378296,948.963379 &#10;&#9;C610.045837,944.474976 616.725708,941.675171 625.643921,942.736450 &#10;z" transform="matrix(1, 0, 0, 1.0000000000000002, 2.1316282072803006e-14, 0)"/>
</svg>