<?xml version="1.0" encoding="utf-8"?>
<svg viewBox="1318.2273 517.7991 669.5138 566.5173" width="669.514px" height="566.517px" xmlns="http://www.w3.org/2000/svg">
  <path fill="#F3F3F3" opacity="1.000000" stroke="none" d="&#10;M1410.093140,518.470337 &#10;&#9;C1431.433105,518.648682 1452.773071,518.827026 1475.788574,519.058289 &#10;&#9;C1479.673828,518.897522 1481.883423,518.683838 1484.093140,518.470154 &#10;&#9;C1490.778198,518.647217 1497.463257,518.824280 1505.916260,519.055664 &#10;&#9;C1540.999634,519.141174 1574.314941,519.145752 1607.630371,519.219604 &#10;&#9;C1617.791870,519.242188 1617.857178,519.387939 1617.979370,529.094238 &#10;&#9;C1618.004517,531.092896 1617.973389,533.092163 1617.985596,535.091064 &#10;&#9;C1618.134155,559.396851 1618.286133,583.702576 1618.253296,608.830872 &#10;&#9;C1617.412354,619.469910 1617.308594,619.573730 1607.683838,619.704895 &#10;&#9;C1606.020508,619.727539 1604.356812,619.709351 1602.693237,619.709167 &#10;&#9;C1546.133057,619.703613 1489.572876,619.697754 1433.012695,619.692810 &#10;&#9;C1430.683838,619.692627 1428.353638,619.751892 1426.026245,619.694336 &#10;&#9;C1421.553955,619.583801 1419.135742,621.590576 1419.183838,626.192627 &#10;&#9;C1419.378540,644.797119 1419.583130,663.401550 1419.532959,682.810364 &#10;&#9;C1419.446533,686.398987 1419.611084,689.183167 1419.504395,692.873657 &#10;&#9;C1419.418457,711.868469 1419.603638,729.957031 1419.568481,748.725952 &#10;&#9;C1419.688232,750.260498 1420.028320,751.114746 1420.371826,752.481201 &#10;&#9;C1420.940308,753.327087 1421.505493,753.660828 1422.297241,754.622131 &#10;&#9;C1449.343750,782.133301 1476.162720,809.017822 1502.985718,835.898315 &#10;&#9;C1504.867798,837.784424 1506.636353,839.819641 1508.705688,841.475525 &#10;&#9;C1513.108276,844.998352 1516.781616,843.386475 1517.585449,837.643982 &#10;&#9;C1517.814331,836.008911 1517.650879,834.317566 1517.651123,832.652039 &#10;&#9;C1517.653809,808.332886 1517.495483,784.011963 1517.775146,759.696045 &#10;&#9;C1517.838379,754.190918 1516.052734,750.375183 1512.209473,746.593872 &#10;&#9;C1498.201050,732.811707 1484.437256,718.778809 1470.713379,704.711426 &#10;&#9;C1467.492554,701.409973 1464.790039,697.603027 1462.168823,693.337036 &#10;&#9;C1464.939331,687.602966 1469.587036,688.553650 1473.830688,688.551758 &#10;&#9;C1518.135864,688.531799 1562.441040,688.526428 1606.746216,688.563354 &#10;&#9;C1609.728516,688.565857 1612.710571,688.942932 1616.157227,689.783936 &#10;&#9;C1617.074951,693.978149 1617.916382,697.533508 1617.922852,701.090515 &#10;&#9;C1618.016357,752.410400 1617.989014,803.730591 1618.024780,855.050659 &#10;&#9;C1618.027344,858.702759 1618.296997,862.354675 1618.252686,866.926331 &#10;&#9;C1618.049194,885.721558 1617.973633,903.597412 1618.037598,921.472717 &#10;&#9;C1618.112305,942.314758 1618.308960,963.156372 1618.254883,984.916992 &#10;&#9;C1618.044189,1014.430237 1618.031860,1043.024658 1618.016724,1071.619141 &#10;&#9;C1618.015503,1073.946411 1618.192017,1076.295044 1617.943115,1078.596680 &#10;&#9;C1617.345947,1084.116943 1613.426270,1085.943115 1608.904541,1082.741089 &#10;&#9;C1607.029663,1081.413330 1605.538940,1079.539062 1603.889771,1077.896851 &#10;&#9;C1584.570435,1058.659180 1565.294800,1039.377319 1545.914551,1020.201355 &#10;&#9;C1539.317749,1013.674133 1532.459229,1007.411377 1525.720337,1001.027771 &#10;&#9;C1525.720337,1001.027771 1525.263306,1000.153503 1524.711914,1000.044617 &#10;&#9;C1524.160400,999.935730 1524.056763,999.693909 1524.056763,999.693909 &#10;&#9;C1523.890015,999.276245 1523.723267,998.858643 1522.860107,998.189819 &#10;&#9;C1522.163696,997.938599 1522.059692,997.698059 1522.059692,997.698059 &#10;&#9;C1522.059692,997.698059 1521.852783,996.744385 1521.218750,996.031921 &#10;&#9;C1519.758667,994.744385 1518.932373,994.169312 1518.106201,993.594238 &#10;&#9;C1509.754395,985.058411 1501.497437,976.427307 1493.035645,968.002014 &#10;&#9;C1436.915894,912.123535 1380.810669,856.230103 1324.497192,800.547546 &#10;&#9;C1319.771240,795.874451 1318.215698,791.129028 1318.227417,784.734863 &#10;&#9;C1318.385864,697.883484 1318.337891,611.031738 1318.917236,522.704773 &#10;&#9;C1322.268311,520.552368 1325.021484,519.422668 1327.821777,519.290161 &#10;&#9;C1334.079834,518.994019 1340.362427,519.264404 1346.633301,519.179443 &#10;&#9;C1361.120605,518.983215 1375.606812,518.712769 1390.093506,518.472473 &#10;&#9;C1392.192871,518.648926 1394.292114,518.825378 1397.974121,519.055969 &#10;&#9;C1403.068848,518.896851 1406.580933,518.683594 1410.093140,518.470337 &#10;z" transform="matrix(1, 0, 0, 1, -2.2737367544323206e-13, 0)"/>
  <path fill="#F4F4F4" opacity="1.000000" stroke="none" d="&#10;M1687.147217,904.914429 &#10;&#9;C1687.094238,886.129028 1687.311890,868.262146 1687.361816,850.394897 &#10;&#9;C1687.423828,828.210938 1687.347168,806.026550 1687.140869,782.922729 &#10;&#9;C1687.105225,754.834229 1687.238525,727.665161 1687.435669,700.496521 &#10;&#9;C1687.463989,696.593994 1687.800293,692.693726 1688.064819,687.367676 &#10;&#9;C1695.171875,687.367676 1701.682007,687.367676 1709.993408,687.360046 &#10;&#9;C1726.510742,687.187805 1741.227051,687.023132 1756.849365,687.125244 &#10;&#9;C1785.589966,687.674988 1813.443359,687.084167 1840.591919,687.716858 &#10;&#9;C1843.328369,693.976624 1841.144775,697.198975 1837.785645,700.551758 &#10;&#9;C1828.856689,709.464478 1820.237671,718.687805 1810.927734,727.984863 &#10;&#9;C1808.855225,730.016113 1807.350586,731.850037 1805.210571,733.922852 &#10;&#9;C1800.819946,737.899414 1797.232422,741.827881 1793.262451,745.321594 &#10;&#9;C1789.237793,748.863098 1787.628052,752.868286 1787.734741,758.332397 &#10;&#9;C1788.064331,775.222595 1787.858643,792.123169 1787.862671,809.019714 &#10;&#9;C1787.864624,817.633606 1787.669434,826.255493 1788.007446,834.856262 &#10;&#9;C1788.099365,837.195618 1789.239990,840.595825 1790.934448,841.446106 &#10;&#9;C1792.489624,842.226501 1796.061768,840.875122 1797.666260,839.337280 &#10;&#9;C1804.088989,833.181396 1810.091797,826.587402 1816.869629,819.912354 &#10;&#9;C1838.691040,798.461670 1859.889893,777.251282 1881.097534,756.049622 &#10;&#9;C1883.926880,753.221313 1886.565308,750.603943 1886.465088,745.919861 &#10;&#9;C1886.080322,727.945129 1886.067749,709.962463 1886.126465,691.067017 &#10;&#9;C1886.361328,670.170044 1886.411499,650.188843 1886.401611,630.207581 &#10;&#9;C1886.395996,618.611450 1886.069580,618.258362 1874.826172,618.213196 &#10;&#9;C1859.174194,618.150269 1843.521606,618.123291 1827.869873,618.197144 &#10;&#9;C1807.904297,618.291321 1787.939331,618.501465 1767.055420,618.475342 &#10;&#9;C1746.759033,618.410095 1727.381592,618.531189 1708.004028,618.652344 &#10;&#9;C1703.688721,618.502075 1699.370483,618.409973 1695.058960,618.187988 &#10;&#9;C1688.689697,617.860046 1687.585938,616.961609 1687.469482,610.453674 &#10;&#9;C1687.266724,599.131958 1687.410767,587.804016 1687.411255,576.478638 &#10;&#9;C1687.411987,560.156799 1687.337891,543.834473 1687.446167,527.513306 &#10;&#9;C1687.505371,518.591492 1688.202881,517.885620 1697.235352,517.879333 &#10;&#9;C1790.503052,517.814575 1883.770630,517.789307 1977.038330,517.802490 &#10;&#9;C1986.807007,517.803894 1987.450562,518.639771 1987.456909,530.070984 &#10;&#9;C1987.497559,603.352539 1987.507202,676.634033 1987.534546,749.915588 &#10;&#9;C1987.538818,761.240845 1987.291992,772.577209 1987.723022,783.887024 &#10;&#9;C1987.959229,790.086304 1985.874512,794.525024 1981.497559,798.814209 &#10;&#9;C1960.802124,819.093994 1940.362183,839.634460 1919.542603,860.682617 &#10;&#9;C1916.426270,863.852295 1913.598511,866.421448 1910.411255,869.521118 &#10;&#9;C1904.251709,875.655273 1898.451660,881.258972 1892.350220,887.455688 &#10;&#9;C1888.594604,891.343750 1885.140503,894.638794 1881.342285,898.487183 &#10;&#9;C1879.203247,900.686951 1877.408081,902.333313 1875.300537,904.505737 &#10;&#9;C1871.193359,908.636169 1867.398926,912.240601 1863.249756,916.395020 &#10;&#9;C1861.089478,918.610840 1859.284180,920.276672 1857.152222,922.465820 &#10;&#9;C1856.234497,923.193787 1855.751465,923.546326 1855.168701,924.450256 &#10;&#9;C1854.099121,925.558167 1853.237305,926.262695 1852.205200,927.500916 &#10;&#9;C1850.513428,929.340088 1848.992065,930.645569 1847.147949,932.470337 &#10;&#9;C1846.223755,933.206665 1845.727417,933.567871 1845.120605,934.485718 &#10;&#9;C1844.289795,935.114624 1843.788940,935.485779 1843.178223,936.428345 &#10;&#9;C1842.090454,937.550171 1841.227051,938.255371 1840.198486,939.496704 &#10;&#9;C1838.170532,941.638916 1836.307861,943.245056 1834.234375,945.437744 &#10;&#9;C1830.537231,949.285339 1827.050781,952.546387 1823.203125,956.350891 &#10;&#9;C1819.398071,960.151794 1815.954102,963.409241 1812.269775,967.260071 &#10;&#9;C1804.796997,974.683533 1797.564331,981.513672 1789.487793,989.208313 &#10;&#9;C1786.942017,991.994080 1785.239990,993.915283 1783.538086,995.836548 &#10;&#9;C1782.871216,995.813904 1782.366577,996.088867 1781.315918,997.371155 &#10;&#9;C1777.038452,1001.941406 1773.468994,1005.802124 1769.366211,1009.843140 &#10;&#9;C1768.455811,1010.648499 1768.079102,1011.273560 1767.804199,1011.905334 &#10;&#9;C1767.906006,1011.911987 1767.886597,1011.708679 1767.353027,1011.872009 &#10;&#9;C1766.446533,1012.653931 1766.073486,1013.272461 1765.801758,1013.899170 &#10;&#9;C1765.902954,1013.907410 1765.884888,1013.705139 1765.350830,1013.868530 &#10;&#9;C1764.442871,1014.650696 1764.068970,1015.269409 1763.779175,1015.892334 &#10;&#9;C1763.863403,1015.896606 1763.828491,1015.731689 1763.200439,1015.976624 &#10;&#9;C1756.344360,1022.691223 1750.116333,1029.160889 1743.345703,1035.817017 &#10;&#9;C1742.405273,1036.634644 1742.007690,1037.265869 1741.079346,1038.044189 &#10;&#9;C1739.655029,1039.315552 1738.761353,1040.439697 1737.315674,1041.738525 &#10;&#9;C1736.351074,1042.538940 1735.938354,1043.164551 1735.667480,1043.804565 &#10;&#9;C1735.809204,1043.818970 1735.771118,1043.536621 1735.229858,1043.714233 &#10;&#9;C1734.301514,1044.521606 1733.914429,1045.151367 1733.605347,1045.800049 &#10;&#9;C1733.683350,1045.818848 1733.580200,1045.694824 1732.969116,1045.938965 &#10;&#9;C1728.177734,1050.604004 1723.997437,1055.025024 1719.269775,1059.653809 &#10;&#9;C1718.317139,1060.507324 1717.911865,1061.152954 1717.657227,1061.811523 &#10;&#9;C1717.807861,1061.824463 1717.767334,1061.524902 1717.227173,1061.707886 &#10;&#9;C1716.295288,1062.519775 1715.903564,1063.148682 1715.663086,1063.796387 &#10;&#9;C1715.814331,1063.815063 1715.785034,1063.511597 1715.228516,1063.706299 &#10;&#9;C1714.247681,1064.542725 1713.823486,1065.184326 1712.846191,1066.006592 &#10;&#9;C1710.799072,1067.926025 1709.304810,1069.664673 1707.262207,1071.619873 &#10;&#9;C1706.303955,1072.486328 1705.894287,1073.136230 1705.612427,1073.795776 &#10;&#9;C1705.740234,1073.805542 1705.677612,1073.556885 1705.088379,1073.788574 &#10;&#9;C1702.846802,1075.901978 1701.194580,1077.783813 1699.577637,1079.708252 &#10;&#9;C1699.612915,1079.750977 1699.563232,1079.637451 1698.815430,1080.018188 &#10;&#9;C1690.296387,1084.663086 1687.624756,1083.577759 1687.478271,1075.467651 &#10;&#9;C1687.226440,1061.540771 1687.488770,1047.605591 1687.385864,1033.674927 &#10;&#9;C1687.288086,1020.433533 1686.999146,1007.193542 1686.794312,993.952881 &#10;&#9;C1686.964355,991.828918 1687.134277,989.705017 1687.319092,986.077576 &#10;&#9;C1687.151489,983.033813 1686.969116,981.493469 1686.786621,979.953186 &#10;&#9;C1686.989502,960.192505 1687.205566,940.431946 1687.385742,920.671082 &#10;&#9;C1687.430908,915.725525 1687.360596,910.778992 1687.147217,904.914429 &#10;z" transform="matrix(1, 0, 0, 1, -2.2737367544323206e-13, 0)"/>
</svg>