<?xml version="1.0" encoding="utf-8"?>
<svg viewBox="122.6578 604.8744 810.1364 460.2057" width="810.136px" height="460.206px" xmlns="http://www.w3.org/2000/svg">
  <path fill="#F0F1F2" opacity="1.000000" stroke="none" d="&#10;M481.756989,620.146545 &#10;&#9;C548.541199,634.139954 612.429443,656.623718 673.997070,685.859924 &#10;&#9;C767.099121,730.070862 850.790527,788.175659 926.965027,857.368164 &#10;&#9;C928.187073,858.478149 929.844238,859.109131 932.794189,860.842834 &#10;&#9;C903.265076,876.317078 875.961548,890.625061 848.336670,905.101440 &#10;&#9;C835.206787,889.961792 822.386292,875.178833 808.780212,859.519287 &#10;&#9;C806.169250,856.906189 804.343872,855.169678 802.518494,853.433167 &#10;&#9;C802.518494,853.433167 802.138611,853.876282 802.189026,853.117981 &#10;&#9;C801.071716,851.341797 799.903992,850.323914 798.736206,849.306030 &#10;&#9;C798.736206,849.306030 798.088379,849.893372 798.131104,848.971191 &#10;&#9;C762.750549,809.884094 724.024475,775.397034 682.179138,744.441345 &#10;&#9;C671.250916,736.357056 659.752686,729.043274 648.516235,721.375610 &#10;&#9;C648.516235,721.375610 648.145569,721.844055 648.029724,721.084351 &#10;&#9;C646.026184,719.316528 644.138428,718.308411 642.250671,717.300293 &#10;&#9;C619.439026,703.793640 597.141113,689.311523 573.713745,676.974060 &#10;&#9;C516.742859,646.971985 456.650757,625.198181 392.244629,611.285950 &#10;&#9;C385.975403,609.424805 380.990417,608.327942 374.945007,606.997742 &#10;&#9;C377.911652,606.089355 379.895752,605.481873 381.879852,604.874390 &#10;&#9;C382.819061,604.928772 383.758301,604.983154 385.894745,605.624023 &#10;&#9;C390.720062,606.280945 394.348145,606.351318 397.976227,606.421753 &#10;&#9;C401.477173,606.838562 404.978149,607.255310 409.524658,608.231689 &#10;&#9;C411.708771,608.650269 412.847290,608.509216 413.985840,608.368164 &#10;&#9;C415.509674,608.516968 417.033539,608.665771 419.686829,609.480042 &#10;&#9;C423.206238,610.204163 425.596222,610.262878 427.986206,610.321533 &#10;&#9;C430.843323,610.756104 433.700409,611.190613 437.672150,612.052246 &#10;&#9;C438.786774,612.479309 439.698547,612.187012 439.698547,612.187012 &#10;&#9;C442.650299,612.662231 445.602081,613.137512 449.659576,614.059204 &#10;&#9;C450.765320,614.505615 451.631531,614.218628 451.631531,614.218628 &#10;&#9;C453.947235,614.621094 456.262970,615.023621 459.738342,615.965942 &#10;&#9;C461.715363,616.451660 462.532684,616.397461 463.350037,616.343262 &#10;&#9;C464.409576,616.480042 465.469147,616.616821 467.692871,617.472534 &#10;&#9;C470.367920,618.236694 471.878845,618.281921 473.389740,618.327087 &#10;&#9;C475.136108,618.676819 476.882507,619.026550 479.648193,619.911621 &#10;&#9;C480.667511,620.446899 481.281891,620.548828 481.281891,620.548828 &#10;&#9;C481.281891,620.548828 481.756989,620.146545 481.756989,620.146545 &#10;z" transform="matrix(1.0000000000000002, 0, 0, 1, 0, 0)"/>
  <path fill="#F0F1F2" opacity="1.000000" stroke="none" d="&#10;M607.781921,742.661133 &#10;&#9;C611.982117,745.913513 616.182312,749.165894 621.373779,753.210815 &#10;&#9;C624.980103,756.051453 627.722900,757.957092 630.189392,760.170654 &#10;&#9;C647.616455,775.809937 664.986694,791.512390 682.262756,808.017517 &#10;&#9;C682.087952,809.945374 682.025391,811.050537 681.305969,811.889771 &#10;&#9;C674.173035,806.335144 668.120422,800.390625 661.139771,795.883362 &#10;&#9;C641.957458,783.497498 622.419983,771.658508 602.914673,759.780945 &#10;&#9;C600.975891,758.600281 598.294495,758.639282 595.957703,758.112244 &#10;&#9;C593.483887,756.113892 591.286743,753.537109 588.495667,752.202148 &#10;&#9;C526.706116,722.647583 461.566132,708.259155 393.065704,710.580750 &#10;&#9;C338.299683,712.436890 285.619354,724.659363 234.778687,744.973755 &#10;&#9;C231.718460,746.196472 228.626404,747.339539 224.749252,748.826416 &#10;&#9;C200.759872,721.170288 176.810608,693.560425 152.682236,665.744080 &#10;&#9;C263.951385,632.481812 438.471924,628.792297 595.190796,734.535889 &#10;&#9;C597.411316,735.925720 598.731506,736.651062 600.051758,737.376465 &#10;&#9;C600.974304,738.177185 601.896851,738.977905 603.696167,740.422485 &#10;&#9;C605.642639,741.597900 606.712280,742.129517 607.781921,742.661133 &#10;z" transform="matrix(1.0000000000000002, 0, 0, 1, 0, 0)"/>
  <path fill="#F0F1F2" opacity="1.000000" stroke="none" d="&#10;M518.036316,860.175049 &#10;&#9;C512.677063,857.611023 507.317871,855.046997 500.949341,851.513428 &#10;&#9;C479.958771,843.160339 459.977478,835.776855 439.317749,828.027954 &#10;&#9;C432.576294,826.033203 426.513306,824.403870 419.762024,822.422852 &#10;&#9;C414.132263,821.007629 409.190796,819.944031 403.577515,818.530518 &#10;&#9;C392.528992,816.542725 382.152283,814.904785 371.075287,812.893738 &#10;&#9;C359.626801,811.781738 348.878540,811.042786 338.130310,810.303772 &#10;&#9;C284.712341,807.889893 234.538177,819.356873 186.473083,845.593506 &#10;&#9;C184.099426,846.566895 183.032242,847.386108 181.965057,848.205383 &#10;&#9;C181.965057,848.205383 181.735107,848.639893 180.814301,848.580688 &#10;&#9;C178.584473,849.658264 177.275436,850.794983 175.966400,851.931763 &#10;&#9;C175.128265,852.659485 174.290146,853.387268 172.303009,854.230225 &#10;&#9;C169.424194,855.764709 167.694412,857.184082 165.964630,858.603455 &#10;&#9;C165.782730,858.925476 165.600815,859.247498 164.274017,859.684692 &#10;&#9;C159.427002,862.887329 155.724869,865.974792 152.022736,869.062256 &#10;&#9;C152.022736,869.062256 151.600754,869.847717 151.037415,869.875000 &#10;&#9;C150.474091,869.902344 150.271454,870.331909 150.271454,870.331909 &#10;&#9;C150.053787,870.711853 149.836136,871.091858 148.436859,871.779236 &#10;&#9;C144.162125,875.045227 141.068970,878.003784 137.975800,880.962341 &#10;&#9;C137.975800,880.962341 138.085495,881.484619 137.514465,881.821533 &#10;&#9;C136.622925,882.786011 136.302429,883.413574 135.981934,884.041077 &#10;&#9;C135.981934,884.041077 136.036453,884.025269 135.422638,884.084961 &#10;&#9;C133.854843,885.430542 132.900833,886.716431 131.946838,888.002258 &#10;&#9;C131.946838,888.002258 132.010803,888.011169 131.067093,888.265747 &#10;&#9;C128.491455,888.848572 126.859520,889.176819 122.657791,890.021851 &#10;&#9;C126.158607,885.168579 128.074066,882.255310 130.247040,879.548706 &#10;&#9;C136.978592,871.163818 143.808136,862.857666 150.599670,854.520935 &#10;&#9;C150.599670,854.520935 150.371857,854.358337 151.018280,854.414917 &#10;&#9;C151.968521,853.777100 152.272324,853.082703 152.576126,852.388367 &#10;&#9;C152.576126,852.388367 152.335159,852.344849 152.974762,852.410278 &#10;&#9;C153.937897,851.793396 154.261444,851.111023 154.584991,850.428711 &#10;&#9;C154.585007,850.428711 154.360123,850.341919 154.987686,850.395874 &#10;&#9;C155.934296,849.745117 156.253326,849.040405 156.572388,848.335693 &#10;&#9;C156.572388,848.335693 156.314133,848.290527 156.988464,848.301270 &#10;&#9;C159.314560,846.375244 160.966324,844.438538 162.618088,842.501831 &#10;&#9;C162.618103,842.501831 162.392578,842.414612 163.009399,842.446899 &#10;&#9;C163.970642,841.812866 164.315063,841.146484 164.659485,840.480103 &#10;&#9;C164.659500,840.480103 164.405701,840.413147 165.028656,840.444702 &#10;&#9;C165.986710,839.811218 166.321823,839.146179 166.656921,838.481140 &#10;&#9;C166.656921,838.481140 166.395111,838.410156 166.996887,838.489624 &#10;&#9;C167.979980,837.956238 168.361313,837.343323 168.742630,836.730469 &#10;&#9;C168.742630,836.730469 168.077209,836.150330 168.912216,836.387207 &#10;&#9;C170.095596,836.043762 170.443954,835.463501 170.792328,834.883179 &#10;&#9;C170.792328,834.883179 170.415298,834.277771 171.286789,834.352661 &#10;&#9;C178.973557,828.451904 185.788818,822.476318 192.604095,816.500732 &#10;&#9;C192.604111,816.500732 192.377365,816.410889 192.931335,816.512146 &#10;&#9;C193.915146,816.087158 194.344986,815.560913 194.774811,815.034668 &#10;&#9;C194.774796,815.034668 194.678329,814.734253 195.398315,814.676086 &#10;&#9;C197.607697,813.250366 199.097092,811.882874 200.586517,810.515381 &#10;&#9;C200.586517,810.515381 200.364563,810.395142 200.904083,810.522644 &#10;&#9;C202.123596,810.393311 202.547485,809.911316 202.715286,809.204163 &#10;&#9;C202.715286,809.204163 202.900299,809.077576 203.581940,808.877808 &#10;&#9;C205.774582,807.439026 207.285583,806.200012 208.796570,804.960938 &#10;&#9;C208.532425,804.670532 208.268295,804.380127 209.001343,804.403015 &#10;&#9;C210.802994,803.913574 211.607452,803.110901 212.411896,802.308167 &#10;&#9;C212.411880,802.308167 212.191162,802.243164 212.841156,802.303955 &#10;&#9;C214.419601,801.531921 215.348053,800.699036 216.276489,799.866150 &#10;&#9;C216.806290,799.929932 217.272385,799.786560 218.538971,799.002930 &#10;&#9;C221.163635,797.302124 222.924057,796.034302 224.684494,794.766541 &#10;&#9;C224.684494,794.766541 224.001190,794.066589 224.983490,794.330078 &#10;&#9;C228.070114,793.125366 230.174423,791.657227 232.278748,790.189026 &#10;&#9;C232.278748,790.189026 232.111343,790.126709 232.748291,790.211731 &#10;&#9;C234.367905,789.533630 235.350586,788.770447 236.333252,788.007324 &#10;&#9;C259.903992,776.311035 284.068054,766.215088 309.645142,759.631897 &#10;&#9;C355.021088,747.952759 400.976562,745.668335 447.398407,750.670776 &#10;&#9;C476.898132,753.849792 505.925781,759.566956 535.838867,768.149048 &#10;&#9;C551.998901,773.286011 566.794128,777.952148 582.050537,783.153198 &#10;&#9;C585.079956,784.660583 587.648132,785.633118 590.257446,786.621216 &#10;&#9;C582.916199,799.758972 576.190979,811.794373 568.915771,824.208618 &#10;&#9;C563.915100,832.286011 559.464355,839.984619 554.525635,848.126282 &#10;&#9;C549.673950,855.714233 545.310242,862.859192 540.778687,870.278931 &#10;&#9;C538.419983,869.180725 536.689697,868.343750 534.933167,867.565918 &#10;&#9;C533.166321,866.783569 531.373413,866.060059 529.591980,865.310730 &#10;&#9;C527.650757,864.182251 525.709534,863.053772 522.719604,861.323730 &#10;&#9;C520.459351,860.539856 519.247864,860.357422 518.036316,860.175049 &#10;z" transform="matrix(1.0000000000000002, 0, 0, 1, 0, 0)"/>
  <path fill="#E1E2E5" opacity="1.000000" stroke="none" d="&#10;M352.432678,962.027039 &#10;&#9;C352.865143,958.543579 353.297607,955.060120 354.703064,950.832153 &#10;&#9;C359.415009,949.718933 362.160675,950.409180 361.860474,955.148743 &#10;&#9;C361.717896,957.400024 362.105835,959.684875 362.062744,962.621399 &#10;&#9;C362.001434,964.194824 362.130829,965.101440 362.078125,966.907654 &#10;&#9;C362.015961,974.523560 362.135895,981.239746 362.255798,987.955994 &#10;&#9;C361.639709,991.971924 358.645264,991.843018 354.716675,990.945312 &#10;&#9;C353.657959,985.217163 353.504089,980.282288 353.450165,975.346375 &#10;&#9;C353.408142,971.502625 351.826752,969.802490 347.901550,971.053345 &#10;&#9;C347.901550,971.053345 347.117798,970.693420 345.937653,970.540405 &#10;&#9;C340.621429,970.387451 336.485321,970.387451 331.510498,970.387451 &#10;&#9;C331.510498,977.936890 331.510498,984.372620 331.510498,991.557678 &#10;&#9;C328.045807,991.349548 325.518219,991.197693 322.990631,991.045776 &#10;&#9;C322.990631,991.045776 322.792603,991.318604 323.109863,990.405701 &#10;&#9;C323.629181,976.304871 323.831238,963.116882 324.033325,949.928955 &#10;&#9;C324.033325,949.928955 323.955078,949.931335 324.730774,950.029602 &#10;&#9;C327.620453,950.348633 329.734436,950.569397 331.848419,950.790161 &#10;&#9;C331.848419,950.790161 331.738739,951.349243 331.702820,952.459839 &#10;&#9;C331.666870,956.680298 331.666870,959.790222 331.666870,964.452209 &#10;&#9;C339.461395,963.541870 345.947021,962.784485 352.432678,962.027039 &#10;z" transform="matrix(1.0000000000000002, 0, 0, 1, 0, 0)"/>
  <path fill="#D8D9E0" opacity="1.000000" stroke="none" d="&#10;M549.727295,967.334839 &#10;&#9;C546.394409,966.752502 543.882324,965.567810 545.639587,960.730042 &#10;&#9;C552.389160,958.972351 559.681580,959.401489 566.720886,960.335693 &#10;&#9;C574.505920,961.368896 577.332092,968.342896 576.394348,981.382812 &#10;&#9;C575.880554,988.527527 572.828247,991.310791 564.622986,991.771484 &#10;&#9;C560.970581,991.976562 557.289612,991.953369 553.634521,991.772522 &#10;&#9;C546.069153,991.398132 541.427795,988.413696 540.401184,982.317322 &#10;&#9;C539.359009,976.128235 543.158936,972.542114 550.241943,970.489990 &#10;&#9;C556.866943,970.402466 561.946716,970.402466 567.026489,970.402466 &#10;&#9;C561.665588,964.851379 555.618713,966.778381 549.727295,967.334839 &#10;M550.580017,980.924500 &#10;&#9;C554.369324,984.584473 562.814392,986.210327 566.351868,983.718872 &#10;&#9;C567.214966,983.110962 567.925415,981.457581 567.754944,980.444946 &#10;&#9;C567.585754,979.439453 566.179443,977.835876 565.382507,977.874451 &#10;&#9;C560.585876,978.106995 555.808472,978.736389 550.580017,980.924500 &#10;z" transform="matrix(1.0000000000000002, 0, 0, 1, 0, 0)"/>
  <path fill="#E1E2E5" opacity="1.000000" stroke="none" d="&#10;M532.702026,991.999390 &#10;&#9;C530.707703,990.647705 528.492126,989.188965 528.295776,987.496094 &#10;&#9;C527.765991,982.926514 528.344238,978.239746 528.018860,973.632202 &#10;&#9;C527.652405,968.442627 525.107788,966.795349 519.177429,966.869141 &#10;&#9;C514.402222,966.928528 511.674500,968.857483 511.715881,973.929626 &#10;&#9;C511.761322,979.497314 511.726227,985.065674 511.726227,991.151489 &#10;&#9;C508.715515,991.151489 506.575317,991.151489 503.608032,991.151489 &#10;&#9;C503.608032,977.781128 503.608032,964.636047 503.803894,950.700684 &#10;&#9;C511.288422,949.980164 511.288422,949.980164 511.907410,957.818115 &#10;&#9;C512.669739,959.362671 513.322815,959.540710 513.975891,959.718750 &#10;&#9;C534.602356,960.366577 536.671753,962.490723 536.253052,983.602844 &#10;&#9;C536.197083,986.423950 538.401123,990.506165 532.702026,991.999390 &#10;z" transform="matrix(1.0000000000000002, 0, 0, 1, 0, 0)"/>
  <path fill="#D8D9E0" opacity="1.000000" stroke="none" d="&#10;M616.396973,1049.381592 &#10;&#9;C617.690247,1048.230713 619.121338,1047.881470 622.135864,1047.525879 &#10;&#9;C627.992981,1047.514771 632.292419,1047.767700 636.524292,1047.345093 &#10;&#9;C637.765259,1047.221069 638.814392,1045.177734 639.927368,1043.458252 &#10;&#9;C639.242249,1042.768555 638.581177,1042.634644 637.043579,1042.383789 &#10;&#9;C631.444885,1042.239746 626.722778,1042.212524 622.000671,1042.185303 &#10;&#9;C616.673706,1039.544922 613.524536,1035.284546 614.180847,1031.605957 &#10;&#9;C615.080933,1026.561157 618.101379,1023.824951 624.333130,1023.114075 &#10;&#9;C628.244202,1022.667847 632.225220,1022.834534 637.868164,1022.733521 &#10;&#9;C642.336182,1023.269714 645.110779,1023.798523 647.885376,1024.327393 &#10;&#9;C647.600464,1025.938599 647.315491,1027.549683 646.887207,1029.971436 &#10;&#9;C642.906982,1029.971436 638.989258,1029.889893 635.076599,1029.996216 &#10;&#9;C631.692627,1030.088135 628.314392,1030.393555 624.933594,1030.604614 &#10;&#9;C624.830017,1031.319092 624.726440,1032.033569 624.622864,1032.747925 &#10;&#9;C626.049011,1033.573364 627.405212,1034.908203 628.916199,1035.115723 &#10;&#9;C631.840759,1035.517700 634.855469,1035.209717 637.827454,1035.329224 &#10;&#9;C645.730713,1035.646973 648.541870,1037.712524 649.165833,1043.527954 &#10;&#9;C649.843811,1049.846802 647.570801,1052.406982 638.757874,1054.604492 &#10;&#9;C632.480530,1054.673706 626.955994,1054.453979 621.431030,1054.443970 &#10;&#9;C618.419495,1054.438599 616.266418,1053.793701 616.396973,1049.381592 &#10;z" transform="matrix(1.0000000000000002, 0, 0, 1, 0, 0)"/>
  <path fill="#D8D9E0" opacity="1.000000" stroke="none" d="&#10;M637.158081,989.920227 &#10;&#9;C633.335510,990.570374 629.512878,991.220520 624.845154,992.062683 &#10;&#9;C620.787720,992.095581 617.546143,991.584839 614.369202,991.849792 &#10;&#9;C607.550232,992.418396 602.667175,990.035706 600.509094,982.701050 &#10;&#9;C600.868164,981.019409 600.691284,980.245483 600.514343,979.471558 &#10;&#9;C600.514343,979.471558 600.427490,979.787476 600.588013,979.057983 &#10;&#9;C600.566345,977.549805 600.384277,976.771179 600.202148,975.992554 &#10;&#9;C600.371704,974.481934 600.541260,972.971375 600.459961,970.732910 &#10;&#9;C600.545837,963.785095 600.882629,957.565063 601.251892,950.744568 &#10;&#9;C603.590393,950.524719 605.703369,950.326050 607.864685,950.122864 &#10;&#9;C608.437317,951.404541 609.133179,952.253113 609.151489,953.115967 &#10;&#9;C609.291504,959.722046 609.269775,966.331238 609.355347,972.938782 &#10;&#9;C609.492188,983.508423 610.265625,984.304443 620.510254,984.451172 &#10;&#9;C624.475708,984.507935 628.446594,984.580750 632.407349,984.435974 &#10;&#9;C635.407288,984.326355 636.606506,985.747009 636.914551,989.302124 &#10;&#9;C637.187622,990.069458 637.158081,989.920227 637.158081,989.920227 &#10;z" transform="matrix(1.0000000000000002, 0, 0, 1, 0, 0)"/>
  <path fill="#D8D9E0" opacity="1.000000" stroke="none" d="&#10;M600.935791,1016.380127 &#10;&#9;C601.164490,1022.477661 606.523804,1022.402710 609.684814,1023.768738 &#10;&#9;C611.106506,1030.514526 606.923279,1031.595947 601.884033,1032.418335 &#10;&#9;C601.884033,1038.371460 601.884033,1044.284668 602.050964,1051.098145 &#10;&#9;C599.816528,1053.003052 597.415161,1054.007690 593.437927,1055.671631 &#10;&#9;C593.437927,1047.165161 593.437927,1040.381104 592.870422,1031.983154 &#10;&#9;C590.207764,1030.277954 588.112549,1030.186523 586.017395,1030.094971 &#10;&#9;C585.285767,1028.125122 584.554138,1026.155273 583.808044,1024.146606 &#10;&#9;C591.278625,1022.212524 591.278625,1022.212524 593.259827,1016.243896 &#10;&#9;C595.524170,1016.243896 597.810120,1016.243896 600.935791,1016.380127 &#10;z" transform="matrix(1.0000000000000002, 0, 0, 1, 0, 0)"/>
  <path fill="#D8D9E0" opacity="1.000000" stroke="none" d="&#10;M563.346741,1053.583008 &#10;&#9;C560.821838,1054.353638 558.534546,1054.353638 556.084167,1054.353638 &#10;&#9;C556.084167,1045.325317 556.084167,1036.820435 556.225464,1027.554932 &#10;&#9;C562.075134,1021.620483 569.070374,1022.592102 575.818665,1022.976379 &#10;&#9;C579.152405,1023.166138 579.915161,1025.643555 578.566772,1030.054810 &#10;&#9;C575.824219,1030.054810 572.694275,1030.054810 568.139038,1030.108765 &#10;&#9;C566.070496,1030.634033 565.427185,1031.105347 564.783813,1031.576538 &#10;&#9;C564.384033,1038.655151 563.984192,1045.733643 563.346741,1053.583008 &#10;z" transform="matrix(1.0000000000000002, 0, 0, 1, 0, 0)"/>
  <path fill="#E1E2E5" opacity="1.000000" stroke="none" d="&#10;M475.829285,1065.080078 &#10;&#9;C474.686157,1063.396729 474.191010,1061.452637 473.683105,1057.839478 &#10;&#9;C473.708740,1048.885376 473.435120,1041.581299 473.871429,1034.320068 &#10;&#9;C474.327087,1026.737671 477.199677,1023.831299 484.735168,1023.150146 &#10;&#9;C489.651917,1022.705750 494.646912,1023.127686 500.064117,1023.501221 &#10;&#9;C501.561218,1024.292847 502.601074,1024.744751 503.730621,1025.520508 &#10;&#9;C504.094971,1026.259033 504.480469,1026.449585 504.976776,1026.415894 &#10;&#9;C508.690521,1032.579956 508.438507,1039.220459 507.175171,1046.819336 &#10;&#9;C501.326691,1057.200928 491.733612,1053.533569 482.890442,1054.653931 &#10;&#9;C482.379333,1057.607300 481.840515,1060.720947 481.219055,1064.312012 &#10;&#9;C479.664246,1064.478394 478.070740,1064.648804 475.829285,1065.080078 &#10;M481.929016,1040.914429 &#10;&#9;C482.239014,1043.085693 482.549042,1045.256836 482.874603,1047.537109 &#10;&#9;C487.138824,1047.537109 490.781464,1047.723999 494.395844,1047.484375 &#10;&#9;C497.991028,1047.246338 499.608368,1044.753540 499.623291,1041.402954 &#10;&#9;C499.640381,1037.572144 501.177429,1032.534668 496.674438,1030.788574 &#10;&#9;C493.256500,1029.463135 488.749084,1029.717041 485.066223,1030.633545 &#10;&#9;C480.967865,1031.653442 482.146301,1035.953125 481.929016,1040.914429 &#10;z" transform="matrix(1.0000000000000002, 0, 0, 1, 0, 0)"/>
  <path fill="#E1E2E5" opacity="1.000000" stroke="none" d="&#10;M515.016479,1048.337524 &#10;&#9;C514.325500,1044.028198 514.004456,1040.061646 513.965759,1036.092529 &#10;&#9;C513.946655,1034.140503 514.010986,1031.984619 514.790222,1030.261353 &#10;&#9;C519.130920,1020.661560 527.965576,1022.971924 535.633545,1023.021545 &#10;&#9;C543.648926,1023.073364 547.218201,1025.963623 548.503540,1032.743042 &#10;&#9;C549.111328,1035.948730 549.222656,1039.366821 548.868530,1042.613403 &#10;&#9;C548.018616,1050.405762 544.485046,1053.644043 536.653809,1054.310181 &#10;&#9;C534.346375,1054.506470 532.012512,1054.391724 528.841614,1054.597656 &#10;&#9;C527.089661,1054.635864 526.186829,1054.496216 523.980835,1054.208740 &#10;&#9;C521.786011,1054.036133 520.894348,1054.011353 520.002747,1053.986572 &#10;&#9;C518.502747,1052.217529 517.002747,1050.448364 515.016479,1048.337524 &#10;M522.087036,1042.293213 &#10;&#9;C522.495239,1045.845093 524.668579,1047.698364 528.059265,1047.563477 &#10;&#9;C531.596985,1047.422974 535.592346,1047.597656 538.520386,1046.022339 &#10;&#9;C542.593567,1043.831055 541.520569,1031.429565 537.347778,1030.573486 &#10;&#9;C533.299194,1029.742798 528.399475,1029.432251 524.878723,1031.063232 &#10;&#9;C522.874023,1031.991821 522.881165,1037.263550 522.087036,1042.293213 &#10;z" transform="matrix(1.0000000000000002, 0, 0, 1, 0, 0)"/>
  <path fill="#D8D9E0" opacity="1.000000" stroke="none" d="&#10;M415.992889,1054.813477 &#10;&#9;C410.631531,1054.526978 405.270172,1054.240479 399.015472,1053.904175 &#10;&#9;C398.122131,1053.854370 398.076630,1053.940918 397.753540,1053.413574 &#10;&#9;C396.349884,1052.251709 395.269318,1051.617188 394.188751,1050.982788 &#10;&#9;C390.925018,1039.145874 389.049103,1027.356079 395.770660,1015.212402 &#10;&#9;C402.864014,1013.921326 409.571350,1013.263733 417.914978,1012.596191 &#10;&#9;C422.156067,1012.762817 424.760864,1012.939392 428.874969,1013.218201 &#10;&#9;C427.684174,1016.109009 426.808563,1018.234558 425.033997,1020.177979 &#10;&#9;C418.865173,1019.988525 413.590729,1019.838074 408.326599,1020.007690 &#10;&#9;C400.570526,1020.257568 400.201996,1020.858826 401.375183,1029.695435 &#10;&#9;C408.872955,1029.695435 416.408905,1029.695435 424.572266,1030.099854 &#10;&#9;C428.059814,1036.211426 424.413055,1037.344116 419.093842,1037.702637 &#10;&#9;C412.374207,1037.479370 406.543182,1037.479370 400.720184,1037.479370 &#10;&#9;C400.881042,1046.701050 401.228668,1047.289185 408.270081,1047.490601 &#10;&#9;C413.508087,1047.640137 418.760437,1047.288086 424.692139,1047.336426 &#10;&#9;C430.535217,1048.254272 429.770874,1051.203369 427.213623,1054.470947 &#10;&#9;C424.356506,1054.541626 422.280487,1054.671143 419.507904,1054.647705 &#10;&#9;C417.871857,1054.600952 416.932373,1054.707153 415.992889,1054.813477 &#10;z" transform="matrix(1.0000000000000002, 0, 0, 1, 0, 0)"/>
  <path fill="#D8D9E0" opacity="1.000000" stroke="none" d="&#10;M369.551147,988.092957 &#10;&#9;C368.601959,986.080444 367.958313,984.495544 367.869873,982.880310 &#10;&#9;C367.403473,974.363892 370.682800,970.624451 379.144379,970.169739 &#10;&#9;C383.296112,969.946655 387.469757,970.131104 391.633514,970.131104 &#10;&#9;C391.626099,969.244324 391.618683,968.357544 391.611298,967.470825 &#10;&#9;C386.196991,967.309082 380.782898,967.032288 375.368317,967.022278 &#10;&#9;C371.070068,967.014282 369.116974,965.481262 371.083374,959.815857 &#10;&#9;C375.191833,959.815857 379.725708,959.815857 385.130920,959.643555 &#10;&#9;C386.907196,959.578979 387.812042,959.686646 389.853241,959.810730 &#10;&#9;C390.989563,959.827148 391.956238,959.627258 391.956238,959.627258 &#10;&#9;C399.954895,961.182800 402.388214,966.627380 402.039185,974.031616 &#10;&#9;C401.992249,975.027588 402.039276,976.027832 402.037231,977.026062 &#10;&#9;C402.012268,989.254395 400.218292,991.106567 386.810852,992.092407 &#10;&#9;C380.707642,991.016724 374.573242,993.300171 369.551147,988.092957 &#10;M393.120575,979.308167 &#10;&#9;C388.387817,978.800720 383.661926,978.162292 378.915649,977.914185 &#10;&#9;C378.119537,977.872559 376.717346,979.426880 376.536530,980.415894 &#10;&#9;C376.354614,981.410706 377.035797,983.055603 377.879761,983.659302 &#10;&#9;C381.258240,986.076050 389.721558,984.502441 393.120575,979.308167 &#10;z" transform="matrix(1.0000000000000002, 0, 0, 1, 0, 0)"/>
  <path fill="#E1E2E5" opacity="1.000000" stroke="none" d="&#10;M433.330444,988.010803 &#10;&#9;C433.420746,984.398865 433.666687,980.782715 433.569366,977.175842 &#10;&#9;C433.357727,969.330200 431.846466,968.027649 423.603302,968.002625 &#10;&#9;C422.046448,967.997925 420.490112,967.828186 418.731812,967.722473 &#10;&#9;C414.946991,973.842529 416.889618,980.223450 416.612823,987.147583 &#10;&#9;C415.679718,993.072693 412.213715,991.941406 408.474915,989.618347 &#10;&#9;C408.025391,982.798523 407.940552,977.411011 407.855652,972.023438 &#10;&#9;C408.595917,970.026367 409.336151,968.029297 410.177063,965.402283 &#10;&#9;C411.389099,963.888062 412.500458,963.003906 414.736206,961.572388 &#10;&#9;C417.880615,960.518555 419.900635,960.012085 421.920654,959.505615 &#10;&#9;C422.832733,959.625977 423.744781,959.746399 425.328735,959.686157 &#10;&#9;C438.845978,961.606018 441.483582,964.602661 441.597809,977.283325 &#10;&#9;C441.627228,980.548035 442.044800,983.904968 441.409088,987.042297 &#10;&#9;C441.054718,988.791138 438.899017,990.175049 436.783936,991.923523 &#10;&#9;C435.380676,991.709106 434.748535,991.294617 433.896545,989.918091 &#10;&#9;C433.561279,988.640930 433.445862,988.325867 433.330444,988.010803 &#10;z" transform="matrix(1.0000000000000002, 0, 0, 1, 0, 0)"/>
  <path fill="#D8D9E0" opacity="1.000000" stroke="none" d="&#10;M685.740845,961.030396 &#10;&#9;C692.721130,960.144104 699.351257,960.001221 705.981873,959.896606 &#10;&#9;C710.731873,959.821594 714.187561,961.693176 716.065430,966.305481 &#10;&#9;C718.035339,971.144165 717.283386,975.471375 713.572815,978.948975 &#10;&#9;C712.155945,980.276978 709.842468,981.132996 707.866577,981.285583 &#10;&#9;C702.713440,981.683533 697.521179,981.573486 692.344482,981.666077 &#10;&#9;C692.361145,982.499512 692.377869,983.332886 692.394531,984.166321 &#10;&#9;C698.216125,984.355713 704.038513,984.522217 709.858948,984.742981 &#10;&#9;C713.500671,984.881042 716.694397,985.522278 715.090820,991.496094 &#10;&#9;C707.497009,991.496094 699.675354,991.496094 690.927734,991.467407 &#10;&#9;C686.897766,989.681702 683.683838,988.019348 683.543152,983.765747 &#10;&#9;C683.298462,976.367981 681.646240,968.852295 685.740845,961.030396 &#10;M706.360046,973.975525 &#10;&#9;C710.475525,970.883728 709.488831,968.271179 705.119690,967.207458 &#10;&#9;C701.993286,966.446289 698.476562,966.648132 695.262268,967.186279 &#10;&#9;C693.879028,967.417786 692.820435,969.587891 691.614380,970.877258 &#10;&#9;C692.957031,972.028564 694.166870,973.899902 695.670654,974.177246 &#10;&#9;C698.554993,974.708984 701.606140,974.335999 706.360046,973.975525 &#10;z" transform="matrix(1.0000000000000002, 0, 0, 1, 0, 0)"/>
  <path fill="#E1E2E5" opacity="1.000000" stroke="none" d="&#10;M672.601074,967.243896 &#10;&#9;C670.925415,967.341003 670.002869,967.143860 667.782349,967.312134 &#10;&#9;C666.402588,968.466614 666.320801,969.255554 666.239075,970.044556 &#10;&#9;C666.239075,976.523926 666.239075,983.003296 666.239075,990.390930 &#10;&#9;C663.314575,990.103333 662.171570,996.599609 657.878479,990.637329 &#10;&#9;C657.607361,980.762512 657.551331,971.526855 657.818665,962.300659 &#10;&#9;C658.107971,952.318970 667.495728,946.770081 676.648560,951.097839 &#10;&#9;C677.212830,951.364624 677.171997,952.911011 676.786743,954.860229 &#10;&#9;C673.155090,956.632996 670.149353,957.407715 667.143616,958.182434 &#10;&#9;C667.228699,958.808167 667.313843,959.433960 667.398926,960.059692 &#10;&#9;C670.197083,960.059692 672.995239,960.059692 675.793396,960.059692 &#10;&#9;C678.263062,963.518494 678.315125,966.121460 672.601074,967.243896 &#10;z" transform="matrix(1.0000000000000002, 0, 0, 1, 0, 0)"/>
  <path fill="#F4F4F4" opacity="1.000000" stroke="none" d="&#10;M650.905884,989.104248 &#10;&#9;C648.052612,992.141235 645.138123,993.094788 642.356140,988.629883 &#10;&#9;C642.236206,980.034973 642.417419,972.070862 643.490417,963.175049 &#10;&#9;C646.318665,962.127258 648.255066,962.011230 650.191528,961.895142 &#10;&#9;C650.374084,970.658630 650.556702,979.422180 650.905884,989.104248 &#10;z" transform="matrix(1.0000000000000002, 0, 0, 1, 0, 0)"/>
  <path fill="#ACAEBA" opacity="1.000000" stroke="none" d="&#10;M650.248413,961.173279 &#10;&#9;C648.255066,962.011230 646.318665,962.127258 643.653870,962.282959 &#10;&#9;C642.946655,958.562378 642.967773,954.802124 644.281494,950.338440 &#10;&#9;C647.567627,950.162842 649.561218,950.690674 651.554749,951.218506 &#10;&#9;C651.138245,954.296143 650.721802,957.373779 650.248413,961.173279 &#10;z" transform="matrix(1.0000000000000002, 0, 0, 1, 0, 0)"/>
  <path fill="#D8D9E0" opacity="1.000000" stroke="none" d="&#10;M489.623962,991.011719 &#10;&#9;C483.656036,991.061890 478.227844,990.229065 472.795563,990.201477 &#10;&#9;C469.067169,990.182495 465.333099,991.282471 460.314362,991.905640 &#10;&#9;C458.690826,991.998718 458.354523,992.068420 458.018250,992.138123 &#10;&#9;C450.402618,989.724365 447.219513,984.481262 447.707275,976.587402 &#10;&#9;C448.007812,971.724121 447.826599,966.831055 447.952515,961.039734 &#10;&#9;C450.334534,960.128113 452.625702,960.128113 456.091003,960.128113 &#10;&#9;C456.091003,966.177185 456.114136,972.020081 456.082794,977.862732 &#10;&#9;C456.062347,981.672180 457.344635,984.256165 461.647064,984.429321 &#10;&#9;C466.403564,984.620728 468.082733,982.072876 468.025879,977.698364 &#10;&#9;C467.965881,973.078491 468.092621,968.456238 468.028534,963.836548 &#10;&#9;C467.986847,960.830078 469.568909,959.774597 473.155640,959.688232 &#10;&#9;C474.793274,961.840576 476.031830,964.121643 476.267731,966.501953 &#10;&#9;C476.657196,970.432068 476.397461,974.426270 476.414795,978.393494 &#10;&#9;C476.432465,982.424988 478.349487,984.461609 482.491699,984.440308 &#10;&#9;C486.805145,984.418091 488.275818,981.924927 488.299774,978.098328 &#10;&#9;C488.334656,972.520264 488.308746,966.941711 488.308746,960.689697 &#10;&#9;C491.043060,960.427979 493.139465,960.227356 496.436951,959.911804 &#10;&#9;C496.436951,966.983337 496.452362,973.503845 496.431824,980.024231 &#10;&#9;C496.416992,984.738403 494.341644,988.243530 489.623962,991.011719 &#10;z" transform="matrix(1.0000000000000002, 0, 0, 1, 0, 0)"/>
  <path fill="#E8E9EC" opacity="1.000000" stroke="none" d="&#10;M459.122040,1022.986145 &#10;&#9;C461.607086,1023.091858 463.171692,1023.184692 465.371460,1024.487793 &#10;&#9;C466.300537,1029.361938 464.095673,1029.940796 461.091064,1029.918335 &#10;&#9;C455.365265,1029.875610 449.638062,1030.023682 443.911469,1030.092407 &#10;&#9;C443.707031,1030.980591 443.502625,1031.868774 443.298218,1032.756958 &#10;&#9;C444.906067,1033.618896 446.445465,1035.031738 448.134308,1035.241577 &#10;&#9;C453.641357,1035.925781 459.203003,1036.170776 464.743622,1036.584839 &#10;&#9;C468.226410,1040.919800 469.070587,1045.586304 466.267029,1051.396362 &#10;&#9;C459.263580,1052.876465 452.507538,1053.640137 444.873474,1054.585205 &#10;&#9;C440.990479,1053.281494 434.287781,1056.894287 436.251007,1047.642944 &#10;&#9;C441.989807,1047.642944 448.032562,1047.642944 455.638397,1047.637695 &#10;&#9;C457.985199,1046.497070 458.768890,1045.361572 459.552582,1044.226196 &#10;&#9;C458.341949,1043.618408 457.131317,1043.010620 455.920685,1042.402832 &#10;&#9;C451.853119,1042.279663 447.785583,1042.156494 442.369354,1041.857544 &#10;&#9;C440.705078,1041.832520 440.389465,1041.983154 440.073883,1042.133911 &#10;&#9;C438.932648,1041.746338 437.791412,1041.358643 436.514648,1039.898926 &#10;&#9;C436.137207,1038.569336 435.895325,1038.311768 435.653473,1038.054321 &#10;&#9;C435.492432,1035.254639 435.331390,1032.455078 435.547058,1028.372070 &#10;&#9;C435.863892,1026.734253 435.804016,1026.379761 435.744141,1026.025269 &#10;&#9;C436.152191,1025.405640 436.560211,1024.786011 437.479553,1023.921204 &#10;&#9;C444.727783,1023.441772 451.464691,1023.207581 459.122040,1022.986145 &#10;z" transform="matrix(1.0000000000000002, 0, 0, 1, 0, 0)"/>
</svg>