<?xml version="1.0" encoding="utf-8"?>
<svg viewBox="1226.7211 667.238 844.6705 335.7018" width="844.67px" height="335.702px" xmlns="http://www.w3.org/2000/svg">
  <path fill="#F2F2F3" opacity="1.000000" stroke="none" d="&#10;M1333.891724,740.499634 &#10;&#9;C1333.034790,740.330078 1332.177734,740.160583 1330.033936,739.656250 &#10;&#9;C1320.487793,736.913940 1312.228638,734.506470 1303.969360,732.098999 &#10;&#9;C1303.969360,732.098999 1303.414307,731.616211 1302.654541,731.066284 &#10;&#9;C1300.607422,730.256226 1299.320068,729.995972 1298.032715,729.735718 &#10;&#9;C1272.790283,716.947327 1250.694946,700.184814 1232.850708,678.067383 &#10;&#9;C1230.772461,675.491333 1228.808960,672.822571 1226.721069,670.104248 &#10;&#9;C1234.684692,667.473816 1854.562622,666.090942 1931.367310,668.440186 &#10;&#9;C1931.033325,669.731079 1931.059448,671.140198 1930.387451,672.010193 &#10;&#9;C1905.013550,704.863647 1873.567505,729.210754 1832.448853,738.387634 &#10;&#9;C1821.963013,740.727844 1816.118408,745.731873 1810.404663,754.098328 &#10;&#9;C1755.396362,834.647034 1699.993774,914.926514 1644.681396,995.267517 &#10;&#9;C1643.010620,997.694397 1641.094116,999.952148 1639.169189,1002.448120 &#10;&#9;C1626.177612,995.101624 1614.887207,986.435791 1605.817627,975.142395 &#10;&#9;C1593.994629,960.420532 1590.909302,944.391846 1603.755615,926.755249 &#10;&#9;C1617.469604,907.927124 1630.315552,888.466736 1644.288818,868.370789 &#10;&#9;C1645.478149,866.382690 1645.919312,865.306213 1646.360352,864.229736 &#10;&#9;C1646.360352,864.229675 1646.108276,864.099487 1646.817993,863.933350 &#10;&#9;C1675.505371,823.095215 1703.645996,782.532837 1731.910645,740.862854 &#10;&#9;C1702.989746,740.862854 1675.785767,740.862854 1647.656250,740.706909 &#10;&#9;C1555.110962,740.531006 1463.491089,740.506470 1371.871338,740.513672 &#10;&#9;C1369.226807,740.513855 1366.582397,740.850830 1363.937866,741.030762 &#10;&#9;C1356.614136,740.883850 1349.290527,740.736938 1340.312500,740.462524 &#10;&#9;C1337.069336,740.389954 1335.480469,740.444763 1333.891724,740.499634 &#10;z" transform="matrix(1, 0, 0, 0.9999999999999999, -2.2737367544323206e-13, 0)"/>
  <path fill="#F2F2F3" opacity="1.000000" stroke="none" d="&#10;M1871.973877,829.847534 &#10;&#9;C1892.105835,800.500793 1911.858521,771.766479 1932.744873,741.382812 &#10;&#9;C1914.109985,739.835022 1896.931885,741.430542 1879.554810,740.285828 &#10;&#9;C1891.088989,735.966675 1902.522339,732.484192 1913.261475,727.504333 &#10;&#9;C1938.786865,715.667542 1959.899414,697.940857 1977.069092,675.805481 &#10;&#9;C1981.732666,669.793030 1986.489502,667.893372 1993.753784,668.027344 &#10;&#9;C2015.732056,668.432739 2037.723633,668.131409 2059.709961,668.106750 &#10;&#9;C2062.902100,668.103149 2066.094238,668.106201 2071.391602,668.106201 &#10;&#9;C1993.934937,780.649597 1917.628418,891.521667 1840.946167,1002.939880 &#10;&#9;C1825.755981,993.786926 1812.139771,983.892761 1802.851562,969.163635 &#10;&#9;C1794.399658,955.760254 1794.210083,942.488831 1803.554932,929.080566 &#10;&#9;C1826.390503,896.315613 1848.933472,863.346741 1871.973877,829.847534 &#10;z" transform="matrix(1, 0, 0, 0.9999999999999999, -2.2737367544323206e-13, 0)"/>
  <path fill="#F1F1F1" opacity="1.000000" stroke="none" d="&#10;M1433.926392,795.523132 &#10;&#9;C1428.667725,795.303406 1423.383179,794.638184 1418.154907,794.941833 &#10;&#9;C1396.569458,796.195496 1378.994141,787.460938 1363.542847,773.413269 &#10;&#9;C1359.894409,770.096436 1356.787354,766.184204 1352.895264,761.647095 &#10;&#9;C1353.015869,759.892212 1353.672363,759.036194 1354.328979,758.180176 &#10;&#9;C1358.983398,758.287048 1363.637939,758.393921 1370.052124,758.521606 &#10;&#9;C1461.904541,758.554138 1551.997314,758.568420 1642.089966,758.561157 &#10;&#9;C1644.074219,758.560974 1646.058350,758.313538 1648.910522,758.440063 &#10;&#9;C1665.071777,759.142883 1680.421387,758.227234 1697.342285,759.317871 &#10;&#9;C1688.893677,771.562317 1681.640259,782.183228 1674.218506,792.685364 &#10;&#9;C1673.349487,793.915039 1671.553467,794.489441 1669.404785,795.151367 &#10;&#9;C1667.019165,795.077698 1665.415771,795.220398 1663.025269,795.048279 &#10;&#9;C1658.888672,794.942383 1655.539185,795.151245 1651.368408,795.142578 &#10;&#9;C1580.294922,794.882507 1510.042847,794.834106 1439.790894,794.828064 &#10;&#9;C1437.836060,794.827942 1435.881226,795.281250 1433.926392,795.523132 &#10;z" transform="matrix(1, 0, 0, 0.9999999999999999, -2.2737367544323206e-13, 0)"/>
  <path fill="#F1F1F1" opacity="1.000000" stroke="none" d="&#10;M1471.850586,848.628601 &#10;&#9;C1451.905884,844.316223 1435.907593,833.652161 1423.001953,818.106689 &#10;&#9;C1421.826660,816.690979 1421.308350,814.729858 1422.083984,812.736694 &#10;&#9;C1500.121094,812.465027 1576.559448,812.480957 1652.997681,812.476990 &#10;&#9;C1654.649780,812.476929 1656.301758,812.248779 1658.487549,812.733276 &#10;&#9;C1658.214722,815.046753 1657.612549,816.891663 1656.568848,818.438782 &#10;&#9;C1649.773438,828.511963 1642.882080,838.520447 1636.022217,848.550171 &#10;&#9;C1617.308105,848.655090 1598.594116,848.759949 1578.101196,848.845093 &#10;&#9;C1568.047363,848.792725 1559.771240,848.657837 1551.497559,848.750427 &#10;&#9;C1537.628906,848.905701 1523.762085,849.205933 1509.894409,849.445190 &#10;&#9;C1499.931396,849.236328 1489.968262,849.027466 1478.352173,848.689575 &#10;&#9;C1475.082886,848.583130 1473.466797,848.605835 1471.850586,848.628601 &#10;z" transform="matrix(1, 0, 0, 0.9999999999999999, -2.2737367544323206e-13, 0)"/>
  <path fill="#F1F1F1" opacity="1.000000" stroke="none" d="&#10;M1578.025635,866.142273 &#10;&#9;C1592.575806,866.142273 1607.126099,866.142273 1624.140503,866.142273 &#10;&#9;C1615.317261,878.955811 1608.020630,889.892700 1600.251831,900.483337 &#10;&#9;C1599.023926,902.157288 1595.673462,902.955933 1593.288086,902.988770 &#10;&#9;C1577.630981,903.204468 1561.962646,903.384644 1546.311401,903.010803 &#10;&#9;C1532.914917,902.690918 1521.117676,897.259705 1510.284424,889.728638 &#10;&#9;C1501.812866,883.839355 1494.254150,876.968384 1487.464600,866.606018 &#10;&#9;C1495.952271,866.606018 1503.073120,866.606018 1511.986816,866.618896 &#10;&#9;C1535.194946,866.468567 1556.610229,866.305420 1578.025635,866.142273 &#10;z" transform="matrix(1, 0, 0, 0.9999999999999999, -2.2737367544323206e-13, 0)"/>
</svg>