<?xml version="1.0" encoding="utf-8"?>
<svg viewBox="0 0 1280 1280" width="1280" height="1280" xmlns="http://www.w3.org/2000/svg">
  <path fill="#F4F4F5" opacity="1.000000" stroke="none" d="&#10;M692.941223,461.299896 &#10;&#9;C658.286560,461.248413 623.631836,461.196960 588.079468,461.103333 &#10;&#9;C584.769592,461.140839 582.357483,461.220490 579.486694,461.222778 &#10;&#9;C573.039246,461.197662 567.050476,461.249878 560.603088,461.181396 &#10;&#9;C536.312927,461.052368 512.481445,461.016846 488.649933,461.040924 &#10;&#9;C418.822937,461.111450 348.995972,461.205688 278.746460,461.173340 &#10;&#9;C277.454376,461.137787 276.584839,461.219574 275.318573,461.272217 &#10;&#9;C273.135101,461.277374 271.348358,461.311676 269.073273,461.213196 &#10;&#9;C261.760345,461.056519 254.924759,460.773468 248.113312,461.061493 &#10;&#9;C232.867020,461.706238 218.370911,458.203644 204.111969,453.443298 &#10;&#9;C164.534760,440.230469 132.209595,416.382568 104.919968,385.282227 &#10;&#9;C100.048973,379.731049 95.558121,373.846344 90.031502,367.059204 &#10;&#9;C93.305748,367.059204 95.065765,367.059052 96.825790,367.059235 &#10;&#9;C146.599213,367.064606 196.372635,367.082397 246.146057,367.065887 &#10;&#9;C257.125824,367.062256 268.105499,366.937164 279.542725,366.932037 &#10;&#9;C287.798187,367.014038 295.596222,367.061737 303.394165,367.044434 &#10;&#9;C325.950867,366.994354 348.507477,366.918152 371.524353,366.920319 &#10;&#9;C526.638611,367.008057 681.292664,367.037323 835.946777,367.037720 &#10;&#9;C861.274536,367.037781 886.602234,366.911072 912.395630,366.948364 &#10;&#9;C915.088440,367.014282 917.315613,366.974731 919.886841,367.021667 &#10;&#9;C921.682922,367.047974 923.135010,366.987793 925.045471,366.988281 &#10;&#9;C926.123047,367.008972 926.742188,366.968994 927.800110,367.012360 &#10;&#9;C934.401550,367.034088 940.564209,366.972443 947.220703,366.972992 &#10;&#9;C956.546265,366.991272 965.378052,366.947388 974.657593,366.992737 &#10;&#9;C986.693115,367.081940 998.280701,367.081940 1010.544312,367.081940 &#10;&#9;C1006.219543,372.748230 1002.634644,377.445221 998.774170,382.317566 &#10;&#9;C997.397949,383.739868 996.308777,384.997253 995.195007,386.232391 &#10;&#9;C960.179138,425.063446 918.540405,452.386963 865.957703,460.833405 &#10;&#9;C864.153015,461.123260 862.083496,462.614349 861.007629,464.153748 &#10;&#9;C848.895630,481.483215 836.918396,498.907349 824.976440,516.354919 &#10;&#9;C810.983948,536.798401 797.062012,557.290161 783.109436,577.760986 &#10;&#9;C750.068848,625.756348 717.028198,673.751648 683.987671,721.747009 &#10;&#9;C666.521545,747.118652 649.057800,772.491882 631.583191,797.857605 &#10;&#9;C630.750183,799.066711 629.821167,800.209656 628.629639,801.791260 &#10;&#9;C607.195984,788.513000 586.976135,774.340698 575.701721,750.915100 &#10;&#9;C568.541016,736.036621 569.790161,721.514587 579.154297,707.881897 &#10;&#9;C617.049438,652.712646 655.000549,597.582031 692.929016,542.435669 &#10;&#9;C698.588867,534.206482 704.237976,525.969849 710.268677,517.251953 &#10;&#9;C711.568970,515.238342 712.492615,513.709534 713.416260,512.180664 &#10;&#9;C713.983643,511.458252 714.551086,510.735870 715.489990,509.589233 &#10;&#9;C716.915405,507.454071 717.969299,505.743195 719.023193,504.032288 &#10;&#9;C720.029541,502.695221 721.035889,501.358154 722.442932,499.561890 &#10;&#9;C723.885254,497.399200 724.926880,495.695679 725.968506,493.992126 &#10;&#9;C726.530884,493.294556 727.093262,492.596954 728.022217,491.442322 &#10;&#9;C730.299438,488.013824 732.210144,485.042389 734.120911,482.070953 &#10;&#9;C734.727722,481.292114 735.334534,480.513275 736.286682,479.304260 &#10;&#9;C736.891113,478.323303 737.150146,477.772522 737.409180,477.221771 &#10;&#9;C737.716736,477.135559 737.934448,476.946167 738.401917,476.288818 &#10;&#9;C740.175903,473.621246 741.610413,471.318451 743.044922,469.015656 &#10;&#9;C743.670105,468.235687 744.295349,467.455750 745.316162,466.215515 &#10;&#9;C746.580627,464.432404 747.449402,463.109558 748.633484,461.306549 &#10;&#9;C742.334229,461.306549 736.642212,461.306549 730.564148,461.228943 &#10;&#9;C729.132385,461.201843 728.086670,461.252380 726.583740,461.181824 &#10;&#9;C715.064758,461.140442 704.002991,461.220154 692.941223,461.299896 &#10;z"/>
  <path fill="#F1F1F2" opacity="1.000000" stroke="none" d="M 548.044 484.257 C 555.043 484.315 562.042 484.373 569.934 484.478 C 573.233 484.437 575.637 484.349 578.042 484.26 C 610.708 484.32 643.374 484.381 676.954 484.496 C 686.548 484.55 695.228 484.55 704.898 484.55 C 693.819 500.871 683.429 516.178 673.038 531.484 C 670.886 531.609 668.735 531.843 666.583 531.844 C 583.712 531.889 500.841 531.913 417.079 531.831 C 387.719 531.708 359.249 531.721 330.78 531.643 C 327.472 531.634 324.092 531.457 320.868 530.778 C 293.355 524.982 272.19 509.393 255.035 487.724 C 254.467 487.007 254.138 486.102 253.107 484.188 C 265.533 484.188 277.091 484.188 288.956 484.281 C 293.044 484.385 296.833 484.532 300.602 484.32 C 301.651 484.261 302.639 483.139 303.699 482.575 C 303.742 482.646 303.881 482.736 303.881 482.736 C 303.881 482.736 303.917 483.114 304.183 483.425 C 304.749 483.862 305.049 483.988 305.708 484.301 C 307.424 484.414 308.781 484.341 310.54 484.348 C 312.584 484.377 314.224 484.326 316.177 484.38 C 316.699 484.417 316.909 484.349 317.573 484.363 C 372.415 484.484 426.803 484.548 481.19 484.546 C 498.142 484.545 515.094 484.365 532.045 484.266 C 534.725 484.322 537.405 484.378 540.952 484.483 C 543.894 484.44 545.969 484.348 548.044 484.257 Z"/>
  <path fill="#F1F1F2" opacity="1.000000" stroke="none" d="&#10;M368.641388,582.307068 &#10;&#9;C358.129913,574.536743 349.446686,565.491760 341.485596,554.671509 &#10;&#9;C446.763702,554.671509 551.293579,554.671509 656.659241,554.671509 &#10;&#9;C654.499451,557.913696 652.743958,560.631897 650.906372,563.293396 &#10;&#9;C642.767883,575.080933 634.705261,586.923767 626.340393,598.548828 &#10;&#9;C625.144348,600.210999 622.446716,601.730469 620.440002,601.735535 &#10;&#9;C553.109436,601.905212 485.777954,602.022827 418.447845,601.788391 &#10;&#9;C401.940582,601.730957 387.532440,594.564575 373.856842,585.935486 &#10;&#9;C372.168182,584.869934 370.570557,583.660156 368.641388,582.307068 &#10;z"/>
  <path fill="#F4F4F5" opacity="1.000000" stroke="none" d="&#10;M475.486908,663.496704 &#10;&#9;C457.381927,654.467468 442.847961,641.845154 430.641785,625.256470 &#10;&#9;C489.954529,625.256470 548.560852,625.256470 607.718506,625.256470 &#10;&#9;C606.940918,626.667358 606.426331,627.815674 605.727051,628.837524 &#10;&#9;C596.603760,642.168945 587.540405,655.543518 578.203796,668.724304 &#10;&#9;C577.019897,670.395569 574.380127,671.975342 572.397400,671.996948 &#10;&#9;C550.402039,672.236816 528.401855,672.310242 506.405975,672.106384 &#10;&#9;C495.550323,672.005798 485.570648,668.104858 475.486908,663.496704 &#10;z"/>
  <path fill="#F4F4F5" opacity="1.000000" stroke="none" d="M 1189.948 367.721 C 1153.08 421.341 912.345 770.515 892.591 799.16 C 892.126 799.834 891.594 800.461 890.669 801.662 C 887.725 799.83 884.784 798.083 881.927 796.207 C 867.506 786.735 854.17 776.067 844.088 761.81 C 831.368 743.823 829.305 724.734 843.394 704.541 C 882.925 647.88 921.791 590.755 961.021 533.484 C 975.777 511.962 990.42 490.761 1005.103 469.589 C 1006.951 466.924 1009.015 464.409 1011.503 461.136 C 985.935 461.136 961.261 461.136 936.587 461.136 C 966.941 454.318 994.402 441.45 1019.836 423.362 C 1020.021 423.095 1020.08 423.098 1020.344 423.01 C 1020.827 422.674 1021.047 422.426 1021.267 422.177 C 1032.751 412.132 1044.599 402.464 1055.589 391.904 C 1062.51 385.254 1068.08 377.21 1074.426 369.939 C 1075.578 368.618 1077.547 367.204 1079.145 367.197 C 1115.28 367.048 1151.416 367.088 1187.552 367.109 C 1188.005 367.109 1188.458 367.331 1189.948 367.721 Z"/>
  <path fill="#162A95" opacity="1.000000" stroke="none" d="&#10;M1021.038025,422.273010 &#10;&#9;C1021.046997,422.425629 1020.827209,422.673889 1020.365784,422.990601 &#10;&#9;C1020.272400,422.749359 1020.500793,422.519226 1021.038025,422.273010 &#10;z"/>
</svg>