<?xml version="1.0" encoding="utf-8"?>
<svg viewBox="0 0 1000 1000" width="1000pt" height="1000pt" xmlns="http://www.w3.org/2000/svg">
  <defs>
    <radialGradient gradientUnits="userSpaceOnUse" cx="1366.902" cy="5235" r="967.321" id="gradient-0">
      <stop offset="0" style="stop-color: rgb(0% 18.431% 65.49%)"/>
      <stop offset="1" style="stop-color: rgb(0% 10.889% 49.447%)"/>
    </radialGradient>
    <radialGradient gradientUnits="userSpaceOnUse" cx="5526.111" cy="4800.124" r="3813.889" id="gradient-1">
      <stop offset="0" style="stop-color: rgb(0% 18.431% 65.49%)"/>
      <stop offset="1" style="stop-color: rgb(0% 10.889% 49.447%)"/>
    </radialGradient>
  </defs>
  <g transform="matrix(0.10000000149011612, 0, 0, -0.10000000149011612, 1.4210854715202004e-14, 1000.0000000000001)" fill="#000000" stroke="none">
    <path d="M2109 7022 c-15 -9 -51 -34 -80 -54 -329 -228 -721 -453 -874 -499&#10;-16 -5 -61 -14 -99 -19 -86 -13 -111 -6 -226 57 -47 26 -63 30 -113 27 -71 -5&#10;-92 -15 -113 -56 -13 -26 -14 -38 -5 -70 10 -31 21 -43 60 -62 26 -14 68 -40&#10;92 -59 25 -19 76 -43 115 -55 193 -58 370 -41 555 54 105 53 99 62 99 -148 0&#10;-101 -4 -217 -10 -258 -5 -41 -14 -136 -20 -210 -6 -74 -18 -205 -27 -290 -9&#10;-85 -19 -207 -23 -270 -7 -124 -48 -436 -80 -615 -41 -224 -88 -512 -95 -575&#10;-6 -57 -26 -162 -41 -213 -4 -14 -12 -16 -47 -10 -23 3 -60 16 -82 28 -79 42&#10;-211 119 -268 156 -32 21 -67 41 -79 45 -12 3 -49 26 -82 50 -33 24 -68 44&#10;-79 44 -10 0 -27 5 -39 11 -24 13 -104 -4 -130 -28 -26 -24 -24 -102 3 -137&#10;12 -16 71 -51 138 -83 64 -31 139 -70 166 -88 95 -61 120 -75 222 -125 158&#10;-79 336 -140 405 -140 41 0 54 5 88 36 49 45 55 65 85 289 41 303 45 336 65&#10;455 11 63 27 160 35 215 9 55 22 118 30 140 16 45 24 118 60 525 14 157 29&#10;301 34 320 27 100 37 256 45 715 4 212 15 315 35 339 7 8 67 53 134 100 67 47&#10;160 118 207 156 47 38 90 70 96 70 28 0 84 93 64 105 -6 4 -10 13 -10 20 0 14&#10;-6 23 -50 74 -22 26 -75 51 -107 51 -15 0 -40 -8 -54 -18z" style="fill: url('#gradient-0');"/>
    <path d="M7314 6500 c-27 -11 -84 -80 -84 -102 0 -9 -4 -19 -9 -22 -4 -3 -11&#10;-25 -15 -48 -15 -104 -38 -214 -47 -230 -5 -10 -9 -41 -9 -70 0 -29 -9 -76&#10;-20 -105 -11 -30 -22 -92 -26 -147 -6 -76 -11 -99 -28 -118 -26 -29 -103 -91&#10;-176 -143 -30 -21 -73 -55 -95 -75 -22 -20 -71 -59 -110 -85 -38 -27 -88 -64&#10;-109 -82 -43 -36 -83 -43 -92 -15 -22 67 -78 112 -140 112 -61 0 -98 -37 -114&#10;-115 -7 -33 -16 -69 -20 -80 -5 -11 -12 -42 -16 -70 -4 -27 -8 -53 -10 -57 -1&#10;-5 -2 -15 -3 -23 -2 -27 -81 -16 -81 11 0 8 -4 14 -10 14 -5 0 -10 7 -10 16 0&#10;26 -59 103 -101 131 -32 21 -47 25 -85 20 -27 -3 -54 -13 -68 -26 -26 -24 -76&#10;-123 -95 -186 -7 -22 -22 -60 -33 -85 -11 -25 -24 -54 -28 -65 -37 -99 -150&#10;-304 -172 -313 -4 -2 -8 -12 -8 -23 0 -10 -4 -19 -10 -19 -5 0 -10 -5 -10 -11&#10;0 -20 -96 -97 -165 -132 -107 -53 -254 -74 -333 -46 -57 20 -109 174 -69 207&#10;6 6 81 24 165 41 173 36 243 65 311 132 42 41 43 45 38 90 -13 105 -109 224&#10;-232 287 -65 33 -76 36 -162 36 -85 0 -97 -3 -165 -37 -63 -30 -138 -92 -138&#10;-112 0 -3 -12 -18 -26 -33 -110 -117 -123 -375 -28 -577 43 -92 136 -192 209&#10;-224 39 -17 45 -23 35 -35 -9 -12 -35 -14 -133 -10 -267 10 -417 38 -542 102&#10;-60 30 -177 109 -224 151 -41 38 -36 47 53 94 54 28 206 162 206 181 0 4 6 13&#10;13 20 48 49 157 241 157 276 0 11 5 22 10 25 6 3 10 39 10 78 0 70 -1 74 -37&#10;115 -23 24 -62 53 -97 68 -59 27 -61 27 -218 21 -138 -6 -160 -4 -165 9 -3 8&#10;-1 20 6 27 6 6 11 35 11 63 0 29 4 55 9 58 4 3 12 36 16 73 21 198 25 234 35&#10;303 6 41 13 111 16 155 2 44 9 89 14 100 14 32 22 92 27 211 4 110 4 111 -24&#10;144 -37 44 -98 71 -132 59 -42 -15 -71 -32 -71 -40 0 -5 -11 -32 -24 -61 -13&#10;-29 -27 -81 -30 -116 -3 -35 -11 -73 -18 -85 -6 -12 -15 -78 -20 -147 -4 -69&#10;-11 -165 -14 -215 -3 -49 -10 -98 -15 -107 -5 -9 -9 -52 -9 -95 0 -44 -4 -83&#10;-9 -89 -9 -8 -12 -37 -26 -229 -3 -38 -10 -79 -15 -90 -14 -31 -20 -86 -30&#10;-250 -11 -179 -18 -243 -30 -270 -5 -11 -11 -54 -14 -95 -9 -140 -56 -217&#10;-196 -320 -89 -65 -155 -97 -232 -110 -89 -16 -142 -10 -146 14 -4 20 13 87&#10;29 118 5 10 9 26 9 35 0 10 18 41 40 68 21 28 47 64 56 80 9 17 48 62 87 102&#10;66 68 70 74 70 117 0 72 -28 116 -88 142 -59 24 -102 6 -195 -84 -70 -68 -170&#10;-207 -170 -237 0 -5 -9 -21 -20 -35 -11 -14 -20 -33 -20 -42 0 -10 -4 -18 -8&#10;-18 -4 0 -16 -14 -26 -32 -23 -39 -53 -69 -131 -133 -33 -28 -62 -53 -65 -56&#10;-10 -12 -50 -20 -70 -14 -18 6 -20 13 -16 68 9 124 19 198 27 203 5 3 9 35 9&#10;71 0 63 -2 68 -38 104 -24 23 -53 40 -76 44 -38 8 -76 45 -76 74 0 23 -56 74&#10;-105 97 -61 29 -166 25 -230 -9 -48 -25 -115 -80 -115 -95 0 -4 -16 -25 -35&#10;-47 -19 -22 -47 -65 -62 -95 -15 -30 -31 -56 -35 -58 -4 -2 -8 -14 -8 -27 0&#10;-13 -4 -27 -10 -30 -5 -3 -10 -17 -10 -30 0 -13 -4 -27 -10 -30 -5 -3 -10 -30&#10;-10 -59 0 -28 -5 -57 -11 -63 -7 -7 -9 -29 -4 -60 3 -26 9 -86 11 -133 4 -55&#10;11 -93 23 -110 9 -14 23 -37 30 -52 47 -94 148 -159 257 -166 57 -4 77 -1 110&#10;16 39 20 74 54 74 71 0 5 4 11 8 13 11 4 72 94 72 106 0 14 35 42 52 42 8 0&#10;34 -14 57 -30 84 -61 216 -63 324 -6 67 35 78 35 117 1 39 -34 95 -63 157 -81&#10;112 -32 294 -1 417 71 26 15 53 24 61 21 17 -6 20 -51 5 -61 -29 -18 9 -79 67&#10;-109 18 -9 53 -16 78 -16 36 0 51 6 73 28 36 36 52 66 52 97 0 14 5 25 10 25&#10;6 0 10 15 10 34 0 19 5 38 10 41 6 3 10 23 10 44 0 20 4 41 9 47 6 5 11 32 13&#10;59 2 41 6 50 23 53 21 3 35 -5 149 -93 180 -137 326 -194 586 -226 105 -13&#10;357 -6 455 12 33 6 71 12 85 13 38 2 37 -32 -2 -75 -18 -20 -37 -43 -43 -51&#10;-5 -8 -38 -56 -72 -106 -35 -50 -63 -96 -63 -101 0 -6 -10 -27 -21 -48 -15&#10;-26 -22 -57 -23 -99 -1 -56 3 -67 34 -110 60 -84 83 -104 155 -139 138 -65&#10;231 -76 492 -55 197 16 288 44 344 105 13 15 34 37 47 50 12 13 22 28 22 34 0&#10;5 3 11 8 13 6 3 43 75 63 123 4 11 21 49 37 85 16 36 38 90 48 120 10 30 22&#10;59 26 64 4 6 8 18 8 28 0 10 5 18 10 18 6 0 10 11 10 25 0 14 5 25 10 25 6 0&#10;10 9 10 20 0 11 5 20 10 20 6 0 10 9 10 19 0 11 5 23 10 26 6 3 10 15 10 26 0&#10;10 4 27 9 37 37 74 51 106 51 118 0 8 5 24 12 37 22 44 28 57 28 66 0 4 10 30&#10;22 57 12 27 23 66 25 86 1 21 7 47 13 57 5 11 10 35 10 55 0 19 5 38 10 41 6&#10;3 10 33 10 65 0 32 5 62 10 65 6 3 10 30 10 60 0 30 5 57 10 60 6 3 10 38 10&#10;77 0 84 20 127 83 175 39 30 67 54 142 122 17 14 53 44 80 65 28 20 70 57 95&#10;80 25 24 56 46 68 50 21 7 22 4 22 -38 0 -25 -3 -46 -7 -46 -11 0 -33 -50 -33&#10;-72 0 -9 -5 -30 -11 -45 -19 -46 -26 -64 -64 -163 -20 -52 -41 -103 -46 -112&#10;-5 -10 -9 -26 -9 -35 0 -10 -9 -33 -20 -51 -11 -18 -20 -41 -20 -52 0 -11 -4&#10;-20 -10 -20 -5 0 -10 -9 -10 -20 0 -11 -4 -28 -9 -38 -5 -9 -13 -28 -18 -42&#10;-6 -14 -15 -36 -20 -50 -6 -14 -20 -56 -33 -94 -12 -39 -37 -101 -56 -140 -19&#10;-38 -34 -75 -34 -81 0 -11 -23 -36 -112 -122 -34 -32 -35 -64 -6 -106 74 -105&#10;141 -112 395 -46 87 23 177 45 199 50 82 16 208 51 235 64 43 23 99 80 99 102&#10;0 41 23 45 86 16 106 -48 218 -31 307 47 20 17 37 39 37 47 0 21 47 63 69 63&#10;23 0 51 -41 51 -74 0 -29 19 -68 54 -106 14 -17 26 -32 26 -35 0 -9 32 -40 69&#10;-65 24 -16 52 -24 102 -28 63 -4 72 -2 108 23 35 23 111 131 111 155 0 5 3 10&#10;8 12 13 6 52 89 52 112 0 24 17 46 37 46 22 0 53 -43 53 -75 0 -33 20 -85 33&#10;-85 4 0 7 -6 7 -12 1 -20 70 -110 116 -151 22 -20 75 -53 116 -72 63 -30 90&#10;-37 165 -42 62 -4 92 -2 97 6 4 6 16 11 27 11 36 0 79 29 79 53 -1 30 -67 80&#10;-160 120 -89 39 -183 99 -202 130 -8 12 -20 42 -27 67 -7 25 -17 53 -22 62 -5&#10;10 -9 40 -9 67 0 56 -6 53 123 66 77 7 121 24 192 70 89 59 161 137 192 205&#10;38 88 53 134 53 171 0 27 -34 102 -57 127 -7 7 -16 18 -20 25 -11 17 -107 95&#10;-163 133 -58 39 -94 54 -128 54 -50 0 -147 -55 -215 -123 -62 -61 -67 -64&#10;-126 -70 -74 -8 -131 -36 -131 -64 0 -4 -11 -21 -25 -38 -22 -27 -106 -189&#10;-149 -290 -10 -22 -22 -48 -27 -57 -5 -10 -9 -25 -9 -33 0 -8 -4 -15 -10 -15&#10;-5 0 -10 -15 -10 -34 0 -19 -4 -38 -10 -41 -5 -3 -10 -17 -10 -30 0 -13 -4&#10;-27 -10 -30 -5 -3 -10 -19 -10 -35 0 -29 -22 -50 -53 -50 -20 0 -47 60 -47&#10;104 0 35 -3 43 -28 93 -7 13 -12 36 -12 52 0 17 -4 33 -10 36 -5 3 -10 15 -10&#10;26 0 19 -4 28 -28 76 -7 13 -12 30 -12 38 0 8 -4 15 -10 15 -5 0 -10 8 -10 18&#10;0 25 -60 89 -95 102 -37 14 -117 4 -147 -19 -13 -9 -36 -22 -51 -29 -40 -17&#10;-126 -101 -142 -138 -11 -27 -20 -32 -57 -38 -24 -4 -58 -15 -75 -26 -34 -20&#10;-113 -120 -113 -143 0 -7 -5 -18 -11 -24 -11 -11 -8 -107 6 -170 6 -28 4 -33&#10;-22 -46 -40 -21 -123 -42 -290 -72 -128 -23 -173 -24 -173 -6 0 3 9 24 19 46&#10;11 22 27 60 36 85 10 25 22 56 28 70 5 14 13 34 17 45 11 29 34 79 40 85 3 3&#10;11 19 19 35 7 17 17 38 22 47 5 10 9 25 9 33 0 8 5 24 10 35 6 11 15 29 20 40&#10;6 11 10 27 10 35 0 8 5 24 10 35 6 11 15 29 20 40 6 11 10 26 10 33 0 7 10 35&#10;23 63 13 27 29 69 36 94 7 25 17 53 22 62 5 10 9 29 9 42 0 14 5 28 10 31 6 3&#10;10 22 10 41 0 19 5 34 10 34 6 0 10 14 10 30 0 17 5 30 10 30 6 0 10 15 10 34&#10;0 19 5 38 10 41 6 3 10 17 10 30 0 13 5 27 10 30 6 3 10 15 10 26 0 10 4 27 9&#10;37 5 9 15 37 22 61 7 24 28 57 46 74 18 17 33 38 33 47 0 8 14 29 30 47 33 35&#10;38 48 15 39 -13 -4 -14 -2 -5 15 10 18 82 75 210 164 61 43 65 46 120 95 21&#10;19 54 45 72 58 175 121 299 223 279 230 -6 2 -36 -12 -65 -32 -30 -20 -59 -36&#10;-66 -36 -23 0 -102 -47 -340 -202 -48 -32 -92 -58 -98 -58 -5 0 -23 -13 -38&#10;-29 -31 -32 -80 -55 -95 -45 -10 6 -3 77 11 109 5 11 11 54 14 95 5 72 18 169&#10;32 238 7 37 -11 83 -50 125 -26 28 -77 35 -122 17z m86 -774 c0 -3 -4 -8 -10&#10;-11 -5 -3 -10 -1 -10 4 0 6 5 11 10 11 6 0 10 -2 10 -4z m1611 -736 c5 0 9 -6&#10;9 -13 0 -7 9 -19 20 -27 11 -8 20 -20 20 -26 0 -23 -45 -99 -75 -127 -70 -63&#10;-109 -83 -141 -68 -13 6 -24 14 -24 19 0 11 59 124 74 142 7 8 20 32 30 52 18&#10;40 43 60 64 53 8 -3 18 -5 23 -5z m-4835 -24 c15 -12 17 -17 7 -27 -7 -7 -13&#10;-20 -13 -29 0 -8 -18 -51 -39 -95 -49 -101 -156 -215 -202 -215 -29 0 -29 1&#10;-29 58 1 31 5 77 11 102 6 25 13 59 15 75 7 40 24 74 53 107 19 21 34 28 75&#10;31 28 2 63 4 77 5 14 1 34 -4 45 -12z m942 -66 c69 -42 28 -83 -105 -106 -124&#10;-22 -140 -10 -75 55 71 72 122 86 180 51z m880 -69 c27 -24 29 -62 2 -81 -11&#10;-8 -20 -20 -20 -26 0 -21 -51 -54 -81 -54 -38 0 -38 18 3 100 44 88 55 94 96&#10;61z m1756 -167 c22 -9 20 -63 -4 -94 -11 -14 -20 -35 -20 -47 0 -13 -4 -23&#10;-10 -23 -5 0 -10 -5 -10 -11 0 -6 -10 -24 -21 -41 -26 -36 -66 -53 -85 -37&#10;-19 16 -17 36 6 69 15 21 21 47 23 92 l2 62 45 18 c52 20 53 20 74 12z m-5424&#10;-99 c0 -8 -4 -23 -9 -33 -5 -9 -24 -48 -42 -87 -19 -38 -37 -71 -41 -73 -5 -2&#10;-8 -14 -8 -26 0 -12 -4 -26 -8 -31 -5 -6 -15 -30 -22 -55 -8 -25 -21 -56 -30&#10;-70 -16 -23 -49 -87 -80 -152 -21 -43 -50 -69 -73 -66 -18 2 -23 11 -25 46 -2&#10;23 -7 42 -13 42 -12 0 -12 157 1 165 6 3 10 26 10 51 0 30 10 67 31 109 32 66&#10;110 166 144 183 11 6 53 11 93 11 58 1 72 -2 72 -14z m3860 -34 c0 -22 -4 -42&#10;-8 -45 -5 -3 -14 -38 -21 -78 -7 -40 -17 -82 -21 -93 -24 -58 -60 -162 -60&#10;-173 0 -11 -30 -85 -51 -124 -5 -10 -9 -27 -9 -38 0 -11 -3 -20 -7 -20 -11 0&#10;-33 -50 -33 -72 0 -10 -3 -18 -7 -18 -10 0 -33 -49 -33 -67 0 -7 -4 -21 -9&#10;-31 -59 -116 -121 -250 -121 -259 0 -7 -4 -13 -8 -13 -5 0 -14 -16 -22 -35&#10;-27 -70 -54 -82 -255 -117 -276 -49 -414 -17 -347 79 10 16 26 45 36 65 14 32&#10;77 123 95 138 3 3 19 23 36 45 16 21 36 46 45 55 8 8 26 31 40 50 21 30 57 72&#10;105 124 6 6 18 22 27 35 22 32 120 141 198 221 36 36 94 98 130 137 102 113&#10;115 126 151 159 19 17 49 50 67 73 23 28 41 41 58 41 21 0 24 -4 24 -39z" style="fill: url('#gradient-1');"/>
  </g>
</svg>