<?xml version="1.0" encoding="utf-8"?>
<svg viewBox="0 0 600 399" width="600" height="399" xmlns="http://www.w3.org/2000/svg">
  <path fill="currentColor" opacity="1.000000" stroke="none" d="M 0 55.361 C 2.498 51.919 4.654 48.512 7.563 45.979 C 13.3 40.98 18.475 41.452 23.711 46.943 C 25.519 48.838 27.058 50.993 28.53 52.799 C 21.295 58.673 14.365 64.3 6.817 70.428 C 4.909 67.491 2.809 64.259 0.354 60.989 C 0 59.231 0 57.511 0 55.361 Z" transform="matrix(1, 0, 0, 1, 0, 7.105427357601002e-15)"/>
  <path fill="#C33A3B" opacity="1.000000" stroke="none" d="M 305.823 78.007 C 306 78.018 306.177 78.03 306.815 78.335 C 307.655 78.688 308.034 78.747 308.413 78.806 C 318.496 83.611 328.219 80.631 337.719 77.056 C 356.384 70.034 374.921 62.668 393.521 55.469 C 414.398 47.39 435.871 41.576 458.174 39.403 C 473.598 37.9 488.747 40.653 503.54 44.614 C 519.898 48.996 536.001 54.342 552.583 59.865 C 553.326 61.088 553.703 61.714 554.079 62.339 C 554.079 62.339 553.937 62.331 553.473 62.184 C 549.804 61.379 546.613 60.632 543.39 60.075 C 523.014 56.554 502.458 54.532 481.817 54.09 C 471.111 53.86 460.304 54.738 449.661 56.066 C 437.92 57.532 426.009 59.065 414.736 62.456 C 403.599 65.808 393.257 71.743 382.398 76.125 C 372.633 80.065 362.618 83.375 352.77 87.114 C 351.287 87.677 350.116 89.061 348.801 90.065 C 349.628 90.793 350.342 91.897 351.302 92.192 C 359.082 94.576 366.908 96.809 375.353 99.38 C 384.87 102.246 393.691 105.078 402.654 107.337 C 417.379 111.048 432.195 114.389 446.974 117.885 C 475.452 122.965 503.926 128.068 532.411 133.109 C 538.612 134.207 541.468 137.133 540.722 142.005 C 539.815 147.941 534.211 152.915 529.141 152.345 C 520.973 151.428 512.801 150.553 504.631 149.66 C 504.525 150.124 504.42 150.586 504.314 151.05 C 511.368 153.606 518.421 156.163 526.609 159.131 C 521.531 162.624 517.34 165.77 512.895 168.502 C 506.941 172.159 500.91 175.739 494.657 178.829 C 492.6 179.845 489.484 179.997 487.299 179.24 C 473.661 174.523 460.163 169.405 446.588 164.508 C 444.561 163.777 442.371 163.506 440.257 163.021 C 440.066 163.5 439.876 163.979 439.686 164.458 C 452.914 171.517 466.143 178.577 479.968 185.955 C 477.169 187.427 474.769 188.688 471.81 190.193 C 470.065 191.055 468.876 191.676 467.304 192.258 C 451.912 197.626 437.079 203.601 421.862 208.33 C 379.305 221.554 335.772 229.735 291.278 232.849 C 259.521 235.071 227.772 235.551 196.001 233.755 C 181.904 232.957 167.836 231.637 153.42 230.405 C 151.648 230.029 150.213 229.802 148.776 229.576 C 131.278 225.701 113.779 221.826 96.28 217.951 C 96.231 217.475 96.182 216.999 96.132 216.523 C 116.261 201.731 136.275 186.802 153.754 168.871 C 153.516 168.481 153.278 168.089 153.04 167.698 C 149.236 169.751 145.251 171.528 141.659 173.904 C 123.322 186.033 105.039 198.247 86.866 210.623 C 84.274 212.388 82.277 213.141 79.199 211.884 C 70.174 208.197 61.009 204.86 50.838 200.982 C 55.829 196.344 59.865 192.595 63.899 188.847 C 63.753 188.548 63.607 188.25 63.46 187.952 C 61.826 188.375 60.094 188.581 58.578 189.268 C 55.592 190.621 52.792 192.395 49.789 193.7 C 47.487 194.701 44.297 196.567 42.72 195.731 C 39.179 193.853 35.742 190.985 33.487 187.679 C 31.181 184.298 32.924 180.891 36.763 179.155 C 44.954 175.454 53.108 171.653 61.412 168.224 C 84.187 158.817 107.035 149.586 129.846 140.266 C 131.072 139.765 132.223 139.08 134.076 138.272 C 154.483 129.023 174.246 120.033 193.944 110.905 C 197.499 109.257 200.791 107.041 204.204 105.088 C 212.143 101.354 220.377 98.135 227.948 93.762 C 239.182 87.273 249.981 80.017 260.888 72.968 C 263.598 71.218 265.619 71.126 268.933 72.339 C 273.514 74.017 278.864 74.271 283.824 74.004 C 288.509 73.751 292.79 70.969 297.362 69.625 C 303.938 67.692 310.04 63.104 315.502 58.617 C 324.237 51.439 332.075 43.172 340.656 35.79 C 361.779 17.621 387.271 9.447 413.908 3.709 C 443.897 -2.751 473.379 -0.228 502.822 7.078 C 518.146 10.881 533.645 13.98 549.564 17.879 C 550.612 19.22 551.162 20.079 551.711 20.937 C 551.274 21.251 550.837 21.565 549.79 21.88 C 548.694 22.245 548.208 22.608 547.721 22.971 C 547.721 22.971 547.725 22.888 547.381 22.867 C 546.27 22.831 545.504 22.817 544.648 22.43 C 542.614 21.325 540.726 20.281 538.716 19.909 C 528.855 18.08 518.761 17.18 509.122 14.568 C 486.536 8.447 463.64 6.865 440.416 7.748 C 426.02 8.295 412.183 11.357 398.99 17.004 C 394.313 19.007 390.134 22.178 385.351 24.827 C 381.68 26.312 378.05 27.303 375.151 29.341 C 363.8 37.32 352.733 45.705 341.453 53.786 C 335.03 58.389 328.398 62.697 321.86 67.138 C 321.86 67.138 321.853 67.028 321.658 67.098 C 321.235 67.418 321.008 67.667 320.779 67.915 C 320.779 67.915 320.404 68.022 319.958 68.086 C 319.273 68.394 319.036 68.639 318.8 68.883 C 318.8 68.883 318.394 68.996 317.86 69.013 C 316.831 69.382 316.335 69.733 315.839 70.085 C 315.839 70.085 315.839 70.007 315.483 70.006 C 311.803 71.296 308.32 72.292 305.209 73.979 C 302.926 75.216 301.981 77.221 305.823 78.007 M 287.313 130.231 C 285.833 125.479 284.351 120.728 282.87 115.976 C 279.15 125.63 278.461 135.109 279.605 144.891 C 280.132 149.409 281.777 150.79 285.916 149.863 C 287.174 149.581 288.436 149.315 290.528 148.862 C 289.518 142.767 288.545 136.894 287.313 130.231 M 354.476 121.947 C 357.757 126.938 361.059 131.915 364.312 136.923 C 368.339 143.125 373.715 144.487 380.345 141.54 C 375.789 133.528 359.982 119.683 352.671 117.499 C 353.202 118.904 353.656 120.102 354.476 121.947 M 188.045 156.165 C 190.652 155.333 195.192 154.985 195.539 153.588 C 197.216 146.824 197.768 139.78 198.718 132.834 C 198.036 132.618 197.353 132.4 196.671 132.183 C 193.081 139.417 189.454 146.635 185.987 153.927 C 185.775 154.373 186.816 155.418 188.045 156.165 Z" transform="matrix(1, 0, 0, 1, 0, 7.105427357601002e-15)"/>
  <path fill="currentColor" opacity="1.000000" stroke="none" d="M 148.747 230.03 C 150.213 229.802 151.648 230.029 153.4 230.862 C 153.717 234.755 153.717 238.043 153.717 241.179 C 158.852 241.866 163.311 242.292 167.705 243.083 C 182.935 245.824 195.667 254.109 208.684 261.797 C 234.286 276.917 259.65 292.484 285.69 306.808 C 308.713 319.472 333.596 322.863 359.577 317.783 C 375.912 314.59 390.111 306.741 403.864 298.004 C 431.718 280.307 452.961 256.875 464.692 225.482 C 465.739 222.682 466.176 219.399 467.941 217.179 C 471.246 213.026 471.123 208.538 470.431 203.939 C 469.84 200.01 468.626 196.175 467.688 192.297 C 468.876 191.676 470.065 191.055 471.542 190.484 C 477.519 218.942 476.639 247.081 467.208 274.559 C 447.699 331.403 408.024 368.645 352.565 388.586 C 296.045 408.91 242.883 398.671 194.115 364.969 C 158.7 340.494 133.917 307.736 122.689 265.486 C 119.445 253.282 123.392 246.689 135.712 243.797 C 139.909 242.811 144.209 242.263 148.717 241.471 C 148.717 237.779 148.717 234.132 148.747 230.03 Z" transform="matrix(1, 0, 0, 1, 0, 7.105427357601002e-15)"/>
  <path fill="#AD3336" opacity="1.000000" stroke="none" d="M 349.231 90.047 C 350.116 89.061 351.287 87.677 352.77 87.114 C 362.618 83.375 372.633 80.065 382.398 76.125 C 393.257 71.743 403.599 65.808 414.736 62.456 C 426.009 59.065 437.92 57.532 449.661 56.066 C 460.304 54.738 471.111 53.86 481.817 54.09 C 502.458 54.532 523.014 56.554 543.39 60.075 C 546.613 60.632 549.804 61.379 553.461 62.114 C 540.759 69.609 540.759 69.609 538.463 85.846 C 534.784 83.169 531.328 80.336 527.576 77.981 C 512.178 68.313 495.04 64.648 477.176 64.027 C 454.134 63.227 431.901 67.861 409.897 74.31 C 391.563 79.682 373.05 84.443 354.602 89.417 C 353.015 89.844 351.311 89.835 349.231 90.047 Z" transform="matrix(1, 0, 0, 1, 0, 7.105427357601002e-15)"/>
  <path fill="currentColor" opacity="1.000000" stroke="none" d="M 34.774 101.235 C 37.993 99.916 41.282 98.744 44.415 97.244 C 48.73 95.177 52.926 92.864 57.466 90.503 C 71.049 108.328 84.456 125.925 98.176 143.931 C 91.41 146.686 85.156 149.353 78.784 151.696 C 77.866 152.033 75.985 151.149 75.213 150.253 C 62.158 135.116 49.193 119.899 36.278 104.64 C 35.675 103.927 35.721 102.66 35.131 101.408 C 34.797 101.165 34.774 101.235 34.774 101.235 Z" transform="matrix(1, 0, 0, 1, 0, 7.105427357601002e-15)"/>
  <path fill="currentColor" opacity="1.000000" stroke="none" d="M 203.874 104.872 C 200.791 107.041 197.499 109.257 193.944 110.905 C 174.246 120.033 154.483 129.023 134.376 138.074 C 144.381 110.802 176.23 95.489 203.874 104.872 Z" transform="matrix(1, 0, 0, 1, 0, 7.105427357601002e-15)"/>
  <path fill="currentColor" opacity="1.000000" stroke="none" d="M 446.876 117.565 C 432.195 114.389 417.379 111.048 402.654 107.337 C 393.691 105.078 384.87 102.246 375.74 99.391 C 386.931 90.314 399.835 90.423 412.905 93.524 C 427.185 96.912 438.254 105.357 446.876 117.565 Z" transform="matrix(1, 0, 0, 1, 0, 7.105427357601002e-15)"/>
  <path fill="#AC373A" opacity="1.000000" stroke="none" d="M 385.727 24.814 C 390.134 22.178 394.313 19.007 398.99 17.004 C 412.183 11.357 426.02 8.295 440.416 7.748 C 463.64 6.865 486.536 8.447 509.122 14.568 C 518.761 17.18 528.855 18.08 538.716 19.909 C 540.726 20.281 542.614 21.325 544.39 22.615 C 544.058 23.763 543.893 24.356 543.73 24.949 C 543.116 25.321 542.503 25.692 541.219 26.023 C 540.028 26.426 539.506 26.871 538.984 27.317 C 538.984 27.317 538.9 27.199 538.681 27.181 C 538.198 27.427 537.935 27.691 537.672 27.956 C 537.672 27.956 537.53 28.111 536.958 28.029 C 533.414 27.656 530.444 27.366 527.474 27.075 C 527.474 27.075 527.591 27.031 527.409 26.741 C 526.219 26.301 525.213 26.15 524.207 26.001 C 524.207 26.001 523.912 26.077 523.589 25.714 C 522.834 25.287 522.403 25.226 521.972 25.164 C 521.972 25.164 521.517 25.302 521.517 25.302 C 521.517 25.302 521.067 25.155 520.668 24.751 C 519.839 24.278 519.41 24.21 518.98 24.142 C 518.98 24.142 518.533 24.309 518.533 24.309 C 518.533 24.309 518.074 24.176 517.673 23.765 C 516.841 23.287 516.408 23.222 515.973 23.157 C 515.973 23.157 515.521 23.303 515.521 23.303 C 515.521 23.303 515.067 23.165 514.812 22.645 C 510.709 21.122 506.86 20.12 503.011 19.117 C 503.011 19.117 502.555 19.297 502.555 19.297 C 502.555 19.297 502.084 19.164 501.809 18.613 C 499.696 17.739 497.86 17.416 496.024 17.093 C 496.024 17.093 495.92 17.203 495.658 16.836 C 489.517 15.499 483.638 14.529 477.761 13.559 C 477.298 13.554 476.835 13.549 475.92 13.072 C 474.89 12.331 474.317 11.837 473.734 11.825 C 461.522 11.576 449.309 11.304 437.095 11.264 C 435.311 11.258 433.523 12.419 431.737 13.04 C 430.99 13.248 430.241 13.455 428.802 13.382 C 423.601 13.739 418.967 13.923 414.614 15.129 C 409.206 16.627 404.03 18.972 398.753 20.951 C 398.753 20.951 398.587 21.105 398.051 21.011 C 394.326 22.329 391.137 23.741 387.948 25.152 C 387.948 25.152 387.882 25.028 387.569 24.973 C 386.747 24.884 386.237 24.849 385.727 24.814 Z" transform="matrix(1, 0, 0, 1, 0, 7.105427357601002e-15)"/>
  <path fill="currentColor" opacity="1.000000" stroke="none" d="M 16.613 67.633 C 21.815 64.29 26.716 61.146 32.14 57.668 C 35.263 61.694 38.37 65.698 41.729 70.029 C 34.217 75.048 26.957 79.899 19.383 84.959 C 15.972 80.968 12.544 76.957 8.873 72.663 C 11.612 70.885 13.962 69.358 16.613 67.633 Z" transform="matrix(1, 0, 0, 1, 0, 7.105427357601002e-15)"/>
  <path fill="currentColor" opacity="1.000000" stroke="none" d="M 34.831 101.151 C 32.191 98.655 29.432 96.259 26.875 93.664 C 24.923 91.684 23.225 89.452 21.106 86.972 C 29.295 82.851 37.062 78.943 45.334 74.781 C 48.178 78.48 51.056 82.223 53.929 85.962 C 47.282 90.955 40.949 95.714 34.694 100.853 C 34.774 101.235 34.797 101.165 34.831 101.151 Z" transform="matrix(1, 0, 0, 1, 0, 7.105427357601002e-15)"/>
  <path fill="#C13D3F" opacity="1.000000" stroke="none" d="M 253.752 20.475 C 254.219 20.29 254.688 20.105 255.832 20.207 C 258.751 20.717 260.994 20.941 262.976 21.137 C 264.27 26.646 265.487 31.824 266.743 37.403 C 267.524 40.11 268.266 42.419 268.989 44.736 C 268.969 44.744 268.983 44.739 268.93 45.102 C 269.245 46.291 269.614 47.116 270.067 48.04 C 270.151 48.138 270.064 48.383 270.014 48.748 C 270.314 49.689 270.663 50.263 271.21 50.972 C 271.782 51.616 272.154 52.125 272.864 52.504 C 273.411 50.851 273.492 49.292 273.909 47.829 C 274.034 47.392 275.097 47.223 275.817 47.152 C 275.906 48.127 275.908 48.881 275.876 50.078 C 275.848 51.989 275.854 53.456 275.487 54.965 C 273.666 55.323 272.215 55.64 270.514 55.839 C 269.776 55.47 269.286 55.217 268.797 54.964 C 268.797 54.964 268.844 54.935 268.852 54.57 C 267.382 51.417 265.902 48.629 264.424 45.841 C 264.3 45.706 264.177 45.57 264.158 45.044 C 264.042 44.46 263.82 44.267 263.6 44.075 C 263.6 44.075 263.73 43.92 263.728 43.674 C 263.31 42.993 262.895 42.56 262.48 42.125 C 262.48 42.125 262.59 42.064 262.582 41.845 C 262.313 41.377 262.051 41.129 261.79 40.881 C 261.79 40.881 261.603 40.743 261.612 40.26 C 260.95 38.848 260.281 37.92 259.611 36.992 C 259.611 36.992 259.718 36.974 259.718 36.663 C 259.244 35.921 258.772 35.489 258.3 35.056 C 258.3 35.056 257.997 34.781 257.947 34.274 C 257.434 33.202 256.97 32.639 256.507 32.074 C 256.507 32.074 256.654 32.029 256.676 31.738 C 255.719 30.26 254.739 29.074 253.76 27.889 C 253.76 27.889 253.842 27.864 253.804 27.503 C 253.48 25.071 253.193 22.999 252.907 20.927 C 252.907 20.927 252.92 20.849 253.101 20.836 C 253.476 20.757 253.631 20.641 253.752 20.475 Z" transform="matrix(1, 0, 0, 1, 0, 7.105427357601002e-15)"/>
  <path fill="#C33839" opacity="1.000000" stroke="none" d="M 270.765 55.956 C 272.215 55.64 273.666 55.323 275.626 55.251 C 277.083 55.294 278.03 55.092 279.195 54.714 C 279.55 53.994 279.687 53.45 279.828 52.534 C 279.839 51.417 279.848 50.671 280.241 49.922 C 281.648 49.182 282.673 48.445 283.749 47.755 C 283.799 47.8 283.669 47.766 284.074 47.802 C 288.193 47.501 286.403 44.663 286.76 42.849 C 286.766 42.899 286.714 42.812 287.067 42.84 C 287.89 42.877 288.36 42.885 289.178 42.896 C 289.986 42.911 290.449 42.922 290.893 43.315 C 290.487 46.431 290.102 49.165 289.717 51.898 C 289.673 52.347 289.629 52.794 289.195 53.549 C 288.498 53.916 288.189 53.949 287.699 54.027 C 287.453 54.21 287.303 54.382 287.328 54.415 C 287.478 54.606 287.669 54.763 287.847 55.333 C 287.509 57.813 287.169 59.892 286.829 61.972 C 286.829 61.972 286.576 62.179 285.978 62.102 C 280.328 62.318 275.276 62.611 270.224 62.903 C 270.14 62.162 270.057 61.422 270.241 60.053 C 270.594 58.268 270.679 57.111 270.765 55.956 Z" transform="matrix(1, 0, 0, 1, 0, 7.105427357601002e-15)"/>
  <path fill="#A94245" opacity="1.000000" stroke="none" d="M 385.351 24.827 C 386.237 24.849 386.747 24.884 387.632 25.006 C 371.233 32.853 357.216 44.644 342.695 55.792 C 336.627 60.451 329.245 63.386 322.161 67.122 C 328.398 62.697 335.03 58.389 341.453 53.786 C 352.733 45.705 363.8 37.32 375.151 29.341 C 378.05 27.303 381.68 26.312 385.351 24.827 Z" transform="matrix(1, 0, 0, 1, 0, 7.105427357601002e-15)"/>
  <path fill="#BD4F52" opacity="1.000000" stroke="none" d="M 275.73 46.931 C 275.097 47.223 274.034 47.392 273.909 47.829 C 273.492 49.292 273.411 50.851 272.863 52.118 C 272.332 49.872 272.138 47.881 271.946 45.891 C 271.938 45.139 271.93 44.386 271.914 42.882 C 271.655 40.875 271.406 39.622 271.155 38.367 C 271.053 37.109 270.951 35.852 270.81 33.893 C 270.495 32.352 270.221 31.512 269.945 30.672 C 269.915 30.263 269.884 29.855 269.818 28.832 C 269.547 27.633 269.311 27.048 269.076 26.463 C 268.977 25.798 268.879 25.134 268.72 23.859 C 268.403 22.736 268.145 22.225 267.888 21.713 C 267.526 16.986 271.323 19.731 273.872 18.849 C 275.082 19.831 275.848 20.766 275.852 21.704 C 275.888 30.114 275.789 38.523 275.73 46.931 Z" transform="matrix(1, 0, 0, 1, 0, 7.105427357601002e-15)"/>
  <path fill="#C33839" opacity="1.000000" stroke="none" d="M 291.618 29.412 C 291.618 29.412 291.567 29.13 291.928 28.785 C 292.363 27.517 292.437 26.593 292.511 25.668 C 292.511 25.668 292.52 25.619 292.849 25.487 C 295.012 19.981 297.641 19.21 301.601 22.887 C 301.478 23.41 301.354 23.931 300.784 24.641 C 300.165 24.835 299.992 24.839 299.77 24.709 C 299.638 24.523 299.558 24.473 299.477 24.423 C 299.595 24.559 299.714 24.696 299.905 25.168 C 300.079 25.708 300.18 25.913 300.282 26.118 C 300.282 26.118 300.173 26.103 299.873 26.134 C 298.386 29.125 297.2 32.083 296.016 35.042 C 296.016 35.042 295.969 34.851 295.748 34.909 C 295.219 35.053 294.909 35.139 294.601 35.226 C 294.98 35.447 295.359 35.669 295.738 35.89 C 295.582 36.423 295.427 36.958 294.814 37.883 C 294.307 38.687 294.257 39.099 294.206 39.511 C 294.206 39.511 294.222 39.726 293.833 39.976 C 293.252 41.128 293.06 42.031 292.867 42.934 C 292.867 42.934 292.828 42.897 292.523 42.902 C 291.782 42.917 291.347 42.925 290.912 42.934 C 290.449 42.922 289.986 42.911 289.178 42.447 C 288.782 40.789 288.734 39.582 288.686 38.376 C 288.686 38.376 288.593 38.115 288.953 37.803 C 289.423 36.833 289.533 36.175 289.643 35.517 C 289.643 35.517 289.656 35.175 290.127 34.94 C 290.939 32.941 291.278 31.177 291.618 29.412 Z" transform="matrix(1, 0, 0, 1, 0, 7.105427357601002e-15)"/>
  <path fill="#A94245" opacity="1.000000" stroke="none" d="M 432.134 13.12 C 433.523 12.419 435.311 11.258 437.095 11.264 C 449.309 11.304 461.522 11.576 473.734 11.825 C 474.317 11.837 474.89 12.331 475.604 12.923 C 461.336 13.231 446.933 13.216 432.134 13.12 Z" transform="matrix(1, 0, 0, 1, 0, 7.105427357601002e-15)"/>
  <path fill="#A94245" opacity="1.000000" stroke="none" d="M 399.153 20.944 C 404.03 18.972 409.206 16.627 414.614 15.129 C 418.967 13.923 423.601 13.739 428.409 13.344 C 418.989 16.037 409.27 18.487 399.153 20.944 Z" transform="matrix(1, 0, 0, 1, 0, 7.105427357601002e-15)"/>
  <path fill="#BC575A" opacity="1.000000" stroke="none" d="M 270.098 63.283 C 275.276 62.611 280.328 62.318 285.815 62.093 C 281.847 63.336 277.473 64.65 273.017 65.565 C 272.166 65.74 270.995 64.337 270.098 63.283 Z" transform="matrix(1, 0, 0, 1, 0, 7.105427357601002e-15)"/>
  <path fill="#A94245" opacity="1.000000" stroke="none" d="M 478.133 13.705 C 483.638 14.529 489.517 15.499 495.583 16.823 C 490.017 16.069 484.261 14.96 478.133 13.705 Z" transform="matrix(1, 0, 0, 1, 0, 7.105427357601002e-15)"/>
  <path fill="#A94245" opacity="1.000000" stroke="none" d="M 305.668 77.713 C 301.981 77.221 302.926 75.216 305.209 73.979 C 308.32 72.292 311.803 71.296 315.519 70.02 C 313.392 71.362 310.777 72.535 308.398 74.076 C 307.213 74.843 306.462 76.283 305.668 77.713 Z" transform="matrix(1, 0, 0, 1, 0, 7.105427357601002e-15)"/>
  <path fill="#A94245" opacity="1.000000" stroke="none" d="M 503.284 19.389 C 506.86 20.12 510.709 21.122 514.626 22.499 C 510.981 21.802 507.27 20.731 503.284 19.389 Z" transform="matrix(1, 0, 0, 1, 0, 7.105427357601002e-15)"/>
  <path fill="#BC575A" opacity="1.000000" stroke="none" d="M 290.893 43.315 C 291.347 42.925 291.782 42.917 292.544 42.917 C 291.962 45.729 291.053 48.531 289.93 51.615 C 290.102 49.165 290.487 46.431 290.893 43.315 Z" transform="matrix(1, 0, 0, 1, 0, 7.105427357601002e-15)"/>
  <path fill="#BC575A" opacity="1.000000" stroke="none" d="M 296.285 34.833 C 297.2 32.083 298.386 29.125 299.903 26.179 C 299.008 29.004 297.781 31.814 296.285 34.833 Z" transform="matrix(1, 0, 0, 1, 0, 7.105427357601002e-15)"/>
  <path fill="#A94245" opacity="1.000000" stroke="none" d="M 388.324 25.117 C 391.137 23.741 394.326 22.329 397.944 20.971 C 395.149 22.376 391.925 23.729 388.324 25.117 Z" transform="matrix(1, 0, 0, 1, 0, 7.105427357601002e-15)"/>
  <path fill="#BC575A" opacity="1.000000" stroke="none" d="M 264.469 46.17 C 265.902 48.629 267.382 51.417 268.83 54.588 C 267.372 52.148 265.943 49.324 264.469 46.17 Z" transform="matrix(1, 0, 0, 1, 0, 7.105427357601002e-15)"/>
  <path fill="#A94245" opacity="1.000000" stroke="none" d="M 527.715 27.338 C 530.444 27.366 533.414 27.656 536.854 28.006 C 534.025 31.491 531.056 28.221 527.715 27.338 Z" transform="matrix(1, 0, 0, 1, 0, 7.105427357601002e-15)"/>
  <path fill="#BC575A" opacity="1.000000" stroke="none" d="M 287.22 61.95 C 287.169 59.892 287.509 57.813 287.853 55.088 C 287.858 54.441 287.876 53.951 287.876 53.951 C 288.189 53.949 288.498 53.916 289.038 53.849 C 288.718 56.538 288.164 59.232 287.22 61.95 Z" transform="matrix(1, 0, 0, 1, 0, 7.105427357601002e-15)"/>
  <path fill="#AC373A" opacity="1.000000" stroke="none" d="M 552.063 20.9 C 551.162 20.079 550.612 19.22 549.879 18.098 C 551.276 18.125 552.859 18.415 555.282 18.859 C 553.852 19.857 553.133 20.36 552.063 20.9 Z" transform="matrix(1, 0, 0, 1, 0, 7.105427357601002e-15)"/>
  <path fill="#A94245" opacity="1.000000" stroke="none" d="M 496.298 17.362 C 497.86 17.416 499.696 17.739 501.616 18.463 C 499.99 18.453 498.28 18.042 496.298 17.362 Z" transform="matrix(1, 0, 0, 1, 0, 7.105427357601002e-15)"/>
  <path fill="#BC575A" opacity="1.000000" stroke="none" d="M 270.514 55.839 C 270.679 57.111 270.594 58.268 270.275 59.68 C 269.617 58.526 269.193 57.115 268.783 55.334 C 269.286 55.217 269.776 55.47 270.514 55.839 Z" transform="matrix(1, 0, 0, 1, 0, 7.105427357601002e-15)"/>
  <path fill="#BD4F52" opacity="1.000000" stroke="none" d="M 253.806 28.219 C 254.739 29.074 255.719 30.26 256.627 31.797 C 255.655 30.947 254.753 29.747 253.806 28.219 Z" transform="matrix(1, 0, 0, 1, 0, 7.105427357601002e-15)"/>
  <path fill="#AD3336" opacity="1.000000" stroke="none" d="M 554.384 62.361 C 553.703 61.714 553.326 61.088 552.832 60.121 C 554.137 60.204 555.559 60.629 558 61.357 C 556.166 61.925 555.429 62.154 554.384 62.361 Z" transform="matrix(1, 0, 0, 1, 0, 7.105427357601002e-15)"/>
  <path fill="#A94245" opacity="1.000000" stroke="none" d="M 544.064 24.925 C 543.893 24.356 544.058 23.763 544.48 22.986 C 545.504 22.817 546.27 22.831 547.42 22.883 C 546.668 23.58 545.533 24.24 544.064 24.925 Z" transform="matrix(1, 0, 0, 1, 0, 7.105427357601002e-15)"/>
  <path fill="#BD4F52" opacity="1.000000" stroke="none" d="M 259.659 37.337 C 260.281 37.92 260.95 38.848 261.629 40.144 C 260.994 39.569 260.349 38.626 259.659 37.337 Z" transform="matrix(1, 0, 0, 1, 0, 7.105427357601002e-15)"/>
  <path fill="#FADDDD" opacity="1.000000" stroke="none" d="M 271.054 38.768 C 271.406 39.622 271.655 40.875 271.835 42.513 C 271.494 41.654 271.224 40.411 271.054 38.768 Z" transform="matrix(1, 0, 0, 1, 0, 7.105427357601002e-15)"/>
  <path fill="#FADDDD" opacity="1.000000" stroke="none" d="M 258.578 19.161 C 258.054 19.457 257.305 19.584 256.177 19.646 C 256.649 19.385 257.501 19.188 258.578 19.161 Z" transform="matrix(1, 0, 0, 1, 0, 7.105427357601002e-15)"/>
  <path fill="#A94245" opacity="1.000000" stroke="none" d="M 524.478 26.251 C 525.213 26.15 526.219 26.301 527.398 26.803 C 526.63 26.937 525.69 26.718 524.478 26.251 Z" transform="matrix(1, 0, 0, 1, 0, 7.105427357601002e-15)"/>
  <path fill="#BC575A" opacity="1.000000" stroke="none" d="M 293.117 42.704 C 293.06 42.031 293.252 41.128 293.758 40.052 C 293.835 40.744 293.601 41.61 293.117 42.704 Z" transform="matrix(1, 0, 0, 1, 0, 7.105427357601002e-15)"/>
  <path fill="#BD4F52" opacity="1.000000" stroke="none" d="M 256.541 32.358 C 256.97 32.639 257.434 33.202 257.907 34.073 C 257.47 33.8 257.022 33.22 256.541 32.358 Z" transform="matrix(1, 0, 0, 1, 0, 7.105427357601002e-15)"/>
  <path fill="#A94245" opacity="1.000000" stroke="none" d="M 539.322 27.261 C 539.506 26.871 540.028 26.426 540.943 26.028 C 540.777 26.451 540.219 26.828 539.322 27.261 Z" transform="matrix(1, 0, 0, 1, 0, 7.105427357601002e-15)"/>
  <path fill="#A94245" opacity="1.000000" stroke="none" d="M 316.166 70.062 C 316.335 69.733 316.831 69.382 317.651 69.025 C 317.481 69.359 316.988 69.699 316.166 70.062 Z" transform="matrix(1, 0, 0, 1, 0, 7.105427357601002e-15)"/>
  <path fill="#A94245" opacity="1.000000" stroke="none" d="M 548.033 22.948 C 548.208 22.608 548.694 22.245 549.506 21.884 C 549.337 22.232 548.84 22.579 548.033 22.948 Z" transform="matrix(1, 0, 0, 1, 0, 7.105427357601002e-15)"/>
  <path fill="#BD4F52" opacity="1.000000" stroke="none" d="M 258.382 35.362 C 258.772 35.489 259.244 35.921 259.691 36.711 C 259.264 36.602 258.864 36.136 258.382 35.362 Z" transform="matrix(1, 0, 0, 1, 0, 7.105427357601002e-15)"/>
  <path fill="#BC575A" opacity="1.000000" stroke="none" d="M 295.891 35.704 C 295.359 35.669 294.98 35.447 294.601 35.226 C 294.909 35.139 295.219 35.053 295.783 35.002 C 296.039 35.036 296.044 35.519 295.891 35.704 Z" transform="matrix(1, 0, 0, 1, 0, 7.105427357601002e-15)"/>
  <path fill="#BD4F52" opacity="1.000000" stroke="none" d="M 262.513 42.427 C 262.895 42.56 263.31 42.993 263.684 43.766 C 263.276 43.645 262.911 43.188 262.513 42.427 Z" transform="matrix(1, 0, 0, 1, 0, 7.105427357601002e-15)"/>
  <path fill="#BD4F52" opacity="1.000000" stroke="none" d="M 253.584 20.414 C 253.631 20.641 253.476 20.757 253.137 20.854 C 253.009 20.605 253.149 20.428 253.584 20.414 Z" transform="matrix(1, 0, 0, 1, 0, 7.105427357601002e-15)"/>
  <path fill="#A94245" opacity="1.000000" stroke="none" d="M 308.22 78.573 C 308.034 78.747 307.655 78.688 307.066 78.426 C 307.246 78.263 307.636 78.302 308.22 78.573 Z" transform="matrix(1, 0, 0, 1, 0, 7.105427357601002e-15)"/>
  <path fill="#A94245" opacity="1.000000" stroke="none" d="M 319.086 68.928 C 319.036 68.639 319.273 68.394 319.762 68.086 C 319.801 68.339 319.586 68.656 319.086 68.928 Z" transform="matrix(1, 0, 0, 1, 0, 7.105427357601002e-15)"/>
  <path fill="#A94245" opacity="1.000000" stroke="none" d="M 321.07 67.973 C 321.008 67.667 321.235 67.418 321.712 67.105 C 321.761 67.371 321.56 67.701 321.07 67.973 Z" transform="matrix(1, 0, 0, 1, 0, 7.105427357601002e-15)"/>
  <path fill="#A94245" opacity="1.000000" stroke="none" d="M 516.191 23.411 C 516.408 23.222 516.841 23.287 517.49 23.612 C 517.273 23.803 516.841 23.734 516.191 23.411 Z" transform="matrix(1, 0, 0, 1, 0, 7.105427357601002e-15)"/>
  <path fill="#A94245" opacity="1.000000" stroke="none" d="M 519.195 24.397 C 519.41 24.21 519.839 24.278 520.483 24.603 C 520.268 24.791 519.838 24.722 519.195 24.397 Z" transform="matrix(1, 0, 0, 1, 0, 7.105427357601002e-15)"/>
  <path fill="#BD4F52" opacity="1.000000" stroke="none" d="M 263.624 44.309 C 263.82 44.267 264.042 44.46 264.115 44.772 C 263.966 44.891 263.648 44.544 263.624 44.309 Z" transform="matrix(1, 0, 0, 1, 0, 7.105427357601002e-15)"/>
  <path fill="#BD4F52" opacity="1.000000" stroke="none" d="M 261.811 41.154 C 262.051 41.129 262.313 41.377 262.568 41.906 C 262.319 41.934 262.075 41.681 261.811 41.154 Z" transform="matrix(1, 0, 0, 1, 0, 7.105427357601002e-15)"/>
  <path fill="#BC575A" opacity="1.000000" stroke="none" d="M 294.436 39.304 C 294.257 39.099 294.307 38.687 294.618 38.086 C 294.808 38.297 294.738 38.697 294.436 39.304 Z" transform="matrix(1, 0, 0, 1, 0, 7.105427357601002e-15)"/>
  <path fill="#A94245" opacity="1.000000" stroke="none" d="M 537.952 27.945 C 537.935 27.691 538.198 27.427 538.751 27.195 C 538.771 27.463 538.501 27.699 537.952 27.945 Z" transform="matrix(1, 0, 0, 1, 0, 7.105427357601002e-15)"/>
  <path fill="#A94245" opacity="1.000000" stroke="none" d="M 522.19 25.414 C 522.403 25.226 522.834 25.287 523.482 25.605 C 523.268 25.795 522.839 25.729 522.19 25.414 Z" transform="matrix(1, 0, 0, 1, 0, 7.105427357601002e-15)"/>
  <path fill="#BC575A" opacity="1.000000" stroke="none" d="M 300.489 25.973 C 300.18 25.913 300.079 25.708 299.902 25.17 C 299.826 24.837 299.82 24.844 299.82 24.844 C 299.992 24.839 300.165 24.835 300.595 24.84 C 300.801 25.176 300.749 25.502 300.489 25.973 Z" transform="matrix(1, 0, 0, 1, 0, 7.105427357601002e-15)"/>
  <path fill="#BD4F52" opacity="1.000000" stroke="none" d="M 275.876 50.078 C 276.606 51.008 277.302 52.383 278.422 54.032 C 278.889 54.501 278.932 54.697 278.975 54.892 C 278.03 55.092 277.083 55.294 275.998 55.209 C 275.854 53.456 275.848 51.989 275.876 50.078 Z" transform="matrix(1, 0, 0, 1, 0, 7.105427357601002e-15)"/>
  <path fill="#BE3E40" opacity="1.000000" stroke="none" d="M 278.99 21.798 C 278.949 21.374 278.908 20.952 279.366 20.176 C 283.42 19.79 286.974 19.755 290.527 19.72 C 287.783 28.236 285.011 36.741 282.354 45.284 C 282.149 45.943 282.762 46.859 283.346 47.682 C 282.673 48.445 281.648 49.182 280.219 49.649 C 279.797 49.198 279.779 49.016 279.774 48.519 C 279.568 47.426 279.349 46.647 279.13 45.868 C 279.141 39.51 279.152 33.151 279.382 26.069 C 279.397 24.163 279.194 22.98 278.99 21.798 Z" transform="matrix(1, 0, 0, 1, 0, 7.105427357601002e-15)"/>
  <path fill="#BE3E40" opacity="1.000000" stroke="none" d="M 284.074 47.802 C 284.522 46.24 285.376 44.715 286.492 42.994 C 286.403 44.663 288.193 47.501 284.074 47.802 Z" transform="matrix(1, 0, 0, 1, 0, 7.105427357601002e-15)"/>
  <path fill="#BE3E40" opacity="1.000000" stroke="none" d="M 288.431 38.63 C 288.734 39.582 288.782 40.789 288.83 42.444 C 288.36 42.885 287.89 42.877 287.067 42.84 C 287.202 41.502 287.689 40.193 288.431 38.63 Z" transform="matrix(1, 0, 0, 1, 0, 7.105427357601002e-15)"/>
  <path fill="#BD4F52" opacity="1.000000" stroke="none" d="M 279.761 48.834 C 279.779 49.016 279.797 49.198 279.836 49.653 C 279.848 50.671 279.839 51.417 279.565 52.536 C 279.126 52.908 278.951 52.904 278.776 52.9 C 278.78 51.839 278.785 50.779 279.066 49.302 C 279.342 48.888 279.761 48.834 279.761 48.834 Z" transform="matrix(1, 0, 0, 1, 0, 7.105427357601002e-15)"/>
  <path fill="#BE3E40" opacity="1.000000" stroke="none" d="M 278.702 53.102 C 278.951 52.904 279.126 52.908 279.562 52.909 C 279.687 53.45 279.55 53.994 279.195 54.714 C 278.932 54.697 278.889 54.501 278.765 54.019 C 278.684 53.731 278.627 53.305 278.702 53.102 Z" transform="matrix(1, 0, 0, 1, 0, 7.105427357601002e-15)"/>
  <path fill="#BE3E40" opacity="1.000000" stroke="none" d="M 287.699 54.027 C 287.876 53.951 287.858 54.441 287.852 54.687 C 287.669 54.763 287.478 54.606 287.328 54.415 C 287.303 54.382 287.453 54.21 287.699 54.027 Z" transform="matrix(1, 0, 0, 1, 0, 7.105427357601002e-15)"/>
  <path fill="#BC575A" opacity="1.000000" stroke="none" d="M 289.412 35.751 C 289.533 36.175 289.423 36.833 289.032 37.688 C 288.894 37.253 289.038 36.62 289.412 35.751 Z" transform="matrix(1, 0, 0, 1, 0, 7.105427357601002e-15)"/>
  <path fill="#BD6E70" opacity="1.000000" stroke="none" d="M 278.914 22.203 C 279.194 22.98 279.397 24.163 279.413 25.602 C 279.097 24.777 278.967 23.692 278.914 22.203 Z" transform="matrix(1, 0, 0, 1, 0, 7.105427357601002e-15)"/>
  <path fill="#BD6E70" opacity="1.000000" stroke="none" d="M 279.774 48.519 C 279.761 48.834 279.342 48.888 279.133 48.909 C 278.912 48.156 278.901 47.383 279.01 46.238 C 279.349 46.647 279.568 47.426 279.774 48.519 Z" transform="matrix(1, 0, 0, 1, 0, 7.105427357601002e-15)"/>
  <path fill="#BC575A" opacity="1.000000" stroke="none" d="M 299.829 24.835 C 299.714 24.696 299.595 24.559 299.477 24.423 C 299.558 24.473 299.638 24.523 299.77 24.709 C 299.82 24.844 299.826 24.837 299.829 24.835 Z" transform="matrix(1, 0, 0, 1, 0, 7.105427357601002e-15)"/>
  <path fill="currentColor" opacity="1.000000" stroke="none" d="M 359.173 261.173 C 354.812 252.523 350.629 244.199 341.462 238.416 C 351.056 236.692 359.479 235.284 367.856 233.64 C 375.331 232.173 382.737 230.338 390.221 228.917 C 391.675 228.642 394.269 229.021 394.781 229.957 C 400.765 240.902 404.523 252.276 399.364 264.727 C 396.127 272.541 390.576 277.679 381.968 278.553 C 373.36 279.428 367.444 274.962 363.086 267.98 C 361.768 265.867 360.606 263.653 359.173 261.173 Z" transform="matrix(1, 0, 0, 1, 0, 7.105427357601002e-15)"/>
  <path fill="currentColor" opacity="1.000000" stroke="none" d="M 321.367 310.492 C 316.743 307.168 312.454 304.038 308.025 300.805 C 306.131 302.498 304.151 305.689 301.788 306.006 C 299.092 306.367 296.055 304.167 291.742 302.544 C 302.524 297.399 304.789 289.186 303.377 280.112 C 298.629 277.861 293.807 276.145 289.636 273.424 C 286.086 271.109 283.679 267.285 284.909 262.66 C 286.077 258.267 290.128 257.166 293.916 256.717 C 301.16 255.857 308.478 254.887 315.737 255.072 C 324.752 255.3 327.835 261.718 322.391 268.952 C 319.428 272.891 314.903 275.645 310.108 279.772 C 310.526 282.712 310.969 287.327 311.96 291.82 C 312.242 293.099 314.012 294.179 315.287 295.084 C 322.907 300.504 330.583 305.846 338.24 311.215 C 337.97 311.886 337.701 312.558 337.431 313.23 C 332.189 312.382 326.945 311.534 321.367 310.492 Z" transform="matrix(1, 0, 0, 1, 0, 7.105427357601002e-15)"/>
  <path fill="currentColor" opacity="1.000000" stroke="none" d="M 207.664 253.741 C 205.22 252.263 202.899 251.186 201.059 249.562 C 200.24 248.84 200.057 246.964 200.239 245.707 C 200.33 245.083 201.895 244.241 202.798 244.235 C 218.066 244.144 233.335 244.17 249.891 244.17 C 245.554 254.288 241.935 262.73 238.047 271.8 C 227.332 265.428 217.657 259.675 207.664 253.741 Z" transform="matrix(1, 0, 0, 1, 0, 7.105427357601002e-15)"/>
</svg>