<?xml version="1.0" encoding="utf-8"?>
<svg viewBox="0 0 1606 719" width="1606px" height="719px" xmlns="http://www.w3.org/2000/svg">
  <path fill="#34CFF3" opacity="1.000000" stroke="none" d="M 659.44 0 C 653.082 19.318 646.232 38.628 639.433 57.956 C 627.169 92.819 615.341 127.844 602.4 162.454 C 599.22 170.959 601.788 177.585 604.309 184.699 C 610.617 202.499 617.345 220.15 623.853 237.88 C 629.193 252.427 634.319 267.055 639.846 281.53 C 641.445 285.717 639.814 289.155 638.559 292.662 C 631.931 311.187 625.077 329.631 618.347 348.12 C 607.694 377.384 597.033 406.645 586.458 435.938 C 573.531 471.747 560.725 507.6 547.786 543.404 C 544.458 552.614 540.828 561.714 537.285 571 C 358.43 571 179.638 571 0.378 571 C -0.091 569.611 -0.091 568.222 0.199 566.753 C 0.955 566.041 1.616 565.476 1.86 564.767 C 12.896 532.73 23.918 500.689 34.887 468.629 C 39.409 455.412 43.808 442.153 48.233 429 C 50.806 429 52.801 429 54.797 429 C 183.43 429 312.062 429 440.695 429 C 441.861 429 443.18 429.345 444.157 428.916 C 445.544 428.307 447.302 427.388 447.821 426.149 C 451.004 418.553 454.021 410.881 456.839 403.141 C 470.58 365.397 484.236 327.623 497.935 289.865 C 499.112 286.622 500.731 284.673 504.953 284.857 C 515.064 285.299 525.207 285 535.879 285 C 532.851 277.956 529.893 271.334 527.142 264.626 C 516.553 238.804 505.892 213.008 495.637 187.053 C 494.184 183.377 492.356 182.951 489.147 182.958 C 457.322 183.027 425.497 183 393.672 183 C 391.931 183 390.19 183 387.973 183 C 396.804 168.489 405.402 154.637 413.723 140.619 C 422.891 125.174 431.769 109.591 437.298 92.32 C 439.266 86.174 439.615 80.46 435.877 75.12 C 430.1 66.867 424.534 58.38 417.932 50.819 C 412.559 44.666 406.009 39.463 399.61 34.3 C 385.413 22.845 370.159 13.032 352.801 7.022 C 344.966 4.31 336.881 2.319 328.909 0 C 438.93 0 548.951 0 659.44 0 Z"/>
  <path fill="#34CFF3" opacity="1.000000" stroke="none" d="M 924.44 0 C 918.373 18.053 911.827 36.102 905.304 54.16 C 892.312 90.132 879.268 126.085 866.366 162.09 C 853.465 198.092 840.76 234.164 827.879 270.173 C 815.924 303.596 803.901 336.994 791.812 370.368 C 784.57 390.362 777.145 410.289 769.525 431 C 771.841 431 773.575 431 775.31 431 C 850.795 431 926.28 430.983 1001.765 431.06 C 1004.959 431.063 1007.211 430.207 1009.589 427.954 C 1023.017 415.23 1036.645 402.718 1050.255 390.187 C 1051.803 388.761 1053.659 387.669 1056.017 385.952 C 1076.774 447.458 1097.474 508.794 1118.345 570.635 C 938.931 570.635 760.096 570.635 580.747 570.635 C 585.626 556.747 590.507 542.945 595.326 529.121 C 605.207 500.777 615.039 472.415 624.922 444.071 C 633.902 418.318 642.908 392.573 651.929 366.834 C 660.576 342.163 669.239 317.497 677.93 292.842 C 686.566 268.342 695.297 243.875 703.896 219.362 C 714.953 187.845 725.887 156.285 736.94 124.767 C 742.869 107.861 748.602 90.874 755.102 74.187 C 757.728 67.445 753.806 62.773 751.92 57.498 C 745.136 38.518 737.946 19.683 730.91 0.396 C 795.263 0 859.617 0 924.44 0 Z"/>
  <path fill="#34CFF3" opacity="1.000000" stroke="none" d="M 1605.909 570.6 C 1458.112 571 1310.315 571 1162.47 571 C 1152.919 543.441 1143.422 516.025 1133.915 488.612 C 1124.237 460.708 1114.597 432.792 1104.851 404.913 C 1097.341 383.431 1089.612 362.027 1082.125 340.538 C 1069.647 304.719 1057.333 268.843 1044.852 233.026 C 1038.969 216.142 1032.856 199.337 1026.74 182.197 C 1028.48 182.118 1029.779 182.008 1031.079 182.008 C 1075.571 181.999 1120.063 182.029 1164.555 181.94 C 1167.767 181.934 1169.329 182.547 1170.561 186.011 C 1183.055 221.134 1195.911 256.128 1208.531 291.206 C 1220.764 325.208 1232.819 359.274 1244.998 393.296 C 1249.237 405.14 1253.657 416.919 1257.897 428.763 C 1258.872 431.483 1260.006 433.088 1263.414 433.08 C 1313.071 432.956 1362.729 432.985 1412.386 432.97 C 1412.711 432.97 1413.036 432.855 1413.999 432.674 C 1410.872 423.535 1407.789 414.476 1404.673 405.429 C 1397.421 384.371 1390.577 363.155 1382.601 342.374 C 1380.558 337.052 1375.175 332.851 1370.866 328.602 C 1366.092 323.895 1360.69 319.831 1355.738 315.294 C 1345.987 306.356 1336.41 297.226 1326.655 288.292 C 1321.947 283.981 1316.974 279.959 1312.174 275.747 C 1310.893 274.624 1309.806 273.281 1308.63 272.039 C 1308.806 271.619 1308.983 271.199 1309.159 270.779 C 1372.148 270.779 1435.136 270.779 1498.602 270.779 C 1505.396 289.754 1512.435 309.453 1519.501 329.142 C 1531.82 363.468 1544.205 397.769 1556.471 432.113 C 1568.356 465.391 1580.126 498.711 1591.946 532.012 C 1595.941 543.266 1599.924 554.524 1603.958 565.764 C 1604.212 566.473 1604.863 567.04 1605.619 567.336 C 1605.909 568.067 1605.909 569.133 1605.909 570.6 Z"/>
  <path fill="#FA7298" opacity="1.000000" stroke="none" d="M 1404.44 0 C 1415.079 29.652 1425.262 59.3 1435.414 88.959 C 1441.175 105.791 1446.885 122.64 1452.721 139.783 C 1305.851 139.783 1159.33 139.783 1012.408 139.783 C 995.635 93.599 978.779 47.188 961.916 0.388 C 1109.263 0 1256.617 0 1404.44 0 Z"/>
  <path fill="#34CFF3" opacity="1.000000" stroke="none" d="M 296.44 0 C 297.494 0.773 297.912 1.911 298.688 2.264 C 311.313 8.01 319.198 17.946 321.294 31.298 C 322.543 39.251 321.601 47.779 320.348 55.848 C 316.803 78.661 307.775 99.845 299.891 121.365 C 291.069 145.447 282.446 169.603 273.932 193.796 C 263.81 222.559 253.933 251.409 243.882 280.198 C 233.935 308.689 223.911 337.153 213.905 365.623 C 211.282 373.086 208.703 380.568 205.852 387.944 C 205.362 389.214 203.713 390.192 202.387 390.921 C 201.62 391.344 200.431 391 199.431 391 C 155.785 391 112.14 391 68.494 391 C 66.717 391 64.939 391 62.707 391 C 69.584 371.624 76.292 352.807 82.944 333.971 C 94.979 299.889 106.95 265.784 119.009 231.71 C 129.936 200.833 140.908 169.972 151.928 139.129 C 159.69 117.405 167.623 95.743 175.308 73.993 C 176.092 71.773 176.461 68.874 175.726 66.734 C 170.647 51.939 165.235 37.257 159.905 22.548 C 157.271 15.277 154.587 8.025 151.917 0.383 C 199.93 0 247.951 0 296.44 0 Z"/>
  <path fill="#34CFF3" opacity="1.000000" stroke="none" d="M 1048.378 719 C 1047.909 694.528 1047.77 670.054 1048.023 645.584 C 1048.075 640.56 1047.278 636.517 1042.999 633.576 C 1040.861 632.107 1038.794 630.536 1036.694 629.011 C 1037.16 628.449 1037.627 627.887 1038.093 627.326 C 1051.461 627.326 1064.828 627.326 1078.464 627.326 C 1085.372 645.301 1092.362 663.491 1099.61 682.349 C 1103.164 674.143 1106.572 666.381 1109.892 658.582 C 1113.933 649.088 1117.825 639.53 1121.987 630.091 C 1122.559 628.793 1124.296 627.169 1125.53 627.138 C 1135.146 626.894 1144.771 627.003 1154.909 627.003 C 1154.909 657.581 1154.909 687.822 1154.909 718.531 C 1146.221 719 1137.534 719 1128.378 718.531 C 1127.909 705.284 1127.909 692.505 1127.909 679.727 C 1122.585 689.661 1118.305 699.723 1113.828 709.697 C 1113.231 711.027 1111.667 712.806 1110.492 712.851 C 1103.059 713.139 1095.608 712.997 1088.239 712.997 C 1083.94 702.611 1079.789 692.579 1075.638 682.548 C 1075.395 682.615 1075.152 682.682 1074.909 682.748 C 1074.909 694.832 1074.909 706.916 1074.909 719 C 1066.221 719 1057.534 719 1048.378 719 Z"/>
  <path fill="#34CFF3" opacity="1.000000" stroke="none" d="M 207.378 719 C 206.909 694.17 206.758 669.338 207.034 644.511 C 207.091 639.435 206.071 635.549 201.966 632.479 C 200.334 631.259 199.06 629.563 196.881 627.32 C 210.496 627.32 222.875 627.32 235.715 627.32 C 235.715 638.254 235.715 649.324 235.715 660.694 C 246.231 660.694 256.294 660.694 266.634 660.694 C 266.634 654.613 266.634 648.551 266.634 642.191 C 258.914 642.191 251.3 642.191 243.298 642.191 C 243.298 637.189 243.298 632.454 243.298 627.357 C 260.793 627.357 278.523 627.357 296.909 627.357 C 296.909 634.799 296.909 642.393 296.909 649.987 C 296.909 652.82 296.852 655.654 296.922 658.486 C 297.045 663.501 297.724 668.69 293.32 670.419 C 294.323 674.55 295.645 677.791 295.801 681.088 C 296.147 688.404 295.625 695.763 296.006 703.075 C 296.275 708.245 295.305 712.468 290.906 715.59 C 289.854 716.336 289.125 717.537 288.578 718.764 C 261.888 719 234.867 719 207.378 719 M 236.011 678.771 C 236.011 686.7 236.011 694.63 236.011 702.777 C 246.381 702.777 256.422 702.777 266.686 702.777 C 266.686 694.523 266.686 686.478 266.686 678.099 C 256.545 678.099 246.621 678.099 236.011 678.771 Z"/>
  <path fill="#34CFF3" opacity="1.000000" stroke="none" d="M 497.378 719 C 496.909 693.668 496.72 668.333 497.063 643.006 C 497.135 637.696 494.792 634.769 491.075 632.027 C 489.54 630.895 488.148 629.57 485.696 627.487 C 499.787 627.487 512.581 627.487 525.822 627.487 C 525.822 638.341 525.822 649.414 525.822 660.739 C 536.324 660.739 546.387 660.739 556.68 660.739 C 556.68 654.643 556.68 648.696 556.68 642.276 C 549.066 642.276 541.326 642.276 533.251 642.276 C 533.251 637.085 533.251 632.354 533.251 627.31 C 550.55 627.31 567.947 627.31 585.903 627.31 C 585.903 639.921 586.056 652.529 585.739 665.126 C 585.691 667.037 583.463 668.893 581.866 671.354 C 587.432 674.311 585.83 679.94 585.892 685.08 C 585.965 691.079 585.611 697.099 585.999 703.073 C 586.335 708.246 585.3 712.467 580.903 715.589 C 579.852 716.336 579.123 717.537 578.578 718.764 C 551.888 719 524.867 719 497.378 719 M 525.907 682.641 C 525.907 689.376 525.907 696.112 525.907 702.649 C 536.658 702.649 546.702 702.649 556.552 702.649 C 556.552 694.246 556.552 686.197 556.552 678.001 C 547.232 678.001 538.266 678.13 529.307 677.929 C 526.276 677.861 525.528 679.051 525.907 682.641 Z"/>
  <path fill="#34CFF3" opacity="1.000000" stroke="none" d="M 1218.378 719 C 1217.909 694.196 1217.773 669.39 1218.023 644.588 C 1218.074 639.566 1217.284 635.515 1213.004 632.577 C 1211.27 631.387 1209.6 630.103 1207.901 628.862 C 1208.292 628.242 1208.682 627.622 1209.072 627.002 C 1216.947 627.002 1224.822 627.002 1232.697 627.002 C 1247.59 627.002 1247.258 627.2 1255.055 640.271 C 1263.742 654.836 1273.114 668.993 1282.722 684.171 C 1282.722 664.73 1282.722 646.12 1282.722 627.259 C 1291.981 627.259 1300.708 627.259 1309.909 627.259 C 1309.909 657.577 1309.909 687.82 1309.909 718.531 C 1298.555 719 1287.201 719 1275.712 718.744 C 1265.242 701.492 1254.907 684.496 1243.909 666.409 C 1243.909 684.846 1243.909 701.923 1243.909 719 C 1235.555 719 1227.201 719 1218.378 719 Z"/>
  <path fill="#34CFF3" opacity="1.000000" stroke="none" d="M 1317.378 719 C 1316.909 688.534 1316.909 658.068 1316.909 627.302 C 1346.24 627.302 1375.301 627.302 1404.635 627.302 C 1404.635 638.323 1404.635 649.387 1404.635 660.726 C 1394.843 660.726 1385.116 660.726 1375.095 660.726 C 1375.095 655 1375.095 649.384 1375.095 643.386 C 1364.42 643.386 1354.023 643.386 1343.266 643.386 C 1343.266 662.885 1343.266 682.611 1343.266 702.669 C 1354.18 702.669 1365.242 702.669 1376.904 702.669 C 1376.904 697.472 1377.04 692.2 1376.804 686.945 C 1376.748 685.698 1375.659 684.291 1374.681 683.327 C 1369.966 678.682 1365.126 674.162 1360.331 669.598 C 1360.547 669.223 1360.762 668.848 1360.978 668.473 C 1375.442 668.473 1389.905 668.473 1404.909 668.473 C 1404.909 684.866 1404.909 701.464 1404.909 718.531 C 1375.888 719 1346.867 719 1317.378 719 Z"/>
  <path fill="#34CFF3" opacity="1.000000" stroke="none" d="M 848.378 719 C 847.909 694.357 847.721 669.711 848.055 645.072 C 848.128 639.615 847.045 635.426 842.636 632.214 C 840.931 630.971 839.297 629.63 837.63 628.334 C 837.907 627.975 838.183 627.617 838.459 627.258 C 870.794 627.258 903.129 627.258 935.686 627.258 C 935.686 636.021 935.686 644.63 935.686 653.62 C 926.094 653.62 916.365 653.62 906.183 653.62 C 906.183 650.486 906.183 647.084 906.183 643.341 C 895.347 643.341 884.953 643.341 874.232 643.341 C 874.232 662.944 874.232 682.66 874.232 702.689 C 885.216 702.689 896.272 702.689 907.904 702.689 C 907.904 697.449 908.04 692.177 907.803 686.921 C 907.747 685.676 906.646 684.276 905.668 683.31 C 900.96 678.664 896.13 674.141 891.343 669.575 C 891.555 669.206 891.766 668.837 891.977 668.469 C 906.434 668.469 920.89 668.469 935.909 668.469 C 935.909 684.887 935.909 701.475 935.909 718.531 C 906.888 719 877.867 719 848.378 719 Z"/>
  <path fill="#34CFF3" opacity="1.000000" stroke="none" d="M 942.378 719 C 945.063 708.356 948.123 697.682 951.395 687.074 C 956.142 671.683 961.099 656.356 965.776 640.943 C 966.169 639.649 965.555 637.554 964.65 636.456 C 962.191 633.472 959.325 630.825 955.607 627.002 C 960.868 627.002 964.61 627.002 968.352 627.002 C 984.327 627.002 1000.303 627.095 1016.277 626.93 C 1019.825 626.894 1021.181 627.763 1022.07 631.542 C 1027.727 655.586 1033.83 679.525 1039.726 703.513 C 1040.919 708.369 1041.853 713.29 1042.908 718.59 C 1033.888 719 1024.867 719 1015.697 718.655 C 1009.904 693.258 1004.26 668.206 998.638 643.252 C 990.271 642.701 990.244 642.693 987.958 650.049 C 987.047 652.981 986.274 655.956 985.454 658.916 C 983.832 664.768 982.222 670.622 980.461 677.002 C 985.892 677.002 990.541 676.875 995.175 677.086 C 996.421 677.142 998.473 678.002 998.701 678.873 C 1000.045 684.02 1000.96 689.28 1002.108 694.935 C 992.589 694.935 983.47 694.935 974.437 694.935 C 972.195 703.202 970.052 711.101 967.909 719 C 959.555 719 951.201 719 942.378 719 Z"/>
  <path fill="#34CFF3" opacity="1.000000" stroke="none" d="M 356.378 719 C 355.909 694.353 355.794 669.704 356.011 645.059 C 356.052 640.402 355.179 636.768 351.37 633.861 C 349.227 632.226 347.498 630.05 344.782 627.311 C 359.165 627.311 372.204 627.311 385.701 627.311 C 385.701 651.937 385.701 676.655 385.701 701.827 C 403.872 701.827 421.595 701.827 439.909 701.827 C 439.909 707.535 439.909 712.8 439.909 718.532 C 412.221 719 384.534 719 356.378 719 Z"/>
  <path fill="#34CFF3" opacity="1.000000" stroke="none" d="M 646.378 719 C 645.909 694.529 645.772 670.058 646.023 645.59 C 646.074 640.57 645.287 636.521 641.004 633.581 C 638.868 632.114 636.803 630.542 634.706 629.018 C 635.174 628.455 635.642 627.891 636.11 627.327 C 649.144 627.327 662.178 627.327 675.643 627.327 C 675.643 651.862 675.643 676.575 675.643 701.735 C 693.78 701.735 711.498 701.735 730.28 701.735 C 729.796 707.532 729.354 712.835 728.91 718.569 C 701.555 719 674.201 719 646.378 719 Z"/>
  <path fill="#34CFF3" opacity="1.000000" stroke="none" d="M 601.378 719 C 600.909 694.216 600.732 669.429 601.05 644.649 C 601.118 639.345 599.859 635.347 595.674 632.313 C 594.075 631.154 592.264 630.289 590.55 629.29 C 591.051 628.659 591.552 628.029 592.052 627.398 C 604.848 627.398 617.644 627.398 630.909 627.398 C 630.909 657.618 630.909 687.84 630.909 718.531 C 621.221 719 611.534 719 601.378 719 Z"/>
  <path fill="#34CFF3" opacity="1.000000" stroke="none" d="M 1172.378 719 C 1171.909 694.217 1171.733 669.432 1172.05 644.653 C 1172.118 639.352 1170.866 635.35 1166.678 632.316 C 1165.079 631.157 1163.272 630.286 1161.559 629.283 C 1162.056 628.656 1162.553 628.028 1163.05 627.4 C 1175.844 627.4 1188.638 627.4 1201.909 627.4 C 1201.909 657.622 1201.909 687.842 1201.909 718.531 C 1192.221 719 1182.534 719 1172.378 719 Z"/>
  <path fill="#34CFF3" opacity="1.000000" stroke="none" d="M 740.378 719 C 739.909 694.375 739.694 669.748 740.07 645.129 C 740.157 639.425 738.719 635.286 734.346 631.888 C 732.978 630.824 731.906 629.38 730.012 627.387 C 743.862 627.387 756.665 627.387 769.909 627.387 C 769.909 657.601 769.909 687.832 769.909 718.531 C 760.221 719 750.534 719 740.378 719 Z"/>
  <path fill="#34CFF3" opacity="1.000000" stroke="none" d="M 450.378 719 C 449.909 694.212 449.73 669.421 450.053 644.638 C 450.122 639.324 448.836 635.341 444.663 632.305 C 443.067 631.143 441.253 630.281 439.538 629.283 C 440.04 628.653 440.541 628.023 441.043 627.393 C 453.842 627.393 466.64 627.393 479.909 627.393 C 479.909 657.61 479.909 687.837 479.909 718.531 C 470.221 719 460.534 719 450.378 719 Z"/>
  <path fill="#34CFF3" opacity="1.000000" stroke="none" d="M 312.378 719 C 311.909 694.387 311.774 669.773 312.024 645.162 C 312.074 640.28 311.04 636.497 307.064 633.645 C 304.944 632.125 302.85 630.57 300.744 629.03 C 301.182 628.477 301.62 627.924 302.058 627.37 C 314.857 627.37 327.655 627.37 340.909 627.37 C 340.909 657.627 340.909 687.845 340.909 718.531 C 331.555 719 322.201 719 312.378 719 Z"/>
</svg>