<svg version="1.1" id="Layer_1" xmlns="http://www.w3.org/2000/svg" xmlns:xlink="http://www.w3.org/1999/xlink" x="0px" y="0px"
	 width="100%" viewBox="0 0 1606 719" enable-background="new 0 0 1606 719" xml:space="preserve">
<path fill="#000000" opacity="1.000000" stroke="none" 
	d="
M1406.000000,1.000000 
	C1472.961792,1.000000 1539.923706,1.000000 1607.000000,1.000000 
	C1607.000000,189.687546 1607.000000,378.375122 1606.709961,567.867615 
	C1605.953613,568.039551 1605.303345,567.472595 1605.048828,566.763611 
	C1601.015015,555.523682 1597.031982,544.265625 1593.037231,533.011719 
	C1581.216675,499.710571 1569.446533,466.391418 1557.561523,433.113342 
	C1545.295776,398.769165 1532.911133,364.467499 1520.592041,330.142365 
	C1513.525513,310.453094 1506.486572,290.753998 1499.692993,271.778961 
	C1436.227417,271.778961 1373.238892,271.778961 1310.250488,271.778961 
	C1310.073853,272.199127 1309.897339,272.619293 1309.720825,273.039459 
	C1310.896851,274.281250 1311.984497,275.623749 1313.264648,276.746948 
	C1318.065308,280.959320 1323.037964,284.980774 1327.745972,289.292419 
	C1337.501221,298.226440 1347.077515,307.355835 1356.829346,316.293579 
	C1361.780518,320.831482 1367.182861,324.894623 1371.957275,329.602478 
	C1376.266113,333.851196 1381.648804,338.051880 1383.691528,343.373871 
	C1391.667603,364.155029 1398.512329,385.370605 1405.764282,406.429321 
	C1408.879883,415.476349 1411.962769,424.534668 1415.089966,433.673553 
	C1414.126953,433.855225 1413.802124,433.970032 1413.477417,433.970154 
	C1363.819702,433.985443 1314.161865,433.956024 1264.504517,434.079834 
	C1261.097168,434.088318 1259.962524,432.483368 1258.988403,429.762665 
	C1254.748413,417.919037 1250.328491,406.139771 1246.088623,394.296082 
	C1233.909668,360.274475 1221.854980,326.208252 1209.621948,292.206177 
	C1197.001587,257.127808 1184.145996,222.133774 1171.652100,187.010757 
	C1170.420166,183.547455 1168.857910,182.934067 1165.645996,182.940430 
	C1121.154053,183.028671 1076.661987,182.998611 1032.169922,183.007538 
	C1030.870483,183.007797 1029.571045,183.117966 1027.831299,183.196854 
	C1033.947144,200.337479 1040.059570,217.141830 1045.943237,234.025925 
	C1058.424438,269.843262 1070.737549,305.719238 1083.216064,341.537537 
	C1090.702515,363.026886 1098.432251,384.431335 1105.941772,405.912659 
	C1115.687866,433.792084 1125.328247,461.708435 1135.005615,489.611786 
	C1144.512939,517.024597 1154.009766,544.440979 1163.561157,572.000000 
	C1311.405640,572.000000 1459.202759,572.000000 1607.000000,572.000000 
	C1607.000000,621.271423 1607.000000,670.542908 1607.000000,720.000000 
	C1540.312500,720.000000 1473.624878,720.000000 1406.468750,719.531372 
	C1406.000122,702.464233 1406.000122,685.865845 1406.000122,669.472900 
	C1390.996338,669.472900 1376.532715,669.472900 1362.069092,669.472900 
	C1361.853271,669.847900 1361.637573,670.222961 1361.421875,670.597961 
	C1366.217407,675.162170 1371.057129,679.681519 1375.772339,684.327393 
	C1376.750488,685.291138 1377.839355,686.698486 1377.895386,687.945435 
	C1378.131104,693.200256 1377.995117,698.471680 1377.995117,703.669434 
	C1366.332520,703.669434 1355.270874,703.669434 1344.356689,703.669434 
	C1344.356689,683.611084 1344.356689,663.884827 1344.356689,644.385620 
	C1355.113892,644.385620 1365.511475,644.385620 1376.186279,644.385620 
	C1376.186279,650.384460 1376.186279,656.000000 1376.186279,661.726440 
	C1386.207275,661.726440 1395.934082,661.726440 1405.725952,661.726440 
	C1405.725952,650.387207 1405.725952,639.323425 1405.725952,628.302246 
	C1376.391968,628.302246 1347.331421,628.302246 1318.000000,628.302246 
	C1318.000000,659.067993 1318.000000,689.533997 1318.000000,720.000000 
	C1315.958374,720.000000 1313.916626,720.000000 1311.437378,719.531372 
	C1310.999756,688.820007 1310.999756,658.577271 1310.999756,628.258789 
	C1301.798706,628.258789 1293.071533,628.258789 1283.812500,628.258789 
	C1283.812500,647.119873 1283.812500,665.730103 1283.812500,685.171265 
	C1274.204590,669.992676 1264.833252,655.836060 1256.145996,641.271484 
	C1248.349243,628.199707 1248.681030,628.001770 1233.788208,628.001770 
	C1225.913330,628.001770 1218.038330,628.001770 1210.163452,628.001770 
	C1209.773071,628.621887 1209.382568,629.242004 1208.992188,629.862122 
	C1210.691284,631.103271 1212.361206,632.387085 1214.095215,633.577271 
	C1218.374878,636.514648 1219.164795,640.566223 1219.114136,645.587708 
	C1218.863525,670.389648 1219.000000,695.195496 1219.000000,720.000000 
	C1213.977905,720.000000 1208.955811,720.000000 1203.466797,719.531372 
	C1203.000000,688.842224 1203.000000,658.621826 1203.000000,628.400391 
	C1189.729370,628.400391 1176.935425,628.400391 1164.141357,628.400391 
	C1163.644287,629.028015 1163.147217,629.655640 1162.650146,630.283264 
	C1164.362549,631.285583 1166.169678,632.157043 1167.768799,633.315552 
	C1171.957397,636.349854 1173.208618,640.351685 1173.140747,645.652710 
	C1172.823730,670.431641 1173.000000,695.216980 1173.000000,720.000000 
	C1167.645020,720.000000 1162.290161,720.000000 1156.467529,719.531372 
	C1155.999878,688.822021 1155.999878,658.581299 1155.999878,628.002930 
	C1145.861572,628.002930 1136.237061,627.893860 1126.621460,628.137817 
	C1125.387085,628.169128 1123.650024,629.793396 1123.078003,631.090759 
	C1118.915527,640.530029 1115.024170,650.088257 1110.983154,659.581665 
	C1107.662964,667.381348 1104.254639,675.143433 1100.700562,683.349304 
	C1093.453491,664.491089 1086.463257,646.301208 1079.555420,628.325684 
	C1065.918823,628.325684 1052.551514,628.325684 1039.184082,628.325684 
	C1038.717773,628.887390 1038.251343,629.449097 1037.785034,630.010803 
	C1039.884521,631.535889 1041.952393,633.106934 1044.090332,634.576111 
	C1048.369385,637.516602 1049.166138,641.560425 1049.114258,646.583679 
	C1048.861450,671.053589 1049.000000,695.527527 1049.000000,720.000000 
	C1047.611084,720.000000 1046.222168,720.000000 1044.415771,719.590454 
	C1042.944458,714.289795 1042.010132,709.369385 1040.816528,704.512573 
	C1034.920898,680.524536 1028.817871,656.586060 1023.160828,632.542297 
	C1022.271606,628.763062 1020.916443,627.893616 1017.367981,627.930176 
	C1001.394470,628.094727 985.418335,628.001892 969.443115,628.001892 
	C965.701172,628.001892 961.959167,628.001953 956.698303,628.001953 
	C960.416260,631.824524 963.282471,634.472168 965.741089,637.455688 
	C966.645813,638.553589 967.259583,640.648621 966.866821,641.943115 
	C962.190247,657.355652 957.232971,672.682678 952.485596,688.074219 
	C949.213684,698.682190 946.154358,709.355774 943.000000,720.000000 
	C941.285645,720.000000 939.571289,720.000000 937.428467,719.531372 
	C936.999939,702.474670 936.999939,685.886597 936.999939,669.468506 
	C921.980896,669.468506 907.524658,669.468506 893.068359,669.468506 
	C892.856995,669.837219 892.645630,670.205933 892.434265,670.574585 
	C897.220947,675.141113 902.051208,679.663513 906.758850,684.310120 
	C907.737305,685.275940 908.838257,686.676270 908.894409,687.920898 
	C909.131348,693.176575 908.994751,698.449097 908.994751,703.689270 
	C897.363098,703.689270 886.306885,703.689270 875.323425,703.689270 
	C875.323425,683.660400 875.323425,663.943604 875.323425,644.341309 
	C886.043945,644.341309 896.438477,644.341309 907.274292,644.341309 
	C907.274292,648.084106 907.274292,651.485779 907.274292,654.619507 
	C917.456421,654.619507 927.184631,654.619507 936.777344,654.619507 
	C936.777344,645.630066 936.777344,637.021423 936.777344,628.258057 
	C904.219788,628.258057 871.885132,628.258057 839.550415,628.258057 
	C839.274109,628.616577 838.997803,628.975098 838.721497,629.333557 
	C840.387939,630.629822 842.021729,631.971069 843.727295,633.213623 
	C848.136353,636.425903 849.219360,640.614563 849.145569,646.072083 
	C848.812195,670.710876 849.000000,695.356689 849.000000,720.000000 
	C823.312439,720.000000 797.624878,720.000000 771.468750,719.531372 
	C771.000122,688.831848 771.000122,658.601013 771.000122,628.386841 
	C757.755859,628.386841 744.952576,628.386841 731.102600,628.386841 
	C732.997253,630.379700 734.069214,631.824219 735.437256,632.887634 
	C739.809509,636.286255 741.247620,640.424622 741.160583,646.128967 
	C740.784912,670.747742 741.000000,695.375488 741.000000,720.000000 
	C737.638733,720.000000 734.277405,720.000000 730.458984,719.568970 
	C730.444641,713.835083 730.887390,708.532104 731.371460,702.734680 
	C712.589355,702.734680 694.870911,702.734680 676.734009,702.734680 
	C676.734009,677.575317 676.734009,652.862488 676.734009,628.327454 
	C663.268799,628.327454 650.234924,628.327454 637.201050,628.327454 
	C636.732910,628.890991 636.264771,629.454529 635.796631,630.018066 
	C637.893860,631.542358 639.958557,633.114075 642.095276,634.580872 
	C646.378296,637.521057 647.165100,641.570129 647.113586,646.589539 
	C646.862549,671.057495 647.000000,695.529480 647.000000,720.000000 
	C642.310730,720.000000 637.621521,720.000000 632.466064,719.531372 
	C631.999939,688.840393 631.999939,658.618103 631.999939,628.398071 
	C618.734863,628.398071 605.939148,628.398071 593.143433,628.398071 
	C592.642639,629.028625 592.141846,629.659180 591.641052,630.289673 
	C593.355286,631.288757 595.166443,632.154114 596.764893,633.312927 
	C600.950073,636.347046 602.209473,640.344788 602.141296,645.648804 
	C601.822815,670.429077 602.000000,695.215637 602.000000,720.000000 
	C594.979065,720.000000 587.958069,720.000000 580.137207,719.764465 
	C580.214172,718.536865 580.942505,717.335693 581.993713,716.589172 
	C586.390503,713.466614 587.425964,709.246277 587.090210,704.073059 
	C586.702454,698.098511 587.055847,692.078857 586.982971,686.080017 
	C586.920593,680.939880 588.523193,675.310669 582.957397,672.354492 
	C584.553833,669.892761 586.782471,668.036804 586.830444,666.126099 
	C587.146790,653.529480 586.993835,640.921021 586.993835,628.309509 
	C569.037781,628.309509 551.641418,628.309509 534.341919,628.309509 
	C534.341919,633.353699 534.341919,638.084717 534.341919,643.276489 
	C542.417297,643.276489 550.157166,643.276489 557.770874,643.276489 
	C557.770874,649.696228 557.770874,655.642578 557.770874,661.739380 
	C547.477905,661.739380 537.415405,661.739380 526.912720,661.739380 
	C526.912720,650.414001 526.912720,639.340698 526.912720,628.487244 
	C513.671814,628.487244 500.877625,628.487244 486.787292,628.487244 
	C489.239441,630.569824 490.631470,631.894836 492.165894,633.026794 
	C495.883331,635.769104 498.225555,638.696350 498.153656,644.005920 
	C497.810608,669.333313 498.000000,694.667969 498.000000,720.000000 
	C492.645081,720.000000 487.290131,720.000000 481.467499,719.531372 
	C480.999786,688.836548 480.999786,658.610413 480.999786,628.393005 
	C467.731354,628.393005 454.932861,628.393005 442.134338,628.393005 
	C441.632446,629.022949 441.130585,629.652893 440.628693,630.282837 
	C442.343719,631.281250 444.158264,632.142883 445.754456,633.304504 
	C449.927002,636.341187 451.213409,640.324158 451.144135,645.637512 
	C450.821014,670.421448 451.000336,695.211853 451.000000,720.000000 
	C447.969391,720.000000 444.938812,720.000000 441.453979,719.531921 
	C440.999756,713.799561 440.999756,708.535278 440.999756,702.827271 
	C422.686371,702.827271 404.962524,702.827271 386.791840,702.827271 
	C386.791840,677.655334 386.791840,652.937012 386.791840,628.310547 
	C373.294861,628.310547 360.256195,628.310547 345.872925,628.310547 
	C348.588806,631.050049 350.318359,633.225830 352.460632,634.860840 
	C356.269867,637.768066 357.142914,641.401794 357.101929,646.059143 
	C356.885040,670.704468 357.000061,695.352722 357.000000,720.000000 
	C352.310760,720.000000 347.621490,720.000000 342.465942,719.531372 
	C341.999603,688.844849 341.999603,658.627075 341.999603,628.370239 
	C328.746216,628.370239 315.947662,628.370239 303.149139,628.370239 
	C302.711090,628.923523 302.273041,629.476868 301.835022,630.030151 
	C303.940674,631.569641 306.034943,633.125061 308.154572,634.645142 
	C312.131042,637.497070 313.164703,641.279541 313.114990,646.162476 
	C312.864502,670.772827 312.999969,695.387085 313.000000,720.000000 
	C305.645752,720.000000 298.291504,720.000000 290.137817,719.764038 
	C290.215881,718.536621 290.945160,717.336304 291.996674,716.590027 
	C296.395599,713.468323 297.365814,709.244629 297.096558,704.075378 
	C296.715729,696.762878 297.238403,689.404358 296.892029,682.088440 
	C296.735931,678.791443 295.413757,675.549561 294.410797,671.418518 
	C298.814819,669.690247 298.136322,664.501221 298.012604,659.485535 
	C297.942780,656.654297 298.000000,653.819885 298.000000,650.986938 
	C298.000000,643.392761 298.000000,635.798584 298.000000,628.356812 
	C279.613831,628.356812 261.883820,628.356812 244.389252,628.356812 
	C244.389252,633.453552 244.389252,638.189148 244.389252,643.191040 
	C252.390991,643.191040 260.005188,643.191040 267.725037,643.191040 
	C267.725037,649.551147 267.725037,655.613098 267.725037,661.694336 
	C257.385101,661.694336 247.322495,661.694336 236.806183,661.694336 
	C236.806183,650.324402 236.806183,639.253540 236.806183,628.319580 
	C223.965881,628.319580 211.587341,628.319580 197.971649,628.319580 
	C200.150620,630.562866 201.425369,632.259277 203.056549,633.479065 
	C207.161591,636.548645 208.181564,640.435425 208.125107,645.511353 
	C207.848969,670.338257 208.000000,695.169983 208.000000,720.000000 
	C139.085114,720.000000 70.170242,720.000000 1.000000,720.000000 
	C1.000000,670.979431 1.000000,621.958374 1.468657,572.468750 
	C180.728928,572.000244 359.520538,572.000244 538.375610,572.000244 
	C541.918762,562.713989 545.548889,553.613708 548.876953,544.404175 
	C561.815857,508.599579 574.621765,472.746948 587.549011,436.938141 
	C598.123840,407.645447 608.785461,378.384064 619.438110,349.119507 
	C626.168091,330.630890 633.022278,312.187012 639.650024,293.661957 
	C640.904602,290.155151 642.535828,286.716827 640.937073,282.530121 
	C635.409729,268.055206 630.284058,253.427383 624.944092,238.880341 
	C618.435791,221.150406 611.707581,203.499207 605.399719,185.698685 
	C602.878723,178.584839 600.310852,171.959030 603.491089,163.453781 
	C616.432190,128.844482 628.260254,93.819313 640.524231,58.956455 
	C647.323364,39.628456 654.173035,20.318228 661.000000,0.999997 
	C684.354248,1.000000 707.708435,1.000000 731.531982,1.396465 
	C739.037476,20.682814 746.226685,39.518005 753.010986,58.497925 
	C754.896729,63.773411 758.819397,68.444977 756.193176,75.186989 
	C749.693298,91.873497 743.959717,108.860901 738.031128,125.766991 
	C726.978210,157.285141 716.044006,188.844864 704.987244,220.361633 
	C696.387634,244.874603 687.657471,269.341736 679.020996,293.841797 
	C670.329712,318.497192 661.667114,343.162750 653.020081,367.833710 
	C643.998657,393.572876 634.993042,419.317596 626.013245,445.071259 
	C616.130188,473.415222 606.298035,501.776917 596.416626,530.121460 
	C591.597534,543.945007 586.717041,557.747070 581.837708,571.634521 
	C761.187195,571.634521 940.022217,571.634521 1119.436035,571.634521 
	C1098.565430,509.793854 1077.864990,448.457642 1057.107544,386.952332 
	C1054.749512,388.668793 1052.894165,389.761108 1051.345947,391.186737 
	C1037.736450,403.717743 1024.107544,416.229950 1010.680054,428.954163 
	C1008.302246,431.207397 1006.049683,432.063324 1002.855774,432.060059 
	C927.370850,431.982666 851.885864,432.000000 776.400879,432.000000 
	C774.666260,432.000000 772.931702,432.000000 770.616028,432.000000 
	C778.236206,411.288910 785.661255,391.361542 792.903320,371.367859 
	C804.991882,337.993683 817.015137,304.595581 828.970093,271.173309 
	C841.850525,235.163788 854.556152,199.091675 867.457214,163.089569 
	C880.359070,127.085243 893.402893,91.131752 906.395447,55.159916 
	C912.917725,37.102066 919.464355,19.053020 926.000000,1.000000 
	C938.020874,1.000000 950.041809,1.000000 962.538086,1.388196 
	C979.869690,48.187717 996.725830,94.599045 1013.499268,140.782715 
	C1160.421021,140.782715 1306.941772,140.782715 1453.812134,140.782715 
	C1447.976196,123.640213 1442.265747,106.790955 1436.504517,89.959061 
	C1426.352783,60.300442 1416.169800,30.652449 1406.000000,1.000000 
z"/>
<path fill="#34CFF3" opacity="1.000000" stroke="none" 
	d="
M660.531372,0.999997 
	C654.173035,20.318228 647.323364,39.628456 640.524231,58.956455 
	C628.260254,93.819313 616.432190,128.844482 603.491089,163.453781 
	C600.310852,171.959030 602.878723,178.584839 605.399719,185.698685 
	C611.707581,203.499207 618.435791,221.150406 624.944092,238.880341 
	C630.284058,253.427383 635.409729,268.055206 640.937073,282.530121 
	C642.535828,286.716827 640.904602,290.155151 639.650024,293.661957 
	C633.022278,312.187012 626.168091,330.630890 619.438110,349.119507 
	C608.785461,378.384064 598.123840,407.645447 587.549011,436.938141 
	C574.621765,472.746948 561.815857,508.599579 548.876953,544.404175 
	C545.548889,553.613708 541.918762,562.713989 538.375610,572.000244 
	C359.520538,572.000244 180.728928,572.000244 1.468657,572.000122 
	C1.000000,570.611084 1.000000,569.222229 1.289921,567.752930 
	C2.046287,567.040527 2.707178,566.475586 2.951252,565.767029 
	C13.986815,533.730164 25.008934,501.688599 35.977955,469.628906 
	C40.500034,456.412018 44.898678,443.152893 49.324188,430.000000 
	C51.896622,430.000000 53.892437,430.000000 55.888256,430.000000 
	C184.520782,430.000000 313.153320,429.999969 441.785858,429.999939 
	C442.952209,429.999939 444.270508,430.345398 445.248444,429.916046 
	C446.634949,429.307220 448.392578,428.387939 448.911835,427.148895 
	C452.094971,419.553284 455.112213,411.880554 457.929901,404.140747 
	C471.670532,366.397461 485.326904,328.623474 499.026184,290.865143 
	C500.202911,287.621826 501.822083,285.673340 506.043701,285.857452 
	C516.154907,286.298553 526.298340,286.000000 536.969666,286.000000 
	C533.942078,278.955505 530.983948,272.333527 528.233398,265.626434 
	C517.643555,239.803802 506.982544,214.008270 496.727814,188.052628 
	C495.275452,184.376633 493.446625,183.951462 490.237610,183.958389 
	C458.412872,184.027130 426.587921,184.000000 394.763031,184.000000 
	C393.022064,184.000000 391.281067,184.000000 389.063629,184.000000 
	C397.895386,169.489456 406.493134,155.636642 414.813843,141.619354 
	C423.981964,126.174431 432.860382,110.590637 438.389282,93.320267 
	C440.356934,87.173874 440.705963,81.460220 436.967926,76.120041 
	C431.191101,67.867233 425.624939,59.380203 419.022858,51.819004 
	C413.650208,45.665836 407.100342,40.463219 400.700836,35.299740 
	C386.503815,23.844839 371.249939,14.032220 353.892059,8.022356 
	C346.056824,5.309548 337.971741,3.318506 330.000000,0.999998 
	C440.020905,1.000000 550.041809,1.000000 660.531372,0.999997 
z"/>
<path fill="#000000" opacity="1.000000" stroke="none" 
	d="
M329.531342,0.999998 
	C337.971741,3.318506 346.056824,5.309548 353.892059,8.022356 
	C371.249939,14.032220 386.503815,23.844839 400.700836,35.299740 
	C407.100342,40.463219 413.650208,45.665836 419.022858,51.819004 
	C425.624939,59.380203 431.191101,67.867233 436.967926,76.120041 
	C440.705963,81.460220 440.356934,87.173874 438.389282,93.320267 
	C432.860382,110.590637 423.981964,126.174431 414.813843,141.619354 
	C406.493134,155.636642 397.895386,169.489456 389.063629,184.000000 
	C391.281067,184.000000 393.022064,184.000000 394.763031,184.000000 
	C426.587921,184.000000 458.412872,184.027130 490.237610,183.958389 
	C493.446625,183.951462 495.275452,184.376633 496.727814,188.052628 
	C506.982544,214.008270 517.643555,239.803802 528.233398,265.626434 
	C530.983948,272.333527 533.942078,278.955505 536.969666,286.000000 
	C526.298340,286.000000 516.154907,286.298553 506.043701,285.857452 
	C501.822083,285.673340 500.202911,287.621826 499.026184,290.865143 
	C485.326904,328.623474 471.670532,366.397461 457.929901,404.140747 
	C455.112213,411.880554 452.094971,419.553284 448.911835,427.148895 
	C448.392578,428.387939 446.634949,429.307220 445.248444,429.916046 
	C444.270508,430.345398 442.952209,429.999939 441.785858,429.999939 
	C313.153320,429.999969 184.520782,430.000000 55.888256,430.000000 
	C53.892437,430.000000 51.896622,430.000000 49.324188,430.000000 
	C44.898678,443.152893 40.500034,456.412018 35.977955,469.628906 
	C25.008934,501.688599 13.986815,533.730164 2.951252,565.767029 
	C2.707178,566.475586 2.046287,567.040527 1.289921,567.336243 
	C1.000000,378.448334 1.000000,189.896683 1.000000,1.000000 
	C51.353703,1.000000 101.708191,1.000000 152.539185,1.382547 
	C155.677505,9.025356 158.362305,16.277292 160.996307,23.547634 
	C166.325500,38.257217 171.737564,52.938881 176.817215,67.734444 
	C177.551605,69.873505 177.183044,72.772537 176.398651,74.992630 
	C168.713837,96.742905 160.781204,118.405418 153.019257,140.128693 
	C141.998581,170.972122 131.026764,201.833160 120.099701,232.709900 
	C108.041130,266.783936 96.070496,300.889069 84.034561,334.971161 
	C77.382652,353.807312 70.675476,372.623993 63.797771,392.000000 
	C66.030235,392.000000 67.807564,392.000000 69.584885,392.000000 
	C113.230591,392.000000 156.876297,392.000031 200.522003,391.999939 
	C201.521515,391.999939 202.710831,392.343689 203.478424,391.921448 
	C204.803528,391.192474 206.452530,390.213684 206.943085,388.944489 
	C209.794052,381.568390 212.372849,374.086212 214.995758,366.623047 
	C225.001526,338.152863 235.026047,309.689178 244.972992,281.198425 
	C255.024063,252.409424 264.901093,223.559418 275.023407,194.795639 
	C283.537079,170.603043 292.160431,146.447098 300.982361,122.365463 
	C308.865936,100.845200 317.893829,79.660805 321.438599,56.847511 
	C322.692261,48.779343 323.633820,40.250542 322.385406,32.298214 
	C320.289307,18.946224 312.403564,9.009655 299.778900,3.264097 
	C299.003143,2.911052 298.584686,1.772876 298.000000,0.999999 
	C308.354218,1.000000 318.708466,1.000000 329.531342,0.999998 
z"/>
<path fill="#34CFF3" opacity="1.000000" stroke="none" 
	d="
M925.531372,1.000000 
	C919.464355,19.053020 912.917725,37.102066 906.395447,55.159916 
	C893.402893,91.131752 880.359070,127.085243 867.457214,163.089569 
	C854.556152,199.091675 841.850525,235.163788 828.970093,271.173309 
	C817.015137,304.595581 804.991882,337.993683 792.903320,371.367859 
	C785.661255,391.361542 778.236206,411.288910 770.616028,432.000000 
	C772.931702,432.000000 774.666260,432.000000 776.400879,432.000000 
	C851.885864,432.000000 927.370850,431.982666 1002.855774,432.060059 
	C1006.049683,432.063324 1008.302246,431.207397 1010.680054,428.954163 
	C1024.107544,416.229950 1037.736450,403.717743 1051.345947,391.186737 
	C1052.894165,389.761108 1054.749512,388.668793 1057.107544,386.952332 
	C1077.864990,448.457642 1098.565430,509.793854 1119.436035,571.634521 
	C940.022217,571.634521 761.187195,571.634521 581.837708,571.634521 
	C586.717041,557.747070 591.597534,543.945007 596.416626,530.121460 
	C606.298035,501.776917 616.130188,473.415222 626.013245,445.071259 
	C634.993042,419.317596 643.998657,393.572876 653.020081,367.833710 
	C661.667114,343.162750 670.329712,318.497192 679.020996,293.841797 
	C687.657471,269.341736 696.387634,244.874603 704.987244,220.361633 
	C716.044006,188.844864 726.978210,157.285141 738.031128,125.766991 
	C743.959717,108.860901 749.693298,91.873497 756.193176,75.186989 
	C758.819397,68.444977 754.896729,63.773411 753.010986,58.497925 
	C746.226685,39.518005 739.037476,20.682814 732.000610,1.396465 
	C796.354248,1.000000 860.708435,1.000000 925.531372,1.000000 
z"/>
<path fill="#34CFF3" opacity="1.000000" stroke="none" 
	d="
M1607.000000,571.600037 
	C1459.202759,572.000000 1311.405640,572.000000 1163.561157,572.000000 
	C1154.009766,544.440979 1144.512939,517.024597 1135.005615,489.611786 
	C1125.328247,461.708435 1115.687866,433.792084 1105.941772,405.912659 
	C1098.432251,384.431335 1090.702515,363.026886 1083.216064,341.537537 
	C1070.737549,305.719238 1058.424438,269.843262 1045.943237,234.025925 
	C1040.059570,217.141830 1033.947144,200.337479 1027.831299,183.196854 
	C1029.571045,183.117966 1030.870483,183.007797 1032.169922,183.007538 
	C1076.661987,182.998611 1121.154053,183.028671 1165.645996,182.940430 
	C1168.857910,182.934067 1170.420166,183.547455 1171.652100,187.010757 
	C1184.145996,222.133774 1197.001587,257.127808 1209.621948,292.206177 
	C1221.854980,326.208252 1233.909668,360.274475 1246.088623,394.296082 
	C1250.328491,406.139771 1254.748413,417.919037 1258.988403,429.762665 
	C1259.962524,432.483368 1261.097168,434.088318 1264.504517,434.079834 
	C1314.161865,433.956024 1363.819702,433.985443 1413.477417,433.970154 
	C1413.802124,433.970032 1414.126953,433.855225 1415.089966,433.673553 
	C1411.962769,424.534668 1408.879883,415.476349 1405.764282,406.429321 
	C1398.512329,385.370605 1391.667603,364.155029 1383.691528,343.373871 
	C1381.648804,338.051880 1376.266113,333.851196 1371.957275,329.602478 
	C1367.182861,324.894623 1361.780518,320.831482 1356.829346,316.293579 
	C1347.077515,307.355835 1337.501221,298.226440 1327.745972,289.292419 
	C1323.037964,284.980774 1318.065308,280.959320 1313.264648,276.746948 
	C1311.984497,275.623749 1310.896851,274.281250 1309.720825,273.039459 
	C1309.897339,272.619293 1310.073853,272.199127 1310.250488,271.778961 
	C1373.238892,271.778961 1436.227417,271.778961 1499.692993,271.778961 
	C1506.486572,290.753998 1513.525513,310.453094 1520.592041,330.142365 
	C1532.911133,364.467499 1545.295776,398.769165 1557.561523,433.113342 
	C1569.446533,466.391418 1581.216675,499.710571 1593.037231,533.011719 
	C1597.031982,544.265625 1601.015015,555.523682 1605.048828,566.763611 
	C1605.303345,567.472595 1605.953613,568.039551 1606.709961,568.336304 
	C1607.000000,569.066711 1607.000000,570.133362 1607.000000,571.600037 
z"/>
<path fill="#FA7298" opacity="1.000000" stroke="none" 
	d="
M1405.531372,1.000000 
	C1416.169800,30.652449 1426.352783,60.300442 1436.504517,89.959061 
	C1442.265747,106.790955 1447.976196,123.640213 1453.812134,140.782715 
	C1306.941772,140.782715 1160.421021,140.782715 1013.499268,140.782715 
	C996.725830,94.599045 979.869690,48.187717 963.006714,1.388196 
	C1110.354248,1.000000 1257.708496,1.000000 1405.531372,1.000000 
z"/>
<path fill="#34CFF3" opacity="1.000000" stroke="none" 
	d="
M297.531342,0.999999 
	C298.584686,1.772876 299.003143,2.911052 299.778900,3.264097 
	C312.403564,9.009655 320.289307,18.946224 322.385406,32.298214 
	C323.633820,40.250542 322.692261,48.779343 321.438599,56.847511 
	C317.893829,79.660805 308.865936,100.845200 300.982361,122.365463 
	C292.160431,146.447098 283.537079,170.603043 275.023407,194.795639 
	C264.901093,223.559418 255.024063,252.409424 244.972992,281.198425 
	C235.026047,309.689178 225.001526,338.152863 214.995758,366.623047 
	C212.372849,374.086212 209.794052,381.568390 206.943085,388.944489 
	C206.452530,390.213684 204.803528,391.192474 203.478424,391.921448 
	C202.710831,392.343689 201.521515,391.999939 200.522003,391.999939 
	C156.876297,392.000031 113.230591,392.000000 69.584885,392.000000 
	C67.807564,392.000000 66.030235,392.000000 63.797771,392.000000 
	C70.675476,372.623993 77.382652,353.807312 84.034561,334.971161 
	C96.070496,300.889069 108.041130,266.783936 120.099701,232.709900 
	C131.026764,201.833160 141.998581,170.972122 153.019257,140.128693 
	C160.781204,118.405418 168.713837,96.742905 176.398651,74.992630 
	C177.183044,72.772537 177.551605,69.873505 176.817215,67.734444 
	C171.737564,52.938881 166.325500,38.257217 160.996307,23.547634 
	C158.362305,16.277292 155.677505,9.025356 153.007843,1.382547 
	C201.020889,1.000000 249.041794,1.000000 297.531342,0.999999 
z"/>
<path fill="#34CFF3" opacity="1.000000" stroke="none" 
	d="
M1049.468628,720.000000 
	C1049.000000,695.527527 1048.861450,671.053589 1049.114258,646.583679 
	C1049.166138,641.560425 1048.369385,637.516602 1044.090332,634.576111 
	C1041.952393,633.106934 1039.884521,631.535889 1037.785034,630.010803 
	C1038.251343,629.449097 1038.717773,628.887390 1039.184082,628.325684 
	C1052.551514,628.325684 1065.918823,628.325684 1079.555420,628.325684 
	C1086.463257,646.301208 1093.453491,664.491089 1100.700562,683.349304 
	C1104.254639,675.143433 1107.662964,667.381348 1110.983154,659.581665 
	C1115.024170,650.088257 1118.915527,640.530029 1123.078003,631.090759 
	C1123.650024,629.793396 1125.387085,628.169128 1126.621460,628.137817 
	C1136.237061,627.893860 1145.861572,628.002930 1155.999878,628.002930 
	C1155.999878,658.581299 1155.999878,688.822021 1156.000000,719.531372 
	C1147.312378,720.000000 1138.624878,720.000000 1129.468628,719.531372 
	C1129.000000,706.283936 1129.000000,693.505249 1129.000000,680.726501 
	C1123.676270,690.660645 1119.396362,700.722961 1114.918945,710.696594 
	C1114.321655,712.026978 1112.758301,713.805725 1111.583252,713.851257 
	C1104.149658,714.139282 1096.699463,713.997375 1089.329590,713.997375 
	C1085.031250,703.610657 1080.879883,693.579407 1076.728638,683.548157 
	C1076.485718,683.614868 1076.242920,683.681519 1076.000000,683.748169 
	C1076.000000,695.832092 1076.000000,707.916077 1076.000000,720.000000 
	C1067.312378,720.000000 1058.624878,720.000000 1049.468628,720.000000 
z"/>
<path fill="#34CFF3" opacity="1.000000" stroke="none" 
	d="
M208.468658,720.000000 
	C208.000000,695.169983 207.848969,670.338257 208.125107,645.511353 
	C208.181564,640.435425 207.161591,636.548645 203.056549,633.479065 
	C201.425369,632.259277 200.150620,630.562866 197.971649,628.319580 
	C211.587341,628.319580 223.965881,628.319580 236.806183,628.319580 
	C236.806183,639.253540 236.806183,650.324402 236.806183,661.694336 
	C247.322495,661.694336 257.385101,661.694336 267.725037,661.694336 
	C267.725037,655.613098 267.725037,649.551147 267.725037,643.191040 
	C260.005188,643.191040 252.390991,643.191040 244.389252,643.191040 
	C244.389252,638.189148 244.389252,633.453552 244.389252,628.356812 
	C261.883820,628.356812 279.613831,628.356812 298.000000,628.356812 
	C298.000000,635.798584 298.000000,643.392761 298.000000,650.986938 
	C298.000000,653.819885 297.942780,656.654297 298.012604,659.485535 
	C298.136322,664.501221 298.814819,669.690247 294.410797,671.418518 
	C295.413757,675.549561 296.735931,678.791443 296.892029,682.088440 
	C297.238403,689.404358 296.715729,696.762878 297.096558,704.075378 
	C297.365814,709.244629 296.395599,713.468323 291.996674,716.590027 
	C290.945160,717.336304 290.215881,718.536621 289.669189,719.764038 
	C262.979095,720.000000 235.958206,720.000000 208.468658,720.000000 
M237.102005,679.770752 
	C237.102005,687.700439 237.102005,695.630127 237.102005,703.777222 
	C247.472275,703.777222 257.513214,703.777222 267.776917,703.777222 
	C267.776917,695.523010 267.776917,687.477844 267.776917,679.099426 
	C257.635590,679.099426 247.712372,679.099426 237.102005,679.770752 
z"/>
<path fill="#34CFF3" opacity="1.000000" stroke="none" 
	d="
M498.468658,720.000000 
	C498.000000,694.667969 497.810608,669.333313 498.153656,644.005920 
	C498.225555,638.696350 495.883331,635.769104 492.165894,633.026794 
	C490.631470,631.894836 489.239441,630.569824 486.787292,628.487244 
	C500.877625,628.487244 513.671814,628.487244 526.912720,628.487244 
	C526.912720,639.340698 526.912720,650.414001 526.912720,661.739380 
	C537.415405,661.739380 547.477905,661.739380 557.770874,661.739380 
	C557.770874,655.642578 557.770874,649.696228 557.770874,643.276489 
	C550.157166,643.276489 542.417297,643.276489 534.341919,643.276489 
	C534.341919,638.084717 534.341919,633.353699 534.341919,628.309509 
	C551.641418,628.309509 569.037781,628.309509 586.993835,628.309509 
	C586.993835,640.921021 587.146790,653.529480 586.830444,666.126099 
	C586.782471,668.036804 584.553833,669.892761 582.957397,672.354492 
	C588.523193,675.310669 586.920593,680.939880 586.982971,686.080017 
	C587.055847,692.078857 586.702454,698.098511 587.090210,704.073059 
	C587.425964,709.246277 586.390503,713.466614 581.993713,716.589172 
	C580.942505,717.335693 580.214172,718.536865 579.668701,719.764465 
	C552.979126,720.000000 525.958191,720.000000 498.468658,720.000000 
M526.998291,683.640869 
	C526.998291,690.376221 526.998291,697.111511 526.998291,703.649109 
	C537.749146,703.649109 547.792908,703.649109 557.642944,703.649109 
	C557.642944,695.245667 557.642944,687.197205 557.642944,679.000977 
	C548.323242,679.000977 539.357056,679.130432 530.398438,678.928955 
	C527.366760,678.860779 526.619446,680.051270 526.998291,683.640869 
z"/>
<path fill="#34CFF3" opacity="1.000000" stroke="none" 
	d="
M1219.468628,720.000000 
	C1219.000000,695.195496 1218.863525,670.389648 1219.114136,645.587708 
	C1219.164795,640.566223 1218.374878,636.514648 1214.095215,633.577271 
	C1212.361206,632.387085 1210.691284,631.103271 1208.992188,629.862122 
	C1209.382568,629.242004 1209.773071,628.621887 1210.163452,628.001770 
	C1218.038330,628.001770 1225.913330,628.001770 1233.788208,628.001770 
	C1248.681030,628.001770 1248.349243,628.199707 1256.145996,641.271484 
	C1264.833252,655.836060 1274.204590,669.992676 1283.812500,685.171265 
	C1283.812500,665.730103 1283.812500,647.119873 1283.812500,628.258789 
	C1293.071533,628.258789 1301.798706,628.258789 1310.999756,628.258789 
	C1310.999756,658.577271 1310.999756,688.820007 1310.999878,719.531372 
	C1299.645752,720.000000 1288.291504,720.000000 1276.802734,719.744263 
	C1266.333252,702.492188 1255.998291,685.495911 1245.000000,667.408813 
	C1245.000000,685.846313 1245.000000,702.923157 1245.000000,720.000000 
	C1236.645752,720.000000 1228.291504,720.000000 1219.468628,720.000000 
z"/>
<path fill="#34CFF3" opacity="1.000000" stroke="none" 
	d="
M1318.468628,720.000000 
	C1318.000000,689.533997 1318.000000,659.067993 1318.000000,628.302246 
	C1347.331421,628.302246 1376.391968,628.302246 1405.725952,628.302246 
	C1405.725952,639.323425 1405.725952,650.387207 1405.725952,661.726440 
	C1395.934082,661.726440 1386.207275,661.726440 1376.186279,661.726440 
	C1376.186279,656.000000 1376.186279,650.384460 1376.186279,644.385620 
	C1365.511475,644.385620 1355.113892,644.385620 1344.356689,644.385620 
	C1344.356689,663.884827 1344.356689,683.611084 1344.356689,703.669434 
	C1355.270874,703.669434 1366.332520,703.669434 1377.995117,703.669434 
	C1377.995117,698.471680 1378.131104,693.200256 1377.895386,687.945435 
	C1377.839355,686.698486 1376.750488,685.291138 1375.772339,684.327393 
	C1371.057129,679.681519 1366.217407,675.162170 1361.421875,670.597961 
	C1361.637573,670.222961 1361.853271,669.847900 1362.069092,669.472900 
	C1376.532715,669.472900 1390.996338,669.472900 1406.000122,669.472900 
	C1406.000122,685.865845 1406.000122,702.464233 1406.000000,719.531372 
	C1376.979126,720.000000 1347.958130,720.000000 1318.468628,720.000000 
z"/>
<path fill="#34CFF3" opacity="1.000000" stroke="none" 
	d="
M849.468628,720.000000 
	C849.000000,695.356689 848.812195,670.710876 849.145569,646.072083 
	C849.219360,640.614563 848.136353,636.425903 843.727295,633.213623 
	C842.021729,631.971069 840.387939,630.629822 838.721497,629.333557 
	C838.997803,628.975098 839.274109,628.616577 839.550415,628.258057 
	C871.885132,628.258057 904.219788,628.258057 936.777344,628.258057 
	C936.777344,637.021423 936.777344,645.630066 936.777344,654.619507 
	C927.184631,654.619507 917.456421,654.619507 907.274292,654.619507 
	C907.274292,651.485779 907.274292,648.084106 907.274292,644.341309 
	C896.438477,644.341309 886.043945,644.341309 875.323425,644.341309 
	C875.323425,663.943604 875.323425,683.660400 875.323425,703.689270 
	C886.306885,703.689270 897.363098,703.689270 908.994751,703.689270 
	C908.994751,698.449097 909.131348,693.176575 908.894409,687.920898 
	C908.838257,686.676270 907.737305,685.275940 906.758850,684.310120 
	C902.051208,679.663513 897.220947,675.141113 892.434265,670.574585 
	C892.645630,670.205933 892.856995,669.837219 893.068359,669.468506 
	C907.524658,669.468506 921.980896,669.468506 936.999939,669.468506 
	C936.999939,685.886597 936.999939,702.474670 937.000000,719.531372 
	C907.979126,720.000000 878.958191,720.000000 849.468628,720.000000 
z"/>
<path fill="#34CFF3" opacity="1.000000" stroke="none" 
	d="
M943.468628,720.000000 
	C946.154358,709.355774 949.213684,698.682190 952.485596,688.074219 
	C957.232971,672.682678 962.190247,657.355652 966.866821,641.943115 
	C967.259583,640.648621 966.645813,638.553589 965.741089,637.455688 
	C963.282471,634.472168 960.416260,631.824524 956.698303,628.001953 
	C961.959167,628.001953 965.701172,628.001892 969.443115,628.001892 
	C985.418335,628.001892 1001.394470,628.094727 1017.367981,627.930176 
	C1020.916443,627.893616 1022.271606,628.763062 1023.160828,632.542297 
	C1028.817871,656.586060 1034.920898,680.524536 1040.816528,704.512573 
	C1042.010132,709.369385 1042.944458,714.289795 1043.999268,719.590454 
	C1034.979126,720.000000 1025.958252,720.000000 1016.787964,719.654663 
	C1010.994812,694.257568 1005.351013,669.205872 999.729126,644.251587 
	C991.361877,643.701294 991.335144,643.692993 989.048828,651.048889 
	C988.137573,653.980835 987.365051,656.956238 986.544922,659.916077 
	C984.923462,665.767639 983.312805,671.622131 981.552368,678.001709 
	C986.983459,678.001709 991.632324,677.875183 996.265808,678.085815 
	C997.511719,678.142456 999.564087,679.001709 999.791504,679.872498 
	C1001.135742,685.020203 1002.051147,690.279907 1003.198792,695.935303 
	C993.679565,695.935303 984.561462,695.935303 975.528137,695.935303 
	C973.285522,704.202332 971.142761,712.101135 969.000000,720.000000 
	C960.645752,720.000000 952.291504,720.000000 943.468628,720.000000 
z"/>
<path fill="#34CFF3" opacity="1.000000" stroke="none" 
	d="
M357.468658,720.000000 
	C357.000061,695.352722 356.885040,670.704468 357.101929,646.059143 
	C357.142914,641.401794 356.269867,637.768066 352.460632,634.860840 
	C350.318359,633.225830 348.588806,631.050049 345.872925,628.310547 
	C360.256195,628.310547 373.294861,628.310547 386.791840,628.310547 
	C386.791840,652.937012 386.791840,677.655334 386.791840,702.827271 
	C404.962524,702.827271 422.686371,702.827271 440.999756,702.827271 
	C440.999756,708.535278 440.999756,713.799561 440.999878,719.531921 
	C413.312439,720.000000 385.624878,720.000000 357.468658,720.000000 
z"/>
<path fill="#34CFF3" opacity="1.000000" stroke="none" 
	d="
M647.468628,720.000000 
	C647.000000,695.529480 646.862549,671.057495 647.113586,646.589539 
	C647.165100,641.570129 646.378296,637.521057 642.095276,634.580872 
	C639.958557,633.114075 637.893860,631.542358 635.796631,630.018066 
	C636.264771,629.454529 636.732910,628.890991 637.201050,628.327454 
	C650.234924,628.327454 663.268799,628.327454 676.734009,628.327454 
	C676.734009,652.862488 676.734009,677.575317 676.734009,702.734680 
	C694.870911,702.734680 712.589355,702.734680 731.371460,702.734680 
	C730.887390,708.532104 730.444641,713.835083 730.000977,719.568970 
	C702.645752,720.000000 675.291565,720.000000 647.468628,720.000000 
z"/>
<path fill="#34CFF3" opacity="1.000000" stroke="none" 
	d="
M602.468628,720.000000 
	C602.000000,695.215637 601.822815,670.429077 602.141296,645.648804 
	C602.209473,640.344788 600.950073,636.347046 596.764893,633.312927 
	C595.166443,632.154114 593.355286,631.288757 591.641052,630.289673 
	C592.141846,629.659180 592.642639,629.028625 593.143433,628.398071 
	C605.939148,628.398071 618.734863,628.398071 631.999939,628.398071 
	C631.999939,658.618103 631.999939,688.840393 632.000000,719.531372 
	C622.312439,720.000000 612.624878,720.000000 602.468628,720.000000 
z"/>
<path fill="#34CFF3" opacity="1.000000" stroke="none" 
	d="
M1173.468628,720.000000 
	C1173.000000,695.216980 1172.823730,670.431641 1173.140747,645.652710 
	C1173.208618,640.351685 1171.957397,636.349854 1167.768799,633.315552 
	C1166.169678,632.157043 1164.362549,631.285583 1162.650146,630.283264 
	C1163.147217,629.655640 1163.644287,629.028015 1164.141357,628.400391 
	C1176.935425,628.400391 1189.729370,628.400391 1203.000000,628.400391 
	C1203.000000,658.621826 1203.000000,688.842224 1203.000000,719.531372 
	C1193.312378,720.000000 1183.624878,720.000000 1173.468628,720.000000 
z"/>
<path fill="#34CFF3" opacity="1.000000" stroke="none" 
	d="
M741.468628,720.000000 
	C741.000000,695.375488 740.784912,670.747742 741.160583,646.128967 
	C741.247620,640.424622 739.809509,636.286255 735.437256,632.887634 
	C734.069214,631.824219 732.997253,630.379700 731.102600,628.386841 
	C744.952576,628.386841 757.755859,628.386841 771.000122,628.386841 
	C771.000122,658.601013 771.000122,688.831848 771.000061,719.531372 
	C761.312439,720.000000 751.624878,720.000000 741.468628,720.000000 
z"/>
<path fill="#34CFF3" opacity="1.000000" stroke="none" 
	d="
M451.468658,720.000000 
	C451.000336,695.211853 450.821014,670.421448 451.144135,645.637512 
	C451.213409,640.324158 449.927002,636.341187 445.754456,633.304504 
	C444.158264,632.142883 442.343719,631.281250 440.628693,630.282837 
	C441.130585,629.652893 441.632446,629.022949 442.134338,628.393005 
	C454.932861,628.393005 467.731354,628.393005 480.999786,628.393005 
	C480.999786,658.610413 480.999786,688.836548 480.999878,719.531372 
	C471.312439,720.000000 461.624878,720.000000 451.468658,720.000000 
z"/>
<path fill="#34CFF3" opacity="1.000000" stroke="none" 
	d="
M313.468658,720.000000 
	C312.999969,695.387085 312.864502,670.772827 313.114990,646.162476 
	C313.164703,641.279541 312.131042,637.497070 308.154572,634.645142 
	C306.034943,633.125061 303.940674,631.569641 301.835022,630.030151 
	C302.273041,629.476868 302.711090,628.923523 303.149139,628.370239 
	C315.947662,628.370239 328.746216,628.370239 341.999603,628.370239 
	C341.999603,658.627075 341.999603,688.844849 341.999817,719.531372 
	C332.645782,720.000000 323.291534,720.000000 313.468658,720.000000 
z"/>
<path fill="#000000" opacity="1.000000" stroke="none" 
	d="
M969.468628,720.000000 
	C971.142761,712.101135 973.285522,704.202332 975.528137,695.935303 
	C984.561462,695.935303 993.679565,695.935303 1003.198792,695.935303 
	C1002.051147,690.279907 1001.135742,685.020203 999.791504,679.872498 
	C999.564087,679.001709 997.511719,678.142456 996.265808,678.085815 
	C991.632324,677.875183 986.983459,678.001709 981.552368,678.001709 
	C983.312805,671.622131 984.923462,665.767639 986.544922,659.916077 
	C987.365051,656.956238 988.137573,653.980835 989.048828,651.048889 
	C991.335144,643.692993 991.361877,643.701294 999.729126,644.251587 
	C1005.351013,669.205872 1010.994812,694.257568 1016.319336,719.654663 
	C1000.645752,720.000000 985.291565,720.000000 969.468628,720.000000 
z"/>
<path fill="#000000" opacity="1.000000" stroke="none" 
	d="
M1245.468628,720.000000 
	C1245.000000,702.923157 1245.000000,685.846313 1245.000000,667.408813 
	C1255.998291,685.495911 1266.333252,702.492188 1276.334106,719.744263 
	C1265.979126,720.000000 1255.958130,720.000000 1245.468628,720.000000 
z"/>
<path fill="#000000" opacity="1.000000" stroke="none" 
	d="
M1076.468628,720.000000 
	C1076.000000,707.916077 1076.000000,695.832092 1076.000000,683.748169 
	C1076.242920,683.681519 1076.485718,683.614868 1076.728638,683.548157 
	C1080.879883,693.579407 1085.031250,703.610657 1089.329590,713.997375 
	C1096.699463,713.997375 1104.149658,714.139282 1111.583252,713.851257 
	C1112.758301,713.805725 1114.321655,712.026978 1114.918945,710.696594 
	C1119.396362,700.722961 1123.676270,690.660645 1129.000000,680.726501 
	C1129.000000,693.505249 1129.000000,706.283936 1129.000000,719.531372 
	C1111.645752,720.000000 1094.291504,720.000000 1076.468628,720.000000 
z"/>
<path fill="#000000" opacity="1.000000" stroke="none" 
	d="
M237.445587,679.435059 
	C247.712372,679.099426 257.635590,679.099426 267.776917,679.099426 
	C267.776917,687.477844 267.776917,695.523010 267.776917,703.777222 
	C257.513214,703.777222 247.472275,703.777222 237.102005,703.777222 
	C237.102005,695.630127 237.102005,687.700439 237.445587,679.435059 
z"/>
<path fill="#000000" opacity="1.000000" stroke="none" 
	d="
M526.998291,683.157593 
	C526.619446,680.051270 527.366760,678.860779 530.398438,678.928955 
	C539.357056,679.130432 548.323242,679.000977 557.642944,679.000977 
	C557.642944,687.197205 557.642944,695.245667 557.642944,703.649109 
	C547.792908,703.649109 537.749146,703.649109 526.998291,703.649109 
	C526.998291,697.111511 526.998291,690.376221 526.998291,683.157593 
z"/>
</svg>