<svg version="1.1" id="Layer_1" xmlns="http://www.w3.org/2000/svg" xmlns:xlink="http://www.w3.org/1999/xlink" x="0px" y="0px"
	 width="100%" viewBox="0 0 5000 5000" enable-background="new 0 0 5000 5000" xml:space="preserve">
<path fill="#010000" opacity="1.000000" stroke="none" 
	d="
M5004.000000,1688.000000 
	C5004.000000,2793.177490 5004.000000,3898.354736 5004.000000,5003.766113 
	C3337.724365,5003.766113 1671.448853,5003.766113 4.000000,5003.766113 
	C4.000000,3897.216064 4.000000,2790.431885 5.034278,1682.662842 
	C11.261256,1686.795654 16.854624,1691.569824 21.581049,1697.086914 
	C49.656784,1729.860352 77.492325,1762.839600 105.484695,1795.684937 
	C138.634827,1834.582153 171.867645,1873.408936 205.053482,1912.275757 
	C220.572159,1930.451172 236.064285,1948.649170 251.569473,1966.836060 
	C280.425507,2000.682617 309.233795,2034.570068 338.154633,2068.361328 
	C359.741547,2093.583496 381.543365,2118.621826 403.125183,2143.848633 
	C434.198303,2180.169434 465.179413,2216.569092 496.155701,2252.972656 
	C506.901581,2265.601318 517.470947,2278.380127 528.207886,2291.016602 
	C534.237671,2298.112793 540.281860,2305.210693 546.629578,2312.018799 
	C550.908936,2316.608398 555.381348,2317.167969 561.097107,2314.371582 
	C563.457092,2313.217041 565.468811,2311.373291 567.742310,2310.016113 
	C605.906555,2287.230957 645.042114,2266.276855 685.995239,2248.938965 
	C709.748169,2238.883057 733.730225,2229.320068 757.897766,2220.309082 
	C774.022034,2214.297363 790.457886,2208.892334 807.104492,2204.562256 
	C834.051880,2197.552979 861.268005,2191.567627 888.405945,2185.302979 
	C918.155396,2178.435059 948.259644,2173.799561 978.665588,2170.947021 
	C995.135376,2169.402344 1011.497925,2166.441895 1027.988647,2165.461182 
	C1047.905640,2164.276611 1067.907104,2164.198486 1087.872314,2164.185059 
	C1228.411377,2164.090820 1368.950439,2164.136963 1509.489502,2164.135010 
	C1516.150024,2164.134766 1522.817627,2164.268555 1529.467407,2163.991699 
	C1531.743164,2163.896973 1535.030884,2165.075195 1536.295410,2159.463867 
	C1518.256836,2150.930420 1499.466919,2143.271484 1480.803345,2135.229492 
	C1461.935669,2127.099365 1443.671753,2117.568115 1424.557373,2107.266602 
	C1420.815430,2100.715576 1415.908569,2100.886963 1410.620972,2101.568359 
	C1410.408936,2101.563721 1410.324097,2101.148193 1411.571411,2100.029297 
	C1418.762573,2094.397705 1425.622437,2095.761230 1432.156860,2095.881104 
	C1432.026245,2095.886475 1432.066650,2095.628174 1432.385254,2096.846924 
	C1437.180054,2104.132568 1442.875977,2102.869385 1449.699829,2100.770996 
	C1452.398193,2101.664307 1454.114258,2102.517090 1456.437988,2104.786621 
	C1463.110229,2112.513916 1470.413452,2110.827393 1478.241577,2109.567627 
	C1478.806396,2109.736816 1479.552490,2110.649902 1480.080078,2112.087646 
	C1483.250244,2115.202881 1485.709839,2117.362793 1488.576294,2118.448975 
	C1493.356079,2120.260254 1498.917603,2120.486816 1503.217041,2122.985840 
	C1511.924561,2128.046387 1520.427856,2127.591797 1530.289795,2124.526367 
	C1532.531738,2124.782959 1533.740723,2125.190674 1535.315186,2127.204346 
	C1538.041260,2133.461182 1542.475342,2134.282715 1547.188477,2134.952881 
	C1553.638062,2135.869873 1560.782593,2135.710205 1566.301025,2138.572754 
	C1577.786987,2144.531006 1589.014648,2143.770752 1601.794189,2140.809570 
	C1604.245850,2141.262939 1605.617065,2141.685059 1607.446167,2143.500244 
	C1609.859985,2148.905518 1613.497192,2150.667969 1617.528687,2150.617920 
	C1627.976807,2150.488281 1638.418945,2149.857666 1650.042969,2149.415039 
	C1652.687500,2149.883057 1654.152588,2150.362549 1656.228760,2152.321045 
	C1659.558960,2155.376465 1662.191650,2158.121338 1665.011597,2158.329102 
	C1677.887207,2159.278809 1690.855957,2160.769043 1705.029541,2157.264404 
	C1710.895386,2157.951660 1715.368408,2158.654053 1720.468140,2160.803711 
	C1726.198730,2168.083496 1733.203369,2167.061035 1739.717407,2167.080322 
	C1791.003296,2167.232422 1842.289795,2167.290283 1893.575562,2167.177002 
	C1899.387451,2167.164062 1905.196655,2165.912109 1910.692627,2165.271729 
	C1915.162964,2156.372314 1918.848267,2148.593018 1922.928955,2141.027100 
	C1927.641602,2132.289795 1932.083618,2123.308350 1937.741577,2115.199463 
	C1949.592773,2098.214600 1959.334839,2080.363770 1964.192505,2060.127930 
	C1964.167847,2060.156494 1964.125366,2060.218994 1965.470215,2059.944336 
	C1970.402466,2055.888184 1974.937256,2052.635254 1977.395508,2048.224854 
	C1984.148438,2036.109741 1988.793335,2022.817383 1999.088379,2012.779663 
	C2001.302246,2010.621216 2001.850708,2006.814941 2003.367920,2003.871582 
	C2009.742676,1991.504395 2014.922852,1978.260742 2022.970947,1967.089111 
	C2031.194214,1955.674194 2037.812378,1943.719360 2043.837402,1931.161743 
	C2047.831055,1922.838013 2052.452148,1914.692993 2057.756592,1907.145508 
	C2069.654541,1890.216431 2079.321777,1872.340454 2084.197510,1852.132812 
	C2084.170166,1852.158936 2084.134521,1852.225830 2085.478027,1851.947754 
	C2091.929199,1848.370239 2095.793213,1844.330933 2098.510986,1838.535645 
	C2102.992676,1828.978638 2108.610840,1819.944336 2113.926514,1810.792236 
	C2116.895508,1805.680786 2120.519043,1800.937378 2123.325684,1795.746094 
	C2129.948486,1783.496826 2135.005615,1770.177490 2143.053467,1758.986084 
	C2150.879395,1748.103271 2157.094482,1736.666016 2163.160889,1724.867554 
	C2168.279541,1714.912354 2172.092285,1704.127686 2180.362061,1695.857788 
	C2188.050781,1688.169067 2187.331055,1679.370361 2181.683838,1669.133545 
	C2172.052979,1668.792480 2162.179443,1668.138062 2152.306152,1668.136963 
	C1715.983398,1668.086060 1279.660645,1668.103638 843.337952,1668.088379 
	C563.558655,1668.078613 283.779327,1668.030762 4.000000,1668.000000 
	C4.000000,1113.442871 4.000000,558.885803 4.000000,4.164345 
	C1670.227905,4.164345 3336.455811,4.164345 5004.000000,4.164345 
	C5004.000000,558.783447 5004.000000,1113.567871 5002.223633,1670.839355 
	C4991.795898,1673.572021 4983.144043,1674.030273 4974.492188,1674.032471 
	C4807.178711,1674.075195 4639.864746,1674.064453 4472.551270,1674.064575 
	C4463.913086,1674.064575 4455.274902,1674.064331 4445.882812,1674.064331 
	C4440.367676,1680.969849 4435.180176,1687.794312 4429.652344,1694.331299 
	C4400.031250,1729.359619 4370.401367,1764.382080 4340.622559,1799.276367 
	C4318.606934,1825.073853 4296.261719,1850.590332 4274.236816,1876.379639 
	C4244.432129,1911.278198 4214.799805,1946.323730 4185.081543,1981.295898 
	C4169.153809,2000.038818 4153.298828,2018.844971 4137.149902,2037.395752 
	C4134.775879,2040.122803 4130.955566,2041.590454 4128.484863,2043.197998 
	C4119.621094,2039.042603 4118.567383,2030.957642 4114.910156,2024.856689 
	C4098.873535,1998.106812 4083.272705,1971.094971 4067.591797,1944.132935 
	C4060.907715,1932.640137 4054.549316,1920.957031 4047.808105,1909.498657 
	C4026.597900,1873.446411 4005.069824,1837.579346 3984.051758,1801.415649 
	C3961.031494,1761.805908 3938.477295,1721.925537 3915.590332,1682.237671 
	C3913.982666,1679.449829 3911.304199,1677.279541 3908.424316,1674.034180 
	C3901.415771,1674.034180 3894.120605,1674.034058 3886.825439,1674.034180 
	C3652.186523,1674.038086 3417.547852,1674.040283 3182.908936,1674.056519 
	C3176.912354,1674.056885 3170.898438,1673.981079 3164.929199,1674.428345 
	C3162.919678,1674.578857 3161.023438,1676.244019 3156.135254,1678.685425 
	C3172.154541,1684.539551 3185.541504,1688.371704 3198.004883,1694.184082 
	C3236.458740,1712.117188 3275.021484,1729.755737 3310.951660,1752.779419 
	C3349.080322,1777.211914 3386.281006,1802.696777 3419.742920,1833.329102 
	C3428.574951,1841.414551 3436.977295,1849.982666 3445.994629,1857.850220 
	C3478.189697,1885.939819 3506.198242,1918.096924 3534.634277,1949.755615 
	C3555.476074,1972.959106 3574.311768,1997.952515 3594.467041,2021.788452 
	C3613.776611,2044.624268 3633.222412,2067.371094 3653.341309,2089.490479 
	C3690.090332,2129.893555 3728.634766,2168.319580 3775.811279,2196.956543 
	C3803.252686,2213.614258 3832.031494,2227.224854 3863.419434,2234.007080 
	C3886.744141,2239.046875 3910.276123,2243.770020 3934.384766,2243.871826 
	C3954.852051,2243.958008 3975.329590,2244.820557 3996.833252,2243.304443 
	C3994.933838,2241.477295 3994.193604,2240.134521 3993.186523,2239.889404 
	C3967.322266,2233.596436 3941.839600,2226.155273 3916.937012,2216.631592 
	C3881.892090,2203.229248 3849.223145,2185.678711 3820.431641,2161.553467 
	C3808.220215,2151.321533 3797.010986,2139.849365 3785.841309,2128.455811 
	C3783.659180,2126.229736 3779.165771,2123.050293 3782.698486,2118.367432 
	C3783.378906,2118.150635 3784.114746,2117.635498 3784.540771,2117.823486 
	C3789.372314,2119.953369 3794.387939,2121.797119 3798.917725,2124.459961 
	C3846.366455,2152.352783 3897.486084,2169.956299 3951.291992,2180.967773 
	C3966.245117,2184.028076 3981.196777,2186.983154 3996.198975,2189.819336 
	C4016.374756,2193.633301 4036.276123,2198.875488 4056.367188,2203.168945 
	C4083.099365,2208.881592 4108.907227,2217.409424 4133.637695,2228.922607 
	C4155.554688,2239.126221 4175.332520,2253.520264 4191.344238,2270.991211 
	C4218.859863,2301.013672 4239.551270,2336.053711 4255.211914,2373.807129 
	C4256.250977,2376.312012 4255.347168,2379.622803 4255.347168,2383.145508 
	C4238.105957,2375.966064 4222.371094,2368.967285 4206.307617,2362.829834 
	C4182.662109,2353.795166 4158.252930,2346.859375 4133.094727,2344.333984 
	C4108.659668,2341.881592 4084.158203,2340.815430 4059.368164,2342.533447 
	C4025.041504,2344.912842 3992.489746,2353.308594 3960.604492,2365.193604 
	C3931.300293,2376.116455 3903.474609,2389.964600 3876.362305,2405.770508 
	C3846.365234,2423.257812 3818.136963,2443.116943 3790.656738,2464.052734 
	C3765.307373,2483.365234 3740.525635,2503.518799 3716.529541,2524.487061 
	C3685.492188,2551.607910 3655.383057,2579.796631 3625.073730,2607.742188 
	C3609.897217,2621.735596 3595.441895,2636.515625 3580.167969,2650.397949 
	C3551.629639,2676.335938 3525.075684,2704.357910 3495.618164,2729.361084 
	C3475.842041,2746.146973 3457.985352,2765.177490 3438.453613,2782.271484 
	C3409.963623,2807.204590 3380.581055,2831.114014 3351.867920,2855.796143 
	C3309.865723,2891.902100 3264.901367,2923.719238 3216.002441,2949.753906 
	C3184.888428,2966.319580 3153.050293,2981.269287 3119.858643,2993.526367 
	C3089.841064,3004.612061 3059.244873,3013.515869 3028.427490,3021.737549 
	C3011.752930,3026.186035 2994.590576,3028.790527 2977.677246,3032.363525 
	C2965.320557,3034.973877 2953.008301,3037.794434 2940.694336,3040.602295 
	C2940.302002,3040.691895 2940.112549,3041.671631 2939.250732,3043.384521 
	C2943.250488,3044.017334 2946.876465,3045.125488 2950.487061,3045.076904 
	C2977.128174,3044.719482 3003.765625,3044.094482 3030.405518,3043.627197 
	C3049.723633,3043.288330 3068.657227,3039.843262 3087.656982,3036.834961 
	C3111.922607,3032.992676 3136.487549,3030.560059 3160.427979,3025.274902 
	C3186.918701,3019.427002 3213.354248,3013.269775 3239.396729,3005.078125 
	C3273.663086,2994.299805 3307.211426,2982.327148 3339.120850,2965.811523 
	C3340.823242,2964.930420 3343.452148,2965.839111 3348.438965,2966.010742 
	C3344.433350,2970.504883 3342.557373,2973.103760 3340.198975,2975.145264 
	C3336.192139,2978.614502 3331.464600,2981.320312 3327.761963,2985.061279 
	C3288.651855,3024.574463 3243.660645,3056.621582 3196.908447,3086.038574 
	C3151.894287,3114.362549 3104.813477,3139.177979 3056.248535,3161.013916 
	C3016.232422,3179.006104 2976.106201,3196.708984 2934.344238,3210.439697 
	C2903.431396,3220.603271 2872.783447,3231.576416 2841.843018,3241.652832 
	C2819.101318,3249.059326 2796.159912,3255.889893 2773.154053,3262.437988 
	C2752.044922,3268.446289 2730.827881,3274.138916 2709.483398,3279.238037 
	C2681.020020,3286.038086 2652.405029,3292.211182 2623.821533,3298.499756 
	C2600.486816,3303.633789 2577.547363,3310.691162 2553.584717,3312.825195 
	C2548.968750,3313.236084 2544.450684,3314.674805 2539.867676,3315.535156 
	C2517.673340,3319.701660 2495.471924,3323.829346 2473.274902,3327.982178 
	C2470.559082,3328.489990 2467.855713,3329.065674 2463.667969,3329.906494 
	C2466.031006,3331.405762 2466.550781,3331.988525 2467.135254,3332.062744 
	C2469.774170,3332.397949 2472.427246,3332.712646 2475.083252,3332.806885 
	C2481.076904,3333.020264 2487.075195,3333.217773 2493.071777,3333.215576 
	C2862.352295,3333.081787 3231.632812,3332.927490 3600.913330,3332.760010 
	C3601.569580,3332.759766 3602.249268,3332.610107 3602.875244,3332.401367 
	C3603.500244,3332.193848 3604.071289,3331.823730 3607.093994,3330.303955 
	C3623.952148,3310.489258 3642.470703,3288.798340 3660.905518,3267.036621 
	C3690.071289,3232.607178 3719.178467,3198.128418 3748.315186,3163.674561 
	C3777.468506,3129.200684 3806.509766,3094.630859 3835.822998,3060.293945 
	C3857.373047,3035.050293 3879.521729,3010.316162 3900.967773,2984.986328 
	C3924.124512,2957.635254 3946.613281,2929.719727 3969.700684,2902.309082 
	C3985.947266,2883.020508 4002.687500,2864.146973 4019.308594,2845.177246 
	C4020.002197,2844.385498 4021.729004,2844.499023 4024.402832,2843.837891 
	C4026.813721,2846.921387 4029.894287,2850.292480 4032.321533,2854.082520 
	C4037.693604,2862.470947 4042.941162,2870.953613 4047.880859,2879.602539 
	C4074.563477,2926.321533 4101.020508,2973.169922 4127.778809,3019.845215 
	C4156.858398,3070.570312 4186.164062,3121.166260 4215.408691,3171.796387 
	C4233.673828,3203.417969 4252.036133,3234.983398 4270.303223,3266.603760 
	C4280.604492,3284.435791 4290.745605,3302.360840 4301.088379,3320.168701 
	C4303.406250,3324.160156 4306.265137,3327.836914 4308.592773,3331.245361 
	C4325.857910,3333.968018 4801.422363,3335.558838 4860.948242,3333.135742 
	C4864.066895,3333.008789 4867.157227,3332.176514 4871.143555,3331.529297 
	C4869.384766,3320.335693 4862.852051,3312.551270 4858.015625,3304.162598 
	C4831.481934,3258.139648 4804.622559,3212.304443 4777.896973,3166.392578 
	C4759.526855,3134.833984 4741.166016,3103.269775 4722.846680,3071.681396 
	C4708.178223,3046.388184 4693.649902,3021.013916 4678.927734,2995.752197 
	C4665.558105,2972.810791 4651.896484,2950.039551 4638.574219,2927.070801 
	C4623.596191,2901.246094 4609.031250,2875.180908 4593.967285,2849.406738 
	C4572.185547,2812.138428 4549.885254,2775.172119 4528.229492,2737.831299 
	C4501.911621,2692.451904 4476.209473,2646.715820 4449.916016,2601.322266 
	C4422.962402,2554.789062 4395.551270,2508.521240 4368.526367,2462.028564 
	C4365.281250,2456.445557 4363.203125,2450.184326 4360.832031,2444.800293 
	C4367.349121,2436.103271 4372.553711,2428.375244 4378.536133,2421.306396 
	C4408.554688,2385.835693 4438.794922,2350.552734 4468.919922,2315.171875 
	C4484.421387,2296.965576 4499.810547,2278.663574 4515.308594,2260.454590 
	C4545.840332,2224.583984 4576.391113,2188.729492 4606.976562,2152.904541 
	C4628.107910,2128.153076 4649.399414,2103.537842 4670.458496,2078.724609 
	C4694.935547,2049.884277 4719.234863,2020.892578 4743.614746,1991.969849 
	C4757.741699,1975.210571 4771.830078,1958.418945 4786.015137,1941.709229 
	C4817.792480,1904.275269 4849.562012,1866.833618 4881.447266,1829.491333 
	C4905.182129,1801.694092 4929.095215,1774.048950 4952.924316,1746.331787 
	C4954.657227,1744.315918 4956.315918,1742.235718 4958.070312,1740.238647 
	C4973.372070,1722.818848 4988.687988,1705.411255 5004.000000,1688.000000 
M581.843506,2628.749756 
	C578.227356,2629.975586 576.511414,2632.628662 576.042114,2636.091797 
	C576.042114,2636.091797 576.287109,2636.142090 573.654846,2636.776367 
	C565.134521,2642.321289 558.032837,2649.137695 552.890015,2658.165039 
	C562.823303,2662.996826 562.823303,2662.996826 570.145691,2654.152832 
	C571.666382,2653.585693 573.187073,2653.018555 576.756042,2653.251709 
	C580.797729,2653.646973 583.820557,2652.646240 584.131348,2648.126953 
	C584.131348,2648.126953 583.895142,2648.093750 586.938660,2647.734619 
	C603.255188,2644.348389 616.832275,2635.092773 630.959290,2627.049072 
	C631.865173,2626.533447 632.055420,2624.760986 633.830383,2622.221436 
	C635.561035,2621.663086 637.291687,2621.104492 641.690735,2621.569336 
	C647.020874,2622.643066 651.867798,2622.206787 656.924683,2619.416992 
	C664.959045,2614.984619 673.256348,2610.747314 681.903625,2607.764893 
	C701.086365,2601.148682 720.594116,2595.479004 739.851562,2589.069580 
	C741.913818,2588.383057 743.197327,2585.356445 746.784546,2582.085449 
	C748.320496,2581.786377 749.856445,2581.487549 754.456604,2582.072266 
	C758.368896,2582.198242 762.290955,2582.555664 766.190979,2582.391113 
	C771.013916,2582.187744 775.167236,2580.562744 778.814270,2574.079346 
	C780.345215,2573.780029 781.876160,2573.480713 786.781677,2574.088379 
	C798.774231,2575.309326 810.337708,2575.388916 821.675110,2569.393311 
	C826.583740,2566.797607 833.326355,2567.514893 839.261414,2567.058594 
	C845.218262,2566.601074 851.219604,2566.726562 857.177612,2566.278809 
	C862.381897,2565.887695 865.500366,2562.586670 870.387817,2557.395996 
	C873.493469,2557.215088 876.599121,2557.034424 882.771790,2557.881348 
	C892.395813,2558.257324 902.021484,2558.596680 911.643250,2559.022949 
	C917.382324,2559.276611 923.385986,2558.834717 925.422058,2564.997314 
	C923.940369,2565.138672 922.458740,2565.280273 917.496155,2564.670898 
	C911.137024,2564.648682 904.776062,2564.525146 898.419250,2564.634521 
	C892.672424,2564.733398 888.989014,2567.870117 886.820984,2573.502441 
	C886.820984,2573.502441 886.415466,2573.397705 883.062561,2572.729980 
	C875.721863,2572.754395 867.500977,2570.388428 860.849915,2581.021729 
	C849.373230,2584.352539 837.892151,2587.668457 826.420715,2591.017334 
	C784.831055,2603.157715 744.822937,2619.403564 706.295105,2639.056396 
	C683.826294,2650.517578 662.049866,2663.392578 640.340271,2676.269531 
	C619.741455,2688.487549 600.722778,2702.988525 581.595825,2717.448486 
	C557.135559,2735.941162 534.216675,2756.116699 512.084473,2777.111328 
	C494.279297,2794.001709 478.395477,2812.927002 461.782104,2831.061768 
	C430.256470,2865.474365 403.008148,2903.184326 375.929321,2941.111572 
	C351.937347,2974.715088 330.127380,3009.689941 308.822876,3044.933350 
	C282.682434,3088.176758 258.438080,3132.564209 233.246475,3176.383789 
	C223.974213,3192.512451 214.205887,3208.355225 204.895187,3224.462402 
	C185.918976,3257.289795 167.062912,3290.186768 148.305069,3323.139404 
	C147.141739,3325.182861 147.258972,3327.955322 146.630829,3331.149170 
	C150.060699,3331.957764 152.487350,3332.901855 154.963120,3333.055664 
	C180.257019,3334.627930 693.692322,3333.334229 707.339600,3331.677002 
	C709.476868,3328.943115 712.301086,3326.048096 714.290771,3322.662842 
	C723.704590,3306.645020 733.002869,3290.556396 742.133423,3274.375244 
	C759.396057,3243.782227 776.246887,3212.953857 793.760864,3182.506348 
	C816.912231,3142.258057 840.474243,3102.245361 863.990967,3062.208496 
	C872.385498,3047.916992 880.270325,3033.200684 889.988831,3019.843506 
	C902.434631,3002.737549 917.111084,2987.431641 933.670532,2974.030029 
	C945.063171,2964.810547 957.037598,2956.579834 969.874939,2949.493408 
	C990.966125,2937.850830 1013.597656,2929.915771 1036.940063,2925.290771 
	C1054.420654,2921.826904 1072.696167,2921.373535 1090.622681,2921.324463 
	C1207.927856,2921.003906 1325.234375,2921.168701 1442.540405,2921.136230 
	C1450.474121,2921.134033 1458.407837,2920.818115 1466.586182,2920.642822 
	C1476.186401,2904.498779 1485.501831,2889.211914 1494.443848,2873.709717 
	C1509.012695,2848.452393 1523.197510,2822.973389 1537.797363,2797.734131 
	C1563.064331,2754.054199 1588.606079,2710.533203 1613.873047,2666.853027 
	C1628.799438,2641.049072 1643.267700,2614.979736 1658.209595,2589.184570 
	C1685.159546,2542.657715 1712.311890,2496.248291 1739.375122,2449.786865 
	C1742.381714,2444.625488 1745.354492,2439.445068 1744.321045,2431.705566 
	C1737.922974,2431.476074 1731.405273,2431.039062 1724.887695,2431.038086 
	C1507.604858,2431.003174 1290.321777,2430.925049 1073.039185,2431.147461 
	C1052.434814,2431.168701 1031.806641,2432.770264 1011.239563,2434.307373 
	C1000.677917,2435.096680 990.214233,2437.286621 979.729065,2438.984619 
	C966.609619,2441.109131 953.450134,2443.062500 940.425781,2445.676758 
	C928.059448,2448.158447 915.919678,2451.773193 903.549255,2454.229736 
	C872.097656,2460.475098 842.102417,2471.587402 812.524902,2483.272705 
	C782.298340,2495.215088 752.665222,2508.668213 724.491821,2525.505859 
	C691.885254,2544.992920 659.909424,2565.118652 627.395874,2588.862305 
	C616.735779,2588.885986 611.194824,2595.026123 608.128296,2604.450439 
	C608.128296,2604.450439 608.588440,2604.496094 606.077515,2604.979004 
	C602.330933,2606.131348 600.639160,2608.776855 600.043823,2612.402344 
	C600.043823,2612.402344 600.567871,2612.492188 598.067566,2612.957275 
	C594.349548,2614.019287 592.572021,2616.628906 592.069946,2620.112793 
	C592.069946,2620.112793 592.318726,2620.161621 589.857178,2620.761230 
	C586.234985,2621.975342 584.509033,2624.620361 584.059570,2628.079834 
	C584.059570,2628.079834 584.302429,2628.140625 581.843506,2628.749756 
M3280.011475,1828.059448 
	C3280.011475,1828.059448 3279.822266,1828.241333 3279.414062,1825.813477 
	C3276.784668,1824.123413 3274.155273,1822.433350 3271.254639,1820.727783 
	C3271.254639,1820.727783 3271.274170,1820.456909 3270.930176,1817.727905 
	C3265.916016,1810.453735 3260.340576,1804.130371 3248.375000,1803.603638 
	C3226.119385,1784.348999 3200.952881,1769.577515 3175.231689,1755.551270 
	C3124.810059,1728.054688 3071.957031,1706.953979 3015.935059,1694.061035 
	C3001.693848,1690.783691 2987.251465,1688.370972 2973.032227,1685.008545 
	C2940.494873,1677.314575 2907.180176,1675.648926 2874.121826,1674.526245 
	C2823.525635,1672.807983 2772.828125,1674.071045 2722.173584,1674.070923 
	C2600.202637,1674.070679 2478.231934,1674.049072 2356.260986,1674.125610 
	C2348.392822,1674.130493 2340.336426,1673.035400 2331.149170,1676.460449 
	C2319.149170,1697.735962 2306.939697,1719.821411 2294.315918,1741.667236 
	C2272.032715,1780.228638 2249.363037,1818.567261 2227.108643,1857.145264 
	C2209.507812,1887.656128 2192.494141,1918.506348 2174.849121,1948.991211 
	C2147.533203,1996.183960 2119.787598,2043.127686 2092.452881,2090.309814 
	C2079.468018,2112.722168 2066.947021,2135.405518 2054.405029,2158.070557 
	C2052.983643,2160.639160 2052.791748,2163.887695 2051.914062,2167.266602 
	C2061.589355,2170.116455 2070.284668,2169.111816 2078.849609,2169.113525 
	C2336.787842,2169.167725 2594.726318,2169.157227 2852.664551,2169.159912 
	C2859.329590,2169.159912 2865.995361,2169.132324 2872.659424,2169.213623 
	C2892.324707,2169.453857 2911.023438,2174.597168 2928.038818,2183.764160 
	C2949.299561,2195.217773 2966.763428,2211.028809 2979.854980,2232.127441 
	C2992.554443,2252.594482 2999.079590,2274.501465 3000.096191,2297.949707 
	C3001.277344,2325.190918 2993.593506,2350.354248 2979.259766,2373.757568 
	C2961.678467,2402.462891 2936.003662,2420.733643 2904.760010,2430.473145 
	C2888.503174,2435.540527 2871.208008,2437.530518 2853.604004,2437.510986 
	C2541.678711,2437.164307 2229.753418,2437.259277 1917.827881,2437.259033 
	C1909.891479,2437.259033 1901.955200,2437.259277 1893.535278,2437.259277 
	C1889.444336,2443.456055 1885.509399,2448.777832 1882.241699,2454.481445 
	C1870.348267,2475.240967 1858.891113,2496.251953 1846.882690,2516.943359 
	C1814.179810,2573.291992 1781.197021,2629.478271 1748.493408,2685.826660 
	C1733.156128,2712.252686 1718.328247,2738.973633 1703.053223,2765.436279 
	C1677.117188,2810.368164 1650.948364,2855.166016 1624.998779,2900.090576 
	C1611.055664,2924.229004 1597.486084,2948.583496 1583.535767,2972.717529 
	C1557.577759,3017.624756 1531.420410,3062.416748 1505.432983,3107.306885 
	C1491.117798,3132.034424 1477.084839,3156.925537 1462.738525,3181.634766 
	C1435.699341,3228.205322 1408.495850,3274.680176 1381.485352,3321.267334 
	C1379.942749,3323.928223 1379.524170,3327.240723 1378.689087,3329.908691 
	C1380.733887,3331.316650 1381.781128,3332.668945 1382.830078,3332.670166 
	C1567.444458,3332.899170 1752.059082,3333.040771 1936.673584,3333.096924 
	C1939.897827,3333.097900 1943.122314,3332.030518 1946.852661,3331.372314 
	C2023.844116,3198.116943 2100.780029,3064.957764 2177.954102,2931.386475 
	C2187.421387,2931.208008 2196.026855,2930.904541 2204.632324,2930.903564 
	C2421.913818,2930.881104 2639.195557,2930.645996 2856.476074,2931.121582 
	C2895.236572,2931.206299 2933.383301,2926.254150 2971.612793,2921.618164 
	C2988.019775,2919.628418 3004.230713,2915.536377 3020.318848,2911.546387 
	C3033.806152,2908.200928 3047.152588,2904.089600 3060.262451,2899.468994 
	C3080.246338,2892.426025 3100.104980,2884.983398 3119.775391,2877.107910 
	C3148.220459,2865.718994 3174.979980,2850.875732 3200.548096,2834.165771 
	C3223.860840,2818.929932 3247.700195,2804.219727 3268.206299,2785.097412 
	C3287.164551,2767.418701 3306.142334,2749.733887 3324.461182,2731.402100 
	C3359.434570,2696.404053 3387.452881,2656.000000 3412.285889,2613.499268 
	C3429.377686,2584.247559 3443.574463,2553.406494 3455.207764,2521.498535 
	C3465.452393,2493.399658 3473.452637,2464.720703 3480.108154,2435.498535 
	C3486.476318,2407.539795 3489.890625,2379.243652 3492.503662,2350.939941 
	C3494.822998,2325.814941 3493.229736,2300.343994 3493.753418,2275.033936 
	C3494.349854,2246.194336 3487.674072,2218.240234 3483.675537,2189.980957 
	C3482.008545,2178.200439 3478.602051,2166.549316 3474.897705,2155.194824 
	C3463.336914,2119.757568 3449.839355,2085.209717 3430.062988,2053.257568 
	C3408.930664,2019.114990 3384.546875,1987.745850 3355.077148,1960.499634 
	C3342.407715,1948.786133 3328.946777,1937.913574 3315.631348,1926.918091 
	C3294.040039,1909.088379 3270.474854,1894.022705 3246.189941,1880.306274 
	C3216.715576,1863.658936 3186.138428,1849.291382 3154.735596,1836.305298 
	C3111.581055,1818.459595 3067.219238,1804.677124 3022.268311,1792.910278 
	C2988.874756,1784.168823 2955.128906,1776.192383 2922.392334,1769.098389 
	C2928.605225,1764.022705 2936.061035,1765.611694 2943.104736,1765.418823 
	C2959.397217,1764.972778 2975.697266,1764.814819 2995.082520,1765.005737 
	C2999.207764,1765.453369 3003.333008,1765.901001 3008.339600,1768.769531 
	C3011.183350,1770.195190 3013.989502,1772.742310 3016.878174,1772.839600 
	C3026.100342,1773.150024 3035.353271,1772.550903 3047.258545,1772.739258 
	C3049.934082,1773.082153 3052.609619,1773.425049 3056.094482,1776.213989 
	C3058.687500,1777.785034 3061.200928,1780.515869 3063.889160,1780.700195 
	C3070.755859,1781.171387 3077.700928,1780.507568 3087.341309,1780.763794 
	C3090.051025,1781.285645 3092.760986,1781.807495 3096.192627,1784.613525 
	C3103.104980,1792.149780 3111.727051,1789.337769 3122.525635,1789.069214 
	C3124.172852,1789.504028 3125.819824,1789.938843 3128.335938,1792.777344 
	C3129.874756,1793.962280 3131.243896,1795.741577 3132.979492,1796.237305 
	C3145.541504,1799.824585 3158.942871,1801.546143 3170.545898,1807.075073 
	C3179.689209,1811.431885 3190.041504,1811.398438 3198.305420,1816.609131 
	C3205.707275,1821.276611 3213.112305,1821.655029 3222.776123,1821.525879 
	C3222.776123,1821.525879 3224.314209,1822.487549 3225.270752,1825.174561 
	C3237.111572,1833.437500 3250.242676,1838.149780 3264.333740,1839.483032 
	C3264.333740,1839.483032 3264.430176,1839.227783 3265.335205,1841.660522 
	C3268.532715,1845.396118 3272.641357,1845.702026 3278.741943,1845.524536 
	C3278.741943,1845.524536 3280.301514,1846.471680 3281.208984,1849.099121 
	C3287.321533,1852.701050 3293.271729,1856.629883 3299.610352,1859.776489 
	C3303.142090,1861.529419 3307.290283,1861.859009 3310.146484,1856.827026 
	C3303.773193,1848.924805 3297.986084,1840.230103 3287.997314,1836.035767 
	C3287.997314,1836.035767 3287.815186,1836.232178 3287.441406,1833.773804 
	C3284.884277,1831.901733 3282.327393,1830.029785 3280.011475,1828.059448 
z"/>
<path fill="#F90F01" opacity="1.000000" stroke="none" 
	d="
M5004.000000,1686.399902 
	C4988.687988,1705.411255 4973.372070,1722.818848 4958.070312,1740.238647 
	C4956.315918,1742.235718 4954.657227,1744.315918 4952.924316,1746.331787 
	C4929.095215,1774.048950 4905.182129,1801.694092 4881.447266,1829.491333 
	C4849.562012,1866.833618 4817.792480,1904.275269 4786.015137,1941.709229 
	C4771.830078,1958.418945 4757.741699,1975.210571 4743.614746,1991.969849 
	C4719.234863,2020.892578 4694.935547,2049.884277 4670.458496,2078.724609 
	C4649.399414,2103.537842 4628.107910,2128.153076 4606.976562,2152.904541 
	C4576.391113,2188.729492 4545.840332,2224.583984 4515.308594,2260.454590 
	C4499.810547,2278.663574 4484.421387,2296.965576 4468.919922,2315.171875 
	C4438.794922,2350.552734 4408.554688,2385.835693 4378.536133,2421.306396 
	C4372.553711,2428.375244 4367.349121,2436.103271 4360.832031,2444.800293 
	C4363.203125,2450.184326 4365.281250,2456.445557 4368.526367,2462.028564 
	C4395.551270,2508.521240 4422.962402,2554.789062 4449.916016,2601.322266 
	C4476.209473,2646.715820 4501.911621,2692.451904 4528.229492,2737.831299 
	C4549.885254,2775.172119 4572.185547,2812.138428 4593.967285,2849.406738 
	C4609.031250,2875.180908 4623.596191,2901.246094 4638.574219,2927.070801 
	C4651.896484,2950.039551 4665.558105,2972.810791 4678.927734,2995.752197 
	C4693.649902,3021.013916 4708.178223,3046.388184 4722.846680,3071.681396 
	C4741.166016,3103.269775 4759.526855,3134.833984 4777.896973,3166.392578 
	C4804.622559,3212.304443 4831.481934,3258.139648 4858.015625,3304.162598 
	C4862.852051,3312.551270 4869.384766,3320.335693 4871.143555,3331.529297 
	C4867.157227,3332.176514 4864.066895,3333.008789 4860.948242,3333.135742 
	C4801.422363,3335.558838 4325.857910,3333.968018 4308.592773,3331.245361 
	C4306.265137,3327.836914 4303.406250,3324.160156 4301.088379,3320.168701 
	C4290.745605,3302.360840 4280.604492,3284.435791 4270.303223,3266.603760 
	C4252.036133,3234.983398 4233.673828,3203.417969 4215.408691,3171.796387 
	C4186.164062,3121.166260 4156.858398,3070.570312 4127.778809,3019.845215 
	C4101.020508,2973.169922 4074.563477,2926.321533 4047.880859,2879.602539 
	C4042.941162,2870.953613 4037.693604,2862.470947 4032.321533,2854.082520 
	C4029.894287,2850.292480 4026.813721,2846.921387 4024.402832,2843.837891 
	C4021.729004,2844.499023 4020.002197,2844.385498 4019.308594,2845.177246 
	C4002.687500,2864.146973 3985.947266,2883.020508 3969.700684,2902.309082 
	C3946.613281,2929.719727 3924.124512,2957.635254 3900.967773,2984.986328 
	C3879.521729,3010.316162 3857.373047,3035.050293 3835.822998,3060.293945 
	C3806.509766,3094.630859 3777.468506,3129.200684 3748.315186,3163.674561 
	C3719.178467,3198.128418 3690.071289,3232.607178 3660.905518,3267.036621 
	C3642.470703,3288.798340 3623.952148,3310.489258 3607.093994,3330.303955 
	C3604.071289,3331.823730 3603.500244,3332.193848 3602.875244,3332.401367 
	C3602.249268,3332.610107 3601.569580,3332.759766 3600.913330,3332.760010 
	C3231.632812,3332.927490 2862.352295,3333.081787 2493.071777,3333.215576 
	C2487.075195,3333.217773 2481.076904,3333.020264 2475.083252,3332.806885 
	C2472.427246,3332.712646 2469.774170,3332.397949 2467.135254,3332.062744 
	C2466.550781,3331.988525 2466.031006,3331.405762 2463.667969,3329.906494 
	C2467.855713,3329.065674 2470.559082,3328.489990 2473.274902,3327.982178 
	C2495.471924,3323.829346 2517.673340,3319.701660 2539.867676,3315.535156 
	C2544.450684,3314.674805 2548.968750,3313.236084 2553.584717,3312.825195 
	C2577.547363,3310.691162 2600.486816,3303.633789 2623.821533,3298.499756 
	C2652.405029,3292.211182 2681.020020,3286.038086 2709.483398,3279.238037 
	C2730.827881,3274.138916 2752.044922,3268.446289 2773.154053,3262.437988 
	C2796.159912,3255.889893 2819.101318,3249.059326 2841.843018,3241.652832 
	C2872.783447,3231.576416 2903.431396,3220.603271 2934.344238,3210.439697 
	C2976.106201,3196.708984 3016.232422,3179.006104 3056.248535,3161.013916 
	C3104.813477,3139.177979 3151.894287,3114.362549 3196.908447,3086.038574 
	C3243.660645,3056.621582 3288.651855,3024.574463 3327.761963,2985.061279 
	C3331.464600,2981.320312 3336.192139,2978.614502 3340.198975,2975.145264 
	C3342.557373,2973.103760 3344.433350,2970.504883 3348.438965,2966.010742 
	C3343.452148,2965.839111 3340.823242,2964.930420 3339.120850,2965.811523 
	C3307.211426,2982.327148 3273.663086,2994.299805 3239.396729,3005.078125 
	C3213.354248,3013.269775 3186.918701,3019.427002 3160.427979,3025.274902 
	C3136.487549,3030.560059 3111.922607,3032.992676 3087.656982,3036.834961 
	C3068.657227,3039.843262 3049.723633,3043.288330 3030.405518,3043.627197 
	C3003.765625,3044.094482 2977.128174,3044.719482 2950.487061,3045.076904 
	C2946.876465,3045.125488 2943.250488,3044.017334 2939.250732,3043.384521 
	C2940.112549,3041.671631 2940.302002,3040.691895 2940.694336,3040.602295 
	C2953.008301,3037.794434 2965.320557,3034.973877 2977.677246,3032.363525 
	C2994.590576,3028.790527 3011.752930,3026.186035 3028.427490,3021.737549 
	C3059.244873,3013.515869 3089.841064,3004.612061 3119.858643,2993.526367 
	C3153.050293,2981.269287 3184.888428,2966.319580 3216.002441,2949.753906 
	C3264.901367,2923.719238 3309.865723,2891.902100 3351.867920,2855.796143 
	C3380.581055,2831.114014 3409.963623,2807.204590 3438.453613,2782.271484 
	C3457.985352,2765.177490 3475.842041,2746.146973 3495.618164,2729.361084 
	C3525.075684,2704.357910 3551.629639,2676.335938 3580.167969,2650.397949 
	C3595.441895,2636.515625 3609.897217,2621.735596 3625.073730,2607.742188 
	C3655.383057,2579.796631 3685.492188,2551.607910 3716.529541,2524.487061 
	C3740.525635,2503.518799 3765.307373,2483.365234 3790.656738,2464.052734 
	C3818.136963,2443.116943 3846.365234,2423.257812 3876.362305,2405.770508 
	C3903.474609,2389.964600 3931.300293,2376.116455 3960.604492,2365.193604 
	C3992.489746,2353.308594 4025.041504,2344.912842 4059.368164,2342.533447 
	C4084.158203,2340.815430 4108.659668,2341.881592 4133.094727,2344.333984 
	C4158.252930,2346.859375 4182.662109,2353.795166 4206.307617,2362.829834 
	C4222.371094,2368.967285 4238.105957,2375.966064 4255.347168,2383.145508 
	C4255.347168,2379.622803 4256.250977,2376.312012 4255.211914,2373.807129 
	C4239.551270,2336.053711 4218.859863,2301.013672 4191.344238,2270.991211 
	C4175.332520,2253.520264 4155.554688,2239.126221 4133.637695,2228.922607 
	C4108.907227,2217.409424 4083.099365,2208.881592 4056.367188,2203.168945 
	C4036.276123,2198.875488 4016.374756,2193.633301 3996.198975,2189.819336 
	C3981.196777,2186.983154 3966.245117,2184.028076 3951.291992,2180.967773 
	C3897.486084,2169.956299 3846.366455,2152.352783 3798.917725,2124.459961 
	C3794.387939,2121.797119 3789.372314,2119.953369 3784.540771,2117.823486 
	C3784.114746,2117.635498 3783.378906,2118.150635 3782.698486,2118.367432 
	C3779.165771,2123.050293 3783.659180,2126.229736 3785.841309,2128.455811 
	C3797.010986,2139.849365 3808.220215,2151.321533 3820.431641,2161.553467 
	C3849.223145,2185.678711 3881.892090,2203.229248 3916.937012,2216.631592 
	C3941.839600,2226.155273 3967.322266,2233.596436 3993.186523,2239.889404 
	C3994.193604,2240.134521 3994.933838,2241.477295 3996.833252,2243.304443 
	C3975.329590,2244.820557 3954.852051,2243.958008 3934.384766,2243.871826 
	C3910.276123,2243.770020 3886.744141,2239.046875 3863.419434,2234.007080 
	C3832.031494,2227.224854 3803.252686,2213.614258 3775.811279,2196.956543 
	C3728.634766,2168.319580 3690.090332,2129.893555 3653.341309,2089.490479 
	C3633.222412,2067.371094 3613.776611,2044.624268 3594.467041,2021.788452 
	C3574.311768,1997.952515 3555.476074,1972.959106 3534.634277,1949.755615 
	C3506.198242,1918.096924 3478.189697,1885.939819 3445.994629,1857.850220 
	C3436.977295,1849.982666 3428.574951,1841.414551 3419.742920,1833.329102 
	C3386.281006,1802.696777 3349.080322,1777.211914 3310.951660,1752.779419 
	C3275.021484,1729.755737 3236.458740,1712.117188 3198.004883,1694.184082 
	C3185.541504,1688.371704 3172.154541,1684.539551 3156.135254,1678.685425 
	C3161.023438,1676.244019 3162.919678,1674.578857 3164.929199,1674.428345 
	C3170.898438,1673.981079 3176.912354,1674.056885 3182.908936,1674.056519 
	C3417.547852,1674.040283 3652.186523,1674.038086 3886.825439,1674.034180 
	C3894.120605,1674.034058 3901.415771,1674.034180 3908.424316,1674.034180 
	C3911.304199,1677.279541 3913.982666,1679.449829 3915.590332,1682.237671 
	C3938.477295,1721.925537 3961.031494,1761.805908 3984.051758,1801.415649 
	C4005.069824,1837.579346 4026.597900,1873.446411 4047.808105,1909.498657 
	C4054.549316,1920.957031 4060.907715,1932.640137 4067.591797,1944.132935 
	C4083.272705,1971.094971 4098.873535,1998.106812 4114.910156,2024.856689 
	C4118.567383,2030.957642 4119.621094,2039.042603 4128.484863,2043.197998 
	C4130.955566,2041.590454 4134.775879,2040.122803 4137.149902,2037.395752 
	C4153.298828,2018.844971 4169.153809,2000.038818 4185.081543,1981.295898 
	C4214.799805,1946.323730 4244.432129,1911.278198 4274.236816,1876.379639 
	C4296.261719,1850.590332 4318.606934,1825.073853 4340.622559,1799.276367 
	C4370.401367,1764.382080 4400.031250,1729.359619 4429.652344,1694.331299 
	C4435.180176,1687.794312 4440.367676,1680.969849 4445.882812,1674.064331 
	C4455.274902,1674.064331 4463.913086,1674.064575 4472.551270,1674.064575 
	C4639.864746,1674.064453 4807.178711,1674.075195 4974.492188,1674.032471 
	C4983.144043,1674.030273 4991.795898,1673.572021 5002.223633,1672.663086 
	C5004.000000,1676.266724 5004.000000,1680.533325 5004.000000,1686.399902 
M3773.083740,2110.204590 
	C3773.083740,2110.204590 3774.039551,2110.717773 3774.039551,2110.717773 
	C3774.039551,2110.717773 3773.876465,2109.639404 3773.083740,2110.204590 
z"/>
<path fill="#F90F01" opacity="1.000000" stroke="none" 
	d="
M1425.143188,2108.650879 
	C1443.671753,2117.568115 1461.935669,2127.099365 1480.803345,2135.229492 
	C1499.466919,2143.271484 1518.256836,2150.930420 1536.295410,2159.463867 
	C1535.030884,2165.075195 1531.743164,2163.896973 1529.467407,2163.991699 
	C1522.817627,2164.268555 1516.150024,2164.134766 1509.489502,2164.135010 
	C1368.950439,2164.136963 1228.411377,2164.090820 1087.872314,2164.185059 
	C1067.907104,2164.198486 1047.905640,2164.276611 1027.988647,2165.461182 
	C1011.497925,2166.441895 995.135376,2169.402344 978.665588,2170.947021 
	C948.259644,2173.799561 918.155396,2178.435059 888.405945,2185.302979 
	C861.268005,2191.567627 834.051880,2197.552979 807.104492,2204.562256 
	C790.457886,2208.892334 774.022034,2214.297363 757.897766,2220.309082 
	C733.730225,2229.320068 709.748169,2238.883057 685.995239,2248.938965 
	C645.042114,2266.276855 605.906555,2287.230957 567.742310,2310.016113 
	C565.468811,2311.373291 563.457092,2313.217041 561.097107,2314.371582 
	C555.381348,2317.167969 550.908936,2316.608398 546.629578,2312.018799 
	C540.281860,2305.210693 534.237671,2298.112793 528.207886,2291.016602 
	C517.470947,2278.380127 506.901581,2265.601318 496.155701,2252.972656 
	C465.179413,2216.569092 434.198303,2180.169434 403.125183,2143.848633 
	C381.543365,2118.621826 359.741547,2093.583496 338.154633,2068.361328 
	C309.233795,2034.570068 280.425507,2000.682617 251.569473,1966.836060 
	C236.064285,1948.649170 220.572159,1930.451172 205.053482,1912.275757 
	C171.867645,1873.408936 138.634827,1834.582153 105.484695,1795.684937 
	C77.492325,1762.839600 49.656784,1729.860352 21.581049,1697.086914 
	C16.854624,1691.569824 11.261256,1686.795654 5.034278,1680.839111 
	C4.000000,1680.000000 4.000000,1678.000000 5.874865,1677.008301 
	C16.412334,1675.914062 25.074938,1675.721680 33.737545,1675.721558 
	C739.536865,1675.705444 1445.336182,1675.704224 2151.135498,1675.707642 
	C2157.799805,1675.707764 2164.478760,1675.545410 2171.122070,1675.942383 
	C2174.063721,1676.118164 2176.933594,1677.501709 2180.854736,1678.630249 
	C2178.740967,1683.648804 2177.599121,1687.417114 2175.686035,1690.741699 
	C2152.435547,1731.146729 2128.966064,1771.425903 2105.797363,1811.877563 
	C2098.213379,1825.119019 2091.335205,1838.764893 2084.134277,1852.225830 
	C2084.134521,1852.225830 2084.170166,1852.158936 2082.987061,1852.750977 
	C2048.698730,1910.618164 2015.517334,1967.849243 1982.552734,2025.205078 
	C1975.985107,2036.631958 1970.246338,2048.535400 1964.125366,2060.218994 
	C1964.125366,2060.218994 1964.167847,2060.156494 1962.984375,2060.741211 
	C1942.120850,2095.223145 1922.440674,2129.120605 1902.603394,2163.288574 
	C1896.202881,2163.288574 1890.899658,2163.288086 1885.596436,2163.288574 
	C1852.933594,2163.290771 1820.270874,2163.310303 1787.608032,2163.277100 
	C1782.947754,2163.272217 1778.280029,2163.137451 1773.629028,2162.847900 
	C1755.696777,2161.731689 1737.770142,2160.527832 1719.841309,2159.356445 
	C1715.368408,2158.654053 1710.895386,2157.951660 1703.506592,2156.618652 
	C1685.599609,2154.272949 1670.608643,2152.557617 1655.617554,2150.842285 
	C1654.152588,2150.362549 1652.687500,2149.883057 1648.783691,2148.779785 
	C1633.225952,2146.139893 1620.107056,2144.123291 1606.988159,2142.106934 
	C1605.617065,2141.685059 1604.245850,2141.262939 1600.290283,2140.207031 
	C1576.762207,2134.988770 1555.818604,2130.404541 1534.874878,2125.820312 
	C1533.740723,2125.190674 1532.531738,2124.782959 1528.900146,2123.714600 
	C1510.885620,2118.771484 1495.219116,2114.710693 1479.552490,2110.649902 
	C1479.552490,2110.649902 1478.806396,2109.736816 1477.059082,2108.845947 
	C1468.817993,2106.426758 1462.324219,2104.898438 1455.830322,2103.369873 
	C1454.114258,2102.517090 1452.398193,2101.664307 1448.406494,2100.033203 
	C1441.442749,2098.045654 1436.754639,2096.836914 1432.066650,2095.628174 
	C1432.066650,2095.628174 1432.026245,2095.886475 1431.339844,2094.711426 
	C1412.825684,2086.983643 1394.997803,2080.431152 1376.079712,2073.025879 
	C1360.466675,2065.701172 1345.943970,2059.228760 1330.442383,2052.079102 
	C1322.724854,2047.641846 1316.099121,2043.546631 1307.875977,2043.904297 
	C1307.857300,2043.664917 1308.120605,2043.920410 1308.824707,2045.024902 
	C1317.057373,2050.711914 1324.586060,2055.294678 1333.295410,2060.532227 
	C1347.958374,2068.637207 1361.440918,2076.087402 1376.066772,2084.397949 
	C1388.248047,2090.555176 1399.286133,2095.851562 1410.324097,2101.148193 
	C1410.324097,2101.148193 1410.408936,2101.563721 1411.502441,2102.600342 
	C1416.778320,2105.308350 1420.960693,2106.979736 1425.143188,2108.650879 
M1297.924316,2038.009644 
	C1297.924316,2038.009644 1298.012817,2038.104614 1297.924316,2038.009644 
z"/>
<path fill="#472927" opacity="1.000000" stroke="none" 
	d="
M2085.478027,1851.947754 
	C2091.335205,1838.764893 2098.213379,1825.119019 2105.797363,1811.877563 
	C2128.966064,1771.425903 2152.435547,1731.146729 2175.686035,1690.741699 
	C2177.599121,1687.417114 2178.740967,1683.648804 2180.854736,1678.630249 
	C2176.933594,1677.501709 2174.063721,1676.118164 2171.122070,1675.942383 
	C2164.478760,1675.545410 2157.799805,1675.707764 2151.135498,1675.707642 
	C1445.336182,1675.704224 739.536865,1675.705444 33.737545,1675.721558 
	C25.074938,1675.721680 16.412334,1675.914062 5.874865,1676.008301 
	C4.000000,1674.222168 4.000000,1672.444458 4.000000,1669.333252 
	C283.779327,1668.030762 563.558655,1668.078613 843.337952,1668.088379 
	C1279.660645,1668.103638 1715.983398,1668.086060 2152.306152,1668.136963 
	C2162.179443,1668.138062 2172.052979,1668.792480 2181.683838,1669.133545 
	C2187.331055,1679.370361 2188.050781,1688.169067 2180.362061,1695.857788 
	C2172.092285,1704.127686 2168.279541,1714.912354 2163.160889,1724.867554 
	C2157.094482,1736.666016 2150.879395,1748.103271 2143.053467,1758.986084 
	C2135.005615,1770.177490 2129.948486,1783.496826 2123.325684,1795.746094 
	C2120.519043,1800.937378 2116.895508,1805.680786 2113.926514,1810.792236 
	C2108.610840,1819.944336 2102.992676,1828.978638 2098.510986,1838.535645 
	C2095.793213,1844.330933 2091.929199,1848.370239 2085.478027,1851.947754 
z"/>
<path fill="#F90F01" opacity="1.000000" stroke="none" 
	d="
M3280.301514,1846.471680 
	C3280.301514,1846.471680 3278.741943,1845.524536 3277.057617,1844.363525 
	C3271.725830,1841.877563 3268.077881,1840.552612 3264.430176,1839.227783 
	C3264.430176,1839.227783 3264.333740,1839.483032 3263.658691,1838.325195 
	C3250.093994,1832.274048 3237.204102,1827.380737 3224.314209,1822.487549 
	C3224.314209,1822.487549 3222.776123,1821.525879 3220.965820,1820.314941 
	C3202.532959,1813.062012 3186.077637,1806.494263 3169.235840,1801.143066 
	C3155.553711,1796.795898 3141.407471,1793.908447 3127.467041,1790.373657 
	C3125.819824,1789.938843 3124.172852,1789.504028 3120.052002,1788.078613 
	C3110.209229,1785.501831 3102.839844,1783.915649 3095.470703,1782.329468 
	C3092.760986,1781.807495 3090.051025,1781.285645 3084.636230,1779.798462 
	C3073.049072,1777.144653 3064.167236,1775.456299 3055.285156,1773.767944 
	C3052.609619,1773.425049 3049.934082,1773.082153 3044.469238,1771.898682 
	C3030.272461,1769.488281 3018.865479,1767.918457 3007.458252,1766.348633 
	C3003.333008,1765.901001 2999.207764,1765.453369 2992.077637,1764.107056 
	C2965.746826,1761.302246 2942.420898,1759.396240 2917.332031,1757.406738 
	C2901.561279,1757.394043 2887.553711,1757.464722 2871.652344,1757.128540 
	C2856.427002,1755.949097 2843.123291,1755.760986 2827.050049,1757.812134 
	C2843.902832,1763.031128 2858.164551,1765.140381 2874.007324,1764.831055 
	C2877.624756,1765.374634 2880.027832,1765.726440 2883.760498,1766.886475 
	C2896.955566,1769.171631 2908.820801,1770.648438 2920.686035,1772.125366 
	C2955.128906,1776.192383 2988.874756,1784.168823 3022.268311,1792.910278 
	C3067.219238,1804.677124 3111.581055,1818.459595 3154.735596,1836.305298 
	C3186.138428,1849.291382 3216.715576,1863.658936 3246.189941,1880.306274 
	C3270.474854,1894.022705 3294.040039,1909.088379 3315.631348,1926.918091 
	C3328.946777,1937.913574 3342.407715,1948.786133 3355.077148,1960.499634 
	C3384.546875,1987.745850 3408.930664,2019.114990 3430.062988,2053.257568 
	C3449.839355,2085.209717 3463.336914,2119.757568 3474.897705,2155.194824 
	C3478.602051,2166.549316 3482.008545,2178.200439 3483.675537,2189.980957 
	C3487.674072,2218.240234 3494.349854,2246.194336 3493.753418,2275.033936 
	C3493.229736,2300.343994 3494.822998,2325.814941 3492.503662,2350.939941 
	C3489.890625,2379.243652 3486.476318,2407.539795 3480.108154,2435.498535 
	C3473.452637,2464.720703 3465.452393,2493.399658 3455.207764,2521.498535 
	C3443.574463,2553.406494 3429.377686,2584.247559 3412.285889,2613.499268 
	C3387.452881,2656.000000 3359.434570,2696.404053 3324.461182,2731.402100 
	C3306.142334,2749.733887 3287.164551,2767.418701 3268.206299,2785.097412 
	C3247.700195,2804.219727 3223.860840,2818.929932 3200.548096,2834.165771 
	C3174.979980,2850.875732 3148.220459,2865.718994 3119.775391,2877.107910 
	C3100.104980,2884.983398 3080.246338,2892.426025 3060.262451,2899.468994 
	C3047.152588,2904.089600 3033.806152,2908.200928 3020.318848,2911.546387 
	C3004.230713,2915.536377 2988.019775,2919.628418 2971.612793,2921.618164 
	C2933.383301,2926.254150 2895.236572,2931.206299 2856.476074,2931.121582 
	C2639.195557,2930.645996 2421.913818,2930.881104 2204.632324,2930.903564 
	C2196.026855,2930.904541 2187.421387,2931.208008 2177.954102,2931.386475 
	C2100.780029,3064.957764 2023.844116,3198.116943 1946.852661,3331.372314 
	C1943.122314,3332.030518 1939.897827,3333.097900 1936.673584,3333.096924 
	C1752.059082,3333.040771 1567.444458,3332.899170 1382.830078,3332.670166 
	C1381.781128,3332.668945 1380.733887,3331.316650 1378.689087,3329.908691 
	C1379.524170,3327.240723 1379.942749,3323.928223 1381.485352,3321.267334 
	C1408.495850,3274.680176 1435.699341,3228.205322 1462.738525,3181.634766 
	C1477.084839,3156.925537 1491.117798,3132.034424 1505.432983,3107.306885 
	C1531.420410,3062.416748 1557.577759,3017.624756 1583.535767,2972.717529 
	C1597.486084,2948.583496 1611.055664,2924.229004 1624.998779,2900.090576 
	C1650.948364,2855.166016 1677.117188,2810.368164 1703.053223,2765.436279 
	C1718.328247,2738.973633 1733.156128,2712.252686 1748.493408,2685.826660 
	C1781.197021,2629.478271 1814.179810,2573.291992 1846.882690,2516.943359 
	C1858.891113,2496.251953 1870.348267,2475.240967 1882.241699,2454.481445 
	C1885.509399,2448.777832 1889.444336,2443.456055 1893.535278,2437.259277 
	C1901.955200,2437.259277 1909.891479,2437.259033 1917.827881,2437.259033 
	C2229.753418,2437.259277 2541.678711,2437.164307 2853.604004,2437.510986 
	C2871.208008,2437.530518 2888.503174,2435.540527 2904.760010,2430.473145 
	C2936.003662,2420.733643 2961.678467,2402.462891 2979.259766,2373.757568 
	C2993.593506,2350.354248 3001.277344,2325.190918 3000.096191,2297.949707 
	C2999.079590,2274.501465 2992.554443,2252.594482 2979.854980,2232.127441 
	C2966.763428,2211.028809 2949.299561,2195.217773 2928.038818,2183.764160 
	C2911.023438,2174.597168 2892.324707,2169.453857 2872.659424,2169.213623 
	C2865.995361,2169.132324 2859.329590,2169.159912 2852.664551,2169.159912 
	C2594.726318,2169.157227 2336.787842,2169.167725 2078.849609,2169.113525 
	C2070.284668,2169.111816 2061.589355,2170.116455 2051.914062,2167.266602 
	C2052.791748,2163.887695 2052.983643,2160.639160 2054.405029,2158.070557 
	C2066.947021,2135.405518 2079.468018,2112.722168 2092.452881,2090.309814 
	C2119.787598,2043.127686 2147.533203,1996.183960 2174.849121,1948.991211 
	C2192.494141,1918.506348 2209.507812,1887.656128 2227.108643,1857.145264 
	C2249.363037,1818.567261 2272.032715,1780.228638 2294.315918,1741.667236 
	C2306.939697,1719.821411 2319.149170,1697.735962 2331.149170,1676.460449 
	C2340.336426,1673.035400 2348.392822,1674.130493 2356.260986,1674.125610 
	C2478.231934,1674.049072 2600.202637,1674.070679 2722.173584,1674.070923 
	C2772.828125,1674.071045 2823.525635,1672.807983 2874.121826,1674.526245 
	C2907.180176,1675.648926 2940.494873,1677.314575 2973.032227,1685.008545 
	C2987.251465,1688.370972 3001.693848,1690.783691 3015.935059,1694.061035 
	C3071.957031,1706.953979 3124.810059,1728.054688 3175.231689,1755.551270 
	C3200.952881,1769.577515 3226.119385,1784.348999 3250.052979,1805.653809 
	C3257.794189,1812.646362 3263.075928,1818.786377 3271.274170,1820.456909 
	C3271.274170,1820.456909 3271.254639,1820.727783 3271.506104,1821.971191 
	C3274.445801,1824.890137 3277.134033,1826.565796 3279.822266,1828.241333 
	C3279.822266,1828.241333 3280.011475,1828.059448 3280.119141,1829.317261 
	C3282.756348,1832.460693 3285.285889,1834.346436 3287.815186,1836.232178 
	C3287.815186,1836.232178 3287.997314,1836.035767 3288.010010,1837.308838 
	C3290.745361,1846.518921 3290.745361,1846.515991 3282.201904,1846.370728 
	C3281.569092,1846.359985 3280.935059,1846.436035 3280.301514,1846.471680 
z"/>
<path fill="#F90F01" opacity="1.000000" stroke="none" 
	d="
M783.407104,2573.181396 
	C781.876160,2573.480713 780.345215,2573.780029 776.278198,2574.783203 
	C766.292175,2577.387695 758.842285,2579.288086 751.392395,2581.188477 
	C749.856445,2581.487549 748.320496,2581.786377 744.138000,2582.842041 
	C706.133606,2592.582275 671.641968,2603.968262 639.022339,2620.545898 
	C637.291687,2621.104492 635.561035,2621.663086 631.694702,2623.193604 
	C621.883118,2627.499268 613.980347,2630.401367 606.593262,2634.284424 
	C598.768982,2638.396973 589.556396,2640.388916 583.895142,2648.093750 
	C583.895142,2648.093750 584.131348,2648.126953 582.804321,2648.198242 
	C579.220703,2649.663330 576.964172,2651.057373 574.707642,2652.451416 
	C573.187073,2653.018555 571.666382,2653.585693 568.778809,2653.498291 
	C570.370361,2647.276611 573.328735,2641.709229 576.287109,2636.142090 
	C576.287109,2636.142090 576.042114,2636.091797 577.322998,2635.947754 
	C580.503357,2633.249512 582.402954,2630.695068 584.302490,2628.140625 
	C584.302429,2628.140625 584.059570,2628.079834 585.331543,2627.943115 
	C588.508545,2625.258057 590.413635,2622.709961 592.318726,2620.161621 
	C592.318726,2620.161621 592.069946,2620.112793 593.422607,2620.100098 
	C597.962769,2618.513916 601.035583,2616.853271 600.567871,2612.492188 
	C600.567871,2612.492188 600.043823,2612.402344 601.614563,2612.503418 
	C606.223938,2610.726562 609.145508,2608.770264 608.588440,2604.496094 
	C608.588440,2604.496094 608.128296,2604.450439 609.724548,2604.624512 
	C617.723694,2599.609375 624.126587,2594.420410 630.529541,2589.231445 
	C659.909424,2565.118652 691.885254,2544.992920 724.491821,2525.505859 
	C752.665222,2508.668213 782.298340,2495.215088 812.524902,2483.272705 
	C842.102417,2471.587402 872.097656,2460.475098 903.549255,2454.229736 
	C915.919678,2451.773193 928.059448,2448.158447 940.425781,2445.676758 
	C953.450134,2443.062500 966.609619,2441.109131 979.729065,2438.984619 
	C990.214233,2437.286621 1000.677917,2435.096680 1011.239563,2434.307373 
	C1031.806641,2432.770264 1052.434814,2431.168701 1073.039185,2431.147461 
	C1290.321777,2430.925049 1507.604858,2431.003174 1724.887695,2431.038086 
	C1731.405273,2431.039062 1737.922974,2431.476074 1744.321045,2431.705566 
	C1745.354492,2439.445068 1742.381714,2444.625488 1739.375122,2449.786865 
	C1712.311890,2496.248291 1685.159546,2542.657715 1658.209595,2589.184570 
	C1643.267700,2614.979736 1628.799438,2641.049072 1613.873047,2666.853027 
	C1588.606079,2710.533203 1563.064331,2754.054199 1537.797363,2797.734131 
	C1523.197510,2822.973389 1509.012695,2848.452393 1494.443848,2873.709717 
	C1485.501831,2889.211914 1476.186401,2904.498779 1466.586182,2920.642822 
	C1458.407837,2920.818115 1450.474121,2921.134033 1442.540405,2921.136230 
	C1325.234375,2921.168701 1207.927856,2921.003906 1090.622681,2921.324463 
	C1072.696167,2921.373535 1054.420654,2921.826904 1036.940063,2925.290771 
	C1013.597656,2929.915771 990.966125,2937.850830 969.874939,2949.493408 
	C957.037598,2956.579834 945.063171,2964.810547 933.670532,2974.030029 
	C917.111084,2987.431641 902.434631,3002.737549 889.988831,3019.843506 
	C880.270325,3033.200684 872.385498,3047.916992 863.990967,3062.208496 
	C840.474243,3102.245361 816.912231,3142.258057 793.760864,3182.506348 
	C776.246887,3212.953857 759.396057,3243.782227 742.133423,3274.375244 
	C733.002869,3290.556396 723.704590,3306.645020 714.290771,3322.662842 
	C712.301086,3326.048096 709.476868,3328.943115 707.339600,3331.677002 
	C693.692322,3333.334229 180.257019,3334.627930 154.963120,3333.055664 
	C152.487350,3332.901855 150.060699,3331.957764 146.630829,3331.149170 
	C147.258972,3327.955322 147.141739,3325.182861 148.305069,3323.139404 
	C167.062912,3290.186768 185.918976,3257.289795 204.895187,3224.462402 
	C214.205887,3208.355225 223.974213,3192.512451 233.246475,3176.383789 
	C258.438080,3132.564209 282.682434,3088.176758 308.822876,3044.933350 
	C330.127380,3009.689941 351.937347,2974.715088 375.929321,2941.111572 
	C403.008148,2903.184326 430.256470,2865.474365 461.782104,2831.061768 
	C478.395477,2812.927002 494.279297,2794.001709 512.084473,2777.111328 
	C534.216675,2756.116699 557.135559,2735.941162 581.595825,2717.448486 
	C600.722778,2702.988525 619.741455,2688.487549 640.340271,2676.269531 
	C662.049866,2663.392578 683.826294,2650.517578 706.295105,2639.056396 
	C744.822937,2619.403564 784.831055,2603.157715 826.420715,2591.017334 
	C837.892151,2587.668457 849.373230,2584.352539 863.730164,2580.375000 
	C873.212097,2577.618164 879.813782,2575.508057 886.415466,2573.397705 
	C886.415466,2573.397705 886.820984,2573.502441 888.618774,2573.290039 
	C900.603394,2570.525635 910.790222,2567.973633 920.977051,2565.421631 
	C922.458740,2565.280273 923.940369,2565.138672 928.180359,2564.613525 
	C948.151672,2561.296387 965.364685,2558.363037 984.086060,2555.395996 
	C991.971924,2554.858154 998.216064,2553.938721 1004.337463,2549.241943 
	C996.390503,2549.241943 989.391479,2549.241943 980.686768,2549.196045 
	C945.695251,2549.220215 912.633301,2552.177490 879.704773,2556.853516 
	C876.599121,2557.034424 873.493469,2557.215088 867.379883,2557.614746 
	C860.495178,2558.456055 856.618225,2559.077393 852.741760,2559.702148 
	C829.485229,2563.449219 805.986633,2565.951660 783.407104,2573.181396 
z"/>
<path fill="#472927" opacity="1.000000" stroke="none" 
	d="
M1965.470215,2059.944336 
	C1970.246338,2048.535400 1975.985107,2036.631958 1982.552734,2025.205078 
	C2015.517334,1967.849243 2048.698730,1910.618164 2083.014404,1852.724976 
	C2079.321777,1872.340454 2069.654541,1890.216431 2057.756592,1907.145508 
	C2052.452148,1914.692993 2047.831055,1922.838013 2043.837402,1931.161743 
	C2037.812378,1943.719360 2031.194214,1955.674194 2022.970947,1967.089111 
	C2014.922852,1978.260742 2009.742676,1991.504395 2003.367920,2003.871582 
	C2001.850708,2006.814941 2001.302246,2010.621216 1999.088379,2012.779663 
	C1988.793335,2022.817383 1984.148438,2036.109741 1977.395508,2048.224854 
	C1974.937256,2052.635254 1970.402466,2055.888184 1965.470215,2059.944336 
z"/>
<path fill="#472927" opacity="1.000000" stroke="none" 
	d="
M1720.468140,2160.803711 
	C1737.770142,2160.527832 1755.696777,2161.731689 1773.629028,2162.847900 
	C1778.280029,2163.137451 1782.947754,2163.272217 1787.608032,2163.277100 
	C1820.270874,2163.310303 1852.933594,2163.290771 1885.596436,2163.288574 
	C1890.899658,2163.288086 1896.202881,2163.288574 1902.603394,2163.288574 
	C1922.440674,2129.120605 1942.120850,2095.223145 1963.009033,2060.712891 
	C1959.334839,2080.363770 1949.592773,2098.214600 1937.741577,2115.199463 
	C1932.083618,2123.308350 1927.641602,2132.289795 1922.928955,2141.027100 
	C1918.848267,2148.593018 1915.162964,2156.372314 1910.692627,2165.271729 
	C1905.196655,2165.912109 1899.387451,2167.164062 1893.575562,2167.177002 
	C1842.289795,2167.290283 1791.003296,2167.232422 1739.717407,2167.080322 
	C1733.203369,2167.061035 1726.198730,2168.083496 1720.468140,2160.803711 
z"/>
<path fill="#822C28" opacity="1.000000" stroke="none" 
	d="
M2919.094971,1757.490112 
	C2942.420898,1759.396240 2965.746826,1761.302246 2990.533691,1763.874146 
	C2975.697266,1764.814819 2959.397217,1764.972778 2943.104736,1765.418823 
	C2936.061035,1765.611694 2928.605225,1764.022705 2921.539062,1770.611816 
	C2908.820801,1770.648438 2896.955566,1769.171631 2885.620605,1766.533325 
	C2894.643311,1765.233032 2903.139648,1765.196655 2911.627441,1764.914429 
	C2916.229492,1764.761597 2918.649902,1762.022461 2919.094971,1757.490112 
z"/>
<path fill="#4D2D2B" opacity="1.000000" stroke="none" 
	d="
M881.238281,2557.367432 
	C912.633301,2552.177490 945.695251,2549.220215 980.681030,2550.226562 
	C982.446472,2552.678711 982.512085,2554.054199 982.577698,2555.429688 
	C965.364685,2558.363037 948.151672,2561.296387 929.217407,2564.196533 
	C923.385986,2558.834717 917.382324,2559.276611 911.643250,2559.022949 
	C902.021484,2558.596680 892.395813,2558.257324 881.238281,2557.367432 
z"/>
<path fill="#4D2D2B" opacity="1.000000" stroke="none" 
	d="
M640.356506,2621.057617 
	C671.641968,2603.968262 706.133606,2592.582275 743.166748,2583.506836 
	C743.197327,2585.356445 741.913818,2588.383057 739.851562,2589.069580 
	C720.594116,2595.479004 701.086365,2601.148682 681.903625,2607.764893 
	C673.256348,2610.747314 664.959045,2614.984619 656.924683,2619.416992 
	C651.867798,2622.206787 647.020874,2622.643066 640.356506,2621.057617 
z"/>
<path fill="#822C28" opacity="1.000000" stroke="none" 
	d="
M3127.901367,1791.575439 
	C3141.407471,1793.908447 3155.553711,1796.795898 3169.235840,1801.143066 
	C3186.077637,1806.494263 3202.532959,1813.062012 3220.140625,1819.938477 
	C3213.112305,1821.655029 3205.707275,1821.276611 3198.305420,1816.609131 
	C3190.041504,1811.398438 3179.689209,1811.431885 3170.545898,1807.075073 
	C3158.942871,1801.546143 3145.541504,1799.824585 3132.979492,1796.237305 
	C3131.243896,1795.741577 3129.874756,1793.962280 3127.901367,1791.575439 
z"/>
<path fill="#472927" opacity="1.000000" stroke="none" 
	d="
M1377.170166,2073.878418 
	C1394.997803,2080.431152 1412.825684,2086.983643 1431.470459,2094.706055 
	C1425.622437,2095.761230 1418.762573,2094.397705 1411.571411,2100.029297 
	C1399.286133,2095.851562 1388.248047,2090.555176 1376.347168,2082.768799 
	C1376.046143,2078.145508 1376.608154,2076.011963 1377.170166,2073.878418 
z"/>
<path fill="#4D2D2B" opacity="1.000000" stroke="none" 
	d="
M785.094360,2573.634766 
	C805.986633,2565.951660 829.485229,2563.449219 852.741760,2559.702148 
	C856.618225,2559.077393 860.495178,2558.456055 865.844666,2557.866211 
	C865.500366,2562.586670 862.381897,2565.887695 857.177612,2566.278809 
	C851.219604,2566.726562 845.218262,2566.601074 839.261414,2567.058594 
	C833.326355,2567.514893 826.583740,2566.797607 821.675110,2569.393311 
	C810.337708,2575.388916 798.774231,2575.309326 785.094360,2573.634766 
z"/>
<path fill="#472927" opacity="1.000000" stroke="none" 
	d="
M1535.315186,2127.204346 
	C1555.818604,2130.404541 1576.762207,2134.988770 1599.209717,2140.175537 
	C1589.014648,2143.770752 1577.786987,2144.531006 1566.301025,2138.572754 
	C1560.782593,2135.710205 1553.638062,2135.869873 1547.188477,2134.952881 
	C1542.475342,2134.282715 1538.041260,2133.461182 1535.315186,2127.204346 
z"/>
<path fill="#822C28" opacity="1.000000" stroke="none" 
	d="
M3280.755371,1847.785400 
	C3280.935059,1846.436035 3281.569092,1846.359985 3282.201904,1846.370728 
	C3290.745361,1846.515991 3290.745361,1846.518921 3287.890137,1837.367432 
	C3297.986084,1840.230103 3303.773193,1848.924805 3310.146484,1856.827026 
	C3307.290283,1861.859009 3303.142090,1861.529419 3299.610352,1859.776489 
	C3293.271729,1856.629883 3287.321533,1852.701050 3280.755371,1847.785400 
z"/>
<path fill="#472927" opacity="1.000000" stroke="none" 
	d="
M1480.080078,2112.087646 
	C1495.219116,2114.710693 1510.885620,2118.771484 1527.941895,2123.644043 
	C1520.427856,2127.591797 1511.924561,2128.046387 1503.217041,2122.985840 
	C1498.917603,2120.486816 1493.356079,2120.260254 1488.576294,2118.448975 
	C1485.709839,2117.362793 1483.250244,2115.202881 1480.080078,2112.087646 
z"/>
<path fill="#4D2D2B" opacity="1.000000" stroke="none" 
	d="
M585.416870,2647.914062 
	C589.556396,2640.388916 598.768982,2638.396973 606.593262,2634.284424 
	C613.980347,2630.401367 621.883118,2627.499268 631.068848,2623.869629 
	C632.055420,2624.760986 631.865173,2626.533447 630.959290,2627.049072 
	C616.832275,2635.092773 603.255188,2644.348389 585.416870,2647.914062 
z"/>
<path fill="#822C28" opacity="1.000000" stroke="none" 
	d="
M3224.792480,1823.831055 
	C3237.204102,1827.380737 3250.093994,1832.274048 3263.795166,1838.318970 
	C3250.242676,1838.149780 3237.111572,1833.437500 3224.792480,1823.831055 
z"/>
<path fill="#4D2D2B" opacity="1.000000" stroke="none" 
	d="
M574.970947,2636.459229 
	C573.328735,2641.709229 570.370361,2647.276611 567.945801,2654.395996 
	C562.823303,2662.996826 562.823303,2662.996826 552.890015,2658.165039 
	C558.032837,2649.137695 565.134521,2642.321289 574.970947,2636.459229 
z"/>
<path fill="#822C28" opacity="1.000000" stroke="none" 
	d="
M3007.898926,1767.559082 
	C3018.865479,1767.918457 3030.272461,1769.488281 3043.136963,1771.680664 
	C3035.353271,1772.550903 3026.100342,1773.150024 3016.878174,1772.839600 
	C3013.989502,1772.742310 3011.183350,1770.195190 3007.898926,1767.559082 
z"/>
<path fill="#472927" opacity="1.000000" stroke="none" 
	d="
M1656.228760,2152.321045 
	C1670.608643,2152.557617 1685.599609,2154.272949 1702.113525,2156.633789 
	C1690.855957,2160.769043 1677.887207,2159.278809 1665.011597,2158.329102 
	C1662.191650,2158.121338 1659.558960,2155.376465 1656.228760,2152.321045 
z"/>
<path fill="#472927" opacity="1.000000" stroke="none" 
	d="
M1607.446167,2143.500244 
	C1620.107056,2144.123291 1633.225952,2146.139893 1647.604126,2148.791748 
	C1638.418945,2149.857666 1627.976807,2150.488281 1617.528687,2150.617920 
	C1613.497192,2150.667969 1609.859985,2148.905518 1607.446167,2143.500244 
z"/>
<path fill="#822C28" opacity="1.000000" stroke="none" 
	d="
M3055.689941,1774.990967 
	C3064.167236,1775.456299 3073.049072,1777.144653 3083.272949,1779.565430 
	C3077.700928,1780.507568 3070.755859,1781.171387 3063.889160,1780.700195 
	C3061.200928,1780.515869 3058.687500,1777.785034 3055.689941,1774.990967 
z"/>
<path fill="#4D2D2B" opacity="1.000000" stroke="none" 
	d="
M919.236572,2565.046387 
	C910.790222,2567.973633 900.603394,2570.525635 888.675415,2573.088379 
	C888.989014,2567.870117 892.672424,2564.733398 898.419250,2564.634521 
	C904.776062,2564.525146 911.137024,2564.648682 919.236572,2565.046387 
z"/>
<path fill="#822C28" opacity="1.000000" stroke="none" 
	d="
M3095.831543,1783.471436 
	C3102.839844,1783.915649 3110.209229,1785.501831 3118.796631,1787.818848 
	C3111.727051,1789.337769 3103.104980,1792.149780 3095.831543,1783.471436 
z"/>
<path fill="#4D2D2B" opacity="1.000000" stroke="none" 
	d="
M628.962708,2589.046875 
	C624.126587,2594.420410 617.723694,2599.609375 609.937622,2604.715088 
	C611.194824,2595.026123 616.735779,2588.885986 628.962708,2589.046875 
z"/>
<path fill="#822C28" opacity="1.000000" stroke="none" 
	d="
M3271.102051,1819.092407 
	C3263.075928,1818.786377 3257.794189,1812.646362 3250.976562,1806.603882 
	C3260.340576,1804.130371 3265.916016,1810.453735 3271.102051,1819.092407 
z"/>
<path fill="#4D2D2B" opacity="1.000000" stroke="none" 
	d="
M752.924500,2581.630371 
	C758.842285,2579.288086 766.292175,2577.387695 775.311768,2575.448730 
	C775.167236,2580.562744 771.013916,2582.187744 766.190979,2582.391113 
	C762.290955,2582.555664 758.368896,2582.198242 752.924500,2581.630371 
z"/>
<path fill="#472927" opacity="1.000000" stroke="none" 
	d="
M1456.437988,2104.786621 
	C1462.324219,2104.898438 1468.817993,2106.426758 1476.494385,2108.676758 
	C1470.413452,2110.827393 1463.110229,2112.513916 1456.437988,2104.786621 
z"/>
<path fill="#4D2D2B" opacity="1.000000" stroke="none" 
	d="
M884.739014,2573.063965 
	C879.813782,2575.508057 873.212097,2577.618164 865.128357,2579.804199 
	C867.500977,2570.388428 875.721863,2572.754395 884.739014,2573.063965 
z"/>
<path fill="#472927" opacity="1.000000" stroke="none" 
	d="
M1432.385254,2096.846924 
	C1436.754639,2096.836914 1441.442749,2098.045654 1447.424072,2099.992188 
	C1442.875977,2102.869385 1437.180054,2104.132568 1432.385254,2096.846924 
z"/>
<path fill="#822C28" opacity="1.000000" stroke="none" 
	d="
M3264.882812,1840.444092 
	C3268.077881,1840.552612 3271.725830,1841.877563 3276.225098,1843.990967 
	C3272.641357,1845.702026 3268.532715,1845.396118 3264.882812,1840.444092 
z"/>
<path fill="#5F302D" opacity="1.000000" stroke="none" 
	d="
M1424.557373,2107.266602 
	C1420.960693,2106.979736 1416.778320,2105.308350 1411.714478,2102.604980 
	C1415.908569,2100.886963 1420.815430,2100.715576 1424.557373,2107.266602 
z"/>
<path fill="#822C28" opacity="1.000000" stroke="none" 
	d="
M3279.618164,1827.027344 
	C3277.134033,1826.565796 3274.445801,1824.890137 3271.641602,1821.979004 
	C3274.155273,1822.433350 3276.784668,1824.123413 3279.618164,1827.027344 
z"/>
<path fill="#4D2D2B" opacity="1.000000" stroke="none" 
	d="
M607.333008,2604.737549 
	C609.145508,2608.770264 606.223938,2610.726562 601.867676,2612.595703 
	C600.639160,2608.776855 602.330933,2606.131348 607.333008,2604.737549 
z"/>
<path fill="#4D2D2B" opacity="1.000000" stroke="none" 
	d="
M599.317749,2612.724609 
	C601.035583,2616.853271 597.962769,2618.513916 593.476746,2620.214600 
	C592.572021,2616.628906 594.349548,2614.019287 599.317749,2612.724609 
z"/>
<path fill="#4D2D2B" opacity="1.000000" stroke="none" 
	d="
M591.087952,2620.461426 
	C590.413635,2622.709961 588.508545,2625.258057 585.383911,2628.056641 
	C584.509033,2624.620361 586.234985,2621.975342 591.087952,2620.461426 
z"/>
<path fill="#4D2D2B" opacity="1.000000" stroke="none" 
	d="
M583.072998,2628.445312 
	C582.402954,2630.695068 580.503357,2633.249512 577.384155,2636.056885 
	C576.511414,2632.628662 578.227356,2629.975586 583.072998,2628.445312 
z"/>
<path fill="#822C28" opacity="1.000000" stroke="none" 
	d="
M3287.628418,1835.002930 
	C3285.285889,1834.346436 3282.756348,1832.460693 3279.998535,1829.366455 
	C3282.327393,1830.029785 3284.884277,1831.901733 3287.628418,1835.002930 
z"/>
<path fill="#4D2D2B" opacity="1.000000" stroke="none" 
	d="
M575.731812,2652.851562 
	C576.964172,2651.057373 579.220703,2649.663330 582.790100,2648.079834 
	C583.820557,2652.646240 580.797729,2653.646973 575.731812,2652.851562 
z"/>
<path fill="#010000" opacity="1.000000" stroke="none" 
	d="
M3773.479980,2109.921875 
	C3773.876465,2109.639404 3774.039551,2110.717773 3774.039551,2110.717773 
	C3774.039551,2110.717773 3773.083740,2110.204590 3773.479980,2109.921875 
z"/>
<path fill="#7B433F" opacity="1.000000" stroke="none" 
	d="
M1376.079834,2073.025879 
	C1376.608154,2076.011963 1376.046143,2078.145508 1375.203857,2081.908203 
	C1361.440918,2076.087402 1347.958374,2068.637207 1333.123535,2058.751953 
	C1331.654663,2055.130127 1331.537964,2053.943359 1331.421265,2052.756348 
	C1345.943970,2059.228760 1360.466675,2065.701172 1376.079834,2073.025879 
z"/>
<path fill="#B22C24" opacity="1.000000" stroke="none" 
	d="
M1330.442383,2052.079102 
	C1331.537964,2053.943359 1331.654663,2055.130127 1331.943115,2058.096924 
	C1324.586060,2055.294678 1317.057373,2050.711914 1308.764771,2045.076904 
	C1308.000854,2044.024536 1307.894531,2044.143555 1307.894531,2044.143555 
	C1316.099121,2043.546631 1322.724854,2047.641846 1330.442383,2052.079102 
z"/>
<path fill="#B22C24" opacity="1.000000" stroke="none" 
	d="
M1308.060791,2043.972412 
	C1308.120605,2043.920410 1307.857300,2043.664917 1307.875977,2043.904297 
	C1307.894531,2044.143555 1308.000854,2044.024536 1308.060791,2043.972412 
z"/>
<path fill="#B22C24" opacity="1.000000" stroke="none" 
	d="
M1297.968506,2038.057129 
	C1298.012817,2038.104614 1297.924316,2038.009644 1297.968506,2038.057129 
z"/>
<path fill="#010000" opacity="1.000000" stroke="none" 
	d="
M2917.332031,1757.406738 
	C2918.649902,1762.022461 2916.229492,1764.761597 2911.627441,1764.914429 
	C2903.139648,1765.196655 2894.643311,1765.233032 2884.290527,1765.725098 
	C2880.027832,1765.726440 2877.624756,1765.374634 2874.003174,1763.633545 
	C2873.038330,1760.674805 2873.292236,1759.104980 2873.546143,1757.535278 
	C2887.553711,1757.464722 2901.561279,1757.394043 2917.332031,1757.406738 
z"/>
<path fill="#822C28" opacity="1.000000" stroke="none" 
	d="
M2871.652344,1757.128540 
	C2873.292236,1759.104980 2873.038330,1760.674805 2872.788574,1763.441895 
	C2858.164551,1765.140381 2843.902832,1763.031128 2827.050049,1757.812134 
	C2843.123291,1755.760986 2856.427002,1755.949097 2871.652344,1757.128540 
z"/>
<path fill="#9A352F" opacity="1.000000" stroke="none" 
	d="
M984.086060,2555.395996 
	C982.512085,2554.054199 982.446472,2552.678711 982.386597,2550.272461 
	C989.391479,2549.241943 996.390503,2549.241943 1004.337463,2549.241943 
	C998.216064,2553.938721 991.971924,2554.858154 984.086060,2555.395996 
z"/>
</svg>