<?xml version="1.0" encoding="utf-8"?>
<svg viewBox="0 0 5000 1662" width="5000px" height="1662px" xmlns="http://www.w3.org/2000/svg">
  <path fill="#F90F01" opacity="1.000000" stroke="none" d="M 4986.999 13.74 C 4971.726 32.754 4956.451 50.166 4941.186 67.589 C 4939.438 69.587 4937.782 71.668 4936.054 73.684 C 4912.286 101.406 4888.431 129.057 4864.758 156.86 C 4832.953 194.21 4801.263 231.659 4769.566 269.1 C 4755.418 285.813 4741.367 302.608 4727.276 319.371 C 4702.957 348.299 4678.72 377.297 4654.304 406.144 C 4633.296 430.962 4612.059 455.582 4590.984 480.337 C 4560.473 516.169 4530 552.032 4499.547 587.91 C 4484.087 606.121 4468.737 624.427 4453.275 642.638 C 4423.226 678.026 4393.062 713.316 4363.12 748.793 C 4357.153 755.864 4351.962 763.593 4345.461 772.292 C 4347.825 777.677 4349.9 783.939 4353.134 789.524 C 4380.091 836.026 4407.435 882.303 4434.32 928.845 C 4460.546 974.249 4486.185 1019.994 4512.434 1065.382 C 4534.035 1102.73 4556.279 1139.704 4578.005 1176.98 C 4593.031 1202.759 4607.558 1228.829 4622.499 1254.66 C 4635.787 1277.632 4649.414 1300.409 4662.752 1323.354 C 4677.436 1348.621 4691.928 1374.001 4706.56 1399.299 C 4724.832 1430.894 4743.147 1462.465 4761.469 1494.029 C 4788.127 1539.95 4814.92 1585.796 4841.386 1631.828 C 4846.211 1640.217 4852.727 1648.003 4854.482 1659.198 C 4850.505 1659.846 4847.423 1660.679 4844.311 1660.806 C 4784.936 1663.23 4310.575 1661.638 4293.355 1658.915 C 4291.033 1655.507 4288.181 1651.829 4285.869 1647.836 C 4275.551 1630.025 4265.435 1612.097 4255.162 1594.26 C 4236.939 1562.633 4218.624 1531.062 4200.407 1499.434 C 4171.235 1448.794 4142.004 1398.187 4112.997 1347.452 C 4086.307 1300.768 4059.918 1253.909 4033.303 1207.181 C 4028.375 1198.532 4023.142 1190.047 4017.783 1181.656 C 4015.362 1177.865 4012.29 1174.494 4009.884 1171.41 C 4007.216 1172.072 4005.495 1171.957 4004.802 1172.749 C 3988.225 1191.723 3971.526 1210.599 3955.321 1229.893 C 3932.291 1257.309 3909.859 1285.229 3886.762 1312.586 C 3865.37 1337.922 3843.278 1362.661 3821.781 1387.91 C 3792.543 1422.253 3763.576 1456.83 3734.494 1491.31 C 3705.432 1525.771 3676.398 1560.257 3647.306 1594.694 C 3628.919 1616.459 3610.447 1638.155 3593.631 1657.973 C 3590.616 1659.494 3590.045 1659.864 3589.422 1660.071 C 3588.799 1660.28 3588.12 1660.43 3587.465 1660.43 C 3219.12 1660.597 2850.775 1660.752 2482.43 1660.885 C 2476.448 1660.888 2470.466 1660.69 2464.487 1660.477 C 2461.836 1660.383 2459.191 1660.068 2456.558 1659.733 C 2455.977 1659.658 2455.458 1659.075 2453.102 1657.575 C 2457.278 1656.735 2459.974 1656.159 2462.682 1655.651 C 2484.824 1651.497 2506.969 1647.369 2529.108 1643.202 C 2533.679 1642.341 2538.185 1640.902 2542.79 1640.491 C 2566.691 1638.357 2589.573 1631.298 2612.848 1626.163 C 2641.361 1619.873 2669.901 1613.699 2698.292 1606.897 C 2719.584 1601.797 2740.747 1596.103 2761.802 1590.094 C 2784.75 1583.545 2807.635 1576.712 2830.318 1569.304 C 2861.18 1559.226 2891.751 1548.25 2922.585 1538.085 C 2964.242 1524.352 3004.265 1506.645 3044.181 1488.65 C 3092.622 1466.809 3139.585 1441.988 3184.483 1413.658 C 3231.119 1384.236 3275.997 1352.182 3315.007 1312.661 C 3318.7 1308.919 3323.415 1306.213 3327.413 1302.743 C 3329.764 1300.702 3331.634 1298.103 3335.631 1293.607 C 3330.657 1293.435 3328.036 1292.526 3326.338 1293.408 C 3294.508 1309.927 3261.046 1321.902 3226.865 1332.682 C 3200.887 1340.876 3174.519 1347.034 3148.095 1352.884 C 3124.217 1358.17 3099.714 1360.603 3075.509 1364.446 C 3056.559 1367.454 3037.673 1370.9 3018.403 1371.239 C 2991.83 1371.706 2965.262 1372.331 2938.686 1372.69 C 2935.085 1372.738 2931.467 1371.629 2927.478 1370.996 C 2928.338 1369.284 2928.527 1368.303 2928.919 1368.213 C 2941.202 1365.405 2953.482 1362.584 2965.808 1359.972 C 2982.679 1356.399 2999.799 1353.794 3016.431 1349.345 C 3047.171 1341.122 3077.689 1332.216 3107.63 1321.128 C 3140.737 1308.868 3172.494 1293.915 3203.53 1277.347 C 3252.306 1251.307 3297.156 1219.484 3339.052 1183.371 C 3367.693 1158.684 3397.001 1134.77 3425.417 1109.831 C 3444.899 1092.733 3462.712 1073.7 3482.438 1056.91 C 3511.822 1031.902 3538.308 1003.875 3566.774 977.931 C 3582.009 964.047 3596.426 949.264 3611.567 935.267 C 3641.798 907.316 3671.83 879.121 3702.789 851.995 C 3726.727 831.023 3751.445 810.865 3776.729 791.549 C 3804.14 770.608 3832.296 750.745 3862.218 733.254 C 3889.263 717.446 3917.016 703.595 3946.247 692.67 C 3978.052 680.782 4010.522 672.385 4044.76 670.005 C 4069.488 668.286 4093.927 669.353 4118.301 671.806 C 4143.396 674.331 4167.742 681.269 4191.328 690.306 C 4207.349 696.444 4223.045 703.444 4240.243 710.624 C 4240.243 707.101 4241.146 703.79 4240.108 701.285 C 4224.487 663.524 4203.848 628.477 4176.402 598.448 C 4160.431 580.973 4140.705 566.577 4118.842 556.371 C 4094.174 544.855 4068.431 536.326 4041.768 530.613 C 4021.728 526.317 4001.877 521.074 3981.752 517.26 C 3966.786 514.423 3951.872 511.467 3936.959 508.407 C 3883.289 497.393 3832.299 479.786 3784.97 451.888 C 3780.452 449.224 3775.447 447.38 3770.63 445.249 C 3770.203 445.061 3769.47 445.578 3768.792 445.794 C 3765.269 450.477 3769.75 453.658 3771.926 455.885 C 3783.067 467.28 3794.248 478.754 3806.429 488.988 C 3835.147 513.119 3867.734 530.673 3902.691 544.079 C 3927.531 553.603 3952.947 561.045 3978.747 567.34 C 3979.752 567.584 3980.49 568.929 3982.383 570.755 C 3960.936 572.272 3940.509 571.41 3920.095 571.323 C 3896.045 571.221 3872.574 566.498 3849.307 561.457 C 3817.999 554.673 3789.294 541.059 3761.92 524.398 C 3714.865 495.756 3676.418 457.322 3639.761 416.911 C 3619.693 394.787 3600.296 372.036 3581.036 349.195 C 3560.931 325.354 3542.143 300.356 3521.355 277.148 C 3492.991 245.483 3465.054 213.32 3432.94 185.225 C 3423.946 177.355 3415.563 168.784 3406.756 160.698 C 3373.378 130.06 3336.272 104.57 3298.239 80.132 C 3262.4 57.105 3223.935 39.462 3185.577 21.525 C 3173.147 15.713 3159.794 11.879 3143.814 6.023 C 3148.691 3.582 3150.581 1.917 3152.586 1.765 C 3158.54 1.318 3164.54 1.394 3170.519 1.393 C 3404.564 1.377 3638.609 1.375 3872.654 1.371 C 3879.932 1.371 3887.208 1.371 3894.198 1.371 C 3897.07 4.617 3899.743 6.788 3901.347 9.577 C 3924.174 49.272 3946.671 89.161 3969.636 128.778 C 3990.599 164.949 4012.073 200.823 4033.228 236.883 C 4039.953 248.344 4046.296 260.029 4052.964 271.525 C 4068.606 298.492 4084.165 325.509 4100.161 352.265 C 4103.809 358.367 4104.861 366.453 4113.703 370.609 C 4116.167 369.001 4119.977 367.534 4122.345 364.806 C 4138.453 346.252 4154.267 327.442 4170.156 308.695 C 4199.799 273.716 4229.356 238.663 4259.084 203.758 C 4281.054 177.963 4303.344 152.441 4325.304 126.639 C 4355.006 91.738 4384.562 56.709 4414.107 21.672 C 4419.621 15.134 4424.795 8.309 4430.295 1.401 C 4439.666 1.401 4448.281 1.401 4456.896 1.401 C 4623.786 1.401 4790.678 1.412 4957.568 1.369 C 4966.198 1.367 4974.828 0.909 4985.229 0 C 4986.999 3.605 4986.999 7.871 4986.999 13.74 M 3759.202 437.63 C 3759.202 437.63 3760.155 438.143 3760.155 438.143 C 3760.155 438.143 3759.99 437.064 3759.202 437.63 Z" style=""/>
  <path fill="#F90F01" opacity="1.000000" stroke="none" d="M 1417.204 433.063 C 1435.686 441.982 1453.904 451.514 1472.725 459.646 C 1491.341 467.69 1510.085 475.35 1528.075 483.886 C 1526.814 489.498 1523.535 488.32 1521.266 488.415 C 1514.633 488.691 1507.983 488.558 1501.338 488.558 C 1361.155 488.56 1220.971 488.514 1080.786 488.608 C 1060.873 488.621 1040.923 488.7 1021.057 489.884 C 1004.607 490.866 988.285 493.826 971.858 495.372 C 941.529 498.224 911.5 502.861 881.827 509.73 C 854.758 515.996 827.611 521.983 800.731 528.994 C 784.127 533.324 767.732 538.73 751.649 544.743 C 727.542 553.756 703.622 563.321 679.929 573.379 C 639.08 590.72 600.044 611.679 561.974 634.468 C 559.707 635.825 557.7 637.67 555.346 638.824 C 549.646 641.622 545.185 641.061 540.916 636.472 C 534.585 629.662 528.556 622.563 522.541 615.466 C 511.832 602.826 501.289 590.044 490.57 577.413 C 459.67 541.002 428.768 504.595 397.774 468.268 C 376.248 443.036 354.502 417.991 332.971 392.765 C 304.121 358.967 275.386 325.073 246.603 291.22 C 231.136 273.029 215.684 254.827 200.204 236.649 C 167.103 197.774 133.954 158.939 100.888 120.034 C 72.966 87.183 45.201 54.195 17.196 21.416 C 12.484 15.898 6.903 11.123 0.692 5.165 C -0.341 4.325 -0.341 2.326 1.53 1.333 C 12.04 0.239 20.682 0.047 29.325 0.046 C 733.335 0.03 1437.347 0.029 2141.359 0.033 C 2148.007 0.033 2154.67 -0.13 2161.295 0.267 C 2164.23 0.443 2167.092 1.827 2171.004 2.955 C 2168.895 7.975 2167.755 11.744 2165.848 15.07 C 2142.656 55.484 2119.247 95.77 2096.135 136.229 C 2088.572 149.474 2081.71 163.123 2074.528 176.587 C 2074.528 176.587 2074.563 176.52 2073.384 177.111 C 2039.181 234.991 2006.084 292.233 1973.203 349.601 C 1966.652 361.03 1960.927 372.935 1954.823 384.621 C 1954.823 384.621 1954.865 384.559 1953.683 385.143 C 1932.873 419.632 1913.244 453.537 1893.455 487.71 C 1887.072 487.71 1881.783 487.71 1876.492 487.71 C 1843.912 487.713 1811.332 487.732 1778.752 487.699 C 1774.104 487.694 1769.449 487.56 1764.808 487.271 C 1746.922 486.154 1729.042 484.95 1711.156 483.778 C 1706.695 483.076 1702.234 482.374 1694.863 481.04 C 1677.002 478.694 1662.049 476.979 1647.098 475.262 C 1645.634 474.782 1644.173 474.304 1640.28 473.2 C 1624.761 470.56 1611.675 468.542 1598.589 466.525 C 1597.223 466.103 1595.854 465.682 1591.909 464.625 C 1568.44 459.406 1547.55 454.82 1526.659 450.235 C 1525.527 449.606 1524.323 449.198 1520.7 448.13 C 1502.731 443.185 1487.105 439.124 1471.475 435.062 C 1471.475 435.062 1470.732 434.149 1468.989 433.258 C 1460.771 430.839 1454.293 429.31 1447.815 427.781 C 1446.102 426.928 1444.391 426.075 1440.409 424.444 C 1433.464 422.456 1428.787 421.246 1424.111 420.037 C 1424.111 420.037 1424.071 420.295 1423.386 419.12 C 1404.919 411.391 1387.138 404.837 1368.267 397.431 C 1352.693 390.104 1338.208 383.631 1322.743 376.479 C 1315.046 372.042 1308.435 367.946 1300.234 368.303 C 1300.217 368.063 1300.479 368.319 1301.182 369.424 C 1309.393 375.112 1316.903 379.696 1325.591 384.934 C 1340.215 393.04 1353.665 400.492 1368.254 408.805 C 1380.403 414.963 1391.414 420.26 1402.423 425.559 C 1402.423 425.559 1402.508 425.975 1403.6 427.011 C 1408.861 429.719 1413.033 431.391 1417.204 433.063 M 1290.308 362.408 C 1290.308 362.408 1290.397 362.503 1290.308 362.408 Z" style=""/>
  <path fill="#F90F01" opacity="1.000000" stroke="none" d="M 3267.666 172.883 C 3267.666 172.883 3266.11 171.935 3264.432 170.773 C 3259.113 168.287 3255.475 166.963 3251.835 165.637 C 3251.835 165.637 3251.74 165.892 3251.067 164.734 C 3237.534 158.681 3224.678 153.787 3211.821 148.892 C 3211.821 148.892 3210.288 147.932 3208.48 146.721 C 3190.096 139.466 3173.681 132.897 3156.882 127.544 C 3143.235 123.197 3129.124 120.309 3115.218 116.774 C 3113.575 116.338 3111.932 115.903 3107.822 114.478 C 3098.006 111.901 3090.655 110.315 3083.304 108.727 C 3080.601 108.205 3077.898 107.683 3072.497 106.195 C 3060.94 103.542 3052.078 101.853 3043.221 100.164 C 3040.55 99.821 3037.882 99.478 3032.431 98.295 C 3018.271 95.883 3006.893 94.313 2995.513 92.743 C 2991.398 92.295 2987.284 91.848 2980.173 90.502 C 2953.909 87.695 2930.642 85.789 2905.617 83.8 C 2889.886 83.787 2875.912 83.858 2860.051 83.521 C 2844.865 82.341 2831.595 82.154 2815.562 84.205 C 2832.373 89.425 2846.598 91.534 2862.4 91.225 C 2866.008 91.77 2868.407 92.121 2872.129 93.281 C 2885.293 95.567 2897.127 97.044 2908.961 98.521 C 2943.316 102.588 2976.979 110.567 3010.287 119.31 C 3055.122 131.079 3099.372 144.865 3142.42 162.714 C 3173.741 175.702 3204.241 190.074 3233.642 206.724 C 3257.864 220.443 3281.37 235.511 3302.906 253.345 C 3316.189 264.342 3329.617 275.217 3342.254 286.933 C 3371.647 314.185 3395.969 345.56 3417.049 379.709 C 3436.775 411.668 3450.237 446.222 3461.77 481.668 C 3465.465 493.024 3468.864 504.677 3470.527 516.46 C 3474.514 544.725 3481.172 572.685 3480.576 601.531 C 3480.055 626.846 3481.646 652.321 3479.332 677.452 C 3476.726 705.761 3473.32 734.063 3466.966 762.027 C 3460.329 791.256 3452.347 819.94 3442.131 848.045 C 3430.524 879.958 3416.366 910.806 3399.318 940.063 C 3374.547 982.573 3346.6 1022.985 3311.713 1057.99 C 3293.441 1076.326 3274.513 1094.015 3255.6 1111.696 C 3235.148 1130.822 3211.37 1145.536 3188.116 1160.774 C 3162.612 1177.488 3135.919 1192.334 3107.546 1203.725 C 3087.927 1211.602 3068.116 1219.046 3048.183 1226.091 C 3035.107 1230.713 3021.794 1234.825 3008.342 1238.171 C 2992.294 1242.161 2976.126 1246.254 2959.758 1248.245 C 2921.625 1252.881 2883.577 1257.834 2844.913 1257.749 C 2628.183 1257.274 2411.453 1257.509 2194.72 1257.531 C 2186.138 1257.532 2177.552 1257.836 2168.11 1258.015 C 2091.133 1391.613 2014.39 1524.799 1937.593 1658.081 C 1933.873 1658.739 1930.656 1659.807 1927.442 1659.806 C 1743.294 1659.75 1559.144 1659.608 1374.999 1659.379 C 1373.952 1659.378 1372.91 1658.026 1370.868 1656.617 C 1371.7 1653.949 1372.119 1650.635 1373.658 1647.973 C 1400.6 1601.377 1427.734 1554.893 1454.707 1508.313 C 1469.017 1483.599 1483.013 1458.703 1497.291 1433.971 C 1523.213 1389.072 1549.305 1344.271 1575.198 1299.354 C 1589.111 1275.214 1602.648 1250.856 1616.555 1226.712 C 1642.44 1181.779 1668.542 1136.972 1694.412 1092.031 C 1709.647 1065.564 1724.439 1038.838 1739.736 1012.406 C 1772.359 956.046 1805.258 899.848 1837.878 843.488 C 1849.854 822.793 1861.282 801.777 1873.146 781.014 C 1876.405 775.309 1880.33 769.987 1884.412 763.788 C 1892.81 763.788 1900.726 763.788 1908.643 763.788 C 2219.777 763.788 2530.914 763.693 2842.048 764.04 C 2859.609 764.059 2876.86 762.069 2893.075 757 C 2924.241 747.26 2949.849 728.985 2967.386 700.274 C 2981.684 676.866 2989.349 651.698 2988.169 624.451 C 2987.157 600.997 2980.646 579.086 2967.982 558.615 C 2954.921 537.512 2937.504 521.699 2916.297 510.242 C 2899.323 501.073 2880.672 495.93 2861.056 495.69 C 2854.408 495.608 2847.76 495.636 2841.113 495.636 C 2583.826 495.633 2326.542 495.644 2069.257 495.589 C 2060.714 495.588 2052.04 496.592 2042.39 493.742 C 2043.265 490.363 2043.457 487.113 2044.873 484.543 C 2057.383 461.874 2069.873 439.186 2082.827 416.769 C 2110.091 369.579 2137.766 322.625 2165.013 275.422 C 2182.612 244.932 2199.585 214.075 2217.142 183.558 C 2239.339 144.972 2261.95 106.627 2284.177 68.057 C 2296.769 46.206 2308.947 24.116 2320.916 2.836 C 2330.08 -0.589 2338.119 0.506 2345.966 0.502 C 2467.629 0.425 2589.289 0.447 2710.952 0.447 C 2761.478 0.447 2812.046 -0.817 2862.514 0.902 C 2895.491 2.026 2928.719 3.691 2961.175 11.386 C 2975.358 14.75 2989.763 17.164 3003.968 20.441 C 3059.85 33.337 3112.568 54.442 3162.864 81.944 C 3188.52 95.972 3213.622 110.747 3237.494 132.057 C 3245.217 139.05 3250.483 145.192 3258.662 146.863 C 3258.662 146.863 3258.642 147.133 3258.894 148.377 C 3261.826 151.296 3264.507 152.973 3267.187 154.648 C 3267.187 154.648 3267.377 154.466 3267.484 155.724 C 3270.114 158.868 3272.638 160.754 3275.161 162.641 C 3275.161 162.641 3275.341 162.444 3275.356 163.717 C 3278.084 172.93 3278.084 172.927 3269.561 172.782 C 3268.93 172.771 3268.297 172.847 3267.666 172.883 Z" style=""/>
  <path fill="#F90F01" opacity="1.000000" stroke="none" d="M 777.093 900.666 C 775.567 900.966 774.038 901.265 769.981 902.268 C 760.022 904.873 752.592 906.774 745.159 908.674 C 743.628 908.973 742.097 909.273 737.925 910.329 C 700.016 920.07 665.611 931.458 633.073 948.04 C 631.348 948.598 629.622 949.158 625.765 950.689 C 615.978 954.994 608.096 957.897 600.728 961.781 C 592.923 965.895 583.734 967.887 578.087 975.594 C 578.087 975.594 578.324 975.627 577 975.698 C 573.424 977.163 571.175 978.557 568.923 979.951 C 567.407 980.519 565.888 981.086 563.008 980.999 C 564.597 974.776 567.547 969.208 570.499 963.639 C 570.499 963.639 570.255 963.589 571.531 963.445 C 574.703 960.746 576.598 958.191 578.493 955.637 C 578.493 955.637 578.251 955.576 579.52 955.439 C 582.69 952.754 584.59 950.205 586.49 947.656 C 586.49 947.656 586.24 947.607 587.589 947.594 C 592.12 946.008 595.185 944.347 594.718 939.984 C 594.718 939.984 594.195 939.894 595.763 939.995 C 600.359 938.218 603.274 936.261 602.717 931.987 C 602.717 931.987 602.259 931.941 603.852 932.115 C 611.831 927.099 618.217 921.909 624.603 916.719 C 653.909 892.602 685.803 872.472 718.329 852.981 C 746.43 836.14 775.988 822.684 806.14 810.74 C 835.64 799.051 865.56 787.937 896.931 781.691 C 909.271 779.233 921.379 775.617 933.715 773.136 C 946.706 770.52 959.832 768.567 972.917 766.443 C 983.378 764.745 993.816 762.554 1004.351 761.764 C 1024.865 760.226 1045.441 758.625 1065.992 758.603 C 1282.725 758.382 1499.457 758.459 1716.19 758.494 C 1722.691 758.495 1729.194 758.932 1735.574 759.161 C 1736.607 766.902 1733.64 772.084 1730.642 777.247 C 1703.648 823.717 1676.563 870.136 1649.681 916.672 C 1634.777 942.473 1620.345 968.547 1605.456 994.357 C 1580.254 1038.045 1554.776 1081.575 1529.574 1125.264 C 1515.012 1150.508 1500.864 1175.992 1486.332 1201.255 C 1477.412 1216.76 1468.119 1232.05 1458.542 1248.198 C 1450.385 1248.373 1442.471 1248.688 1434.557 1248.69 C 1317.549 1248.723 1200.539 1248.559 1083.532 1248.878 C 1065.651 1248.927 1047.421 1249.382 1029.984 1252.846 C 1006.702 1257.472 984.128 1265.408 963.091 1277.053 C 950.286 1284.141 938.34 1292.373 926.977 1301.595 C 910.46 1315 895.821 1330.308 883.406 1347.417 C 873.711 1360.778 865.847 1375.497 857.473 1389.79 C 834.017 1429.835 810.513 1469.857 787.421 1510.113 C 769.952 1540.567 753.143 1571.401 735.925 1602.001 C 726.817 1618.185 717.543 1634.276 708.153 1650.298 C 706.168 1653.684 703.353 1656.579 701.221 1659.314 C 687.606 1660.971 175.471 1662.265 150.242 1660.693 C 147.771 1660.54 145.352 1659.595 141.931 1658.786 C 142.557 1655.592 142.44 1652.818 143.599 1650.774 C 162.31 1617.815 181.119 1584.912 200.047 1552.078 C 209.335 1535.968 219.078 1520.121 228.326 1503.99 C 253.455 1460.161 277.637 1415.765 303.712 1372.512 C 324.962 1337.262 346.717 1302.28 370.647 1268.669 C 397.66 1230.735 424.839 1193.017 456.284 1158.599 C 472.854 1140.46 488.697 1121.531 506.458 1104.636 C 528.533 1083.639 551.396 1063.458 575.793 1044.962 C 594.873 1030.499 613.843 1015.994 634.39 1003.775 C 656.043 990.895 677.764 978.017 700.178 966.554 C 738.608 946.897 778.514 930.649 819.999 918.505 C 831.441 915.155 842.891 911.839 857.214 907.862 C 866.672 905.103 873.257 902.993 879.84 900.883 C 879.84 900.883 880.247 900.987 882.039 900.775 C 893.993 898.01 904.154 895.458 914.315 892.906 C 915.794 892.763 917.27 892.622 921.502 892.096 C 941.422 888.778 958.592 885.845 977.264 882.877 C 985.131 882.339 991.359 881.419 997.464 876.722 C 989.539 876.722 982.557 876.722 973.875 876.676 C 938.971 876.7 905.992 879.658 873.148 884.335 C 870.051 884.516 866.951 884.697 860.855 885.096 C 853.988 885.938 850.12 886.558 846.253 887.184 C 823.056 890.932 799.617 893.435 777.093 900.666 Z" style=""/>
  <path fill="#010000" opacity="1.000000" stroke="none" d="M 3759.596 436.385 C 3759.99 436.103 3760.155 437.182 3760.155 437.182 C 3760.155 437.182 3759.202 436.668 3759.596 436.385 Z" style=""/>
</svg>