<svg version="1.1" id="Layer_1" xmlns="http://www.w3.org/2000/svg" xmlns:xlink="http://www.w3.org/1999/xlink" x="0px" y="0px"
	 width="100%" viewBox="0 0 2059 1656" enable-background="new 0 0 2059 1656" xml:space="preserve">
<path fill="#000000" opacity="1.000000" stroke="none" 
	d="
M2060.000000,872.000000 
	C2060.000000,1133.666626 2060.000000,1395.333374 2060.000000,1657.000000 
	C2050.590576,1657.000000 2041.262329,1657.000000 2031.467041,1656.531372 
	C2031.000000,1609.155396 2031.000000,1562.247925 2031.000000,1515.316284 
	C2029.610107,1515.160034 2028.962158,1515.023804 2028.314331,1515.023438 
	C2002.655884,1515.008545 1976.997192,1514.951538 1951.339844,1515.116455 
	C1949.500732,1515.128174 1947.280518,1516.375610 1945.901001,1517.726074 
	C1935.186890,1528.215210 1924.862427,1539.112915 1913.923340,1549.356323 
	C1909.523438,1553.476318 1909.566895,1557.691040 1910.512329,1563.119629 
	C1931.995361,1563.119629 1953.246704,1563.119629 1974.606689,1563.119629 
	C1974.606689,1577.625366 1974.606689,1591.659058 1974.606689,1605.690063 
	C1943.967163,1605.690063 1913.721802,1605.690063 1883.398560,1605.690063 
	C1883.398560,1561.019165 1883.398560,1516.659302 1883.398560,1472.000000 
	C1885.776733,1472.000000 1887.760986,1472.000000 1889.745361,1472.000000 
	C1921.568481,1472.000000 1953.391968,1472.067139 1985.213867,1471.867920 
	C1987.664551,1471.852661 1990.681396,1470.559204 1992.453857,1468.845093 
	C2003.949463,1457.727295 2014.953857,1446.095459 2026.597534,1435.140259 
	C2031.010620,1430.988281 2031.682983,1426.738281 2030.536621,1421.213379 
	C2029.447144,1421.138184 2028.479736,1421.012939 2027.512329,1421.012695 
	C1974.529419,1421.002319 1921.546265,1420.971558 1868.563721,1421.122070 
	C1866.590820,1421.127686 1864.201660,1422.481323 1862.719360,1423.934082 
	C1850.702148,1435.711792 1838.779175,1447.589111 1827.045044,1459.647705 
	C1825.420654,1461.317017 1824.133789,1464.140869 1824.125977,1466.435181 
	C1823.959961,1514.752319 1823.961060,1563.070435 1824.120239,1611.387695 
	C1824.127808,1613.699463 1825.311157,1616.564331 1826.922607,1618.224609 
	C1838.292969,1629.939697 1849.939209,1641.386719 1861.430054,1652.985962 
	C1862.523193,1654.089600 1863.154297,1655.651123 1864.000000,1657.000000 
	C1838.644653,1657.000000 1813.289307,1657.000000 1787.467041,1656.531372 
	C1787.000000,1577.822876 1787.000000,1499.582886 1787.000000,1421.598633 
	C1780.115356,1419.855835 1775.459961,1421.560547 1770.895508,1426.364014 
	C1757.930664,1440.008057 1744.316650,1453.033203 1731.178955,1466.517334 
	C1729.458252,1468.283325 1728.156738,1471.298950 1728.134888,1473.748901 
	C1727.914185,1498.572998 1728.000122,1523.399780 1728.000000,1548.225830 
	C1727.999878,1550.703247 1728.000000,1553.180664 1728.000000,1557.319824 
	C1725.557495,1555.553223 1723.773560,1554.840454 1722.882690,1553.523560 
	C1717.643677,1545.780640 1712.637695,1537.880737 1707.507690,1530.063477 
	C1684.471313,1494.959473 1661.373535,1459.895264 1638.461792,1424.710083 
	C1636.664917,1421.950684 1634.872925,1420.922852 1631.708496,1420.945190 
	C1615.047485,1421.063110 1598.385254,1420.992798 1581.723389,1421.014160 
	C1580.281494,1421.015991 1578.839722,1421.210205 1577.000000,1421.344116 
	C1577.000000,1500.113403 1577.000000,1578.556763 1577.000000,1657.000000 
	C1564.978027,1657.000000 1552.955933,1657.000000 1540.467041,1656.531372 
	C1539.999756,1640.757812 1540.016113,1625.452881 1539.978638,1610.147949 
	C1539.973877,1608.183716 1540.815063,1605.372437 1536.534912,1606.102295 
	C1518.823486,1606.038086 1501.577026,1606.038086 1484.430176,1606.038086 
	C1484.204590,1604.769165 1484.044434,1604.288330 1484.044189,1603.807373 
	C1484.022705,1561.332153 1484.045776,1518.856689 1483.946411,1476.381714 
	C1483.937744,1472.688110 1485.562256,1471.933472 1488.803467,1471.955322 
	C1503.960693,1472.057983 1519.118896,1472.000244 1534.276855,1471.999878 
	C1536.044800,1471.999878 1537.812622,1472.000000 1539.572021,1472.000000 
	C1539.572021,1454.629761 1539.572021,1437.932495 1539.572021,1421.320312 
	C1482.914307,1421.320312 1426.685181,1421.320312 1370.413574,1421.320312 
	C1370.413574,1438.340820 1370.413574,1455.037964 1370.413574,1472.193848 
	C1389.072144,1472.193848 1407.321289,1472.193848 1425.594116,1472.193848 
	C1425.594116,1517.011841 1425.594116,1561.363647 1425.594116,1606.177979 
	C1406.943359,1606.177979 1388.694336,1606.177979 1370.000000,1606.177979 
	C1370.000000,1623.425903 1370.000000,1640.212891 1370.000000,1657.000000 
	C1357.978027,1657.000000 1345.955933,1657.000000 1333.467041,1656.531372 
	C1333.000000,1577.838745 1333.000000,1499.614746 1333.000000,1421.009033 
	C1313.667603,1421.009033 1295.037964,1420.959473 1276.410156,1421.120605 
	C1275.173462,1421.131226 1273.508423,1422.473389 1272.790771,1423.651855 
	C1266.308594,1434.295776 1260.010498,1445.051636 1253.626099,1455.755249 
	C1239.262085,1479.837402 1224.868652,1503.902222 1210.515991,1527.991333 
	C1208.098022,1532.049561 1206.376831,1532.171875 1204.056885,1528.247437 
	C1196.546997,1515.542847 1189.101807,1502.799927 1181.537720,1490.127808 
	C1168.595581,1468.446045 1155.524170,1446.841064 1142.667847,1425.108887 
	C1140.943359,1422.193848 1139.147095,1420.882935 1135.652344,1420.921021 
	C1119.328857,1421.099487 1103.002441,1421.000122 1086.677002,1421.000000 
	C1084.913574,1421.000000 1083.150024,1421.000000 1081.000000,1421.000000 
	C1081.000000,1500.134766 1081.000000,1578.567383 1081.000000,1657.000000 
	C1070.644653,1657.000000 1060.289307,1657.000000 1049.467041,1656.531738 
	C1048.767456,1649.951172 1049.545532,1643.585205 1048.088135,1637.780518 
	C1045.222168,1626.365356 1041.148193,1615.250977 1037.512939,1604.031982 
	C1029.182373,1578.323242 1020.833374,1552.620483 1012.457947,1526.926270 
	C1001.492981,1493.287598 990.411316,1459.686646 979.619934,1425.992554 
	C978.297302,1421.863159 976.342224,1420.874512 972.277771,1420.906372 
	C948.120117,1421.095947 923.960144,1420.978394 899.801086,1421.017456 
	C894.653748,1421.025757 888.317139,1419.485718 884.714783,1421.908936 
	C881.510193,1424.064697 881.348145,1430.728394 879.820740,1435.395020 
	C871.312500,1461.390381 862.782654,1487.378784 854.288818,1513.378906 
	C844.268372,1544.051514 834.081299,1574.671997 824.351074,1605.436646 
	C819.033630,1622.249146 810.836304,1638.510010 813.000000,1657.000000 
	C802.644653,1657.000000 792.289307,1657.000000 781.466980,1656.531372 
	C781.000000,1609.157349 781.000000,1562.251953 781.000000,1515.319580 
	C779.617432,1515.162109 778.970337,1515.024414 778.323059,1515.024048 
	C752.666260,1515.008911 727.009094,1514.951660 701.353455,1515.115967 
	C699.513000,1515.127930 697.288269,1516.365967 695.910522,1517.715942 
	C684.725281,1528.675049 673.866760,1539.972412 662.533569,1550.773071 
	C658.647034,1554.477173 658.557617,1558.227661 659.569458,1563.158691 
	C681.372620,1563.158691 702.955017,1563.158691 724.588379,1563.158691 
	C724.588379,1577.664551 724.588379,1591.698120 724.588379,1605.673706 
	C693.931458,1605.673706 663.687256,1605.673706 633.411987,1605.673706 
	C633.411987,1560.988159 633.411987,1516.630127 633.411987,1472.000000 
	C635.807983,1472.000000 637.795471,1472.000000 639.783020,1472.000000 
	C671.437561,1472.000000 703.092407,1471.944458 734.746338,1472.079102 
	C738.205994,1472.093872 740.593628,1471.075439 742.987793,1468.630615 
	C754.060730,1457.323364 765.088989,1445.952637 776.620850,1435.123901 
	C781.057251,1430.958130 781.614319,1426.694336 780.576355,1421.234253 
	C779.591980,1421.148438 778.788452,1421.017334 777.984985,1421.017212 
	C724.838684,1421.005249 671.692322,1420.972778 618.546448,1421.122681 
	C616.575500,1421.128418 614.190796,1422.492065 612.707458,1423.945801 
	C600.691589,1435.723267 588.768738,1447.599365 577.035706,1459.657715 
	C575.412415,1461.326050 574.133301,1464.152588 574.125427,1466.447998 
	C573.959961,1514.762207 573.961182,1563.077271 574.120483,1611.391602 
	C574.128052,1613.702881 575.313416,1616.566406 576.924988,1618.226929 
	C588.294617,1629.941406 599.940125,1641.387695 611.430298,1652.986206 
	C612.523499,1654.089722 613.154419,1655.651123 614.000000,1657.000000 
	C541.977966,1657.000000 469.955963,1657.000000 397.180084,1656.731934 
	C409.306427,1643.447144 422.256927,1630.498291 434.979279,1617.328735 
	C436.597076,1615.653931 437.867401,1612.829834 437.875366,1610.533203 
	C438.040710,1562.895752 438.039429,1515.257324 437.880066,1467.619751 
	C437.872345,1465.307617 436.697113,1462.438110 435.085388,1460.781982 
	C423.005524,1448.369141 410.764313,1436.108398 398.332794,1424.048218 
	C396.575470,1422.343384 393.516724,1421.133179 391.055756,1421.125244 
	C339.587128,1420.959229 288.117828,1421.000000 236.648682,1421.000000 
	C234.888062,1421.000000 233.127441,1421.000000 231.000000,1421.000000 
	C231.000000,1500.147583 231.000000,1578.573730 231.000000,1657.000000 
	C205.644653,1657.000000 180.289307,1657.000000 154.179993,1656.732056 
	C165.723526,1644.037109 177.929245,1631.516846 190.389847,1619.255615 
	C193.139374,1616.549927 194.071335,1613.837891 194.065674,1610.106445 
	C193.973053,1549.129517 193.999954,1488.152466 193.999954,1427.175415 
	C193.999954,1425.244995 193.999939,1423.314575 193.999939,1421.424316 
	C137.271576,1421.424316 81.248413,1421.424316 25.483086,1421.424316 
	C23.787849,1427.609497 25.834099,1431.761230 30.155960,1435.855957 
	C41.520355,1446.622803 52.313267,1457.990967 63.575024,1468.869751 
	C65.346130,1470.580688 68.364861,1471.835327 70.824409,1471.865723 
	C90.314102,1472.106689 109.808098,1472.000000 129.300766,1472.000000 
	C131.066544,1472.000000 132.832336,1472.000000 134.570282,1472.000000 
	C134.570282,1517.047119 134.570282,1561.405640 134.570282,1606.000000 
	C132.149704,1606.000000 130.158234,1606.000000 128.166763,1606.000000 
	C101.676727,1606.000000 75.186180,1606.079224 48.697205,1605.911621 
	C44.866962,1605.887329 42.255722,1607.073730 39.623802,1609.767578 
	C28.330982,1621.326172 16.847704,1632.699097 5.364405,1644.069580 
	C4.141431,1645.280518 2.465647,1646.034180 0.999975,1647.000000 
	C1.000000,1388.978027 1.000000,1130.955933 1.363924,872.488037 
	C5.514749,878.482300 9.806679,884.689758 12.918431,891.441162 
	C15.148314,896.279114 18.169437,897.091309 22.930634,897.088135 
	C183.907593,896.981201 344.884674,897.025940 505.861542,896.873230 
	C510.769775,896.868591 513.285278,898.588684 515.368103,902.685364 
	C525.508423,922.630676 535.814941,942.491760 546.097168,962.364746 
	C555.850464,981.215332 565.669556,1000.031921 575.418518,1018.884766 
	C590.683838,1048.405151 605.908569,1077.946533 621.161865,1107.473022 
	C631.130310,1126.769409 641.096375,1146.067139 651.155884,1165.315918 
	C651.737122,1166.428101 653.137512,1167.848877 654.180542,1167.868774 
	C664.288025,1168.061035 674.400574,1167.984253 684.999634,1167.984253 
	C684.999634,1165.448364 684.999634,1163.490479 684.999634,1161.532471 
	C684.999634,880.239319 684.993835,598.946106 685.065247,317.652985 
	C685.066162,314.085968 684.180115,311.521576 681.576172,308.929047 
	C641.306885,268.836243 601.124695,228.655716 561.036133,188.382233 
	C558.428467,185.762527 555.836487,184.932404 552.292847,184.937439 
	C491.134979,185.024368 429.976929,185.040207 368.819366,184.880402 
	C365.782745,184.872482 362.352661,183.741333 359.784149,182.082672 
	C347.523621,174.165253 335.502136,165.877899 323.387115,157.734772 
	C294.248779,138.149414 265.121674,118.547279 235.960037,98.996674 
	C206.531998,79.267456 177.059952,59.603828 147.622284,39.888927 
	C129.895599,28.017065 112.185387,16.120432 94.517509,4.161431 
	C93.452835,3.440775 92.828979,2.068870 92.000000,1.000000 
	C717.355347,1.000000 1342.710693,1.000000 1968.830811,1.278660 
	C1968.621826,2.408453 1967.725830,3.374433 1966.662842,4.093660 
	C1948.453857,16.413614 1930.252197,28.744743 1911.992676,40.989811 
	C1882.568481,60.722095 1853.085815,80.367050 1823.659668,100.096519 
	C1782.779419,127.505714 1741.953979,154.996674 1701.002075,182.298279 
	C1698.596924,183.901703 1695.277832,184.882416 1692.380981,184.889328 
	C1631.058960,185.035492 1569.736450,185.025131 1508.414185,184.932693 
	C1505.015381,184.927567 1502.578735,185.780136 1500.121582,188.247009 
	C1459.903442,228.623566 1419.599487,268.914917 1379.242310,309.152710 
	C1376.963135,311.425140 1375.929810,313.655914 1375.930664,316.939392 
	C1376.005981,598.722412 1376.000244,880.505432 1376.000244,1162.288452 
	C1376.000244,1164.055664 1376.000366,1165.822876 1376.000366,1167.987793 
	C1386.642334,1167.987793 1396.611572,1168.081543 1406.573730,1167.860718 
	C1407.725952,1167.835205 1409.265137,1166.287476 1409.907715,1165.067749 
	C1421.866943,1142.366577 1433.745239,1119.622681 1445.582153,1096.857422 
	C1455.220459,1078.321289 1464.789062,1059.748901 1474.376221,1041.186157 
	C1489.626221,1011.659180 1504.888550,982.138489 1520.101074,952.592285 
	C1528.540039,936.201782 1536.948486,919.794922 1545.239136,903.329224 
	C1547.514526,898.810364 1550.366211,896.842590 1555.882324,896.848999 
	C1716.353516,897.034912 1876.824951,896.979248 2037.296265,897.088806 
	C2042.552490,897.092407 2046.552734,896.654541 2048.226562,890.698547 
	C2049.002441,887.937195 2050.943359,885.464783 2052.544678,882.982849 
	C2054.942627,879.265747 2057.506592,875.655640 2060.000000,872.000000 
M812.500000,357.000671 
	C910.907471,357.000671 1009.314880,357.000671 1107.666504,357.000671 
	C1107.666504,480.735901 1107.666504,603.652222 1107.666504,727.000305 
	C1105.371216,727.000305 1103.404541,727.000305 1101.437866,727.000305 
	C1053.105835,727.000305 1004.773743,727.000366 956.441711,727.000122 
	C955.275085,727.000122 953.944397,727.353516 952.980469,726.910522 
	C951.550476,726.253418 949.459167,725.201050 949.241516,724.022766 
	C946.978394,711.772217 945.018921,699.465332 943.005981,687.169006 
	C940.569031,672.282532 938.240845,657.377747 935.720886,642.505371 
	C932.901733,625.867371 929.883057,609.263245 927.020203,592.632446 
	C924.191467,576.199097 921.449036,559.750916 918.663330,543.277588 
	C868.386230,543.277588 818.463745,543.277588 768.377869,543.277588 
	C768.377869,662.255920 768.377869,780.956726 768.377869,899.999207 
	C770.396057,899.999207 772.042725,899.999268 773.689392,899.999268 
	C903.852539,899.999268 1034.015625,900.015747 1164.178711,899.872864 
	C1166.628052,899.870178 1169.695557,898.601135 1171.432739,896.874573 
	C1211.029541,857.515015 1250.508301,818.036194 1289.868286,778.439697 
	C1291.595703,776.701965 1292.871704,773.636963 1292.874023,771.188843 
	C1293.014648,619.693054 1293.014893,468.197113 1292.870605,316.701324 
	C1292.868286,314.263092 1291.528564,311.223572 1289.793457,309.477997 
	C1250.550903,269.999634 1211.148926,230.679642 1171.849731,191.257462 
	C1169.581299,188.981964 1167.357544,187.926941 1164.066772,187.929062 
	C1033.903564,188.012604 903.740417,188.000137 773.577271,188.000137 
	C771.822815,188.000137 770.068359,188.000153 768.311035,188.000153 
	C768.311035,244.692032 768.311035,300.609863 768.311035,357.000671 
	C782.912292,357.000671 797.206177,357.000671 812.500000,357.000671 
z"/>
<path fill="#C8102E" opacity="1.000000" stroke="none" 
	d="
M2060.000000,871.562500 
	C2057.506592,875.655640 2054.942627,879.265747 2052.544678,882.982849 
	C2050.943359,885.464783 2049.002441,887.937195 2048.226562,890.698547 
	C2046.552734,896.654541 2042.552490,897.092407 2037.296265,897.088806 
	C1876.824951,896.979248 1716.353516,897.034912 1555.882324,896.848999 
	C1550.366211,896.842590 1547.514526,898.810364 1545.239136,903.329224 
	C1536.948486,919.794922 1528.540039,936.201782 1520.101074,952.592285 
	C1504.888550,982.138489 1489.626221,1011.659180 1474.376221,1041.186157 
	C1464.789062,1059.748901 1455.220459,1078.321289 1445.582153,1096.857422 
	C1433.745239,1119.622681 1421.866943,1142.366577 1409.907715,1165.067749 
	C1409.265137,1166.287476 1407.725952,1167.835205 1406.573730,1167.860718 
	C1396.611572,1168.081543 1386.642334,1167.987793 1376.000366,1167.987793 
	C1376.000366,1165.822876 1376.000244,1164.055664 1376.000244,1162.288452 
	C1376.000244,880.505432 1376.005981,598.722412 1375.930664,316.939392 
	C1375.929810,313.655914 1376.963135,311.425140 1379.242310,309.152710 
	C1419.599487,268.914917 1459.903442,228.623566 1500.121582,188.247009 
	C1502.578735,185.780136 1505.015381,184.927567 1508.414185,184.932693 
	C1569.736450,185.025131 1631.058960,185.035492 1692.380981,184.889328 
	C1695.277832,184.882416 1698.596924,183.901703 1701.002075,182.298279 
	C1741.953979,154.996674 1782.779419,127.505714 1823.659668,100.096519 
	C1853.085815,80.367050 1882.568481,60.722095 1911.992676,40.989811 
	C1930.252197,28.744743 1948.453857,16.413614 1966.662842,4.093660 
	C1967.725830,3.374433 1968.621826,2.408453 1969.297729,1.278660 
	C1980.354248,1.000000 1991.708496,1.000000 2003.516846,1.368055 
	C1996.443970,16.547209 1988.920898,31.360384 1981.388428,46.168816 
	C1971.610596,65.391724 1961.828247,84.612381 1952.042236,103.831177 
	C1942.405884,122.756386 1932.754639,141.673981 1923.124878,160.602463 
	C1913.420898,179.676697 1903.743042,198.764236 1894.038452,217.838257 
	C1884.408081,236.766556 1874.722656,255.666916 1865.127075,274.612793 
	C1852.034180,300.463593 1838.930786,326.309662 1826.031006,352.256775 
	C1824.255615,355.827820 1822.279541,357.108582 1818.222290,357.102020 
	C1734.731567,356.967255 1651.240601,357.000671 1567.749756,357.000702 
	C1565.644897,357.000702 1563.540039,357.000702 1561.416138,357.000702 
	C1561.416138,479.680634 1561.416138,601.707703 1561.416138,723.718201 
	C1622.440186,723.718201 1683.047607,723.718201 1744.129761,723.718201 
	C1742.714966,715.328430 1741.359253,707.284302 1740.002319,699.240417 
	C1737.521729,684.534607 1735.055908,669.826294 1732.555298,655.123901 
	C1730.055176,640.423523 1727.504761,625.731750 1725.004395,611.031372 
	C1722.778687,597.945496 1720.615356,584.848999 1718.378052,571.765137 
	C1716.969604,563.527832 1715.344360,555.325500 1714.064575,547.068909 
	C1713.151123,541.175415 1714.101807,540.015259 1719.108398,540.012207 
	C1752.771362,539.991760 1786.434570,539.968872 1820.097046,540.101868 
	C1821.704956,540.108154 1823.874390,541.156067 1824.824585,542.432068 
	C1834.330322,555.196777 1843.672852,568.083984 1852.987549,580.989868 
	C1867.963989,601.740051 1882.831787,622.568665 1897.842896,643.293640 
	C1915.167603,667.212830 1932.646240,691.020386 1949.967285,714.942139 
	C1964.974731,735.668518 1979.804932,756.523193 1994.804077,777.255615 
	C2015.481934,805.837280 2036.235718,834.364014 2057.013184,862.873474 
	C2057.695801,863.810364 2058.990479,864.301208 2060.000000,865.000000 
	C2060.000000,867.041687 2060.000000,869.083313 2060.000000,871.562500 
z"/>
<path fill="#C8102E" opacity="1.000000" stroke="none" 
	d="
M91.531342,1.000000 
	C92.828979,2.068870 93.452835,3.440775 94.517509,4.161431 
	C112.185387,16.120432 129.895599,28.017065 147.622284,39.888927 
	C177.059952,59.603828 206.531998,79.267456 235.960037,98.996674 
	C265.121674,118.547279 294.248779,138.149414 323.387115,157.734772 
	C335.502136,165.877899 347.523621,174.165253 359.784149,182.082672 
	C362.352661,183.741333 365.782745,184.872482 368.819366,184.880402 
	C429.976929,185.040207 491.134979,185.024368 552.292847,184.937439 
	C555.836487,184.932404 558.428467,185.762527 561.036133,188.382233 
	C601.124695,228.655716 641.306885,268.836243 681.576172,308.929047 
	C684.180115,311.521576 685.066162,314.085968 685.065247,317.652985 
	C684.993835,598.946106 684.999634,880.239319 684.999634,1161.532471 
	C684.999634,1163.490479 684.999634,1165.448364 684.999634,1167.984253 
	C674.400574,1167.984253 664.288025,1168.061035 654.180542,1167.868774 
	C653.137512,1167.848877 651.737122,1166.428101 651.155884,1165.315918 
	C641.096375,1146.067139 631.130310,1126.769409 621.161865,1107.473022 
	C605.908569,1077.946533 590.683838,1048.405151 575.418518,1018.884766 
	C565.669556,1000.031921 555.850464,981.215332 546.097168,962.364746 
	C535.814941,942.491760 525.508423,922.630676 515.368103,902.685364 
	C513.285278,898.588684 510.769775,896.868591 505.861542,896.873230 
	C344.884674,897.025940 183.907593,896.981201 22.930634,897.088135 
	C18.169437,897.091309 15.148314,896.279114 12.918431,891.441162 
	C9.806679,884.689758 5.514749,878.482300 1.363924,872.021057 
	C1.000000,869.958313 1.000000,867.916687 1.358900,865.422241 
	C2.502103,864.220520 3.421033,863.569702 4.049942,862.707336 
	C10.432231,853.956177 16.765818,845.169495 23.115654,836.394653 
	C37.829605,816.061462 52.548359,795.731812 67.258759,775.396057 
	C79.568985,758.378235 91.850296,741.339478 104.180351,724.336121 
	C119.782730,702.820129 135.452286,681.352844 151.034760,659.822510 
	C163.347382,642.810120 175.536911,625.708618 187.845001,608.692932 
	C203.612762,586.894348 219.492432,565.176392 235.185410,543.324280 
	C237.046890,540.732178 238.993637,539.919189 242.096664,539.930115 
	C274.594116,540.044678 307.092102,539.998657 339.589966,540.002319 
	C347.221252,540.003174 348.032593,541.374451 346.465942,549.143860 
	C344.716949,557.817566 343.467621,566.591919 341.995636,575.321594 
	C339.815643,588.250244 337.641418,601.179993 335.445770,614.105957 
	C332.975769,628.647156 330.471680,643.182556 328.006348,657.724548 
	C325.513428,672.429382 323.049896,687.139160 320.573303,701.846802 
	C319.360809,709.047180 318.148041,716.247620 316.905975,723.622925 
	C378.221436,723.622925 438.939362,723.622925 499.704193,723.622925 
	C499.704193,601.332458 499.704193,479.419617 499.704193,357.000732 
	C497.457855,357.000732 495.500763,357.000702 493.543671,357.000702 
	C441.380463,357.000702 389.217255,357.000732 337.054047,357.000641 
	C305.222809,357.000580 273.391418,356.954254 241.560654,357.073792 
	C238.476654,357.085358 236.969894,356.160950 235.601517,353.355255 
	C230.553955,343.005859 225.136688,332.837158 219.887268,322.585724 
	C210.356705,303.973755 200.817825,285.365967 191.336258,266.729034 
	C181.483078,247.361588 171.721512,227.947540 161.868362,208.580078 
	C152.386856,189.943100 142.812836,171.353195 133.328308,152.717743 
	C123.172905,132.764130 113.096344,112.770386 102.944786,92.814789 
	C93.762863,74.765282 84.433655,56.790096 75.345650,38.693619 
	C69.074974,26.207151 63.104588,13.569879 57.000000,1.000000 
	C68.354225,1.000000 79.708458,1.000000 91.531342,1.000000 
z"/>
<path fill="#000000" opacity="1.000000" stroke="none" 
	d="
M56.531342,1.000000 
	C63.104588,13.569879 69.074974,26.207151 75.345650,38.693619 
	C84.433655,56.790096 93.762863,74.765282 102.944786,92.814789 
	C113.096344,112.770386 123.172905,132.764130 133.328308,152.717743 
	C142.812836,171.353195 152.386856,189.943100 161.868362,208.580078 
	C171.721512,227.947540 181.483078,247.361588 191.336258,266.729034 
	C200.817825,285.365967 210.356705,303.973755 219.887268,322.585724 
	C225.136688,332.837158 230.553955,343.005859 235.601517,353.355255 
	C236.969894,356.160950 238.476654,357.085358 241.560654,357.073792 
	C273.391418,356.954254 305.222809,357.000580 337.054047,357.000641 
	C389.217255,357.000732 441.380463,357.000702 493.543671,357.000702 
	C495.500763,357.000702 497.457855,357.000732 499.704193,357.000732 
	C499.704193,479.419617 499.704193,601.332458 499.704193,723.622925 
	C438.939362,723.622925 378.221436,723.622925 316.905975,723.622925 
	C318.148041,716.247620 319.360809,709.047180 320.573303,701.846802 
	C323.049896,687.139160 325.513428,672.429382 328.006348,657.724548 
	C330.471680,643.182556 332.975769,628.647156 335.445770,614.105957 
	C337.641418,601.179993 339.815643,588.250244 341.995636,575.321594 
	C343.467621,566.591919 344.716949,557.817566 346.465942,549.143860 
	C348.032593,541.374451 347.221252,540.003174 339.589966,540.002319 
	C307.092102,539.998657 274.594116,540.044678 242.096664,539.930115 
	C238.993637,539.919189 237.046890,540.732178 235.185410,543.324280 
	C219.492432,565.176392 203.612762,586.894348 187.845001,608.692932 
	C175.536911,625.708618 163.347382,642.810120 151.034760,659.822510 
	C135.452286,681.352844 119.782730,702.820129 104.180351,724.336121 
	C91.850296,741.339478 79.568985,758.378235 67.258759,775.396057 
	C52.548359,795.731812 37.829605,816.061462 23.115654,836.394653 
	C16.765818,845.169495 10.432231,853.956177 4.049942,862.707336 
	C3.421033,863.569702 2.502103,864.220520 1.358900,864.984741 
	C1.000000,577.000000 1.000000,289.000000 1.000000,1.000000 
	C19.413431,1.000000 37.738056,1.000000 56.531342,1.000000 
z"/>
<path fill="#000000" opacity="1.000000" stroke="none" 
	d="
M2060.000000,864.531372 
	C2058.990479,864.301208 2057.695801,863.810364 2057.013184,862.873474 
	C2036.235718,834.364014 2015.481934,805.837280 1994.804077,777.255615 
	C1979.804932,756.523193 1964.974731,735.668518 1949.967285,714.942139 
	C1932.646240,691.020386 1915.167603,667.212830 1897.842896,643.293640 
	C1882.831787,622.568665 1867.963989,601.740051 1852.987549,580.989868 
	C1843.672852,568.083984 1834.330322,555.196777 1824.824585,542.432068 
	C1823.874390,541.156067 1821.704956,540.108154 1820.097046,540.101868 
	C1786.434570,539.968872 1752.771362,539.991760 1719.108398,540.012207 
	C1714.101807,540.015259 1713.151123,541.175415 1714.064575,547.068909 
	C1715.344360,555.325500 1716.969604,563.527832 1718.378052,571.765137 
	C1720.615356,584.848999 1722.778687,597.945496 1725.004395,611.031372 
	C1727.504761,625.731750 1730.055176,640.423523 1732.555298,655.123901 
	C1735.055908,669.826294 1737.521729,684.534607 1740.002319,699.240417 
	C1741.359253,707.284302 1742.714966,715.328430 1744.129761,723.718201 
	C1683.047607,723.718201 1622.440186,723.718201 1561.416138,723.718201 
	C1561.416138,601.707703 1561.416138,479.680634 1561.416138,357.000702 
	C1563.540039,357.000702 1565.644897,357.000702 1567.749756,357.000702 
	C1651.240601,357.000671 1734.731567,356.967255 1818.222290,357.102020 
	C1822.279541,357.108582 1824.255615,355.827820 1826.031006,352.256775 
	C1838.930786,326.309662 1852.034180,300.463593 1865.127075,274.612793 
	C1874.722656,255.666916 1884.408081,236.766556 1894.038452,217.838257 
	C1903.743042,198.764236 1913.420898,179.676697 1923.124878,160.602463 
	C1932.754639,141.673981 1942.405884,122.756386 1952.042236,103.831177 
	C1961.828247,84.612381 1971.610596,65.391724 1981.388428,46.168816 
	C1988.920898,31.360384 1996.443970,16.547209 2003.985596,1.368055 
	C2022.657837,1.000000 2041.315552,1.000000 2060.000000,1.000000 
	C2060.000000,288.687561 2060.000000,576.375122 2060.000000,864.531372 
z"/>
<path fill="#C8102E" opacity="1.000000" stroke="none" 
	d="
M1081.468628,1657.000000 
	C1081.000000,1578.567383 1081.000000,1500.134766 1081.000000,1421.000000 
	C1083.150024,1421.000000 1084.913574,1421.000000 1086.677002,1421.000000 
	C1103.002441,1421.000122 1119.328857,1421.099487 1135.652344,1420.921021 
	C1139.147095,1420.882935 1140.943359,1422.193848 1142.667847,1425.108887 
	C1155.524170,1446.841064 1168.595581,1468.446045 1181.537720,1490.127808 
	C1189.101807,1502.799927 1196.546997,1515.542847 1204.056885,1528.247437 
	C1206.376831,1532.171875 1208.098022,1532.049561 1210.515991,1527.991333 
	C1224.868652,1503.902222 1239.262085,1479.837402 1253.626099,1455.755249 
	C1260.010498,1445.051636 1266.308594,1434.295776 1272.790771,1423.651855 
	C1273.508423,1422.473389 1275.173462,1421.131226 1276.410156,1421.120605 
	C1295.037964,1420.959473 1313.667603,1421.009033 1333.000000,1421.009033 
	C1333.000000,1499.614746 1333.000000,1577.838745 1333.000000,1656.531372 
	C1313.645752,1657.000000 1294.291504,1657.000000 1274.468628,1656.531372 
	C1274.000000,1611.477295 1274.000000,1566.891846 1274.000000,1520.507446 
	C1271.451660,1522.463135 1269.717896,1523.237305 1268.836914,1524.573608 
	C1266.131592,1528.676514 1263.731323,1532.982300 1261.250977,1537.231567 
	C1250.093750,1556.345581 1238.903809,1575.441040 1227.857910,1594.619263 
	C1226.447876,1597.067261 1224.956787,1598.123413 1222.055542,1598.069336 
	C1212.233154,1597.886108 1202.400879,1597.832031 1192.582275,1598.097900 
	C1189.467651,1598.182251 1187.657715,1597.030518 1186.261841,1594.600952 
	C1183.648071,1590.051147 1181.077271,1585.476562 1178.450684,1580.934326 
	C1167.615234,1562.196655 1156.819946,1543.435181 1145.818237,1524.795532 
	C1144.930786,1523.292114 1142.588867,1522.647217 1140.000000,1521.025146 
	C1140.000000,1567.430908 1140.000000,1612.215454 1140.000000,1657.000000 
	C1120.645752,1657.000000 1101.291504,1657.000000 1081.468628,1657.000000 
z"/>
<path fill="#C8102E" opacity="1.000000" stroke="none" 
	d="
M231.468658,1657.000000 
	C231.000000,1578.573730 231.000000,1500.147583 231.000000,1421.000000 
	C233.127441,1421.000000 234.888062,1421.000000 236.648682,1421.000000 
	C288.117828,1421.000000 339.587128,1420.959229 391.055756,1421.125244 
	C393.516724,1421.133179 396.575470,1422.343384 398.332794,1424.048218 
	C410.764313,1436.108398 423.005524,1448.369141 435.085388,1460.781982 
	C436.697113,1462.438110 437.872345,1465.307617 437.880066,1467.619751 
	C438.039429,1515.257324 438.040710,1562.895752 437.875366,1610.533203 
	C437.867401,1612.829834 436.597076,1615.653931 434.979279,1617.328735 
	C422.256927,1630.498291 409.306427,1643.447144 396.713104,1656.731934 
	C341.979095,1657.000000 286.958221,1657.000000 231.468658,1657.000000 
M295.651306,1606.000000 
	C323.257629,1606.000000 350.863953,1606.000000 378.628479,1606.000000 
	C378.628479,1561.074219 378.628479,1516.714233 378.628479,1472.288818 
	C349.010529,1472.288818 319.764984,1472.288818 290.260437,1472.288818 
	C290.260437,1516.819092 290.260437,1561.060913 290.260437,1605.670776 
	C291.802185,1605.785278 293.245026,1605.892334 295.651306,1606.000000 
z"/>
<path fill="#C8102E" opacity="1.000000" stroke="none" 
	d="
M1577.458008,1657.000000 
	C1577.000000,1578.556763 1577.000000,1500.113403 1577.000000,1421.344116 
	C1578.839722,1421.210205 1580.281494,1421.015991 1581.723389,1421.014160 
	C1598.385254,1420.992798 1615.047485,1421.063110 1631.708496,1420.945190 
	C1634.872925,1420.922852 1636.664917,1421.950684 1638.461792,1424.710083 
	C1661.373535,1459.895264 1684.471313,1494.959473 1707.507690,1530.063477 
	C1712.637695,1537.880737 1717.643677,1545.780640 1722.882690,1553.523560 
	C1723.773560,1554.840454 1725.557495,1555.553223 1728.000000,1557.319824 
	C1728.000000,1553.180664 1727.999878,1550.703247 1728.000000,1548.225830 
	C1728.000122,1523.399780 1727.914185,1498.572998 1728.134888,1473.748901 
	C1728.156738,1471.298950 1729.458252,1468.283325 1731.178955,1466.517334 
	C1744.316650,1453.033203 1757.930664,1440.008057 1770.895508,1426.364014 
	C1775.459961,1421.560547 1780.115356,1419.855835 1787.000000,1421.598633 
	C1787.000000,1499.582886 1787.000000,1577.822876 1787.000000,1656.531372 
	C1767.312378,1657.000000 1747.624878,1657.000000 1727.455444,1656.637207 
	C1726.396973,1655.104614 1725.934082,1653.860718 1725.226440,1652.776611 
	C1717.073730,1640.286255 1708.861572,1627.834961 1700.708740,1615.344849 
	C1681.264771,1585.556519 1661.867065,1555.738037 1642.362061,1525.989746 
	C1641.070557,1524.020020 1640.179688,1520.623535 1636.000000,1522.623779 
	C1636.000000,1524.341064 1636.000000,1526.319824 1636.000000,1528.298462 
	C1636.000000,1553.278931 1636.085205,1578.260010 1635.865845,1603.238525 
	C1635.844360,1605.688354 1634.552979,1608.708862 1632.832886,1610.470215 
	C1618.871216,1624.766113 1604.649414,1638.807739 1590.568359,1652.987793 
	C1589.474609,1654.089233 1588.845215,1655.651733 1588.000000,1657.000000 
	C1584.638672,1657.000000 1581.277466,1657.000000 1577.458008,1657.000000 
z"/>
<path fill="#C8102E" opacity="1.000000" stroke="none" 
	d="
M614.468689,1657.000000 
	C613.154419,1655.651123 612.523499,1654.089722 611.430298,1652.986206 
	C599.940125,1641.387695 588.294617,1629.941406 576.924988,1618.226929 
	C575.313416,1616.566406 574.128052,1613.702881 574.120483,1611.391602 
	C573.961182,1563.077271 573.959961,1514.762207 574.125427,1466.447998 
	C574.133301,1464.152588 575.412415,1461.326050 577.035706,1459.657715 
	C588.768738,1447.599365 600.691589,1435.723267 612.707458,1423.945801 
	C614.190796,1422.492065 616.575500,1421.128418 618.546448,1421.122681 
	C671.692322,1420.972778 724.838684,1421.005249 777.984985,1421.017212 
	C778.788452,1421.017334 779.591980,1421.148438 780.576355,1421.234253 
	C781.614319,1426.694336 781.057251,1430.958130 776.620850,1435.123901 
	C765.088989,1445.952637 754.060730,1457.323364 742.987793,1468.630615 
	C740.593628,1471.075439 738.205994,1472.093872 734.746338,1472.079102 
	C703.092407,1471.944458 671.437561,1472.000000 639.783020,1472.000000 
	C637.795471,1472.000000 635.807983,1472.000000 633.411987,1472.000000 
	C633.411987,1516.630127 633.411987,1560.988159 633.411987,1605.673706 
	C663.687256,1605.673706 693.931458,1605.673706 724.588379,1605.673706 
	C724.588379,1591.698120 724.588379,1577.664551 724.588379,1563.158691 
	C702.955017,1563.158691 681.372620,1563.158691 659.569458,1563.158691 
	C658.557617,1558.227661 658.647034,1554.477173 662.533569,1550.773071 
	C673.866760,1539.972412 684.725281,1528.675049 695.910522,1517.715942 
	C697.288269,1516.365967 699.513000,1515.127930 701.353455,1515.115967 
	C727.009094,1514.951660 752.666260,1515.008911 778.323059,1515.024048 
	C778.970337,1515.024414 779.617432,1515.162109 781.000000,1515.319580 
	C781.000000,1562.251953 781.000000,1609.157349 781.000000,1656.531372 
	C725.645752,1657.000000 670.291565,1657.000000 614.468689,1657.000000 
z"/>
<path fill="#C8102E" opacity="1.000000" stroke="none" 
	d="
M1864.468628,1657.000000 
	C1863.154297,1655.651123 1862.523193,1654.089600 1861.430054,1652.985962 
	C1849.939209,1641.386719 1838.292969,1629.939697 1826.922607,1618.224609 
	C1825.311157,1616.564331 1824.127808,1613.699463 1824.120239,1611.387695 
	C1823.961060,1563.070435 1823.959961,1514.752319 1824.125977,1466.435181 
	C1824.133789,1464.140869 1825.420654,1461.317017 1827.045044,1459.647705 
	C1838.779175,1447.589111 1850.702148,1435.711792 1862.719360,1423.934082 
	C1864.201660,1422.481323 1866.590820,1421.127686 1868.563721,1421.122070 
	C1921.546265,1420.971558 1974.529419,1421.002319 2027.512329,1421.012695 
	C2028.479736,1421.012939 2029.447144,1421.138184 2030.536621,1421.213379 
	C2031.682983,1426.738281 2031.010620,1430.988281 2026.597534,1435.140259 
	C2014.953857,1446.095459 2003.949463,1457.727295 1992.453857,1468.845093 
	C1990.681396,1470.559204 1987.664551,1471.852661 1985.213867,1471.867920 
	C1953.391968,1472.067139 1921.568481,1472.000000 1889.745361,1472.000000 
	C1887.760986,1472.000000 1885.776733,1472.000000 1883.398560,1472.000000 
	C1883.398560,1516.659302 1883.398560,1561.019165 1883.398560,1605.690063 
	C1913.721802,1605.690063 1943.967163,1605.690063 1974.606689,1605.690063 
	C1974.606689,1591.659058 1974.606689,1577.625366 1974.606689,1563.119629 
	C1953.246704,1563.119629 1931.995361,1563.119629 1910.512329,1563.119629 
	C1909.566895,1557.691040 1909.523438,1553.476318 1913.923340,1549.356323 
	C1924.862427,1539.112915 1935.186890,1528.215210 1945.901001,1517.726074 
	C1947.280518,1516.375610 1949.500732,1515.128174 1951.339844,1515.116455 
	C1976.997192,1514.951538 2002.655884,1515.008545 2028.314331,1515.023438 
	C2028.962158,1515.023804 2029.610107,1515.160034 2031.000000,1515.316284 
	C2031.000000,1562.247925 2031.000000,1609.155396 2031.000000,1656.531372 
	C1975.645752,1657.000000 1920.291504,1657.000000 1864.468628,1657.000000 
z"/>
<path fill="#C8102E" opacity="1.000000" stroke="none" 
	d="
M813.468628,1657.000000 
	C810.836304,1638.510010 819.033630,1622.249146 824.351074,1605.436646 
	C834.081299,1574.671997 844.268372,1544.051514 854.288818,1513.378906 
	C862.782654,1487.378784 871.312500,1461.390381 879.820740,1435.395020 
	C881.348145,1430.728394 881.510193,1424.064697 884.714783,1421.908936 
	C888.317139,1419.485718 894.653748,1421.025757 899.801086,1421.017456 
	C923.960144,1420.978394 948.120117,1421.095947 972.277771,1420.906372 
	C976.342224,1420.874512 978.297302,1421.863159 979.619934,1425.992554 
	C990.411316,1459.686646 1001.492981,1493.287598 1012.457947,1526.926270 
	C1020.833374,1552.620483 1029.182373,1578.323242 1037.512939,1604.031982 
	C1041.148193,1615.250977 1045.222168,1626.365356 1048.088135,1637.780518 
	C1049.545532,1643.585205 1048.767456,1649.951172 1049.000000,1656.531738 
	C1031.312500,1657.000000 1013.624878,1657.000000 995.465515,1656.604736 
	C990.128906,1641.161255 985.264099,1626.113037 980.379456,1611.003296 
	C948.398621,1611.003296 916.747437,1610.957153 885.097717,1611.151245 
	C883.646484,1611.160156 881.395996,1613.054321 880.890747,1614.537964 
	C876.090881,1628.634155 871.588196,1642.831665 867.000000,1657.000000 
	C849.312439,1657.000000 831.624878,1657.000000 813.468628,1657.000000 
M900.106750,1553.742920 
	C899.405273,1556.670654 898.703796,1559.598511 897.963562,1562.687988 
	C920.286499,1562.687988 942.008606,1562.687988 964.239258,1562.687988 
	C963.839722,1561.041992 963.617493,1559.782349 963.228821,1558.576172 
	C954.398193,1531.170166 945.520325,1503.779175 936.744690,1476.355591 
	C935.772888,1473.318726 934.523376,1471.865967 930.907043,1471.820557 
	C927.111572,1471.772827 926.021729,1473.684082 925.214478,1476.541138 
	C924.369568,1479.531494 923.696960,1482.576172 922.729309,1485.525024 
	C915.343140,1508.034790 907.903137,1530.526978 900.106750,1553.742920 
z"/>
<path fill="#C8102E" opacity="1.000000" stroke="none" 
	d="
M1370.468628,1657.000000 
	C1370.000000,1640.212891 1370.000000,1623.425903 1370.000000,1606.177979 
	C1388.694336,1606.177979 1406.943359,1606.177979 1425.594116,1606.177979 
	C1425.594116,1561.363647 1425.594116,1517.011841 1425.594116,1472.193848 
	C1407.321289,1472.193848 1389.072144,1472.193848 1370.413574,1472.193848 
	C1370.413574,1455.037964 1370.413574,1438.340820 1370.413574,1421.320312 
	C1426.685181,1421.320312 1482.914307,1421.320312 1539.572021,1421.320312 
	C1539.572021,1437.932495 1539.572021,1454.629761 1539.572021,1472.000000 
	C1537.812622,1472.000000 1536.044800,1471.999878 1534.276855,1471.999878 
	C1519.118896,1472.000244 1503.960693,1472.057983 1488.803467,1471.955322 
	C1485.562256,1471.933472 1483.937744,1472.688110 1483.946411,1476.381714 
	C1484.045776,1518.856689 1484.022705,1561.332153 1484.044189,1603.807373 
	C1484.044434,1604.288330 1484.204590,1604.769165 1484.430176,1606.038086 
	C1501.577026,1606.038086 1518.823486,1606.038086 1536.535034,1606.551025 
	C1537.000000,1623.709351 1537.000000,1640.354614 1537.000000,1657.000000 
	C1481.645752,1657.000000 1426.291504,1657.000000 1370.468628,1657.000000 
z"/>
<path fill="#C8102E" opacity="1.000000" stroke="none" 
	d="
M0.999975,1647.486572 
	C2.465647,1646.034180 4.141431,1645.280518 5.364405,1644.069580 
	C16.847704,1632.699097 28.330982,1621.326172 39.623802,1609.767578 
	C42.255722,1607.073730 44.866962,1605.887329 48.697205,1605.911621 
	C75.186180,1606.079224 101.676727,1606.000000 128.166763,1606.000000 
	C130.158234,1606.000000 132.149704,1606.000000 134.570282,1606.000000 
	C134.570282,1561.405640 134.570282,1517.047119 134.570282,1472.000000 
	C132.832336,1472.000000 131.066544,1472.000000 129.300766,1472.000000 
	C109.808098,1472.000000 90.314102,1472.106689 70.824409,1471.865723 
	C68.364861,1471.835327 65.346130,1470.580688 63.575024,1468.869751 
	C52.313267,1457.990967 41.520355,1446.622803 30.155960,1435.855957 
	C25.834099,1431.761230 23.787849,1427.609497 25.483086,1421.424316 
	C81.248413,1421.424316 137.271576,1421.424316 193.999939,1421.424316 
	C193.999939,1423.314575 193.999954,1425.244995 193.999954,1427.175415 
	C193.999954,1488.152466 193.973053,1549.129517 194.065674,1610.106445 
	C194.071335,1613.837891 193.139374,1616.549927 190.389847,1619.255615 
	C177.929245,1631.516846 165.723526,1644.037109 153.713013,1656.732056 
	C102.999992,1657.000000 51.999989,1657.000000 1.000000,1657.000000 
	C1.000000,1653.955688 1.000000,1650.964355 0.999975,1647.486572 
z"/>
<path fill="#000000" opacity="1.000000" stroke="none" 
	d="
M1140.468628,1657.000000 
	C1140.000000,1612.215454 1140.000000,1567.430908 1140.000000,1521.025146 
	C1142.588867,1522.647217 1144.930786,1523.292114 1145.818237,1524.795532 
	C1156.819946,1543.435181 1167.615234,1562.196655 1178.450684,1580.934326 
	C1181.077271,1585.476562 1183.648071,1590.051147 1186.261841,1594.600952 
	C1187.657715,1597.030518 1189.467651,1598.182251 1192.582275,1598.097900 
	C1202.400879,1597.832031 1212.233154,1597.886108 1222.055542,1598.069336 
	C1224.956787,1598.123413 1226.447876,1597.067261 1227.857910,1594.619263 
	C1238.903809,1575.441040 1250.093750,1556.345581 1261.250977,1537.231567 
	C1263.731323,1532.982300 1266.131592,1528.676514 1268.836914,1524.573608 
	C1269.717896,1523.237305 1271.451660,1522.463135 1274.000000,1520.507446 
	C1274.000000,1566.891846 1274.000000,1611.477295 1274.000000,1656.531372 
	C1229.645752,1657.000000 1185.291504,1657.000000 1140.468628,1657.000000 
z"/>
<path fill="#000000" opacity="1.000000" stroke="none" 
	d="
M1588.468628,1657.000000 
	C1588.845215,1655.651733 1589.474609,1654.089233 1590.568359,1652.987793 
	C1604.649414,1638.807739 1618.871216,1624.766113 1632.832886,1610.470215 
	C1634.552979,1608.708862 1635.844360,1605.688354 1635.865845,1603.238525 
	C1636.085205,1578.260010 1636.000000,1553.278931 1636.000000,1528.298462 
	C1636.000000,1526.319824 1636.000000,1524.341064 1636.000000,1522.623779 
	C1640.179688,1520.623535 1641.070557,1524.020020 1642.362061,1525.989746 
	C1661.867065,1555.738037 1681.264771,1585.556519 1700.708740,1615.344849 
	C1708.861572,1627.834961 1717.073730,1640.286255 1725.226440,1652.776611 
	C1725.934082,1653.860718 1726.396973,1655.104614 1726.986816,1656.637207 
	C1680.979126,1657.000000 1634.958130,1657.000000 1588.468628,1657.000000 
z"/>
<path fill="#000000" opacity="1.000000" stroke="none" 
	d="
M867.468689,1657.000000 
	C871.588196,1642.831665 876.090881,1628.634155 880.890747,1614.537964 
	C881.395996,1613.054321 883.646484,1611.160156 885.097717,1611.151245 
	C916.747437,1610.957153 948.398621,1611.003296 980.379456,1611.003296 
	C985.264099,1626.113037 990.128906,1641.161255 994.996826,1656.604736 
	C952.645752,1657.000000 910.291565,1657.000000 867.468689,1657.000000 
z"/>
<path fill="#C8102E" opacity="1.000000" stroke="none" 
	d="
M1537.375000,1657.000000 
	C1537.000000,1640.354614 1537.000000,1623.709351 1536.999756,1606.615234 
	C1540.815063,1605.372437 1539.973877,1608.183716 1539.978638,1610.147949 
	C1540.016113,1625.452881 1539.999756,1640.757812 1540.000000,1656.531372 
	C1539.250000,1657.000000 1538.500000,1657.000000 1537.375000,1657.000000 
z"/>
<path fill="#C8102E" opacity="1.000000" stroke="none" 
	d="
M812.000000,357.000671 
	C797.206177,357.000671 782.912292,357.000671 768.311035,357.000671 
	C768.311035,300.609863 768.311035,244.692032 768.311035,188.000153 
	C770.068359,188.000153 771.822815,188.000137 773.577271,188.000137 
	C903.740417,188.000137 1033.903564,188.012604 1164.066772,187.929062 
	C1167.357544,187.926941 1169.581299,188.981964 1171.849731,191.257462 
	C1211.148926,230.679642 1250.550903,269.999634 1289.793457,309.477997 
	C1291.528564,311.223572 1292.868286,314.263092 1292.870605,316.701324 
	C1293.014893,468.197113 1293.014648,619.693054 1292.874023,771.188843 
	C1292.871704,773.636963 1291.595703,776.701965 1289.868286,778.439697 
	C1250.508301,818.036194 1211.029541,857.515015 1171.432739,896.874573 
	C1169.695557,898.601135 1166.628052,899.870178 1164.178711,899.872864 
	C1034.015625,900.015747 903.852539,899.999268 773.689392,899.999268 
	C772.042725,899.999268 770.396057,899.999207 768.377869,899.999207 
	C768.377869,780.956726 768.377869,662.255920 768.377869,543.277588 
	C818.463745,543.277588 868.386230,543.277588 918.663330,543.277588 
	C921.449036,559.750916 924.191467,576.199097 927.020203,592.632446 
	C929.883057,609.263245 932.901733,625.867371 935.720886,642.505371 
	C938.240845,657.377747 940.569031,672.282532 943.005981,687.169006 
	C945.018921,699.465332 946.978394,711.772217 949.241516,724.022766 
	C949.459167,725.201050 951.550476,726.253418 952.980469,726.910522 
	C953.944397,727.353516 955.275085,727.000122 956.441711,727.000122 
	C1004.773743,727.000366 1053.105835,727.000305 1101.437866,727.000305 
	C1103.404541,727.000305 1105.371216,727.000305 1107.666504,727.000305 
	C1107.666504,603.652222 1107.666504,480.735901 1107.666504,357.000671 
	C1009.314880,357.000671 910.907471,357.000671 812.000000,357.000671 
z"/>
<path fill="#000000" opacity="1.000000" stroke="none" 
	d="
M295.169586,1605.999756 
	C293.245026,1605.892334 291.802185,1605.785278 290.260437,1605.670776 
	C290.260437,1561.060913 290.260437,1516.819092 290.260437,1472.288818 
	C319.764984,1472.288818 349.010529,1472.288818 378.628479,1472.288818 
	C378.628479,1516.714233 378.628479,1561.074219 378.628479,1606.000000 
	C350.863953,1606.000000 323.257629,1606.000000 295.169586,1605.999756 
z"/>
<path fill="#000000" opacity="1.000000" stroke="none" 
	d="
M900.293335,1553.383789 
	C907.903137,1530.526978 915.343140,1508.034790 922.729309,1485.525024 
	C923.696960,1482.576172 924.369568,1479.531494 925.214478,1476.541138 
	C926.021729,1473.684082 927.111572,1471.772827 930.907043,1471.820557 
	C934.523376,1471.865967 935.772888,1473.318726 936.744690,1476.355591 
	C945.520325,1503.779175 954.398193,1531.170166 963.228821,1558.576172 
	C963.617493,1559.782349 963.839722,1561.041992 964.239258,1562.687988 
	C942.008606,1562.687988 920.286499,1562.687988 897.963562,1562.687988 
	C898.703796,1559.598511 899.405273,1556.670654 900.293335,1553.383789 
z"/>
</svg>