<?xml version="1.0" encoding="utf-8"?>
<svg viewBox="0 0 800 800" width="800" height="800" xmlns="http://www.w3.org/2000/svg">
  <path fill="#01378A" opacity="1.000000" stroke="none" d="&#10;M801.000000,361.000000 &#10;&#9;C801.000000,387.354218 801.000000,413.708466 800.582886,440.509491 &#10;&#9;C799.118286,447.362640 798.352417,453.830444 796.971130,460.163971 &#10;&#9;C792.623840,480.097168 788.959473,500.241943 783.346680,519.822021 &#10;&#9;C774.481262,550.748596 760.890015,579.761414 744.308411,607.369019 &#10;&#9;C729.190063,632.540466 711.505859,655.773499 691.329956,677.035095 &#10;&#9;C673.863464,695.441528 654.685059,711.929016 633.980103,726.716187 &#10;&#9;C603.649292,748.377930 571.114197,765.643921 535.997620,778.106079 &#10;&#9;C505.878571,788.794617 475.043610,796.241089 443.155487,799.102600 &#10;&#9;C442.386414,799.171631 441.716278,800.342834 441.000000,801.000000 &#10;&#9;C414.645782,801.000000 388.291534,801.000000 361.490479,800.582886 &#10;&#9;C354.635620,799.118408 348.166016,798.353210 341.830994,796.971191 &#10;&#9;C321.893677,792.621704 301.745514,788.952820 282.160736,783.339600 &#10;&#9;C251.225983,774.473389 222.209412,760.873352 194.594803,744.288391 &#10;&#9;C169.566711,729.256836 146.452896,711.686096 125.292175,691.650696 &#10;&#9;C106.747696,674.092407 90.167389,654.780029 75.254456,633.961914 &#10;&#9;C53.744160,603.933899 36.570480,571.684021 24.156101,536.956726 &#10;&#9;C13.298021,506.582855 5.667621,475.409973 2.897053,443.162170 &#10;&#9;C2.830950,442.392792 1.657138,441.718597 0.999992,441.000000 &#10;&#9;C1.000000,414.645782 1.000000,388.291534 1.416843,361.487244 &#10;&#9;C2.880932,354.632416 3.646693,348.166199 5.027589,341.834198 &#10;&#9;C9.373977,321.903900 13.039967,301.762848 18.648695,282.184509 &#10;&#9;C27.508781,251.256668 41.111324,222.249634 57.685745,194.640717 &#10;&#9;C72.799072,169.465668 90.486641,146.233749 110.662529,124.971550 &#10;&#9;C128.129272,106.564369 147.308273,90.076630 168.013382,75.288124 &#10;&#9;C198.345062,53.623890 230.882935,36.359432 266.000000,23.894701 &#10;&#9;C296.119171,13.203958 326.955566,5.759223 358.844482,2.897373 &#10;&#9;C359.613556,2.828357 360.283722,1.657137 361.000000,1.000001 &#10;&#9;C387.354218,1.000000 413.708466,1.000000 440.509521,1.417070 &#10;&#9;C447.362854,2.881574 453.830780,3.647347 460.164490,5.028637 &#10;&#9;C480.097504,9.375735 500.242065,13.040181 519.822021,18.652678 &#10;&#9;C550.748352,27.517548 579.760193,41.110428 607.367920,57.690529 &#10;&#9;C632.539917,72.807808 655.773438,90.491676 677.033752,110.668556 &#10;&#9;C695.439087,128.135925 711.929260,147.312256 726.715576,168.018326 &#10;&#9;C748.375916,198.350632 765.643372,230.885376 778.105530,266.002716 &#10;&#9;C788.793884,296.121887 796.240112,326.956848 799.102417,358.844788 &#10;&#9;C799.171448,359.613770 800.342773,360.283813 801.000000,361.000000 &#10;M185.170929,671.316284 &#10;&#9;C268.760193,736.326538 362.945465,759.648682 466.845825,740.490906 &#10;&#9;C542.237915,726.589539 606.178040,690.313049 657.221863,633.078308 &#10;&#9;C730.310974,551.124451 758.539124,454.934540 742.498108,346.506287 &#10;&#9;C731.971741,275.353912 700.748108,213.524033 650.738098,161.814606 &#10;&#9;C585.375244,94.230537 505.219971,58.676620 411.261322,55.273518 &#10;&#9;C354.903229,53.232265 301.120422,64.793556 250.369324,89.598183 &#10;&#9;C183.564499,122.249054 132.138229,171.223267 96.711983,236.557999 &#10;&#9;C61.358929,301.757721 48.838116,371.444824 57.908798,445.025757 &#10;&#9;C63.197723,487.929260 76.373993,528.320312 97.011925,566.255432 &#10;&#9;C119.175621,606.995056 148.536423,641.770203 185.170929,671.316284 &#10;z" transform="matrix(0.9999999999999999, 0, 0, 1, -7.105427357601002e-15, 7.105427357601002e-15)"/>
  <path fill="#FEFEFE" opacity="1.000000" stroke="none" d="&#10;M184.868393,671.128540 &#10;&#9;C148.536423,641.770203 119.175621,606.995056 97.011925,566.255432 &#10;&#9;C76.373993,528.320312 63.197723,487.929260 57.908798,445.025757 &#10;&#9;C48.838116,371.444824 61.358929,301.757721 96.711983,236.557999 &#10;&#9;C132.138229,171.223267 183.564499,122.249054 250.369324,89.598183 &#10;&#9;C301.120422,64.793556 354.903229,53.232265 411.261322,55.273518 &#10;&#9;C505.219971,58.676620 585.375244,94.230537 650.738098,161.814606 &#10;&#9;C700.748108,213.524033 731.971741,275.353912 742.498108,346.506287 &#10;&#9;C758.539124,454.934540 730.310974,551.124451 657.221863,633.078308 &#10;&#9;C606.178040,690.313049 542.237915,726.589539 466.845825,740.490906 &#10;&#9;C362.945465,759.648682 268.760193,736.326538 184.868393,671.128540 &#10;M358.258240,625.971680 &#10;&#9;C358.258240,506.721466 358.258240,387.471252 358.258240,268.140533 &#10;&#9;C391.177856,268.140533 423.076141,268.140533 455.376068,268.140533 &#10;&#9;C455.376068,279.873413 455.376068,291.309113 455.376068,303.020386 &#10;&#9;C475.686005,303.020386 495.594757,303.020386 515.675781,303.020386 &#10;&#9;C515.675781,271.067474 515.675781,239.192825 515.675781,207.399170 &#10;&#9;C442.786224,207.399170 370.225067,207.399170 297.292328,207.399170 &#10;&#9;C297.292328,209.700165 297.292328,211.672150 297.292328,213.644150 &#10;&#9;C297.292328,333.966461 297.293518,454.288757 297.282745,574.611084 &#10;&#9;C297.282562,576.771484 297.138885,578.931885 296.400299,580.884888 &#10;&#9;C289.498230,575.403015 282.544800,569.984375 275.706085,564.424622 &#10;&#9;C265.271790,555.941650 257.840057,545.269470 252.916794,532.785889 &#10;&#9;C247.071106,517.963440 245.785583,502.486542 245.797836,486.732727 &#10;&#9;C245.868713,395.582214 245.832458,304.431641 245.832458,213.281067 &#10;&#9;C245.832458,211.326691 245.832474,209.372299 245.832474,207.266693 &#10;&#9;C224.803299,207.266693 204.258942,207.266693 183.502426,207.266693 &#10;&#9;C183.502426,209.764084 183.502411,211.925415 183.502411,214.086746 &#10;&#9;C183.502411,307.736877 183.868637,401.389313 183.276154,495.035675 &#10;&#9;C183.101532,522.634277 189.940933,547.938843 201.715179,572.354492 &#10;&#9;C213.598053,596.995483 232.208572,616.253906 252.125092,634.329895 &#10;&#9;C283.775452,663.055298 318.863953,687.165894 354.924561,709.923706 &#10;&#9;C355.788513,710.468872 356.825745,710.739441 358.497620,711.436279 &#10;&#9;C358.497620,685.555908 358.510590,660.405212 358.479401,635.254517 &#10;&#9;C358.475922,632.460999 358.221130,629.667725 358.258240,625.971680 &#10;M394.164917,671.499939 &#10;&#9;C394.164917,685.130859 394.164917,698.761841 394.164917,713.929932 &#10;&#9;C407.769592,710.300110 420.748901,707.496460 433.287445,703.357605 &#10;&#9;C461.299774,694.110962 486.625031,679.687500 510.337372,662.183533 &#10;&#9;C536.896545,642.578003 563.306458,622.865234 584.919556,597.577942 &#10;&#9;C607.505554,571.152405 619.170898,541.153870 618.931641,505.795471 &#10;&#9;C618.272034,408.316315 618.703613,310.829742 618.703613,213.346115 &#10;&#9;C618.703613,211.395096 618.703613,209.444061 618.703613,207.286591 &#10;&#9;C597.899536,207.286591 577.653992,207.286591 556.927979,207.286591 &#10;&#9;C556.927979,208.781677 556.928040,210.065430 556.928040,211.349197 &#10;&#9;C556.927795,311.161438 556.826172,410.973877 557.022278,510.785706 &#10;&#9;C557.056885,528.425720 551.789551,543.707825 540.487732,557.120300 &#10;&#9;C526.877563,573.272095 509.768463,585.078369 492.067139,596.081970 &#10;&#9;C480.410431,603.328064 468.404449,610.012268 456.164154,617.176758 &#10;&#9;C456.164154,574.202820 456.164154,532.148743 456.164154,489.649017 &#10;&#9;C476.233856,489.649017 495.978363,489.649017 515.637451,489.649017 &#10;&#9;C515.637451,441.812958 515.637451,394.425201 515.637451,347.318756 &#10;&#9;C475.594330,347.318756 435.915619,347.318756 395.423645,347.318756 &#10;&#9;C410.730408,359.398621 425.358978,370.911835 439.948578,382.474304 &#10;&#9;C445.018066,386.491943 451.919800,389.700409 454.466705,394.976654 &#10;&#9;C457.024628,400.275757 455.233337,407.689911 455.286591,414.177704 &#10;&#9;C455.333740,419.919220 455.296417,425.661438 455.296417,431.778442 &#10;&#9;C434.545624,431.778442 414.610718,431.778442 394.164917,431.778442 &#10;&#9;C394.164917,511.618042 394.164917,591.058960 394.164917,671.499939 &#10;M403.539246,149.515656 &#10;&#9;C403.539246,145.100937 403.539246,140.686234 403.539246,136.050064 &#10;&#9;C400.937683,136.050064 399.070587,136.308487 397.302063,136.000626 &#10;&#9;C392.391388,135.145721 390.281433,137.411301 388.941528,141.947586 &#10;&#9;C386.564148,149.996262 383.588135,157.868103 380.535461,166.767456 &#10;&#9;C377.112549,157.003723 374.132416,148.212769 370.880615,139.523499 &#10;&#9;C370.360657,138.134125 368.736511,136.396088 367.427643,136.212753 &#10;&#9;C364.069061,135.742279 360.600708,136.055618 357.272552,136.055618 &#10;&#9;C357.272552,150.381516 357.272552,164.126450 357.272552,177.860291 &#10;&#9;C359.838104,177.860291 362.106537,177.860291 364.888184,177.860291 &#10;&#9;C364.888184,167.993652 364.888184,158.343399 364.888184,148.693161 &#10;&#9;C368.739288,156.951797 371.853088,165.279922 374.770355,173.676361 &#10;&#9;C375.606171,176.081909 375.848267,178.350876 379.340759,178.471146 &#10;&#9;C382.864319,178.592468 384.157440,177.078583 385.165771,173.966934 &#10;&#9;C387.996246,165.232346 391.183899,156.613525 394.230682,147.949036 &#10;&#9;C394.529144,148.008026 394.827576,148.067017 395.126038,148.125992 &#10;&#9;C395.126038,158.028076 395.126038,167.930145 395.126038,177.753845 &#10;&#9;C398.093018,177.753845 400.650269,177.753845 403.539185,177.753845 &#10;&#9;C403.539185,168.449677 403.539185,159.479828 403.539246,149.515656 &#10;M493.045258,149.410538 &#10;&#9;C491.516907,147.032715 489.973114,144.664642 488.463104,142.275238 &#10;&#9;C483.911865,135.073456 483.750122,134.998199 475.309509,136.613022 &#10;&#9;C475.309509,150.340469 475.309509,164.069016 475.309509,177.803314 &#10;&#9;C478.052795,177.803314 480.462585,177.803314 483.240417,177.803314 &#10;&#9;C483.240417,168.299896 483.240417,159.077896 483.240417,149.855896 &#10;&#9;C489.048279,157.083084 494.391663,164.417786 498.696960,172.318207 &#10;&#9;C501.729858,177.883804 505.535553,179.344681 511.444397,177.667557 &#10;&#9;C511.444397,164.036697 511.444397,150.312744 511.444397,136.365143 &#10;&#9;C508.737457,136.365143 506.316528,136.365143 503.222046,136.365143 &#10;&#9;C503.222046,145.547028 503.222046,154.532227 503.222046,163.517441 &#10;&#9;C502.894836,163.575775 502.567596,163.634109 502.240387,163.692444 &#10;&#9;C499.309357,159.133560 496.378357,154.574692 493.045258,149.410538 &#10;M255.729416,166.357941 &#10;&#9;C255.729416,162.278763 255.729416,158.199570 255.729416,154.198074 &#10;&#9;C249.504456,154.198074 244.123703,154.198074 238.866333,154.198074 &#10;&#9;C238.866333,156.647125 238.866333,158.698975 238.866333,160.769943 &#10;&#9;C241.693604,160.922241 244.118423,161.052872 247.599670,161.240402 &#10;&#9;C246.743393,164.521927 246.505646,169.224747 245.250687,169.513992 &#10;&#9;C241.823929,170.303772 237.566483,170.127090 234.373535,168.694290 &#10;&#9;C229.187454,166.367126 227.136993,158.286606 229.105682,151.934555 &#10;&#9;C231.136246,145.382919 235.841064,141.691833 242.364578,142.097809 &#10;&#9;C246.080750,142.329086 249.752075,143.281311 253.455231,143.910858 &#10;&#9;C254.365677,135.605209 254.353302,135.503220 246.419174,134.826172 &#10;&#9;C243.624908,134.587738 240.764557,134.605972 237.976608,134.903107 &#10;&#9;C227.345001,136.036148 219.855209,144.286545 219.162308,155.413132 &#10;&#9;C218.434113,167.106491 223.811386,175.125168 234.786102,177.549179 &#10;&#9;C238.728531,178.419968 243.111572,178.290176 247.128189,177.622421 &#10;&#9;C255.333588,176.258301 255.597107,175.603790 255.729416,166.357941 &#10;M578.010010,158.580765 &#10;&#9;C578.010010,157.009750 578.010010,155.438736 578.010010,154.084061 &#10;&#9;C571.823181,154.084061 566.420410,154.084061 561.338257,154.084061 &#10;&#9;C561.338257,156.566635 561.338257,158.621246 561.338257,160.651016 &#10;&#9;C564.174316,160.822479 566.588928,160.968445 568.943054,161.110764 &#10;&#9;C569.444824,170.066910 566.860901,172.286514 559.274597,169.893341 &#10;&#9;C553.528564,168.080688 550.255371,161.930145 551.072571,154.481232 &#10;&#9;C551.847778,147.415451 556.665588,142.170868 563.173218,142.129578 &#10;&#9;C567.376282,142.102890 571.585632,143.057663 575.896606,143.585403 &#10;&#9;C575.896606,141.086456 575.896606,138.655853 575.896606,135.829239 &#10;&#9;C571.711487,135.367523 567.763550,134.580460 563.811646,134.560181 &#10;&#9;C550.606018,134.492355 541.668274,143.683090 541.703186,156.971878 &#10;&#9;C541.738647,170.480118 549.967712,178.405090 563.908630,178.118423 &#10;&#9;C566.867371,178.057571 569.828552,177.376785 572.758301,176.821915 &#10;&#9;C576.728455,176.069992 578.745789,174.016647 578.102173,169.546677 &#10;&#9;C577.632202,166.283051 578.010071,162.897369 578.010010,158.580765 &#10;M316.121521,149.311142 &#10;&#9;C315.156433,146.665054 313.788147,144.089005 313.313690,141.357697 &#10;&#9;C312.437958,136.316391 309.268127,136.096832 305.049957,135.886887 &#10;&#9;C300.441986,135.657532 300.052826,138.645721 299.037018,141.559357 &#10;&#9;C298.545837,142.968246 298.037689,144.371262 297.533997,145.775787 &#10;&#9;C293.701050,156.463470 289.867279,167.150864 285.887939,178.244904 &#10;&#9;C288.486237,178.244904 290.542847,178.583817 292.409515,178.134140 &#10;&#9;C293.818970,177.794586 295.929291,176.599655 296.104065,175.522110 &#10;&#9;C297.095306,169.410263 300.614838,167.783859 306.216248,168.803574 &#10;&#9;C307.656128,169.065720 309.327820,168.383759 310.657471,168.832855 &#10;&#9;C312.084229,169.314758 313.897522,170.354660 314.394836,171.606735 &#10;&#9;C317.384094,179.132843 317.540466,179.321671 326.162720,177.626648 &#10;&#9;C322.885284,168.405167 319.624908,159.231659 316.121521,149.311142 &#10;M442.941681,139.709122 &#10;&#9;C442.390137,132.207932 437.164948,137.770447 434.311096,135.730240 &#10;&#9;C434.311096,150.321793 434.311096,164.011215 434.311096,177.749298 &#10;&#9;C437.274445,177.749298 439.974457,177.749298 442.941833,177.749298 &#10;&#9;C442.941833,165.166611 442.941833,152.917740 442.941681,139.709122 &#10;z" transform="matrix(0.9999999999999999, 0, 0, 1, -7.105427357601002e-15, 7.105427357601002e-15)"/>
  <path fill="#FF0507" opacity="1.000000" stroke="none" d="&#10;M394.164917,670.999878 &#10;&#9;C394.164917,591.058960 394.164917,511.618042 394.164917,431.778442 &#10;&#9;C414.610718,431.778442 434.545624,431.778442 455.296417,431.778442 &#10;&#9;C455.296417,425.661438 455.333740,419.919220 455.286591,414.177704 &#10;&#9;C455.233337,407.689911 457.024628,400.275757 454.466705,394.976654 &#10;&#9;C451.919800,389.700409 445.018066,386.491943 439.948578,382.474304 &#10;&#9;C425.358978,370.911835 410.730408,359.398621 395.423645,347.318756 &#10;&#9;C435.915619,347.318756 475.594330,347.318756 515.637451,347.318756 &#10;&#9;C515.637451,394.425201 515.637451,441.812958 515.637451,489.649017 &#10;&#9;C495.978363,489.649017 476.233856,489.649017 456.164154,489.649017 &#10;&#9;C456.164154,532.148743 456.164154,574.202820 456.164154,617.176758 &#10;&#9;C468.404449,610.012268 480.410431,603.328064 492.067139,596.081970 &#10;&#9;C509.768463,585.078369 526.877563,573.272095 540.487732,557.120300 &#10;&#9;C551.789551,543.707825 557.056885,528.425720 557.022278,510.785706 &#10;&#9;C556.826172,410.973877 556.927795,311.161438 556.928040,211.349197 &#10;&#9;C556.928040,210.065430 556.927979,208.781677 556.927979,207.286591 &#10;&#9;C577.653992,207.286591 597.899536,207.286591 618.703613,207.286591 &#10;&#9;C618.703613,209.444061 618.703613,211.395096 618.703613,213.346115 &#10;&#9;C618.703613,310.829742 618.272034,408.316315 618.931641,505.795471 &#10;&#9;C619.170898,541.153870 607.505554,571.152405 584.919556,597.577942 &#10;&#9;C563.306458,622.865234 536.896545,642.578003 510.337372,662.183533 &#10;&#9;C486.625031,679.687500 461.299774,694.110962 433.287445,703.357605 &#10;&#9;C420.748901,707.496460 407.769592,710.300110 394.164917,713.929932 &#10;&#9;C394.164917,698.761841 394.164917,685.130859 394.164917,670.999878 &#10;z" transform="matrix(0.9999999999999999, 0, 0, 1, -7.105427357601002e-15, 7.105427357601002e-15)"/>
  <path fill="#FF0709" opacity="1.000000" stroke="none" d="&#10;M297.062164,581.092285 &#10;&#9;C297.138885,578.931885 297.282562,576.771484 297.282745,574.611084 &#10;&#9;C297.293518,454.288757 297.292328,333.966461 297.292328,213.644150 &#10;&#9;C297.292328,211.672150 297.292328,209.700165 297.292328,207.399170 &#10;&#9;C370.225067,207.399170 442.786224,207.399170 515.675781,207.399170 &#10;&#9;C515.675781,239.192825 515.675781,271.067474 515.675781,303.020386 &#10;&#9;C495.594757,303.020386 475.686005,303.020386 455.376068,303.020386 &#10;&#9;C455.376068,291.309113 455.376068,279.873413 455.376068,268.140533 &#10;&#9;C423.076141,268.140533 391.177856,268.140533 358.258240,268.140533 &#10;&#9;C358.258240,387.471252 358.258240,506.721466 357.848572,626.320068 &#10;&#9;C337.313324,611.476440 317.187744,596.284363 297.062164,581.092285 &#10;z" transform="matrix(0.9999999999999999, 0, 0, 1, -7.105427357601002e-15, 7.105427357601002e-15)"/>
  <path fill="#02388A" opacity="1.000000" stroke="none" d="&#10;M296.731232,580.988586 &#10;&#9;C317.187744,596.284363 337.313324,611.476440 357.760895,626.771423 &#10;&#9;C358.221130,629.667725 358.475922,632.460999 358.479401,635.254517 &#10;&#9;C358.510590,660.405212 358.497620,685.555908 358.497620,711.436279 &#10;&#9;C356.825745,710.739441 355.788513,710.468872 354.924561,709.923706 &#10;&#9;C318.863953,687.165894 283.775452,663.055298 252.125092,634.329895 &#10;&#9;C232.208572,616.253906 213.598053,596.995483 201.715179,572.354492 &#10;&#9;C189.940933,547.938843 183.101532,522.634277 183.276154,495.035675 &#10;&#9;C183.868637,401.389313 183.502411,307.736877 183.502411,214.086746 &#10;&#9;C183.502411,211.925415 183.502426,209.764084 183.502426,207.266693 &#10;&#9;C204.258942,207.266693 224.803299,207.266693 245.832474,207.266693 &#10;&#9;C245.832474,209.372299 245.832458,211.326691 245.832458,213.281067 &#10;&#9;C245.832458,304.431641 245.868713,395.582214 245.797836,486.732727 &#10;&#9;C245.785583,502.486542 247.071106,517.963440 252.916794,532.785889 &#10;&#9;C257.840057,545.269470 265.271790,555.941650 275.706085,564.424622 &#10;&#9;C282.544800,569.984375 289.498230,575.403015 296.731232,580.988586 &#10;z" transform="matrix(0.9999999999999999, 0, 0, 1, -7.105427357601002e-15, 7.105427357601002e-15)"/>
  <path fill="#0B3F8E" opacity="1.000000" stroke="none" d="&#10;M403.539215,150.012817 &#10;&#9;C403.539185,159.479828 403.539185,168.449677 403.539185,177.753845 &#10;&#9;C400.650269,177.753845 398.093018,177.753845 395.126038,177.753845 &#10;&#9;C395.126038,167.930145 395.126038,158.028076 395.126038,148.125992 &#10;&#9;C394.827576,148.067017 394.529144,148.008026 394.230682,147.949036 &#10;&#9;C391.183899,156.613525 387.996246,165.232346 385.165771,173.966934 &#10;&#9;C384.157440,177.078583 382.864319,178.592468 379.340759,178.471146 &#10;&#9;C375.848267,178.350876 375.606171,176.081909 374.770355,173.676361 &#10;&#9;C371.853088,165.279922 368.739288,156.951797 364.888184,148.693161 &#10;&#9;C364.888184,158.343399 364.888184,167.993652 364.888184,177.860291 &#10;&#9;C362.106537,177.860291 359.838104,177.860291 357.272552,177.860291 &#10;&#9;C357.272552,164.126450 357.272552,150.381516 357.272552,136.055618 &#10;&#9;C360.600708,136.055618 364.069061,135.742279 367.427643,136.212753 &#10;&#9;C368.736511,136.396088 370.360657,138.134125 370.880615,139.523499 &#10;&#9;C374.132416,148.212769 377.112549,157.003723 380.535461,166.767456 &#10;&#9;C383.588135,157.868103 386.564148,149.996262 388.941528,141.947586 &#10;&#9;C390.281433,137.411301 392.391388,135.145721 397.302063,136.000626 &#10;&#9;C399.070587,136.308487 400.937683,136.050064 403.539246,136.050064 &#10;&#9;C403.539246,140.686234 403.539246,145.100937 403.539215,150.012817 &#10;z" transform="matrix(0.9999999999999999, 0, 0, 1, -7.105427357601002e-15, 7.105427357601002e-15)"/>
  <path fill="#0B3F8F" opacity="1.000000" stroke="none" d="&#10;M493.246307,149.713165 &#10;&#9;C496.378357,154.574692 499.309357,159.133560 502.240387,163.692444 &#10;&#9;C502.567596,163.634109 502.894836,163.575775 503.222046,163.517441 &#10;&#9;C503.222046,154.532227 503.222046,145.547028 503.222046,136.365143 &#10;&#9;C506.316528,136.365143 508.737457,136.365143 511.444397,136.365143 &#10;&#9;C511.444397,150.312744 511.444397,164.036697 511.444397,177.667557 &#10;&#9;C505.535553,179.344681 501.729858,177.883804 498.696960,172.318207 &#10;&#9;C494.391663,164.417786 489.048279,157.083084 483.240417,149.855896 &#10;&#9;C483.240417,159.077896 483.240417,168.299896 483.240417,177.803314 &#10;&#9;C480.462585,177.803314 478.052795,177.803314 475.309509,177.803314 &#10;&#9;C475.309509,164.069016 475.309509,150.340469 475.309509,136.613022 &#10;&#9;C483.750122,134.998199 483.911865,135.073456 488.463104,142.275238 &#10;&#9;C489.973114,144.664642 491.516907,147.032715 493.246307,149.713165 &#10;z" transform="matrix(0.9999999999999999, 0, 0, 1, -7.105427357601002e-15, 7.105427357601002e-15)"/>
  <path fill="#0B3F8F" opacity="1.000000" stroke="none" d="&#10;M255.729401,166.829224 &#10;&#9;C255.597107,175.603790 255.333588,176.258301 247.128189,177.622421 &#10;&#9;C243.111572,178.290176 238.728531,178.419968 234.786102,177.549179 &#10;&#9;C223.811386,175.125168 218.434113,167.106491 219.162308,155.413132 &#10;&#9;C219.855209,144.286545 227.345001,136.036148 237.976608,134.903107 &#10;&#9;C240.764557,134.605972 243.624908,134.587738 246.419174,134.826172 &#10;&#9;C254.353302,135.503220 254.365677,135.605209 253.455231,143.910858 &#10;&#9;C249.752075,143.281311 246.080750,142.329086 242.364578,142.097809 &#10;&#9;C235.841064,141.691833 231.136246,145.382919 229.105682,151.934555 &#10;&#9;C227.136993,158.286606 229.187454,166.367126 234.373535,168.694290 &#10;&#9;C237.566483,170.127090 241.823929,170.303772 245.250687,169.513992 &#10;&#9;C246.505646,169.224747 246.743393,164.521927 247.599670,161.240402 &#10;&#9;C244.118423,161.052872 241.693604,160.922241 238.866333,160.769943 &#10;&#9;C238.866333,158.698975 238.866333,156.647125 238.866333,154.198074 &#10;&#9;C244.123703,154.198074 249.504456,154.198074 255.729416,154.198074 &#10;&#9;C255.729416,158.199570 255.729416,162.278763 255.729401,166.829224 &#10;z" transform="matrix(0.9999999999999999, 0, 0, 1, -7.105427357601002e-15, 7.105427357601002e-15)"/>
  <path fill="#073C8D" opacity="1.000000" stroke="none" d="&#10;M578.010010,159.073425 &#10;&#9;C578.010071,162.897369 577.632202,166.283051 578.102173,169.546677 &#10;&#9;C578.745789,174.016647 576.728455,176.069992 572.758301,176.821915 &#10;&#9;C569.828552,177.376785 566.867371,178.057571 563.908630,178.118423 &#10;&#9;C549.967712,178.405090 541.738647,170.480118 541.703186,156.971878 &#10;&#9;C541.668274,143.683090 550.606018,134.492355 563.811646,134.560181 &#10;&#9;C567.763550,134.580460 571.711487,135.367523 575.896606,135.829239 &#10;&#9;C575.896606,138.655853 575.896606,141.086456 575.896606,143.585403 &#10;&#9;C571.585632,143.057663 567.376282,142.102890 563.173218,142.129578 &#10;&#9;C556.665588,142.170868 551.847778,147.415451 551.072571,154.481232 &#10;&#9;C550.255371,161.930145 553.528564,168.080688 559.274597,169.893341 &#10;&#9;C566.860901,172.286514 569.444824,170.066910 568.943054,161.110764 &#10;&#9;C566.588928,160.968445 564.174316,160.822479 561.338257,160.651016 &#10;&#9;C561.338257,158.621246 561.338257,156.566635 561.338257,154.084061 &#10;&#9;C566.420410,154.084061 571.823181,154.084061 578.010010,154.084061 &#10;&#9;C578.010010,155.438736 578.010010,157.009750 578.010010,159.073425 &#10;z" transform="matrix(0.9999999999999999, 0, 0, 1, -7.105427357601002e-15, 7.105427357601002e-15)"/>
  <path fill="#093D8E" opacity="1.000000" stroke="none" d="&#10;M316.243042,149.684647 &#10;&#9;C319.624908,159.231659 322.885284,168.405167 326.162720,177.626648 &#10;&#9;C317.540466,179.321671 317.384094,179.132843 314.394836,171.606735 &#10;&#9;C313.897522,170.354660 312.084229,169.314758 310.657471,168.832855 &#10;&#9;C309.327820,168.383759 307.656128,169.065720 306.216248,168.803574 &#10;&#9;C300.614838,167.783859 297.095306,169.410263 296.104065,175.522110 &#10;&#9;C295.929291,176.599655 293.818970,177.794586 292.409515,178.134140 &#10;&#9;C290.542847,178.583817 288.486237,178.244904 285.887939,178.244904 &#10;&#9;C289.867279,167.150864 293.701050,156.463470 297.533997,145.775787 &#10;&#9;C298.037689,144.371262 298.545837,142.968246 299.037018,141.559357 &#10;&#9;C300.052826,138.645721 300.441986,135.657532 305.049957,135.886887 &#10;&#9;C309.268127,136.096832 312.437958,136.316391 313.313690,141.357697 &#10;&#9;C313.788147,144.089005 315.156433,146.665054 316.243042,149.684647 &#10;M307.471252,149.036804 &#10;&#9;C307.049988,147.991211 306.628693,146.945618 305.773956,144.824265 &#10;&#9;C303.825836,151.066498 302.269989,156.051849 300.586548,161.446014 &#10;&#9;C304.410309,161.446014 307.592010,161.446014 311.302979,161.446014 &#10;&#9;C310.052643,157.275604 308.924927,153.514252 307.471252,149.036804 &#10;z" transform="matrix(0.9999999999999999, 0, 0, 1, -7.105427357601002e-15, 7.105427357601002e-15)"/>
  <path fill="#083D8D" opacity="1.000000" stroke="none" d="&#10;M442.941772,140.188995 &#10;&#9;C442.941833,152.917740 442.941833,165.166611 442.941833,177.749298 &#10;&#9;C439.974457,177.749298 437.274445,177.749298 434.311096,177.749298 &#10;&#9;C434.311096,164.011215 434.311096,150.321793 434.311096,135.730240 &#10;&#9;C437.164948,137.770447 442.390137,132.207932 442.941772,140.188995 &#10;z" transform="matrix(0.9999999999999999, 0, 0, 1, -7.105427357601002e-15, 7.105427357601002e-15)"/>
  <path fill="#E9EEF5" opacity="1.000000" stroke="none" d="&#10;M307.634247,149.394867 &#10;&#9;C308.924927,153.514252 310.052643,157.275604 311.302979,161.446014 &#10;&#9;C307.592010,161.446014 304.410309,161.446014 300.586548,161.446014 &#10;&#9;C302.269989,156.051849 303.825836,151.066498 305.773956,144.824265 &#10;&#9;C306.628693,146.945618 307.049988,147.991211 307.634247,149.394867 &#10;z" transform="matrix(0.9999999999999999, 0, 0, 1, -7.105427357601002e-15, 7.105427357601002e-15)"/>
</svg>