<?xml version="1.0" encoding="utf-8"?>
<svg viewBox="0 0 3840 2315" width="3840" height="2315" xmlns="http://www.w3.org/2000/svg">
  <path fill="#F60A0A" opacity="1.000000" stroke="none" d="M 2894.322 1686.126 C 2894.322 1686.126 2894.649 1686.113 2893.981 1685.856 C 2892.717 1686.208 2892.121 1686.815 2891.144 1687.546 C 2890.243 1687.955 2890.013 1688.393 2889.772 1689.517 C 2889.4 1690.454 2889.327 1690.856 2888.828 1691.751 C 2886.606 1695.955 2884.81 1699.667 2882.558 1704.351 C 2881.864 1705.999 2881.624 1706.674 2881.097 1707.427 C 2880.265 1707.978 2880.172 1708.504 2880.025 1709.624 C 2875.49 1718.939 2871.548 1727.757 2867.382 1736.468 C 2865.931 1739.503 2863.928 1742.274 2861.616 1745.654 C 2858.41 1751.52 2855.767 1756.897 2852.535 1762.517 C 2847.797 1771.883 2843.647 1781.005 2839.497 1790.127 C 2839.497 1790.127 2839.352 1790.547 2838.666 1791.121 C 2833.873 1798.74 2829.765 1805.786 2824.979 1813.122 C 2823.299 1815.562 2822.296 1817.712 2820.726 1820.145 C 2818.533 1823.115 2816.908 1825.8 2814.779 1828.817 C 2807.57 1838.027 2800.805 1846.863 2794.212 1855.825 C 2792.933 1857.564 2792.328 1859.8 2791.412 1861.807 C 2791.412 1861.807 2791.245 1861.613 2790.754 1861.777 C 2788.022 1864.672 2785.781 1867.403 2783.54 1870.134 C 2783.54 1870.134 2783.323 1870.746 2782.557 1871.271 C 2777.854 1876.173 2773.916 1880.55 2769.444 1885.02 C 2768.575 1885.256 2768.242 1885.398 2767.796 1885.408 C 2767.684 1885.275 2767.586 1885.783 2767.187 1886.228 C 2766.647 1887.046 2766.506 1887.419 2765.828 1888.076 C 2759.871 1893.731 2754.451 1899.1 2748.492 1904.538 C 2746.639 1906.308 2745.324 1908.01 2744.01 1909.712 C 2744.01 1909.712 2743.787 1910.025 2743.001 1910.164 C 2736.508 1915.249 2730.801 1920.194 2724.393 1925.215 C 2716.873 1930.707 2710.054 1936.124 2703.236 1941.541 C 2703.236 1941.541 2703.254 1941.407 2702.635 1941.294 C 2698.623 1943.704 2695.229 1946.226 2691.067 1948.764 C 2688.608 1949.788 2686.916 1950.796 2684.558 1951.943 C 2680.266 1954.163 2676.511 1956.05 2673.054 1958.38 C 2669.988 1960.446 2667.253 1963.003 2664.372 1965.343 C 2664.372 1965.343 2664.258 1965.499 2663.354 1965.362 C 2644.027 1973.387 2625.603 1981.549 2607.18 1989.711 C 2607.18 1989.712 2607.481 1989.525 2606.775 1989.533 C 2599.099 1992.168 2592.13 1994.796 2585.16 1997.424 C 2584.76 1997.656 2584.361 1997.889 2582.708 1998.233 C 2572.093 1998.766 2563.095 2000.553 2554.912 2005.404 C 2554.328 2005.493 2553.744 2005.581 2551.543 2005.515 C 2546.904 2006.101 2543.882 2006.841 2540 2007.461 C 2524.369 2009.462 2509.597 2011.584 2494.825 2013.706 C 2493.015 2013.764 2491.205 2013.822 2487.661 2013.648 C 2474.365 2013.828 2462.804 2014.592 2451.242 2014.599 C 2313.074 2014.681 2174.905 2014.556 2036.737 2014.846 C 2026.458 2014.867 2017.945 2012.737 2010.278 2005.93 C 2006.93 2002.957 2002.64 2001.046 1998.778 1998.652 C 1998.474 1998.45 1998.17 1998.248 1997.298 1997.081 C 1989.257 1990.235 1981.855 1984.261 1974.268 1978.531 C 1972.022 1976.835 1969.256 1975.826 1966.728 1974.502 C 1966.728 1974.502 1966.477 1974.325 1966.415 1973.553 C 1955.803 1965.095 1945.253 1957.41 1934.703 1949.725 C 1934.703 1949.725 1934.976 1949.806 1934.956 1949.281 C 1932.705 1947.107 1930.474 1945.458 1927.797 1943.211 C 1926.035 1941.954 1924.719 1941.295 1923.181 1940.037 C 1909.664 1929.173 1896.395 1918.873 1883.064 1908.655 C 1875.575 1902.915 1867.984 1897.309 1860.61 1891.771 C 1856.48 1894.588 1854.954 1897.561 1855.937 1901.61 C 1855.937 1901.61 1855.505 1902.341 1854.664 1903.019 C 1851.701 1908.476 1849.58 1913.257 1847.458 1918.038 C 1847.459 1918.038 1847.266 1918.524 1846.536 1919.097 C 1843.715 1924.422 1841.626 1929.175 1839.536 1933.928 C 1839.536 1933.928 1839.328 1934.342 1838.551 1934.801 C 1835.679 1940.135 1833.584 1945.011 1831.489 1949.886 C 1831.245 1950.445 1831.048 1951.021 1830.145 1952.381 C 1822.262 1961.407 1817.949 1971.062 1815.298 1981.542 C 1815.298 1981.542 1815.262 1981.419 1814.661 1981.568 C 1809.816 1990.127 1805.57 1998.536 1801.146 2007.129 C 1800.967 2007.314 1800.926 2007.828 1800.616 2007.962 C 1800.067 2009.088 1799.828 2010.081 1799.371 2011.736 C 1799.202 2012.861 1799.249 2013.324 1799.296 2013.786 C 1799.296 2013.786 1799.052 2014.346 1798.307 2014.772 C 1796.697 2016.438 1795.831 2017.677 1794.435 2019.323 C 1792.496 2022.952 1791.087 2026.175 1789.209 2029.907 C 1782.964 2042.181 1777.188 2053.947 1770.887 2066.196 C 1769.293 2070.271 1768.225 2073.864 1767.157 2077.457 C 1767.157 2077.457 1767.213 2077.302 1766.613 2077.433 C 1760.646 2087.667 1755.279 2097.771 1749.392 2108.303 C 1745.013 2116.678 1741.154 2124.624 1737.131 2132.705 C 1736.966 2132.838 1736.959 2133.256 1736.474 2133.477 C 1735.647 2134.648 1735.304 2135.598 1734.732 2136.736 C 1734.503 2136.924 1734.516 2137.516 1734.154 2138.056 C 1730.955 2144.336 1728.117 2150.076 1724.807 2156.27 C 1720.244 2164.669 1716.153 2172.615 1711.727 2181.224 C 1711.047 2183.74 1710.701 2185.593 1709.708 2187.767 C 1703.823 2198.151 1698.538 2208.189 1693.376 2218.289 C 1691.622 2221.72 1690.179 2225.311 1687.974 2229.175 C 1686.989 2230.837 1686.624 2232.154 1685.811 2233.886 C 1680.858 2243.159 1676.354 2252.015 1671.299 2261.491 C 1670.565 2263.18 1670.384 2264.249 1669.632 2265.582 C 1664.937 2273.631 1660.812 2281.417 1656.352 2289.479 C 1655.78 2291.289 1655.543 2292.824 1655.306 2294.36 C 1655.21 2294.759 1655.115 2295.157 1654.271 2296.521 C 1650.103 2302.796 1646.681 2308.107 1643.26 2313.417 C 1511.885 2313.417 1380.51 2313.417 1247.721 2312.856 C 1246.299 2311.316 1246.29 2310.337 1246.282 2309.358 C 1246.553 2308.158 1246.824 2306.958 1247.804 2304.702 C 1248.779 2303.234 1249.046 2302.823 1249.76 2302.223 C 1250.419 2301.147 1250.63 2300.26 1250.98 2298.822 C 1251.166 2297.896 1251.213 2297.52 1251.793 2296.825 C 1253.511 2294.322 1254.695 2292.138 1256.284 2289.409 C 1260.146 2282.157 1263.683 2275.488 1267.045 2268.731 C 1273.645 2255.467 1280.148 2242.154 1286.692 2228.861 C 1286.692 2228.861 1287.121 2229.012 1287.272 2228.563 C 1289.4 2224.332 1291.379 2220.551 1293.732 2216.38 C 1294.402 2214.945 1294.697 2213.898 1294.991 2212.851 C 1294.991 2212.851 1295.256 2213.152 1295.544 2212.739 C 1298.286 2206.972 1300.741 2201.618 1303.195 2196.263 C 1303.195 2196.263 1303.243 2196.425 1303.784 2196.032 C 1306.457 2190.792 1308.589 2185.944 1310.722 2181.095 C 1310.722 2181.095 1310.932 2180.597 1311.694 2179.999 C 1314.603 2174.62 1316.75 2169.84 1318.896 2165.06 C 1318.896 2165.06 1319.075 2164.441 1319.802 2163.798 C 1322.742 2158.518 1324.954 2153.882 1327.166 2149.246 C 1327.166 2149.246 1327.217 2149.371 1327.704 2148.981 C 1330.526 2143.479 1332.861 2138.367 1335.196 2133.255 C 1335.196 2133.255 1335.254 2133.398 1335.831 2133.16 C 1338.68 2127.702 1340.952 2122.482 1343.224 2117.263 C 1343.224 2117.263 1343.267 2117.414 1343.801 2117.1 C 1346.683 2111.313 1349.032 2105.84 1351.381 2100.367 C 1351.381 2100.367 1351.403 2100.524 1351.975 2100.174 C 1354.787 2094.981 1357.027 2090.138 1359.266 2085.295 C 1359.266 2085.295 1359.306 2085.447 1359.896 2085.239 C 1362.734 2079.781 1364.983 2074.53 1367.232 2069.279 C 1367.232 2069.279 1367.26 2069.412 1367.801 2069.397 C 1369.032 2068 1369.723 2066.617 1370.832 2064.642 C 1372.581 2060.461 1373.911 2056.873 1375.242 2053.285 C 1375.242 2053.285 1375.273 2053.42 1375.717 2053.349 C 1376.535 2052.716 1376.907 2052.154 1377.786 2051.2 C 1378.648 2049.181 1379.003 2047.553 1379.989 2045.604 C 1381.583 2043.195 1382.547 2041.109 1383.681 2038.568 C 1383.852 2038.113 1383.282 2037.325 1383.282 2037.325 C 1383.282 2037.325 1383.299 2037.47 1383.899 2037.367 C 1393.977 2018.742 1403.455 2000.219 1413.403 1981.236 C 1414.296 1979.588 1414.718 1978.401 1415.523 1976.648 C 1418.415 1969.881 1420.924 1963.679 1423.433 1957.477 C 1423.433 1957.477 1423.319 1957.421 1424.012 1957.441 C 1428.76 1949.675 1432.816 1941.889 1437.437 1933.694 C 1438.497 1931.569 1438.993 1929.854 1440.025 1927.716 C 1444.735 1918.863 1448.908 1910.434 1453.709 1901.623 C 1456.561 1896.074 1458.785 1890.907 1461.366 1885.588 C 1461.723 1885.436 1462.273 1884.888 1462.444 1884.973 C 1462.616 1885.058 1462.561 1884.476 1462.805 1883.863 C 1463.15 1882.821 1463.251 1882.393 1463.859 1881.448 C 1466.343 1877.046 1468.319 1873.162 1470.295 1869.277 C 1470.887 1867.096 1471.48 1864.915 1472.674 1861.64 C 1475.39 1856.956 1477.506 1853.364 1480.189 1849.438 C 1482.623 1845.148 1484.488 1841.192 1486.353 1837.237 C 1486.552 1836.714 1486.752 1836.191 1487.676 1834.569 C 1490.44 1829.33 1492.478 1825.192 1494.517 1821.053 C 1494.746 1820.298 1494.974 1819.543 1495.943 1817.823 C 1498.783 1812.817 1500.884 1808.778 1502.986 1804.738 C 1502.986 1804.738 1503.337 1805.029 1503.651 1804.705 C 1506.188 1799.297 1508.411 1794.215 1510.634 1789.132 C 1510.634 1789.132 1510.951 1788.308 1511.708 1787.591 C 1514.493 1782.336 1516.523 1777.799 1518.552 1773.263 C 1518.552 1773.263 1518.942 1772.381 1519.728 1771.611 C 1522.655 1766.115 1524.795 1761.39 1526.936 1756.665 C 1526.936 1756.665 1527.025 1755.948 1527.643 1755.213 C 1530.568 1750.069 1532.875 1745.659 1535.182 1741.249 C 1535.182 1741.249 1535.23 1741.375 1535.798 1741.097 C 1538.648 1735.635 1540.932 1730.451 1543.215 1725.267 C 1543.215 1725.267 1543.247 1725.404 1543.796 1725.103 C 1546.563 1719.529 1548.78 1714.256 1550.996 1708.983 C 1550.996 1708.983 1551.219 1709.258 1551.568 1708.87 C 1554.352 1703.415 1556.787 1698.349 1559.222 1693.282 C 1559.222 1693.282 1559.258 1693.416 1559.842 1693.193 C 1562.686 1687.74 1564.946 1682.51 1567.205 1677.28 C 1567.205 1677.28 1567.25 1677.403 1567.886 1677.3 C 1570.763 1671.892 1573.003 1666.587 1575.243 1661.283 C 1575.243 1661.283 1575.268 1661.42 1575.749 1661.364 C 1576.51 1660.662 1576.79 1660.015 1577.531 1658.851 C 1579.772 1654 1581.552 1649.666 1583.332 1645.331 C 1583.332 1645.331 1583.346 1645.503 1583.902 1645.268 C 1586.441 1639.669 1592.258 1635.991 1591.354 1629.356 C 1591.354 1629.356 1591.343 1629.517 1591.915 1629.32 C 1598.788 1616.432 1605.089 1603.741 1611.963 1590.803 C 1613.408 1588.236 1614.281 1585.916 1615.426 1583.06 C 1615.594 1582.139 1615.489 1581.752 1615.384 1581.366 C 1615.384 1581.366 1615.383 1581.553 1615.937 1581.359 C 1621.345 1572.449 1626.298 1563.786 1630.957 1554.967 C 1631.753 1553.46 1631.294 1551.289 1631.415 1549.424 C 1631.415 1549.424 1631.408 1549.545 1632.041 1549.503 C 1636.812 1541.687 1640.951 1533.912 1645.429 1525.861 C 1645.768 1525.585 1646.269 1524.868 1646.414 1524.929 C 1646.559 1524.99 1646.518 1524.507 1646.807 1523.724 C 1647.35 1521.859 1647.603 1520.776 1648.36 1519.378 C 1649.665 1517.244 1650.465 1515.424 1651.814 1513.213 C 1654.523 1508.802 1656.684 1504.782 1659.125 1500.239 C 1652.129 1494.744 1646.755 1488.33 1638.437 1485.914 C 1638.437 1485.914 1638.809 1485.607 1638.695 1485.195 C 1636.187 1483.089 1633.794 1481.395 1630.987 1479.16 C 1622.601 1473.145 1614.628 1467.673 1606.656 1462.201 C 1606.656 1462.201 1606.226 1461.931 1606.07 1461.168 C 1602.433 1457.86 1598.952 1455.316 1595.246 1452.161 C 1588.79 1445.792 1582.682 1439.852 1574.249 1437.298 C 1574.249 1437.298 1574.368 1437.3 1574.378 1436.88 C 1574.387 1436.46 1573.609 1435.899 1573.253 1435.203 C 1571.467 1433.951 1570.038 1433.395 1568.529 1432.546 C 1568.449 1432.252 1567.846 1432.171 1567.68 1431.588 C 1566.197 1430.228 1564.879 1429.451 1563.246 1428.126 C 1559.848 1425.38 1556.766 1423.184 1553.435 1420.369 C 1547.108 1415.516 1541.032 1411.28 1534.955 1407.044 C 1534.583 1406.785 1534.211 1406.527 1533.25 1405.33 C 1530.901 1402.965 1529.14 1401.538 1526.954 1399.577 C 1525.414 1398.255 1524.298 1397.467 1522.8 1396.166 C 1518.652 1393.593 1514.885 1391.534 1511.119 1389.476 C 1511.119 1389.476 1511.243 1389.44 1511.192 1388.815 C 1508.213 1386.161 1505.285 1384.132 1502.358 1382.102 C 1502.358 1382.102 1501.745 1381.889 1501.317 1381.049 C 1494.111 1374.574 1488.374 1367.404 1479.105 1365.444 C 1479.105 1365.444 1479.245 1365.436 1479.144 1364.797 C 1477.508 1361.271 1475.973 1358.385 1475.424 1355.593 C 1477.742 1355.708 1479.075 1355.747 1480.407 1355.747 C 1903.24 1355.75 2326.073 1355.752 2748.906 1355.733 C 2752.562 1355.733 2756.218 1355.454 2760.489 1355.474 C 2763.183 1356.274 2765.262 1356.906 2767.341 1357.538 C 2767.341 1357.538 2767.14 1357.54 2767.455 1358.068 C 2770.922 1361.055 2774.074 1363.515 2777.571 1366.377 C 2785.035 1371.7 2792.157 1376.621 2799.278 1381.543 C 2799.278 1381.543 2799.268 1381.405 2799.281 1382.089 C 2812.655 1392.966 2826.017 1403.159 2839.904 1413.748 C 2848.028 1419.285 2855.626 1424.425 2863.225 1429.565 C 2863.225 1429.565 2863.236 1429.436 2862.992 1430.055 C 2864.958 1432.458 2867.167 1434.241 2870.17 1436.664 C 2871.596 1437.555 2872.227 1437.807 2873.104 1438.665 C 2878.268 1443.177 2883.059 1447.26 2888.168 1450.898 C 2890.148 1452.308 2892.845 1452.711 2895.215 1453.572 C 2895.215 1453.572 2895.245 1453.444 2895.04 1454.057 C 2895.713 1455.455 2896.59 1456.239 2897.759 1457.67 C 2899.658 1459.311 2901.266 1460.306 2902.874 1461.301 C 2902.874 1461.301 2902.561 1461.518 2902.866 1461.946 C 2913.903 1470.073 2924.634 1477.772 2935.365 1485.471 C 2935.365 1485.471 2935.206 1485.47 2935.283 1485.936 C 2935.984 1486.746 2936.608 1487.091 2937.629 1487.967 C 2946.425 1494.822 2954.823 1501.146 2963.496 1507.895 C 2964.603 1508.237 2965.436 1508.153 2966.274 1508.388 C 2966.279 1508.706 2966.9 1508.842 2966.9 1508.842 C 2966.9 1508.842 2966.952 1508.703 2967.012 1509.425 C 2969.907 1512.84 2972.742 1515.532 2975.965 1518.593 C 2968.487 1534.014 2961.062 1549.328 2953.241 1564.937 C 2952.845 1565.233 2952.168 1565.954 2952.103 1565.878 C 2952.036 1565.803 2952.101 1566.043 2951.649 1567.18 C 2951.087 1569.127 2950.977 1569.935 2950.402 1571.084 C 2939.42 1591.602 2928.804 1611.73 2918.422 1631.978 C 2913.307 1641.954 2908.622 1652.15 2903.317 1663.095 C 2902.957 1665.766 2903.023 1667.588 2903.089 1669.41 C 2903.089 1669.41 2903.142 1669.304 2902.963 1669.064 C 2902.785 1668.824 2902.23 1669.268 2901.53 1669.19 C 2900.306 1669.847 2899.782 1670.58 2899.2 1671.314 C 2899.141 1671.316 2899.151 1671.433 2898.814 1671.566 C 2898.044 1672.024 2897.887 1672.451 2897.703 1673.586 C 2897.299 1674.635 2897.199 1675.077 2896.674 1675.938 C 2895.476 1679.005 2894.704 1681.653 2893.733 1684.821 C 2893.798 1685.602 2894.06 1685.864 2894.322 1686.126 M 2468.287 1722.489 C 2469.217 1720.562 2470.147 1718.634 2471.151 1716.35 C 2471.151 1716.35 2471.335 1716.035 2472.481 1715.638 C 2473.701 1713.873 2474.922 1712.108 2477.447 1709.638 C 2478.167 1708.404 2478.887 1707.17 2480.721 1705.191 C 2482.713 1701.112 2484.705 1697.034 2486.916 1692.369 C 2486.916 1692.369 2487.172 1691.798 2488.322 1690.995 C 2490.604 1686.404 2492.886 1681.812 2495.226 1677.376 C 2495.226 1677.376 2495.071 1677.433 2496.073 1676.752 C 2496.336 1675.611 2496.598 1674.47 2497.735 1672.298 C 2499.549 1668.614 2501.363 1664.93 2503.226 1661.369 C 2503.226 1661.369 2503.094 1661.391 2504.355 1660.784 C 2506.66 1655.283 2508.965 1649.782 2511.342 1644.399 C 2511.342 1644.399 2511.223 1644.47 2512.512 1643.692 C 2514.789 1638.567 2517.065 1633.441 2519.379 1628.493 C 2519.379 1628.493 2519.203 1628.534 2520.479 1627.782 C 2522.717 1622.945 2524.956 1618.108 2527.255 1613.405 C 2527.255 1613.405 2527.12 1613.465 2528.19 1612.64 C 2530.629 1608.069 2533.068 1603.498 2536.287 1597.465 C 2532.136 1597.711 2529.362 1597.875 2524.305 1597.828 C 2356.26 1597.811 2188.214 1597.794 2020.169 1597.79 C 2018.51 1597.79 2016.851 1597.969 2014.066 1597.642 C 2010.408 1596.433 2008.806 1598.315 2007.274 1601.438 C 2002.184 1611.814 1996.741 1622.017 1991.496 1632.318 C 1975.541 1663.648 1959.572 1694.971 1943.727 1726.356 C 1941.368 1731.029 1939.642 1736.021 1936.3 1741.493 C 1935.811 1743.325 1935.323 1745.156 1933.597 1747.525 C 1930.778 1752.908 1927.96 1758.291 1924.291 1764.6 C 1923.111 1767.43 1921.931 1770.259 1920.183 1774.449 C 1926.709 1774.449 1931.34 1774.449 1935.97 1774.449 C 2073.87 1774.442 2211.77 1774.445 2349.67 1774.403 C 2356.639 1774.401 2363.608 1774.012 2372.573 1773.648 C 2373.234 1773.552 2373.894 1773.456 2376.041 1773.455 C 2384.712 1770.715 2394.512 1771.819 2404.143 1765.808 C 2405.32 1765.323 2406.497 1764.839 2409.04 1764.412 C 2413.02 1762.85 2417.214 1761.679 2420.939 1759.649 C 2430.374 1754.508 2440.273 1749.942 2447.298 1741.439 C 2447.298 1741.439 2447.148 1741.457 2448.55 1741.452 C 2451.578 1739.39 2455.411 1738.005 2455.339 1733.503 C 2455.339 1733.503 2455.187 1733.495 2456.58 1733.47 C 2458.829 1730.754 2461.077 1728.038 2463.333 1725.476 C 2463.333 1725.476 2463.179 1725.486 2464.421 1725.533 C 2465.311 1724.728 2466.201 1723.923 2468.287 1722.489 Z" transform="matrix(1.0000000000000002, 0, 0, 1.0000000000000002, 0, 5.684341886080802e-14)"/>
  <path fill="#F60A0A" opacity="1.000000" stroke="none" d="M 2986.131 1790.905 C 2986.131 1790.905 2986.075 1790.979 2986.605 1790.507 C 2989.378 1785.274 2991.62 1780.513 2993.863 1775.753 C 2993.863 1775.753 2993.907 1775.887 2994.443 1775.571 C 2997.283 1770.093 2999.586 1764.93 3001.89 1759.768 C 3001.89 1759.768 3001.937 1759.909 3002.372 1759.617 C 3003.249 1758.231 3003.691 1757.138 3004.069 1756.021 C 3004.005 1755.996 3003.985 1756.131 3004.46 1755.978 C 3005.526 1755.41 3005.819 1754.842 3006.308 1753.564 C 3007.852 1749.648 3008.902 1746.29 3009.951 1742.931 C 3009.951 1742.931 3009.971 1742.975 3010.521 1742.695 C 3012.273 1740.484 3013.475 1738.554 3015.235 1735.858 C 3016.046 1734.512 3016.3 1733.933 3017.008 1732.855 C 3017.723 1730.548 3017.984 1728.742 3018.245 1726.935 C 3018.245 1726.935 3018.076 1726.947 3018.727 1726.674 C 3025.949 1717.017 3031.096 1706.952 3033.996 1695.813 C 3033.996 1695.813 3034 1695.978 3034.589 1695.845 C 3037.389 1691.141 3039.6 1686.569 3042.044 1681.255 C 3042.235 1679.993 3042.194 1679.476 3042.153 1678.958 C 3042.153 1678.958 3042.004 1678.997 3042.739 1678.798 C 3044.759 1677.107 3046.395 1675.795 3047.27 1674.091 C 3052.367 1664.162 3057.382 1654.188 3062.229 1644.134 C 3065.326 1637.71 3068.085 1631.123 3071.612 1624.16 C 3072.681 1622.35 3073.133 1620.988 3073.957 1619.067 C 3077.338 1612.872 3080.348 1607.235 3083.733 1601.025 C 3086.802 1595.539 3089.724 1590.737 3092.137 1585.692 C 3096.082 1577.442 3099.697 1569.033 3104.091 1560.254 C 3107.928 1553.31 3111.126 1546.802 3114.822 1539.823 C 3117.869 1534.328 3120.417 1529.304 3123.418 1523.815 C 3125.392 1519.644 3126.911 1515.935 3128.431 1512.227 C 3128.792 1511.647 3129.152 1511.066 3130.262 1509.66 C 3133.607 1505.816 3135.41 1502.787 3131.081 1499.718 C 3122.81 1493.854 3114.536 1487.994 3105.692 1481.897 C 3104.199 1480.871 3103.279 1480.081 3102.14 1478.668 C 3092.127 1470.837 3082.333 1463.629 3072.539 1456.421 C 3072.539 1456.421 3072.087 1456.419 3071.746 1455.652 C 3061.319 1447.517 3051.234 1440.149 3041.149 1432.781 C 3041.149 1432.781 3040.283 1432.44 3039.76 1431.582 C 3029.264 1423.452 3019.291 1416.18 3009.319 1408.908 C 3009.319 1408.908 3009.376 1408.474 3009.123 1408.017 C 3007.175 1405.986 3005.644 1404.172 3003.757 1402.879 C 2995.116 1396.959 2986.374 1391.184 2977.669 1385.356 C 2977.669 1385.356 2977.202 1384.781 2976.962 1383.942 C 2974.614 1381.707 2972.506 1380.31 2970.21 1378.326 C 2969.808 1377.386 2969.592 1377.035 2969.463 1376.589 C 2969.55 1376.494 2969.19 1376.532 2968.4 1376.112 C 2967.034 1375.539 2966.458 1375.386 2965.722 1374.781 C 2964.314 1373.242 2963.067 1372.155 2960.93 1370.398 C 2959.417 1369.328 2958.793 1368.928 2958.147 1368.303 C 2957.695 1367.745 2957.275 1367.725 2956.577 1367.871 C 2956.288 1367.724 2955.641 1367.677 2955.367 1367.095 C 2953.123 1363.66 2951.152 1360.806 2950.161 1358.06 C 3169.388 1358.177 3387.635 1358.186 3606.071 1358.933 C 3606.322 1361.207 3606.384 1362.743 3606.315 1364.239 C 3606.184 1364.199 3606.094 1364.459 3605.824 1364.385 C 3605.104 1364.324 3604.9 1364.552 3604.43 1365.725 C 3603.604 1366.954 3603.288 1367.455 3602.537 1368.428 C 3597.356 1378.533 3592.609 1388.167 3587.444 1398.206 C 3586.439 1400.4 3585.853 1402.189 3584.834 1404.569 C 3579.661 1414.374 3574.922 1423.589 3569.817 1433.469 C 3568.839 1435.519 3568.227 1436.903 3567.119 1438.697 C 3563.76 1444.77 3560.896 1450.434 3557.651 1456.474 C 3557.078 1457.872 3556.887 1458.894 3556.484 1460.347 C 3556.273 1460.777 3556.128 1461.725 3555.566 1462.131 C 3552.347 1468.241 3549.691 1473.944 3546.521 1480.124 C 3545.459 1481.804 3544.911 1483.008 3543.867 1484.686 C 3541.405 1489.092 3539.44 1493.023 3537.088 1497.42 C 3531.991 1508.012 3527.279 1518.138 3522.568 1528.263 C 3522.254 1528.959 3521.94 1529.655 3520.853 1531.212 C 3512.707 1546.74 3505.334 1561.408 3497.961 1576.076 C 3497.961 1576.076 3497.903 1575.918 3497.408 1576.277 C 3494.613 1581.974 3492.313 1587.312 3490.014 1592.651 C 3490.014 1592.651 3489.87 1593.108 3489.164 1593.652 C 3482.107 1606.564 3475.755 1618.932 3468.848 1631.698 C 3464.574 1639.372 3460.854 1646.649 3456.729 1654.431 C 3454.226 1659.065 3452.031 1663.148 3450.048 1667.331 C 3445.942 1675.996 3441.948 1684.715 3437.328 1693.818 C 3429.917 1707.4 3423.015 1720.54 3416.276 1733.762 C 3409.955 1746.162 3403.859 1758.676 3397.57 1771.093 C 3384.549 1796.802 3371.466 1822.481 3357.943 1848.66 C 3353.804 1856.578 3350.13 1864.007 3346.284 1871.577 C 3346.113 1871.719 3346.294 1872.119 3345.956 1872.692 C 3345.425 1873.663 3345.233 1874.063 3344.725 1874.985 C 3341.498 1881.132 3338.586 1886.756 3335.211 1892.829 C 3330.784 1902.168 3326.821 1911.058 3322.857 1919.948 C 3322.592 1920.352 3322.328 1920.755 3321.288 1922.139 C 3318.501 1927.05 3316.489 1930.979 3313.963 1935.607 C 3313.25 1937.429 3313.052 1938.552 3312.277 1939.971 C 3309.767 1944.504 3307.834 1948.74 3305.9 1952.976 C 3305.9 1952.976 3305.879 1952.893 3305.277 1953.241 C 3299.507 1964.153 3292.072 1973.657 3289.735 1985.544 C 3289.735 1985.544 3289.803 1985.64 3289.142 1985.99 C 3286.266 1991.217 3284.051 1996.094 3281.837 2000.971 C 3281.837 2000.971 3281.823 2000.865 3281.219 2001.21 C 3278.423 2006.389 3276.231 2011.223 3274.039 2016.058 C 3274.039 2016.058 3273.942 2015.939 3273.323 2016.04 C 3270.457 2021.438 3268.21 2026.737 3265.962 2032.035 C 3265.963 2032.035 3265.926 2031.909 3265.352 2032.124 C 3257.012 2045.581 3249.505 2058.948 3243.479 2074.462 C 3246.456 2074.273 3247.96 2074.178 3250.424 2074.198 C 3254.718 2074.347 3258.05 2074.407 3261.383 2074.407 C 3397.374 2074.41 3533.364 2074.427 3669.355 2074.398 C 3724.349 2074.386 3779.343 2074.271 3834.494 2074.359 C 3834.65 2074.515 3835.319 2074.529 3835.319 2074.529 C 3835.319 2074.529 3835.869 2074.174 3836.553 2074.248 C 3838.135 2074.185 3839.033 2074.048 3839.932 2073.91 C 3839.932 2074.799 3839.932 2075.688 3839.532 2077.813 C 3836.795 2084.73 3834.457 2090.411 3831.608 2096.349 C 3830.607 2097.617 3830.117 2098.627 3829.112 2100.076 C 3827.382 2104.302 3826.168 2108.088 3824.29 2112.161 C 3819.803 2119.775 3815.978 2127.101 3811.718 2134.727 C 3811.001 2135.997 3810.718 2136.969 3810.203 2138.316 C 3809.97 2138.691 3809.673 2139.523 3809.262 2139.746 C 3808.355 2140.405 3808.094 2140.952 3807.62 2142.15 C 3804.471 2147.963 3801.62 2153.166 3799.104 2158.527 C 3795.214 2166.817 3791.553 2175.214 3787.157 2184.027 C 3785.915 2186.336 3785.309 2188.183 3784.149 2190.452 C 3776.463 2204.463 3769.205 2217.988 3762.266 2231.675 C 3759.787 2236.565 3758.081 2241.847 3755.314 2247.196 C 3753.604 2249.109 3752.487 2250.719 3751.619 2252.453 C 3746.66 2262.362 3741.761 2272.3 3736.326 2282.508 C 3734.007 2287.297 3732.205 2291.806 3730.227 2297.188 C 3729.78 2299.212 3729.508 2300.364 3728.671 2301.478 C 3726.118 2305.058 3724.129 2308.678 3722.043 2312.219 C 3721.947 2312.141 3722.102 2311.947 3721.581 2312.251 C 3720.684 2313.674 3720.308 2314.792 3719.932 2315.91 C 3719.043 2315.91 3718.154 2315.91 3715.897 2315.473 C 3709.583 2314.663 3704.638 2313.967 3699.692 2313.967 C 3346.84 2313.916 2993.987 2313.919 2641.135 2313.919 C 2637.136 2313.919 2633.101 2314.242 2629.152 2313.8 C 2625.985 2313.446 2622.922 2312.159 2620.177 2310.789 C 2622.346 2308.121 2624.152 2305.951 2625.957 2303.78 C 2625.957 2303.78 2625.949 2303.927 2626.586 2303.929 C 2633.53 2298.779 2639.838 2293.626 2646.802 2288.265 C 2650.534 2285.438 2653.61 2282.818 2656.685 2280.197 C 2656.685 2280.197 2656.688 2280.035 2657.469 2279.801 C 2660.823 2276.984 2663.396 2274.402 2665.969 2271.82 C 2665.969 2271.82 2665.971 2271.944 2666.57 2271.987 C 2668.755 2270.596 2670.34 2269.161 2672.539 2267.455 C 2681.394 2260.629 2689.635 2254.075 2697.876 2247.521 C 2697.876 2247.521 2697.769 2247.916 2698.068 2247.665 C 2698.812 2246.896 2699.259 2246.379 2700.32 2245.612 C 2702.622 2243.519 2704.308 2241.675 2705.995 2239.831 C 2705.995 2239.831 2705.995 2239.973 2706.63 2239.949 C 2716.798 2232.393 2726.33 2224.861 2736.345 2217.034 C 2737.221 2216.093 2737.615 2215.445 2738.009 2214.798 C 2738.009 2214.798 2738.029 2214.974 2738.637 2214.73 C 2752.323 2203.91 2765.401 2193.334 2778.799 2182.727 C 2779.504 2182.446 2779.753 2182.099 2780.443 2181.489 C 2782.213 2180.261 2783.404 2179.196 2785.05 2177.892 C 2785.654 2177.033 2785.803 2176.412 2785.953 2175.791 C 2785.953 2175.791 2785.961 2175.936 2786.617 2175.906 C 2790.603 2173.698 2794.341 2171.837 2794.198 2166.962 C 2794.198 2166.962 2794.047 2167.002 2794.741 2166.741 C 2799.021 2159.931 2802.821 2153.488 2806.111 2146.794 C 2807.938 2143.076 2808.914 2138.94 2810.274 2134.992 C 2810.408 2134.632 2810.471 2134.26 2811.103 2133.296 C 2815.757 2129.342 2818.207 2125.218 2817.938 2119.79 C 2817.938 2119.79 2817.981 2119.941 2818.581 2119.848 C 2821.586 2115.419 2824.091 2111.133 2826.38 2106.736 C 2834.799 2090.571 2843.268 2074.431 2851.471 2058.157 C 2855.772 2049.623 2859.56 2040.831 2863.83 2031.939 C 2864.079 2031.722 2864.339 2031.121 2864.492 2031.214 C 2864.644 2031.307 2864.585 2030.78 2865.054 2030.001 C 2865.61 2028.622 2865.697 2028.021 2866.25 2026.962 C 2873.502 2013.589 2880.41 2000.737 2887.022 1987.736 C 2890.147 1981.592 2892.707 1975.161 2896.188 1968.46 C 2897.181 1966.595 2897.509 1965.129 2898.301 1963.197 C 2903.102 1953.791 2907.439 1944.851 2912.395 1935.729 C 2913.599 1934.407 2914.182 1933.267 2915.3 1931.753 C 2917.515 1927.516 2919.194 1923.653 2920.873 1919.79 C 2921.169 1919.322 2921.382 1918.818 2922.181 1917.52 C 2925.127 1912.113 2927.404 1907.466 2929.681 1902.82 C 2929.681 1902.82 2929.661 1902.544 2930.082 1902.07 C 2930.98 1901.097 2931.241 1900.503 2931.769 1899.323 C 2934.068 1895.062 2935.883 1891.291 2937.698 1887.521 C 2937.698 1887.521 2937.911 1887.678 2938.274 1887.256 C 2941.066 1881.473 2943.495 1876.111 2945.925 1870.75 C 2945.925 1870.75 2945.952 1870.885 2946.513 1870.489 C 2949.281 1865.163 2951.489 1860.232 2953.696 1855.302 C 2953.696 1855.302 2954.029 1855.582 2954.293 1855.202 C 2956.991 1849.793 2959.425 1844.765 2961.859 1839.737 C 2961.859 1839.737 2961.908 1839.879 2962.349 1839.453 C 2965.138 1833.931 2967.487 1828.836 2969.835 1823.74 C 2969.835 1823.74 2969.895 1823.872 2970.291 1823.541 C 2971.064 1822.12 2971.439 1821.03 2972.37 1819.542 C 2974.564 1815.348 2976.202 1811.552 2977.841 1807.756 C 2977.841 1807.756 2977.906 1807.879 2978.391 1807.549 C 2979.427 1805.601 2979.979 1803.982 2981.102 1801.953 C 2983.16 1797.996 2984.645 1794.451 2986.131 1790.905 Z" transform="matrix(1.0000000000000002, 0, 0, 1.0000000000000002, 0, 5.684341886080802e-14)"/>
  <path fill="#F60A0A" opacity="1.000000" stroke="none" d="M 4.003 2314.736 C 12.202 2306.804 21.062 2299.375 30.165 2291.256 C 30.409 2290.566 30.324 2290.594 31.024 2290.502 C 34.276 2287.758 36.828 2285.106 39.38 2282.453 C 39.38 2282.453 39.392 2282.598 40.032 2282.747 C 47.096 2277.729 53.518 2272.562 60.573 2267.142 C 64.583 2264.041 67.961 2261.193 71.338 2258.346 C 71.338 2258.346 71.304 2258.534 71.853 2258.298 C 74.736 2255.532 77.07 2253.002 79.405 2250.471 C 79.405 2250.471 79.416 2250.619 80.056 2250.745 C 86.961 2245.679 93.226 2240.488 100.181 2235.11 C 104.293 2232.019 107.714 2229.114 111.135 2226.208 C 111.135 2226.208 111.136 2225.915 111.935 2225.607 C 125.297 2215.026 137.861 2204.753 150.425 2194.479 C 150.425 2194.479 150.412 2194.648 151.053 2194.486 C 154.257 2191.7 156.819 2189.076 159.382 2186.452 C 159.382 2186.452 159.396 2186.6 160.036 2186.688 C 170.464 2180.326 180.525 2174.119 183.198 2161.364 C 183.139 2160.981 183.162 2160.603 183.97 2159.563 C 186.806 2154.595 188.939 2150.293 191.073 2145.992 C 191.073 2145.992 191.386 2146.229 191.682 2145.844 C 194.383 2140.365 196.787 2135.27 199.191 2130.175 C 199.191 2130.175 199.362 2130.386 199.766 2130.005 C 202.549 2124.333 204.927 2119.043 207.306 2113.752 C 207.306 2113.752 207.255 2113.562 207.863 2112.98 C 210.768 2107.405 213.065 2102.412 215.362 2097.418 C 215.362 2097.418 215.421 2097.579 215.975 2097.202 C 218.731 2091.815 220.932 2086.806 223.134 2081.796 C 223.134 2081.796 223.187 2081.463 223.848 2080.923 C 225.35 2078.791 226.192 2077.199 226.865 2075.197 C 226.696 2074.787 225.876 2075.128 225.974 2075.469 C 226.581 2075.589 227.091 2075.368 228.215 2074.512 C 229.716 2071.097 230.603 2068.316 231.489 2065.535 C 231.489 2065.535 231.428 2065.541 231.959 2065.036 C 234.762 2059.821 237.034 2055.11 239.306 2050.4 C 239.306 2050.4 239.341 2050.56 239.657 2050.396 C 240.497 2049.846 240.692 2049.334 241.038 2048.134 C 243.48 2042.864 245.441 2038.156 247.403 2033.448 C 247.403 2033.448 247.439 2033.614 248.055 2033.324 C 250.946 2027.876 253.221 2022.718 255.496 2017.559 C 255.496 2017.559 255.365 2017.582 255.987 2017.449 C 257.828 2015.426 259.047 2013.535 260.723 2010.927 C 261.312 2009.658 261.444 2009.107 261.93 2008.097 C 262.737 2005.614 263.19 2003.588 263.643 2001.563 C 263.643 2001.563 263.464 2001.601 264.125 2001.338 C 268.419 1994.444 272.18 1987.879 275.661 1981.169 C 288.866 1955.706 302.059 1930.236 315.079 1904.679 C 318.651 1897.668 321.602 1890.34 325.407 1882.703 C 326.772 1880.538 327.566 1878.827 328.782 1876.623 C 333.095 1867.761 336.986 1859.393 341.546 1850.716 C 342.675 1849.057 343.135 1847.707 344.062 1845.908 C 349.785 1834.937 355.041 1824.416 360.801 1813.419 C 368.531 1798.533 375.758 1784.123 382.985 1769.713 C 382.985 1769.713 382.944 1769.514 383.522 1768.889 C 386.411 1763.512 388.723 1758.759 391.034 1754.007 C 391.034 1754.007 391.337 1754.212 391.67 1753.838 C 394.356 1748.3 396.708 1743.135 399.06 1737.97 C 399.06 1737.97 399.422 1738.224 399.61 1737.797 C 402.127 1732.273 404.455 1727.177 406.784 1722.082 C 406.784 1722.082 407.029 1721.296 407.707 1720.504 C 413.917 1709.346 419.559 1699.035 424.933 1688.587 C 427.32 1683.945 429.168 1679.026 431.261 1674.232 C 431.261 1674.232 431.084 1674.553 431.598 1674.221 C 434.541 1668.44 436.97 1662.991 439.399 1657.543 C 439.399 1657.543 439.308 1657.509 439.883 1656.976 C 442.746 1651.762 445.035 1647.081 447.323 1642.4 C 447.323 1642.4 447.349 1642.568 447.931 1642.363 C 450.767 1636.9 453.02 1631.642 455.274 1626.385 C 455.274 1626.385 455.316 1626.532 455.868 1626.248 C 458.741 1620.795 461.063 1615.625 463.384 1610.456 C 463.384 1610.456 463.404 1610.613 463.937 1610.29 C 467.453 1605.052 472.053 1600.807 471.003 1594.219 C 471.003 1594.219 471.188 1593.342 471.941 1592.653 C 479.499 1582.731 485.49 1573.104 487.452 1561.523 C 487.452 1561.523 487.325 1561.571 487.805 1561.831 C 488.284 1562.09 488.982 1561.4 489.469 1561.245 C 490.804 1558.846 491.651 1556.602 492.764 1554.076 C 493.03 1553.795 493.157 1553.03 493.612 1552.651 C 501.294 1538.105 508.472 1523.913 515.779 1509.787 C 518.175 1505.154 517.41 1502.154 511.745 1500.505 C 511.173 1499.85 510.912 1499.618 510.744 1499.279 C 510.838 1499.173 510.447 1499.223 509.786 1498.833 C 508.637 1498.289 508.149 1498.134 507.42 1497.37 C 493.816 1486.362 480.556 1475.829 467.047 1465.624 C 460.514 1460.689 453.516 1456.37 446.728 1451.773 C 446.728 1451.773 445.998 1451.332 445.542 1450.391 C 438.02 1443.914 431.038 1438.265 423.849 1432.894 C 420.74 1430.571 417.204 1428.82 413.862 1426.81 C 413.862 1426.81 413.805 1426.957 413.618 1426.227 C 403.127 1417.917 392.823 1410.337 382.519 1402.757 C 382.519 1402.757 382.956 1402.484 382.465 1402.418 C 377.895 1399.27 373.815 1396.188 369.536 1392.422 C 363.249 1387.377 357.16 1383.017 351.071 1378.657 C 351.071 1378.657 351.204 1378.605 350.956 1378.055 C 346.39 1373.997 341.876 1370.694 337.85 1366.877 C 336.222 1365.333 335.659 1362.666 335.586 1360.633 C 338.56 1360.792 340.559 1360.858 342.559 1360.858 C 555.215 1360.863 767.871 1360.863 980.527 1360.847 C 983.52 1360.847 986.514 1360.628 989.873 1361.024 C 988.235 1367.265 986.231 1372.994 984.228 1378.724 C 983.854 1379.48 983.481 1380.236 982.35 1381.909 C 978.699 1386.184 975.274 1389.319 976.242 1395.101 C 972.874 1401.154 969.931 1406.593 966.433 1412.139 C 963.647 1417.704 961.415 1423.161 959.184 1428.618 C 959.184 1428.618 959.104 1428.449 958.516 1428.605 C 955.908 1433.445 953.888 1438.128 951.869 1442.811 C 951.869 1442.811 951.358 1443.63 950.498 1444.325 C 947.507 1449.815 945.376 1454.61 943.245 1459.405 C 943.245 1459.405 943.218 1459.689 942.576 1460.243 C 939.69 1465.73 937.445 1470.663 935.201 1475.596 C 935.201 1475.596 935.168 1475.438 934.53 1475.648 C 930.85 1481.219 927.484 1486.426 924.865 1491.984 C 922.535 1496.932 921.031 1502.269 919.163 1507.434 C 919.163 1507.434 919.204 1507.511 918.502 1507.834 C 915.69 1511.425 913.159 1514.5 911.545 1517.998 C 905.947 1530.127 900.667 1542.403 895.266 1554.623 C 895.266 1554.623 895.262 1554.486 894.652 1554.47 C 893.165 1556.391 892.288 1558.328 890.779 1560.571 C 889.727 1561.386 889.196 1561.838 888.902 1562.412 C 874.501 1590.536 860.055 1618.637 845.791 1646.831 C 842.991 1652.365 840.905 1658.26 838.053 1664.448 C 833.302 1673.229 828.987 1681.553 824.103 1690.537 C 823.083 1692.852 822.632 1694.506 821.636 1696.491 C 816.535 1705.714 811.98 1714.606 807.096 1724.137 C 806.68 1725.246 806.593 1725.717 806.256 1726.392 C 805.938 1727.298 805.869 1727.999 805.21 1729.047 C 803.647 1730.724 802.478 1731.955 801.734 1733.403 C 793.906 1748.653 786.041 1763.885 778.412 1779.234 C 774.768 1786.568 771.609 1794.143 767.631 1802.174 C 766.557 1810.908 760.648 1816.363 756.471 1823.345 C 750.423 1834.438 744.718 1845.042 739.364 1855.821 C 737.526 1859.521 736.568 1863.658 735.208 1867.596 C 735.208 1867.596 735.173 1867.477 734.619 1867.875 C 728.452 1878.136 721.567 1887.392 719.463 1898.927 C 719.463 1898.927 719.342 1898.713 718.845 1898.876 C 717.401 1900.878 716.454 1902.717 715.028 1905.106 C 713.462 1908.852 712.374 1912.047 711.286 1915.241 C 711.286 1915.241 711.209 1915.518 710.519 1915.995 C 703.916 1927.154 697.821 1937.742 692.155 1948.554 C 688.467 1955.593 685.404 1962.959 681.501 1970.623 C 680.383 1973.459 679.824 1975.851 678.691 1978.729 C 675.688 1983.1 673.26 1986.985 670.423 1991.368 C 663.243 2005.797 656.471 2019.727 649.176 2034.149 C 647.897 2036.79 647.141 2038.939 645.887 2041.547 C 644.084 2044.305 642.666 2046.547 641.5 2048.913 C 637.287 2057.459 633.142 2066.039 629.083 2074.659 C 628.961 2074.918 630.08 2075.762 631.588 2076.514 C 637.883 2076.807 643.212 2077.018 648.541 2077.018 C 836.138 2077.033 1023.736 2077.03 1211.333 2077.013 C 1215.327 2077.012 1219.32 2076.816 1224.012 2077.248 C 1225.125 2078.202 1225.539 2078.618 1225.445 2079.605 C 1221.284 2088.37 1217.631 2096.565 1213.404 2105.064 C 1211.37 2108.314 1209.91 2111.26 1207.703 2114.501 C 1206.442 2116.244 1205.929 2117.692 1204.913 2119.544 C 1200.364 2128.828 1196.319 2137.71 1192.273 2146.591 C 1192.021 2146.909 1191.769 2147.228 1190.885 2148.31 C 1189.818 2149.509 1189.606 2150.034 1189.028 2150.958 C 1186.813 2154.868 1185.188 2158.47 1183.163 2162.666 C 1182.599 2164.196 1182.436 2165.132 1181.674 2166.319 C 1179.184 2170.617 1177.294 2174.663 1175.403 2178.709 C 1175.403 2178.709 1175.359 2178.584 1174.916 2178.721 C 1174.178 2179.463 1173.883 2180.068 1173.106 2181.161 C 1170.909 2186.076 1169.193 2190.503 1167.477 2194.931 C 1167.477 2194.931 1167.297 2194.743 1166.798 2194.988 C 1164.811 2197.753 1163.086 2200.165 1161.879 2202.812 C 1158.276 2210.713 1154.874 2218.708 1151.394 2226.666 C 1151.394 2226.666 1151.328 2226.56 1150.732 2226.759 C 1145.204 2237.524 1140.271 2248.09 1135.338 2258.656 C 1135.338 2258.656 1135.322 2258.527 1135.386 2258.52 C 1133.965 2260.168 1132.064 2261.606 1131.064 2263.516 C 1125.841 2273.491 1120.896 2283.611 1115.758 2293.631 C 1112.042 2300.876 1108.176 2308.044 1104.01 2315.834 C 1099.647 2316.458 1095.651 2316.528 1091.654 2316.529 C 734.251 2316.533 376.848 2316.539 19.445 2316.479 C 14.518 2316.479 9.591 2315.671 4.003 2314.736 Z" transform="matrix(1.0000000000000002, 0, 0, 1.0000000000000002, 0, 5.684341886080802e-14)"/>
  <path fill="#F50B0B" opacity="1.000000" stroke="none" d="M 1902.725 172.215 C 1902.725 172.215 1902.537 172.224 1902.16 171.482 C 1894.936 166.906 1888.255 162.724 1881.196 159.327 C 1872.68 155.23 1863.843 151.798 1855.145 148.079 C 1855.145 148.079 1855.285 147.966 1855.046 147.419 C 1849.575 144.618 1844.344 142.365 1839.113 140.111 C 1839.113 140.111 1839.29 140.062 1839.239 139.692 C 1838.93 138.664 1838.449 138.345 1837.158 137.899 C 1831.754 135.649 1826.937 133.863 1822.12 132.077 C 1822.12 132.077 1822.305 132.075 1821.88 131.508 C 1817.862 129.313 1814.269 127.685 1810.297 125.735 C 1808.98 125.365 1808.043 125.318 1807.106 125.272 C 1807.106 125.272 1806.525 124.824 1806.295 123.951 C 1803.719 120.902 1801.373 118.726 1799.968 116.75 C 1802.573 117.022 1804.237 117.158 1805.9 117.158 C 2195.117 117.135 2584.334 117.102 2973.551 117.073 C 2977.549 117.073 2981.561 117.332 2985.543 117.091 C 2990.816 116.771 2991.435 120.096 2991.532 124.042 C 2991.532 124.042 2991.464 123.929 2990.846 124.082 C 2987.903 129.786 2985.578 135.336 2983.253 140.886 C 2983.253 140.886 2983.407 140.886 2982.699 141.168 C 2979.518 146.28 2977.045 151.11 2974.101 156.471 C 2966.557 170.406 2959.379 183.757 2952.467 197.244 C 2950.093 201.877 2948.385 206.853 2945.795 212.101 C 2944.224 215.016 2943.231 217.5 2941.685 220.411 C 2939.149 224.233 2936.883 227.498 2935.241 231.051 C 2931.022 240.181 2927.081 249.439 2922.362 258.862 C 2920.733 261.532 2919.771 263.985 2918.309 266.943 C 2915.437 271.794 2913.064 276.14 2910.308 280.881 C 2908.448 284.706 2906.971 288.134 2905.274 291.603 C 2905.053 291.642 2904.873 292.053 2904.461 292.243 C 2903.958 293.263 2903.867 294.094 2903.307 295.813 C 2902.809 298.031 2902.779 299.361 2902.75 300.691 C 2902.75 300.691 2903.077 300.831 2902.419 300.702 C 2900.263 302.292 2898.765 304.012 2896.86 306.116 C 2896.302 307.583 2896.15 308.665 2895.727 310.12 C 2895.455 310.493 2895.201 311.38 2894.832 311.573 C 2894.007 312.165 2893.836 312.661 2893.671 313.935 C 2886.922 326.792 2880.417 338.95 2874.045 351.176 C 2873.497 352.228 2873.83 353.738 2873.196 355.247 C 2872.349 355.729 2872.061 355.999 2871.72 356.216 C 2871.667 356.163 2871.732 356.345 2871.423 357.132 C 2870.986 359.036 2870.858 360.152 2870.126 361.544 C 2867.358 365.734 2865.195 369.648 2862.627 374.112 C 2860.823 377.289 2859.309 379.863 2858.048 382.556 C 2854.707 389.692 2851.476 396.88 2848.2 404.047 C 2848 404.373 2847.798 404.699 2846.852 405.877 C 2845.28 408.469 2844.454 410.21 2843.545 411.972 C 2843.462 411.993 2843.506 412.158 2843.118 412.542 C 2842.326 413.928 2841.922 414.929 2841.092 416.46 C 2837.978 422.979 2835.29 428.968 2831.969 435.416 C 2828.85 443.03 2826.874 450.431 2820.925 456.466 C 2818.939 460.513 2817.529 464.279 2816.12 468.046 C 2815.938 468.362 2815.755 468.677 2814.735 469.779 C 2811.774 475.218 2809.651 479.872 2807.528 484.525 C 2807.528 484.525 2807.347 485.164 2806.668 485.81 C 2801.173 496.326 2796.358 506.196 2791.543 516.066 C 2791.543 516.066 2791.473 515.95 2790.92 516.226 C 2775.563 545.58 2760.76 574.657 2745.449 604.247 C 2741.463 612.498 2737.983 620.236 2734.029 628.517 C 2731.511 632.364 2729.22 635.543 2727.471 638.996 C 2722.776 648.267 2718.313 657.656 2713.367 667.311 C 2712.797 667.906 2712.618 668.188 2712.357 668.423 C 2712.275 668.375 2712.286 668.661 2711.867 669.325 C 2706.894 678.966 2702.115 687.84 2697.903 696.975 C 2696.363 700.317 2696.17 704.28 2695.363 707.959 C 2695.363 707.959 2695.404 707.825 2694.777 707.876 C 2692.611 709.589 2690.634 711.019 2689.61 712.954 C 2684.681 722.257 2679.893 731.639 2675.287 741.106 C 2671.725 748.425 2668.506 755.91 2664.605 763.733 C 2663.683 766.535 2663.291 768.924 2662.185 771.621 C 2658.782 776.677 2656.092 781.425 2652.884 786.577 C 2648.229 795.046 2644.092 803.112 2639.726 811.649 C 2639.503 812.468 2639.509 812.815 2639.312 813.451 C 2639.11 813.739 2639.094 814.444 2638.669 814.9 C 2635.242 823.701 2627.028 829.877 2627.31 840.336 C 2625.157 842.56 2623.735 844.341 2621.939 846.312 C 2619.76 850.768 2617.957 855.036 2615.607 859.796 C 2612.541 865.452 2610.02 870.614 2607.354 876.276 C 2607.214 877.121 2607.22 877.467 2607.226 877.813 C 2607.226 877.813 2607.332 877.752 2606.756 878.081 C 2602.216 885.655 2598.09 892.817 2594.318 900.16 C 2583.473 921.271 2572.772 942.456 2561.351 964.125 C 2557.661 963.724 2554.633 962.81 2551.45 961.408 C 2550.697 960.645 2550.1 960.369 2549.448 959.982 C 2549.392 959.871 2549.148 959.91 2548.992 959.561 C 2548.479 958.772 2548.021 958.597 2547.114 958.393 C 2546.767 958.097 2545.921 957.754 2545.649 957.15 C 2542.261 954.408 2539.146 952.268 2535.648 949.626 C 2534.16 948.566 2533.054 948.009 2531.705 946.828 C 2522.362 939.459 2513.264 932.715 2503.892 925.349 C 2502.45 924.12 2501.281 923.513 2499.836 922.317 C 2490.767 915.14 2481.973 908.55 2472.92 901.549 C 2472.073 900.761 2471.452 900.696 2470.798 900.941 C 2470.798 900.941 2470.635 900.881 2470.465 900.169 C 2461.06 892.22 2451.854 884.946 2442.544 877.806 C 2441.648 877.119 2440.109 877.267 2438.869 877.027 C 2438.869 877.027 2438.579 876.86 2438.509 876.118 C 2436.22 873.683 2434.001 871.991 2431.334 869.729 C 2429.554 868.674 2428.222 868.188 2426.518 867.201 C 2420.804 860.158 2414.353 855.122 2406.386 852.143 C 2406.386 852.143 2405.933 852.107 2405.594 851.306 C 2402.01 848.06 2398.766 845.616 2395.242 842.607 C 2386.022 835.411 2377.08 828.779 2367.799 821.522 C 2366.219 820.29 2364.979 819.683 2363.604 818.44 C 2356.906 812.774 2350.343 807.745 2343.219 802.239 C 2339.376 799.652 2336.092 797.54 2332.672 794.949 C 2331.376 793.923 2330.216 793.377 2328.955 792.599 C 2328.855 792.368 2328.424 792.105 2328.505 791.777 C 2328.439 790.911 2328.096 790.71 2327.321 790.605 C 2327.087 790.362 2326.465 790.105 2326.21 789.552 C 2319.049 783.842 2312.143 778.686 2304.949 773.104 C 2303.991 772.698 2303.32 772.717 2302.65 772.737 C 2302.65 772.737 2302.724 772.085 2302.59 771.65 C 2293.505 764.565 2284.556 757.914 2275.221 750.716 C 2273.288 749.449 2271.741 748.728 2270.193 748.007 C 2270.193 748.007 2269.745 748.118 2269.335 747.371 C 2265.461 744.002 2261.998 741.38 2258.192 738.19 C 2251.326 733.052 2244.802 728.48 2238.278 723.909 C 2238.278 723.909 2237.917 723.99 2237.556 723.254 C 2234.521 720.113 2231.846 717.707 2228.818 714.784 C 2218.982 707.51 2209.499 700.753 2199.725 693.42 C 2198.317 692.266 2197.2 691.69 2195.85 690.492 C 2186.417 683.215 2177.216 676.559 2167.749 669.288 C 2166.289 668.193 2165.097 667.713 2163.717 666.599 C 2154.008 659 2144.487 652.035 2134.965 645.07 C 2134.965 645.07 2134.518 644.765 2134.312 643.984 C 2123.689 635.522 2113.271 627.841 2102.853 620.16 C 2102.853 620.16 2103.148 620.475 2102.969 619.913 C 2092.19 611.735 2081.59 604.119 2070.991 596.503 C 2070.991 596.503 2071.17 596.223 2070.884 595.831 C 2068.41 593.721 2066.223 592.002 2063.754 589.609 C 2062.188 588.318 2060.904 587.701 2059.368 586.505 C 2050.041 579.285 2040.966 572.644 2031.769 565.688 C 2031.647 565.375 2031.213 564.868 2031.25 564.671 C 2031.288 564.474 2030.608 564.391 2030.001 563.981 C 2028.95 563.367 2028.507 563.163 2027.817 562.354 C 2021.054 556.797 2015.728 550.093 2007.291 547.966 C 2007.291 547.966 2007.422 547.93 2007.344 547.351 C 2004.841 545.143 2002.417 543.515 1999.696 541.255 C 1998.594 540.175 1997.789 539.726 1996.76 538.708 C 1988.342 531.716 1980.192 525.233 1971.901 518.936 C 1970.714 518.034 1968.843 518.033 1967.289 517.616 C 1966.831 517.131 1966.299 516.751 1965.332 515.687 C 1964.319 514.059 1963.666 513.219 1962.71 512.169 C 1962.408 511.959 1961.679 511.852 1961.454 511.477 C 1960.853 510.612 1960.357 510.345 1959.336 509.738 C 1950.793 503.52 1942.654 497.864 1934.515 492.208 C 1934.515 492.208 1934.352 492.195 1934.043 491.503 C 1931.777 489.414 1929.82 488.017 1927.239 486.282 C 1925.568 484.999 1924.52 484.055 1923.24 482.526 C 1916.334 477.332 1909.661 472.722 1902.987 468.113 C 1902.987 468.113 1903.225 468.006 1903.142 467.569 C 1901.8 466.361 1900.541 465.589 1899.15 464.476 C 1899.017 464.134 1898.513 463.602 1898.568 463.385 C 1898.624 463.168 1897.954 462.712 1897.444 462.195 C 1891.29 457.853 1885.646 454.029 1879.908 449.775 C 1879.039 449.009 1878.265 448.673 1877.44 448.17 C 1877.39 448.002 1877.05 447.913 1876.966 447.539 C 1876.571 446.679 1876.13 446.475 1874.941 446.077 C 1873.345 445.339 1872.366 445.079 1871.387 444.818 C 1871.387 444.818 1871.533 444.83 1871.504 444.135 C 1868.628 441.363 1865.781 439.287 1862.934 437.211 C 1862.389 436.932 1861.834 436.673 1860.789 435.612 C 1850.024 427.178 1839.738 419.567 1828.987 411.708 C 1828.062 410.934 1827.603 410.406 1827.103 409.443 C 1826.778 408.41 1826.306 408.125 1825.579 407.992 C 1825.511 407.834 1825.17 407.784 1824.922 407.222 C 1822.927 405.637 1821.18 404.613 1819.242 403.399 C 1819.05 403.209 1818.513 403.268 1818.168 402.665 C 1814.317 400.026 1810.811 397.991 1807.304 395.956 C 1807.304 395.956 1807.433 395.922 1807.383 395.281 C 1804.31 392.417 1801.286 390.195 1798.261 387.972 C 1798.261 387.972 1797.875 388.24 1797.575 387.444 C 1793.95 384.128 1790.624 381.609 1787.011 378.547 C 1780.097 373.598 1773.472 369.19 1766.846 364.783 C 1766.846 364.783 1766.125 364.398 1765.836 363.593 C 1760.953 359.462 1756.359 356.137 1751.633 352.203 C 1746.699 347.872 1741.897 344.149 1736.413 340.199 C 1735.252 339.947 1734.773 339.923 1734.294 339.899 C 1734.294 339.899 1734.469 339.863 1734.269 339.248 C 1721.323 329.063 1708.576 319.495 1695.588 309.323 C 1694.197 308.201 1693.047 307.682 1691.706 306.532 C 1681.916 298.94 1672.316 291.977 1662.716 285.015 C 1662.362 284.872 1662.009 284.73 1661.155 283.687 C 1650.659 275.282 1640.663 267.778 1630.667 260.274 C 1630.667 260.274 1630.952 259.813 1630.667 259.535 C 1626.234 256.411 1622.087 253.566 1617.711 250.128 C 1611.261 245.278 1605.039 241.021 1598.816 236.764 C 1598.816 236.764 1598.146 236.358 1597.849 235.552 C 1594.169 232.165 1590.785 229.584 1587.155 226.438 C 1577.604 219.08 1568.3 212.286 1558.997 205.493 C 1558.512 205.14 1558 204.833 1557.046 203.718 C 1549.375 197.602 1543.672 190.024 1534.318 187.887 C 1534.318 187.887 1534.462 187.847 1534.409 187.205 C 1532.141 184.988 1529.925 183.413 1527.655 181.638 C 1527.601 181.438 1527.491 181.037 1527.593 180.837 C 1527.696 180.636 1527.009 180.314 1526.344 179.928 C 1525.208 179.34 1524.737 179.138 1523.997 178.332 C 1514.189 170.982 1504.649 164.236 1495.109 157.49 C 1494.832 157.265 1494.556 157.039 1493.915 155.968 C 1491.692 153.901 1489.834 152.681 1487.967 151.427 C 1487.958 151.393 1487.888 151.391 1487.689 150.752 C 1482.758 145.672 1478.249 140.882 1471.338 139.882 C 1471.338 139.882 1471.476 139.877 1471.506 139.259 C 1468.682 136.722 1465.828 134.804 1462.975 132.886 C 1462.61 132.696 1462.246 132.506 1461.186 131.393 C 1457.215 127.908 1453.941 125.348 1450.43 122.155 C 1444.74 117.631 1439.287 113.739 1433.502 109.263 C 1430.065 106.245 1427.058 103.67 1423.835 101.403 C 1415.541 95.57 1407.152 89.873 1398.802 84.122 C 1398.802 84.122 1399.117 83.843 1398.959 83.391 C 1396.207 81.203 1393.614 79.467 1391.02 77.731 C 1390.442 77.318 1389.864 76.904 1388.761 75.643 C 1381.239 69.865 1374.241 64.934 1367.243 60.003 C 1367.243 60.003 1367.374 59.948 1367.232 59.385 C 1364.369 56.959 1361.649 55.096 1358.929 53.233 C 1358.929 53.233 1358.15 52.728 1357.68 51.841 C 1355.365 49.568 1353.519 48.182 1351.05 46.481 C 1348.835 45.218 1347.242 44.271 1345.453 42.703 C 1339.492 38.005 1333.728 33.927 1327.72 29.272 C 1326.782 28.263 1326.086 27.832 1325.08 26.855 C 1318.154 21.354 1311.541 16.398 1304.62 10.839 C 1303.619 9.013 1302.925 7.79 1301.57 5.4 C 1305.841 6.415 1308.612 7.073 1311.91 8.142 C 1314.833 9.665 1317.229 10.778 1319.626 11.89 C 1319.626 11.89 1319.421 11.941 1319.9 12.304 C 1325.362 15.112 1330.346 17.556 1335.916 20.336 C 1341.341 22.85 1346.18 25.028 1351.019 27.206 C 1351.019 27.206 1351.541 27.603 1352.159 28.348 C 1358.364 31.327 1363.95 33.562 1370.007 36.283 C 1390.604 46.566 1410.731 56.363 1431.255 66.663 C 1433.233 67.604 1434.814 68.042 1436.873 68.987 C 1454.002 77.921 1470.653 86.348 1487.862 95.293 C 1492.054 97.385 1495.769 98.801 1499.312 100.561 C 1520.028 110.854 1540.622 121.393 1561.437 131.48 C 1568.484 134.895 1576.054 137.235 1583.385 140.066 C 1583.385 140.066 1583.432 139.938 1583.427 140.654 C 1588.77 143.588 1594.117 145.805 1599.464 148.022 C 1599.464 148.022 1599.469 147.882 1599.513 148.563 C 1606.16 152.804 1612.657 156.586 1619.407 159.842 C 1623.484 161.808 1627.955 162.958 1632.249 164.475 C 1632.249 164.475 1632.224 164.284 1632.55 164.936 C 1643.867 171.278 1654.788 177.11 1665.883 182.589 C 1670.517 184.878 1675.52 186.417 1680.356 188.296 C 1680.356 188.296 1680.253 188.12 1680.598 188.803 C 1686.049 191.795 1691.155 194.102 1696.262 196.41 C 1696.262 196.41 1696.401 196.207 1696.663 196.789 C 1702.099 199.604 1707.272 201.836 1712.446 204.068 C 1712.446 204.069 1712.289 203.97 1712.661 204.659 C 1717.887 207.541 1722.742 209.735 1727.596 211.929 C 1727.596 211.929 1727.412 211.943 1727.731 212.46 C 1733.228 215.286 1738.405 217.594 1743.582 219.901 C 1743.582 219.901 1743.433 219.925 1743.68 220.499 C 1749.161 223.346 1754.396 225.618 1759.631 227.891 C 1759.631 227.891 1759.428 227.965 1759.898 228.333 C 1765.444 231.094 1770.52 233.486 1775.595 235.877 C 1775.595 235.877 1775.451 235.92 1775.823 236.426 C 1781.333 239.255 1786.472 241.578 1791.611 243.901 C 1791.611 243.901 1791.435 243.926 1791.791 244.434 C 1807.618 252.068 1823.09 259.194 1839.029 266.81 C 1840.313 267.699 1841.13 268.097 1842.336 268.992 C 1851.988 273.826 1861.252 278.164 1870.993 283.046 C 1872.84 284.016 1874.21 284.44 1875.975 285.332 C 1885.043 289.896 1893.715 293.993 1902.826 298.63 C 1905.033 299.512 1906.801 299.854 1908.963 300.793 C 1913.936 303.755 1918.517 306.12 1923.528 308.849 C 1932.454 313.555 1940.885 318.03 1949.459 322.21 C 1965.749 330.152 1982.121 337.926 1999.068 346.283 C 2001.142 347.417 2002.607 348.038 2004.589 349.001 C 2036.815 365.122 2068.48 380.991 2100.273 396.598 C 2106.4 399.605 2113.032 401.583 2119.431 404.035 C 2119.431 404.035 2119.452 403.908 2119.616 404.563 C 2133.547 412.215 2147.241 419.359 2161.109 426.148 C 2168.434 429.735 2176.064 432.701 2183.556 435.947 C 2183.556 435.947 2183.401 435.977 2183.543 436.596 C 2189.175 439.578 2194.666 441.941 2200.157 444.304 C 2200.157 444.304 2200.291 443.998 2200.597 444.76 C 2206.019 447.778 2211.133 450.035 2216.248 452.291 C 2216.248 452.291 2216.326 452.263 2216.95 452.753 C 2222.516 455.547 2227.458 457.851 2232.4 460.155 C 2232.4 460.155 2232.372 460.009 2232.665 460.691 C 2237.665 463.352 2242.371 465.332 2247.078 467.312 C 2247.368 467.515 2247.658 467.719 2248.901 468.673 C 2254.449 471.575 2259.044 473.727 2263.638 475.879 C 2263.638 475.879 2263.466 475.872 2263.952 476.266 C 2269.52 478.965 2274.602 481.269 2279.683 483.573 C 2279.683 483.573 2279.822 483.778 2280.252 484.4 C 2285.693 487.301 2290.704 489.581 2295.715 491.86 C 2295.715 491.86 2295.48 491.944 2295.909 492.315 C 2301.08 494.758 2305.822 496.829 2311.192 499.378 C 2317.633 500.708 2323.245 501.859 2326.992 507.169 C 2327.554 507.965 2329.338 507.899 2330.907 508.691 C 2340.348 513.764 2349.441 518.377 2358.655 523.214 C 2358.776 523.439 2359.286 523.402 2359.589 523.728 C 2359.891 524.054 2360.72 524.375 2360.678 524.402 C 2360.636 524.429 2360.657 524.369 2360.811 524.359 C 2360.966 524.349 2360.953 524.04 2361.502 524.239 C 2362.821 524.45 2363.592 524.463 2364.729 525.076 C 2369.458 527.943 2373.777 530.299 2378.191 532.464 C 2398.368 542.366 2418.571 552.214 2439.16 562.555 C 2441.691 563.475 2443.828 563.922 2446.436 565.028 C 2450.283 567.702 2453.555 569.921 2457.054 571.693 C 2464.981 575.707 2472.967 579.612 2481.034 583.331 C 2484.405 584.885 2487.756 585.349 2487.38 579.754 C 2487.38 579.754 2487.444 579.88 2487.903 579.55 C 2489.406 577.404 2490.45 575.587 2491.966 573.349 C 2493.342 570.539 2494.248 568.15 2495.377 565.044 C 2495.565 563.829 2495.529 563.33 2495.494 562.831 C 2495.536 562.489 2495.614 562.156 2496.508 561.266 C 2501.258 556.972 2504.073 552.7 2503.742 546.951 C 2503.742 546.951 2503.592 546.951 2504.243 546.652 C 2507.102 541.505 2509.31 536.656 2511.517 531.808 C 2511.517 531.808 2511.534 531.975 2512.13 531.819 C 2514.99 526.378 2517.253 521.093 2519.516 515.808 C 2519.516 515.808 2519.532 515.972 2520.113 515.805 C 2521.722 514.373 2523.009 513.241 2523.738 511.822 C 2531.587 496.556 2539.476 481.307 2547.053 465.905 C 2549.223 461.495 2550.423 456.608 2552.781 451.732 C 2554.577 449.109 2555.66 446.692 2557.409 443.828 C 2558.585 440.895 2559.096 438.409 2559.607 435.923 C 2559.607 435.923 2559.552 436.026 2560.199 436.115 C 2563.577 431.316 2566.308 426.427 2569.471 421.019 C 2572.498 415.548 2575.276 410.681 2577.65 405.624 C 2581.544 397.33 2585.176 388.912 2589.52 380.191 C 2590.747 378.182 2591.374 376.53 2592.573 374.483 C 2595.898 369.049 2598.652 364.01 2602.134 357.637 C 2597.017 357.369 2593.777 357.055 2590.536 357.052 C 2565.217 357.027 2539.897 357.075 2514.577 357.076 C 2441.949 357.081 2369.321 357.131 2296.694 356.962 C 2291.163 356.949 2285.18 356.424 2280.196 354.292 C 2267.383 348.813 2255.064 342.191 2242.454 336.224 C 2230.791 330.705 2219.007 325.442 2206.978 319.93 C 2206.68 319.793 2206.024 319.787 2205.715 319.385 C 2204.804 318.718 2204.201 318.452 2203.516 318.062 C 2203.433 317.938 2203.134 317.933 2202.735 317.443 C 2201.111 316.761 2199.887 316.569 2198.663 316.377 C 2198.663 316.377 2198.927 315.989 2198.822 315.497 C 2193.38 312.929 2188.043 310.853 2182.705 308.778 C 2182.705 308.778 2182.816 308.205 2182.598 307.79 C 2178.524 305.491 2174.667 303.608 2170.432 301.301 C 2168.968 300.849 2167.882 300.82 2166.796 300.792 C 2166.216 300.619 2165.635 300.447 2164.033 299.509 C 2159.114 296.666 2155.217 294.588 2150.862 291.98 C 2140.136 286.737 2129.869 282.024 2118.922 276.643 C 2117.053 275.664 2115.865 275.353 2114.282 274.652 C 2108.11 271.681 2102.332 269.1 2096.329 265.89 C 2082.848 258.874 2069.594 252.487 2056.064 245.682 C 2055.788 245.266 2055.026 244.618 2055.097 244.501 C 2055.168 244.384 2054.786 244.468 2053.855 244.104 C 2052.297 243.518 2051.669 243.296 2050.595 242.64 C 2036.194 235.386 2022.226 228.593 2008.287 221.742 C 1991.072 213.281 1973.965 204.595 1956.653 196.339 C 1941.801 189.257 1926.725 182.644 1911.375 175.169 C 1908.243 173.748 1905.484 172.982 1902.725 172.215 Z" transform="matrix(1.0000000000000002, 0, 0, 1.0000000000000002, 0, 5.684341886080802e-14)"/>
  <path fill="#F60B0A" opacity="1.000000" stroke="none" d="M 2122.232 776.22 C 2122.232 776.22 2122.197 776.05 2122.418 776.739 C 2142.334 792.592 2162.015 807.774 2181.76 822.873 C 2182.709 823.599 2184.213 823.6 2185.458 823.939 C 2185.458 823.939 2185.416 823.821 2185.469 824.482 C 2194.061 831.909 2202.541 838.752 2211.188 845.376 C 2212.901 846.689 2215.259 847.16 2217.32 848.019 C 2217.32 848.019 2217.362 847.888 2217.294 848.574 C 2219.724 851.118 2222.22 852.975 2224.716 854.833 C 2224.716 854.833 2225.153 855.299 2225.67 856.116 C 2236.642 864.583 2247.096 872.232 2257.551 879.881 C 2257.551 879.881 2257.35 879.886 2257.685 880.374 C 2260.316 882.679 2262.547 884.586 2264.919 886.299 C 2273.09 892.201 2281.31 898.036 2289.511 903.897 C 2289.511 903.897 2289.34 903.902 2289.592 904.444 C 2293.922 908.256 2297.867 911.715 2302.111 914.755 C 2308.457 919.301 2315.013 923.554 2321.48 927.931 C 2321.48 927.931 2321.31 927.92 2321.47 928.491 C 2330.182 935.793 2338.68 942.594 2347.33 949.196 C 2349.055 950.512 2351.36 951.067 2353.397 951.973 C 2353.397 951.973 2353.399 951.841 2353.459 952.474 C 2356.137 955.183 2358.754 957.257 2361.372 959.332 C 2361.372 959.332 2362.038 959.915 2362.831 960.674 C 2367.512 964.498 2371.25 967.786 2375.338 970.559 C 2378.48 972.69 2382.063 974.172 2385.45 975.942 C 2385.45 975.942 2385.432 975.8 2385.357 976.44 C 2387.443 978.746 2389.604 980.412 2392.28 982.625 C 2393.709 983.564 2394.625 983.956 2395.844 984.896 C 2405.943 992.92 2415.738 1000.394 2425.533 1007.869 C 2425.533 1007.869 2425.338 1007.898 2425.614 1008.418 C 2429.776 1011.426 2433.662 1013.915 2437.822 1016.968 C 2444.565 1022.317 2451.036 1027.102 2457.508 1031.887 C 2457.508 1031.887 2457.355 1031.894 2457.543 1032.472 C 2467.441 1040.084 2477.151 1047.119 2487.256 1054.674 C 2490.675 1057.572 2493.699 1059.949 2497.32 1062.904 C 2498.385 1063.776 2498.853 1064.071 2499.585 1064.822 C 2503.721 1068.47 2507.593 1071.662 2510.845 1075.436 C 2505.013 1076.611 2499.8 1077.723 2494.588 1077.724 C 2044.02 1077.774 1593.452 1077.738 1142.884 1077.707 C 1140.218 1077.707 1137.518 1077.953 1134.896 1077.607 C 1132.325 1077.268 1129.834 1076.32 1127.255 1075.123 C 1127.1 1073.929 1126.998 1073.251 1127.561 1072.253 C 1128.925 1070.19 1129.624 1068.447 1130.649 1066.123 C 1133.356 1061.104 1135.738 1056.666 1138.646 1051.824 C 1140.89 1047.534 1142.609 1043.648 1144.327 1039.762 C 1144.666 1039.237 1144.89 1038.667 1145.597 1037.249 C 1148.369 1032.491 1150.542 1028.536 1152.98 1023.874 C 1153.485 1022.192 1153.724 1021.219 1154.477 1019.813 C 1157.112 1015.141 1159.234 1010.9 1161.356 1006.66 C 1161.356 1006.66 1161.406 1006.841 1161.915 1006.395 C 1164.444 1001.218 1166.465 996.488 1168.486 991.758 C 1168.486 991.758 1168.927 990.896 1169.631 990.261 C 1172.361 984.998 1174.386 980.369 1176.411 975.74 C 1176.411 975.74 1176.875 975.038 1177.637 974.261 C 1180.555 969.561 1182.712 965.638 1185.12 961.225 C 1185.341 960.369 1185.31 960.002 1185.278 959.636 C 1185.278 959.636 1185.371 959.769 1185.784 959.312 C 1188.612 953.477 1191.026 948.099 1193.44 942.721 C 1193.44 942.721 1193.496 942.885 1194.011 942.468 C 1196.768 937.189 1199.01 932.326 1201.251 927.462 C 1201.251 927.462 1201.478 927.673 1201.807 927.269 C 1204.79 921.2 1207.443 915.533 1210.649 909.348 C 1213.435 904.223 1215.668 899.618 1217.901 895.013 C 1217.901 895.013 1218.251 894.616 1218.808 894.004 C 1219.992 891.328 1220.62 889.265 1221.822 886.815 C 1223.452 883.899 1224.508 881.371 1225.564 878.843 C 1225.564 878.843 1225.484 878.837 1226.093 878.401 C 1229.049 872.946 1231.394 867.928 1233.74 862.909 C 1233.826 862.544 1233.88 862.175 1234.533 861.145 C 1238.682 856.924 1241.857 853.192 1241.373 847.686 C 1241.373 847.686 1241.413 847.841 1241.996 847.638 C 1244.869 842.194 1247.159 836.954 1249.449 831.714 C 1249.449 831.714 1249.469 831.888 1250.08 831.736 C 1252.834 826.192 1254.979 820.799 1257.124 815.406 C 1257.124 815.406 1257.266 814.714 1258.063 814.193 C 1264.251 804.217 1269.958 794.923 1274.912 785.243 C 1277.731 779.736 1279.318 773.598 1281.459 767.744 C 1281.459 767.744 1281.472 767.896 1282.108 767.858 C 1285.003 762.49 1287.262 757.161 1289.521 751.831 C 1289.521 751.831 1289.475 751.903 1290.137 751.906 C 1294.66 744.012 1298.52 736.116 1302.969 727.681 C 1304.363 725.792 1305.169 724.443 1306.462 722.709 C 1310.985 713.798 1315.02 705.271 1319.563 696.189 C 1320.445 694.215 1320.819 692.799 1321.641 690.899 C 1326.472 681.619 1330.854 672.822 1335.827 663.635 C 1337.174 661.545 1337.929 659.845 1339.149 657.785 C 1343.519 649.249 1347.425 641.075 1351.892 632.493 C 1352.903 630.337 1353.354 628.589 1354.42 626.479 C 1357.045 622.358 1359.055 618.6 1361.065 614.842 C 1361.065 614.842 1361.012 614.701 1361.585 614.119 C 1363.842 609.245 1365.526 604.953 1367.79 600.319 C 1369.111 598.377 1369.851 596.777 1371.026 594.668 C 1373.253 590.62 1375.046 587.081 1376.838 583.543 C 1376.925 583.157 1377.011 582.772 1377.718 581.407 C 1380.561 575.927 1382.785 571.428 1385.009 566.929 C 1385.038 566.481 1385.112 566.041 1385.992 564.937 C 1388.832 559.897 1390.914 555.53 1392.995 551.163 C 1393.065 550.59 1393.168 550.022 1394.051 548.709 C 1396.491 544.79 1398.182 541.622 1400.304 538.033 C 1400.837 536.827 1400.938 536.043 1401.039 535.259 C 1401.039 535.259 1401.456 535.446 1401.63 535.026 C 1404.297 529.588 1406.789 524.57 1409.282 519.552 C 1409.282 519.552 1409.378 519.713 1409.873 519.358 C 1412.633 513.699 1414.898 508.394 1417.163 503.09 C 1417.163 503.09 1417.162 502.869 1417.861 502.412 C 1420.767 497.082 1422.973 492.209 1425.179 487.337 C 1425.179 487.337 1425.483 487.59 1425.838 487.25 C 1428.509 481.777 1430.825 476.644 1433.141 471.512 C 1433.141 471.512 1433.374 470.707 1434.108 469.952 C 1437.017 464.692 1439.192 460.187 1441.367 455.682 C 1441.367 455.682 1441.385 455.82 1441.982 455.636 C 1445.405 450.163 1448.231 444.875 1451.682 438.42 C 1457.054 445.199 1461.29 450.545 1465.526 455.891 C 1465.526 455.891 1465.365 455.854 1465.479 456.469 C 1470.505 463.706 1475.418 470.328 1480.411 477.69 C 1481.094 479.223 1481.696 480.015 1482.402 481.398 C 1487.247 488.746 1491.987 495.504 1497.293 503.003 C 1498.385 504.076 1498.911 504.408 1499.492 505.399 C 1507.623 518.024 1515.585 530.067 1523.822 541.919 C 1527.9 547.787 1532.483 553.304 1536.837 558.98 C 1536.837 558.98 1536.894 559.049 1536.95 559.877 C 1542.297 568.061 1547.587 575.416 1552.878 582.772 C 1552.878 582.772 1553.005 583.002 1553.149 583.875 C 1558.477 591.734 1563.662 598.721 1568.934 606.538 C 1574.481 615.535 1579.939 623.701 1585.681 632.485 C 1590.787 639.889 1595.609 646.675 1600.812 654.096 C 1601.914 655.373 1602.637 656.015 1603.516 657.478 C 1606.414 663.693 1603.983 668.388 1601.598 673.039 C 1599.237 677.64 1596.737 682.171 1593.867 687.309 C 1593.147 690.011 1592.858 692.136 1591.899 694.697 C 1589.663 697.61 1588.35 700.302 1586.47 702.512 C 1583.665 705.808 1582.749 709.364 1583.109 713.677 C 1582.338 714.173 1582.117 714.49 1581.863 714.745 C 1581.83 714.683 1581.839 714.936 1581.097 715.477 C 1579.211 717.477 1578.067 718.935 1576.476 720.868 C 1573.544 726.835 1571.06 732.327 1568.182 738.079 C 1565.719 743.101 1563.648 747.861 1561.577 752.622 C 1561.577 752.622 1561.528 752.833 1560.864 753.291 C 1558.031 758.213 1555.862 762.678 1553.149 767.775 C 1552.519 769.487 1552.431 770.565 1551.703 771.713 C 1549.367 775.673 1547.671 779.566 1545.714 784.03 C 1545.366 785.013 1545.28 785.424 1545.193 785.835 C 1545.193 785.835 1545.328 785.666 1544.641 785.852 C 1536.795 798.161 1529.516 810.225 1525.16 824.077 C 1524.113 824.566 1523.754 825.069 1523.52 825.793 C 1523.413 825.849 1523.427 826.089 1522.94 826.49 C 1521.125 829.708 1519.69 832.483 1518.59 835.386 C 1518.43 835.81 1519.87 836.841 1521.543 837.784 C 1523.847 838.028 1525.178 838.124 1526.509 838.124 C 1636.399 838.131 1746.289 838.137 1856.179 838.096 C 1859.481 838.095 1862.782 837.587 1866.457 836.871 C 1866.129 834.289 1865.881 831.839 1864.655 830.065 C 1857.107 819.147 1849.339 808.382 1841.501 796.929 C 1838.887 793.41 1836.416 790.528 1833.852 786.989 C 1832.987 785.315 1832.215 784.298 1831.39 782.63 C 1829.311 779.936 1827.285 777.893 1825.259 775.85 C 1825.259 775.85 1825.392 775.846 1825.489 775.182 C 1817.73 763.033 1809.875 751.547 1801.805 739.357 C 1800.73 737.503 1799.871 736.353 1798.856 734.578 C 1794.714 728.181 1792.719 720.853 1785.737 716.692 C 1784.676 714.489 1783.639 712.997 1782.564 710.898 C 1780.162 706.844 1777.8 703.398 1775.208 699.297 C 1770.399 692.729 1765.82 686.817 1761.24 680.905 C 1761.24 680.905 1761.404 680.845 1761.342 680.109 C 1755.923 671.54 1750.566 663.706 1745.21 655.873 C 1745.21 655.873 1745.433 656.409 1745.201 655.78 C 1739.588 647.703 1734.207 640.257 1728.826 632.81 C 1728.826 632.81 1728.604 632.619 1728.508 631.808 C 1723.627 623.992 1718.842 616.988 1713.939 609.647 C 1713.822 609.31 1713.465 608.692 1713.49 608.367 C 1713.333 607.571 1712.988 607.346 1712.333 607.258 C 1712.185 607.15 1711.825 607.22 1711.711 606.534 C 1706.288 598.207 1700.978 590.566 1695.594 582.276 C 1691.029 575.676 1686.537 569.727 1681.943 563.112 C 1681.074 561.404 1680.306 560.361 1679.46 558.654 C 1677.34 555.953 1675.299 553.914 1673.258 551.875 C 1673.258 551.875 1673.384 551.857 1673.561 551.198 C 1670.331 545.636 1666.924 540.733 1663.346 535.148 C 1658.698 528.221 1654.222 521.977 1649.592 515.077 C 1648.655 513.363 1647.871 512.304 1646.993 510.601 C 1642.499 504.41 1638.101 498.863 1633.668 492.568 C 1632.513 490.255 1631.392 488.69 1630.313 486.591 C 1628.567 484.116 1626.78 482.175 1625.088 479.516 C 1619.908 471.576 1614.632 464.354 1609.356 457.133 C 1609.356 457.133 1609.203 456.999 1609.273 456.169 C 1606.841 451.716 1604.339 448.094 1601.568 443.796 C 1598.547 439.364 1595.794 435.607 1593.042 431.85 C 1593.042 431.85 1593.296 432.01 1593.164 431.424 C 1587.69 423.65 1582.349 416.463 1577.007 409.275 C 1577.007 409.275 1576.651 408.91 1576.696 408.004 C 1571.507 399.853 1566.273 392.608 1561.039 385.363 C 1561.039 385.363 1560.717 385.024 1560.654 384.277 C 1560.205 382.955 1559.82 382.381 1559.419 381.821 C 1559.405 381.835 1559.445 381.821 1559.286 381.158 C 1555.886 376.27 1552.644 372.044 1549.401 367.829 C 1549.399 367.841 1549.421 367.843 1549.229 367.242 C 1547.759 365.047 1546.481 363.454 1545.203 361.861 C 1545.203 361.861 1544.602 361.09 1544.374 360.043 C 1539.381 352.485 1534.615 345.974 1529.73 338.858 C 1528.906 337.304 1528.203 336.356 1527.362 334.735 C 1525.491 330.077 1521.486 326.98 1521.886 321.748 C 1523.45 321.748 1524.426 321.748 1525.726 322.338 C 1532.487 327.281 1538.925 331.635 1545.362 335.989 C 1545.362 335.989 1545.382 335.861 1545.29 336.566 C 1547.844 339.149 1550.489 341.026 1553.134 342.904 C 1553.134 342.904 1553.376 343.248 1553.768 344.03 C 1556.244 346.387 1558.291 348.016 1560.421 349.527 C 1568.39 355.177 1576.387 360.788 1584.748 366.932 C 1585.87 367.846 1586.617 368.242 1587.644 369.197 C 1597.802 377.131 1607.679 384.508 1617.557 391.885 C 1617.557 391.885 1617.351 391.858 1617.617 392.386 C 1628.435 400.579 1638.987 408.244 1649.538 415.908 C 1649.538 415.908 1649.352 415.896 1649.611 416.435 C 1659.445 424.477 1668.991 432.018 1678.64 439.424 C 1679.539 440.115 1681.088 439.959 1682.334 440.197 C 1682.334 440.197 1682.261 440.009 1682.39 440.746 C 1694.876 450.894 1707.232 460.305 1719.925 470.294 C 1724.714 474.134 1729.166 477.396 1733.875 481.189 C 1740.473 486.205 1746.813 490.691 1753.153 495.176 C 1753.153 495.176 1753.264 495.062 1753.467 495.741 C 1764.288 504.242 1774.908 512.064 1785.527 519.886 C 1785.527 519.886 1785.35 519.91 1785.591 520.452 C 1788.113 522.843 1790.302 524.82 1792.691 526.516 C 1800.927 532.364 1809.234 538.115 1817.513 543.902 C 1817.513 543.902 1817.338 543.897 1817.458 544.445 C 1819.994 546.549 1822.41 548.106 1825.293 550.412 C 1826.236 551.508 1826.712 551.854 1827.53 552.629 C 1837.898 560.711 1847.842 568.473 1857.982 575.972 C 1862.986 579.673 1868.349 582.888 1873.821 586.876 C 1874.37 587.731 1874.648 588.033 1874.79 588.429 C 1874.654 588.522 1875.138 588.698 1875.448 589.023 C 1875.758 589.347 1876.592 589.677 1876.799 590.024 C 1877.718 590.682 1878.43 590.994 1879.654 591.637 C 1880.572 591.972 1880.978 591.975 1881.385 591.977 C 1881.385 591.977 1881.388 591.848 1881.411 592.528 C 1886.516 597.251 1891.599 601.293 1897.148 605.782 C 1899.039 607.023 1900.465 607.817 1902.274 609.206 C 1906.255 611.857 1909.855 613.913 1913.455 615.968 C 1913.455 615.968 1913.479 615.814 1913.703 616.368 C 1916.533 619.182 1919.14 621.443 1921.746 623.704 C 1921.746 623.704 1921.539 623.85 1921.897 624.268 C 1932.675 632.422 1943.097 640.158 1953.519 647.895 C 1953.519 647.895 1953.362 647.913 1953.492 648.429 C 1955.296 650.043 1956.968 651.142 1959.056 652.806 C 1961.058 654.403 1962.645 655.436 1964.641 656.895 C 1971.855 662.192 1978.661 667.063 1985.466 671.934 C 1985.466 671.934 1985.371 671.882 1985.397 672.431 C 1987.759 674.533 1990.095 676.086 1992.913 678.397 C 1994.454 679.698 1995.512 680.241 1996.952 681.314 C 2004.064 686.531 2010.793 691.216 2017.521 695.902 C 2017.521 695.902 2017.336 695.9 2017.482 696.405 C 2019.734 698.579 2021.839 700.249 2024.399 702.462 C 2026.134 703.519 2027.415 704.032 2028.982 705.145 C 2035.969 710.492 2042.67 715.238 2049.371 719.984 C 2049.371 719.984 2049.385 719.856 2049.316 720.51 C 2051.711 722.292 2054.175 723.421 2056.64 724.55 C 2056.806 725.114 2056.972 725.677 2057.775 727.614 C 2068.801 736.614 2079.19 744.241 2089.579 751.868 C 2089.579 751.868 2089.376 751.901 2089.679 752.398 C 2100.732 760.67 2111.482 768.445 2122.232 776.22 Z" transform="matrix(1.0000000000000002, 0, 0, 1.0000000000000002, 0, 5.684341886080802e-14)"/>
</svg>