<?xml version="1.0" encoding="utf-8"?>
<svg viewBox="0 0 662 662" width="662" height="662" xmlns="http://www.w3.org/2000/svg">
  <path fill="#FCA036" opacity="1.000000" stroke="none" d="&#10;M208.830826,271.274078 &#10;&#9;C209.272491,271.850800 209.714157,272.427490 210.617218,273.389954 &#10;&#9;C213.633301,275.768768 216.342819,277.595337 218.706757,279.793579 &#10;&#9;C222.336960,283.169312 225.433228,287.179474 229.310471,290.211517 &#10;&#9;C232.838730,292.970673 237.105759,294.785065 241.018921,297.013489 &#10;&#9;C240.990692,297.011108 241.010361,296.957642 240.768173,297.286621 &#10;&#9;C241.957321,301.699493 243.845856,305.254883 249.020813,304.993256 &#10;&#9;C248.997467,305.002350 249.014694,304.955292 248.784393,305.294342 &#10;&#9;C251.393799,308.089355 254.233521,310.545288 257.037567,313.001404 &#10;&#9;C257.001892,313.001526 257.001770,312.930176 257.025757,313.277832 &#10;&#9;C259.723541,316.085358 262.397278,318.545197 265.033020,321.003418 &#10;&#9;C264.994965,321.001801 264.998047,320.925720 265.048889,321.275085 &#10;&#9;C267.741608,324.038666 270.383484,326.452881 273.286987,328.928345 &#10;&#9;C273.901245,329.045898 274.253876,329.102264 274.766602,329.465179 &#10;&#9;C277.851990,332.829468 280.777313,335.887177 283.819366,339.066864 &#10;&#9;C285.706787,337.354980 287.104858,336.201904 288.371033,334.918701 &#10;&#9;C294.205902,329.005402 299.950348,323.001678 305.851044,317.155396 &#10;&#9;C307.428223,315.592773 309.442719,314.471497 311.543518,313.081604 &#10;&#9;C312.217285,312.955231 312.603973,312.894867 313.345032,312.814941 &#10;&#9;C316.525055,311.554504 319.304382,309.382965 322.184570,309.239807 &#10;&#9;C332.595154,308.722412 343.156372,307.919983 353.273438,312.882446 &#10;&#9;C353.950317,313.036652 354.342133,313.101654 354.870544,313.486694 &#10;&#9;C357.073181,315.371552 359.275909,316.786591 361.181946,318.526611 &#10;&#9;C370.240448,326.796051 379.324310,335.042786 388.195435,343.510986 &#10;&#9;C397.493652,352.386871 405.849243,362.308929 417.034637,369.002289 &#10;&#9;C416.999939,369.002716 417.001190,368.933319 417.014648,369.282410 &#10;&#9;C419.710205,372.088287 422.392242,374.545074 425.036011,377.002075 &#10;&#9;C424.997681,377.002228 424.997040,376.925598 425.045715,377.274048 &#10;&#9;C428.704376,382.214691 431.959717,386.815002 431.000366,393.273956 &#10;&#9;C430.229614,398.463043 424.318390,406.792114 420.171204,406.844238 &#10;&#9;C413.594513,406.926880 406.507812,408.753082 401.080322,402.506622 &#10;&#9;C400.407379,401.742889 399.813538,401.286407 399.091187,400.512238 &#10;&#9;C396.184052,397.959290 393.243622,395.896118 390.654175,393.459839 &#10;&#9;C377.532043,381.113892 364.477722,368.695496 351.452789,356.246826 &#10;&#9;C347.731934,352.690552 344.225616,348.910889 340.552277,345.303558 &#10;&#9;C337.898590,342.697571 329.692657,341.602753 327.127197,343.986908 &#10;&#9;C320.989990,349.690460 315.189209,355.755981 309.755219,361.174194 &#10;&#9;C314.085175,365.412201 317.680756,369.282684 321.669891,372.692719 &#10;&#9;C323.771271,374.489044 326.560028,375.481293 329.463745,376.901642 &#10;&#9;C332.312469,376.403564 334.735809,375.840454 337.476318,375.153748 &#10;&#9;C339.625580,373.074188 341.457703,371.118195 343.572754,369.093262 &#10;&#9;C344.236755,368.955963 344.617798,368.887604 345.329468,368.778900 &#10;&#9;C347.534393,368.093201 347.481476,363.113556 351.117218,366.384491 &#10;&#9;C357.250458,371.902374 363.309753,377.515350 369.660797,382.773560 &#10;&#9;C373.549438,385.993073 374.652954,389.008667 370.436951,392.932251 &#10;&#9;C367.538818,396.238464 366.010773,400.597748 360.707611,401.142975 &#10;&#9;C356.456757,403.717834 352.547974,406.280060 348.292053,408.910095 &#10;&#9;C346.910339,409.583862 345.875793,410.189758 344.384155,410.842224 &#10;&#9;C333.575806,410.580200 323.096649,412.369202 312.968384,408.998596 &#10;&#9;C313.004822,408.997589 313.007080,409.070465 312.939148,408.722229 &#10;&#9;C305.547729,402.797150 298.095490,397.379120 290.949127,391.583954 &#10;&#9;C286.670776,388.114502 286.148834,387.957123 282.362274,392.926971 &#10;&#9;C281.657715,393.596313 281.245667,394.188324 280.529053,394.928986 &#10;&#9;C275.697510,399.666260 271.170502,404.254852 266.362183,408.927185 &#10;&#9;C265.667847,409.573639 265.254791,410.136322 264.519897,410.837952 &#10;&#9;C261.538330,414.268982 259.062988,417.732758 256.185547,420.822052 &#10;&#9;C246.096207,431.654358 235.862137,442.351837 225.698502,453.115143 &#10;&#9;C223.770905,455.156525 221.914322,457.264954 219.750854,459.438507 &#10;&#9;C218.918701,460.311646 218.360687,461.088715 217.851013,461.870789 &#10;&#9;C217.899384,461.875793 217.830109,461.807526 217.519470,461.925995 &#10;&#9;C215.916565,464.040039 214.624268,466.035645 213.101837,468.234619 &#10;&#9;C212.590164,468.735046 212.308609,469.032104 211.737030,469.442749 &#10;&#9;C210.631378,470.728333 209.815781,471.900360 208.999954,473.035706 &#10;&#9;C208.999741,472.998993 209.073181,472.998352 208.730240,473.039886 &#10;&#9;C205.925369,475.743408 203.463440,478.405396 200.998703,481.030823 &#10;&#9;C200.995895,480.994263 201.069000,480.988403 200.689163,481.092163 &#10;&#9;C198.089081,484.991272 198.010925,488.725983 201.016083,492.101654 &#10;&#9;C204.123108,495.591736 207.551071,498.798859 210.613586,502.325195 &#10;&#9;C215.451218,507.895386 220.100998,513.628662 224.923462,519.639038 &#10;&#9;C230.038620,524.529785 235.094055,529.038269 240.055801,533.647644 &#10;&#9;C241.116119,534.632629 241.836411,535.983643 242.770630,537.535278 &#10;&#9;C244.908676,540.272400 246.989456,542.640381 249.032349,545.007324 &#10;&#9;C248.994476,545.006409 248.996048,544.930664 249.033905,545.274902 &#10;&#9;C251.737564,548.078064 254.403366,550.536987 257.036133,553.000061 &#10;&#9;C257.003082,553.004150 257.002319,552.937561 257.012238,553.287231 &#10;&#9;C259.701996,556.089172 262.381836,558.541443 265.029358,560.994080 &#10;&#9;C264.997009,560.994385 265.010193,560.931030 264.968506,561.317749 &#10;&#9;C267.594238,564.873657 270.261627,568.042847 273.027832,571.525757 &#10;&#9;C275.765869,573.555969 278.405151,575.272583 281.020081,576.996582 &#10;&#9;C280.995789,577.003967 281.010773,576.955444 280.776154,577.283691 &#10;&#9;C281.425903,579.136353 282.125580,580.813293 283.232819,582.153503 &#10;&#9;C285.596649,585.014832 288.165588,587.707153 290.661133,590.459106 &#10;&#9;C300.187225,600.963684 309.717499,611.464478 319.360596,622.210205 &#10;&#9;C319.927063,622.741516 320.379150,623.029297 320.910217,623.603149 &#10;&#9;C321.549500,624.312988 322.109833,624.736755 322.845062,625.485352 &#10;&#9;C327.367432,630.133545 334.409271,630.790894 338.407440,626.506470 &#10;&#9;C343.594727,620.947876 348.165558,614.814087 353.002014,608.964600 &#10;&#9;C353.002289,609.001404 352.928741,609.002258 353.267151,608.959106 &#10;&#9;C356.071106,606.255310 358.536652,603.594604 361.003418,600.968079 &#10;&#9;C361.004578,601.002197 360.936310,601.000610 361.278778,600.975708 &#10;&#9;C364.079926,598.275940 366.538574,595.601135 368.998047,592.962280 &#10;&#9;C368.998810,592.998352 368.926758,592.999512 369.271088,592.952454 &#10;&#9;C371.475311,590.325745 373.335205,587.746033 375.495361,585.087891 &#10;&#9;C376.252289,584.438660 376.708954,583.867859 377.484924,583.172363 &#10;&#9;C379.654114,581.082397 381.503998,579.117126 383.650421,577.071777 &#10;&#9;C384.348175,576.594910 384.749420,576.198059 385.429688,575.660400 &#10;&#9;C387.548920,573.401550 389.389130,571.283508 391.577698,569.074219 &#10;&#9;C392.334625,567.740112 392.743195,566.497253 393.469604,565.128662 &#10;&#9;C395.025848,563.906921 396.370453,562.908752 397.485687,561.699097 &#10;&#9;C405.309204,553.212708 412.987335,544.590088 420.909698,536.197693 &#10;&#9;C426.604034,530.165466 432.701874,524.514099 438.395538,518.481262 &#10;&#9;C439.726868,517.070557 440.150146,514.802795 440.995972,512.963013 &#10;&#9;C441.000702,512.996643 440.932831,512.999573 441.280060,512.977112 &#10;&#9;C444.681061,510.119507 447.734863,507.284363 450.788635,504.449219 &#10;&#9;C450.569794,503.953186 450.350952,503.457123 450.132080,502.961060 &#10;&#9;C448.226898,502.961060 446.321686,502.961853 444.416473,502.960938 &#10;&#9;C405.860413,502.942688 367.304291,502.961578 328.748413,502.864014 &#10;&#9;C323.234161,502.850067 318.314331,501.420990 316.289917,495.278229 &#10;&#9;C313.697510,487.412109 314.575653,480.066223 319.479034,473.093384 &#10;&#9;C320.220459,472.927795 320.642914,472.835236 321.428711,472.716553 &#10;&#9;C327.022003,471.471802 332.239319,469.266327 337.483917,469.199493 &#10;&#9;C365.307007,468.844971 393.142761,468.684387 420.962402,469.153168 &#10;&#9;C437.491302,469.431732 454.095032,467.168396 470.581085,470.898285 &#10;&#9;C480.073120,473.045807 486.905609,478.215942 490.516876,486.817200 &#10;&#9;C494.143707,495.455383 493.802490,504.462067 489.126770,513.271362 &#10;&#9;C488.971680,513.972717 488.905975,514.378296 488.529541,514.906799 &#10;&#9;C486.209564,516.968750 484.200378,518.907776 481.908264,520.953491 &#10;&#9;C481.365387,521.575378 481.105438,522.090515 480.527466,522.744019 &#10;&#9;C478.339813,524.868347 476.470184,526.854309 474.319092,528.925171 &#10;&#9;C473.635437,529.580811 473.233215,530.151428 472.507050,530.851990 &#10;&#9;C470.663849,533.065491 469.321198,535.309875 467.595184,537.205078 &#10;&#9;C459.497833,546.095886 451.209320,554.813416 443.157654,563.744812 &#10;&#9;C436.904938,570.680786 428.655334,575.933350 424.990051,585.074463 &#10;&#9;C424.990051,585.074463 424.993744,584.991760 424.702209,585.056030 &#10;&#9;C421.939178,587.771667 419.467712,590.422913 416.996246,593.074219 &#10;&#9;C416.996246,593.074219 416.995270,592.997375 416.696564,593.046082 &#10;&#9;C413.931183,595.752563 411.464508,598.410278 408.997864,601.068054 &#10;&#9;C408.997864,601.068054 408.994751,600.998657 408.680542,601.026978 &#10;&#9;C406.457733,603.649780 404.549133,606.244202 402.640503,608.838684 &#10;&#9;C399.433350,611.905640 396.226196,614.972595 392.611450,618.508423 &#10;&#9;C390.338501,620.927551 388.473145,622.877808 386.607788,624.828064 &#10;&#9;C386.070343,625.238953 385.532928,625.649841 384.602478,626.477661 &#10;&#9;C382.346222,628.880066 380.483002,630.865540 378.619751,632.851013 &#10;&#9;C378.076202,633.316406 377.532623,633.781860 376.602722,634.684509 &#10;&#9;C374.173309,637.673218 372.255615,640.338684 370.060608,642.751892 &#10;&#9;C365.722473,647.521301 361.230957,652.151184 356.802795,656.838745 &#10;&#9;C355.544891,657.230347 354.286987,657.621948 352.553467,658.417603 &#10;&#9;C349.051910,660.214417 346.025940,661.607178 343.000000,663.000000 &#10;&#9;C335.312408,663.000000 327.624847,663.000000 319.370056,662.649414 &#10;&#9;C314.179504,660.534729 309.556183,658.770630 304.932831,657.006531 &#10;&#9;C304.932831,657.006531 305.001404,657.001343 304.962585,656.692200 &#10;&#9;C302.262634,653.923584 299.601471,651.464050 296.940338,649.004578 &#10;&#9;C296.940338,649.004578 297.005554,648.998718 296.985413,648.694641 &#10;&#9;C295.592529,646.928284 294.219757,645.466064 292.783997,643.673096 &#10;&#9;C291.459290,642.564453 290.197601,641.786499 288.935913,641.008545 &#10;&#9;C288.935913,641.008545 289.003967,641.007324 288.954956,640.701904 &#10;&#9;C285.515198,636.273438 282.124512,632.150391 278.635895,627.753906 &#10;&#9;C277.687622,626.705261 276.837311,625.929993 275.621552,624.957092 &#10;&#9;C274.489990,624.843384 273.723846,624.927246 272.957703,625.011108 &#10;&#9;C272.957703,625.011108 273.004456,624.996094 273.235962,624.692627 &#10;&#9;C273.062836,623.344299 272.907379,622.081482 272.214111,621.289185 &#10;&#9;C266.583313,614.853882 260.974823,608.390808 255.114288,602.167175 &#10;&#9;C249.889862,596.619141 244.285172,591.430725 238.993088,585.943909 &#10;&#9;C237.314957,584.204041 236.102570,582.014954 234.577789,579.793823 &#10;&#9;C234.040070,579.291626 233.601608,579.026917 233.163147,578.762207 &#10;&#9;C233.020035,578.295044 232.922745,577.440430 232.727127,577.417358 &#10;&#9;C227.678802,576.820496 225.898544,572.871338 223.521210,568.620544 &#10;&#9;C221.079178,566.357849 219.115250,564.508484 217.151306,562.659119 &#10;&#9;C216.730026,562.109314 216.308746,561.559570 215.470398,560.596436 &#10;&#9;C213.280014,558.122009 213.123444,554.345093 209.149170,554.619995 &#10;&#9;C209.094925,554.278931 209.040680,553.937927 208.929718,552.996948 &#10;&#9;C206.227036,549.931763 203.581085,547.466553 200.935120,545.001343 &#10;&#9;C200.935120,545.001343 201.003448,544.997070 200.962616,544.693237 &#10;&#9;C198.256683,541.928101 195.591553,539.466736 192.960312,537.003967 &#10;&#9;C192.994202,537.002502 192.990509,537.070251 193.020569,536.687500 &#10;&#9;C189.798569,532.288452 186.751480,528.077087 183.199448,524.346497 &#10;&#9;C181.653763,522.723083 179.071136,522.086975 176.984222,520.996887 &#10;&#9;C177.008987,520.991333 176.997528,521.040710 177.224884,520.708069 &#10;&#9;C174.686676,516.516602 171.921112,512.657776 169.088409,508.445129 &#10;&#9;C168.447540,507.004913 167.873779,505.918518 167.232819,504.425629 &#10;&#9;C164.641754,493.339233 163.428299,482.660950 167.012054,471.942169 &#10;&#9;C167.781342,469.641235 168.336594,467.268707 168.995560,464.962402 &#10;&#9;C169.000687,464.995605 168.933517,464.998352 169.281418,464.965088 &#10;&#9;C171.493210,462.340546 173.357117,459.749237 175.519318,457.083008 &#10;&#9;C176.266968,456.443512 176.716339,455.878876 177.491898,455.181946 &#10;&#9;C179.998505,452.202850 181.948898,449.138824 184.397522,446.545166 &#10;&#9;C197.910904,432.231628 211.624924,418.106812 225.078644,403.738037 &#10;&#9;C228.110794,400.499664 230.380920,396.547821 233.002930,392.960632 &#10;&#9;C233.004044,392.996857 232.931641,392.999237 233.278824,392.974060 &#10;&#9;C236.086487,390.277618 238.546967,387.606384 241.007355,384.971313 &#10;&#9;C241.007263,385.007507 240.934875,385.007690 241.284836,384.955200 &#10;&#9;C244.057632,382.240631 246.480469,379.578522 248.944458,376.655029 &#10;&#9;C249.043365,376.047150 249.101120,375.700623 249.526947,375.293640 &#10;&#9;C252.205505,373.151337 254.516006,371.069519 256.899719,368.710022 &#10;&#9;C257.036560,368.056183 257.100220,367.680054 257.477356,367.182312 &#10;&#9;C261.640259,363.636902 261.592560,363.295654 256.974335,361.000061 &#10;&#9;C257.004333,360.995300 256.995911,361.055481 256.997894,360.698914 &#10;&#9;C254.381134,358.421906 251.762390,356.501495 249.065521,354.309601 &#10;&#9;C248.449890,353.634644 247.912384,353.231140 247.232727,352.515137 &#10;&#9;C245.115128,350.393585 243.139694,348.584595 241.087418,346.478455 &#10;&#9;C240.441864,345.734589 239.873138,345.287933 239.137634,344.527832 &#10;&#9;C237.361206,342.653442 235.803650,341.034180 234.133362,339.541046 &#10;&#9;C224.091278,330.564026 214.105759,321.520966 203.933395,312.693542 &#10;&#9;C197.774933,307.349304 191.313644,302.354034 184.551758,297.120300 &#10;&#9;C181.748154,297.081085 179.381195,297.123566 176.668289,297.181824 &#10;&#9;C172.121658,301.678436 168.716034,306.525543 169.007385,313.038177 &#10;&#9;C169.005875,313.000244 169.081726,312.997375 168.738068,313.073547 &#10;&#9;C165.996750,318.430298 163.599106,323.710907 161.118134,329.282593 &#10;&#9;C160.973038,329.971466 160.911270,330.369232 160.527740,330.921143 &#10;&#9;C158.394714,335.662170 156.583450,340.249054 154.425613,344.925354 &#10;&#9;C153.664230,346.252930 153.249420,347.491058 152.503632,348.898926 &#10;&#9;C147.185928,361.038696 142.199203,373.008698 137.124664,385.275696 &#10;&#9;C136.973557,385.979462 136.910294,386.386292 136.526642,386.945251 &#10;&#9;C134.391006,391.678406 132.575760,396.259399 130.412933,400.929016 &#10;&#9;C129.658722,402.263428 129.252106,403.509247 128.513748,404.920898 &#10;&#9;C123.185745,417.058929 118.189499,429.031097 113.113762,441.297241 &#10;&#9;C112.971046,441.991180 112.907814,442.391083 112.524948,442.944580 &#10;&#9;C110.402519,447.680939 108.599724,452.263763 106.451462,456.936310 &#10;&#9;C105.684937,458.252228 105.263878,459.478394 104.589806,460.799622 &#10;&#9;C103.987503,461.271942 103.638214,461.649139 103.185524,462.414246 &#10;&#9;C102.525177,464.482635 101.970032,466.163727 101.410973,467.843506 &#10;&#9;C99.944183,472.250732 98.475685,476.657410 97.002151,481.031982 &#10;&#9;C96.996429,480.999695 97.062027,480.998138 96.705719,481.032501 &#10;&#9;C93.951302,486.389099 91.553207,491.711304 89.092087,497.316162 &#10;&#9;C88.968170,497.978607 88.907265,498.358490 88.527557,498.900208 &#10;&#9;C86.400909,503.654816 84.593063,508.247559 82.435242,512.929688 &#10;&#9;C81.672729,514.248047 81.260208,515.477112 80.515457,516.878052 &#10;&#9;C78.324677,521.893372 76.330711,526.689941 74.635605,531.589905 &#10;&#9;C71.049423,541.956360 74.694550,547.046387 85.612373,547.053772 &#10;&#9;C114.721573,547.073547 143.835693,546.759521 172.937408,547.227661 &#10;&#9;C183.509842,547.397766 187.369232,549.893311 190.319244,558.124634 &#10;&#9;C192.664322,564.668030 190.801178,571.183594 186.595947,576.838989 &#10;&#9;C186.061508,577.282593 185.527069,577.726135 184.524597,578.517700 &#10;&#9;C180.876480,579.576477 177.676376,580.982605 174.519348,580.891846 &#10;&#9;C138.072479,579.843689 101.536331,583.409241 65.160751,578.833923 &#10;&#9;C64.052666,578.216675 62.944572,577.599365 61.343002,576.597900 &#10;&#9;C60.313843,575.586182 59.813995,574.923523 59.236816,574.336975 &#10;&#9;C54.469246,569.491760 49.557198,564.779480 44.976257,559.764526 &#10;&#9;C43.238796,557.862366 42.254009,555.272766 40.926147,552.996521 &#10;&#9;C40.926151,552.996521 40.997189,552.999939 41.028046,552.611328 &#10;&#9;C40.390633,548.085022 39.142181,543.940674 39.189308,539.811096 &#10;&#9;C39.261005,533.528748 40.230652,527.256592 40.818932,520.980103 &#10;&#9;C40.885838,520.599792 40.952744,520.219543 41.405369,519.398071 &#10;&#9;C43.629490,514.357727 45.467888,509.758514 47.306293,505.159332 &#10;&#9;C47.878174,504.073547 48.450054,502.987762 49.405201,501.397430 &#10;&#9;C53.655380,494.770325 56.887119,488.418304 56.996651,480.938446 &#10;&#9;C56.996651,480.938446 57.003101,481.006470 57.317093,480.946045 &#10;&#9;C60.029491,475.585205 62.427906,470.284851 64.826324,464.984467 &#10;&#9;C64.889557,464.607025 64.952789,464.229584 65.403839,463.411682 &#10;&#9;C67.595032,458.366791 69.398407,453.762329 71.201782,449.157898 &#10;&#9;C71.807343,448.087891 72.412895,447.017853 73.332664,445.506622 &#10;&#9;C73.988556,444.707611 74.330231,444.349823 74.817413,443.635315 &#10;&#9;C76.973465,437.164185 78.984016,431.049744 80.994568,424.935333 &#10;&#9;C80.994560,424.935333 81.000153,425.003387 81.314774,424.949280 &#10;&#9;C84.027122,419.594055 86.424850,414.292969 88.822571,408.991852 &#10;&#9;C88.888771,408.607025 88.954971,408.222168 89.417038,407.396790 &#10;&#9;C91.632820,402.356689 93.452728,397.757141 95.272629,393.157562 &#10;&#9;C95.855911,392.099518 96.439201,391.041504 97.408005,389.468506 &#10;&#9;C100.239891,382.152985 102.686272,375.352386 105.132645,368.551819 &#10;&#9;C105.132645,368.551819 105.100479,368.572998 105.473022,368.475098 &#10;&#9;C107.000923,365.954865 108.156288,363.532501 109.614632,360.959351 &#10;&#9;C110.889198,358.202209 111.860779,355.595886 112.832367,352.989594 &#10;&#9;C112.895699,352.606293 112.959023,352.223022 113.414497,351.397888 &#10;&#9;C115.639877,346.356537 117.473114,341.757019 119.306351,337.157532 &#10;&#9;C119.874771,336.105255 120.443184,335.052948 121.401871,333.492920 &#10;&#9;C124.193161,326.303467 126.594170,319.621796 128.995178,312.940125 &#10;&#9;C128.995178,312.940125 129.001694,313.007538 129.319672,312.948822 &#10;&#9;C132.032974,307.589325 134.428299,302.288574 136.823639,296.987793 &#10;&#9;C136.888977,296.608063 136.954315,296.228302 137.408722,295.410889 &#10;&#9;C140.141891,290.310242 142.485992,285.647247 144.830078,280.984283 &#10;&#9;C144.865631,275.576263 149.053314,273.960236 153.427399,271.677399 &#10;&#9;C157.047256,269.233307 160.197006,267.196930 163.346756,265.160522 &#10;&#9;C165.217010,264.802399 167.087265,264.444244 169.512848,263.656555 &#10;&#9;C177.658020,263.222290 185.247864,263.217560 192.837692,263.212830 &#10;&#9;C194.522095,263.814270 196.206482,264.415649 198.437225,265.400238 &#10;&#9;C202.266006,267.613617 205.548416,269.443848 208.830826,271.274078 &#10;z" transform="matrix(1, 0, 0, 1, 7.105427357601002e-15, 3.552713678800501e-15)"/>
  <path fill="#FCA036" opacity="1.000000" stroke="none" d="&#10;M265.028412,24.835701 &#10;&#9;C267.381592,24.879799 269.734802,24.923895 272.880371,24.891180 &#10;&#9;C276.157562,23.598877 278.700714,22.487452 281.109589,21.136616 &#10;&#9;C283.229218,19.947981 285.198669,18.491508 287.234436,17.153313 &#10;&#9;C287.819702,16.749838 288.404999,16.346367 289.399048,15.510838 &#10;&#9;C292.204987,13.030009 294.602142,10.981240 296.999268,8.932468 &#10;&#9;C296.999268,8.932467 296.998657,9.000083 297.351471,9.025658 &#10;&#9;C298.917175,8.621833 300.128540,8.188019 301.343262,7.763806 &#10;&#9;C306.220062,6.060639 311.097900,4.360454 316.210205,2.545948 &#10;&#9;C316.630035,1.955155 316.815002,1.477577 317.000000,1.000000 &#10;&#9;C326.687561,1.000000 336.375122,1.000000 346.630859,1.353351 &#10;&#9;C347.399872,1.963009 347.559052,2.390604 347.807434,2.450906 &#10;&#9;C357.186859,4.728184 365.563873,8.795246 372.535980,15.654782 &#10;&#9;C373.525543,16.628380 375.532288,16.568136 377.068237,16.986385 &#10;&#9;C377.068237,16.986383 377.002625,16.994921 377.024414,17.311512 &#10;&#9;C379.366974,19.297182 381.687683,20.966261 384.387634,22.760048 &#10;&#9;C387.522430,23.538570 390.278015,24.192385 393.033630,24.846199 &#10;&#9;C395.671661,24.567131 398.309723,24.288065 401.475372,23.577000 &#10;&#9;C413.650146,22.466404 422.422119,15.779403 431.226746,9.160610 &#10;&#9;C432.189362,9.111508 433.151978,9.062407 434.400085,9.411110 &#10;&#9;C432.041016,14.816796 429.396454,19.824682 426.751892,24.832569 &#10;&#9;C426.159729,25.924564 425.567566,27.016556 424.594055,28.604450 &#10;&#9;C421.843964,33.092171 419.475220,37.083988 417.106476,41.075806 &#10;&#9;C417.062805,41.422249 417.019165,41.768696 416.598816,42.535004 &#10;&#9;C413.877533,47.633202 411.532990,52.311531 409.188416,56.989861 &#10;&#9;C406.836304,59.896843 408.430542,62.425472 410.459351,65.380600 &#10;&#9;C418.467468,73.040466 419.719147,71.780060 429.276611,65.153214 &#10;&#9;C430.507568,64.759300 431.738495,64.365387 433.427917,63.567284 &#10;&#9;C438.054169,60.957664 442.342804,58.949257 446.354401,56.489063 &#10;&#9;C450.058777,54.217270 453.466034,51.461025 457.004181,48.918152 &#10;&#9;C457.004181,48.918156 457.000946,48.996887 457.349274,49.005852 &#10;&#9;C459.394897,48.141830 461.016235,47.024101 462.811523,46.466824 &#10;&#9;C464.501648,45.942200 466.375214,46.008492 468.168060,45.814812 &#10;&#9;C467.735413,47.238888 467.679596,48.971760 466.807648,50.035900 &#10;&#9;C461.913177,56.009148 460.610229,63.373516 459.080536,70.508003 &#10;&#9;C458.527924,73.085396 459.990509,76.260872 461.043182,78.965012 &#10;&#9;C461.918457,81.213440 463.540405,83.171204 464.831604,85.257721 &#10;&#9;C465.201935,86.497940 465.572296,87.738167 466.424377,89.385925 &#10;&#9;C468.880707,91.648758 470.855316,93.504051 472.829926,95.359344 &#10;&#9;C473.283386,95.909546 473.736847,96.459747 474.633331,97.397400 &#10;&#9;C479.742157,100.188232 484.408020,102.591614 489.073883,104.994995 &#10;&#9;C489.073883,104.994987 488.996155,105.000542 489.071716,105.304054 &#10;&#9;C494.433075,108.006729 499.718933,110.405884 505.004761,112.805046 &#10;&#9;C505.404053,112.875015 505.803314,112.944984 506.647766,113.403099 &#10;&#9;C513.634277,118.590042 521.262817,120.069885 529.074280,120.991371 &#10;&#9;C529.074280,120.991371 528.999084,120.999229 529.081787,121.323929 &#10;&#9;C537.114441,124.042122 545.064331,126.435623 553.014221,128.829132 &#10;&#9;C553.386230,128.892960 553.758179,128.956787 554.602844,129.425919 &#10;&#9;C561.602966,131.551651 568.111755,133.347916 574.665527,134.961456 &#10;&#9;C578.090637,135.804703 581.594788,136.326706 585.063232,136.993820 &#10;&#9;C585.063232,136.993820 584.995178,137.001007 585.078979,137.346466 &#10;&#9;C585.826355,138.105896 586.438599,138.705032 587.161377,138.905182 &#10;&#9;C594.435669,140.919357 601.728027,142.868103 609.015320,144.835251 &#10;&#9;C610.020325,144.898056 611.025330,144.960846 612.429688,145.477783 &#10;&#9;C611.510742,146.947983 610.323669,148.255173 608.847351,148.920761 &#10;&#9;C605.570923,150.397949 602.149475,151.553436 598.787109,152.840088 &#10;&#9;C597.137939,152.904373 595.488831,152.968628 593.058899,153.122314 &#10;&#9;C587.802979,154.437592 583.283447,155.524445 578.866943,156.934097 &#10;&#9;C575.441833,158.027313 572.145447,159.523804 568.791870,160.841034 &#10;&#9;C566.210632,161.221054 563.629395,161.601089 560.519897,162.422638 &#10;&#9;C555.708984,163.812851 551.386475,164.614532 547.157654,165.761505 &#10;&#9;C544.299805,166.536606 541.573853,167.798096 538.788940,168.842010 &#10;&#9;C538.391235,168.905518 537.993530,168.969025 536.913330,169.053558 &#10;&#9;C533.921936,169.719193 531.551575,170.200592 529.316711,171.041885 &#10;&#9;C524.441772,172.877075 519.635681,174.895386 514.801453,176.838867 &#10;&#9;C514.400146,176.901611 513.998779,176.964371 512.920227,177.049988 &#10;&#9;C508.600433,178.397720 504.783722,179.379105 501.351776,181.119339 &#10;&#9;C494.330627,184.679581 486.175110,186.378555 480.981995,193.065674 &#10;&#9;C480.981995,193.065674 480.985718,192.990616 480.669678,193.043121 &#10;&#9;C475.164429,197.388748 468.926849,200.921402 465.097382,206.200806 &#10;&#9;C461.652618,210.949829 460.470306,217.526672 459.078186,223.481552 &#10;&#9;C458.555908,225.715637 460.000366,228.577713 461.015076,230.954117 &#10;&#9;C461.969360,233.189056 463.538910,235.161301 464.837769,237.249130 &#10;&#9;C465.240082,238.501648 465.642395,239.754181 466.450928,241.464096 &#10;&#9;C467.494995,244.216400 468.132843,246.511322 468.770660,248.806244 &#10;&#9;C467.815979,248.851929 466.861298,248.897598 465.400757,248.571167 &#10;&#9;C463.171661,246.952591 461.556122,245.509445 459.705414,244.495697 &#10;&#9;C453.568024,241.133911 447.346008,237.926727 441.156433,234.660248 &#10;&#9;C440.099213,234.098068 439.042023,233.535889 437.475830,232.593506 &#10;&#9;C433.030884,230.356781 429.094910,228.500259 425.158905,226.643753 &#10;&#9;C424.716370,226.094971 424.273804,225.546188 423.349518,224.584045 &#10;&#9;C418.607056,221.262558 414.289337,223.024719 411.787842,225.976517 &#10;&#9;C409.137695,229.103729 406.146423,233.047928 409.326599,238.259262 &#10;&#9;C414.171356,246.198334 418.348175,254.543793 422.877686,262.678223 &#10;&#9;C423.381012,263.582062 424.333710,264.235657 425.078033,265.005280 &#10;&#9;C425.078033,265.005280 425.002014,265.003052 424.989044,265.351196 &#10;&#9;C427.598846,270.229584 430.221588,274.759796 432.844330,279.290039 &#10;&#9;C433.264679,279.860199 433.685059,280.430328 434.443848,281.428406 &#10;&#9;C434.700378,285.276520 433.326569,285.233368 430.819672,283.598663 &#10;&#9;C429.048584,282.443756 426.908875,281.854156 424.966492,281.009064 &#10;&#9;C424.999237,281.005981 424.998901,281.071838 424.962341,280.721863 &#10;&#9;C423.259552,279.250092 421.593262,278.128296 419.806519,276.843994 &#10;&#9;C419.494232,276.483429 419.265961,276.346008 418.768372,275.987061 &#10;&#9;C410.090912,270.994293 401.129120,268.457581 391.366608,268.944122 &#10;&#9;C384.429077,269.289886 380.259338,271.619873 378.715088,276.139587 &#10;&#9;C377.152161,276.360046 375.916870,276.611206 374.395721,276.970154 &#10;&#9;C373.413086,277.814636 372.716339,278.551331 371.784332,279.401398 &#10;&#9;C371.273743,279.955902 370.998383,280.397064 370.441223,280.906799 &#10;&#9;C369.778748,281.035461 369.398102,281.095551 368.675903,281.172852 &#10;&#9;C364.477478,283.740662 360.620544,286.291229 356.392883,288.911865 &#10;&#9;C355.020630,289.046448 354.019104,289.110931 352.652313,289.193787 &#10;&#9;C347.238586,290.469177 342.217499,292.609039 337.134918,292.766693 &#10;&#9;C330.296875,292.978821 323.389374,291.833984 316.552032,290.956940 &#10;&#9;C308.412720,289.912872 301.175659,286.270691 294.841705,281.354279 &#10;&#9;C288.500427,276.432190 282.640167,270.872345 274.359558,269.557404 &#10;&#9;C266.828033,268.361420 259.320496,268.051147 252.300034,272.921753 &#10;&#9;C250.912308,273.575165 249.874298,274.163605 248.459534,274.791870 &#10;&#9;C241.974457,277.841064 235.866165,280.850464 229.139877,284.164307 &#10;&#9;C230.631256,279.823029 231.813675,276.381134 232.996063,272.939209 &#10;&#9;C232.996063,272.939209 233.003448,273.005890 233.319550,272.970093 &#10;&#9;C234.695251,271.256958 235.754868,269.579559 237.052979,267.765381 &#10;&#9;C237.732559,267.082977 238.173676,266.537415 238.766174,265.631714 &#10;&#9;C239.608582,262.499512 240.299606,259.727356 240.990631,256.955231 &#10;&#9;C240.990631,256.955231 241.004898,257.004333 241.320602,257.234436 &#10;&#9;C245.899704,256.313293 246.228729,252.523605 247.201599,249.165695 &#10;&#9;C247.805817,248.094376 248.410019,247.023071 249.413071,245.465790 &#10;&#9;C256.694214,239.107147 257.561127,227.562515 248.758865,224.957870 &#10;&#9;C246.292633,224.694473 243.826401,224.431076 240.723663,224.518555 &#10;&#9;C235.653366,227.524323 231.219589,230.179214 226.785812,232.834106 &#10;&#9;C226.377945,232.899216 225.970078,232.964325 224.920715,233.140137 &#10;&#9;C219.734299,235.781052 215.189346,238.311264 210.644409,240.841461 &#10;&#9;C210.092407,241.288971 209.540405,241.736496 208.537827,242.531616 &#10;&#9;C204.334457,244.862061 200.581680,246.844894 196.828903,248.827728 &#10;&#9;C195.987442,248.875519 195.145996,248.923294 194.013458,248.600586 &#10;&#9;C194.060944,247.480118 194.399536,246.730148 194.864380,245.825897 &#10;&#9;C194.990631,245.671631 195.141541,245.302597 195.416412,245.161850 &#10;&#9;C195.712463,243.665634 195.733612,242.310181 196.136749,240.937683 &#10;&#9;C198.009964,238.259552 199.501190,235.598450 200.992401,232.937347 &#10;&#9;C200.992401,232.937347 201.004578,233.002914 201.366318,232.909851 &#10;&#9;C202.030258,226.549423 202.360748,220.283035 202.568985,214.012543 &#10;&#9;C202.582428,213.607849 201.653107,213.171860 201.162338,212.750427 &#10;&#9;C200.755829,211.506973 200.349319,210.263535 199.543518,208.564667 &#10;&#9;C197.074371,205.738098 195.004486,203.366943 192.934601,200.995789 &#10;&#9;C192.934616,200.995789 193.004654,200.996201 192.971985,200.682892 &#10;&#9;C190.345352,198.512314 187.751373,196.655014 185.157410,194.797729 &#10;&#9;C184.729477,194.196823 184.301544,193.595917 183.406311,192.605560 &#10;&#9;C178.278427,189.858139 173.617828,187.500168 168.957230,185.142212 &#10;&#9;C168.585312,185.087631 168.213394,185.033066 167.403168,184.594681 &#10;&#9;C162.312088,181.872955 157.659302,179.535034 153.006516,177.197098 &#10;&#9;C151.994385,177.125580 150.982254,177.054062 149.419250,176.589157 &#10;&#9;C142.237564,173.856613 135.606766,171.517456 128.975967,169.178284 &#10;&#9;C127.319679,169.113022 125.663399,169.047760 123.433708,168.578720 &#10;&#9;C117.208214,166.424042 111.583862,164.575241 105.892509,162.962936 &#10;&#9;C102.978714,162.137497 99.945038,161.735260 96.965546,161.141754 &#10;&#9;C96.573448,161.087433 96.181351,161.033112 95.317345,160.572266 &#10;&#9;C87.616028,158.367081 80.386620,156.568420 73.157219,154.769745 &#10;&#9;C70.787209,154.172073 68.417198,153.574417 65.444870,152.578064 &#10;&#9;C61.300709,151.097336 57.742336,150.065216 54.227554,148.901459 &#10;&#9;C53.236214,148.573212 52.372559,147.859344 51.450333,147.322357 &#10;&#9;C52.288696,146.491669 52.987625,145.226807 53.989437,144.905075 &#10;&#9;C58.450111,143.472519 63.041283,142.445435 67.498924,141.004608 &#10;&#9;C70.798683,139.938049 73.965454,138.460022 77.191467,137.165314 &#10;&#9;C78.204399,137.099701 79.217331,137.034088 80.996925,136.958786 &#10;&#9;C87.204430,135.524643 92.680290,134.219040 98.072708,132.630249 &#10;&#9;C101.204552,131.707504 104.202400,130.329987 107.260544,129.157104 &#10;&#9;C108.885368,129.099014 110.510201,129.040909 112.914955,128.901718 &#10;&#9;C115.684746,128.218628 117.707870,127.707870 119.658051,126.997017 &#10;&#9;C124.870483,125.097046 130.051605,123.111176 135.245163,121.159439 &#10;&#9;C135.632324,121.099449 136.019470,121.039452 137.084305,120.964249 &#10;&#9;C140.247452,120.276093 142.840302,119.859528 145.194656,118.873520 &#10;&#9;C149.303329,117.152786 153.265213,115.081535 157.288620,113.157196 &#10;&#9;C158.266464,113.096603 159.244324,113.036003 160.941040,112.907501 &#10;&#9;C166.312454,110.278351 170.964981,107.717110 175.617508,105.155876 &#10;&#9;C175.836639,105.105446 176.055756,105.055016 176.890137,104.954742 &#10;&#9;C177.953705,104.600952 178.402023,104.297012 179.125427,103.774483 &#10;&#9;C184.364639,99.859894 189.789078,96.627319 194.135773,92.309738 &#10;&#9;C197.182419,89.283516 198.758469,84.776764 200.991257,80.931198 &#10;&#9;C200.991257,80.931198 201.003418,80.999786 201.362030,80.902557 &#10;&#9;C202.025955,74.526054 202.359833,68.247742 202.570663,61.965282 &#10;&#9;C202.584335,61.557201 201.652054,61.117374 201.159790,60.692318 &#10;&#9;C200.722778,59.465351 200.285767,58.238384 199.452042,56.556580 &#10;&#9;C198.565521,54.906097 197.964264,53.742397 197.610245,52.507809 &#10;&#9;C196.972717,50.284477 196.483307,48.018681 195.932022,45.770626 &#10;&#9;C198.298416,46.548538 200.682953,47.277317 203.018280,48.139374 &#10;&#9;C203.592575,48.351368 203.934875,49.147045 204.505493,49.420967 &#10;&#9;C208.600510,51.386810 212.726929,53.287239 216.843369,55.208439 &#10;&#9;C217.877914,55.811737 218.912445,56.415035 220.434723,57.413265 &#10;&#9;C224.951233,60.144169 228.980026,62.480141 233.008820,64.816109 &#10;&#9;C233.399750,64.882652 233.790665,64.949196 234.610626,65.415619 &#10;&#9;C238.221863,69.647743 242.602722,71.457344 247.080338,69.918289 &#10;&#9;C253.955338,67.555199 256.996338,63.661777 254.730225,58.098961 &#10;&#9;C251.151810,49.314751 245.629074,41.322598 240.929276,32.995205 &#10;&#9;C240.929276,32.995205 240.998123,33.001888 241.030670,32.656281 &#10;&#9;C238.428909,27.821886 235.794601,23.333099 233.160309,18.844311 &#10;&#9;C233.099991,18.430305 233.039673,18.016304 232.880310,16.964569 &#10;&#9;C231.595505,13.937190 230.409714,11.547544 229.223923,9.157898 &#10;&#9;C230.168991,9.111207 231.114075,9.064515 232.540497,9.409065 &#10;&#9;C237.745682,12.880392 242.200912,16.540443 247.265045,18.885675 &#10;&#9;C252.896835,21.493790 259.083374,22.903992 265.028412,24.835701 &#10;M303.561493,240.426392 &#10;&#9;C304.041748,240.559174 304.521973,240.691956 305.582367,240.970840 &#10;&#9;C305.975067,241.032303 306.367798,241.093765 307.013611,241.810913 &#10;&#9;C311.674438,244.139618 316.335297,246.468323 321.855743,248.959366 &#10;&#9;C328.478027,248.969879 335.102081,249.061310 341.720856,248.914139 &#10;&#9;C342.872528,248.888535 344.001801,247.856125 345.947327,247.182632 &#10;&#9;C349.471863,245.617645 353.717133,244.830383 356.393433,242.350159 &#10;&#9;C366.772675,232.731461 376.680939,222.602493 386.708160,212.606918 &#10;&#9;C392.943268,206.391495 399.113068,200.109283 405.239990,193.787094 &#10;&#9;C407.959534,190.980911 410.186768,187.616455 413.183197,185.175293 &#10;&#9;C421.444122,178.445236 429.152832,171.382538 432.963074,160.255356 &#10;&#9;C433.029083,159.281006 433.095093,158.306656 433.878510,156.915619 &#10;&#9;C434.103485,150.608551 434.352814,144.301987 434.483185,137.992966 &#10;&#9;C434.489838,137.670197 433.475189,137.326309 433.004211,136.998077 &#10;&#9;C433.004211,136.998077 432.994202,137.065720 433.068146,136.236511 &#10;&#9;C432.626770,134.363312 432.326111,132.443283 431.720673,130.624695 &#10;&#9;C428.377045,120.581055 421.125336,113.440590 413.514008,106.642967 &#10;&#9;C412.398163,105.646454 410.494873,105.531670 409.005249,104.994850 &#10;&#9;C409.005249,104.994850 408.991272,105.044189 409.449341,104.376945 &#10;&#9;C407.925873,100.414139 406.182739,96.704552 401.005035,96.995018 &#10;&#9;C401.005035,96.995018 400.990631,97.043144 401.469910,96.383568 &#10;&#9;C400.001434,92.344315 398.149658,88.747795 393.003723,88.996292 &#10;&#9;C393.003723,88.996292 392.988129,89.044662 393.453430,88.385971 &#10;&#9;C393.152679,87.464584 393.117889,86.283142 392.510315,85.661736 &#10;&#9;C385.897339,78.897926 379.238129,72.176979 372.450439,65.589722 &#10;&#9;C371.754395,64.914230 370.143280,65.181671 369.004059,64.996071 &#10;&#9;C369.004059,64.996071 368.988403,65.043320 369.473328,64.392723 &#10;&#9;C368.625214,62.877396 368.095184,61.005360 366.870087,59.912739 &#10;&#9;C362.996216,56.457844 358.862244,53.294582 354.519226,49.546658 &#10;&#9;C353.991730,49.398567 353.464264,49.250481 352.387390,49.011589 &#10;&#9;C352.021881,48.955585 351.656403,48.899578 350.953796,48.200146 &#10;&#9;C343.076782,43.246422 334.252533,42.037098 325.401917,43.289700 &#10;&#9;C321.078888,43.901524 317.116730,47.062813 312.993958,48.996468 &#10;&#9;C312.993958,48.996468 313.067596,48.998940 312.364197,48.981884 &#10;&#9;C311.906281,49.080006 311.448334,49.178127 310.380920,49.255287 &#10;&#9;C309.835144,49.808170 309.289337,50.361050 308.047333,50.951435 &#10;&#9;C307.369934,51.103325 306.692566,51.255211 305.472839,51.531254 &#10;&#9;C304.755920,52.356720 304.039001,53.182186 302.772675,54.436005 &#10;&#9;C290.844574,66.275795 278.887451,78.086494 266.998077,89.965057 &#10;&#9;C258.286926,98.668243 249.664795,107.460510 240.671432,116.385780 &#10;&#9;C240.466064,116.544098 240.331757,116.749008 239.645645,117.356094 &#10;&#9;C237.430862,121.259987 235.216080,125.163887 232.994949,128.994324 &#10;&#9;C232.994949,128.994324 233.068375,128.987732 232.343094,129.160126 &#10;&#9;C226.878860,140.809753 227.888321,152.596710 231.647339,164.422638 &#10;&#9;C231.763260,164.787292 232.436890,164.974670 232.987198,165.941086 &#10;&#9;C233.549026,167.013916 234.110855,168.086761 234.954422,169.799057 &#10;&#9;C236.991714,172.200821 239.028992,174.602570 240.995819,177.001175 &#10;&#9;C240.995819,177.001175 240.999023,176.930710 241.076187,177.609283 &#10;&#9;C243.739426,180.074097 246.402664,182.538895 248.995911,185.004227 &#10;&#9;C248.995911,185.004227 248.996338,184.934219 249.071243,185.613129 &#10;&#9;C251.738434,188.076263 254.405609,190.539413 256.997437,193.002563 &#10;&#9;C256.997437,193.002563 256.997253,192.927185 257.097382,193.599960 &#10;&#9;C259.754974,196.068253 262.412598,198.536545 264.995453,201.004562 &#10;&#9;C264.995453,201.004562 264.995514,200.929840 265.090057,201.604736 &#10;&#9;C267.749634,204.071320 270.409210,206.537903 272.995941,209.004196 &#10;&#9;C272.995941,209.004196 272.996002,208.931381 273.082275,209.608154 &#10;&#9;C275.744781,212.074051 278.407288,214.539932 280.994568,217.005463 &#10;&#9;C280.994568,217.005463 280.994629,216.930283 281.091736,217.604614 &#10;&#9;C283.752045,220.071213 286.412323,222.537827 288.995697,225.004288 &#10;&#9;C288.995697,225.004288 288.995636,224.927353 289.099640,225.599442 &#10;&#9;C291.756622,228.067780 294.413605,230.536133 296.995483,233.005020 &#10;&#9;C296.995483,233.005020 296.994690,232.929932 297.085632,233.604324 &#10;&#9;C299.153107,235.733459 301.220612,237.862610 303.561493,240.426392 &#10;z" transform="matrix(1, 0, 0, 1, 7.105427357601002e-15, 3.552713678800501e-15)"/>
  <path fill="#FCA037" opacity="1.000000" stroke="none" d="&#10;M568.840210,397.236786 &#10;&#9;C568.906250,398.253418 568.972351,399.270020 569.145630,401.003845 &#10;&#9;C569.814026,402.902832 570.341675,404.102081 570.942749,405.263245 &#10;&#9;C572.971375,409.182037 575.026123,413.087341 577.070862,416.997772 &#10;&#9;C577.070862,416.997772 577.004578,416.999542 576.958740,417.351685 &#10;&#9;C578.175293,420.180878 579.437805,422.657928 580.756836,425.516357 &#10;&#9;C582.254578,429.847168 583.477173,433.894379 585.189819,437.722351 &#10;&#9;C587.546875,442.990814 590.274475,448.093445 592.843323,453.267120 &#10;&#9;C593.256714,454.504700 593.670105,455.742279 594.483154,457.472321 &#10;&#9;C596.869934,462.393158 598.857117,466.821503 600.844299,471.249817 &#10;&#9;C600.906250,471.641083 600.968201,472.032349 601.147217,473.066223 &#10;&#9;C601.835510,475.222717 602.252319,476.819092 603.008301,478.234283 &#10;&#9;C604.948975,481.866943 607.040161,485.419159 609.071167,489.003540 &#10;&#9;C609.071167,489.003540 609.002197,489.000153 608.969482,489.361145 &#10;&#9;C611.572205,495.545471 614.207520,501.368805 616.842834,507.192139 &#10;&#9;C617.196960,509.109222 617.551025,511.026337 618.343384,513.429565 &#10;&#9;C619.725525,516.807617 620.621399,519.716370 621.626465,522.586792 &#10;&#9;C622.643433,525.491089 623.768494,528.357666 624.846191,531.240723 &#10;&#9;C624.892029,535.461670 624.937805,539.682678 624.580750,544.514771 &#10;&#9;C622.892273,548.928772 622.174927,553.066528 620.180176,556.451599 &#10;&#9;C617.562195,560.894165 613.937317,564.743469 610.745544,568.847900 &#10;&#9;C610.165588,569.255127 609.585632,569.662354 608.597229,570.494751 &#10;&#9;C605.792542,572.964905 603.396301,575.009949 601.000061,577.054932 &#10;&#9;C601.000061,577.054932 601.001099,576.991333 600.637329,576.955200 &#10;&#9;C594.083923,578.289429 587.908325,580.765015 581.702393,580.843567 &#10;&#9;C550.625793,581.237244 519.539795,580.835815 488.460541,581.110168 &#10;&#9;C480.944855,581.176514 474.562927,578.321167 472.003479,572.275269 &#10;&#9;C469.597290,566.591370 469.337738,559.345215 473.474487,553.102905 &#10;&#9;C478.644135,548.076538 484.476471,546.862061 491.327850,546.935791 &#10;&#9;C520.532349,547.250061 549.742493,547.123718 578.949585,546.967957 &#10;&#9;C581.011230,546.956909 583.064636,545.407104 585.088928,544.575684 &#10;&#9;C585.055969,544.578552 585.108582,544.618713 585.490234,544.562622 &#10;&#9;C592.583923,539.384521 592.345642,532.865234 585.082275,524.423889 &#10;&#9;C584.945496,523.030396 584.877991,522.013672 584.800537,520.647461 &#10;&#9;C582.244263,515.734375 579.697815,511.170868 577.088318,506.348022 &#10;&#9;C576.971497,505.737885 576.917786,505.387085 576.914124,504.654694 &#10;&#9;C574.951904,499.142517 573.139404,493.921906 570.878418,488.903381 &#10;&#9;C567.819336,482.113129 564.415955,475.477997 561.089478,468.426422 &#10;&#9;C560.447266,466.999054 559.875854,465.921539 559.241089,464.460388 &#10;&#9;C557.170349,459.633636 555.162842,455.190552 553.085999,450.466248 &#10;&#9;C552.961670,449.803711 552.906616,449.422333 552.832031,448.685608 &#10;&#9;C552.180969,446.990814 551.593628,445.628418 550.909668,444.316315 &#10;&#9;C548.937256,440.532166 546.925842,436.768372 544.964355,432.997620 &#10;&#9;C544.998840,432.998718 544.993164,433.067535 545.030029,432.652405 &#10;&#9;C542.591187,426.484802 540.115479,420.732300 537.577026,414.829529 &#10;&#9;C537.390320,414.490814 537.221985,414.359131 536.986084,413.885986 &#10;&#9;C534.360718,407.936157 531.758423,402.384644 529.086548,396.454163 &#10;&#9;C528.952332,395.052338 528.887634,394.029510 528.808105,392.656311 &#10;&#9;C528.149597,390.977325 527.536499,389.632904 526.856689,388.323059 &#10;&#9;C524.893555,384.540558 522.903625,380.771973 520.959595,376.998535 &#10;&#9;C520.995056,376.999176 520.993408,377.070007 521.021973,376.683075 &#10;&#9;C519.021179,371.328674 517.135071,366.296539 514.928223,361.409241 &#10;&#9;C511.800446,354.482391 508.436127,347.662323 505.100922,340.443970 &#10;&#9;C504.449066,339.007385 503.869171,337.923492 503.231506,336.455322 &#10;&#9;C501.170135,331.637329 499.166534,327.203613 497.092896,322.479431 &#10;&#9;C496.961243,321.796661 496.899658,321.404327 496.817566,320.658936 &#10;&#9;C495.462799,316.979004 494.297546,313.569794 492.731171,310.356110 &#10;&#9;C491.784271,308.413391 490.215088,306.774017 488.960510,304.999451 &#10;&#9;C488.995514,305.000549 488.991486,305.070496 489.024170,304.688721 &#10;&#9;C487.823486,302.549255 486.974365,300.138214 485.289856,299.147552 &#10;&#9;C478.199799,294.977875 472.989258,296.722015 466.383636,304.910278 &#10;&#9;C465.670715,305.574463 465.250946,306.160034 464.517944,306.872925 &#10;&#9;C462.363312,308.947174 460.521912,310.894135 458.391785,312.920410 &#10;&#9;C457.681885,313.572266 457.260742,314.144836 456.520966,314.875916 &#10;&#9;C454.389160,316.970459 452.576019,318.906494 450.478760,320.911011 &#10;&#9;C449.809479,321.032501 449.424286,321.085480 448.701294,321.151520 &#10;&#9;C445.909088,323.799286 443.454681,326.433960 440.999695,329.033936 &#10;&#9;C440.999146,328.999207 441.068634,329.000153 440.723999,329.028259 &#10;&#9;C437.918365,331.728241 435.457367,334.400116 432.995026,337.032318 &#10;&#9;C432.993683,336.992645 433.073029,336.989716 432.728485,337.057343 &#10;&#9;C430.262207,338.518463 428.140472,339.911957 425.731201,341.416992 &#10;&#9;C424.519775,342.644806 423.595886,343.761108 422.397888,344.980347 &#10;&#9;C421.744720,345.514221 421.365723,345.945190 420.844055,346.431244 &#10;&#9;C420.522583,346.606689 420.412689,346.772675 420.033142,347.146210 &#10;&#9;C418.796722,349.218811 417.898865,351.129486 416.995667,353.014984 &#10;&#9;C416.990326,352.989777 417.040741,353.000488 416.687164,352.775146 &#10;&#9;C415.562531,352.818542 414.791473,353.087280 413.762909,353.442688 &#10;&#9;C413.033234,354.077301 412.561066,354.625214 411.726868,355.113953 &#10;&#9;C410.619720,354.727875 409.713989,354.572510 409.153748,354.048065 &#10;&#9;C401.662262,347.035614 394.219055,339.971527 386.358551,332.536865 &#10;&#9;C389.847839,328.718140 392.426483,325.896027 395.340942,323.010315 &#10;&#9;C402.214447,317.016357 408.752106,311.086029 415.572174,305.082275 &#10;&#9;C416.287811,304.470978 416.720978,303.933136 417.475464,303.261780 &#10;&#9;C419.649872,301.136536 421.502991,299.144775 423.667236,297.070984 &#10;&#9;C424.355255,296.799164 424.732117,296.609406 425.346985,296.247192 &#10;&#9;C429.360504,292.785370 433.222809,289.588470 436.871643,286.164032 &#10;&#9;C438.472717,284.661438 439.638336,282.694855 441.001648,280.938965 &#10;&#9;C441.001678,280.938965 441.003174,281.006439 441.311584,280.977539 &#10;&#9;C444.080322,278.275909 446.540680,275.603210 449.001038,272.930542 &#10;&#9;C449.001038,272.930511 449.001495,273.001740 449.315918,272.955353 &#10;&#9;C453.081421,270.818085 456.532440,268.727173 460.224915,266.547791 &#10;&#9;C460.735565,266.025024 461.004791,265.590790 461.274017,265.156525 &#10;&#9;C462.252960,265.097015 463.231934,265.037506 464.956116,264.881409 &#10;&#9;C467.861542,264.191193 470.050873,263.004395 472.176880,263.108643 &#10;&#9;C480.486847,263.515900 488.776794,264.331421 497.074188,264.995178 &#10;&#9;C497.074188,264.995178 496.998749,265.000305 497.065063,265.307373 &#10;&#9;C501.433044,268.829712 506.138397,271.635406 509.927887,275.370361 &#10;&#9;C514.084412,279.467072 517.396301,284.420685 521.076294,289.000885 &#10;&#9;C521.076294,289.000885 521.006653,289.000122 520.965454,289.356689 &#10;&#9;C523.975647,296.918854 526.937744,304.164093 530.110229,311.316010 &#10;&#9;C532.195129,316.016266 534.583557,320.581879 536.836060,325.207794 &#10;&#9;C537.268677,326.467560 537.701355,327.727356 538.528564,329.460999 &#10;&#9;C540.898010,334.388336 542.872925,338.841766 544.847778,343.295197 &#10;&#9;C544.906738,343.666260 544.965637,344.037323 545.108276,345.050110 &#10;&#9;C545.797546,347.372559 546.206787,349.159821 547.048706,350.712463 &#10;&#9;C548.942566,354.204987 551.051025,357.581207 553.072083,361.004761 &#10;&#9;C553.072083,361.004761 553.002502,360.999573 552.971436,361.360291 &#10;&#9;C555.574951,367.576385 558.209595,373.431763 560.844238,379.287140 &#10;&#9;C561.203613,381.174438 561.563049,383.061737 562.351379,385.424500 &#10;&#9;C564.800293,389.678925 566.820251,393.457855 568.840210,397.236786 &#10;z" transform="matrix(1, 0, 0, 1, 7.105427357601002e-15, 3.552713678800501e-15)"/>
</svg>