<svg version="1.1" id="Layer_1" xmlns="http://www.w3.org/2000/svg" xmlns:xlink="http://www.w3.org/1999/xlink" x="0px" y="0px"
	 width="100%" viewBox="0 0 410 450" enable-background="new 0 0 410 450" xml:space="preserve">
<path fill="#000000" opacity="1.000000" stroke="none" 
	d="
M154.000000,451.000000 
	C153.250000,451.000000 152.500000,451.000000 151.375000,450.553955 
	C150.286514,441.812012 149.573013,433.516144 148.846039,425.063416 
	C154.981155,425.339203 157.926727,422.750854 159.284943,417.431458 
	C161.207245,409.902924 163.757339,402.536835 165.917694,395.066193 
	C167.235703,390.508423 165.174866,388.023682 160.185806,388.010040 
	C148.853851,387.979034 137.520096,388.107086 126.190750,387.931915 
	C122.994682,387.882538 121.702187,388.853577 120.838028,392.046417 
	C117.786247,403.321991 114.241982,414.463135 111.001755,425.689117 
	C108.574333,434.099091 106.327339,442.561127 104.000000,451.000000 
	C103.250000,451.000000 102.500000,451.000000 101.374924,450.531342 
	C100.666527,434.141144 100.386307,418.218231 99.967056,402.298950 
	C99.843506,397.607391 99.326683,392.926239 98.972839,388.000244 
	C95.210335,388.000244 92.033974,388.282196 88.929268,387.930908 
	C84.783768,387.461853 82.686333,389.311676 80.942993,392.867096 
	C77.502533,399.883759 73.611588,406.678955 69.930519,413.578369 
	C63.277870,426.047363 56.642544,438.525604 49.999992,451.000000 
	C49.250000,451.000000 48.500000,451.000000 47.374977,450.545776 
	C46.366379,441.810913 45.732803,433.530334 45.215935,426.774994 
	C48.773750,424.493561 52.855015,423.375183 53.695744,421.073242 
	C57.015480,411.983856 59.464809,402.561554 61.924934,393.180878 
	C62.875603,389.555878 61.246319,387.815125 57.094509,387.913818 
	C46.295506,388.170502 35.475929,388.278656 24.685892,387.875397 
	C19.736681,387.690430 18.078588,389.341003 16.834688,394.085510 
	C12.606324,410.213470 7.706227,426.165955 2.973945,442.159180 
	C2.754028,442.902405 1.677549,443.392181 0.999998,444.000000 
	C1.000000,375.979095 1.000000,307.958221 1.225505,239.127914 
	C2.330047,239.074249 3.378303,239.701889 4.062200,240.605331 
	C11.749419,250.760223 19.368244,260.966827 27.031521,271.139923 
	C31.587021,277.187378 36.188774,283.200012 41.042728,289.587524 
	C44.182587,279.421265 47.037895,270.003143 50.000523,260.618866 
	C56.796005,239.093719 63.850761,217.646805 70.296783,196.018066 
	C71.594536,191.663651 73.434891,190.901657 77.397118,190.924225 
	C103.229279,191.071426 129.062881,190.953720 154.895416,191.063660 
	C157.821686,191.076111 159.226913,190.323425 160.097061,187.364090 
	C162.891937,177.858902 166.030945,168.454758 169.049515,159.015564 
	C170.686356,153.897095 172.348236,148.786636 173.997025,143.678055 
	C144.648605,143.678055 115.960442,143.678055 87.152626,143.678055 
	C92.957619,124.996384 98.678749,106.571190 104.408760,88.148766 
	C108.602974,74.664040 112.739357,61.160202 117.129189,47.739357 
	C117.519859,46.544968 119.588989,45.120686 120.884361,45.114975 
	C153.711563,44.970173 186.539536,45.000950 219.680603,45.000950 
	C212.164032,67.946609 204.747528,90.640923 197.294662,113.323288 
	C189.232864,137.858948 181.178604,162.397293 173.005493,186.895920 
	C171.943024,190.080658 172.539536,192.126053 174.919296,194.574722 
	C180.894211,200.722672 186.496674,207.237640 192.152222,213.689835 
	C203.435898,226.562973 214.609879,239.532394 225.915741,252.385895 
	C234.304626,261.923126 242.885376,271.291504 251.281326,280.822632 
	C262.825500,293.927673 274.247955,307.139893 285.777893,320.257538 
	C291.668243,326.958954 297.761993,333.482361 303.616699,340.214172 
	C312.826874,350.804138 321.912903,361.502167 331.637482,372.837463 
	C332.498016,370.247620 333.113495,368.495422 333.664185,366.723053 
	C343.257080,335.849030 352.816101,304.964447 362.436188,274.098907 
	C371.615601,244.647034 380.835815,215.207825 390.078278,185.775665 
	C396.306427,165.942474 402.587677,146.125839 408.925018,126.327332 
	C409.214539,125.422836 410.290375,124.770027 411.000000,124.000000 
	C411.000000,211.687561 411.000000,299.375122 410.570679,387.745117 
	C390.539612,388.427551 370.937866,388.427551 351.071808,388.427551 
	C345.733856,409.209869 340.366943,430.104919 335.000000,451.000000 
	C333.611115,451.000000 332.222198,451.000000 330.072021,450.752441 
	C330.874786,446.958405 332.886017,443.537659 333.924500,439.843475 
	C338.136292,424.860107 342.003510,409.780273 346.099274,394.763702 
	C347.389496,390.033173 346.106842,388.030945 341.226868,388.011383 
	C331.905548,387.973938 322.578339,388.194427 313.264832,387.922577 
	C308.240234,387.775909 306.156921,390.519073 305.023407,394.660797 
	C301.172272,408.732452 297.313538,422.802704 293.595673,436.909851 
	C292.386414,441.498352 289.727325,445.991241 292.000000,451.000000 
	C287.310760,451.000000 282.621490,451.000000 277.155640,450.676086 
	C280.729218,434.279358 285.079437,418.206543 289.484192,401.932373 
	C293.667755,401.932373 297.629456,401.932373 301.735321,401.932373 
	C302.932953,397.089905 304.073029,392.480011 305.181030,387.999969 
	C296.098480,387.999969 287.681610,387.999969 279.264740,387.999969 
	C265.571198,387.999969 265.571198,387.999969 262.136047,402.130432 
	C266.127289,402.130432 269.995270,402.130432 274.311676,402.130432 
	C273.087463,406.504425 272.018127,410.225525 271.005249,413.961975 
	C267.659210,426.305023 264.333527,438.653564 261.000000,451.000000 
	C260.555542,451.000000 260.111115,451.000000 259.333221,450.542480 
	C258.666473,443.001373 258.248413,435.920532 258.018066,428.833588 
	C257.587952,415.599518 257.269745,402.361816 256.880310,389.126373 
	C256.872253,388.852936 256.563904,388.588318 256.197327,388.002808 
	C252.091537,388.002808 247.780975,387.816162 243.504654,388.116730 
	C242.224274,388.206696 240.521652,389.373047 239.888031,390.526978 
	C228.844299,410.640137 217.937012,430.828247 207.000000,451.000000 
	C201.645065,451.000000 196.290146,451.000000 190.473358,450.632568 
	C192.360443,446.078400 194.709366,441.891724 197.493301,436.929688 
	C188.877502,436.929688 181.049362,436.929688 172.868896,436.929688 
	C174.145813,432.607330 175.235962,428.917145 176.393219,424.999817 
	C179.499603,424.999817 182.481339,424.999908 185.463074,424.999847 
	C196.077682,424.999634 196.078568,424.999847 198.808701,414.920380 
	C198.847473,414.777283 198.749695,414.597137 198.594940,413.857178 
	C192.218018,413.857178 185.709763,413.857178 178.891800,413.857178 
	C180.154510,409.539948 181.235474,405.844147 182.357910,402.006531 
	C189.257187,402.006531 195.893799,402.006531 202.378540,402.006531 
	C205.302689,397.012421 208.086105,392.258606 210.855286,387.529144 
	C208.122971,387.699554 205.716644,387.966034 203.308929,387.979156 
	C193.992172,388.029999 184.673248,388.101166 175.358917,387.942627 
	C172.313843,387.890839 170.607880,388.541687 169.874405,391.877655 
	C168.519073,398.041809 166.642792,404.091125 164.996735,410.191803 
	C161.326874,423.793396 157.665085,437.397125 154.000000,451.000000 
z"/>
<path fill="#B04EC4" opacity="1.000000" stroke="none" 
	d="
M411.000000,123.562500 
	C410.290375,124.770027 409.214539,125.422836 408.925018,126.327332 
	C402.587677,146.125839 396.306427,165.942474 390.078278,185.775665 
	C380.835815,215.207825 371.615601,244.647034 362.436188,274.098907 
	C352.816101,304.964447 343.257080,335.849030 333.664185,366.723053 
	C333.113495,368.495422 332.498016,370.247620 331.637482,372.837463 
	C321.912903,361.502167 312.826874,350.804138 303.616699,340.214172 
	C297.761993,333.482361 291.668243,326.958954 285.777893,320.257538 
	C274.247955,307.139893 262.825500,293.927673 251.281326,280.822632 
	C242.885376,271.291504 234.304626,261.923126 225.915741,252.385895 
	C214.609879,239.532394 203.435898,226.562973 192.152222,213.689835 
	C186.496674,207.237640 180.894211,200.722672 174.919296,194.574722 
	C172.539536,192.126053 171.943024,190.080658 173.005493,186.895920 
	C181.178604,162.397293 189.232864,137.858948 197.294662,113.323288 
	C204.747528,90.640923 212.164032,67.946609 219.680603,45.000950 
	C186.539536,45.000950 153.711563,44.970173 120.884361,45.114975 
	C119.588989,45.120686 117.519859,46.544968 117.129189,47.739357 
	C112.739357,61.160202 108.602974,74.664040 104.408760,88.148766 
	C98.678749,106.571190 92.957619,124.996384 87.152626,143.678055 
	C115.960442,143.678055 144.648605,143.678055 173.997025,143.678055 
	C172.348236,148.786636 170.686356,153.897095 169.049515,159.015564 
	C166.030945,168.454758 162.891937,177.858902 160.097061,187.364090 
	C159.226913,190.323425 157.821686,191.076111 154.895416,191.063660 
	C129.062881,190.953720 103.229279,191.071426 77.397118,190.924225 
	C73.434891,190.901657 71.594536,191.663651 70.296783,196.018066 
	C63.850761,217.646805 56.796005,239.093719 50.000523,260.618866 
	C47.037895,270.003143 44.182587,279.421265 41.042728,289.587524 
	C36.188774,283.200012 31.587021,277.187378 27.031521,271.139923 
	C19.368244,260.966827 11.749419,250.760223 4.062200,240.605331 
	C3.378303,239.701889 2.330047,239.074249 1.225505,238.659256 
	C1.000000,237.285645 1.000000,235.571289 1.281318,233.769577 
	C2.049369,232.883072 2.725216,232.142334 2.992942,231.275543 
	C5.146288,224.303711 7.160781,217.288788 9.334593,210.323517 
	C15.227377,191.442032 21.146610,172.568680 27.111900,153.709976 
	C39.196350,115.506142 51.355495,77.325897 63.403412,39.110569 
	C67.395775,26.447033 71.141510,13.705742 75.000000,1.000001 
	C144.020889,1.000000 213.041794,1.000000 282.521912,1.387842 
	C276.650696,21.718433 270.354736,41.672234 263.979309,61.600594 
	C258.441742,78.909843 252.740677,96.167023 247.254776,113.492462 
	C244.086334,123.498978 241.200897,133.595123 238.083420,144.000305 
	C248.865295,144.000305 259.344727,144.000320 269.824127,144.000305 
	C296.468506,144.000275 323.113159,144.043915 349.756744,143.900192 
	C351.498413,143.890808 354.403503,142.824081 354.794891,141.612152 
	C361.075287,122.165024 367.006592,102.605461 373.095917,83.096024 
	C374.069000,79.978432 375.423309,76.979820 376.564056,74.022903 
	C379.576050,77.869919 382.316254,81.255707 384.933441,84.734055 
	C392.579590,94.895996 400.146393,105.117867 407.845917,115.238914 
	C408.514221,116.117363 409.930939,116.426445 411.000000,117.000000 
	C411.000000,119.041664 411.000000,121.083336 411.000000,123.562500 
M323.496826,188.999283 
	C291.162994,188.999283 258.829163,188.999283 225.827179,188.999283 
	C254.203308,221.323959 281.877991,252.849594 309.810760,284.669250 
	C319.863098,252.800171 329.865997,221.087906 339.883362,189.329620 
	C339.132111,189.171829 338.808746,189.046249 338.484741,189.044525 
	C333.821350,189.019669 329.157806,189.011475 323.496826,188.999283 
z"/>
<path fill="#000000" opacity="1.000000" stroke="none" 
	d="
M411.000000,116.531342 
	C409.930939,116.426445 408.514221,116.117363 407.845917,115.238914 
	C400.146393,105.117867 392.579590,94.895996 384.933441,84.734055 
	C382.316254,81.255707 379.576050,77.869919 376.564056,74.022903 
	C375.423309,76.979820 374.069000,79.978432 373.095917,83.096024 
	C367.006592,102.605461 361.075287,122.165024 354.794891,141.612152 
	C354.403503,142.824081 351.498413,143.890808 349.756744,143.900192 
	C323.113159,144.043915 296.468506,144.000275 269.824127,144.000305 
	C259.344727,144.000320 248.865295,144.000305 238.083420,144.000305 
	C241.200897,133.595123 244.086334,123.498978 247.254776,113.492462 
	C252.740677,96.167023 258.441742,78.909843 263.979309,61.600594 
	C270.354736,41.672234 276.650696,21.718433 282.990601,1.387842 
	C325.590027,1.000000 368.180084,1.000000 411.000000,1.000000 
	C411.000000,39.353920 411.000000,77.708305 411.000000,116.531342 
z"/>
<path fill="#000000" opacity="1.000000" stroke="none" 
	d="
M74.531342,1.000001 
	C71.141510,13.705742 67.395775,26.447033 63.403412,39.110569 
	C51.355495,77.325897 39.196350,115.506142 27.111900,153.709976 
	C21.146610,172.568680 15.227377,191.442032 9.334593,210.323517 
	C7.160781,217.288788 5.146288,224.303711 2.992942,231.275543 
	C2.725216,232.142334 2.049369,232.883072 1.281318,233.341110 
	C1.000000,155.777359 1.000000,78.554703 1.000000,1.000000 
	C25.353222,1.000000 49.707951,1.000000 74.531342,1.000001 
z"/>
<path fill="#B04EC4" opacity="1.000000" stroke="none" 
	d="
M335.466125,451.000000 
	C340.366943,430.104919 345.733856,409.209869 351.071808,388.427551 
	C370.937866,388.427551 390.539612,388.427551 410.570679,388.213776 
	C411.000000,392.024536 411.000000,396.049103 410.699005,400.197052 
	C409.457062,403.170166 408.346130,405.976379 407.604004,408.876923 
	C404.014954,422.904022 400.525055,436.956512 397.000000,451.000000 
	C392.310760,451.000000 387.621490,451.000000 382.473145,450.607208 
	C386.334747,434.285706 390.655426,418.357025 395.092255,402.000092 
	C393.013916,402.000092 391.361267,402.086761 389.721039,401.980865 
	C386.882721,401.797668 385.593536,402.461945 384.791901,405.819031 
	C381.177643,420.954865 376.984497,435.952545 373.000000,451.000000 
	C368.643097,451.000000 364.286194,451.000000 359.464844,450.584229 
	C361.204773,441.378510 363.387360,432.583038 365.620392,423.800385 
	C367.430634,416.680786 369.301544,409.576630 371.169952,402.371429 
	C361.862671,401.531769 361.887146,401.537567 360.012054,409.438049 
	C358.964966,413.849731 357.784119,418.229584 356.727325,422.639038 
	C354.462921,432.087463 352.239960,441.545746 350.000000,451.000000 
	C345.310760,451.000000 340.621490,451.000000 335.466125,451.000000 
z"/>
<path fill="#B04EC4" opacity="1.000000" stroke="none" 
	d="
M104.467606,451.000000 
	C106.327339,442.561127 108.574333,434.099091 111.001755,425.689117 
	C114.241982,414.463135 117.786247,403.321991 120.838028,392.046417 
	C121.702187,388.853577 122.994682,387.882538 126.190750,387.931915 
	C137.520096,388.107086 148.853851,387.979034 160.185806,388.010040 
	C165.174866,388.023682 167.235703,390.508423 165.917694,395.066193 
	C163.757339,402.536835 161.207245,409.902924 159.284943,417.431458 
	C157.926727,422.750854 154.981155,425.339203 148.846039,425.063416 
	C149.573013,433.516144 150.286514,441.812012 151.000000,450.553955 
	C145.977905,451.000000 140.955811,451.000000 135.688751,450.579346 
	C134.271103,438.088623 133.098419,426.018616 132.387787,413.970123 
	C143.442657,414.019928 143.442657,414.019928 146.212372,402.002411 
	C143.351227,402.002411 140.499664,401.795593 137.704193,402.101593 
	C136.544312,402.228546 134.864670,403.232361 134.527557,404.216370 
	C133.432251,407.413544 132.848419,410.785919 131.689026,414.199707 
	C127.873604,426.539032 124.436806,438.769531 121.000000,451.000000 
	C115.645073,451.000000 110.290138,451.000000 104.467606,451.000000 
z"/>
<path fill="#B04EC4" opacity="1.000000" stroke="none" 
	d="
M0.999998,444.497925 
	C1.677549,443.392181 2.754028,442.902405 2.973945,442.159180 
	C7.706227,426.165955 12.606324,410.213470 16.834688,394.085510 
	C18.078588,389.341003 19.736681,387.690430 24.685892,387.875397 
	C35.475929,388.278656 46.295506,388.170502 57.094509,387.913818 
	C61.246319,387.815125 62.875603,389.555878 61.924934,393.180878 
	C59.464809,402.561554 57.015480,411.983856 53.695744,421.073242 
	C52.855015,423.375183 48.773750,424.493561 45.215935,426.774994 
	C45.732803,433.530334 46.366379,441.810913 46.999977,450.545776 
	C42.310745,451.000000 37.621487,451.000000 32.466003,450.549896 
	C30.959066,438.220032 29.918360,426.340271 28.835215,413.976074 
	C32.923431,413.976074 36.355381,413.976074 39.567760,413.976074 
	C40.660820,409.767303 41.633633,406.021545 42.678032,402.000122 
	C40.418087,402.000122 38.387772,402.252899 36.445930,401.945984 
	C32.736847,401.359650 31.126268,403.116821 30.212608,406.431244 
	C28.013720,414.407959 25.556561,422.313507 23.356792,430.289978 
	C21.461319,437.163025 19.777435,444.094421 18.000004,451.000000 
	C12.452892,451.000000 6.905785,451.000000 1.000000,451.000000 
	C1.000000,449.012848 1.000000,447.004333 0.999998,444.497925 
z"/>
<path fill="#B04EC4" opacity="1.000000" stroke="none" 
	d="
M292.468658,451.000000 
	C289.727325,445.991241 292.386414,441.498352 293.595673,436.909851 
	C297.313538,422.802704 301.172272,408.732452 305.023407,394.660797 
	C306.156921,390.519073 308.240234,387.775909 313.264832,387.922577 
	C322.578339,388.194427 331.905548,387.973938 341.226868,388.011383 
	C346.106842,388.030945 347.389496,390.033173 346.099274,394.763702 
	C342.003510,409.780273 338.136292,424.860107 333.924500,439.843475 
	C332.886017,443.537659 330.874786,446.958405 329.655365,450.752441 
	C317.645782,451.000000 305.291534,451.000000 292.468658,451.000000 
M319.391510,436.035461 
	C322.454651,424.776764 325.517792,413.518066 328.651276,402.000763 
	C326.063965,402.000763 324.064423,402.115387 322.083466,401.972321 
	C319.489838,401.785095 318.425995,402.755096 317.745422,405.409546 
	C315.065735,415.861267 312.028290,426.221191 308.988037,437.100311 
	C312.545288,436.942657 315.668182,436.804260 319.391510,436.035461 
z"/>
<path fill="#B04EC4" opacity="1.000000" stroke="none" 
	d="
M207.466858,451.000000 
	C217.937012,430.828247 228.844299,410.640137 239.888031,390.526978 
	C240.521652,389.373047 242.224274,388.206696 243.504654,388.116730 
	C247.780975,387.816162 252.091537,388.002808 256.197327,388.002808 
	C256.563904,388.588318 256.872253,388.852936 256.880310,389.126373 
	C257.269745,402.361816 257.587952,415.599518 258.018066,428.833588 
	C258.248413,435.920532 258.666473,443.001373 258.999878,450.542480 
	C249.312439,451.000000 239.624878,451.000000 229.469696,450.592407 
	C230.095001,445.835297 231.187912,441.485779 232.374893,436.761810 
	C236.055222,436.761810 239.462784,436.761810 242.881393,436.761810 
	C242.453873,429.827942 242.055878,423.373047 241.595367,415.904144 
	C235.094986,428.172638 229.047501,439.586334 223.000000,451.000000 
	C217.977905,451.000000 212.955811,451.000000 207.466858,451.000000 
z"/>
<path fill="#B04EC4" opacity="1.000000" stroke="none" 
	d="
M50.466858,451.000000 
	C56.642544,438.525604 63.277870,426.047363 69.930519,413.578369 
	C73.611588,406.678955 77.502533,399.883759 80.942993,392.867096 
	C82.686333,389.311676 84.783768,387.461853 88.929268,387.930908 
	C92.033974,388.282196 95.210335,388.000244 98.972839,388.000244 
	C99.326683,392.926239 99.843506,397.607391 99.967056,402.298950 
	C100.386307,418.218231 100.666527,434.141144 100.999924,450.531342 
	C91.312439,451.000000 81.624878,451.000000 71.590591,450.633606 
	C71.512909,449.179230 71.778084,448.090302 72.051590,447.003448 
	C74.506432,437.248260 74.506996,437.251984 83.766830,436.899170 
	C84.048126,436.888458 84.319733,436.623413 84.598091,436.473389 
	C84.600327,429.847137 84.600327,423.224457 84.600327,415.353210 
	C81.586472,420.898499 79.120758,425.266327 76.814697,429.716827 
	C73.153740,436.782196 69.599434,443.902771 66.000000,451.000000 
	C60.977909,451.000000 55.955814,451.000000 50.466858,451.000000 
z"/>
<path fill="#B04EC4" opacity="1.000000" stroke="none" 
	d="
M154.468658,451.000000 
	C157.665085,437.397125 161.326874,423.793396 164.996735,410.191803 
	C166.642792,404.091125 168.519073,398.041809 169.874405,391.877655 
	C170.607880,388.541687 172.313843,387.890839 175.358917,387.942627 
	C184.673248,388.101166 193.992172,388.029999 203.308929,387.979156 
	C205.716644,387.966034 208.122971,387.699554 210.855286,387.529144 
	C208.086105,392.258606 205.302689,397.012421 202.378540,402.006531 
	C195.893799,402.006531 189.257187,402.006531 182.357910,402.006531 
	C181.235474,405.844147 180.154510,409.539948 178.891800,413.857178 
	C185.709763,413.857178 192.218018,413.857178 198.594940,413.857178 
	C198.749695,414.597137 198.847473,414.777283 198.808701,414.920380 
	C196.078568,424.999847 196.077682,424.999634 185.463074,424.999847 
	C182.481339,424.999908 179.499603,424.999817 176.393219,424.999817 
	C175.235962,428.917145 174.145813,432.607330 172.868896,436.929688 
	C181.049362,436.929688 188.877502,436.929688 197.493301,436.929688 
	C194.709366,441.891724 192.360443,446.078400 190.005768,450.632568 
	C178.312439,451.000000 166.624878,451.000000 154.468658,451.000000 
z"/>
<path fill="#B04EC4" opacity="1.000000" stroke="none" 
	d="
M261.466858,451.000000 
	C264.333527,438.653564 267.659210,426.305023 271.005249,413.961975 
	C272.018127,410.225525 273.087463,406.504425 274.311676,402.130432 
	C269.995270,402.130432 266.127289,402.130432 262.136047,402.130432 
	C265.571198,387.999969 265.571198,387.999969 279.264740,387.999969 
	C287.681610,387.999969 296.098480,387.999969 305.181030,387.999969 
	C304.073029,392.480011 302.932953,397.089905 301.735321,401.932373 
	C297.629456,401.932373 293.667755,401.932373 289.484192,401.932373 
	C285.079437,418.206543 280.729218,434.279358 276.689514,450.676086 
	C271.977905,451.000000 266.955811,451.000000 261.466858,451.000000 
z"/>
<path fill="#000000" opacity="1.000000" stroke="none" 
	d="
M350.450012,451.000000 
	C352.239960,441.545746 354.462921,432.087463 356.727325,422.639038 
	C357.784119,418.229584 358.964966,413.849731 360.012054,409.438049 
	C361.887146,401.537567 361.862671,401.531769 371.169952,402.371429 
	C369.301544,409.576630 367.430634,416.680786 365.620392,423.800385 
	C363.387360,432.583038 361.204773,441.378510 359.000183,450.584229 
	C356.299988,451.000000 353.599976,451.000000 350.450012,451.000000 
z"/>
<path fill="#000000" opacity="1.000000" stroke="none" 
	d="
M373.449982,451.000000 
	C376.984497,435.952545 381.177643,420.954865 384.791901,405.819031 
	C385.593536,402.461945 386.882721,401.797668 389.721039,401.980865 
	C391.361267,402.086761 393.013916,402.000092 395.092255,402.000092 
	C390.655426,418.357025 386.334747,434.285706 382.007019,450.607208 
	C379.299988,451.000000 376.599976,451.000000 373.449982,451.000000 
z"/>
<path fill="#000000" opacity="1.000000" stroke="none" 
	d="
M18.464655,451.000000 
	C19.777435,444.094421 21.461319,437.163025 23.356792,430.289978 
	C25.556561,422.313507 28.013720,414.407959 30.212608,406.431244 
	C31.126268,403.116821 32.736847,401.359650 36.445930,401.945984 
	C38.387772,402.252899 40.418087,402.000122 42.678032,402.000122 
	C41.633633,406.021545 40.660820,409.767303 39.567760,413.976074 
	C36.355381,413.976074 32.923431,413.976074 28.835215,413.976074 
	C29.918360,426.340271 30.959066,438.220032 31.999886,450.549896 
	C27.643101,451.000000 23.286201,451.000000 18.464655,451.000000 
z"/>
<path fill="#000000" opacity="1.000000" stroke="none" 
	d="
M397.474121,451.000000 
	C400.525055,436.956512 404.014954,422.904022 407.604004,408.876923 
	C408.346130,405.976379 409.457062,403.170166 410.699005,400.660217 
	C411.000000,417.549011 411.000000,434.098053 411.000000,451.000000 
	C406.655762,451.000000 402.302002,451.000000 397.474121,451.000000 
z"/>
<path fill="#000000" opacity="1.000000" stroke="none" 
	d="
M121.464645,451.000000 
	C124.436806,438.769531 127.873604,426.539032 131.654816,414.162903 
	C131.999207,414.017212 131.925735,413.948578 131.925735,413.948578 
	C133.098419,426.018616 134.271103,438.088623 135.221893,450.579346 
	C130.643097,451.000000 126.286201,451.000000 121.464645,451.000000 
z"/>
<path fill="#000000" opacity="1.000000" stroke="none" 
	d="
M66.416672,451.000000 
	C69.599434,443.902771 73.153740,436.782196 76.814697,429.716827 
	C79.120758,425.266327 81.586472,420.898499 84.600327,415.353210 
	C84.600327,423.224457 84.600327,429.847137 84.598091,436.473389 
	C84.319733,436.623413 84.048126,436.888458 83.766830,436.899170 
	C74.506996,437.251984 74.506432,437.248260 72.051590,447.003448 
	C71.778084,448.090302 71.512909,449.179230 71.121933,450.633606 
	C69.611107,451.000000 68.222221,451.000000 66.416672,451.000000 
z"/>
<path fill="#000000" opacity="1.000000" stroke="none" 
	d="
M223.428467,451.000000 
	C229.047501,439.586334 235.094986,428.172638 241.595367,415.904144 
	C242.055878,423.373047 242.453873,429.827942 242.881393,436.761810 
	C239.462784,436.761810 236.055222,436.761810 232.374893,436.761810 
	C231.187912,441.485779 230.095001,445.835297 229.001038,450.592407 
	C227.285645,451.000000 225.571289,451.000000 223.428467,451.000000 
z"/>
<path fill="#000000" opacity="1.000000" stroke="none" 
	d="
M323.995575,188.999283 
	C329.157806,189.011475 333.821350,189.019669 338.484741,189.044525 
	C338.808746,189.046249 339.132111,189.171829 339.883362,189.329620 
	C329.865997,221.087906 319.863098,252.800171 309.810760,284.669250 
	C281.877991,252.849594 254.203308,221.323959 225.827179,188.999283 
	C258.829163,188.999283 291.162994,188.999283 323.995575,188.999283 
z"/>
<path fill="#000000" opacity="1.000000" stroke="none" 
	d="
M132.033432,414.054016 
	C132.848419,410.785919 133.432251,407.413544 134.527557,404.216370 
	C134.864670,403.232361 136.544312,402.228546 137.704193,402.101593 
	C140.499664,401.795593 143.351227,402.002411 146.212372,402.002411 
	C143.442657,414.019928 143.442657,414.019928 132.387787,413.970123 
	C131.925735,413.948578 131.999207,414.017212 132.033432,414.054016 
z"/>
<path fill="#000000" opacity="1.000000" stroke="none" 
	d="
M319.091278,436.350647 
	C315.668182,436.804260 312.545288,436.942657 308.988037,437.100311 
	C312.028290,426.221191 315.065735,415.861267 317.745422,405.409546 
	C318.425995,402.755096 319.489838,401.785095 322.083466,401.972321 
	C324.064423,402.115387 326.063965,402.000763 328.651276,402.000763 
	C325.517792,413.518066 322.454651,424.776764 319.091278,436.350647 
z"/>
</svg>