<?xml version="1.0" encoding="utf-8"?>
<svg viewBox="0 0 6250 3748" width="6250px" height="3748px" xmlns="http://www.w3.org/2000/svg">
  <path fill="#B49269" opacity="1.000000" stroke="none" d="M 6252 2711.776 C 6252 3055.834 6252 3399.892 6250.125 3745.821 C 5425.41 3747.694 4602.57 3747.695 3779.729 3747.71 C 3772.406 3747.71 3765.082 3747.913 3757.05 3746.664 C 3754.133 3742.984 3749.948 3740.568 3750.054 3738.355 C 3750.535 3728.304 3741.115 3723.069 3739.333 3713.79 C 3738.133 3707.538 3730.899 3702.554 3731.022 3694.804 C 3722.246 3691.755 3726.639 3681.338 3720.943 3676.685 C 3713.759 3670.817 3708.316 3664.351 3706.113 3654.695 C 3705.356 3651.382 3700.411 3648.889 3699.668 3643.586 C 3699.019 3638.951 3693.151 3634.846 3692.991 3630.385 C 3692.66 3621.164 3681.102 3617.313 3683.353 3607.54 C 3676.932 3603.738 3678.479 3594.839 3674.447 3591.118 C 3666.092 3583.409 3661.427 3574.094 3656.136 3564.589 C 3654.167 3561.051 3653.368 3557.594 3651.904 3554.145 C 3650.198 3550.131 3645.368 3546.872 3644.984 3542.98 C 3644.042 3533.457 3634.099 3528.166 3634.568 3518.396 C 3626.585 3515.387 3630.523 3505.842 3625.817 3501.733 C 3618.29 3495.161 3611.735 3488.464 3610.406 3478.078 C 3601.462 3475.35 3606.799 3464.633 3600.09 3460.098 C 3593.584 3455.699 3597.177 3444.601 3588.799 3440.756 C 3590.696 3432.358 3581.498 3428.57 3580.645 3421.741 C 3579.511 3412.652 3572.512 3408.858 3567.01 3403.528 C 3566.1 3402.647 3564.808 3401.492 3564.8 3400.456 C 3564.751 3394.106 3560.711 3390.02 3557.847 3384.947 C 3554.826 3379.593 3554.208 3372.74 3548.86 3368.372 C 3549.995 3360.858 3541.222 3356.908 3541.247 3351.428 C 3541.287 3342.596 3532.305 3340.291 3531.321 3331.788 C 3529.203 3326.746 3527.045 3323.019 3523.778 3318.296 C 3520.724 3315.689 3517.979 3314.45 3517.023 3312.383 C 3515.68 3309.478 3516.751 3304.095 3514.9 3303.018 C 3506.031 3297.852 3509.846 3285.197 3500.823 3280.571 C 3502.767 3272.117 3493.039 3268.627 3492.504 3261.639 C 3491.793 3252.341 3483.895 3249.138 3479.07 3243.309 C 3477.894 3241.889 3476.558 3239.849 3476.699 3238.216 C 3477.51 3228.862 3464.907 3225.245 3467.181 3215.429 C 3459.28 3211.799 3461.959 3202.373 3457.406 3197.275 C 3451.324 3190.466 3449.569 3181.571 3445.059 3174.017 C 3442.499 3169.728 3440.527 3165.378 3437.105 3161.296 C 3433.619 3157.139 3428.966 3154.058 3427.418 3147.156 C 3425.756 3139.749 3421.38 3131.928 3417.027 3125.285 C 3412.151 3117.841 3410.73 3108.713 3404.51 3102.175 C 3406.457 3094.266 3396.268 3092.204 3396.334 3085.185 C 3396.415 3076.612 3387.965 3074.092 3384.212 3068.229 C 3383.196 3066.644 3380.695 3065.06 3380.895 3063.795 C 3382.416 3054.198 3370.764 3050.357 3371.309 3040.87 C 3371.475 3037.972 3366.616 3035.041 3364.845 3031.709 C 3363.061 3028.35 3362.986 3023.968 3360.877 3020.924 C 3355.835 3013.648 3352.87 3005.328 3348.824 2997.603 C 3346.747 2993.637 3345.64 2989.789 3342.021 2986.366 C 3337.052 2981.666 3333.397 2975.978 3330.889 2968.787 C 3328.743 2962.635 3325.208 2956.135 3321.831 2950.166 C 3319.651 2946.313 3317 2943.157 3315.858 2938.459 C 3314.873 2934.405 3308.996 2930.905 3309.155 2927.332 C 3309.53 2918.919 3300.311 2915.989 3300.224 2908.346 C 3300.127 2899.826 3291.745 2897.293 3287.629 2891.654 C 3286.519 2890.134 3284.934 2888.469 3284.827 2886.79 C 3284.223 2877.361 3274.305 2871.938 3274.509 2862.262 C 3270.448 2859.553 3268.753 2855.94 3267.823 2850.945 C 3267.082 2846.963 3262.554 2843.834 3260.885 2839.835 C 3259.193 2835.78 3261.029 2830.298 3255.424 2826.748 C 3254.364 2824.756 3253.52 2823.8 3252.167 2822.496 C 3251.853 2821.977 3251.662 2820.779 3251.532 2819.477 C 3249.12 2814.587 3246.837 2810.998 3243.538 2806.337 C 3241.347 2804.64 3239.498 2804.285 3239.12 2803.341 C 3237.707 2799.816 3236.664 2796.127 3235.692 2792.445 C 3234.497 2787.918 3228.559 2787.305 3228.113 2781.475 C 3227.425 2772.47 3218.979 2766.251 3217.582 2757.176 C 3210.142 2754.482 3214.421 2745.891 3210.12 2741.983 C 3202.847 2735.377 3195.471 2729.084 3194.629 2718.361 C 3185.711 2714.458 3190.532 2701.626 3181.332 2697.906 C 3183.271 2688.303 3173.04 2683.869 3171.847 2675.138 C 3170.841 2667.772 3162.408 2662.879 3162.598 2654.418 C 3152.975 2648.087 3149.885 2637.233 3143.951 2628.292 C 3139.706 2621.896 3140.869 2612.577 3132.841 2608.509 C 3134.839 2598.916 3122.585 2594.893 3123.878 2585.576 C 3117.344 2580.358 3118.371 2570.46 3113.304 2565.623 C 3105.978 2558.63 3100.299 2551.554 3098.051 2541.757 C 3089.593 2537.442 3093.95 2525.076 3085.039 2521.047 C 3087.231 2511.373 3077.421 2506.727 3075.351 2498.291 C 3073.682 2491.492 3069.932 2483.535 3065.478 2478.044 C 3059.455 2470.619 3050.748 2465.488 3050.631 2454.454 C 3043.522 2451.625 3046.457 2443.116 3042.844 2439.58 C 3038.092 2434.926 3037.913 2429.085 3035.046 2424.435 C 3031.619 2418.875 3027.745 2413.939 3027.152 2407.217 C 3018.862 2403.861 3022.432 2393.716 3017.077 2389.142 C 3009.952 2383.057 3003.127 2377.24 3003.075 2366.899 C 2993.248 2363.538 2999.496 2349.836 2989.857 2346.354 C 2990.765 2336.427 2979.81 2331.381 2979.695 2321.671 C 2979.672 2319.684 2977.044 2317.364 2975.117 2315.823 C 2965.2 2307.89 2961.805 2295.896 2956.643 2285.245 C 2952.824 2277.366 2946.793 2270.358 2945.618 2261.242 C 2938.971 2258.784 2941.906 2251.775 2939.155 2247.716 C 2936.292 2243.493 2931.557 2240.868 2931.765 2234.481 C 2931.843 2232.076 2928.503 2229.178 2926.163 2227.147 C 2917.102 2219.279 2915.281 2207.121 2908.474 2197.956 C 2909.446 2191.607 2903.527 2189.158 2901.237 2184.745 C 2898.961 2180.357 2900.99 2173.846 2894.618 2171.317 C 2893.695 2162.701 2886.106 2157.092 2884.398 2148.955 C 2883.535 2144.847 2882.341 2141.931 2878.716 2139.207 C 2874.709 2136.195 2869.546 2131.714 2869.167 2127.487 C 2868.302 2117.844 2857.697 2112.83 2858.945 2102.825 C 2849.059 2099.546 2855.345 2085.762 2845.649 2082.359 C 2846.89 2072.346 2835.808 2067.308 2835.653 2057.656 C 2835.621 2055.67 2832.995 2053.332 2831.043 2051.838 C 2821.432 2044.482 2820.305 2031.745 2812.598 2023.23 C 2812.815 2013.589 2802.027 2008.361 2802.696 1998.539 C 2797.574 1995.578 2796.476 1990.768 2795.587 1985.286 C 2794.682 1979.706 2786.449 1977.603 2787.749 1970.151 C 2788.051 1968.419 2784.822 1966.228 2783.587 1964.04 C 2780.692 1958.911 2771.85 1957.573 2772.525 1951.276 C 2773.395 1943.151 2764.489 1940.702 2764.646 1934.158 C 2764.798 1927.821 2759.708 1925.306 2757.257 1920.937 C 2754.856 1916.658 2757.139 1910.025 2750.771 1907.442 C 2749.186 1899.108 2742.739 1892.966 2740.527 1885.025 C 2739.422 1881.061 2738.615 1877.912 2734.735 1875.363 C 2724.497 1868.638 2724.525 1855.056 2716.545 1846.664 C 2718.166 1837.84 2705.69 1834.842 2707.911 1825.772 C 2700.144 1817.246 2699.558 1803.935 2689.374 1797.221 C 2685.359 1794.575 2685.823 1790.549 2683.983 1787.424 C 2679.493 1779.798 2676.51 1771.447 2671.822 1763.961 C 2667.472 1757.017 2663.013 1749.31 2661.289 1742.012 C 2659.62 1734.945 2652.155 1732.319 2652.312 1725.19 C 2652.501 1716.59 2643.888 1714.123 2640.171 1708.226 C 2638.844 1706.121 2636.717 1703.948 2636.628 1701.739 C 2636.268 1692.838 2625.52 1688.473 2627.036 1678.951 C 2617.136 1675.651 2623.467 1661.893 2613.814 1658.435 C 2614.823 1648.488 2603.535 1643.547 2603.76 1633.791 C 2603.798 1632.161 2602.337 1629.716 2600.884 1628.956 C 2589.534 1623.023 2589.889 1608.896 2581.15 1601.228 C 2582.198 1593.129 2573.617 1588.752 2572.984 1582.254 C 2572.158 1573.798 2562.154 1570.21 2563.81 1561.325 C 2558.961 1555.959 2555.243 1550.042 2554.675 1542.59 C 2545.926 1536.353 2540.303 1528.013 2537.834 1517.552 C 2531.48 1515.007 2533.144 1508.71 2531.394 1503.979 C 2529.851 1499.807 2523.073 1498.752 2524.352 1492.867 C 2525.835 1486.041 2516.646 1484.709 2517.032 1479.835 C 2517.704 1471.362 2508.294 1468.373 2508.318 1460.819 C 2508.345 1452.145 2499.917 1449.691 2495.986 1443.933 C 2495.27 1442.885 2493.685 1442.167 2493.455 1441.092 C 2492.217 1435.311 2490.302 1430.53 2486.073 1425.621 C 2482.331 1421.278 2483.312 1413.062 2476.911 1409.301 C 2479.513 1400.066 2469.192 1396.369 2468.059 1388.347 C 2466.909 1380.2 2458.964 1374.508 2458.032 1365.827 C 2457.938 1364.953 2456.033 1364.273 2456.524 1362.7 C 2468.673 1361.235 2479.266 1359.992 2489.859 1359.991 C 3222.409 1359.899 3954.959 1359.907 4687.51 1359.899 C 4695.508 1359.899 4703.509 1359.907 4711.503 1359.713 C 4716.193 1359.599 4720.872 1359.092 4723.937 1353.598 C 4721.327 1349.275 4716.635 1346.07 4716.965 1343.514 C 4718.01 1335.418 4708.5 1332.986 4708.739 1326.577 C 4709.076 1317.548 4700.501 1315.285 4697.288 1309.108 C 4696.156 1306.932 4692.919 1305.196 4692.88 1303.216 C 4692.688 1293.553 4682.184 1288.34 4682.717 1278.572 C 4677.533 1275.676 4676.464 1270.853 4675.576 1265.389 C 4674.673 1259.838 4665.854 1257.853 4668.035 1250.414 C 4660.281 1241.881 4660.013 1228.547 4649.854 1221.673 C 4646.208 1219.207 4645.004 1216.257 4644.048 1212.102 C 4642.203 1204.08 4635.2 1198.198 4633.77 1189.809 C 4628.364 1187.698 4629.123 1182.688 4627.774 1178.348 C 4626.515 1174.291 4620.865 1170.764 4621.083 1167.248 C 4621.61 1158.777 4612.097 1156.105 4612.148 1148.276 C 4612.202 1139.852 4603.597 1137.365 4599.502 1131.727 C 4598.4 1130.208 4596.908 1128.517 4596.788 1126.821 C 4596.124 1117.441 4586.361 1111.975 4586.486 1102.35 C 4582.385 1099.675 4580.766 1096.027 4579.825 1091.062 C 4579.071 1087.087 4574.562 1083.97 4572.884 1079.982 C 4571.185 1075.94 4573.037 1070.464 4567.462 1066.894 C 4566.388 1064.899 4565.536 1063.944 4564.171 1062.629 C 4563.853 1062.096 4563.638 1060.874 4563.513 1059.577 C 4561.11 1054.7 4558.833 1051.122 4555.543 1046.476 C 4551.657 1044.059 4549.032 1042.834 4548.37 1038.967 C 4547.767 1035.435 4546.999 1030.546 4544.56 1028.992 C 4538.923 1025.403 4541.373 1019.705 4538.249 1014.135 C 4528.583 1012.568 4519.949 1011.969 4511.313 1011.968 C 3766.796 1011.924 3022.279 1011.925 2277.762 1011.938 C 2272.435 1011.938 2267.109 1012.142 2261.064 1010.899 C 2258.147 1007.215 2255.173 1005.237 2253.913 1002.477 C 2251.294 996.742 2250.624 990.697 2245.911 985.201 C 2242.284 980.971 2242.566 972.986 2236.779 968.881 C 2238.744 960.466 2229.456 956.739 2228.63 949.891 C 2227.538 940.832 2220.477 937.045 2215.092 931.628 C 2214.197 930.729 2212.898 929.58 2212.898 928.547 C 2212.9 922.144 2208.566 918.171 2205.804 913.131 C 2202.836 907.713 2199.246 901.81 2197.59 896.303 C 2195.614 889.726 2189.17 885.079 2189.235 879.607 C 2189.339 870.735 2180.298 868.485 2179.184 860.017 C 2177.018 856.104 2174.932 853.482 2172.346 849.515 C 2163.112 842.67 2165.213 830.264 2156.797 824.562 C 2158.828 816.099 2148.748 812.684 2148.579 805.645 C 2148.376 797.204 2139.043 793.764 2139.028 784.847 C 2139.021 780.992 2132.712 777.163 2129.303 773.29 C 2127.654 771.416 2124.472 769.177 2124.753 767.596 C 2126.362 758.546 2116.886 754.867 2115.49 746.698 C 2114.32 739.851 2108.574 733.536 2105.719 726.346 C 2104.246 722.636 2101.45 719.095 2099.764 714.811 C 2097.015 707.825 2093.617 700.534 2089.683 694.529 C 2084.558 686.707 2075.353 681.555 2074.58 670.77 C 2065.084 666.458 2070.047 653.124 2060.786 648.664 C 2062.844 639.086 2050.663 635.036 2051.899 625.777 C 2045.648 620.425 2046.285 610.695 2041.258 605.857 C 2033.958 598.831 2028.301 591.772 2026.201 581.928 C 2017.437 579.096 2022.709 568.576 2015.951 563.865 C 2009.714 559.517 2012.969 548.444 2004.68 544.487 C 2006.78 536.023 1996.861 532.64 1996.481 525.473 C 1995.981 516.052 1986.931 513.686 1982.708 507.424 C 1981.66 505.871 1980.559 503.923 1980.565 502.161 C 1980.592 493.186 1969.421 488.945 1971.123 479.379 C 1962.656 476.097 1966.118 466.365 1961.352 461.216 C 1955.205 454.575 1953.749 445.499 1948.851 438.116 C 1946.549 434.645 1945.947 430.379 1942.391 426.749 C 1937.716 421.977 1931.615 417.445 1931.408 409.01 C 1931.333 405.939 1926.631 403.211 1924.865 399.888 C 1923.083 396.535 1923.392 390.742 1920.91 389.344 C 1914.157 385.54 1918.844 376.939 1913.711 373.915 C 1906.321 369.562 1909.582 361.877 1906.12 355.486 C 1903.985 353.618 1902.364 352.567 1900.481 351.813 C 1900.22 352.11 1899.432 352.198 1899.724 351.262 C 1900.016 350.324 1900.031 348.361 1899.839 347.03 C 1897.897 340.153 1896.749 334.247 1889.936 329.967 C 1889.186 333.198 1888.246 335.51 1888.179 337.847 C 1887.95 345.836 1887.994 353.833 1887.994 361.826 C 1887.988 1133.935 1887.987 1906.043 1887.994 2678.151 C 1887.994 2684.812 1887.579 2691.533 1888.334 2698.114 C 1888.844 2702.555 1891.07 2706.799 1894.352 2711.307 C 1905.504 2711.585 1914.832 2711.778 1924.159 2711.779 C 2129.413 2711.797 2334.666 2711.771 2539.919 2711.858 C 2550.549 2711.863 2561.177 2712.8 2572.831 2714.285 C 2575.802 2716.872 2579.492 2718.566 2579.415 2720.067 C 2578.874 2730.647 2590.61 2736.096 2589.993 2746.473 C 2595.5 2749.233 2595.676 2754.466 2597.058 2759.658 C 2598.467 2764.952 2605.809 2767.755 2604.554 2774.757 C 2612.642 2783.032 2612.453 2796.712 2622.794 2803.301 C 2626.729 2805.808 2627.445 2808.972 2628.578 2812.904 C 2630.831 2820.723 2637.888 2826.518 2638.519 2835.169 C 2646.707 2840.486 2644.203 2852.171 2651.966 2857.739 C 2649.809 2866.238 2660.469 2868.797 2660.512 2876.677 C 2660.558 2884.88 2668.931 2887.504 2673.313 2892.85 C 2674.132 2893.849 2675.277 2894.888 2675.469 2896.042 C 2676.445 2901.915 2678.784 2906.495 2682.624 2911.507 C 2686.093 2916.035 2686.206 2923.559 2691.632 2927.837 C 2690.214 2936.076 2700.119 2940.216 2699.714 2946.672 C 2699.194 2954.949 2708.567 2956.404 2708.316 2963.667 C 2708.026 2972.07 2715.823 2975.175 2720.36 2980.393 C 2721.212 2981.373 2722.9 2982.1 2723.067 2983.129 C 2724.128 2989.678 2728.435 2994.672 2730.854 3000.298 C 2733.394 3006.203 2738.458 3011.439 2739.14 3017.058 C 2740.038 3024.464 2748.174 3027.928 2747.593 3033.761 C 2746.77 3042.018 2755.821 3043.756 2756.255 3051.846 C 2759.042 3055.756 2761.53 3058.32 2764.3 3062.28 C 2766.742 3065.969 2769.814 3067.907 2770.874 3070.63 C 2773.172 3076.533 2772.519 3083.78 2779.335 3087.402 C 2779.607 3094.249 2782.838 3099.661 2787.556 3104.352 C 2786.036 3112.67 2795.701 3116.023 2796.144 3123.135 C 2796.725 3132.448 2804.922 3135.355 2809.705 3141.127 C 2810.526 3142.117 2811.691 3143.469 2811.555 3144.506 C 2810.322 3153.894 2821.651 3157.905 2821.062 3167.412 C 2820.883 3170.294 2825.754 3173.222 2827.471 3176.562 C 2829.205 3179.935 2828.882 3184.778 2831.24 3187.337 C 2837.466 3194.094 2837.53 3204.032 2844.106 3210.385 C 2842.92 3216.778 2847.979 3219.401 2851.355 3223.378 C 2855.378 3228.119 2859.364 3232.608 2861.57 3239.369 C 2863.55 3245.437 2869.331 3250.678 2869.761 3258.065 C 2879.297 3261.623 2872.995 3275.254 2882.835 3278.618 C 2881.797 3288.559 2893.065 3293.525 2892.827 3303.274 C 2892.79 3304.796 2894.457 3306.981 2895.928 3307.822 C 2906.898 3314.094 2907.161 3327.667 2915.299 3335.802 C 2912.741 3345.154 2924.501 3348.173 2924.407 3356.606 C 2924.317 3364.697 2935.746 3368.069 2933.319 3377.328 C 2940.071 3381.015 2938.876 3388.695 2941.966 3394.102 C 2944.418 3398.392 2950.066 3400.761 2952.989 3404.904 C 2956.201 3409.459 2957.05 3415.793 2960.556 3419.993 C 2963.446 3423.456 2963.341 3427.17 2964.831 3430.645 C 2966.28 3434.02 2971.566 3437.041 2971.203 3439.671 C 2969.846 3449.532 2981.531 3453.456 2980.538 3462.641 C 2985.841 3468.473 2986.502 3477.283 2990.892 3482.629 C 2997.04 3490.114 3005.137 3495.738 3006.023 3506.431 C 3010.596 3508.85 3011.573 3512.988 3012.735 3517.734 C 3013.725 3521.777 3019.271 3525.188 3019.28 3528.887 C 3019.298 3536.552 3028.148 3539.877 3027.57 3545.668 C 3026.745 3553.947 3035.867 3555.593 3036.261 3563.7 C 3039.048 3567.649 3041.539 3570.24 3044.306 3574.226 C 3047.085 3579.179 3051.21 3582.501 3051.765 3586.34 C 3053.094 3595.547 3062.374 3601.041 3062.092 3610.645 C 3066.985 3612.842 3067.502 3617.251 3068.773 3621.853 C 3069.88 3625.861 3074.887 3628.969 3075.506 3632.894 C 3076.491 3639.144 3079.043 3643.452 3083.546 3647.692 C 3088.067 3651.948 3091.48 3656.779 3093.492 3663.589 C 3095.301 3669.712 3099.542 3675.833 3102.551 3682.081 C 3104.322 3685.757 3107.641 3688.656 3108.786 3693.432 C 3109.904 3698.093 3115.938 3702.309 3115.643 3706.423 C 3115.029 3714.991 3124.686 3717.125 3124.736 3725.269 C 3124.782 3732.77 3133.089 3735.953 3137.402 3741.321 C 3138.679 3742.91 3138.237 3745.883 3136.855 3748 C 3129.13 3747.751 3123.132 3747.701 3117.134 3747.701 C 2090.082 3747.697 1063.03 3747.7 35.979 3747.67 C 26.66 3747.67 17.342 3747.241 8.012 3745.182 C 7.995 3407.029 7.989 3070.705 7.995 2734.381 C 7.995 2727.056 8.128 2719.731 10.051 2712.24 C 25.219 2711.98 38.535 2711.805 51.85 2711.803 C 232.961 2711.786 414.071 2711.796 595.182 2711.79 C 601.84 2711.79 608.552 2712.209 615.136 2711.487 C 619.544 2711.004 623.768 2708.846 628.076 2707.574 C 628.077 2707.71 627.806 2707.693 628.864 2707.81 C 630.632 2707.91 631.342 2707.892 632.845 2706.417 C 634.427 2694.404 635.902 2683.849 635.904 2673.292 C 636.016 2131.184 636.003 1589.077 635.999 1046.968 C 635.998 1040.309 636.474 1033.588 635.722 1027.011 C 635.137 1021.89 632.985 1016.947 630.422 1011.968 C 628.578 1012.067 627.841 1012.124 626.357 1012.045 C 625.608 1011.909 624.209 1011.313 622.68 1010.681 C 611.902 1009.384 602.653 1008.153 593.404 1008.142 C 476.92 1008.011 360.437 1008.056 243.953 1008.056 C 176.06 1008.056 108.166 1008.07 40.273 1008.036 C 33.622 1008.032 26.937 1008.099 20.33 1007.475 C 12.98 1006.779 9.346 1003.31 8.619 996.192 C 7.945 989.593 8.009 982.904 8.007 976.254 C 7.976 863.773 7.993 751.292 7.965 638.81 C 7.964 632.161 7.812 625.505 7.482 618.864 C 7.231 613.808 4.614 610.129 0 607.937 C 0 406.536 0 205.135 1.868 1.865 C 1882.067 -0.002 3760.397 -0.002 5638.728 0 C 5647.393 0 5656.059 0.056 5664.724 0.03 C 5671.477 0.011 5678.049 0.682 5684.147 5.953 C 5686.923 10.98 5691.254 14.4 5691.607 18.19 C 5692.492 27.701 5702.75 32.857 5701.914 42.728 C 5710.003 45.583 5705.896 55.279 5710.737 59.204 C 5718.651 65.618 5724.795 72.605 5726.085 83.026 C 5731.86 85.729 5731.566 91.285 5733.038 96.362 C 5734.215 100.416 5739.833 103.842 5739.75 107.461 C 5739.594 114.251 5747.395 115.989 5747.268 120.426 C 5747.028 128.801 5755.488 132.271 5756.058 139.299 C 5756.485 144.55 5759.427 147.108 5762.569 150.632 C 5767.094 155.707 5774.547 159.715 5772.827 168.555 C 5778.648 173.41 5778.882 181.568 5782.831 186.761 C 5786.3 191.323 5787.514 195.551 5789.064 200.504 C 5790.334 204.567 5795.836 208.012 5795.747 211.64 C 5795.581 218.417 5802.966 219.953 5803.326 224.733 C 5804 233.712 5809.971 238.41 5815.654 243.663 C 5817.058 244.96 5819.985 246.633 5819.756 247.367 C 5816.792 256.868 5827.895 260.283 5828.46 268.441 C 5829.042 276.831 5838.36 281.965 5838.123 291.026 C 5844.044 293.622 5843.136 299.571 5845.171 304.225 C 5847.386 309.289 5853.484 312.421 5852.798 319.355 C 5852.652 320.828 5854.415 322.74 5855.698 324.061 C 5861.982 330.526 5869.678 336.053 5869.792 346.398 C 5879.412 349.811 5873.018 363.668 5883.09 366.787 C 5881.881 376.736 5893.074 381.846 5892.791 391.565 C 5892.747 393.085 5894.527 394.934 5895.884 396.171 C 5902.626 402.311 5909.758 408.141 5909.873 418.425 C 5918.977 421.45 5914.535 432.321 5921.509 437.808 C 5926.783 441.957 5925.19 452.504 5931.869 457.665 C 5929.862 466.112 5940.387 468.835 5940.374 476.587 C 5940.36 485.058 5948.699 487.562 5953.023 492.96 C 5954.215 494.448 5955.949 496.318 5955.835 497.898 C 5955.174 507.086 5966.963 511.254 5964.844 520.861 C 5973.702 525.642 5969.928 538.511 5979.084 543.102 C 5977.163 552.235 5987.914 555.813 5988.261 563.816 C 5988.668 573.172 5996.993 576.101 6002.025 581.719 C 6002.865 582.656 6003.864 584.123 6003.704 585.179 C 6002.267 594.637 6014.531 598.614 6012.752 608.112 C 6018.145 613.182 6019.347 620.409 6022.623 626.46 C 6024.65 630.205 6027.574 633.265 6028.796 637.954 C 6030.02 642.649 6034.823 646.47 6035.816 651.151 C 6036.864 656.086 6039.319 658.902 6042.417 662.467 C 6046.864 667.586 6054.411 671.52 6052.809 680.339 C 6058.839 685.076 6058.795 693.27 6062.688 698.553 C 6066.025 703.082 6067.125 707.508 6069.093 712.204 C 6071.232 717.307 6077.528 720.506 6076.626 727.356 C 6084.579 735.632 6084.757 749.293 6095.542 755.389 C 6099.851 757.826 6100.547 760.94 6100.678 765.102 C 6100.738 767.008 6100.999 769.911 6102.189 770.603 C 6107.62 773.755 6107.656 778.943 6109.029 784.097 C 6110.109 788.147 6115.774 791.545 6115.743 795.2 C 6115.686 801.859 6123.008 803.948 6123.08 808.3 C 6123.214 816.542 6131.24 820.207 6132.033 827.161 C 6132.621 832.316 6135.332 834.986 6138.479 838.535 C 6142.979 843.608 6150.61 847.486 6148.827 856.388 C 6154.903 861.101 6154.656 869.547 6158.747 874.567 C 6162.409 879.061 6163.202 883.482 6165.152 888.162 C 6167.284 893.274 6173.366 896.472 6172.776 903.364 C 6172.651 904.834 6174.323 907.092 6175.779 907.961 C 6186.511 914.368 6187.29 927.67 6195.389 935.838 C 6194.336 943.979 6203.164 948.254 6203.673 954.813 C 6204.332 963.305 6214.559 966.811 6212.694 975.725 C 6217.375 981.174 6220.082 987.358 6222.242 994.329 C 6223.563 998.589 6229.273 1001.695 6233.385 1004.832 C 6238.651 1008.852 6233.688 1016.926 6240.208 1020.451 C 6246.176 1023.678 6243.732 1029.819 6244.647 1036.137 C 6247.299 1040.913 6249.65 1044.409 6252 1047.903 C 6252 1487.954 6252 1928.004 6250.125 2369.923 C 5754.851 2371.791 5261.45 2371.789 4768.049 2371.796 C 4761.392 2371.796 4754.713 2371.612 4748.089 2372.107 C 4745.786 2372.279 4743.618 2374.247 4740.981 2376.926 C 4740.65 2380.44 4739.922 2383.465 4740.929 2384.242 C 4748.956 2390.438 4747.52 2402.292 4755.636 2408.278 C 4755.346 2417.152 4761.981 2421.955 4767.03 2427.7 C 4768.688 2429.587 4771.854 2431.798 4771.6 2433.437 C 4770.285 2441.916 4780.469 2444.668 4780.333 2452.347 C 4780.188 2460.527 4791.5 2463.945 4789.159 2473.13 C 4797.795 2476.71 4795.609 2486.42 4800.035 2492.714 C 4806.143 2501.4 4808.703 2512.527 4819.141 2518.156 C 4820.292 2518.777 4820.169 2521.763 4820.638 2523.651 C 4821.256 2526.147 4821.116 2530.091 4822.627 2530.883 C 4828.603 2534.012 4827.378 2539.697 4829.04 2544.506 C 4830.435 2548.546 4835.821 2551.973 4835.744 2555.592 C 4835.598 2562.361 4843.529 2563.916 4843.292 2568.557 C 4842.864 2576.975 4851.843 2580.115 4852.186 2587.34 C 4852.626 2596.636 4860.915 2599.54 4865.738 2605.269 C 4866.561 2606.247 4867.698 2607.614 4867.557 2608.648 C 4866.278 2618.027 4877.699 2621.959 4877.053 2631.467 C 4876.859 2634.323 4881.737 2637.254 4883.448 2640.585 C 4885.178 2643.952 4884.739 2649.543 4887.223 2651.196 C 4893.737 2655.533 4891.621 2661.693 4893.008 2668.353 C 4895.767 2671.542 4898.094 2673.633 4900.283 2675.661 C 4900.145 2675.597 4900.275 2675.321 4900.269 2676.674 C 4900.879 2682.909 4903.8 2686.194 4908.603 2689.843 C 4918.246 2693.412 4915.849 2700.818 4917.666 2708.057 C 4927.364 2710.084 4935.893 2711.691 4944.421 2711.694 C 5380.281 2711.807 5816.14 2711.785 6252 2711.776 Z" transform="matrix(0.9999999999999999, 0, 0, 0.9999999999999999, -5.684341886080802e-14, -5.684341886080802e-14)"/>
  <path fill="#648272" opacity="1.000000" stroke="none" d="&#10;M4.000000,1253.000000 &#10;&#9;C1888.865601,1252.000000 3773.731201,1251.999756 5658.596680,1252.012573 &#10;&#9;C5666.591309,1252.012573 5674.607910,1251.904785 5682.563965,1252.511963 &#10;&#9;C5684.524414,1252.661621 5686.285645,1255.425659 5688.014648,1258.759766 &#10;&#9;C5682.048828,1256.698364 5675.477051,1256.026489 5668.723633,1256.046387 &#10;&#9;C5660.058594,1256.071899 5651.393066,1256.015503 5642.728027,1256.015503 &#10;&#9;C3764.397217,1256.013672 1886.066528,1256.013794 5.867929,1256.006958 &#10;&#9;C4.000000,1256.000000 4.000000,1254.000000 4.000000,1253.000000 &#10;z" transform="matrix(0.9999999999999999, 0, 0, 0.9999999999999999, -5.684341886080802e-14, -5.684341886080802e-14)"/>
</svg>