<?xml version="1.0" encoding="utf-8"?>
<svg viewBox="0 0 1795 1795" width="1795px" height="1795px" xmlns="http://www.w3.org/2000/svg">
  <path fill="#DE222A" opacity="1.000000" stroke="none" d="M 1796 417.871 C 1794.919 418.789 1793.613 419.154 1792.791 419.993 C 1781.382 431.639 1769.304 442.732 1758.853 455.189 C 1742.625 474.529 1727.184 494.561 1712.018 514.757 C 1693.176 539.85 1677.185 566.78 1663.196 594.865 C 1656.702 607.903 1650.536 621.112 1644.557 634.394 C 1642.962 637.936 1640.869 638.548 1637.372 638.545 C 1501.455 638.46 1365.539 638.494 1229.623 638.384 C 1224.84 638.38 1222.409 639.585 1220.499 644.385 C 1211.669 666.572 1202.281 688.536 1193.12 710.592 C 1192.822 711.312 1192.823 712.156 1192.6 713.414 C 1332.74 713.414 1472.583 713.414 1613.271 713.414 C 1582.106 787.947 1551.222 861.81 1520.27 935.834 C 1517.984 935.834 1515.826 935.834 1513.669 935.834 C 1377.752 935.834 1241.836 935.88 1105.92 935.677 C 1100.177 935.669 1097.577 937.843 1095.615 942.618 C 1087.347 962.745 1078.924 982.807 1070.568 1002.897 C 1069.572 1005.292 1068.64 1007.715 1067.476 1010.633 C 1207.799 1010.633 1347.761 1010.633 1488.769 1010.633 C 1486.264 1016.832 1484.099 1022.324 1481.834 1027.776 C 1470.098 1056.022 1458.387 1084.28 1446.567 1112.491 C 1435.688 1138.459 1424.68 1164.373 1413.731 1190.311 C 1408.448 1202.825 1402.805 1215.205 1398.09 1227.929 C 1396.46 1232.331 1394.447 1233.269 1390.278 1233.266 C 1256.029 1233.183 1121.781 1233.197 987.532 1233.197 C 974.151 1233.197 974.356 1233.282 969.224 1245.691 C 959.403 1269.436 949.277 1293.056 939.364 1316.764 C 929.587 1340.148 919.971 1363.599 910.184 1386.978 C 903.237 1403.573 896.124 1420.098 888.939 1436.998 C 821.022 1270.195 753.248 1103.743 685.474 937.292 C 684.957 937.151 684.44 937.01 683.923 936.869 C 616.184 1103.226 548.445 1269.581 480.273 1437 C 477.076 1429.402 474.189 1422.693 471.422 1415.934 C 461.565 1391.862 451.759 1367.769 441.915 1343.691 C 433.741 1323.699 425.52 1303.726 417.357 1283.729 C 408.64 1262.374 399.952 1241.007 391.277 1219.636 C 381.803 1196.294 372.438 1172.908 362.881 1149.601 C 350.41 1119.187 337.714 1088.866 325.271 1058.441 C 313.692 1030.129 302.397 1001.701 290.833 973.383 C 277.599 940.974 264.153 908.653 250.899 876.253 C 240.126 849.92 229.575 823.496 218.791 797.167 C 205.651 765.084 192.316 733.08 179.168 700.999 C 169.614 677.687 160.914 653.996 150.562 631.048 C 141.324 610.57 130.989 590.515 119.944 570.947 C 109.576 552.577 98.26 534.662 86.223 517.338 C 74.721 500.784 62.086 484.978 49.316 469.36 C 40.218 458.231 30.173 447.865 20.359 437.337 C 13.952 430.465 7.201 423.913 0.252 417.21 C -0.101 417.204 -0.101 416.703 0.368 416.456 C 43.849 416.205 86.86 416.202 129.872 416.202 C 199.891 416.201 269.911 416.211 339.93 416.169 C 343.047 416.167 345.558 416.17 347.076 419.826 C 358.555 447.467 370.177 475.05 381.856 502.608 C 395.396 534.557 409.066 566.453 422.631 598.392 C 436.636 631.366 450.598 664.357 464.55 697.354 C 471.622 714.079 478.599 730.844 485.702 747.557 C 486.72 749.953 488.205 752.149 489.861 755.137 C 493.895 744.88 497.603 735.663 501.154 726.386 C 514.01 692.805 526.759 659.184 539.65 625.617 C 551.781 594.032 564.051 562.499 576.24 530.936 C 584.892 508.53 593.508 486.109 602.145 463.698 C 612.198 437.612 622.266 411.534 632.309 385.445 C 641.996 360.282 651.666 335.114 661.332 309.943 C 669.003 289.966 676.657 269.981 684.319 250 C 684.319 250 684.819 250 685.07 250.385 C 685.335 251.104 685.255 251.477 685.375 251.766 C 694.309 273.386 703.24 295.008 712.212 316.612 C 724.822 346.979 737.526 377.307 750.075 407.699 C 761.619 435.66 772.96 463.705 784.486 491.673 C 794.959 517.088 805.607 542.431 816.093 567.84 C 826.945 594.136 837.689 620.477 848.493 646.793 C 856.818 667.071 865.134 687.351 873.507 707.609 C 879.983 723.276 886.541 738.909 893.378 755.314 C 894.318 753.842 895.022 753.017 895.427 752.065 C 902.477 735.494 909.506 718.915 916.506 702.324 C 923.563 685.593 930.524 668.821 937.635 652.113 C 946.476 631.342 955.45 610.627 964.326 589.871 C 971.403 573.319 978.441 556.75 985.459 540.172 C 994.325 519.228 1003.129 498.255 1012.004 477.314 C 1019.796 458.93 1027.917 440.68 1035.289 422.131 C 1037.164 417.412 1039.292 416.104 1044.085 416.106 C 1294.723 416.214 1545.362 416.202 1796 416.202 C 1796 416.647 1796 417.092 1796 417.871 Z"/>
</svg>