<?xml version="1.0" encoding="utf-8"?>
<svg viewBox="0 0 1795 1631" width="1795" height="1631" xmlns="http://www.w3.org/2000/svg">
  <path opacity="1.000000" stroke="none" d="&#10;M1796.000000,169.000000 &#10;&#9;C1796.000000,656.542542 1796.000000,1144.085083 1796.000000,1632.000000 &#10;&#9;C1720.643677,1632.000000 1645.286865,1632.000000 1569.464111,1631.531372 &#10;&#9;C1568.998291,1609.476685 1568.998291,1587.890625 1568.998291,1565.897705 &#10;&#9;C1535.358398,1565.897705 1502.435547,1565.897705 1468.999512,1565.897705 &#10;&#9;C1468.999512,1563.538452 1469.001831,1561.585938 1468.999146,1559.633423 &#10;&#9;C1468.989014,1552.302124 1469.895630,1544.813110 1468.672119,1537.689941 &#10;&#9;C1467.712036,1532.101196 1469.645752,1531.947144 1473.798950,1531.957397 &#10;&#9;C1503.624634,1532.031006 1533.450684,1531.996704 1563.276611,1531.996582 &#10;&#9;C1565.007446,1531.996582 1566.738281,1531.996582 1568.066772,1531.996582 &#10;&#9;C1568.066772,1509.720947 1568.066772,1488.081543 1568.066772,1465.999390 &#10;&#9;C1565.629150,1465.999390 1563.835083,1465.999390 1562.041138,1465.999390 &#10;&#9;C1532.548462,1465.999390 1503.055298,1465.915039 1473.563599,1466.089966 &#10;&#9;C1469.148315,1466.116089 1467.627808,1464.794434 1467.936890,1460.401611 &#10;&#9;C1468.494507,1452.481567 1468.948608,1444.531982 1468.887817,1436.599121 &#10;&#9;C1468.854492,1432.234009 1470.139038,1430.882812 1474.560425,1430.909180 &#10;&#9;C1504.052124,1431.084595 1533.545288,1431.000000 1563.037964,1431.000000 &#10;&#9;C1564.802612,1431.000000 1566.567139,1431.000000 1567.927734,1431.000000 &#10;&#9;C1570.008911,1403.396362 1586.196777,1384.350830 1605.351074,1366.172119 &#10;&#9;C1603.235596,1366.075562 1602.416504,1366.005615 1601.597412,1366.005615 &#10;&#9;C1548.110718,1366.000122 1494.623779,1365.968018 1441.137451,1366.090820 &#10;&#9;C1438.305176,1366.097412 1434.964722,1366.694092 1432.740234,1368.262817 &#10;&#9;C1425.781616,1373.170166 1418.796631,1378.206787 1412.662109,1384.072021 &#10;&#9;C1405.579224,1390.843994 1401.770874,1399.564941 1402.028076,1409.623779 &#10;&#9;C1402.222778,1417.230713 1402.943481,1424.830811 1402.955444,1432.434814 &#10;&#9;C1403.039429,1485.588013 1402.896362,1538.742310 1403.182495,1591.894165 &#10;&#9;C1403.207397,1596.508057 1404.987549,1601.586060 1407.358643,1605.622681 &#10;&#9;C1413.859009,1616.689087 1422.404785,1625.866943 1434.851562,1630.574097 &#10;&#9;C1435.052124,1630.650024 1434.957153,1631.507324 1435.000000,1632.000000 &#10;&#9;C1402.643311,1632.000000 1370.286621,1632.000000 1337.164551,1631.695557 &#10;&#9;C1346.145020,1626.555908 1354.904419,1620.490723 1361.729492,1611.823853 &#10;&#9;C1366.497681,1605.768799 1370.084229,1599.525146 1370.070679,1591.373291 &#10;&#9;C1369.949585,1518.395264 1370.000000,1445.416992 1370.000000,1372.438721 &#10;&#9;C1370.000000,1370.359863 1370.000000,1368.281128 1370.000000,1366.310547 &#10;&#9;C1347.590454,1366.310547 1326.001221,1366.310547 1304.001343,1366.310547 &#10;&#9;C1304.001343,1368.575562 1304.001465,1370.544067 1304.001465,1372.512573 &#10;&#9;C1304.000854,1434.993896 1303.947388,1497.475464 1304.101685,1559.956421 &#10;&#9;C1304.113770,1564.838867 1302.657959,1566.337891 1297.872925,1566.094360 &#10;&#9;C1290.726807,1565.730591 1283.531372,1565.696777 1276.389893,1566.103394 &#10;&#9;C1271.365601,1566.389404 1269.873901,1564.854736 1269.888062,1559.720093 &#10;&#9;C1270.060547,1497.239258 1270.000122,1434.757690 1270.000366,1372.276367 &#10;&#9;C1270.000366,1370.332275 1270.000488,1368.388062 1270.000488,1366.363770 &#10;&#9;C1247.711304,1366.363770 1226.003784,1366.363770 1203.990112,1366.363770 &#10;&#9;C1203.990112,1385.533813 1203.989258,1404.341431 1203.990356,1423.149048 &#10;&#9;C1203.992920,1468.968750 1203.953613,1514.788452 1204.073486,1560.607788 &#10;&#9;C1204.084229,1564.682251 1202.992554,1566.258911 1198.719849,1566.084839 &#10;&#9;C1191.234375,1565.780029 1183.708984,1565.676880 1176.236450,1566.110474 &#10;&#9;C1171.008911,1566.413818 1169.877319,1564.501343 1169.892334,1559.566772 &#10;&#9;C1170.058472,1504.750610 1169.998169,1449.933594 1169.998901,1395.116821 &#10;&#9;C1169.998901,1393.352173 1169.998779,1391.587646 1169.998779,1388.757935 &#10;&#9;C1158.429932,1400.079590 1147.641113,1410.637939 1135.972534,1422.057129 &#10;&#9;C1125.003052,1410.923218 1114.667847,1400.433105 1104.168579,1389.776245 &#10;&#9;C1104.112305,1390.410645 1104.010986,1391.020996 1104.010864,1391.631226 &#10;&#9;C1104.002808,1458.278076 1103.935669,1524.925049 1104.159058,1591.571167 &#10;&#9;C1104.173096,1595.773193 1105.648682,1600.453979 1107.831421,1604.076172 &#10;&#9;C1114.905151,1615.814819 1123.936279,1625.654785 1137.476807,1630.242432 &#10;&#9;C1137.811279,1630.355713 1137.832642,1631.393433 1138.000000,1632.000000 &#10;&#9;C1100.976685,1632.000000 1063.953247,1632.000000 1026.463867,1631.531372 &#10;&#9;C1025.998291,1556.250244 1026.006104,1481.437744 1025.963135,1406.625244 &#10;&#9;C1025.961914,1404.531982 1025.671753,1402.365234 1025.087280,1400.357788 &#10;&#9;C1021.623596,1388.460938 1013.817566,1379.695190 1003.769897,1373.126221 &#10;&#9;C998.842834,1369.905029 992.889709,1366.481079 987.318359,1366.336670 &#10;&#9;C967.413208,1365.821045 947.448730,1366.197754 927.555908,1367.206787 &#10;&#9;C917.875427,1367.697632 910.138000,1373.647827 904.073792,1381.027710 &#10;&#9;C900.083252,1385.884033 896.936035,1391.433228 893.141663,1397.072754 &#10;&#9;C892.323303,1395.427612 891.597351,1393.994629 890.894104,1392.550537 &#10;&#9;C882.140381,1374.576782 867.408264,1366.219238 847.779907,1366.030151 &#10;&#9;C832.119080,1365.879272 816.455505,1365.983521 800.793335,1366.024292 &#10;&#9;C799.165344,1366.028564 797.510376,1366.239624 795.915161,1366.577393 &#10;&#9;C784.156128,1369.066895 775.790039,1376.735107 768.359436,1385.415283 &#10;&#9;C762.057617,1392.776733 759.803101,1401.490601 759.853149,1411.406616 &#10;&#9;C760.150879,1470.388672 760.008911,1529.373047 759.964783,1588.356567 &#10;&#9;C759.963074,1590.630005 759.452148,1592.903076 759.104492,1595.625732 &#10;&#9;C759.078918,1607.346191 759.127441,1618.617188 759.108459,1630.236572 &#10;&#9;C759.027283,1631.056519 759.013611,1631.528320 759.000000,1632.000000 &#10;&#9;C748.976685,1632.000000 738.953369,1632.000000 728.463989,1631.531372 &#10;&#9;C727.998840,1557.401245 728.027832,1483.739868 727.920959,1410.078491 &#10;&#9;C727.915344,1406.220215 727.145996,1402.249756 726.060120,1398.527588 &#10;&#9;C722.824097,1387.434814 715.061951,1379.703247 706.096130,1373.051025 &#10;&#9;C699.316040,1368.020264 691.850952,1365.732056 683.149292,1365.856934 &#10;&#9;C655.990173,1366.246582 628.819702,1365.830078 601.659302,1366.173096 &#10;&#9;C597.309509,1366.228027 592.805359,1368.166748 588.711609,1369.993896 &#10;&#9;C585.343567,1371.497314 582.193054,1373.813110 579.441040,1376.313477 &#10;&#9;C569.353760,1385.478394 561.729004,1395.449707 561.813049,1410.516602 &#10;&#9;C562.225220,1484.342407 562.000000,1558.171875 562.000000,1632.000000 &#10;&#9;C551.976685,1632.000000 541.953369,1632.000000 531.465454,1631.531372 &#10;&#9;C531.000854,1609.474854 531.000854,1587.886963 531.000854,1565.888306 &#10;&#9;C497.351196,1565.888306 464.425201,1565.888306 431.605499,1565.888306 &#10;&#9;C431.605499,1554.168213 431.605499,1542.877197 431.605499,1531.169434 &#10;&#9;C464.686218,1531.169434 497.156189,1531.169434 529.590210,1531.169434 &#10;&#9;C529.590210,1508.963013 529.590210,1487.586304 529.590210,1466.000488 &#10;&#9;C498.859100,1466.000488 468.537262,1466.000732 438.215454,1466.000244 &#10;&#9;C436.882294,1466.000244 435.544403,1466.064575 434.216919,1465.976074 &#10;&#9;C431.130310,1465.770264 429.894348,1463.947144 430.016174,1460.993530 &#10;&#9;C430.349701,1452.907837 431.018707,1444.815430 430.872498,1436.738037 &#10;&#9;C430.785767,1431.945801 432.447662,1430.882080 436.932831,1430.909180 &#10;&#9;C466.094879,1431.086060 495.258514,1431.000000 524.421631,1431.000000 &#10;&#9;C526.179993,1431.000000 527.938354,1431.000000 529.735474,1431.000000 &#10;&#9;C529.735474,1409.019531 529.735474,1387.761353 529.735474,1366.000000 &#10;&#9;C527.524231,1366.000000 525.569946,1366.000000 523.615723,1366.000000 &#10;&#9;C486.620239,1366.000000 449.621124,1366.289062 412.631470,1365.824341 &#10;&#9;C401.505524,1365.684448 391.686829,1367.932251 383.477386,1375.292847 &#10;&#9;C372.847778,1384.823242 364.071625,1394.676392 364.666504,1411.139526 &#10;&#9;C365.811096,1442.815063 365.000031,1474.561157 365.000000,1506.278076 &#10;&#9;C364.999969,1534.274658 365.061768,1562.271484 364.951691,1590.267578 &#10;&#9;C364.927521,1596.416748 366.534698,1601.869629 369.965118,1606.912964 &#10;&#9;C376.806091,1616.970703 384.574005,1625.931274 396.479218,1630.241455 &#10;&#9;C396.820282,1630.365112 396.833771,1631.393555 397.000000,1632.000000 &#10;&#9;C361.643341,1632.000000 326.286682,1632.000000 290.462769,1631.531372 &#10;&#9;C289.991669,1566.396484 290.037537,1501.730103 289.883942,1437.064209 &#10;&#9;C289.872375,1432.204102 291.306091,1430.802490 296.103149,1430.897095 &#10;&#9;C310.575256,1431.182617 325.056610,1431.000244 338.974487,1431.000244 &#10;&#9;C338.974487,1409.171265 338.974487,1387.732666 338.974487,1366.372559 &#10;&#9;C272.427643,1366.372559 206.582932,1366.372559 139.984528,1366.372559 &#10;&#9;C161.315155,1383.182983 172.369080,1404.687988 174.502274,1431.000000 &#10;&#9;C188.476273,1431.000000 202.132294,1430.998779 215.788300,1431.000366 &#10;&#9;C223.995026,1431.001343 223.998520,1431.003418 223.998688,1439.001343 &#10;&#9;C223.999939,1503.334229 223.999756,1567.667114 224.000000,1632.000000 &#10;&#9;C149.685608,1632.000000 75.371223,1632.000000 1.000000,1632.000000 &#10;&#9;C1.000000,1144.310059 1.000000,656.619995 1.352707,168.471466 &#10;&#9;C8.297888,174.700577 15.044025,181.244934 21.447121,188.109268 &#10;&#9;C31.255396,198.624115 41.293911,208.977707 50.387218,220.093048 &#10;&#9;C63.148438,235.691925 75.776543,251.478851 87.271584,268.012665 &#10;&#9;C99.301071,285.315155 110.609444,303.208710 120.971733,321.556244 &#10;&#9;C132.009476,341.099792 142.338333,361.130890 151.570465,381.583862 &#10;&#9;C161.916199,404.503937 170.610794,428.166199 180.159042,451.450073 &#10;&#9;C193.298660,483.491730 206.625809,515.456543 219.758331,547.501099 &#10;&#9;C230.535263,573.797852 241.080139,600.189575 251.846085,626.490845 &#10;&#9;C265.092224,658.851257 278.530090,691.133240 291.756104,723.501831 &#10;&#9;C303.312927,751.785522 314.600708,780.179260 326.172394,808.456787 &#10;&#9;C338.607727,838.844727 351.296417,869.129028 363.759491,899.505676 &#10;&#9;C373.310577,922.784790 382.670105,946.142456 392.138611,969.455505 &#10;&#9;C400.808197,990.801453 409.490662,1012.142090 418.202576,1033.470703 &#10;&#9;C426.360504,1053.443237 434.576355,1073.391846 442.745178,1093.359863 &#10;&#9;C452.583160,1117.407959 462.382996,1141.471802 472.233521,1165.514771 &#10;&#9;C474.999146,1172.264893 477.884827,1178.965698 481.080048,1186.555176 &#10;&#9;C549.210144,1019.339966 616.907593,853.186707 684.604980,687.033447 &#10;&#9;C685.121521,687.174011 685.638062,687.314514 686.154602,687.455017 &#10;&#9;C753.886902,853.703857 821.619202,1019.952637 889.494751,1186.552979 &#10;&#9;C896.675171,1169.674072 903.784058,1153.169067 910.726624,1136.594482 &#10;&#9;C920.507751,1113.243286 930.118347,1089.820557 939.889282,1066.465088 &#10;&#9;C949.795837,1042.785889 959.915771,1019.195435 969.731079,995.478699 &#10;&#9;C974.860046,983.085388 974.654907,983.000366 988.027710,983.000366 &#10;&#9;C1122.194092,983.000305 1256.360352,982.985840 1390.526733,983.069336 &#10;&#9;C1394.692749,983.071899 1396.704590,982.135193 1398.334229,977.739319 &#10;&#9;C1403.045898,965.030090 1408.685913,952.664917 1413.965088,940.166199 &#10;&#9;C1424.907593,914.259521 1435.908325,888.377319 1446.781372,862.441467 &#10;&#9;C1458.593872,834.263977 1470.297363,806.040771 1482.026855,777.828552 &#10;&#9;C1484.290283,772.384460 1486.453735,766.898743 1488.956787,760.706543 &#10;&#9;C1348.035645,760.706543 1208.159058,760.706543 1067.922607,760.706543 &#10;&#9;C1069.085938,757.792969 1070.017090,755.373169 1071.013062,752.980225 &#10;&#9;C1079.363525,732.914673 1087.781616,712.876953 1096.044312,692.775330 &#10;&#9;C1098.004639,688.006042 1100.603516,685.833862 1106.342773,685.842407 &#10;&#9;C1242.175415,686.044617 1378.008545,685.999329 1513.841553,685.999268 &#10;&#9;C1515.998169,685.999268 1518.154663,685.999268 1520.438843,685.999268 &#10;&#9;C1551.371826,612.064880 1582.237183,538.292053 1613.382568,463.849854 &#10;&#9;C1472.780884,463.849854 1333.024414,463.849854 1192.969849,463.849854 &#10;&#9;C1193.192261,462.592560 1193.191406,461.749725 1193.489990,461.031342 &#10;&#9;C1202.644897,439.002472 1212.027222,417.064758 1220.851685,394.904816 &#10;&#9;C1222.760498,390.111298 1225.189941,388.907318 1229.969971,388.911194 &#10;&#9;C1365.802856,389.021362 1501.635864,388.987000 1637.468872,389.072418 &#10;&#9;C1640.964233,389.074615 1643.056152,388.463928 1644.649658,384.925812 &#10;&#9;C1650.625366,371.659637 1656.787720,358.467194 1663.277466,345.445160 &#10;&#9;C1677.257324,317.394409 1693.238892,290.497498 1712.069824,265.435120 &#10;&#9;C1727.226074,245.263184 1742.657715,225.256348 1758.875244,205.938522 &#10;&#9;C1769.320190,193.496613 1781.391235,182.417572 1792.792603,170.785629 &#10;&#9;C1793.614014,169.947617 1794.919556,169.584106 1796.000000,169.000000 &#10;M1106.999512,1368.528320 &#10;&#9;C1117.204956,1378.231079 1127.410400,1387.933838 1137.823120,1397.833618 &#10;&#9;C1142.853638,1392.751465 1148.145752,1387.690552 1153.100342,1382.318481 &#10;&#9;C1157.925049,1377.087280 1164.135498,1373.034790 1168.000000,1366.000488 &#10;&#9;C1157.479248,1366.000488 1147.839722,1366.000488 1138.200195,1366.000610 &#10;&#9;C1128.388794,1366.000732 1118.576782,1365.956543 1108.767944,1366.115967 &#10;&#9;C1108.206665,1366.125122 1104.430908,1364.147217 1106.999512,1368.528320 &#10;z" style="fill: rgba(0, 0, 0, 0);" transform="matrix(1, 0, 0, 1, 1.4210854715202004e-14, 0)"/>
  <path fill="#DE222A" opacity="1.000000" stroke="none" d="&#10;M1796.000000,168.666672 &#10;&#9;C1794.919556,169.584106 1793.614014,169.947617 1792.792603,170.785629 &#10;&#9;C1781.391235,182.417572 1769.320190,193.496613 1758.875244,205.938522 &#10;&#9;C1742.657715,225.256348 1727.226074,245.263184 1712.069824,265.435120 &#10;&#9;C1693.238892,290.497498 1677.257324,317.394409 1663.277466,345.445160 &#10;&#9;C1656.787720,358.467194 1650.625366,371.659637 1644.649658,384.925812 &#10;&#9;C1643.056152,388.463928 1640.964233,389.074615 1637.468872,389.072418 &#10;&#9;C1501.635864,388.987000 1365.802856,389.021362 1229.969971,388.911194 &#10;&#9;C1225.189941,388.907318 1222.760498,390.111298 1220.851685,394.904816 &#10;&#9;C1212.027222,417.064758 1202.644897,439.002472 1193.489990,461.031342 &#10;&#9;C1193.191406,461.749725 1193.192261,462.592560 1192.969849,463.849854 &#10;&#9;C1333.024414,463.849854 1472.780884,463.849854 1613.382568,463.849854 &#10;&#9;C1582.237183,538.292053 1551.371826,612.064880 1520.438843,685.999268 &#10;&#9;C1518.154663,685.999268 1515.998169,685.999268 1513.841553,685.999268 &#10;&#9;C1378.008545,685.999329 1242.175415,686.044617 1106.342773,685.842407 &#10;&#9;C1100.603516,685.833862 1098.004639,688.006042 1096.044312,692.775330 &#10;&#9;C1087.781616,712.876953 1079.363525,732.914673 1071.013062,752.980225 &#10;&#9;C1070.017090,755.373169 1069.085938,757.792969 1067.922607,760.706543 &#10;&#9;C1208.159058,760.706543 1348.035645,760.706543 1488.956787,760.706543 &#10;&#9;C1486.453735,766.898743 1484.290283,772.384460 1482.026855,777.828552 &#10;&#9;C1470.297363,806.040771 1458.593872,834.263977 1446.781372,862.441467 &#10;&#9;C1435.908325,888.377319 1424.907593,914.259521 1413.965088,940.166199 &#10;&#9;C1408.685913,952.664917 1403.045898,965.030090 1398.334229,977.739319 &#10;&#9;C1396.704590,982.135193 1394.692749,983.071899 1390.526733,983.069336 &#10;&#9;C1256.360352,982.985840 1122.194092,983.000305 988.027710,983.000366 &#10;&#9;C974.654907,983.000366 974.860046,983.085388 969.731079,995.478699 &#10;&#9;C959.915771,1019.195435 949.795837,1042.785889 939.889282,1066.465088 &#10;&#9;C930.118347,1089.820557 920.507751,1113.243286 910.726624,1136.594482 &#10;&#9;C903.784058,1153.169067 896.675171,1169.674072 889.494751,1186.552979 &#10;&#9;C821.619202,1019.952637 753.886902,853.703857 686.154602,687.455017 &#10;&#9;C685.638062,687.314514 685.121521,687.174011 684.604980,687.033447 &#10;&#9;C616.907593,853.186707 549.210144,1019.339966 481.080048,1186.555176 &#10;&#9;C477.884827,1178.965698 474.999146,1172.264893 472.233521,1165.514771 &#10;&#9;C462.382996,1141.471802 452.583160,1117.407959 442.745178,1093.359863 &#10;&#9;C434.576355,1073.391846 426.360504,1053.443237 418.202576,1033.470703 &#10;&#9;C409.490662,1012.142090 400.808197,990.801453 392.138611,969.455505 &#10;&#9;C382.670105,946.142456 373.310577,922.784790 363.759491,899.505676 &#10;&#9;C351.296417,869.129028 338.607727,838.844727 326.172394,808.456787 &#10;&#9;C314.600708,780.179260 303.312927,751.785522 291.756104,723.501831 &#10;&#9;C278.530090,691.133240 265.092224,658.851257 251.846085,626.490845 &#10;&#9;C241.080139,600.189575 230.535263,573.797852 219.758331,547.501099 &#10;&#9;C206.625809,515.456543 193.298660,483.491730 180.159042,451.450073 &#10;&#9;C170.610794,428.166199 161.916199,404.503937 151.570465,381.583862 &#10;&#9;C142.338333,361.130890 132.009476,341.099792 120.971733,321.556244 &#10;&#9;C110.609444,303.208710 99.301071,285.315155 87.271584,268.012665 &#10;&#9;C75.776543,251.478851 63.148438,235.691925 50.387218,220.093048 &#10;&#9;C41.293911,208.977707 31.255396,198.624115 21.447121,188.109268 &#10;&#9;C15.044025,181.244934 8.297888,174.700577 1.352707,168.006439 &#10;&#9;C1.000000,168.000000 1.000000,167.500000 1.468651,167.252686 &#10;&#9;C44.922726,167.003357 87.908150,167.000122 130.893570,166.999527 &#10;&#9;C200.869858,166.998566 270.846130,167.009048 340.822388,166.967163 &#10;&#9;C343.937622,166.965302 346.447174,166.968201 347.964294,170.619049 &#10;&#9;C359.436646,198.226807 371.051422,225.775803 382.723022,253.300201 &#10;&#9;C396.254852,285.211456 409.915771,317.067963 423.473114,348.968445 &#10;&#9;C437.469391,381.901733 451.423157,414.853058 465.366425,447.808807 &#10;&#9;C472.434174,464.513733 479.406830,481.258942 486.505096,497.950806 &#10;&#9;C487.522705,500.343781 489.006622,502.538483 490.661621,505.522491 &#10;&#9;C494.693146,495.278442 498.398743,486.072174 501.948059,476.806061 &#10;&#9;C514.795410,443.266418 527.536865,409.686127 540.420288,376.160370 &#10;&#9;C552.543457,344.613098 564.806213,313.119476 576.987305,281.594421 &#10;&#9;C585.634338,259.215454 594.244934,236.822433 602.876831,214.437637 &#10;&#9;C612.923401,188.384384 622.985107,162.336960 633.022278,136.280106 &#10;&#9;C642.703125,111.148247 652.367371,86.010002 662.027222,60.870045 &#10;&#9;C669.694031,40.916904 677.343079,20.956938 685.000000,0.999999 &#10;&#9;C685.000000,1.000000 685.500000,1.000000 685.751282,1.385106 &#10;&#9;C686.015869,2.103339 685.936096,2.474946 686.055725,2.764130 &#10;&#9;C694.984131,24.357889 703.909607,45.952950 712.875977,67.530998 &#10;&#9;C725.478882,97.860657 738.174988,128.151749 750.715942,158.507004 &#10;&#9;C762.253479,186.433792 773.587158,214.444748 785.105896,242.379333 &#10;&#9;C795.572754,267.763031 806.213623,293.074951 816.693542,318.453308 &#10;&#9;C827.539185,344.717316 838.276550,371.026031 849.073914,397.310028 &#10;&#9;C857.393677,417.562683 865.704590,437.819122 874.072510,458.051910 &#10;&#9;C880.544250,473.699860 887.098328,489.313782 893.930969,505.698639 &#10;&#9;C894.870239,504.229492 895.574341,503.405151 895.979431,502.453522 &#10;&#9;C903.024475,485.903290 910.049561,469.344482 917.044617,452.773041 &#10;&#9;C924.098267,436.062836 931.054321,419.311188 938.161377,402.623779 &#10;&#9;C946.996948,381.877777 955.965088,361.188324 964.835388,340.457062 &#10;&#9;C971.908813,323.925415 978.942383,307.376678 985.955505,290.819336 &#10;&#9;C994.816467,269.899506 1003.614807,248.953125 1012.484863,228.037155 &#10;&#9;C1020.271484,209.676224 1028.388306,191.448257 1035.755005,172.921234 &#10;&#9;C1037.629028,168.208054 1039.755737,166.902359 1044.545776,166.904419 &#10;&#9;C1295.030518,167.012192 1545.515259,166.999771 1796.000000,167.000000 &#10;&#9;C1796.000000,167.444443 1796.000000,167.888901 1796.000000,168.666672 &#10;z" transform="matrix(1, 0, 0, 1, 1.4210854715202004e-14, 0)"/>
  <path opacity="1.000000" stroke="none" d="&#10;M1796.000000,166.531342 &#10;&#9;C1545.515259,166.999771 1295.030518,167.012192 1044.545776,166.904419 &#10;&#9;C1039.755737,166.902359 1037.629028,168.208054 1035.755005,172.921234 &#10;&#9;C1028.388306,191.448257 1020.271484,209.676224 1012.484863,228.037155 &#10;&#9;C1003.614807,248.953125 994.816467,269.899506 985.955505,290.819336 &#10;&#9;C978.942383,307.376678 971.908813,323.925415 964.835388,340.457062 &#10;&#9;C955.965088,361.188324 946.996948,381.877777 938.161377,402.623779 &#10;&#9;C931.054321,419.311188 924.098267,436.062836 917.044617,452.773041 &#10;&#9;C910.049561,469.344482 903.024475,485.903290 895.979431,502.453522 &#10;&#9;C895.574341,503.405151 894.870239,504.229492 893.930969,505.698639 &#10;&#9;C887.098328,489.313782 880.544250,473.699860 874.072510,458.051910 &#10;&#9;C865.704590,437.819122 857.393677,417.562683 849.073914,397.310028 &#10;&#9;C838.276550,371.026031 827.539185,344.717316 816.693542,318.453308 &#10;&#9;C806.213623,293.074951 795.572754,267.763031 785.105896,242.379333 &#10;&#9;C773.587158,214.444748 762.253479,186.433792 750.715942,158.507004 &#10;&#9;C738.174988,128.151749 725.478882,97.860657 712.875977,67.530998 &#10;&#9;C703.909607,45.952950 694.984131,24.357889 686.055725,2.764130 &#10;&#9;C685.936096,2.474946 686.015869,2.103339 686.001282,1.385106 &#10;&#9;C1056.000000,1.000000 1426.000000,1.000000 1796.000000,1.000000 &#10;&#9;C1796.000000,56.100452 1796.000000,111.081566 1796.000000,166.531342 &#10;z" style="fill: rgba(0, 0, 0, 0);" transform="matrix(1, 0, 0, 1, 1.4210854715202004e-14, 0)"/>
  <path opacity="1.000000" stroke="none" d="&#10;M684.531372,0.999999 &#10;&#9;C677.343079,20.956938 669.694031,40.916904 662.027222,60.870045 &#10;&#9;C652.367371,86.010002 642.703125,111.148247 633.022278,136.280106 &#10;&#9;C622.985107,162.336960 612.923401,188.384384 602.876831,214.437637 &#10;&#9;C594.244934,236.822433 585.634338,259.215454 576.987305,281.594421 &#10;&#9;C564.806213,313.119476 552.543457,344.613098 540.420288,376.160370 &#10;&#9;C527.536865,409.686127 514.795410,443.266418 501.948059,476.806061 &#10;&#9;C498.398743,486.072174 494.693146,495.278442 490.661621,505.522491 &#10;&#9;C489.006622,502.538483 487.522705,500.343781 486.505096,497.950806 &#10;&#9;C479.406830,481.258942 472.434174,464.513733 465.366425,447.808807 &#10;&#9;C451.423157,414.853058 437.469391,381.901733 423.473114,348.968445 &#10;&#9;C409.915771,317.067963 396.254852,285.211456 382.723022,253.300201 &#10;&#9;C371.051422,225.775803 359.436646,198.226807 347.964294,170.619049 &#10;&#9;C346.447174,166.968201 343.937622,166.965302 340.822388,166.967163 &#10;&#9;C270.846130,167.009048 200.869858,166.998566 130.893570,166.999527 &#10;&#9;C87.908150,167.000122 44.922726,167.003357 1.468651,167.002686 &#10;&#9;C1.000000,111.695152 1.000000,56.390305 1.000000,1.000000 &#10;&#9;C228.687561,1.000000 456.375122,1.000000 684.531372,0.999999 &#10;z" style="fill: rgba(0, 0, 0, 0);" transform="matrix(1, 0, 0, 1, 1.4210854715202004e-14, 0)"/>
  <path fill="#DE222A" opacity="1.000000" stroke="none" d="&#10;M759.178528,1595.176392 &#10;&#9;C759.452148,1592.903076 759.963074,1590.630005 759.964783,1588.356567 &#10;&#9;C760.008911,1529.373047 760.150879,1470.388672 759.853149,1411.406616 &#10;&#9;C759.803101,1401.490601 762.057617,1392.776733 768.359436,1385.415283 &#10;&#9;C775.790039,1376.735107 784.156128,1369.066895 795.915161,1366.577393 &#10;&#9;C797.510376,1366.239624 799.165344,1366.028564 800.793335,1366.024292 &#10;&#9;C816.455505,1365.983521 832.119080,1365.879272 847.779907,1366.030151 &#10;&#9;C867.408264,1366.219238 882.140381,1374.576782 890.894104,1392.550537 &#10;&#9;C891.597351,1393.994629 892.323303,1395.427612 893.141663,1397.072754 &#10;&#9;C896.936035,1391.433228 900.083252,1385.884033 904.073792,1381.027710 &#10;&#9;C910.138000,1373.647827 917.875427,1367.697632 927.555908,1367.206787 &#10;&#9;C947.448730,1366.197754 967.413208,1365.821045 987.318359,1366.336670 &#10;&#9;C992.889709,1366.481079 998.842834,1369.905029 1003.769897,1373.126221 &#10;&#9;C1013.817566,1379.695190 1021.623596,1388.460938 1025.087280,1400.357788 &#10;&#9;C1025.671753,1402.365234 1025.961914,1404.531982 1025.963135,1406.625244 &#10;&#9;C1026.006104,1481.437744 1025.998291,1556.250244 1025.998779,1631.531372 &#10;&#9;C1004.312439,1632.000000 982.624878,1632.000000 960.490479,1631.751099 &#10;&#9;C960.043640,1631.502197 960.175598,1631.020264 960.324341,1630.635254 &#10;&#9;C960.648376,1628.271240 960.975525,1626.292603 960.976868,1624.313599 &#10;&#9;C961.006104,1581.066162 961.010925,1537.818848 960.963318,1494.571411 &#10;&#9;C960.960938,1492.449463 960.439209,1490.328125 960.083374,1487.730103 &#10;&#9;C960.004089,1470.257935 959.872925,1453.260498 960.087341,1436.267334 &#10;&#9;C960.141296,1431.994507 958.678040,1430.778320 954.601624,1430.925659 &#10;&#9;C947.279602,1431.190186 939.941162,1430.996826 932.609619,1431.000977 &#10;&#9;C926.009033,1431.004761 926.001343,1431.008423 926.001160,1437.547119 &#10;&#9;C925.999207,1502.364746 926.000000,1567.182373 926.000000,1632.000000 &#10;&#9;C904.312439,1632.000000 882.624878,1632.000000 860.469849,1631.531372 &#10;&#9;C860.001831,1566.414917 859.954529,1501.766846 860.096619,1437.119385 &#10;&#9;C860.107117,1432.356323 858.859070,1430.625854 853.951965,1430.900757 &#10;&#9;C846.975891,1431.291626 839.955505,1431.182373 832.965332,1430.949219 &#10;&#9;C825.779541,1430.709717 824.894348,1432.091431 824.948181,1438.744385 &#10;&#9;C825.374695,1491.499023 825.678528,1544.254639 825.988403,1597.010132 &#10;&#9;C826.056885,1608.673096 825.999451,1620.336670 826.000000,1632.000000 &#10;&#9;C803.979126,1632.000000 781.958191,1632.000000 759.468628,1632.000000 &#10;&#9;C759.013611,1631.528320 759.027283,1631.056519 759.292725,1629.877686 &#10;&#9;C759.422485,1617.839233 759.300537,1606.507812 759.178528,1595.176392 &#10;z" transform="matrix(1, 0, 0, 1, 1.4210854715202004e-14, 0)"/>
  <path fill="#DE222A" opacity="1.000000" stroke="none" d="&#10;M1138.468628,1632.000000 &#10;&#9;C1137.832642,1631.393433 1137.811279,1630.355713 1137.476807,1630.242432 &#10;&#9;C1123.936279,1625.654785 1114.905151,1615.814819 1107.831421,1604.076172 &#10;&#9;C1105.648682,1600.453979 1104.173096,1595.773193 1104.159058,1591.571167 &#10;&#9;C1103.935669,1524.925049 1104.002808,1458.278076 1104.010864,1391.631226 &#10;&#9;C1104.010986,1391.020996 1104.112305,1390.410645 1104.168579,1389.776245 &#10;&#9;C1114.667847,1400.433105 1125.003052,1410.923218 1135.972534,1422.057129 &#10;&#9;C1147.641113,1410.637939 1158.429932,1400.079590 1169.998779,1388.757935 &#10;&#9;C1169.998779,1391.587646 1169.998901,1393.352173 1169.998901,1395.116821 &#10;&#9;C1169.998169,1449.933594 1170.058472,1504.750610 1169.892334,1559.566772 &#10;&#9;C1169.877319,1564.501343 1171.008911,1566.413818 1176.236450,1566.110474 &#10;&#9;C1183.708984,1565.676880 1191.234375,1565.780029 1198.719849,1566.084839 &#10;&#9;C1202.992554,1566.258911 1204.084229,1564.682251 1204.073486,1560.607788 &#10;&#9;C1203.953613,1514.788452 1203.992920,1468.968750 1203.990356,1423.149048 &#10;&#9;C1203.989258,1404.341431 1203.990112,1385.533813 1203.990112,1366.363770 &#10;&#9;C1226.003784,1366.363770 1247.711304,1366.363770 1270.000488,1366.363770 &#10;&#9;C1270.000488,1368.388062 1270.000366,1370.332275 1270.000366,1372.276367 &#10;&#9;C1270.000122,1434.757690 1270.060547,1497.239258 1269.888062,1559.720093 &#10;&#9;C1269.873901,1564.854736 1271.365601,1566.389404 1276.389893,1566.103394 &#10;&#9;C1283.531372,1565.696777 1290.726807,1565.730591 1297.872925,1566.094360 &#10;&#9;C1302.657959,1566.337891 1304.113770,1564.838867 1304.101685,1559.956421 &#10;&#9;C1303.947388,1497.475464 1304.000854,1434.993896 1304.001465,1372.512573 &#10;&#9;C1304.001465,1370.544067 1304.001343,1368.575562 1304.001343,1366.310547 &#10;&#9;C1326.001221,1366.310547 1347.590454,1366.310547 1370.000000,1366.310547 &#10;&#9;C1370.000000,1368.281128 1370.000000,1370.359863 1370.000000,1372.438721 &#10;&#9;C1370.000000,1445.416992 1369.949585,1518.395264 1370.070679,1591.373291 &#10;&#9;C1370.084229,1599.525146 1366.497681,1605.768799 1361.729492,1611.823853 &#10;&#9;C1354.904419,1620.490723 1346.145020,1626.555908 1336.699463,1631.695557 &#10;&#9;C1316.312378,1632.000000 1295.624878,1632.000000 1274.650879,1631.614990 &#10;&#9;C1272.233643,1630.653320 1270.086182,1630.132202 1267.975098,1629.490845 &#10;&#9;C1257.448120,1626.293213 1249.904663,1619.339966 1244.089844,1610.293823 &#10;&#9;C1242.109253,1607.212769 1240.347778,1603.990967 1238.130371,1600.229980 &#10;&#9;C1234.960205,1604.946289 1232.366211,1609.021606 1229.556030,1612.942017 &#10;&#9;C1223.136841,1621.897339 1215.271851,1628.724487 1203.752563,1630.093506 &#10;&#9;C1203.102051,1630.170776 1202.581177,1631.339355 1202.000000,1632.000000 &#10;&#9;C1180.979126,1632.000000 1159.958130,1632.000000 1138.468628,1632.000000 &#10;z" transform="matrix(1, 0, 0, 1, 1.4210854715202004e-14, 0)"/>
  <path fill="#DE222A" opacity="1.000000" stroke="none" d="&#10;M562.468628,1632.000000 &#10;&#9;C562.000000,1558.171875 562.225220,1484.342407 561.813049,1410.516602 &#10;&#9;C561.729004,1395.449707 569.353760,1385.478394 579.441040,1376.313477 &#10;&#9;C582.193054,1373.813110 585.343567,1371.497314 588.711609,1369.993896 &#10;&#9;C592.805359,1368.166748 597.309509,1366.228027 601.659302,1366.173096 &#10;&#9;C628.819702,1365.830078 655.990173,1366.246582 683.149292,1365.856934 &#10;&#9;C691.850952,1365.732056 699.316040,1368.020264 706.096130,1373.051025 &#10;&#9;C715.061951,1379.703247 722.824097,1387.434814 726.060120,1398.527588 &#10;&#9;C727.145996,1402.249756 727.915344,1406.220215 727.920959,1410.078491 &#10;&#9;C728.027832,1483.739868 727.998840,1557.401245 727.999023,1631.531372 &#10;&#9;C706.312439,1632.000000 684.624878,1632.000000 662.468933,1631.531372 &#10;&#9;C662.000305,1599.929443 661.927368,1568.795898 662.084473,1537.663452 &#10;&#9;C662.106079,1533.378784 660.999084,1531.755981 656.501038,1531.905151 &#10;&#9;C647.276123,1532.211304 638.033997,1531.997192 628.000000,1531.997192 &#10;&#9;C628.000000,1565.244141 628.000000,1598.622070 628.000000,1632.000000 &#10;&#9;C606.312439,1632.000000 584.624878,1632.000000 562.468628,1632.000000 &#10;M627.999390,1440.581421 &#10;&#9;C628.000427,1447.573853 628.100769,1454.568237 627.957458,1461.557617 &#10;&#9;C627.892944,1464.702759 628.900879,1466.102051 632.235535,1466.045410 &#10;&#9;C640.723877,1465.901001 649.217896,1465.900391 657.706177,1466.046631 &#10;&#9;C660.981140,1466.103027 662.098206,1464.846558 662.046265,1461.636963 &#10;&#9;C661.906189,1452.981934 661.842712,1444.318970 662.070068,1435.667725 &#10;&#9;C662.172485,1431.771606 660.544006,1430.856445 657.014465,1430.941650 &#10;&#9;C649.194153,1431.130249 641.356506,1431.233765 633.545166,1430.909668 &#10;&#9;C629.087585,1430.724609 627.378845,1432.277466 627.979309,1436.617188 &#10;&#9;C628.114929,1437.597290 627.999268,1438.612183 627.999390,1440.581421 &#10;z" transform="matrix(1, 0, 0, 1, 1.4210854715202004e-14, 0)"/>
  <path fill="#DE222A" opacity="1.000000" stroke="none" d="&#10;M1435.468750,1632.000000 &#10;&#9;C1434.957153,1631.507324 1435.052124,1630.650024 1434.851562,1630.574097 &#10;&#9;C1422.404785,1625.866943 1413.859009,1616.689087 1407.358643,1605.622681 &#10;&#9;C1404.987549,1601.586060 1403.207397,1596.508057 1403.182495,1591.894165 &#10;&#9;C1402.896362,1538.742310 1403.039429,1485.588013 1402.955444,1432.434814 &#10;&#9;C1402.943481,1424.830811 1402.222778,1417.230713 1402.028076,1409.623779 &#10;&#9;C1401.770874,1399.564941 1405.579224,1390.843994 1412.662109,1384.072021 &#10;&#9;C1418.796631,1378.206787 1425.781616,1373.170166 1432.740234,1368.262817 &#10;&#9;C1434.964722,1366.694092 1438.305176,1366.097412 1441.137451,1366.090820 &#10;&#9;C1494.623779,1365.968018 1548.110718,1366.000122 1601.597412,1366.005615 &#10;&#9;C1602.416504,1366.005615 1603.235596,1366.075562 1605.351074,1366.172119 &#10;&#9;C1586.196777,1384.350830 1570.008911,1403.396362 1567.927734,1431.000000 &#10;&#9;C1566.567139,1431.000000 1564.802612,1431.000000 1563.037964,1431.000000 &#10;&#9;C1533.545288,1431.000000 1504.052124,1431.084595 1474.560425,1430.909180 &#10;&#9;C1470.139038,1430.882812 1468.854492,1432.234009 1468.887817,1436.599121 &#10;&#9;C1468.948608,1444.531982 1468.494507,1452.481567 1467.936890,1460.401611 &#10;&#9;C1467.627808,1464.794434 1469.148315,1466.116089 1473.563599,1466.089966 &#10;&#9;C1503.055298,1465.915039 1532.548462,1465.999390 1562.041138,1465.999390 &#10;&#9;C1563.835083,1465.999390 1565.629150,1465.999390 1568.066772,1465.999390 &#10;&#9;C1568.066772,1488.081543 1568.066772,1509.720947 1568.066772,1531.996582 &#10;&#9;C1566.738281,1531.996582 1565.007446,1531.996582 1563.276611,1531.996582 &#10;&#9;C1533.450684,1531.996704 1503.624634,1532.031006 1473.798950,1531.957397 &#10;&#9;C1469.645752,1531.947144 1467.712036,1532.101196 1468.672119,1537.689941 &#10;&#9;C1469.895630,1544.813110 1468.989014,1552.302124 1468.999146,1559.633423 &#10;&#9;C1469.001831,1561.585938 1468.999512,1563.538452 1468.999512,1565.897705 &#10;&#9;C1502.435547,1565.897705 1535.358398,1565.897705 1568.998291,1565.897705 &#10;&#9;C1568.998291,1587.890625 1568.998291,1609.476685 1568.999146,1631.531372 &#10;&#9;C1524.645752,1632.000000 1480.291504,1632.000000 1435.468750,1632.000000 &#10;z" transform="matrix(1, 0, 0, 1, 1.4210854715202004e-14, 0)"/>
  <path fill="#DE222A" opacity="1.000000" stroke="none" d="&#10;M397.468689,1632.000000 &#10;&#9;C396.833771,1631.393555 396.820282,1630.365112 396.479218,1630.241455 &#10;&#9;C384.574005,1625.931274 376.806091,1616.970703 369.965118,1606.912964 &#10;&#9;C366.534698,1601.869629 364.927521,1596.416748 364.951691,1590.267578 &#10;&#9;C365.061768,1562.271484 364.999969,1534.274658 365.000000,1506.278076 &#10;&#9;C365.000031,1474.561157 365.811096,1442.815063 364.666504,1411.139526 &#10;&#9;C364.071625,1394.676392 372.847778,1384.823242 383.477386,1375.292847 &#10;&#9;C391.686829,1367.932251 401.505524,1365.684448 412.631470,1365.824341 &#10;&#9;C449.621124,1366.289062 486.620239,1366.000000 523.615723,1366.000000 &#10;&#9;C525.569946,1366.000000 527.524231,1366.000000 529.735474,1366.000000 &#10;&#9;C529.735474,1387.761353 529.735474,1409.019531 529.735474,1431.000000 &#10;&#9;C527.938354,1431.000000 526.179993,1431.000000 524.421631,1431.000000 &#10;&#9;C495.258514,1431.000000 466.094879,1431.086060 436.932831,1430.909180 &#10;&#9;C432.447662,1430.882080 430.785767,1431.945801 430.872498,1436.738037 &#10;&#9;C431.018707,1444.815430 430.349701,1452.907837 430.016174,1460.993530 &#10;&#9;C429.894348,1463.947144 431.130310,1465.770264 434.216919,1465.976074 &#10;&#9;C435.544403,1466.064575 436.882294,1466.000244 438.215454,1466.000244 &#10;&#9;C468.537262,1466.000732 498.859100,1466.000488 529.590210,1466.000488 &#10;&#9;C529.590210,1487.586304 529.590210,1508.963013 529.590210,1531.169434 &#10;&#9;C497.156189,1531.169434 464.686218,1531.169434 431.605499,1531.169434 &#10;&#9;C431.605499,1542.877197 431.605499,1554.168213 431.605499,1565.888306 &#10;&#9;C464.425201,1565.888306 497.351196,1565.888306 531.000854,1565.888306 &#10;&#9;C531.000854,1587.886963 531.000854,1609.474854 531.000427,1631.531372 &#10;&#9;C486.645782,1632.000000 442.291534,1632.000000 397.468689,1632.000000 &#10;z" transform="matrix(1, 0, 0, 1, 1.4210854715202004e-14, 0)"/>
  <path fill="#DE222A" opacity="1.000000" stroke="none" d="&#10;M224.468658,1632.000000 &#10;&#9;C223.999756,1567.667114 223.999939,1503.334229 223.998688,1439.001343 &#10;&#9;C223.998520,1431.003418 223.995026,1431.001343 215.788300,1431.000366 &#10;&#9;C202.132294,1430.998779 188.476273,1431.000000 174.502274,1431.000000 &#10;&#9;C172.369080,1404.687988 161.315155,1383.182983 139.984528,1366.372559 &#10;&#9;C206.582932,1366.372559 272.427643,1366.372559 338.974487,1366.372559 &#10;&#9;C338.974487,1387.732666 338.974487,1409.171265 338.974487,1431.000244 &#10;&#9;C325.056610,1431.000244 310.575256,1431.182617 296.103149,1430.897095 &#10;&#9;C291.306091,1430.802490 289.872375,1432.204102 289.883942,1437.064209 &#10;&#9;C290.037537,1501.730103 289.991669,1566.396484 289.997742,1631.531372 &#10;&#9;C268.312439,1632.000000 246.624878,1632.000000 224.468658,1632.000000 &#10;z" transform="matrix(1, 0, 0, 1, 1.4210854715202004e-14, 0)"/>
  <path opacity="1.000000" stroke="none" d="&#10;M826.468628,1632.000000 &#10;&#9;C825.999451,1620.336670 826.056885,1608.673096 825.988403,1597.010132 &#10;&#9;C825.678528,1544.254639 825.374695,1491.499023 824.948181,1438.744385 &#10;&#9;C824.894348,1432.091431 825.779541,1430.709717 832.965332,1430.949219 &#10;&#9;C839.955505,1431.182373 846.975891,1431.291626 853.951965,1430.900757 &#10;&#9;C858.859070,1430.625854 860.107117,1432.356323 860.096619,1437.119385 &#10;&#9;C859.954529,1501.766846 860.001831,1566.414917 860.001221,1631.531372 &#10;&#9;C848.979126,1632.000000 837.958191,1632.000000 826.468628,1632.000000 &#10;z" style="fill: rgba(0, 0, 0, 0);" transform="matrix(1, 0, 0, 1, 1.4210854715202004e-14, 0)"/>
  <path opacity="1.000000" stroke="none" d="&#10;M960.175598,1631.020264 &#10;&#9;C960.175598,1631.020264 960.043640,1631.502197 960.021851,1631.751099 &#10;&#9;C948.979126,1632.000000 937.958191,1632.000000 926.468628,1632.000000 &#10;&#9;C926.000000,1567.182373 925.999207,1502.364746 926.001160,1437.547119 &#10;&#9;C926.001343,1431.008423 926.009033,1431.004761 932.609619,1431.000977 &#10;&#9;C939.941162,1430.996826 947.279602,1431.190186 954.601624,1430.925659 &#10;&#9;C958.678040,1430.778320 960.141296,1431.994507 960.087341,1436.267334 &#10;&#9;C959.872925,1453.260498 960.004089,1470.257935 960.020264,1488.173584 &#10;&#9;C960.022095,1513.582642 959.984253,1538.071777 960.007812,1562.560913 &#10;&#9;C960.029724,1585.380737 960.117065,1608.200439 960.175598,1631.020264 &#10;z" style="fill: rgba(0, 0, 0, 0);" transform="matrix(1, 0, 0, 1, 1.4210854715202004e-14, 0)"/>
  <path opacity="1.000000" stroke="none" d="&#10;M628.468628,1632.000000 &#10;&#9;C628.000000,1598.622070 628.000000,1565.244141 628.000000,1531.997192 &#10;&#9;C638.033997,1531.997192 647.276123,1532.211304 656.501038,1531.905151 &#10;&#9;C660.999084,1531.755981 662.106079,1533.378784 662.084473,1537.663452 &#10;&#9;C661.927368,1568.795898 662.000305,1599.929443 662.000244,1631.531372 &#10;&#9;C650.979126,1632.000000 639.958191,1632.000000 628.468628,1632.000000 &#10;z" style="fill: rgba(0, 0, 0, 0);" transform="matrix(1, 0, 0, 1, 1.4210854715202004e-14, 0)"/>
  <path opacity="1.000000" stroke="none" d="&#10;M1202.468628,1632.000000 &#10;&#9;C1202.581177,1631.339355 1203.102051,1630.170776 1203.752563,1630.093506 &#10;&#9;C1215.271851,1628.724487 1223.136841,1621.897339 1229.556030,1612.942017 &#10;&#9;C1232.366211,1609.021606 1234.960205,1604.946289 1238.130371,1600.229980 &#10;&#9;C1240.347778,1603.990967 1242.109253,1607.212769 1244.089844,1610.293823 &#10;&#9;C1249.904663,1619.339966 1257.448120,1626.293213 1267.975098,1629.490845 &#10;&#9;C1270.086182,1630.132202 1272.233643,1630.653320 1274.182129,1631.614990 &#10;&#9;C1250.312378,1632.000000 1226.624878,1632.000000 1202.468628,1632.000000 &#10;z" style="fill: rgba(0, 0, 0, 0);" transform="matrix(1, 0, 0, 1, 1.4210854715202004e-14, 0)"/>
  <path fill="#DE222A" opacity="1.000000" stroke="none" d="&#10;M1106.755615,1368.265869 &#10;&#9;C1104.430908,1364.147217 1108.206665,1366.125122 1108.767944,1366.115967 &#10;&#9;C1118.576782,1365.956543 1128.388794,1366.000732 1138.200195,1366.000610 &#10;&#9;C1147.839722,1366.000488 1157.479248,1366.000488 1168.000000,1366.000488 &#10;&#9;C1164.135498,1373.034790 1157.925049,1377.087280 1153.100342,1382.318481 &#10;&#9;C1148.145752,1387.690552 1142.853638,1392.751465 1137.823120,1397.833618 &#10;&#9;C1127.410400,1387.933838 1117.204956,1378.231079 1106.755615,1368.265869 &#10;z" transform="matrix(1, 0, 0, 1, 1.4210854715202004e-14, 0)"/>
  <path fill="#FF0000" opacity="1.000000" stroke="none" d="&#10;M759.104492,1595.625732 &#10;&#9;C759.300537,1606.507812 759.422485,1617.839233 759.360229,1629.529419 &#10;&#9;C759.127441,1618.617188 759.078918,1607.346191 759.104492,1595.625732 &#10;z" transform="matrix(1, 0, 0, 1, 1.4210854715202004e-14, 0)"/>
  <path fill="#CC3333" opacity="1.000000" stroke="none" d="&#10;M960.324341,1630.635254 &#10;&#9;C960.117065,1608.200439 960.029724,1585.380737 960.007812,1562.560913 &#10;&#9;C959.984253,1538.071777 960.022095,1513.582642 960.096313,1488.649902 &#10;&#9;C960.439209,1490.328125 960.960938,1492.449463 960.963318,1494.571411 &#10;&#9;C961.010925,1537.818848 961.006104,1581.066162 960.976868,1624.313599 &#10;&#9;C960.975525,1626.292603 960.648376,1628.271240 960.324341,1630.635254 &#10;z" transform="matrix(1, 0, 0, 1, 1.4210854715202004e-14, 0)"/>
  <path opacity="1.000000" stroke="none" d="&#10;M627.999329,1440.096191 &#10;&#9;C627.999268,1438.612183 628.114929,1437.597290 627.979309,1436.617188 &#10;&#9;C627.378845,1432.277466 629.087585,1430.724609 633.545166,1430.909668 &#10;&#9;C641.356506,1431.233765 649.194153,1431.130249 657.014465,1430.941650 &#10;&#9;C660.544006,1430.856445 662.172485,1431.771606 662.070068,1435.667725 &#10;&#9;C661.842712,1444.318970 661.906189,1452.981934 662.046265,1461.636963 &#10;&#9;C662.098206,1464.846558 660.981140,1466.103027 657.706177,1466.046631 &#10;&#9;C649.217896,1465.900391 640.723877,1465.901001 632.235535,1466.045410 &#10;&#9;C628.900879,1466.102051 627.892944,1464.702759 627.957458,1461.557617 &#10;&#9;C628.100769,1454.568237 628.000427,1447.573853 627.999329,1440.096191 &#10;z" style="fill: rgba(0, 0, 0, 0);" transform="matrix(1, 0, 0, 1, 1.4210854715202004e-14, 0)"/>
</svg>