<?xml version="1.0" encoding="utf-8"?>
<svg viewBox="0 0 820 820" width="820" height="820" xmlns="http://www.w3.org/2000/svg">
  <path fill="#226CE3" opacity="1.000000" stroke="none" d="&#10;M17.201609,409.040894 &#10;&#9;C17.140383,409.197479 17.079161,409.354034 16.731527,410.107666 &#10;&#9;C16.302788,412.511353 16.041058,414.317719 16.037027,416.124695 &#10;&#9;C16.004854,430.549408 16.057219,444.974426 15.976057,459.398712 &#10;&#9;C15.966366,461.121124 15.860643,463.303558 14.864662,464.484131 &#10;&#9;C9.010859,471.422699 10.349174,477.341949 18.723658,480.580322 &#10;&#9;C18.891329,485.181641 18.675291,489.369263 19.190256,493.465027 &#10;&#9;C20.222466,501.674591 21.654295,509.833923 22.648411,518.210144 &#10;&#9;C20.797464,521.126770 19.473652,524.364014 15.253544,521.456665 &#10;&#9;C14.600251,518.676147 13.923617,516.332153 13.469377,513.945923 &#10;&#9;C12.586646,509.308655 11.828732,504.647614 11.210908,499.752991 &#10;&#9;C10.593101,498.676544 9.783498,497.843475 8.973892,497.010437 &#10;&#9;C8.973891,497.010437 8.879672,497.107056 8.899491,496.651794 &#10;&#9;C8.854228,494.873352 8.923144,493.527313 8.701670,492.230835 &#10;&#9;C7.523992,485.337067 6.126009,478.477753 5.092312,471.563446 &#10;&#9;C4.171940,465.407166 3.682870,459.187134 2.843161,453.017029 &#10;&#9;C2.742148,452.274811 1.638785,451.669037 1.000000,451.000000 &#10;&#9;C1.000000,432.312439 1.000000,413.624878 1.379638,394.473206 &#10;&#9;C3.494191,394.827728 5.549934,395.296234 6.900852,396.533997 &#10;&#9;C10.277607,399.627838 13.985727,401.400269 18.715439,401.380066 &#10;&#9;C18.279613,404.183075 17.740612,406.612000 17.201609,409.040894 &#10;z" transform="matrix(1, 0, 0, 1, -7.105427357601002e-15, 0)"/>
  <path fill="#2278E1" opacity="1.000000" stroke="none" d="&#10;M18.612259,401.005920 &#10;&#9;C13.985727,401.400269 10.277607,399.627838 6.900852,396.533997 &#10;&#9;C5.549934,395.296234 3.494191,394.827728 1.379638,394.004517 &#10;&#9;C1.000000,387.312347 1.000000,380.624725 1.377945,373.340576 &#10;&#9;C2.184754,371.404114 2.862419,370.089355 3.001229,368.719971 &#10;&#9;C3.776485,361.071869 4.369498,353.405121 5.174270,345.760468 &#10;&#9;C5.278933,344.766266 6.245073,343.862701 7.185984,343.006775 &#10;&#9;C10.514738,344.451538 13.979985,345.234894 16.298157,347.303650 &#10;&#9;C19.338991,350.017181 21.475277,353.744354 23.838551,357.393677 &#10;&#9;C23.464090,361.165680 23.251673,364.579651 23.029400,368.441406 &#10;&#9;C21.550449,379.594788 20.081354,390.300354 18.612259,401.005920 &#10;z" transform="matrix(1, 0, 0, 1, -7.105427357601002e-15, 0)"/>
  <path fill="#20C5E9" opacity="1.000000" stroke="none" d="&#10;M809.171997,48.005669 &#10;&#9;C809.171997,48.005669 809.038269,47.634243 809.402466,47.282303 &#10;&#9;C812.186035,42.225315 814.605408,37.520264 817.024841,32.815201 &#10;&#9;C818.105774,30.890148 819.186768,28.965099 820.633911,27.020025 &#10;&#9;C821.000000,30.692909 821.000000,34.385818 821.000000,38.539368 &#10;&#9;C819.661865,40.004711 818.323730,41.009418 816.622498,42.558716 &#10;&#9;C815.102722,44.719582 813.945984,46.335865 812.427612,47.961746 &#10;&#9;C811.101318,47.982792 810.136658,47.994228 809.171997,48.005669 &#10;z" transform="matrix(1, 0, 0, 1, -7.105427357601002e-15, 0)"/>
  <path fill="#1FD5EB" opacity="1.000000" stroke="none" d="&#10;M657.147827,218.676361 &#10;&#9;C656.723999,218.114334 656.300171,217.552322 655.454651,216.586700 &#10;&#9;C653.002625,213.786041 650.972351,211.388977 648.942078,208.991913 &#10;&#9;C648.942078,208.991898 649.009827,208.989334 648.987671,208.676849 &#10;&#9;C646.290894,205.907410 643.616272,203.450424 640.941650,200.993469 &#10;&#9;C640.941650,200.993469 641.009399,200.990448 640.978577,200.662231 &#10;&#9;C640.239868,198.859390 639.581665,197.358353 638.813416,195.915878 &#10;&#9;C637.373718,193.212646 638.703613,191.735733 641.157532,191.218536 &#10;&#9;C645.435913,190.316849 649.846985,189.986588 654.071594,188.905441 &#10;&#9;C657.813416,187.947845 661.377319,186.294754 665.019775,184.948700 &#10;&#9;C665.019775,184.948700 665.016785,185.014877 665.404297,185.064819 &#10;&#9;C668.769775,184.412628 671.871033,184.028748 674.697021,182.934219 &#10;&#9;C678.993408,181.270172 683.098877,179.113327 687.285461,177.165787 &#10;&#9;C687.661499,177.105850 688.037476,177.045898 689.044617,176.900574 &#10;&#9;C695.014099,174.261230 700.352417,171.707260 705.690796,169.153305 &#10;&#9;C707.746338,170.639084 709.902405,172.008316 711.815613,173.659058 &#10;&#9;C712.795593,174.504608 713.341125,175.853638 714.473145,177.430664 &#10;&#9;C719.525513,185.011642 724.187683,192.137070 728.849792,199.262497 &#10;&#9;C729.288757,199.840439 729.727722,200.418365 730.506226,201.443527 &#10;&#9;C732.346558,204.697403 733.693665,207.600601 735.381714,210.289764 &#10;&#9;C738.502869,215.262024 741.823730,220.108978 745.061401,225.008133 &#10;&#9;C745.061401,225.008133 744.995056,225.008408 744.945251,225.365677 &#10;&#9;C747.616333,230.818405 750.337219,235.913879 753.058167,241.009338 &#10;&#9;C753.058167,241.009338 752.992737,241.010422 752.946594,241.375763 &#10;&#9;C755.548950,247.597260 758.197510,253.453445 760.846069,259.309631 &#10;&#9;C761.228577,261.192474 761.611145,263.075348 762.410034,265.442993 &#10;&#9;C763.744934,268.833588 764.498352,271.806000 765.634888,274.623871 &#10;&#9;C766.533203,276.851166 767.902283,278.888611 769.062256,281.010376 &#10;&#9;C769.062256,281.010376 768.994629,281.008942 768.957764,281.397400 &#10;&#9;C770.560547,287.516693 772.140076,293.265656 773.865295,298.970673 &#10;&#9;C774.720642,301.799377 775.843689,304.547150 776.845642,307.331573 &#10;&#9;C777.230713,309.208008 777.615845,311.084442 778.415649,313.500122 &#10;&#9;C780.344116,322.694397 781.837891,331.353088 783.424133,339.994812 &#10;&#9;C783.514771,340.488770 784.360779,340.844055 784.855225,341.263885 &#10;&#9;C784.913635,344.858459 784.972046,348.453033 785.116333,352.880249 &#10;&#9;C785.764465,355.070312 786.704163,356.394379 786.827759,357.790649 &#10;&#9;C787.637146,366.934509 788.726562,376.087006 788.866638,385.249786 &#10;&#9;C789.168701,405.002838 788.956604,424.763824 788.942993,444.521545 &#10;&#9;C788.941956,446.013092 788.983215,447.524506 788.770569,448.992767 &#10;&#9;C787.609009,457.010651 786.374146,465.017883 785.164551,473.028809 &#10;&#9;C785.099365,475.312103 785.034119,477.595398 784.553711,480.487793 &#10;&#9;C783.743103,482.803101 783.448853,484.541077 782.925964,486.207306 &#10;&#9;C782.311462,488.165527 781.498474,490.061432 780.421936,491.963135 &#10;&#9;C777.776062,489.538940 774.354492,487.488556 773.463440,484.645203 &#10;&#9;C772.304626,480.947174 770.729431,479.698334 767.228699,479.989960 &#10;&#9;C764.132446,480.247925 763.269653,478.393555 761.595703,475.917664 &#10;&#9;C758.685730,471.614014 754.648376,467.089539 750.467041,464.723450 &#10;&#9;C746.344482,462.390533 746.005554,460.255554 745.995605,456.747711 &#10;&#9;C745.974121,449.190430 745.964111,449.190460 738.004883,449.069061 &#10;&#9;C738.004883,440.493774 738.076294,431.885895 737.953125,423.280762 &#10;&#9;C737.923523,421.206818 737.249329,419.142059 736.871582,417.073090 &#10;&#9;C736.518677,417.040070 736.165771,417.007050 735.495422,416.450378 &#10;&#9;C734.464233,407.928864 733.831421,399.922638 733.009766,391.935883 &#10;&#9;C732.408020,386.086517 731.602234,380.256287 730.757019,374.436462 &#10;&#9;C730.662842,373.787506 729.716125,373.262299 729.164734,372.679718 &#10;&#9;C729.101562,371.702545 729.038452,370.725342 728.969360,368.971069 &#10;&#9;C727.376892,361.138458 725.911316,354.052277 724.133484,347.045288 &#10;&#9;C723.568359,344.817993 722.172058,342.801605 721.156006,340.688690 &#10;&#9;C721.091980,339.713867 721.028015,338.739075 720.962036,337.011780 &#10;&#9;C720.315796,333.927429 719.904114,331.498230 718.977783,329.284363 &#10;&#9;C717.194092,325.021454 715.119263,320.880402 713.165161,316.688782 &#10;&#9;C713.102356,315.713074 713.039551,314.737335 712.892822,313.046570 &#10;&#9;C712.181030,310.988831 711.599854,309.621796 710.916321,308.308014 &#10;&#9;C708.946899,304.523254 706.936218,300.759949 704.941772,296.988220 &#10;&#9;C704.941772,296.988220 705.008362,296.988373 705.049316,296.631775 &#10;&#9;C702.374329,291.179443 699.658264,286.083740 696.942200,280.988068 &#10;&#9;C696.942200,280.988068 697.008667,280.988159 697.046875,280.631470 &#10;&#9;C694.371216,275.179230 691.657288,270.083679 688.943298,264.988129 &#10;&#9;C688.943298,264.988129 689.011841,264.986877 688.981445,264.660950 &#10;&#9;C686.352905,260.458008 683.754761,256.580994 681.156677,252.703979 &#10;&#9;C680.743774,251.479507 680.330872,250.255066 679.449585,248.613510 &#10;&#9;C676.968750,245.794525 674.956299,243.392654 672.943909,240.990784 &#10;&#9;C672.943909,240.990784 673.008606,240.990097 673.051392,240.639404 &#10;&#9;C671.739807,237.759689 670.699646,234.986984 668.966370,232.751724 &#10;&#9;C665.215088,227.913971 661.108887,223.351456 657.147827,218.676361 &#10;z" transform="matrix(1, 0, 0, 1, -7.105427357601002e-15, 0)"/>
  <path fill="#1FD7EB" opacity="1.000000" stroke="none" d="&#10;M809.034302,48.263702 &#10;&#9;C810.136658,47.994228 811.101318,47.982792 812.461182,48.330902 &#10;&#9;C811.618103,51.479046 810.379883,54.267643 809.141724,57.056252 &#10;&#9;C809.084351,57.424461 809.027039,57.792664 808.591919,58.579437 &#10;&#9;C805.729370,62.009197 803.244690,65.020393 800.444214,68.115936 &#10;&#9;C799.419006,69.678703 798.709534,71.157112 797.775635,72.920204 &#10;&#9;C796.155640,75.761482 794.760132,78.318069 793.364624,80.874649 &#10;&#9;C793.364624,80.874641 793.052734,81.214561 792.591797,81.351593 &#10;&#9;C789.926575,83.301758 787.722351,85.114883 785.309692,87.031097 &#10;&#9;C784.746277,87.615562 784.391418,88.096954 783.826172,88.867989 &#10;&#9;C781.361816,91.916290 779.107849,94.674942 776.853882,97.433586 &#10;&#9;C776.853882,97.433571 776.915833,97.413055 776.523682,97.448166 &#10;&#9;C773.875977,99.948212 771.620422,102.413139 769.364868,104.878052 &#10;&#9;C769.364868,104.878029 769.054749,105.218132 768.590210,105.365440 &#10;&#9;C762.947205,109.011452 757.768677,112.510155 752.296997,116.037369 &#10;&#9;C751.333191,116.890556 750.662415,117.715225 749.673950,118.685013 &#10;&#9;C748.482117,119.504295 747.608032,120.178467 746.734009,120.852631 &#10;&#9;C746.154175,121.272942 745.574341,121.693275 744.548340,122.459015 &#10;&#9;C740.125671,124.924736 736.177124,127.099617 732.165710,129.151688 &#10;&#9;C727.047119,131.770157 721.877869,134.289398 716.730408,136.851410 &#10;&#9;C715.494568,137.234589 714.258789,137.617767 712.527283,138.391663 &#10;&#9;C709.894226,139.409454 707.720337,139.934845 705.627502,140.686035 &#10;&#9;C701.961914,142.001770 698.346008,143.456039 694.709290,144.852264 &#10;&#9;C692.817322,145.222275 690.925354,145.592285 688.498779,146.392792 &#10;&#9;C684.118958,147.509933 680.298584,148.448135 676.423401,148.831955 &#10;&#9;C667.766846,149.689407 659.074585,150.185944 650.416321,151.028656 &#10;&#9;C648.468384,151.218246 646.599854,152.223145 644.694763,152.852707 &#10;&#9;C641.862793,152.890930 639.030823,152.929153 635.571167,152.547638 &#10;&#9;C632.741577,151.745117 630.552734,151.242096 628.335510,151.000748 &#10;&#9;C619.423645,150.030701 610.479980,149.317902 601.593933,148.158447 &#10;&#9;C596.000916,147.428650 590.489380,146.074509 584.941284,145.000443 &#10;&#9;C584.941284,145.000443 585.009033,144.994720 584.940063,144.660950 &#10;&#9;C584.043884,143.880157 583.255432,143.329407 582.382996,143.003159 &#10;&#9;C577.070007,141.016251 571.582397,139.414642 566.458008,137.029297 &#10;&#9;C561.760071,134.842422 557.447144,131.828217 552.964600,129.178558 &#10;&#9;C552.597595,129.107361 552.230530,129.036163 551.440674,128.595673 &#10;&#9;C549.018188,126.942940 547.018555,125.659508 544.914368,124.003311 &#10;&#9;C543.989258,123.146431 543.168762,122.662308 542.300903,122.320747 &#10;&#9;C542.253662,122.463310 541.953735,122.446083 541.955566,122.090836 &#10;&#9;C541.650024,121.065025 541.342712,120.394463 541.035339,119.723907 &#10;&#9;C540.323730,120.220726 539.612122,120.717537 538.577271,121.192184 &#10;&#9;C537.824402,121.171921 537.394714,121.173813 536.965027,121.175697 &#10;&#9;C536.744141,121.115593 536.523193,121.055489 535.823425,120.641602 &#10;&#9;C531.462219,117.921745 527.579895,115.555664 524.032959,113.137970 &#10;&#9;C524.966614,112.684273 525.564941,112.282181 526.163269,111.880096 &#10;&#9;C525.939880,111.645920 525.716492,111.411736 525.493103,111.177559 &#10;&#9;C524.868530,111.830719 524.243896,112.483871 523.289429,113.194244 &#10;&#9;C522.296021,113.226494 521.632385,113.201515 520.968811,113.176529 &#10;&#9;C520.600342,113.103622 520.231934,113.030716 519.517456,112.620132 &#10;&#9;C519.090332,111.914352 519.009216,111.546242 519.139709,110.908859 &#10;&#9;C521.633728,107.982582 521.049072,105.990028 517.548706,106.504654 &#10;&#9;C513.415710,107.112297 512.877136,105.023346 513.030518,102.016800 &#10;&#9;C513.238525,97.937981 511.098846,96.716789 507.470215,96.997177 &#10;&#9;C505.979858,97.112350 504.388794,96.864731 503.009491,97.303650 &#10;&#9;C498.585693,98.711380 496.832153,95.608521 497.498016,92.717392 &#10;&#9;C499.215088,85.262009 497.407684,80.638931 490.021820,77.608742 &#10;&#9;C486.388428,76.118073 483.955078,75.275093 480.687195,78.100914 &#10;&#9;C479.383331,79.228439 475.511566,79.672073 474.869415,78.838890 &#10;&#9;C473.131561,76.583900 473.443359,73.860229 476.817810,72.506897 &#10;&#9;C481.315094,70.703239 479.838715,66.373100 480.488068,63.009922 &#10;&#9;C480.545807,62.710823 478.435944,61.427547 477.508362,61.591949 &#10;&#9;C468.851746,63.126148 465.917969,60.995972 464.913818,52.134274 &#10;&#9;C463.707062,41.484924 463.710846,41.341881 453.444641,41.070747 &#10;&#9;C449.823395,40.975109 449.073029,39.402184 448.903931,36.185886 &#10;&#9;C448.578644,29.998816 447.144653,28.756218 441.874573,29.024673 &#10;&#9;C433.938324,29.428942 432.133636,26.734077 435.581299,18.952625 &#10;&#9;C444.808044,19.885130 453.595947,20.676355 462.343872,21.783281 &#10;&#9;C468.592377,22.573940 474.787292,23.788351 481.006104,24.813677 &#10;&#9;C481.394897,24.887299 481.783661,24.960920 482.642212,25.440144 &#10;&#9;C489.618622,27.577873 496.104675,29.393335 502.640320,31.008059 &#10;&#9;C506.066620,31.854572 509.579895,32.349075 513.053894,33.002541 &#10;&#9;C513.053894,33.002544 512.987488,33.010555 513.060669,33.341148 &#10;&#9;C515.039246,34.469238 516.889099,35.459034 518.860474,36.028374 &#10;&#9;C524.899902,37.772610 530.985901,39.355438 537.053833,41.001038 &#10;&#9;C537.053833,41.001041 536.988953,41.007999 537.036865,41.332199 &#10;&#9;C542.401428,44.043858 547.718140,46.431313 553.034790,48.818771 &#10;&#9;C553.410156,48.891747 553.785583,48.964718 554.612183,49.431442 &#10;&#9;C559.657349,51.643620 564.251282,53.462044 568.845154,55.280472 &#10;&#9;C569.912048,55.858936 570.978882,56.437401 572.546387,57.402092 &#10;&#9;C576.978027,59.621792 580.909058,61.455261 584.840149,63.288734 &#10;&#9;C585.266479,63.861938 585.692871,64.435135 586.570068,65.399582 &#10;&#9;C591.698547,68.196785 596.376160,70.602745 601.053833,73.008698 &#10;&#9;C601.053833,73.008705 600.987427,73.011955 601.027161,73.327522 &#10;&#9;C602.753906,74.867744 604.377869,76.192871 606.139343,77.298950 &#10;&#9;C612.419617,81.242485 618.746643,85.111565 625.055969,89.008820 &#10;&#9;C625.055969,89.008820 624.988403,89.009644 625.023560,89.323563 &#10;&#9;C627.655151,91.527153 630.251526,93.416824 632.847961,95.306480 &#10;&#9;C633.900940,95.883263 634.953918,96.460052 636.488770,97.414001 &#10;&#9;C640.083862,100.363152 642.904114,103.463509 646.375916,105.389000 &#10;&#9;C652.253235,108.648628 657.670288,113.346802 665.055420,113.001839 &#10;&#9;C665.055420,113.001839 664.988159,113.008072 665.080200,113.371948 &#10;&#9;C666.180420,114.167458 667.185913,114.967171 668.197144,114.974518 &#10;&#9;C679.997986,115.060379 691.800354,115.082535 703.600220,114.943153 &#10;&#9;C704.845764,114.928444 706.077942,113.778282 707.316284,113.154892 &#10;&#9;C708.932434,113.092133 710.548584,113.029381 712.958252,112.953735 &#10;&#9;C719.207458,111.519485 724.719666,110.278847 730.093262,108.595566 &#10;&#9;C732.541748,107.828583 734.716309,106.187134 737.015076,104.942314 &#10;&#9;C737.015076,104.942322 737.011780,105.009499 737.376709,105.053596 &#10;&#9;C740.073608,104.398979 742.513550,103.942192 744.718262,102.958359 &#10;&#9;C752.911926,99.301987 761.287476,95.900749 767.627380,89.152122 &#10;&#9;C767.850159,89.103653 768.072937,89.055176 768.969360,88.911865 &#10;&#9;C772.845154,86.545547 776.364319,84.608955 779.187195,81.936844 &#10;&#9;C786.304993,75.199219 793.366394,68.362282 799.925659,61.091778 &#10;&#9;C803.009399,57.673599 804.885254,53.165726 807.308472,49.151649 &#10;&#9;C807.837891,48.941681 808.367249,48.731712 809.034302,48.263702 &#10;z" transform="matrix(1, 0, 0, 1, -7.105427357601002e-15, 0)"/>
  <path fill="#1FD3EC" opacity="1.000000" stroke="none" d="&#10;M435.125366,18.946404 &#10;&#9;C432.133636,26.734077 433.938324,29.428942 441.874573,29.024673 &#10;&#9;C447.144653,28.756218 448.578644,29.998816 448.903931,36.185886 &#10;&#9;C449.073029,39.402184 449.823395,40.975109 453.444641,41.070747 &#10;&#9;C463.710846,41.341881 463.707062,41.484924 464.913818,52.134274 &#10;&#9;C465.917969,60.995972 468.851746,63.126148 477.508362,61.591949 &#10;&#9;C478.435944,61.427547 480.545807,62.710823 480.488068,63.009922 &#10;&#9;C479.838715,66.373100 481.315094,70.703239 476.817810,72.506897 &#10;&#9;C473.443359,73.860229 473.131561,76.583900 474.869415,78.838890 &#10;&#9;C475.511566,79.672073 479.383331,79.228439 480.687195,78.100914 &#10;&#9;C483.955078,75.275093 486.388428,76.118073 490.021820,77.608742 &#10;&#9;C497.407684,80.638931 499.215088,85.262009 497.498016,92.717392 &#10;&#9;C496.832153,95.608521 498.585693,98.711380 503.009491,97.303650 &#10;&#9;C504.388794,96.864731 505.979858,97.112350 507.470215,96.997177 &#10;&#9;C511.098846,96.716789 513.238525,97.937981 513.030518,102.016800 &#10;&#9;C512.877136,105.023346 513.415710,107.112297 517.548706,106.504654 &#10;&#9;C521.049072,105.990028 521.633728,107.982582 518.747314,110.867920 &#10;&#9;C512.022461,108.854858 505.945221,106.483757 499.768555,104.408630 &#10;&#9;C493.618744,102.342537 487.369141,100.573555 481.163300,98.674301 &#10;&#9;C478.808960,98.108589 476.454651,97.542877 473.509338,96.567429 &#10;&#9;C466.246521,94.429291 459.606934,92.559532 452.890472,91.026543 &#10;&#9;C448.981232,90.134293 444.948761,89.781860 440.971741,89.186539 &#10;&#9;C439.992859,89.113220 439.013977,89.039902 437.467194,88.549683 &#10;&#9;C431.318085,87.089325 425.775177,85.510315 420.148132,85.107941 &#10;&#9;C406.113708,84.104362 392.041290,83.630844 377.983521,82.956757 &#10;&#9;C375.326019,82.829330 372.665833,82.758163 369.853790,82.338562 &#10;&#9;C367.247437,81.344193 364.809296,80.164879 362.338135,80.091034 &#10;&#9;C353.189941,79.817657 353.185699,79.954727 352.998779,70.804039 &#10;&#9;C352.988586,70.305107 353.187744,69.648048 352.943329,69.333946 &#10;&#9;C351.785400,67.845917 350.718536,65.575233 349.225586,65.215096 &#10;&#9;C346.522858,64.563126 345.362579,63.567768 344.811554,60.793850 &#10;&#9;C344.526001,59.356308 342.646942,57.474834 341.210114,57.188873 &#10;&#9;C338.438934,56.637325 337.436676,55.483994 336.785400,52.778336 &#10;&#9;C336.425873,51.284805 334.302643,49.798885 332.645844,49.154186 &#10;&#9;C331.053650,48.534622 329.033569,48.922749 327.208496,49.011726 &#10;&#9;C322.733887,49.229874 320.752625,47.104141 320.990631,42.694935 &#10;&#9;C321.071228,41.202244 320.938049,39.698441 321.008087,38.204666 &#10;&#9;C321.138977,35.413712 320.288757,33.774837 317.298096,32.669842 &#10;&#9;C313.625977,31.313057 310.340363,28.910143 306.944214,26.655643 &#10;&#9;C307.105469,25.952780 307.210236,25.553734 307.315002,25.154690 &#10;&#9;C307.711334,25.115311 308.107635,25.075928 309.001648,25.283686 &#10;&#9;C310.312195,25.419754 311.125061,25.308683 311.937927,25.197613 &#10;&#9;C312.109558,25.132462 312.281189,25.067310 313.022491,24.963648 &#10;&#9;C314.010651,24.931591 314.429169,24.938046 315.250122,24.953556 &#10;&#9;C316.847015,24.492075 318.041504,24.021540 319.583862,23.481859 &#10;&#9;C320.634521,23.474016 321.337250,23.535318 322.048645,23.976263 &#10;&#9;C322.511841,25.070114 322.966339,25.784323 323.420837,26.498537 &#10;&#9;C323.933441,25.529812 324.446014,24.561079 325.262268,23.414322 &#10;&#9;C327.038544,22.535818 328.460846,21.379791 329.992126,21.210754 &#10;&#9;C338.291687,20.294598 346.618164,19.622421 355.165985,19.191261 &#10;&#9;C359.531128,19.749210 363.680969,20.299461 367.794617,20.100632 &#10;&#9;C370.428009,19.973351 373.002411,18.124489 375.612762,18.100916 &#10;&#9;C395.243500,17.923643 414.876617,18.008215 434.692078,18.225681 &#10;&#9;C434.958588,18.609100 435.041992,18.777752 435.125366,18.946404 &#10;z" transform="matrix(1, 0, 0, 1, -7.105427357601002e-15, 0)"/>
  <path fill="#20B3E9" opacity="1.000000" stroke="none" d="&#10;M481.149536,489.045654 &#10;&#9;C481.101746,489.217224 481.053986,489.388763 480.721313,490.164490 &#10;&#9;C480.294128,492.743500 480.034607,494.717957 480.028290,496.693176 &#10;&#9;C479.976837,512.796997 479.972748,528.900940 479.548950,545.003174 &#10;&#9;C477.170654,544.427429 474.605011,544.455505 473.315674,543.186646 &#10;&#9;C459.580841,529.669922 446.101044,515.894531 432.431274,502.310883 &#10;&#9;C427.802124,497.710846 422.833344,493.452576 417.770630,489.044250 &#10;&#9;C417.521484,489.050354 417.024628,489.089294 417.024628,489.089294 &#10;&#9;C417.024628,489.089294 416.925476,489.155731 416.868408,488.789185 &#10;&#9;C416.206329,487.841278 415.601318,487.259918 414.919281,486.357056 &#10;&#9;C413.970459,484.648926 413.312195,483.052216 412.190277,481.911591 &#10;&#9;C407.105652,476.742401 401.856415,471.735718 396.729065,466.607880 &#10;&#9;C387.046753,456.924652 377.625427,446.966309 367.649139,437.597778 &#10;&#9;C363.308319,433.521423 359.736176,429.728790 361.470581,423.246765 &#10;&#9;C366.960266,423.017456 371.991364,422.874908 377.483521,422.811584 &#10;&#9;C380.591156,422.925598 383.237610,422.974304 385.884247,422.992828 &#10;&#9;C401.926178,423.105194 417.968231,423.210693 434.008911,423.727478 &#10;&#9;C433.957916,431.664368 437.127289,438.167786 442.653992,442.587616 &#10;&#9;C445.931366,445.208618 449.949646,446.252838 450.853485,451.297791 &#10;&#9;C451.147003,452.935974 453.683258,454.631958 455.563965,455.447540 &#10;&#9;C464.270691,459.223206 470.278076,465.560455 474.351471,473.978912 &#10;&#9;C474.731934,474.765167 475.664734,475.470734 476.504700,475.817505 &#10;&#9;C481.743927,477.980743 485.565033,481.586517 487.577423,486.786194 &#10;&#9;C485.460785,487.051514 483.761780,487.221222 481.819092,487.490356 &#10;&#9;C481.433411,488.075073 481.291443,488.560364 481.149536,489.045654 &#10;z" transform="matrix(1, 0, 0, 1, -7.105427357601002e-15, 0)"/>
  <path fill="#219DE5" opacity="1.000000" stroke="none" d="&#10;M55.652992,209.099243 &#10;&#9;C56.099083,208.029709 56.545170,206.960175 57.348049,205.482422 &#10;&#9;C58.077343,205.025452 58.449844,204.976715 59.087074,205.163254 &#10;&#9;C59.647800,206.895798 60.528297,208.573868 60.131416,209.856796 &#10;&#9;C58.885979,213.882599 57.047935,217.720749 55.659260,221.708145 &#10;&#9;C54.751617,224.314301 61.080452,236.483032 63.598328,237.947510 &#10;&#9;C65.824005,239.242050 68.371681,240.557327 69.777351,242.563858 &#10;&#9;C72.429947,246.350357 75.412025,246.685791 79.453827,245.060150 &#10;&#9;C80.212563,245.762680 80.706154,246.346542 80.868866,247.044617 &#10;&#9;C80.341469,248.388657 79.527115,250.122284 80.050957,250.764709 &#10;&#9;C82.965096,254.338470 86.203880,257.647522 90.064857,261.844177 &#10;&#9;C91.092003,259.242615 91.604065,257.945679 92.412659,256.842499 &#10;&#9;C102.088463,264.432037 111.467720,271.827850 120.846985,279.223633 &#10;&#9;C123.227837,280.183533 125.608681,281.143433 128.467712,282.296112 &#10;&#9;C128.716553,283.923492 129.084900,286.332458 129.993393,289.219604 &#10;&#9;C131.961044,290.441650 133.626343,290.923981 134.778046,291.971161 &#10;&#9;C143.266968,299.689484 151.556152,307.629974 160.130569,315.250336 &#10;&#9;C162.745285,317.574097 166.056213,319.114471 169.048279,321.013641 &#10;&#9;C169.048279,321.013641 168.983124,321.018494 169.011780,321.330200 &#10;&#9;C171.711487,324.099457 174.382523,326.556976 177.053574,329.014496 &#10;&#9;C177.053574,329.014496 176.985672,329.011261 176.995697,329.332092 &#10;&#9;C179.617188,331.520996 182.228653,333.389099 184.840103,335.257202 &#10;&#9;C187.163132,336.203247 189.486160,337.149292 192.273605,338.284485 &#10;&#9;C192.729431,339.918640 193.425522,342.414215 194.629883,345.332581 &#10;&#9;C196.364380,346.545837 197.728027,347.184540 198.794983,348.150818 &#10;&#9;C206.871307,355.465485 214.784561,362.964172 222.980347,370.140900 &#10;&#9;C226.015518,372.798645 229.671722,374.747131 233.044693,377.019073 &#10;&#9;C233.044693,377.019073 232.979202,377.020630 233.007690,377.344177 &#10;&#9;C233.189819,378.761871 233.865143,380.201721 233.408188,380.891205 &#10;&#9;C231.255005,384.140167 228.820267,387.205719 226.432068,390.295013 &#10;&#9;C222.545517,395.322479 215.322250,397.441040 213.915039,404.685638 &#10;&#9;C213.789154,405.333771 212.742126,405.802979 212.042938,405.998840 &#10;&#9;C209.820877,403.380463 207.720657,401.077057 205.529022,398.864136 &#10;&#9;C197.759430,391.018829 190.030121,383.131622 182.148956,375.399475 &#10;&#9;C174.735901,368.126587 166.967712,361.209534 159.680359,353.815948 &#10;&#9;C146.699371,340.645844 133.925354,327.270477 121.160431,313.889709 &#10;&#9;C118.927521,311.549072 117.457893,308.451843 115.129662,306.235657 &#10;&#9;C106.891579,298.394012 98.267952,290.953827 90.114128,283.028473 &#10;&#9;C84.031311,277.116058 78.618935,270.517670 72.598457,264.536346 &#10;&#9;C65.329460,257.314575 57.519806,250.630127 50.373367,243.294952 &#10;&#9;C47.028839,239.862106 44.079334,238.130447 39.801357,240.610352 &#10;&#9;C44.995224,230.817093 50.138180,221.402634 55.200142,211.944824 &#10;&#9;C55.628384,211.144714 55.514835,210.054626 55.652992,209.099243 &#10;z" transform="matrix(1, 0, 0, 1, -7.105427357601002e-15, 0)"/>
  <path fill="#1FCEEB" opacity="1.000000" stroke="none" d="&#10;M306.887665,26.959461 &#10;&#9;C310.340363,28.910143 313.625977,31.313057 317.298096,32.669842 &#10;&#9;C320.288757,33.774837 321.138977,35.413712 321.008087,38.204666 &#10;&#9;C320.938049,39.698441 321.071228,41.202244 320.990631,42.694935 &#10;&#9;C320.752625,47.104141 322.733887,49.229874 327.208496,49.011726 &#10;&#9;C329.033569,48.922749 331.053650,48.534622 332.645844,49.154186 &#10;&#9;C334.302643,49.798885 336.425873,51.284805 336.785400,52.778336 &#10;&#9;C337.436676,55.483994 338.438934,56.637325 341.210114,57.188873 &#10;&#9;C342.646942,57.474834 344.526001,59.356308 344.811554,60.793850 &#10;&#9;C345.362579,63.567768 346.522858,64.563126 349.225586,65.215096 &#10;&#9;C350.718536,65.575233 351.785400,67.845917 352.943329,69.333946 &#10;&#9;C353.187744,69.648048 352.988586,70.305107 352.998779,70.804039 &#10;&#9;C353.185699,79.954727 353.189941,79.817657 362.338135,80.091034 &#10;&#9;C364.809296,80.164879 367.247437,81.344193 369.393433,82.434097 &#10;&#9;C358.073151,83.564362 347.051208,84.163986 336.051178,85.039223 &#10;&#9;C331.004761,85.440750 325.991028,86.320595 320.988861,87.143860 &#10;&#9;C320.168640,87.278862 319.485291,88.245354 318.738678,88.827560 &#10;&#9;C317.110809,88.893631 315.482971,88.959702 313.053284,89.030136 &#10;&#9;C307.344727,90.165482 302.458344,91.396561 297.525421,92.398964 &#10;&#9;C292.706635,93.378181 287.840393,94.123993 282.921356,94.626877 &#10;&#9;C281.185303,93.301598 279.522858,92.321709 277.860413,91.341812 &#10;&#9;C276.924744,93.271545 275.989044,95.201279 274.841583,97.430084 &#10;&#9;C271.086365,98.735649 267.542877,99.742142 264.000549,100.312424 &#10;&#9;C263.923615,97.394913 264.792358,93.477554 263.597595,92.689774 &#10;&#9;C259.252075,89.824501 256.370911,85.782272 252.930832,82.157852 &#10;&#9;C251.331314,80.472603 248.955292,79.462631 246.821945,78.357567 &#10;&#9;C240.837799,75.257774 241.242569,65.927742 233.397354,64.646393 &#10;&#9;C233.050064,64.589668 232.689056,63.933689 232.534668,63.487541 &#10;&#9;C231.315765,59.965286 230.145569,56.426170 229.144196,52.606178 &#10;&#9;C230.556229,51.195717 231.784470,50.071316 233.012711,48.946915 &#10;&#9;C233.012711,48.946918 233.014297,49.012119 233.401840,49.055592 &#10;&#9;C240.346085,46.738716 246.902786,44.378372 253.727051,42.002716 &#10;&#9;C254.648087,41.720699 255.301544,41.453987 255.955017,41.187275 &#10;&#9;C256.121948,41.123890 256.288910,41.060505 257.083435,40.894737 &#10;&#9;C259.246033,40.256969 260.801849,39.774124 262.312286,39.176559 &#10;&#9;C267.323242,37.194096 272.317841,35.170322 277.318726,33.162392 &#10;&#9;C278.285095,33.100170 279.251465,33.037952 280.952454,32.897758 &#10;&#9;C290.087280,30.866341 298.487488,28.912901 306.887665,26.959461 &#10;z" transform="matrix(1, 0, 0, 1, -7.105427357601002e-15, 0)"/>
  <path fill="#20CCEA" opacity="1.000000" stroke="none" d="&#10;M736.912842,417.534180 &#10;&#9;C737.249329,419.142059 737.923523,421.206818 737.953125,423.280762 &#10;&#9;C738.076294,431.885895 738.004883,440.493774 738.004883,449.069061 &#10;&#9;C745.964111,449.190460 745.974121,449.190430 745.995605,456.747711 &#10;&#9;C746.005554,460.255554 746.344482,462.390533 750.467041,464.723450 &#10;&#9;C754.648376,467.089539 758.685730,471.614014 761.595703,475.917664 &#10;&#9;C763.269653,478.393555 764.132446,480.247925 767.228699,479.989960 &#10;&#9;C770.729431,479.698334 772.304626,480.947174 773.463440,484.645203 &#10;&#9;C774.354492,487.488556 777.776062,489.538940 780.482727,492.401611 &#10;&#9;C780.392700,495.839081 779.932190,498.824310 779.381897,501.792938 &#10;&#9;C778.685913,505.547119 777.916870,509.287750 777.179260,513.034241 &#10;&#9;C777.112061,514.025818 777.044800,515.017456 776.582397,516.546997 &#10;&#9;C773.869995,523.726135 771.552673,530.367310 769.235291,537.008545 &#10;&#9;C769.145508,537.993896 769.055725,538.979248 768.567261,540.503662 &#10;&#9;C767.318665,543.113770 766.361023,545.148193 765.641235,547.263550 &#10;&#9;C764.086487,551.832458 762.653687,556.442932 761.171082,561.036377 &#10;&#9;C761.099670,561.397156 761.028320,561.757935 760.573853,562.549805 &#10;&#9;C758.343811,567.597839 756.496887,572.214783 754.649963,576.831726 &#10;&#9;C754.086975,577.891785 753.523987,578.951843 752.582764,580.509033 &#10;&#9;C750.305603,584.962463 748.406677,588.918762 746.507751,592.875061 &#10;&#9;C746.283264,592.922363 746.058777,592.969604 745.299927,593.169434 &#10;&#9;C744.779480,593.866150 744.793396,594.410217 744.807373,594.954346 &#10;&#9;C744.853943,595.343933 744.900513,595.733582 744.588867,596.489380 &#10;&#9;C743.838501,596.965637 743.446472,597.075806 742.978027,596.830994 &#10;&#9;C740.968262,594.355652 737.782715,592.450378 737.373535,590.068298 &#10;&#9;C736.625305,585.711243 734.107483,583.347229 731.015259,581.057129 &#10;&#9;C726.493958,577.708740 725.246094,570.628113 718.290100,569.930298 &#10;&#9;C717.770691,569.878174 717.490723,567.896667 717.012085,566.852051 &#10;&#9;C716.544983,565.832458 715.965881,564.864075 715.446777,563.529968 &#10;&#9;C715.921021,562.440308 716.384521,561.693970 717.230957,560.926636 &#10;&#9;C721.327087,559.566162 720.205261,557.255615 718.875244,554.506348 &#10;&#9;C719.568481,551.066223 720.208130,548.012146 720.847717,544.958069 &#10;&#9;C720.916748,544.599609 720.985718,544.241211 721.460022,543.424316 &#10;&#9;C723.595276,536.450989 725.429138,529.961365 727.012634,523.411072 &#10;&#9;C727.841003,519.984619 728.229431,516.451843 728.816528,512.967041 &#10;&#9;C728.888428,511.991516 728.960327,511.015991 729.447266,509.484009 &#10;&#9;C730.315491,506.249329 730.843079,503.581207 731.208557,500.891022 &#10;&#9;C732.513550,491.284119 733.803894,481.674713 735.004883,472.054413 &#10;&#9;C735.289307,469.775940 735.203979,467.451324 735.288696,465.147919 &#10;&#9;C735.854736,463.670654 736.900513,462.197205 736.912292,460.715546 &#10;&#9;C737.025879,446.476227 736.965027,432.235535 736.912842,417.534180 &#10;z" transform="matrix(1, 0, 0, 1, -7.105427357601002e-15, 0)"/>
  <path fill="#2097E6" opacity="1.000000" stroke="none" d="&#10;M39.729149,240.977753 &#10;&#9;C44.079334,238.130447 47.028839,239.862106 50.373367,243.294952 &#10;&#9;C57.519806,250.630127 65.329460,257.314575 72.598457,264.536346 &#10;&#9;C78.618935,270.517670 84.031311,277.116058 90.114128,283.028473 &#10;&#9;C98.267952,290.953827 106.891579,298.394012 115.129662,306.235657 &#10;&#9;C117.457893,308.451843 118.927521,311.549072 121.160431,313.889709 &#10;&#9;C133.925354,327.270477 146.699371,340.645844 159.680359,353.815948 &#10;&#9;C166.967712,361.209534 174.735901,368.126587 182.148956,375.399475 &#10;&#9;C190.030121,383.131622 197.759430,391.018829 205.529022,398.864136 &#10;&#9;C207.720657,401.077057 209.820877,403.380463 211.918915,406.243347 &#10;&#9;C211.572937,407.514709 211.271042,408.185059 210.969147,408.855438 &#10;&#9;C210.572128,408.924927 210.175095,408.994415 209.053009,409.050720 &#10;&#9;C205.474670,410.081573 202.418365,410.775818 199.830948,412.277802 &#10;&#9;C197.673843,413.530029 196.066666,415.729523 194.215912,417.509491 &#10;&#9;C192.531662,415.573395 190.946747,413.539062 189.146072,411.718048 &#10;&#9;C181.114426,403.595642 173.551437,394.893433 164.791092,387.642822 &#10;&#9;C157.051224,381.236816 153.422852,370.297302 142.487793,367.531097 &#10;&#9;C142.087967,367.429932 141.797653,366.844757 141.483734,366.462616 &#10;&#9;C135.172577,358.779785 130.835999,349.270813 121.260048,344.601410 &#10;&#9;C120.984413,344.467010 120.820900,344.109802 120.594337,343.866516 &#10;&#9;C117.083961,340.097412 113.698837,336.200958 110.032623,332.589935 &#10;&#9;C103.210602,325.870636 95.561722,319.866699 89.495041,312.539886 &#10;&#9;C83.538895,305.346588 75.200287,300.525299 70.666229,291.800598 &#10;&#9;C68.606522,287.837189 63.244904,285.686310 59.686058,282.384521 &#10;&#9;C53.032558,276.211578 46.403210,269.983429 40.226612,263.347504 &#10;&#9;C38.799877,261.814697 38.438683,258.344849 38.995544,256.118713 &#10;&#9;C39.984730,252.164261 38.940674,250.766708 35.036690,250.623199 &#10;&#9;C36.569839,247.160751 38.149498,244.069244 39.729149,240.977753 &#10;z" transform="matrix(1, 0, 0, 1, -7.105427357601002e-15, 0)"/>
  <path fill="#229EE5" opacity="1.000000" stroke="none" d="&#10;M417.002258,489.550354 &#10;&#9;C417.024628,489.089294 417.521484,489.050354 417.765015,489.508423 &#10;&#9;C418.009125,509.439911 417.973419,528.913513 418.063324,548.386475 &#10;&#9;C418.072876,550.459961 418.130432,553.693787 419.336273,554.405212 &#10;&#9;C425.346252,557.950806 425.786987,565.820618 432.513458,569.301086 &#10;&#9;C438.434998,572.364990 442.822662,578.448425 447.777191,583.310974 &#10;&#9;C453.002350,588.439209 458.683990,593.253784 463.080994,599.031311 &#10;&#9;C467.387848,604.690491 476.123688,605.333679 478.182281,613.154846 &#10;&#9;C478.198975,613.218140 478.779572,613.133057 479.954224,613.074585 &#10;&#9;C479.954224,590.409912 479.954224,567.707397 479.954224,545.004883 &#10;&#9;C479.972748,528.900940 479.976837,512.796997 480.028290,496.693176 &#10;&#9;C480.034607,494.717957 480.294128,492.743500 480.637177,490.417969 &#10;&#9;C480.904877,491.060974 481.030365,492.054688 481.030212,493.048431 &#10;&#9;C481.020203,551.165344 480.999756,609.282227 480.565979,667.763428 &#10;&#9;C477.822327,667.304382 475.493011,666.481140 473.163696,665.657898 &#10;&#9;C472.749329,665.416321 472.334991,665.174683 471.498230,664.562500 &#10;&#9;C466.371246,661.784607 461.666687,659.377258 456.962128,656.969971 &#10;&#9;C456.962128,656.969971 457.030548,656.970032 456.965820,656.657776 &#10;&#9;C456.268707,655.862610 455.692780,655.268433 454.995026,654.914368 &#10;&#9;C449.156097,651.951172 443.244141,649.127930 437.456970,646.068176 &#10;&#9;C433.166992,643.800049 428.956238,641.359009 424.857056,638.763184 &#10;&#9;C422.827118,637.477661 420.183868,636.005127 419.479736,634.026062 &#10;&#9;C418.084412,630.104553 417.842316,625.772644 417.123535,621.610413 &#10;&#9;C417.075653,577.744080 417.027771,533.877747 417.002258,489.550354 &#10;z" transform="matrix(1, 0, 0, 1, -7.105427357601002e-15, 0)"/>
  <path fill="#20BAE9" opacity="1.000000" stroke="none" d="&#10;M143.812286,105.158096 &#10;&#9;C144.001328,105.108833 144.190384,105.059578 145.000534,104.909378 &#10;&#9;C150.160324,100.911797 154.698990,97.015160 159.553101,92.997444 &#10;&#9;C163.212463,90.471107 166.556396,88.065842 170.069183,85.984344 &#10;&#9;C173.499695,89.218269 177.248734,91.827370 176.423248,97.121880 &#10;&#9;C176.348801,97.599403 177.015045,98.604576 177.462814,98.687569 &#10;&#9;C181.908081,99.511475 183.671204,103.180603 186.392075,106.107040 &#10;&#9;C188.363220,108.227104 191.094772,109.352539 191.355682,112.817146 &#10;&#9;C191.420914,113.683273 192.705368,114.576591 193.591309,115.241829 &#10;&#9;C198.046997,118.587448 202.556335,121.861633 206.876160,125.451965 &#10;&#9;C205.114944,126.788757 203.524414,127.834496 201.933884,128.880234 &#10;&#9;C201.933884,128.880234 201.535843,129.007004 200.977539,129.096832 &#10;&#9;C196.494598,131.745224 192.569992,134.303757 188.645370,136.862305 &#10;&#9;C187.480743,137.098709 186.316101,137.335114 184.696365,137.975555 &#10;&#9;C181.767456,139.872971 179.135269,141.159393 176.854355,142.904831 &#10;&#9;C172.707947,146.077820 168.770325,149.523636 164.745575,152.855591 &#10;&#9;C163.564529,153.063507 162.383499,153.271423 160.742111,153.887329 &#10;&#9;C155.752045,158.176971 151.273468,162.121429 146.649429,165.887283 &#10;&#9;C145.724472,166.640610 144.244873,166.712921 142.914948,166.765762 &#10;&#9;C142.351807,165.978119 141.972183,165.371872 141.425583,165.093491 &#10;&#9;C136.340942,162.503845 131.710541,159.901321 128.218048,154.690582 &#10;&#9;C126.027695,151.422607 121.549728,149.391022 119.526665,145.314560 &#10;&#9;C119.192741,144.641678 117.782875,144.064682 116.944527,144.152496 &#10;&#9;C112.093941,144.660614 110.544670,141.752136 110.046265,137.520645 &#10;&#9;C110.668762,136.825317 111.163200,136.351318 112.120522,135.908142 &#10;&#9;C120.073067,136.018250 120.172188,135.905701 120.061600,127.397156 &#10;&#9;C125.457855,122.465149 130.666962,117.796371 135.876083,113.127594 &#10;&#9;C136.248001,112.680855 136.619904,112.234108 137.396820,111.389778 &#10;&#9;C139.805328,109.047485 141.808807,107.102791 143.812286,105.158096 &#10;z" transform="matrix(1, 0, 0, 1, -7.105427357601002e-15, 0)"/>
  <path fill="#20C5E9" opacity="1.000000" stroke="none" d="&#10;M207.046829,125.160904 &#10;&#9;C202.556335,121.861633 198.046997,118.587448 193.591309,115.241829 &#10;&#9;C192.705368,114.576591 191.420914,113.683273 191.355682,112.817146 &#10;&#9;C191.094772,109.352539 188.363220,108.227104 186.392075,106.107040 &#10;&#9;C183.671204,103.180603 181.908081,99.511475 177.462814,98.687569 &#10;&#9;C177.015045,98.604576 176.348801,97.599403 176.423248,97.121880 &#10;&#9;C177.248734,91.827370 173.499695,89.218269 170.323608,85.797203 &#10;&#9;C171.592285,84.439056 172.775421,83.591812 174.215103,82.644989 &#10;&#9;C174.770721,82.087105 175.069809,81.628822 175.368896,81.170540 &#10;&#9;C175.713898,81.116142 176.058884,81.061752 177.010223,80.941650 &#10;&#9;C184.417267,76.806030 191.217941,72.736115 198.320786,68.549561 &#10;&#9;C202.301559,66.325012 206.033615,64.303749 209.640671,62.079758 &#10;&#9;C212.186264,60.510220 214.562302,58.665688 217.014038,56.943932 &#10;&#9;C217.014038,56.943932 217.013412,57.010326 217.370499,57.054771 &#10;&#9;C221.471848,55.696896 225.216110,54.294575 228.960388,52.892250 &#10;&#9;C230.145569,56.426170 231.315765,59.965286 232.534668,63.487541 &#10;&#9;C232.689056,63.933689 233.050064,64.589668 233.397354,64.646393 &#10;&#9;C241.242569,65.927742 240.837799,75.257774 246.821945,78.357567 &#10;&#9;C248.955292,79.462631 251.331314,80.472603 252.930832,82.157852 &#10;&#9;C256.370911,85.782272 259.252075,89.824501 263.597595,92.689774 &#10;&#9;C264.792358,93.477554 263.923615,97.394913 263.732117,100.583328 &#10;&#9;C258.152557,103.189194 252.796494,104.970085 247.546509,107.022346 &#10;&#9;C242.972870,108.810226 238.518951,110.904350 234.012131,112.863159 &#10;&#9;C234.012131,112.863152 233.572723,112.999550 232.994263,113.096375 &#10;&#9;C227.626694,115.745361 222.837570,118.297516 218.048447,120.849670 &#10;&#9;C218.048447,120.849678 217.572174,120.985329 216.977646,121.074638 &#10;&#9;C213.271027,122.496269 210.158920,123.828590 207.046829,125.160904 &#10;z" transform="matrix(1, 0, 0, 1, -7.105427357601002e-15, 0)"/>
  <path fill="#2192E4" opacity="1.000000" stroke="none" d="&#10;M35.083195,250.994171 &#10;&#9;C38.940674,250.766708 39.984730,252.164261 38.995544,256.118713 &#10;&#9;C38.438683,258.344849 38.799877,261.814697 40.226612,263.347504 &#10;&#9;C46.403210,269.983429 53.032558,276.211578 59.686058,282.384521 &#10;&#9;C63.244904,285.686310 68.606522,287.837189 70.666229,291.800598 &#10;&#9;C75.200287,300.525299 83.538895,305.346588 89.495041,312.539886 &#10;&#9;C95.561722,319.866699 103.210602,325.870636 110.032623,332.589935 &#10;&#9;C113.698837,336.200958 117.083961,340.097412 120.594337,343.866516 &#10;&#9;C120.820900,344.109802 120.984413,344.467010 121.260048,344.601410 &#10;&#9;C130.835999,349.270813 135.172577,358.779785 141.483734,366.462616 &#10;&#9;C141.797653,366.844757 142.087967,367.429932 142.487793,367.531097 &#10;&#9;C153.422852,370.297302 157.051224,381.236816 164.791092,387.642822 &#10;&#9;C173.551437,394.893433 181.114426,403.595642 189.146072,411.718048 &#10;&#9;C190.946747,413.539062 192.531662,415.573395 194.215912,417.509491 &#10;&#9;C196.066666,415.729523 197.673843,413.530029 199.830948,412.277802 &#10;&#9;C202.418365,410.775818 205.474670,410.081573 208.750076,409.054565 &#10;&#9;C208.955368,411.476166 208.738510,413.880707 208.546051,416.014679 &#10;&#9;C206.255936,418.207275 201.157013,414.327087 200.641296,420.573059 &#10;&#9;C196.577560,423.875092 193.551743,429.081268 187.882141,424.517090 &#10;&#9;C186.600220,423.485107 185.525421,422.199860 184.311707,421.078339 &#10;&#9;C179.512680,416.644012 175.831009,410.786743 168.957947,408.985474 &#10;&#9;C168.957947,408.985474 169.018906,408.981079 168.995544,408.665375 &#10;&#9;C166.445709,405.586700 164.125153,402.586243 161.315277,400.150177 &#10;&#9;C159.640121,398.697876 157.196716,398.131683 154.905701,396.865845 &#10;&#9;C149.536392,393.743988 145.045074,390.158569 141.135681,385.670715 &#10;&#9;C137.819061,381.863373 133.916870,378.565613 130.267609,375.048737 &#10;&#9;C128.005142,372.868317 125.679207,370.750519 123.485451,368.503357 &#10;&#9;C122.479309,367.472717 121.704369,366.211578 120.858139,365.030945 &#10;&#9;C120.007469,363.844116 119.406082,362.385040 118.334213,361.467041 &#10;&#9;C114.341858,358.047729 109.999733,355.017181 106.167473,351.435638 &#10;&#9;C101.517700,347.090027 97.293121,342.291748 92.753983,337.821960 &#10;&#9;C92.303230,337.378082 90.945564,337.855194 89.800308,337.915375 &#10;&#9;C89.591805,337.925903 89.175827,337.962128 89.175827,337.962128 &#10;&#9;C85.655754,336.029572 81.322578,334.920837 81.118080,329.196838 &#10;&#9;C80.953552,322.882385 79.600975,321.943573 71.955551,322.033691 &#10;&#9;C71.990959,322.011505 71.943863,322.080536 71.958740,321.672852 &#10;&#9;C72.511765,316.429840 69.155098,314.459259 65.794693,312.063812 &#10;&#9;C62.573441,309.767548 59.292053,307.022888 57.248016,303.724792 &#10;&#9;C53.600296,297.839050 50.159271,292.039978 43.728268,288.726379 &#10;&#9;C42.774765,288.235046 41.985313,287.201782 41.405128,286.246124 &#10;&#9;C37.884781,280.447418 32.958889,277.061096 26.142612,276.701416 &#10;&#9;C26.046143,275.265015 25.824917,274.107544 25.384747,272.936554 &#10;&#9;C25.165800,272.923035 24.733740,272.999207 24.733740,272.999207 &#10;&#9;C24.839794,272.646027 24.945848,272.292816 25.428719,271.496033 &#10;&#9;C27.674370,266.383759 29.543205,261.715149 31.412043,257.046509 &#10;&#9;C31.866058,256.725433 32.320072,256.404358 33.225281,255.713608 &#10;&#9;C34.145378,253.894012 34.614288,252.444092 35.083195,250.994171 &#10;z" transform="matrix(1, 0, 0, 1, -7.105427357601002e-15, 0)"/>
  <path fill="#2879D8" opacity="1.000000" stroke="none" d="&#10;M89.136673,338.432434 &#10;&#9;C89.175827,337.962128 89.591805,337.925903 90.103210,338.170837 &#10;&#9;C91.074097,340.120087 91.861488,341.811249 91.930504,343.531189 &#10;&#9;C92.123978,348.352631 92.020935,353.185974 92.024422,358.481445 &#10;&#9;C92.025528,367.966156 92.037071,376.984009 92.039856,386.470337 &#10;&#9;C92.027458,400.073242 91.848564,413.212128 92.183235,426.337952 &#10;&#9;C92.242844,428.676086 94.176369,432.749451 95.683510,432.965942 &#10;&#9;C103.082771,434.028687 105.334946,441.063690 110.268860,444.828735 &#10;&#9;C118.254173,450.922333 124.774849,458.948730 131.829544,466.240723 &#10;&#9;C134.094757,468.582092 135.662720,471.883118 138.309311,473.507416 &#10;&#9;C142.929855,476.343231 145.624374,479.873749 146.385376,485.234619 &#10;&#9;C146.758331,487.862000 148.380875,489.423767 151.407379,487.864197 &#10;&#9;C152.408020,487.348602 153.627335,487.257294 154.835007,487.435028 &#10;&#9;C154.942383,497.027374 155.004578,506.156982 154.946930,515.285828 &#10;&#9;C154.934174,517.307373 155.242477,520.502502 151.636642,518.731384 &#10;&#9;C144.043198,515.001526 136.627396,510.909943 129.138687,506.966827 &#10;&#9;C127.996864,506.320007 126.855042,505.673157 125.240814,504.623566 &#10;&#9;C120.878975,502.273743 116.989548,500.326630 113.100121,498.379517 &#10;&#9;C111.983566,497.927734 110.867012,497.475922 109.268364,496.615082 &#10;&#9;C104.919754,494.034363 101.053238,491.862701 97.186722,489.691040 &#10;&#9;C94.801247,489.186371 92.415779,488.681732 89.097511,487.979736 &#10;&#9;C89.097511,438.561279 89.097511,388.732025 89.136673,338.432434 &#10;z" transform="matrix(1, 0, 0, 1, -7.105427357601002e-15, 0)"/>
  <path fill="#20C5E9" opacity="1.000000" stroke="none" d="&#10;M715.435913,563.873230 &#10;&#9;C715.965881,564.864075 716.544983,565.832458 717.012085,566.852051 &#10;&#9;C717.490723,567.896667 717.770691,569.878174 718.290100,569.930298 &#10;&#9;C725.246094,570.628113 726.493958,577.708740 731.015259,581.057129 &#10;&#9;C734.107483,583.347229 736.625305,585.711243 737.373535,590.068298 &#10;&#9;C737.782715,592.450378 740.968262,594.355652 742.844788,597.141968 &#10;&#9;C740.913696,601.548401 739.039551,605.288818 737.165405,609.029297 &#10;&#9;C736.824707,609.461121 736.484009,609.892883 735.894226,610.889832 &#10;&#9;C731.170532,618.307556 726.695923,625.160095 721.872559,631.888733 &#10;&#9;C717.513245,631.616211 712.749634,633.181091 711.564087,626.905151 &#10;&#9;C711.413025,626.105652 709.397522,625.680298 708.271912,625.036011 &#10;&#9;C707.310120,624.485474 705.643677,623.958923 705.560303,623.268311 &#10;&#9;C704.768250,616.703125 696.944824,616.348389 694.987427,610.668579 &#10;&#9;C695.150635,609.954956 695.250549,609.548279 695.350525,609.141663 &#10;&#9;C695.863220,608.919983 696.375854,608.698364 697.168945,608.059570 &#10;&#9;C697.372253,607.131653 697.295227,606.620911 697.218262,606.110168 &#10;&#9;C697.218262,606.110168 697.081482,605.748352 697.438843,605.446411 &#10;&#9;C698.327515,604.757874 698.858826,604.371277 699.665039,603.847351 &#10;&#9;C700.274963,602.762451 700.609924,601.814819 700.941223,600.484009 &#10;&#9;C702.188354,596.903320 703.464722,593.715576 704.684631,590.506348 &#10;&#9;C707.412781,583.329285 710.112854,576.141602 712.824341,568.958191 &#10;&#9;C712.882690,568.800110 712.941101,568.641968 713.362488,568.126648 &#10;&#9;C714.295593,566.470764 714.865784,565.171997 715.435913,563.873230 &#10;z" transform="matrix(1, 0, 0, 1, -7.105427357601002e-15, 0)"/>
  <path fill="#21BDE8" opacity="1.000000" stroke="none" d="&#10;M694.924133,610.975525 &#10;&#9;C696.944824,616.348389 704.768250,616.703125 705.560303,623.268311 &#10;&#9;C705.643677,623.958923 707.310120,624.485474 708.271912,625.036011 &#10;&#9;C709.397522,625.680298 711.413025,626.105652 711.564087,626.905151 &#10;&#9;C712.749634,633.181091 717.513245,631.616211 721.942261,632.113464 &#10;&#9;C722.360718,632.462158 722.529480,632.902771 722.529480,632.902771 &#10;&#9;C722.080566,633.101135 721.631653,633.299500 720.715332,633.917419 &#10;&#9;C713.756653,642.892822 707.219299,651.414551 700.821350,660.039612 &#10;&#9;C699.806519,661.407593 699.419250,663.241150 698.741882,664.859497 &#10;&#9;C698.386963,664.922974 698.032104,664.986450 697.035034,665.075073 &#10;&#9;C695.626221,666.152893 694.859558,667.205444 693.938904,668.511475 &#10;&#9;C692.899292,669.524414 692.013733,670.283875 690.795410,670.897583 &#10;&#9;C685.434937,668.445679 680.374634,666.205933 675.408691,663.773499 &#10;&#9;C674.494812,663.325745 673.835144,662.171814 673.280640,661.214966 &#10;&#9;C671.968994,658.951416 670.791138,656.610352 669.553711,653.989075 &#10;&#9;C669.886169,652.916443 670.224060,652.155334 670.816589,651.674194 &#10;&#9;C674.892944,654.057312 675.740601,649.908081 677.554321,648.417236 &#10;&#9;C678.316711,647.790588 677.140381,644.805237 676.910278,642.551270 &#10;&#9;C678.492310,640.426453 680.009460,638.642456 681.873718,636.845825 &#10;&#9;C682.929504,636.278931 683.638123,635.724731 684.346741,635.170532 &#10;&#9;C683.880615,634.777588 683.414429,634.384644 682.915100,633.605957 &#10;&#9;C684.277771,630.558228 685.640564,627.878235 687.076599,625.238098 &#10;&#9;C689.669373,620.471313 692.305908,615.728394 694.924133,610.975525 &#10;z" transform="matrix(1, 0, 0, 1, -7.105427357601002e-15, 0)"/>
  <path fill="#20B3E9" opacity="1.000000" stroke="none" d="&#10;M669.559204,654.300659 &#10;&#9;C670.791138,656.610352 671.968994,658.951416 673.280640,661.214966 &#10;&#9;C673.835144,662.171814 674.494812,663.325745 675.408691,663.773499 &#10;&#9;C680.374634,666.205933 685.434937,668.445679 690.706055,671.130127 &#10;&#9;C690.751099,671.958740 690.552795,672.409119 690.354492,672.859497 &#10;&#9;C689.906616,673.273926 689.458801,673.688293 688.611206,674.569702 &#10;&#9;C682.970459,680.413086 677.729553,685.789368 672.110107,691.133179 &#10;&#9;C670.830200,691.311768 669.928650,691.522888 669.027100,691.734009 &#10;&#9;C669.528503,692.229248 670.029907,692.724548 670.378418,693.536377 &#10;&#9;C666.526367,696.916809 662.827148,699.980652 658.743164,703.041870 &#10;&#9;C655.956177,704.942566 653.553894,706.845825 652.030396,708.052979 &#10;&#9;C649.939758,704.203125 648.160889,700.741943 646.205627,697.383423 &#10;&#9;C644.527893,694.501404 642.648438,691.736816 640.858154,688.920349 &#10;&#9;C640.897766,688.501770 640.937317,688.083130 641.314819,687.318726 &#10;&#9;C641.999573,686.633057 642.346375,686.293274 642.970642,685.726196 &#10;&#9;C646.459717,681.708069 649.744019,677.975098 652.838745,674.091125 &#10;&#9;C653.768677,672.924072 654.170837,671.336487 655.106262,669.760132 &#10;&#9;C657.815735,667.034912 660.233765,664.491089 662.749329,661.615967 &#10;&#9;C662.842041,660.825439 662.837219,660.366211 663.130859,659.744629 &#10;&#9;C665.472534,657.821655 667.515869,656.061157 669.559204,654.300659 &#10;z" transform="matrix(1, 0, 0, 1, -7.105427357601002e-15, 0)"/>
  <path fill="#21A9E7" opacity="1.000000" stroke="none" d="&#10;M640.602173,688.944824 &#10;&#9;C642.648438,691.736816 644.527893,694.501404 646.205627,697.383423 &#10;&#9;C648.160889,700.741943 649.939758,704.203125 652.030396,708.052979 &#10;&#9;C653.553894,706.845825 655.956177,704.942566 658.658081,703.272095 &#10;&#9;C658.769714,703.951416 658.581604,704.397827 658.393555,704.844238 &#10;&#9;C655.713989,708.197510 653.691956,712.239075 648.675476,713.970337 &#10;&#9;C645.167603,716.846069 642.149902,719.410461 638.836853,722.182922 &#10;&#9;C635.646851,723.713318 632.128113,724.506958 632.956177,728.983398 &#10;&#9;C632.956177,728.983398 632.975281,728.975464 632.610840,728.762024 &#10;&#9;C629.796082,729.716858 627.321838,730.838318 624.903564,732.069580 &#10;&#9;C623.218323,732.927612 621.609802,733.936096 619.884033,734.536438 &#10;&#9;C618.624817,733.530640 617.249329,732.088440 616.305237,732.330322 &#10;&#9;C611.084229,733.667603 609.367371,731.073669 608.819214,726.526917 &#10;&#9;C608.563354,724.404419 607.917419,722.328918 607.488770,720.140381 &#10;&#9;C607.529236,720.048584 607.707275,719.956116 608.116028,719.967896 &#10;&#9;C610.233582,719.312866 613.843506,721.530334 613.064087,716.712769 &#10;&#9;C613.955444,715.308472 614.800354,714.209595 615.645264,713.110718 &#10;&#9;C616.089233,712.703369 616.533203,712.295959 617.376038,711.451477 &#10;&#9;C619.535522,709.045654 621.296082,707.077026 623.056702,705.108276 &#10;&#9;C623.649048,704.881531 624.241455,704.654785 625.271667,704.067261 &#10;&#9;C627.539368,701.509705 629.369263,699.312866 631.199158,697.115967 &#10;&#9;C631.790710,696.703735 632.382263,696.291504 633.391113,695.478760 &#10;&#9;C635.825195,693.096558 637.841919,691.114807 639.858643,689.133057 &#10;&#9;C640.021179,689.078491 640.183655,689.023926 640.602173,688.944824 &#10;z" transform="matrix(1, 0, 0, 1, -7.105427357601002e-15, 0)"/>
  <path fill="#2384E1" opacity="1.000000" stroke="none" d="&#10;M7.185980,343.006775 &#10;&#9;C7.675371,339.033356 8.644954,335.168793 9.352787,331.256866 &#10;&#9;C9.664111,329.536285 9.442690,327.719360 9.276533,325.674866 &#10;&#9;C9.079225,324.919922 9.068537,324.436340 9.451210,323.409485 &#10;&#9;C10.925929,318.804108 11.855911,314.693573 13.135317,310.694794 &#10;&#9;C14.208452,307.340729 15.689196,304.117096 16.998960,301.222717 &#10;&#9;C19.627066,304.338196 22.254242,307.058502 24.861790,309.797455 &#10;&#9;C27.282045,312.339661 29.610458,314.974365 32.118118,317.426361 &#10;&#9;C33.486656,318.764526 35.143211,319.808136 36.739746,321.354736 &#10;&#9;C36.140186,324.096344 35.470757,326.467743 34.801323,328.839172 &#10;&#9;C34.186798,331.219299 33.572277,333.599457 32.557938,336.556244 &#10;&#9;C30.107241,343.757263 28.056364,350.381653 25.671276,356.998016 &#10;&#9;C24.891575,357.005188 24.446087,357.020386 24.000595,357.035583 &#10;&#9;C21.475277,353.744354 19.338991,350.017181 16.298157,347.303650 &#10;&#9;C13.979985,345.234894 10.514738,344.451538 7.185980,343.006775 &#10;z" transform="matrix(1, 0, 0, 1, -7.105427357601002e-15, 0)"/>
  <path fill="#229EE5" opacity="1.000000" stroke="none" d="&#10;M79.188675,244.941452 &#10;&#9;C75.412025,246.685791 72.429947,246.350357 69.777351,242.563858 &#10;&#9;C68.371681,240.557327 65.824005,239.242050 63.598328,237.947510 &#10;&#9;C61.080452,236.483032 54.751617,224.314301 55.659260,221.708145 &#10;&#9;C57.047935,217.720749 58.885979,213.882599 60.131416,209.856796 &#10;&#9;C60.528297,208.573868 59.647800,206.895798 59.194130,204.833649 &#10;&#9;C60.936687,201.143234 62.836918,198.017700 65.091873,195.023102 &#10;&#9;C68.808990,203.750793 74.231537,210.578232 82.414635,215.089233 &#10;&#9;C83.074570,215.453033 83.341866,216.474274 83.968590,216.963104 &#10;&#9;C86.175400,218.684433 88.459427,220.306778 90.764786,222.326019 &#10;&#9;C90.816597,223.411087 90.817780,224.136810 90.818962,224.862534 &#10;&#9;C90.255386,225.150864 89.691803,225.439209 88.709488,226.097260 &#10;&#9;C87.082840,227.759598 85.909111,229.086395 84.658768,230.336563 &#10;&#9;C82.925491,232.069641 81.134659,233.745163 79.092087,235.181503 &#10;&#9;C77.317360,235.391785 75.819016,235.865921 74.320679,236.340042 &#10;&#9;C75.263191,237.917603 76.205704,239.495178 77.193604,241.385223 &#10;&#9;C77.888885,242.778961 78.538780,243.860199 79.188675,244.941452 &#10;z" transform="matrix(1, 0, 0, 1, -7.105427357601002e-15, 0)"/>
  <path fill="#229EE5" opacity="1.000000" stroke="none" d="&#10;M607.448303,720.232117 &#10;&#9;C607.917419,722.328918 608.563354,724.404419 608.819214,726.526917 &#10;&#9;C609.367371,731.073669 611.084229,733.667603 616.305237,732.330322 &#10;&#9;C617.249329,732.088440 618.624817,733.530640 619.869934,734.792114 &#10;&#9;C619.937561,735.559204 619.936340,735.729614 619.719788,735.991211 &#10;&#9;C619.235291,736.267944 619.055969,736.517883 618.966492,736.832214 &#10;&#9;C618.323853,737.266663 617.681213,737.701172 616.578247,738.457031 &#10;&#9;C613.598389,740.214294 610.979736,741.502808 608.580566,743.117554 &#10;&#9;C603.909058,746.261902 599.360413,749.588867 594.760864,752.840149 &#10;&#9;C594.239624,752.987183 593.718445,753.134216 592.660645,753.606934 &#10;&#9;C588.495300,755.651855 584.866455,757.370972 580.848511,759.053467 &#10;&#9;C578.460144,758.233459 576.521545,757.162598 574.449280,756.726013 &#10;&#9;C570.014282,755.791565 568.325684,753.214600 569.114502,748.817383 &#10;&#9;C569.225952,748.767578 569.454163,748.854248 569.886475,748.879028 &#10;&#9;C572.819580,749.067444 574.789185,748.525208 574.970215,745.159546 &#10;&#9;C578.384155,742.212036 581.701172,739.581848 585.018188,736.951721 &#10;&#9;C585.018188,736.951721 585.017761,737.017578 585.339050,737.011108 &#10;&#9;C592.923035,731.413818 600.185669,725.822998 607.448303,720.232117 &#10;z" transform="matrix(1, 0, 0, 1, -7.105427357601002e-15, 0)"/>
  <path fill="#2097E6" opacity="1.000000" stroke="none" d="&#10;M569.003113,748.867188 &#10;&#9;C568.325684,753.214600 570.014282,755.791565 574.449280,756.726013 &#10;&#9;C576.521545,757.162598 578.460144,758.233459 580.783691,759.346069 &#10;&#9;C581.034302,760.068298 580.960510,760.461243 580.886719,760.854126 &#10;&#9;C579.668457,761.072571 578.450134,761.291016 576.692993,761.790894 &#10;&#9;C572.358887,764.323547 568.563599,766.574829 564.768372,768.826050 &#10;&#9;C563.520020,769.200195 562.271667,769.574280 560.530640,770.344360 &#10;&#9;C555.990051,772.094604 551.942078,773.448853 547.650635,774.660156 &#10;&#9;C545.515991,774.287903 543.624756,774.058716 541.445190,773.794556 &#10;&#9;C541.315796,774.888000 541.185425,775.988892 541.046143,777.071167 &#10;&#9;C541.037231,777.052551 541.083862,777.081848 540.670532,777.061035 &#10;&#9;C533.873535,777.582092 535.036743,772.121521 533.680176,768.712280 &#10;&#9;C533.731812,768.718506 533.788513,768.805603 534.168335,768.842896 &#10;&#9;C536.029907,767.884644 537.511780,766.889099 539.265137,765.731567 &#10;&#9;C540.680725,764.689026 541.824829,763.808350 543.236206,763.150879 &#10;&#9;C545.015015,762.990051 546.526428,762.606018 548.180725,761.888672 &#10;&#9;C549.772644,760.546814 551.262878,759.591675 552.661438,758.517212 &#10;&#9;C554.943542,756.763794 557.165771,754.932556 559.413269,753.134155 &#10;&#9;C559.878723,753.002991 560.344116,752.871765 561.336670,752.453125 &#10;&#9;C564.243530,751.066162 566.623291,749.966675 569.003113,748.867188 &#10;z" transform="matrix(1, 0, 0, 1, -7.105427357601002e-15, 0)"/>
  <path fill="#2083E5" opacity="1.000000" stroke="none" d="&#10;M457.958099,800.854553 &#10;&#9;C457.958099,800.854553 457.492279,801.005371 457.001312,800.997070 &#10;&#9;C456.328705,800.943115 456.147064,800.897522 455.684814,800.663879 &#10;&#9;C453.906677,800.933228 452.409149,801.390686 450.607910,802.111206 &#10;&#9;C447.188904,802.513550 444.073700,802.652832 440.657776,802.608521 &#10;&#9;C438.532654,802.880981 436.708252,803.337036 434.876709,803.816284 &#10;&#9;C434.869598,803.839417 434.827576,803.863708 434.374359,803.894592 &#10;&#9;C427.812561,804.120300 421.703979,804.315125 415.255249,804.561523 &#10;&#9;C414.457123,804.605103 413.999084,804.597107 413.742188,804.183350 &#10;&#9;C417.308380,802.906860 420.673492,802.036133 424.038605,801.165405 &#10;&#9;C424.197540,801.112244 424.356506,801.059021 425.141785,800.978943 &#10;&#9;C433.523956,799.681213 441.279816,798.410278 449.311523,797.291748 &#10;&#9;C453.400696,797.022827 457.233429,796.158203 461.021088,796.323792 &#10;&#9;C463.935699,796.451172 464.981506,795.659790 464.962677,792.960266 &#10;&#9;C464.962677,792.960266 464.903900,792.914368 465.309021,792.947388 &#10;&#9;C471.133667,791.550781 476.602478,790.279663 481.950012,788.618164 &#10;&#9;C484.295074,787.889526 486.392639,786.364197 488.602600,785.200684 &#10;&#9;C488.602600,785.200684 488.633392,785.156250 489.117554,785.157471 &#10;&#9;C491.375854,785.093079 493.149963,785.027466 495.264648,785.070435 &#10;&#9;C496.397858,787.100708 497.190460,789.022217 497.779572,791.160400 &#10;&#9;C497.398560,791.932983 497.221039,792.488892 497.043549,793.044861 &#10;&#9;C497.043549,793.044861 497.099487,793.084167 496.688721,793.066406 &#10;&#9;C494.428101,793.649109 492.618652,794.491272 490.721436,794.808533 &#10;&#9;C482.064911,796.256226 473.377441,797.519409 464.722870,798.977844 &#10;&#9;C464.007141,799.098450 463.453918,800.183228 462.825165,800.820007 &#10;&#9;C462.424683,800.866760 462.024200,800.913452 461.097778,800.737305 &#10;&#9;C459.700623,800.627869 458.829346,800.741211 457.958099,800.854553 &#10;z" transform="matrix(1, 0, 0, 1, -7.105427357601002e-15, 0)"/>
  <path fill="#218EE4" opacity="1.000000" stroke="none" d="&#10;M497.983063,790.943787 &#10;&#9;C497.190460,789.022217 496.397858,787.100708 495.419800,784.747314 &#10;&#9;C498.138885,783.176086 501.043457,782.036560 504.284576,780.886353 &#10;&#9;C506.120453,780.207214 507.619781,779.538879 509.446899,778.726807 &#10;&#9;C510.315918,778.114929 510.857147,777.646729 511.398376,777.178467 &#10;&#9;C511.874695,777.036987 512.351074,776.895508 513.379883,776.464600 &#10;&#9;C520.497803,773.685486 527.063171,771.195740 533.628601,768.705994 &#10;&#9;C535.036743,772.121521 533.873535,777.582092 540.548340,777.389343 &#10;&#9;C540.165161,778.159119 539.533264,778.680542 538.809937,778.984375 &#10;&#9;C534.105774,780.959839 529.381714,782.888062 524.664185,784.831787 &#10;&#9;C523.557800,784.946838 522.451355,785.061890 520.714355,785.517578 &#10;&#9;C513.127197,787.668518 506.170685,789.478760 498.908813,791.193970 &#10;&#9;C498.396667,791.047241 498.189880,790.995483 497.983063,790.943787 &#10;z" transform="matrix(1, 0, 0, 1, -7.105427357601002e-15, 0)"/>
  <path fill="#2879D8" opacity="1.000000" stroke="none" d="&#10;M33.183952,570.719666 &#10;&#9;C33.010311,570.195923 32.836658,569.672119 32.392441,568.605713 &#10;&#9;C31.096951,564.712097 30.072029,561.361084 29.375088,557.855835 &#10;&#9;C31.330757,557.519653 32.958450,557.337708 34.660851,557.556641 &#10;&#9;C36.528034,562.989136 38.320511,568.020813 40.112984,573.052490 &#10;&#9;C40.519894,574.293579 40.926800,575.534729 41.679131,577.336304 &#10;&#9;C44.949104,584.904968 47.873657,591.913208 50.466183,598.930542 &#10;&#9;C49.239918,598.937378 48.345676,598.935120 47.213158,598.647461 &#10;&#9;C45.048309,595.177551 43.121742,591.993042 41.195164,588.808533 &#10;&#9;C40.720676,587.551819 40.246204,586.295166 39.425468,584.552979 &#10;&#9;C37.114120,579.618164 35.149036,575.168945 33.183952,570.719666 &#10;z" transform="matrix(1, 0, 0, 1, -7.105427357601002e-15, 0)"/>
  <path fill="#366BBB" opacity="1.000000" stroke="none" d="&#10;M18.725605,473.016296 &#10;&#9;C19.053522,475.167084 18.958385,477.211792 18.766922,479.690796 &#10;&#9;C10.349174,477.341949 9.010859,471.422699 14.864662,464.484131 &#10;&#9;C15.860643,463.303558 15.966366,461.121124 15.976057,459.398712 &#10;&#9;C16.057219,444.974426 16.004854,430.549408 16.037027,416.124695 &#10;&#9;C16.041058,414.317719 16.302788,412.511353 16.650364,410.346405 &#10;&#9;C16.926485,428.846069 16.959145,447.704346 17.121422,466.561493 &#10;&#9;C17.139662,468.680969 17.891111,470.794098 18.725605,473.016296 &#10;z" transform="matrix(1, 0, 0, 1, -7.105427357601002e-15, 0)"/>
  <path fill="#366BBB" opacity="1.000000" stroke="none" d="&#10;M413.742188,804.183350 &#10;&#9;C404.407715,804.943237 395.274353,805.297363 385.692322,805.596313 &#10;&#9;C385.243683,804.253235 385.243683,802.965393 385.243683,800.970642 &#10;&#9;C398.050323,800.970642 410.580353,800.970642 423.574493,801.067993 &#10;&#9;C420.673492,802.036133 417.308380,802.906860 413.742188,804.183350 &#10;z" transform="matrix(1, 0, 0, 1, -7.105427357601002e-15, 0)"/>
  <path fill="#366BBB" opacity="1.000000" stroke="none" d="&#10;M18.992611,529.002441 &#10;&#9;C18.522289,528.990845 18.051964,528.979309 17.228008,528.983032 &#10;&#9;C16.874376,528.998413 16.457140,528.924622 16.251183,528.875244 &#10;&#9;C15.755957,526.767578 15.466686,524.709351 15.254058,522.262634 &#10;&#9;C19.473652,524.364014 20.797464,521.126770 22.648411,518.210144 &#10;&#9;C23.391844,518.290466 23.862520,518.567017 24.578146,518.967163 &#10;&#9;C25.052353,519.670471 25.281610,520.250122 25.790237,520.982910 &#10;&#9;C26.027519,522.822632 25.985432,524.509155 25.572498,526.638428 &#10;&#9;C23.131971,527.721619 21.062292,528.362000 18.992611,529.002441 &#10;z" transform="matrix(1, 0, 0, 1, -7.105427357601002e-15, 0)"/>
  <path fill="#366BBB" opacity="1.000000" stroke="none" d="&#10;M56.604546,608.876343 &#10;&#9;C56.864773,610.371704 56.864773,611.648438 56.864773,612.925110 &#10;&#9;C56.426022,613.129028 55.987270,613.332947 55.548519,613.536865 &#10;&#9;C53.608204,610.139038 51.667889,606.741272 49.448845,603.148560 &#10;&#9;C48.915100,602.361633 48.660084,601.769653 48.073822,600.774292 &#10;&#9;C47.645527,599.891602 47.548485,599.412231 47.451439,598.932861 &#10;&#9;C48.345676,598.935120 49.239918,598.937378 50.466179,598.930542 &#10;&#9;C52.646912,602.166870 54.495617,605.412354 56.604546,608.876343 &#10;z" transform="matrix(1, 0, 0, 1, -7.105427357601002e-15, 0)"/>
  <path fill="#366BBB" opacity="1.000000" stroke="none" d="&#10;M29.375093,557.855835 &#10;&#9;C27.920702,556.441101 26.794281,554.872070 25.401403,553.110962 &#10;&#9;C25.138805,552.746948 25.142662,552.574951 25.536572,552.168274 &#10;&#9;C27.599771,551.293213 29.272917,550.652832 30.946062,550.012512 &#10;&#9;C31.409111,550.270386 31.872162,550.528259 32.576950,550.895996 &#10;&#9;C33.362278,551.659302 33.905869,552.312683 34.795189,553.043457 &#10;&#9;C35.030426,554.201233 34.919926,555.281555 34.697784,556.758850 &#10;&#9;C32.958450,557.337708 31.330757,557.519653 29.375093,557.855835 &#10;z" transform="matrix(1, 0, 0, 1, -7.105427357601002e-15, 0)"/>
  <path fill="#20B3E9" opacity="1.000000" stroke="none" d="&#10;M670.816528,651.674194 &#10;&#9;C670.716064,650.835999 670.870239,650.277710 671.051270,649.427368 &#10;&#9;C671.720581,648.116028 672.362854,647.096680 673.074341,645.742310 &#10;&#9;C674.177490,644.639343 675.211487,643.871399 676.545410,642.997803 &#10;&#9;C677.140381,644.805237 678.316711,647.790588 677.554321,648.417236 &#10;&#9;C675.740601,649.908081 674.892944,654.057312 670.816528,651.674194 &#10;z" transform="matrix(1, 0, 0, 1, -7.105427357601002e-15, 0)"/>
  <path fill="#366BBB" opacity="1.000000" stroke="none" d="&#10;M449.311523,797.291748 &#10;&#9;C451.659515,792.240295 456.751434,795.261047 460.710022,793.357971 &#10;&#9;C462.081451,793.042175 463.127930,792.970947 464.568542,792.929993 &#10;&#9;C464.981506,795.659790 463.935699,796.451172 461.021088,796.323792 &#10;&#9;C457.233429,796.158203 453.400696,797.022827 449.311523,797.291748 &#10;z" transform="matrix(1, 0, 0, 1, -7.105427357601002e-15, 0)"/>
  <path fill="#218EE4" opacity="1.000000" stroke="none" d="&#10;M79.603851,328.914429 &#10;&#9;C76.980255,326.789276 74.602242,324.726257 72.072189,322.359528 &#10;&#9;C79.600975,321.943573 80.953552,322.882385 81.085907,328.825714 &#10;&#9;C80.525604,329.045105 80.187523,329.010803 79.603851,328.914429 &#10;z" transform="matrix(1, 0, 0, 1, -7.105427357601002e-15, 0)"/>
  <path fill="#20C5E9" opacity="1.000000" stroke="none" d="&#10;M282.921356,94.626877 &#10;&#9;C282.902435,95.390854 282.809875,95.809433 282.633759,96.540482 &#10;&#9;C282.204651,96.915703 281.859070,96.978462 281.264313,97.137558 &#10;&#9;C279.264038,97.156464 277.512939,97.079025 275.407593,97.066299 &#10;&#9;C275.989044,95.201279 276.924744,93.271545 277.860413,91.341812 &#10;&#9;C279.522858,92.321709 281.185303,93.301598 282.921356,94.626877 &#10;z" transform="matrix(1, 0, 0, 1, -7.105427357601002e-15, 0)"/>
  <path fill="#218EE4" opacity="1.000000" stroke="none" d="&#10;M547.650635,774.660156 &#10;&#9;C547.602966,775.312195 547.311829,775.821228 546.891357,776.597351 &#10;&#9;C546.382019,776.922913 546.002014,776.981323 545.343140,777.124207 &#10;&#9;C543.995972,777.163025 542.927734,777.117432 541.457275,777.080811 &#10;&#9;C541.185425,775.988892 541.315796,774.888000 541.445190,773.794556 &#10;&#9;C543.624756,774.058716 545.515991,774.287903 547.650635,774.660156 &#10;z" transform="matrix(1, 0, 0, 1, -7.105427357601002e-15, 0)"/>
  <path fill="#366BBB" opacity="1.000000" stroke="none" d="&#10;M11.210909,499.752991 &#10;&#9;C10.562378,499.731781 10.105639,499.467163 9.413176,499.081787 &#10;&#9;C9.107085,498.529907 9.036721,498.098755 8.970125,497.339020 &#10;&#9;C9.783498,497.843475 10.593101,498.676544 11.210909,499.752991 &#10;z" transform="matrix(1, 0, 0, 1, -7.105427357601002e-15, 0)"/>
  <path fill="#20B3E9" opacity="1.000000" stroke="none" d="&#10;M696.966431,665.990356 &#10;&#9;C696.119080,666.839417 695.351929,667.388062 694.338867,668.097412 &#10;&#9;C694.859558,667.205444 695.626221,666.152893 696.764099,665.087402 &#10;&#9;C697.105774,665.279602 697.076233,665.484802 696.966431,665.990356 &#10;z" transform="matrix(1, 0, 0, 1, -7.105427357601002e-15, 0)"/>
  <path fill="#366BBB" opacity="1.000000" stroke="none" d="&#10;M498.908813,791.193970 &#10;&#9;C499.138428,791.639282 499.062714,791.989563 498.943115,792.606445 &#10;&#9;C498.489288,792.937927 498.079376,793.002869 497.356506,793.056274 &#10;&#9;C497.221039,792.488892 497.398560,791.932983 497.779572,791.160400 &#10;&#9;C498.189880,790.995483 498.396667,791.047241 498.908813,791.193970 &#10;z" transform="matrix(1, 0, 0, 1, -7.105427357601002e-15, 0)"/>
  <path fill="#366BBB" opacity="1.000000" stroke="none" d="&#10;M458.335876,800.948730 &#10;&#9;C458.829346,800.741211 459.700623,800.627869 460.798584,800.687256 &#10;&#9;C460.254761,800.921021 459.484192,800.981934 458.335876,800.948730 &#10;z" transform="matrix(1, 0, 0, 1, -7.105427357601002e-15, 0)"/>
  <path fill="#86999C" opacity="1.000000" stroke="none" d="&#10;M481.819092,487.490356 &#10;&#9;C482.059601,487.710358 482.052551,488.029663 482.041046,488.589600 &#10;&#9;C482.040466,488.830322 481.608276,488.994995 481.378906,489.020325 &#10;&#9;C481.291443,488.560364 481.433411,488.075073 481.819092,487.490356 &#10;z" transform="matrix(1, 0, 0, 1, -7.105427357601002e-15, 0)"/>
  <path fill="#86999C" opacity="1.000000" stroke="none" d="&#10;M641.105713,686.219055 &#10;&#9;C641.511108,685.944519 641.850220,685.947144 642.441284,685.951660 &#10;&#9;C642.346375,686.293274 641.999573,686.633057 641.398376,687.014526 &#10;&#9;C641.109131,686.869507 641.074219,686.682800 641.105713,686.219055 &#10;z" transform="matrix(1, 0, 0, 1, -7.105427357601002e-15, 0)"/>
  <path fill="#21AFE8" opacity="1.000000" stroke="none" d="&#10;M142.914948,166.765747 &#10;&#9;C137.592911,172.706116 133.193481,179.307495 125.705376,182.848221 &#10;&#9;C122.916695,184.166824 121.036942,187.407700 118.212700,189.752762 &#10;&#9;C115.737785,187.712128 115.353790,189.664536 114.069771,190.740707 &#10;&#9;C112.195175,192.311951 109.572502,193.930466 107.317932,193.863815 &#10;&#9;C104.671646,193.785583 101.954491,192.143982 99.501541,190.765106 &#10;&#9;C97.608734,189.701111 95.353851,188.331406 94.512039,186.516785 &#10;&#9;C91.359024,179.720062 88.720367,172.684708 86.070099,165.454269 &#10;&#9;C89.266518,161.161591 92.281708,157.153458 95.296906,153.145355 &#10;&#9;C95.868866,152.710785 96.440826,152.276215 97.417923,151.430130 &#10;&#9;C101.854774,146.593063 105.886490,142.167526 109.918205,137.741974 &#10;&#9;C110.544670,141.752136 112.093941,144.660614 116.944527,144.152496 &#10;&#9;C117.782875,144.064682 119.192741,144.641678 119.526665,145.314560 &#10;&#9;C121.549728,149.391022 126.027695,151.422607 128.218048,154.690582 &#10;&#9;C131.710541,159.901321 136.340942,162.503845 141.425583,165.093491 &#10;&#9;C141.972183,165.371872 142.351807,165.978119 142.914948,166.765747 &#10;z" transform="matrix(1, 0, 0, 1, -7.105427357601002e-15, 0)"/>
  <path fill="#20C5E9" opacity="1.000000" stroke="none" d="&#10;M355.165985,19.191261 &#10;&#9;C355.003296,18.485033 355.071228,18.103868 355.198883,17.437050 &#10;&#9;C381.452271,17.105051 407.645966,17.058702 434.277039,17.081715 &#10;&#9;C434.714417,17.151072 434.659027,17.591776 434.583984,17.801346 &#10;&#9;C414.876617,18.008215 395.243500,17.923643 375.612762,18.100916 &#10;&#9;C373.002411,18.124489 370.428009,19.973351 367.794617,20.100632 &#10;&#9;C363.680969,20.299461 359.531128,19.749210 355.165985,19.191261 &#10;z" transform="matrix(1, 0, 0, 1, -7.105427357601002e-15, 0)"/>
  <path fill="#1FCEEB" opacity="1.000000" stroke="none" d="&#10;M311.585815,25.110603 &#10;&#9;C311.125061,25.308683 310.312195,25.419754 309.289856,25.366175 &#10;&#9;C309.798157,25.142214 310.515961,25.082905 311.585815,25.110603 &#10;z" transform="matrix(1, 0, 0, 1, -7.105427357601002e-15, 0)"/>
  <path fill="#20C5E9" opacity="1.000000" stroke="none" d="&#10;M253.727051,42.002716 &#10;&#9;C253.459488,42.018021 253.312103,41.593052 253.278198,41.370827 &#10;&#9;C253.926254,41.102993 254.608185,41.057388 255.622574,41.099529 &#10;&#9;C255.301544,41.453987 254.648087,41.720699 253.727051,42.002716 &#10;z" transform="matrix(1, 0, 0, 1, -7.105427357601002e-15, 0)"/>
  <path fill="#86999C" opacity="1.000000" stroke="none" d="&#10;M174.215118,82.644989 &#10;&#9;C173.964050,82.392891 173.969543,82.041199 173.980927,81.424835 &#10;&#9;C174.216797,81.122757 174.446777,81.085365 175.022827,81.109261 &#10;&#9;C175.069809,81.628822 174.770721,82.087105 174.215118,82.644989 &#10;z" transform="matrix(1, 0, 0, 1, -7.105427357601002e-15, 0)"/>
  <path fill="#1FCEEB" opacity="1.000000" stroke="none" d="&#10;M322.048645,23.976263 &#10;&#9;C322.771637,23.556202 323.503296,23.515783 324.596802,23.533857 &#10;&#9;C324.446014,24.561079 323.933441,25.529812 323.420837,26.498537 &#10;&#9;C322.966339,25.784323 322.511841,25.070114 322.048645,23.976263 &#10;z" transform="matrix(1, 0, 0, 1, -7.105427357601002e-15, 0)"/>
  <path fill="#1FCEEB" opacity="1.000000" stroke="none" d="&#10;M315.250122,24.953556 &#10;&#9;C316.110596,24.393944 317.373535,23.843388 318.936218,23.421917 &#10;&#9;C318.041504,24.021540 316.847015,24.492075 315.250122,24.953556 &#10;z" transform="matrix(1, 0, 0, 1, -7.105427357601002e-15, 0)"/>
  <path fill="#1EBDEA" opacity="1.000000" stroke="none" d="&#10;M434.008911,423.727509 &#10;&#9;C451.079376,423.209167 468.148376,423.069305 485.217712,423.003571 &#10;&#9;C493.505737,422.971649 501.794281,423.078491 510.533386,423.569153 &#10;&#9;C509.842926,425.821075 508.701691,427.626312 507.396027,429.691620 &#10;&#9;C508.393646,430.183655 509.239258,430.955322 510.096619,430.968597 &#10;&#9;C518.483948,431.098663 521.019104,439.826477 527.489685,442.771240 &#10;&#9;C528.190063,443.089966 528.400391,444.463348 528.860413,445.335724 &#10;&#9;C531.279602,449.924072 537.736755,451.021393 538.811401,456.802917 &#10;&#9;C538.834106,456.925018 539.519470,456.833374 539.737305,457.023254 &#10;&#9;C543.995789,460.734467 548.251831,464.449402 552.436890,468.242432 &#10;&#9;C552.841858,468.609467 552.895203,469.490753 552.913391,470.138885 &#10;&#9;C553.120361,477.514099 557.984314,480.222412 564.193054,482.123016 &#10;&#9;C566.082153,482.701263 567.412720,485.104004 568.999084,486.671143 &#10;&#9;C556.734070,486.783081 544.469177,486.961945 532.203979,486.989594 &#10;&#9;C517.775635,487.022125 503.346954,486.923553 488.456757,486.786194 &#10;&#9;C485.565033,481.586517 481.743927,477.980743 476.504700,475.817505 &#10;&#9;C475.664734,475.470734 474.731934,474.765167 474.351471,473.978912 &#10;&#9;C470.278076,465.560455 464.270691,459.223206 455.563965,455.447540 &#10;&#9;C453.683258,454.631958 451.147003,452.935974 450.853485,451.297791 &#10;&#9;C449.949646,446.252838 445.931366,445.208618 442.653992,442.587616 &#10;&#9;C437.127289,438.167786 433.957916,431.664368 434.008911,423.727509 &#10;z" transform="matrix(1, 0, 0, 1, -7.105427357601002e-15, 0)"/>
  <path fill="#1FA9E9" opacity="1.000000" stroke="none" d="&#10;M479.548950,545.003174 &#10;&#9;C479.954224,567.707397 479.954224,590.409912 479.954224,613.074585 &#10;&#9;C478.779572,613.133057 478.198975,613.218140 478.182281,613.154846 &#10;&#9;C476.123688,605.333679 467.387848,604.690491 463.080994,599.031311 &#10;&#9;C458.683990,593.253784 453.002350,588.439209 447.777191,583.310974 &#10;&#9;C442.822662,578.448425 438.434998,572.364990 432.513458,569.301086 &#10;&#9;C425.786987,565.820618 425.346252,557.950806 419.336273,554.405212 &#10;&#9;C418.130432,553.693787 418.072876,550.459961 418.063324,548.386475 &#10;&#9;C417.973419,528.913513 418.009125,509.439911 418.014160,489.502319 &#10;&#9;C422.833344,493.452576 427.802124,497.710846 432.431274,502.310883 &#10;&#9;C446.101044,515.894531 459.580841,529.669922 473.315674,543.186646 &#10;&#9;C474.605011,544.455505 477.170654,544.427429 479.548950,545.003174 &#10;z" transform="matrix(1, 0, 0, 1, -7.105427357601002e-15, 0)"/>
  <path fill="#21A9E7" opacity="1.000000" stroke="none" d="&#10;M414.919281,486.357056 &#10;&#9;C396.017914,486.777618 377.039520,486.877655 358.061096,486.975006 &#10;&#9;C354.397217,486.993774 350.732544,486.962341 347.069580,487.028198 &#10;&#9;C344.364441,487.076813 343.108459,485.848297 343.108154,483.130066 &#10;&#9;C343.106049,464.310486 343.093933,445.490784 343.023926,426.671387 &#10;&#9;C343.013062,423.750580 344.515167,422.962555 347.102997,423.024963 &#10;&#9;C351.430267,423.129333 355.760559,423.108398 360.550781,423.236877 &#10;&#9;C359.736176,429.728790 363.308319,433.521423 367.649139,437.597778 &#10;&#9;C377.625427,446.966309 387.046753,456.924652 396.729065,466.607880 &#10;&#9;C401.856415,471.735718 407.105652,476.742401 412.190277,481.911591 &#10;&#9;C413.312195,483.052216 413.970459,484.648926 414.919281,486.357056 &#10;z" transform="matrix(1, 0, 0, 1, -7.105427357601002e-15, 0)"/>
  <path fill="#229EE5" opacity="1.000000" stroke="none" d="&#10;M80.868866,247.044617 &#10;&#9;C84.729515,249.987869 88.259285,253.045349 91.952591,256.375793 &#10;&#9;C91.604065,257.945679 91.092003,259.242615 90.064857,261.844177 &#10;&#9;C86.203880,257.647522 82.965096,254.338470 80.050957,250.764709 &#10;&#9;C79.527115,250.122284 80.341469,248.388657 80.868866,247.044617 &#10;z" transform="matrix(1, 0, 0, 1, -7.105427357601002e-15, 0)"/>
  <path fill="#21AFE8" opacity="1.000000" stroke="none" d="&#10;M112.120522,135.908142 &#10;&#9;C114.187477,133.240570 116.717308,130.603821 119.560799,127.813736 &#10;&#9;C120.172188,135.905701 120.073067,136.018250 112.120522,135.908142 &#10;z" transform="matrix(1, 0, 0, 1, -7.105427357601002e-15, 0)"/>
  <path fill="#218EE4" opacity="1.000000" stroke="none" d="&#10;M154.905701,396.865845 &#10;&#9;C155.003342,402.471436 154.908020,407.775726 154.376038,413.546509 &#10;&#9;C151.824951,413.632660 148.784073,414.005341 147.756836,412.741455 &#10;&#9;C143.363678,407.336090 139.607407,401.416779 135.502075,395.769806 &#10;&#9;C134.892944,394.931946 133.647003,394.566467 132.717117,393.950134 &#10;&#9;C131.232758,392.966217 129.723801,392.011993 128.299728,390.945740 &#10;&#9;C122.186707,386.368652 118.812508,378.544830 110.786186,376.188782 &#10;&#9;C110.131302,375.996552 109.504425,375.105377 109.205811,374.395447 &#10;&#9;C105.855286,366.429871 99.253029,361.905914 92.034866,358.014618 &#10;&#9;C92.020935,353.185974 92.123978,348.352631 91.930504,343.531189 &#10;&#9;C91.861488,341.811249 91.074097,340.120087 90.311714,338.160339 &#10;&#9;C90.945564,337.855194 92.303230,337.378082 92.753983,337.821960 &#10;&#9;C97.293121,342.291748 101.517700,347.090027 106.167473,351.435638 &#10;&#9;C109.999733,355.017181 114.341858,358.047729 118.334213,361.467041 &#10;&#9;C119.406082,362.385040 120.007469,363.844116 120.858139,365.030945 &#10;&#9;C121.704369,366.211578 122.479309,367.472717 123.485451,368.503357 &#10;&#9;C125.679207,370.750519 128.005142,372.868317 130.267609,375.048737 &#10;&#9;C133.916870,378.565613 137.819061,381.863373 141.135681,385.670715 &#10;&#9;C145.045074,390.158569 149.536392,393.743988 154.905701,396.865845 &#10;z" transform="matrix(1, 0, 0, 1, -7.105427357601002e-15, 0)"/>
  <path fill="#218EE4" opacity="1.000000" stroke="none" d="&#10;M16.998959,301.222717 &#10;&#9;C16.989466,300.835693 17.237383,300.751251 17.772532,300.816223 &#10;&#9;C20.019735,299.640472 21.731789,298.399780 23.443840,297.159088 &#10;&#9;C22.021595,296.436768 20.599352,295.714447 19.177109,294.992126 &#10;&#9;C19.947992,291.208557 20.718876,287.424957 22.010735,283.217773 &#10;&#9;C22.964804,282.009064 23.397896,281.223938 23.830988,280.438843 &#10;&#9;C23.973665,279.400360 24.116343,278.361908 24.822369,277.137177 &#10;&#9;C25.596432,276.960754 25.807144,276.970551 26.017855,276.980316 &#10;&#9;C32.958889,277.061096 37.884781,280.447418 41.405128,286.246124 &#10;&#9;C41.985313,287.201782 42.774765,288.235046 43.728268,288.726379 &#10;&#9;C50.159271,292.039978 53.600296,297.839050 57.248016,303.724792 &#10;&#9;C59.292053,307.022888 62.573441,309.767548 65.794693,312.063812 &#10;&#9;C69.155098,314.459259 72.511765,316.429840 71.958748,321.672852 &#10;&#9;C63.294037,314.559509 54.644203,307.038483 45.480900,299.070984 &#10;&#9;C43.997643,302.513245 42.614506,305.723114 40.526581,309.031738 &#10;&#9;C35.920311,309.748047 37.700180,311.432526 39.087044,313.043182 &#10;&#9;C38.401669,315.467102 37.716293,317.890991 36.850395,320.649750 &#10;&#9;C35.143211,319.808136 33.486656,318.764526 32.118118,317.426361 &#10;&#9;C29.610458,314.974365 27.282045,312.339661 24.861790,309.797455 &#10;&#9;C22.254242,307.058502 19.627066,304.338196 16.998959,301.222717 &#10;z" transform="matrix(1, 0, 0, 1, -7.105427357601002e-15, 0)"/>
  <path fill="#2384E1" opacity="1.000000" stroke="none" d="&#10;M26.142612,276.701416 &#10;&#9;C25.807144,276.970551 25.596432,276.960754 25.069124,276.921997 &#10;&#9;C24.917320,275.824249 25.082111,274.755402 25.425297,273.318298 &#10;&#9;C25.824917,274.107544 26.046143,275.265015 26.142612,276.701416 &#10;z" transform="matrix(1, 0, 0, 1, -7.105427357601002e-15, 0)"/>
  <path fill="#2083E5" opacity="1.000000" stroke="none" d="&#10;M154.643082,442.998016 &#10;&#9;C154.779099,444.401581 154.915100,445.805115 155.139664,447.625366 &#10;&#9;C155.117584,460.710724 155.006943,473.379456 154.821487,486.510071 &#10;&#9;C153.627335,487.257294 152.408020,487.348602 151.407379,487.864197 &#10;&#9;C148.380875,489.423767 146.758331,487.862000 146.385376,485.234619 &#10;&#9;C145.624374,479.873749 142.929855,476.343231 138.309311,473.507416 &#10;&#9;C135.662720,471.883118 134.094757,468.582092 131.829544,466.240723 &#10;&#9;C124.774849,458.948730 118.254173,450.922333 110.268860,444.828735 &#10;&#9;C105.334946,441.063690 103.082771,434.028687 95.683510,432.965942 &#10;&#9;C94.176369,432.749451 92.242844,428.676086 92.183235,426.337952 &#10;&#9;C91.848564,413.212128 92.027458,400.073242 92.413162,386.474487 &#10;&#9;C94.035767,386.383850 95.574127,386.414886 96.465866,387.189941 &#10;&#9;C100.581802,390.767059 104.632118,394.436646 108.491570,398.287933 &#10;&#9;C114.440002,404.223724 120.268028,410.283234 126.045685,416.386322 &#10;&#9;C131.800659,422.465485 138.656387,427.959595 142.717926,435.036804 &#10;&#9;C145.830185,440.459808 149.843964,441.614716 154.643082,442.998016 &#10;z" transform="matrix(1, 0, 0, 1, -7.105427357601002e-15, 0)"/>
  <path fill="#208AE5" opacity="1.000000" stroke="none" d="&#10;M154.734970,442.536743 &#10;&#9;C149.843964,441.614716 145.830185,440.459808 142.717926,435.036804 &#10;&#9;C138.656387,427.959595 131.800659,422.465485 126.045685,416.386322 &#10;&#9;C120.268028,410.283234 114.440002,404.223724 108.491570,398.287933 &#10;&#9;C104.632118,394.436646 100.581802,390.767059 96.465866,387.189941 &#10;&#9;C95.574127,386.414886 94.035767,386.383850 92.421928,386.006042 &#10;&#9;C92.037071,376.984009 92.025528,367.966156 92.024414,358.481445 &#10;&#9;C99.253029,361.905914 105.855286,366.429871 109.205811,374.395447 &#10;&#9;C109.504425,375.105377 110.131302,375.996552 110.786186,376.188782 &#10;&#9;C118.812508,378.544830 122.186707,386.368652 128.299728,390.945740 &#10;&#9;C129.723801,392.011993 131.232758,392.966217 132.717117,393.950134 &#10;&#9;C133.647003,394.566467 134.892944,394.931946 135.502075,395.769806 &#10;&#9;C139.607407,401.416779 143.363678,407.336090 147.756836,412.741455 &#10;&#9;C148.784073,414.005341 151.824951,413.632660 154.287811,414.006042 &#10;&#9;C154.699768,423.357880 154.763306,432.716705 154.734970,442.536743 &#10;z" transform="matrix(1, 0, 0, 1, -7.105427357601002e-15, 0)"/>
  <path fill="#1EC5EB" opacity="1.000000" stroke="none" d="&#10;M569.459229,486.771240 &#10;&#9;C567.412720,485.104004 566.082153,482.701263 564.193054,482.123016 &#10;&#9;C557.984314,480.222412 553.120361,477.514099 552.913391,470.138885 &#10;&#9;C552.895203,469.490753 552.841858,468.609467 552.436890,468.242432 &#10;&#9;C548.251831,464.449402 543.995789,460.734467 539.737305,457.023254 &#10;&#9;C539.519470,456.833374 538.834106,456.925018 538.811401,456.802917 &#10;&#9;C537.736755,451.021393 531.279602,449.924072 528.860413,445.335724 &#10;&#9;C528.400391,444.463348 528.190063,443.089966 527.489685,442.771240 &#10;&#9;C521.019104,439.826477 518.483948,431.098663 510.096619,430.968597 &#10;&#9;C509.239258,430.955322 508.393646,430.183655 507.396027,429.691620 &#10;&#9;C508.701691,427.626312 509.842926,425.821075 510.992645,423.667908 &#10;&#9;C522.812683,423.211609 534.624023,423.049988 546.435852,423.008057 &#10;&#9;C561.751282,422.953644 577.067566,423.062286 592.382202,422.942047 &#10;&#9;C595.783203,422.915375 597.097046,423.999939 597.071960,427.527527 &#10;&#9;C596.941650,445.838806 596.936890,464.151764 597.052246,482.463135 &#10;&#9;C597.074219,485.959961 595.831848,487.162048 592.388000,487.062225 &#10;&#9;C584.902893,486.845398 577.409424,486.917419 569.459229,486.771240 &#10;z" transform="matrix(1, 0, 0, 1, -7.105427357601002e-15, 0)"/>
  <path fill="#20B3E9" opacity="1.000000" stroke="none" d="&#10;M681.873657,636.845825 &#10;&#9;C681.845886,636.052673 682.165283,635.246948 682.716431,634.216431 &#10;&#9;C683.414429,634.384644 683.880615,634.777588 684.346741,635.170532 &#10;&#9;C683.638123,635.724731 682.929504,636.278931 681.873657,636.845825 &#10;z" transform="matrix(1, 0, 0, 1, -7.105427357601002e-15, 0)"/>
  <path fill="#21A9E7" opacity="1.000000" stroke="none" d="&#10;M672.110107,691.133179 &#10;&#9;C671.999634,691.759583 671.510620,692.353455 670.776489,693.083618 &#10;&#9;C670.029907,692.724548 669.528503,692.229248 669.027100,691.734009 &#10;&#9;C669.928650,691.522888 670.830200,691.311768 672.110107,691.133179 &#10;z" transform="matrix(1, 0, 0, 1, -7.105427357601002e-15, 0)"/>
  <path fill="#21A9E7" opacity="1.000000" stroke="none" d="&#10;M65.091873,195.023102 &#10;&#9;C71.590569,185.310501 78.444000,175.728821 85.593155,165.942993 &#10;&#9;C88.720367,172.684708 91.359024,179.720062 94.512039,186.516785 &#10;&#9;C95.353851,188.331406 97.608734,189.701111 99.501541,190.765106 &#10;&#9;C101.954491,192.143982 104.671646,193.785583 107.317932,193.863815 &#10;&#9;C109.572502,193.930466 112.195175,192.311951 114.069771,190.740707 &#10;&#9;C115.353790,189.664536 115.737785,187.712128 117.930725,189.934952 &#10;&#9;C112.057335,197.049698 105.906845,203.937759 99.848625,210.906036 &#10;&#9;C99.026756,211.851379 98.667130,213.198578 97.557472,214.675858 &#10;&#9;C95.607620,215.130981 94.193756,215.269943 92.779900,215.408920 &#10;&#9;C92.778656,215.747238 92.777412,216.085541 92.776169,216.423859 &#10;&#9;C93.468826,216.605423 94.161491,216.786987 94.854149,216.968567 &#10;&#9;C93.651146,218.489426 92.448151,220.010300 90.979660,221.748901 &#10;&#9;C88.459427,220.306778 86.175400,218.684433 83.968590,216.963104 &#10;&#9;C83.341866,216.474274 83.074570,215.453033 82.414635,215.089233 &#10;&#9;C74.231537,210.578232 68.808990,203.750793 65.091873,195.023102 &#10;z" transform="matrix(1, 0, 0, 1, -7.105427357601002e-15, 0)"/>
  <path fill="#219DE5" opacity="1.000000" stroke="none" d="&#10;M79.092094,235.181503 &#10;&#9;C78.835678,237.202606 78.302872,238.959885 77.459145,240.894943 &#10;&#9;C76.205704,239.495178 75.263191,237.917603 74.320679,236.340042 &#10;&#9;C75.819016,235.865921 77.317360,235.391785 79.092094,235.181503 &#10;z" transform="matrix(1, 0, 0, 1, -7.105427357601002e-15, 0)"/>
  <path fill="#218EE4" opacity="1.000000" stroke="none" d="&#10;M534.168335,768.842896 &#10;&#9;C535.285828,767.858521 536.783142,766.911499 538.637085,765.928955 &#10;&#9;C537.511780,766.889099 536.029907,767.884644 534.168335,768.842896 &#10;z" transform="matrix(1, 0, 0, 1, -7.105427357601002e-15, 0)"/>
  <path fill="#218EE4" opacity="1.000000" stroke="none" d="&#10;M543.236206,763.150879 &#10;&#9;C544.406433,762.648132 545.843933,762.368591 547.659668,762.155518 &#10;&#9;C546.526428,762.606018 545.015015,762.990051 543.236206,763.150879 &#10;z" transform="matrix(1, 0, 0, 1, -7.105427357601002e-15, 0)"/>
  <path fill="#229EE5" opacity="1.000000" stroke="none" d="&#10;M95.136475,216.855682 &#10;&#9;C94.161491,216.786987 93.468826,216.605423 92.776169,216.423859 &#10;&#9;C92.777412,216.085541 92.778656,215.747238 92.779900,215.408920 &#10;&#9;C94.193756,215.269943 95.607620,215.130981 97.381821,214.993896 &#10;&#9;C96.967712,215.578125 96.193260,216.160477 95.136475,216.855682 &#10;z" transform="matrix(1, 0, 0, 1, -7.105427357601002e-15, 0)"/>
  <path fill="#366BBB" opacity="1.000000" stroke="none" d="&#10;M434.374359,803.894592 &#10;&#9;C433.613068,804.484924 432.396362,805.639282 431.184387,805.634338 &#10;&#9;C426.179352,805.613953 421.175690,805.242310 415.883484,804.754822 &#10;&#9;C421.703979,804.315125 427.812561,804.120300 434.374359,803.894592 &#10;z" transform="matrix(1, 0, 0, 1, -7.105427357601002e-15, 0)"/>
  <path fill="#366BBB" opacity="1.000000" stroke="none" d="&#10;M440.657776,802.608521 &#10;&#9;C439.204956,803.130066 437.451477,803.468079 435.290894,803.799561 &#10;&#9;C436.708252,803.337036 438.532654,802.880981 440.657776,802.608521 &#10;z" transform="matrix(1, 0, 0, 1, -7.105427357601002e-15, 0)"/>
  <path fill="#366BBB" opacity="1.000000" stroke="none" d="&#10;M455.684814,800.663940 &#10;&#9;C454.537170,801.180969 453.108887,801.509949 451.296112,801.843506 &#10;&#9;C452.409149,801.390686 453.906677,800.933228 455.684814,800.663940 &#10;z" transform="matrix(1, 0, 0, 1, -7.105427357601002e-15, 0)"/>
  <path fill="#366BBB" opacity="1.000000" stroke="none" d="&#10;M504.284576,780.886353 &#10;&#9;C505.456390,780.127869 506.964752,779.358582 508.796143,778.729980 &#10;&#9;C507.619781,779.538879 506.120453,780.207214 504.284576,780.886353 &#10;z" transform="matrix(1, 0, 0, 1, -7.105427357601002e-15, 0)"/>
  <path fill="#2384E1" opacity="1.000000" stroke="none" d="&#10;M39.319023,312.783356 &#10;&#9;C37.700180,311.432526 35.920311,309.748047 40.189114,309.159546 &#10;&#9;C40.221291,310.300293 39.886147,311.411926 39.319023,312.783356 &#10;z" transform="matrix(1, 0, 0, 1, -7.105427357601002e-15, 0)"/>
  <path fill="#226CE3" opacity="1.000000" stroke="none" d="&#10;M30.960239,549.579590 &#10;&#9;C29.272917,550.652832 27.599771,551.293213 25.581352,551.914185 &#10;&#9;C24.332933,548.423767 23.429789,544.952759 22.288288,540.774719 &#10;&#9;C21.124512,538.008667 20.199093,535.949585 19.273670,533.890503 &#10;&#9;C19.186037,532.533447 19.098410,531.176453 19.001698,529.410889 &#10;&#9;C21.062292,528.362000 23.131971,527.721619 25.565186,527.060913 &#10;&#9;C27.610619,534.409363 29.292519,541.777954 30.960239,549.579590 &#10;z" transform="matrix(1, 0, 0, 1, -7.105427357601002e-15, 0)"/>
  <path fill="#366BBB" opacity="1.000000" stroke="none" d="&#10;M19.263138,534.274780 &#10;&#9;C20.199093,535.949585 21.124512,538.008667 22.066988,540.457520 &#10;&#9;C21.140230,538.784546 20.196415,536.721802 19.263138,534.274780 &#10;z" transform="matrix(1, 0, 0, 1, -7.105427357601002e-15, 0)"/>
  <path fill="#2384E1" opacity="1.000000" stroke="none" d="&#10;M19.016294,295.339111 &#10;&#9;C20.599352,295.714447 22.021595,296.436768 23.443840,297.159088 &#10;&#9;C21.731789,298.399780 20.019735,299.640472 17.898403,300.852325 &#10;&#9;C17.944578,299.111023 18.400028,297.398529 19.016294,295.339111 &#10;z" transform="matrix(1, 0, 0, 1, -7.105427357601002e-15, 0)"/>
  <path fill="#2384E1" opacity="1.000000" stroke="none" d="&#10;M23.527100,280.599915 &#10;&#9;C23.397896,281.223938 22.964804,282.009064 22.188049,282.900238 &#10;&#9;C22.303995,282.257874 22.763603,281.509460 23.527100,280.599915 &#10;z" transform="matrix(1, 0, 0, 1, -7.105427357601002e-15, 0)"/>
</svg>