<svg version="1.1" id="Layer_1" xmlns="http://www.w3.org/2000/svg" xmlns:xlink="http://www.w3.org/1999/xlink" x="0px" y="0px"
	 width="100%" viewBox="0 0 1101 954" enable-background="new 0 0 1101 954" xml:space="preserve">
<path fill="#000000" opacity="1.000000" stroke="none" 
	d="
M429.000000,955.000000 
	C286.403351,955.000000 143.806717,955.000000 1.000000,955.000000 
	C1.000000,808.975159 1.000000,662.950256 1.337449,516.518433 
	C24.479219,547.464050 47.313457,578.794861 70.034477,610.207581 
	C71.978706,612.895569 73.970970,614.017761 77.379028,613.997986 
	C104.189919,613.842407 131.002121,613.911377 157.813919,613.911133 
	C159.722641,613.911072 161.631363,613.911072 163.823898,613.911072 
	C163.823898,616.710083 163.823898,618.690491 163.823898,620.670898 
	C163.823883,684.453003 163.822067,748.235046 163.832199,812.017151 
	C163.832520,814.010620 163.956390,816.004028 164.090515,818.317993 
	C164.785019,818.685364 165.411636,818.732300 166.501373,818.836426 
	C206.972198,818.855042 246.979919,818.816467 287.315948,818.864746 
	C288.163483,818.655518 288.682709,818.359497 289.313568,817.602051 
	C289.441742,814.812195 289.472137,812.483765 289.472809,810.155334 
	C289.492065,744.784912 289.508362,679.414551 289.959167,614.001709 
	C316.381195,613.943237 342.369598,613.854065 368.356781,613.996338 
	C371.917145,614.015869 374.051422,612.922974 376.129486,610.040771 
	C398.130035,579.526489 420.279358,549.119507 442.367981,518.668579 
	C443.075806,517.692810 443.571686,516.563293 444.450531,515.000000 
	C296.151245,515.000000 148.575623,515.000000 1.000000,515.000000 
	C1.000000,343.734558 1.000000,172.469116 1.000000,1.000000 
	C187.691513,1.000000 374.383118,1.000000 561.827637,1.268158 
	C561.677246,2.265355 560.829773,3.079793 559.862732,3.711203 
	C510.389069,36.015694 460.930267,68.343147 411.367157,100.509964 
	C408.001678,102.694199 406.908875,104.965042 406.922577,108.888680 
	C407.070648,151.208130 406.953674,193.528580 407.143066,235.847702 
	C407.156616,238.882492 408.316101,242.405777 410.096954,244.866730 
	C453.139801,304.347626 496.338623,363.715668 539.514893,423.100006 
	C542.005310,426.525360 544.542847,429.916534 547.058472,433.323608 
	C547.408325,433.222778 547.758179,433.121918 548.108032,433.021088 
	C548.108032,358.614227 548.108032,284.207367 548.108032,209.022491 
	C552.880798,212.297394 556.708191,215.248276 560.872803,217.602814 
	C562.304321,218.412170 564.951782,218.407654 566.397095,217.607208 
	C570.885681,215.121201 575.063843,212.074768 579.355591,209.762726 
	C579.362305,284.419434 579.375916,358.559204 579.307129,432.877136 
	C579.513184,433.078125 579.801575,433.100952 580.395569,433.004700 
	C581.495850,431.587524 582.290466,430.289337 583.379272,428.834473 
	C628.335266,367.277649 673.016724,305.891663 717.576111,244.417221 
	C719.101929,242.312241 720.154785,239.322815 720.164246,236.741043 
	C720.321045,193.747009 720.232788,150.752106 720.360352,107.757858 
	C720.370117,104.472389 719.257263,102.699333 716.603394,100.983116 
	C695.494385,87.332024 674.482117,73.531487 653.431091,59.790600 
	C625.409668,41.499783 597.368652,23.238855 569.388245,4.885574 
	C568.004639,3.977976 567.118042,2.312537 566.000000,0.999994 
	C744.594238,1.000000 923.188477,1.000000 1102.000000,1.000000 
	C1102.000000,172.024841 1102.000000,343.049774 1101.531494,514.525085 
	C994.582031,514.987976 888.101196,515.009460 781.620361,514.967041 
	C778.611511,514.965820 776.465698,515.467407 774.498352,518.185547 
	C751.653992,549.746887 728.691650,581.223267 705.627014,612.624084 
	C703.661011,615.300598 703.898804,616.945435 705.755310,619.485596 
	C727.467346,649.192871 749.112305,678.949829 770.596191,708.822327 
	C773.026611,712.201721 775.568970,713.268616 779.644287,713.260986 
	C849.964661,713.128601 920.286377,713.343689 990.604553,712.925354 
	C998.783020,712.876709 1002.466736,716.502869 1005.974304,723.146423 
	C1003.559082,723.146423 1001.613525,723.146362 999.668030,723.146362 
	C926.347961,723.146362 853.027832,723.182129 779.708008,723.044983 
	C775.886108,723.037781 773.710449,724.302368 771.548767,727.264526 
	C750.151001,756.585938 728.617004,785.808105 707.136047,815.068970 
	C706.338318,816.155640 705.689331,817.351624 704.773376,818.811768 
	C706.037720,818.891663 706.535706,818.950684 707.033691,818.950745 
	C813.014526,818.955200 918.995361,818.973572 1024.975952,818.818542 
	C1026.970581,818.815613 1029.624878,817.245300 1030.854370,815.581055 
	C1046.484619,794.424316 1061.911133,773.117004 1077.387085,751.846313 
	C1085.000488,741.382263 1092.608887,730.914551 1100.246094,720.411926 
	C1077.071777,688.388611 1054.085938,656.736938 1031.286621,624.951721 
	C1028.959473,621.707336 1026.518555,620.691223 1022.660095,620.697021 
	C950.006775,620.805725 877.353149,620.777039 804.699646,620.777039 
	C802.837524,620.777039 800.975403,620.777100 799.113342,620.777100 
	C798.979675,620.351074 798.846069,619.925049 798.712463,619.499023 
	C801.485474,616.493774 804.258484,613.488525 807.488586,610.582153 
	C881.728027,610.698975 955.510376,610.721375 1029.292725,610.697021 
	C1030.510010,610.696655 1031.727173,610.127319 1033.228760,609.655457 
	C1055.114624,579.788025 1076.706055,550.081238 1098.351562,520.413940 
	C1099.315796,519.092163 1100.772583,518.129761 1102.000000,517.000000 
	C1102.000000,662.940002 1102.000000,808.880066 1102.000000,955.000000 
	C902.975159,955.000000 703.950195,955.000000 504.085449,954.796753 
	C506.691559,948.248169 510.137543,941.902832 513.934631,934.911011 
	C492.857056,934.911011 472.601196,934.911011 452.249512,934.911011 
	C452.249512,933.108398 452.249512,931.710754 452.249512,929.875916 
	C454.143555,929.875916 455.778564,929.875977 457.413605,929.875977 
	C470.902252,929.876038 484.391144,929.915710 497.879120,929.820496 
	C499.377258,929.809875 501.605438,929.508423 502.242889,928.527832 
	C505.711029,923.192932 508.786407,917.602600 512.382812,911.438904 
	C496.669708,911.438904 481.887146,911.407471 467.104797,911.452881 
	C460.128326,911.474304 452.303986,909.707886 446.414612,912.289429 
	C440.524261,914.871399 436.409973,921.730469 431.857117,927.007935 
	C430.397125,928.700256 429.380432,931.293640 429.265289,933.531677 
	C428.897766,940.673401 429.049072,947.841858 429.000000,955.000000 
M761.493042,724.048218 
	C761.319763,723.820740 761.146484,723.593262 760.262695,723.196960 
	C702.622437,723.195435 644.982117,723.182495 587.341858,723.196533 
	C552.192078,723.205078 517.042297,723.255188 481.890991,722.547180 
	C485.267792,714.980957 490.819580,712.821289 499.230896,712.934326 
	C538.193848,713.458008 577.167725,713.145630 616.137573,713.208069 
	C618.943848,713.212585 621.025208,712.856201 622.890503,710.267273 
	C643.415466,681.779785 664.089905,653.399963 684.709229,624.980408 
	C685.537415,623.838867 686.219421,622.591248 687.429932,620.657593 
	C618.494202,620.657593 550.356567,620.657593 481.057129,620.657593 
	C484.178650,616.705261 486.603699,613.634766 489.955231,610.684021 
	C557.218994,610.702087 624.482788,610.723145 691.746582,610.710815 
	C692.845276,610.710632 693.943848,610.301270 695.672485,609.824951 
	C718.497375,578.415710 741.322266,547.006409 764.376526,515.281433 
	C763.327576,515.095520 763.168945,515.042725 763.010254,515.042725 
	C662.229065,515.029846 561.447937,515.006470 460.666901,515.129456 
	C458.930939,515.131531 456.654968,516.484741 455.552612,517.916870 
	C449.564178,525.696472 443.842896,533.682617 438.071808,541.628296 
	C422.036499,563.705688 406.021973,585.798096 389.464722,608.235168 
	C388.901581,609.125244 388.338440,610.015259 387.354828,611.126648 
	C387.119293,611.364685 386.999237,611.651123 386.476440,612.322815 
	C385.954529,613.197327 385.432617,614.071838 384.981140,614.969910 
	C384.981140,614.969910 384.937988,614.909424 384.290649,615.286316 
	C383.571350,617.715393 382.228271,620.143433 382.223877,622.573792 
	C382.109192,686.185303 382.133240,749.797058 382.133484,813.408813 
	C382.133484,815.165222 382.133484,816.921631 382.133484,818.975403 
	C384.529968,818.975403 386.177704,818.975403 387.825409,818.975403 
	C487.739136,818.975464 587.652832,818.975464 687.566589,818.975403 
	C688.232666,818.975403 689.027161,819.210754 689.540833,818.930847 
	C691.110413,818.075500 692.572021,817.021973 694.008606,816.021484 
	C694.008606,816.021484 694.052002,816.078064 694.616821,815.749512 
	C695.215088,814.842529 695.813354,813.935547 696.900818,812.621887 
	C702.595581,804.847778 708.316650,797.092712 713.980286,789.295959 
	C729.306885,768.197083 744.608948,747.080322 760.364380,725.659119 
	C760.619507,725.198364 760.874634,724.737549 761.493042,724.048218 
M781.485840,949.470764 
	C785.295715,949.470764 789.105652,949.470764 794.352844,949.470764 
	C788.673767,942.728455 784.132690,937.337158 779.611023,931.968933 
	C781.425354,929.895447 782.679260,928.072571 784.305664,926.686951 
	C787.431702,924.023926 789.054382,920.338501 787.551514,916.945068 
	C784.775085,910.676025 780.985046,904.844666 777.405884,898.959595 
	C777.043152,898.363098 775.236206,898.538086 774.098999,898.535828 
	C761.450867,898.510132 748.802673,898.510193 736.154541,898.537354 
	C735.017090,898.539734 733.274963,898.354126 732.837830,898.975891 
	C729.039917,904.377686 723.240906,909.599915 722.326843,915.536072 
	C720.635010,926.523132 721.842712,937.956604 721.842712,949.246460 
	C729.532532,949.246460 736.581726,949.246460 744.172974,949.246460 
	C744.172974,944.794434 744.172974,940.733582 744.172974,936.380310 
	C748.374207,936.380310 752.042358,936.603271 755.670471,936.317322 
	C759.271667,936.033569 761.846313,937.080994 763.191772,940.516052 
	C766.146545,948.060242 771.546814,951.092102 779.518555,949.478882 
	C779.838257,949.414185 780.182556,949.470703 781.485840,949.470764 
M686.499512,898.518372 
	C683.332825,898.518372 680.086121,898.975159 677.013855,898.436584 
	C665.760315,896.463928 658.310425,900.609558 653.173584,910.886658 
	C649.277100,918.682312 650.149902,926.627686 651.792175,934.089905 
	C652.922058,939.223938 657.649841,943.624329 661.031982,948.156677 
	C661.732971,949.096130 663.588867,949.572327 664.917908,949.582947 
	C677.750366,949.685974 690.584656,949.703796 703.416260,949.557556 
	C704.827576,949.541443 706.703186,948.720520 707.553101,947.637146 
	C713.759399,939.726257 719.478699,931.548828 717.207886,920.588257 
	C716.587830,917.595520 716.287720,914.460938 715.167969,911.660461 
	C710.682617,900.443176 702.317261,896.169739 690.494019,898.493408 
	C689.531189,898.682678 688.498901,898.518433 686.499512,898.518372 
M911.904053,919.431702 
	C910.359070,918.796631 908.829407,917.661255 907.266418,917.613403 
	C900.614075,917.409790 893.947449,917.662659 887.296021,917.444153 
	C885.383667,917.381348 882.030884,919.113098 882.070984,915.231873 
	C882.078186,914.532104 885.600403,913.340942 887.527466,913.282043 
	C895.011414,913.053406 902.507568,913.255554 909.996399,913.128845 
	C911.315857,913.106567 913.274658,912.667969 913.821411,911.753723 
	C916.254089,907.686340 918.280762,903.376160 920.549866,898.967773 
	C919.557495,898.645691 919.117126,898.377380 918.677307,898.378235 
	C902.531860,898.409912 886.386292,898.437622 870.241699,898.581421 
	C869.106384,898.591553 867.442139,899.165405 866.935547,900.018433 
	C863.802490,905.294800 859.410645,910.485535 858.506836,916.191040 
	C857.904663,919.992126 862.400330,924.600952 864.615417,928.847717 
	C864.692200,928.994751 864.743469,929.199341 864.867737,929.270691 
	C866.420776,930.162720 867.957520,931.729004 869.551392,931.792480 
	C876.531921,932.070679 883.532776,931.804382 890.518738,932.002136 
	C891.931580,932.042114 893.311707,933.237976 894.706909,933.901001 
	C893.336670,934.443298 891.974060,935.431335 890.594910,935.454956 
	C882.107666,935.600769 873.615417,935.454102 865.128235,935.601868 
	C863.690125,935.626892 861.591370,936.191406 860.961182,937.219666 
	C858.679504,940.942749 856.893433,944.969604 854.621582,949.474304 
	C873.118164,949.474304 890.731506,949.514893 908.343506,949.382202 
	C909.509888,949.373413 911.134705,948.325012 911.755798,947.287048 
	C919.027649,935.134705 919.026184,933.941895 912.686096,921.017456 
	C912.539612,920.718933 912.366211,920.433655 911.904053,919.431702 
M317.471771,949.649109 
	C326.074585,951.218323 331.526886,947.531067 337.192383,940.880310 
	C343.074371,933.975403 342.801819,926.821472 342.847656,919.122070 
	C342.869110,915.516479 332.359497,899.895447 329.054901,898.700256 
	C328.308502,898.430176 327.416595,898.517456 326.591583,898.516785 
	C315.260925,898.506958 303.929565,898.450195 292.600494,898.584839 
	C291.136841,898.602234 289.225647,899.215698 288.300507,900.249756 
	C280.722443,908.719604 273.135895,917.276672 276.155029,930.089661 
	C276.192230,930.247559 276.154907,930.421997 276.160583,930.588440 
	C276.261597,933.552246 287.757721,948.933289 290.496613,949.577759 
	C291.603790,949.838318 292.819214,949.647400 293.985352,949.647827 
	C301.483582,949.650391 308.981812,949.649170 317.471771,949.649109 
M519.827637,949.471375 
	C534.984131,949.471741 550.141296,949.540100 565.295959,949.374146 
	C566.930054,949.356201 569.290894,948.428467 570.060303,947.161194 
	C577.445862,934.997070 577.507751,932.963074 570.779419,920.615601 
	C569.978821,919.146362 567.638855,917.741882 565.950562,917.665039 
	C558.803528,917.339478 551.628845,917.657654 544.474792,917.421326 
	C542.968140,917.371521 541.505981,915.975403 540.023315,915.199707 
	C541.440430,914.529724 542.843933,913.316467 544.277039,913.280457 
	C551.933716,913.088013 559.598633,913.246887 567.258484,913.135925 
	C568.610657,913.116272 570.596619,912.821228 571.189453,911.925232 
	C573.961792,907.735168 576.348816,903.290100 579.116089,898.517822 
	C561.601379,898.517822 544.967651,898.494934 528.334351,898.574341 
	C527.331787,898.579102 525.864380,899.119568 525.408142,899.884766 
	C522.259766,905.164307 518.002441,910.297363 516.817444,916.038147 
	C516.116699,919.432922 520.380737,923.852661 522.413757,927.810730 
	C522.489624,927.958496 522.607849,928.088623 522.662659,928.242493 
	C523.695496,931.140930 525.648865,932.102722 528.775757,931.989075 
	C535.595459,931.741272 542.432861,931.819336 549.256958,931.997192 
	C550.533630,932.030457 551.781982,933.150146 553.043396,933.768494 
	C551.716675,934.355408 550.399231,935.424683 549.061646,935.450439 
	C540.903503,935.608093 532.740234,935.477478 524.580261,935.578064 
	C523.200134,935.595032 521.166443,935.821594 520.566772,936.712891 
	C517.953430,940.597534 515.758179,944.763306 513.038940,949.471313 
	C515.656616,949.471313 517.297119,949.471313 519.827637,949.471375 
M621.482117,898.520020 
	C612.652710,898.519775 603.823181,898.493347 594.994141,898.548523 
	C593.716614,898.556519 591.795471,898.501465 591.268982,899.248474 
	C587.545776,904.531677 581.912170,909.691895 581.052551,915.507019 
	C579.422363,926.534546 580.580750,937.974304 580.580750,949.232971 
	C588.282837,949.232971 595.333923,949.232971 602.924072,949.232971 
	C602.924072,945.424011 602.924072,942.021729 602.924072,938.223633 
	C610.439819,938.223633 617.473633,937.626160 624.360535,938.376648 
	C632.755920,939.291565 638.250977,936.645264 642.670471,929.275879 
	C647.408447,921.375549 647.375244,916.756592 642.968506,908.844788 
	C638.212708,900.306213 631.944702,896.734192 621.482117,898.520020 
M372.906433,938.233337 
	C378.731659,938.230469 384.642181,937.595459 390.362885,938.367310 
	C399.873932,939.650513 406.268188,936.478760 411.022400,928.064392 
	C414.509552,921.892517 415.195404,916.058044 411.105988,910.221069 
	C409.102509,907.361389 407.357147,904.251343 404.972443,901.753540 
	C403.483002,900.193542 401.039276,898.706299 398.988983,898.657837 
	C386.845917,898.371155 374.692688,898.505066 362.542938,898.529968 
	C361.402740,898.532349 359.650848,898.332886 359.218750,898.951050 
	C355.354584,904.479553 349.492645,909.811340 348.512909,915.892761 
	C346.769531,926.713867 348.022980,938.017822 348.022980,949.337341 
	C355.591492,949.337341 362.658569,949.337341 370.131897,949.337341 
	C370.131897,946.894104 369.902802,944.720886 370.208862,942.625793 
	C370.428986,941.119019 371.363159,939.716492 372.906433,938.233337 
M818.672119,949.466919 
	C823.966309,949.466919 829.260437,949.466919 835.092102,949.466919 
	C835.092102,937.674316 835.092102,926.447815 835.092102,914.957825 
	C840.122986,914.957825 844.605164,915.053284 849.078735,914.899780 
	C850.422607,914.853577 852.392456,914.525391 852.964478,913.622437 
	C855.925659,908.948242 858.526672,904.045837 861.391785,898.978027 
	C835.654724,898.978027 810.689331,898.978027 785.242493,898.978027 
	C787.945801,903.708496 790.123779,908.031494 792.833374,911.990723 
	C793.816406,913.427063 796.010925,914.675781 797.754395,914.825500 
	C802.324402,915.217957 806.950439,914.957947 811.937927,914.957947 
	C811.937927,926.722900 811.937927,937.826416 811.937927,949.467102 
	C814.134338,949.467102 815.931091,949.467102 818.672119,949.466919 
M271.408661,898.524597 
	C249.502747,898.524597 227.596817,898.524597 204.952911,898.524597 
	C207.828156,903.562561 210.379135,907.645752 212.520874,911.933228 
	C213.763489,914.420837 215.360535,915.145264 218.018402,915.018311 
	C222.587173,914.800049 227.173904,914.957947 232.142700,914.957947 
	C232.142700,926.933533 232.142700,938.013123 232.142700,949.020386 
	C239.947739,949.020386 247.313736,949.020386 255.101685,949.020386 
	C255.101685,937.488770 255.101685,926.401550 255.101685,914.957825 
	C259.507660,914.957825 263.479980,915.042847 267.444733,914.906921 
	C268.656677,914.865356 270.357056,914.597046 270.964539,913.783569 
	C274.495605,909.054504 277.767548,904.131897 281.645844,898.524719 
	C277.928986,898.524719 275.150787,898.524719 271.408661,898.524597 
M465.512329,885.569946 
	C462.353180,885.569763 459.186493,885.438110 456.037689,885.618591 
	C454.141052,885.727295 451.553009,885.665405 450.510681,886.807312 
	C444.874542,892.982849 439.624237,899.510437 434.128601,906.050232 
	C434.995544,906.457764 435.272156,906.701477 435.548920,906.701660 
	C461.154144,906.720032 486.759430,906.744202 512.364258,906.647827 
	C513.622437,906.643127 515.447571,905.921326 516.039429,904.945496 
	C519.767883,898.798401 523.221985,892.484863 527.138428,885.570129 
	C506.344147,885.570129 486.426331,885.570129 465.512329,885.569946 
z"/>
<path fill="#EF432E" opacity="1.000000" stroke="none" 
	d="
M807.031494,610.483276 
	C804.258484,613.488525 801.485474,616.493774 798.712463,619.499023 
	C798.846069,619.925049 798.979675,620.351074 799.113342,620.777100 
	C800.975403,620.777100 802.837524,620.777039 804.699646,620.777039 
	C877.353149,620.777039 950.006775,620.805725 1022.660095,620.697021 
	C1026.518555,620.691223 1028.959473,621.707336 1031.286621,624.951721 
	C1054.085938,656.736938 1077.071777,688.388611 1100.246094,720.411926 
	C1092.608887,730.914551 1085.000488,741.382263 1077.387085,751.846313 
	C1061.911133,773.117004 1046.484619,794.424316 1030.854370,815.581055 
	C1029.624878,817.245300 1026.970581,818.815613 1024.975952,818.818542 
	C918.995361,818.973572 813.014526,818.955200 707.033691,818.950745 
	C706.535706,818.950684 706.037720,818.891663 704.773376,818.811768 
	C705.689331,817.351624 706.338318,816.155640 707.136047,815.068970 
	C728.617004,785.808105 750.151001,756.585938 771.548767,727.264526 
	C773.710449,724.302368 775.886108,723.037781 779.708008,723.044983 
	C853.027832,723.182129 926.347961,723.146362 999.668030,723.146362 
	C1001.613525,723.146362 1003.559082,723.146423 1005.974304,723.146423 
	C1002.466736,716.502869 998.783020,712.876709 990.604553,712.925354 
	C920.286377,713.343689 849.964661,713.128601 779.644287,713.260986 
	C775.568970,713.268616 773.026611,712.201721 770.596191,708.822327 
	C749.112305,678.949829 727.467346,649.192871 705.755310,619.485596 
	C703.898804,616.945435 703.661011,615.300598 705.627014,612.624084 
	C728.691650,581.223267 751.653992,549.746887 774.498352,518.185547 
	C776.465698,515.467407 778.611511,514.965820 781.620361,514.967041 
	C888.101196,515.009460 994.582031,514.987976 1101.531494,514.987732 
	C1102.000000,515.444458 1102.000000,515.888916 1102.000000,516.666748 
	C1100.772583,518.129761 1099.315796,519.092163 1098.351562,520.413940 
	C1076.706055,550.081238 1055.114624,579.788025 1032.859863,609.483765 
	C1030.726562,609.320435 1029.246582,609.021729 1027.766479,609.021240 
	C956.033264,608.998291 884.299988,608.990051 812.566833,609.063049 
	C810.721252,609.064941 808.876526,609.989136 807.031494,610.483276 
z"/>
<path fill="#EE432E" opacity="1.000000" stroke="none" 
	d="
M565.600037,0.999994 
	C567.118042,2.312537 568.004639,3.977976 569.388245,4.885574 
	C597.368652,23.238855 625.409668,41.499783 653.431091,59.790600 
	C674.482117,73.531487 695.494385,87.332024 716.603394,100.983116 
	C719.257263,102.699333 720.370117,104.472389 720.360352,107.757858 
	C720.232788,150.752106 720.321045,193.747009 720.164246,236.741043 
	C720.154785,239.322815 719.101929,242.312241 717.576111,244.417221 
	C673.016724,305.891663 628.335266,367.277649 583.042175,428.643188 
	C581.941467,426.255341 581.064209,423.902466 581.061707,421.548676 
	C580.988403,352.882507 581.016968,284.216248 580.933472,215.550140 
	C580.930908,213.448044 579.909119,211.347198 579.362488,209.245773 
	C575.063843,212.074768 570.885681,215.121201 566.397095,217.607208 
	C564.951782,218.407654 562.304321,218.412170 560.872803,217.602814 
	C556.708191,215.248276 552.880798,212.297394 548.108032,209.022491 
	C548.108032,284.207367 548.108032,358.614227 548.108032,433.021088 
	C547.758179,433.121918 547.408325,433.222778 547.058472,433.323608 
	C544.542847,429.916534 542.005310,426.525360 539.514893,423.100006 
	C496.338623,363.715668 453.139801,304.347626 410.096954,244.866730 
	C408.316101,242.405777 407.156616,238.882492 407.143066,235.847702 
	C406.953674,193.528580 407.070648,151.208130 406.922577,108.888680 
	C406.908875,104.965042 408.001678,102.694199 411.367157,100.509964 
	C460.930267,68.343147 510.389069,36.015694 559.862732,3.711203 
	C560.829773,3.079793 561.677246,2.265355 562.290283,1.268158 
	C563.066711,1.000000 564.133362,1.000000 565.600037,0.999994 
M456.200928,149.503998 
	C465.521606,155.916046 474.756653,162.459198 484.226898,168.642166 
	C486.420197,170.074127 489.409241,170.910950 492.044556,170.941284 
	C509.362061,171.140533 526.684021,170.949417 544.001465,171.151108 
	C546.434387,171.179428 549.134705,172.216049 551.214844,173.556396 
	C555.502625,176.319214 559.455139,179.602356 563.644043,182.745285 
	C567.382812,179.959366 571.027771,177.590866 574.251526,174.745148 
	C577.599426,171.789810 581.201721,170.858871 585.616455,170.954697 
	C597.601379,171.214844 609.665710,170.234543 621.567444,171.262695 
	C634.483154,172.378433 645.251953,169.027573 654.974060,160.742126 
	C660.090637,156.381622 665.731995,152.636780 671.045349,148.070602 
	C669.699341,147.713531 668.353638,147.045029 667.007324,147.044037 
	C598.440186,146.993927 529.873047,146.986801 461.305969,147.078629 
	C459.524567,147.081024 457.744720,148.231781 456.200928,149.503998 
z"/>
<path fill="#EF432E" opacity="1.000000" stroke="none" 
	d="
M164.022644,817.997498 
	C163.956390,816.004028 163.832520,814.010620 163.832199,812.017151 
	C163.822067,748.235046 163.823883,684.453003 163.823898,620.670898 
	C163.823898,618.690491 163.823898,616.710083 163.823898,613.911072 
	C161.631363,613.911072 159.722641,613.911072 157.813919,613.911133 
	C131.002121,613.911377 104.189919,613.842407 77.379028,613.997986 
	C73.970970,614.017761 71.978706,612.895569 70.034477,610.207581 
	C47.313457,578.794861 24.479219,547.464050 1.337449,516.055786 
	C1.000000,516.000000 1.000000,515.500000 1.000000,515.250000 
	C148.575623,515.000000 296.151245,515.000000 444.450531,515.000000 
	C443.571686,516.563293 443.075806,517.692810 442.367981,518.668579 
	C420.279358,549.119507 398.130035,579.526489 376.129486,610.040771 
	C374.051422,612.922974 371.917145,614.015869 368.356781,613.996338 
	C342.369598,613.854065 316.381195,613.943237 289.682007,614.323853 
	C288.646423,617.116760 288.040649,619.544983 288.038635,621.973694 
	C287.986420,684.583679 287.999786,747.193787 287.993286,809.803833 
	C287.992554,816.973145 287.966187,816.995239 280.713226,816.996704 
	C244.912262,817.003845 209.111282,816.980713 173.310425,817.043213 
	C170.873444,817.047485 168.437546,817.666138 165.671356,818.003052 
	C164.901947,818.003845 164.462296,818.000671 164.022644,817.997498 
z"/>
<path fill="#EB422D" opacity="1.000000" stroke="none" 
	d="
M429.468689,955.000000 
	C429.049072,947.841858 428.897766,940.673401 429.265289,933.531677 
	C429.380432,931.293640 430.397125,928.700256 431.857117,927.007935 
	C436.409973,921.730469 440.524261,914.871399 446.414612,912.289429 
	C452.303986,909.707886 460.128326,911.474304 467.104797,911.452881 
	C481.887146,911.407471 496.669708,911.438904 512.382812,911.438904 
	C508.786407,917.602600 505.711029,923.192932 502.242889,928.527832 
	C501.605438,929.508423 499.377258,929.809875 497.879120,929.820496 
	C484.391144,929.915710 470.902252,929.876038 457.413605,929.875977 
	C455.778564,929.875977 454.143555,929.875916 452.249512,929.875916 
	C452.249512,931.710754 452.249512,933.108398 452.249512,934.911011 
	C472.601196,934.911011 492.857056,934.911011 513.934631,934.911011 
	C510.137543,941.902832 506.691559,948.248169 503.622803,954.796753 
	C479.312439,955.000000 454.624878,955.000000 429.468689,955.000000 
z"/>
<path fill="#EF432E" opacity="1.000000" stroke="none" 
	d="
M389.999268,607.884644 
	C406.021973,585.798096 422.036499,563.705688 438.071808,541.628296 
	C443.842896,533.682617 449.564178,525.696472 455.552612,517.916870 
	C456.654968,516.484741 458.930939,515.131531 460.666901,515.129456 
	C561.447937,515.006470 662.229065,515.029846 763.010254,515.042725 
	C763.168945,515.042725 763.327576,515.095520 764.376526,515.281433 
	C741.322266,547.006409 718.497375,578.415710 694.998901,609.740845 
	C692.691223,609.438293 691.057129,609.029602 689.422852,609.028809 
	C624.456665,608.996521 559.490479,608.988342 494.524414,609.066650 
	C492.691925,609.068848 490.860626,610.043213 489.028778,610.564270 
	C486.603699,613.634766 484.178650,616.705261 481.057129,620.657593 
	C550.356567,620.657593 618.494202,620.657593 687.429932,620.657593 
	C686.219421,622.591248 685.537415,623.838867 684.709229,624.980408 
	C664.089905,653.399963 643.415466,681.779785 622.890503,710.267273 
	C621.025208,712.856201 618.943848,713.212585 616.137573,713.208069 
	C577.167725,713.145630 538.193848,713.458008 499.230896,712.934326 
	C490.819580,712.821289 485.267792,714.980957 481.927612,723.194824 
	C483.955994,724.228333 485.947510,724.950378 487.939514,724.951660 
	C575.815918,725.007629 663.692322,724.991211 751.568726,725.040955 
	C754.352905,725.042542 757.136719,725.647156 759.920776,725.970703 
	C744.608948,747.080322 729.306885,768.197083 713.980286,789.295959 
	C708.316650,797.092712 702.595581,804.847778 696.323120,812.938965 
	C695.180908,814.196655 694.616455,815.137390 694.052002,816.078064 
	C694.052002,816.078064 694.008606,816.021484 693.628662,816.117554 
	C690.776306,816.481079 688.303894,816.981384 685.831299,816.982361 
	C587.592773,817.021973 489.354218,817.018311 391.115692,817.012329 
	C384.038696,817.011902 383.987000,816.951355 383.986298,809.644287 
	C383.980682,749.535645 383.961273,689.426941 384.024231,629.318359 
	C384.029236,624.515015 384.619629,619.712402 384.937988,614.909424 
	C384.937988,614.909424 384.981140,614.969910 385.244385,614.831604 
	C386.003326,613.790894 386.499023,612.888489 386.994690,611.986023 
	C386.999237,611.651123 387.119293,611.364685 387.880798,610.897705 
	C388.937592,609.740662 389.468414,608.812683 389.999268,607.884644 
z"/>
<path fill="#EE432E" opacity="1.000000" stroke="none" 
	d="
M781.000610,949.470703 
	C780.182556,949.470703 779.838257,949.414185 779.518555,949.478882 
	C771.546814,951.092102 766.146545,948.060242 763.191772,940.516052 
	C761.846313,937.080994 759.271667,936.033569 755.670471,936.317322 
	C752.042358,936.603271 748.374207,936.380310 744.172974,936.380310 
	C744.172974,940.733582 744.172974,944.794434 744.172974,949.246460 
	C736.581726,949.246460 729.532532,949.246460 721.842712,949.246460 
	C721.842712,937.956604 720.635010,926.523132 722.326843,915.536072 
	C723.240906,909.599915 729.039917,904.377686 732.837830,898.975891 
	C733.274963,898.354126 735.017090,898.539734 736.154541,898.537354 
	C748.802673,898.510193 761.450867,898.510132 774.098999,898.535828 
	C775.236206,898.538086 777.043152,898.363098 777.405884,898.959595 
	C780.985046,904.844666 784.775085,910.676025 787.551514,916.945068 
	C789.054382,920.338501 787.431702,924.023926 784.305664,926.686951 
	C782.679260,928.072571 781.425354,929.895447 779.611023,931.968933 
	C784.132690,937.337158 788.673767,942.728455 794.352844,949.470764 
	C789.105652,949.470764 785.295715,949.470764 781.000610,949.470703 
M756.471924,915.345825 
	C751.388489,915.345825 746.305054,915.345825 741.283386,915.345825 
	C741.283386,918.056396 741.283386,919.958801 741.283386,921.859375 
	C750.354858,921.859375 759.080017,921.859375 767.709351,921.859375 
	C767.709351,919.591003 767.709351,917.691895 767.709351,915.345886 
	C764.060547,915.345886 760.757935,915.345886 756.471924,915.345825 
z"/>
<path fill="#ED432E" opacity="1.000000" stroke="none" 
	d="
M686.999207,898.518433 
	C688.498901,898.518433 689.531189,898.682678 690.494019,898.493408 
	C702.317261,896.169739 710.682617,900.443176 715.167969,911.660461 
	C716.287720,914.460938 716.587830,917.595520 717.207886,920.588257 
	C719.478699,931.548828 713.759399,939.726257 707.553101,947.637146 
	C706.703186,948.720520 704.827576,949.541443 703.416260,949.557556 
	C690.584656,949.703796 677.750366,949.685974 664.917908,949.582947 
	C663.588867,949.572327 661.732971,949.096130 661.031982,948.156677 
	C657.649841,943.624329 652.922058,939.223938 651.792175,934.089905 
	C650.149902,926.627686 649.277100,918.682312 653.173584,910.886658 
	C658.310425,900.609558 665.760315,896.463928 677.013855,898.436584 
	C680.086121,898.975159 683.332825,898.518372 686.999207,898.518433 
M690.269165,915.380005 
	C684.338562,915.380005 678.407959,915.380005 672.679932,915.380005 
	C672.679932,921.482239 672.679932,926.717102 672.679932,931.854980 
	C680.641541,931.854980 688.186035,931.854980 695.731018,931.854980 
	C695.731018,926.284058 695.731018,921.160156 695.731018,915.683228 
	C694.127563,915.575623 692.668091,915.477722 690.269165,915.380005 
z"/>
<path fill="#EE432E" opacity="1.000000" stroke="none" 
	d="
M912.054688,919.786987 
	C912.366211,920.433655 912.539612,920.718933 912.686096,921.017456 
	C919.026184,933.941895 919.027649,935.134705 911.755798,947.287048 
	C911.134705,948.325012 909.509888,949.373413 908.343506,949.382202 
	C890.731506,949.514893 873.118164,949.474304 854.621582,949.474304 
	C856.893433,944.969604 858.679504,940.942749 860.961182,937.219666 
	C861.591370,936.191406 863.690125,935.626892 865.128235,935.601868 
	C873.615417,935.454102 882.107666,935.600769 890.594910,935.454956 
	C891.974060,935.431335 893.336670,934.443298 894.706909,933.901001 
	C893.311707,933.237976 891.931580,932.042114 890.518738,932.002136 
	C883.532776,931.804382 876.531921,932.070679 869.551392,931.792480 
	C867.957520,931.729004 866.420776,930.162720 864.867737,929.270691 
	C864.743469,929.199341 864.692200,928.994751 864.615417,928.847717 
	C862.400330,924.600952 857.904663,919.992126 858.506836,916.191040 
	C859.410645,910.485535 863.802490,905.294800 866.935547,900.018433 
	C867.442139,899.165405 869.106384,898.591553 870.241699,898.581421 
	C886.386292,898.437622 902.531860,898.409912 918.677307,898.378235 
	C919.117126,898.377380 919.557495,898.645691 920.549866,898.967773 
	C918.280762,903.376160 916.254089,907.686340 913.821411,911.753723 
	C913.274658,912.667969 911.315857,913.106567 909.996399,913.128845 
	C902.507568,913.255554 895.011414,913.053406 887.527466,913.282043 
	C885.600403,913.340942 882.078186,914.532104 882.070984,915.231873 
	C882.030884,919.113098 885.383667,917.381348 887.296021,917.444153 
	C893.947449,917.662659 900.614075,917.409790 907.266418,917.613403 
	C908.829407,917.661255 910.359070,918.796631 912.054688,919.786987 
z"/>
<path fill="#EC432E" opacity="1.000000" stroke="none" 
	d="
M316.975891,949.649109 
	C308.981812,949.649170 301.483582,949.650391 293.985352,949.647827 
	C292.819214,949.647400 291.603790,949.838318 290.496613,949.577759 
	C287.757721,948.933289 276.261597,933.552246 276.160583,930.588440 
	C276.154907,930.421997 276.192230,930.247559 276.155029,930.089661 
	C273.135895,917.276672 280.722443,908.719604 288.300507,900.249756 
	C289.225647,899.215698 291.136841,898.602234 292.600494,898.584839 
	C303.929565,898.450195 315.260925,898.506958 326.591583,898.516785 
	C327.416595,898.517456 328.308502,898.430176 329.054901,898.700256 
	C332.359497,899.895447 342.869110,915.516479 342.847656,919.122070 
	C342.801819,926.821472 343.074371,933.975403 337.192383,940.880310 
	C331.526886,947.531067 326.074585,951.218323 316.975891,949.649109 
M296.827362,923.552551 
	C296.827362,926.316101 296.827362,929.079712 296.827362,932.011230 
	C305.531006,932.011230 313.580109,932.011230 321.916199,932.011230 
	C321.916199,926.504761 321.916199,921.271606 321.916199,915.784302 
	C313.559998,915.784302 305.376892,915.784302 296.827332,915.784302 
	C296.827332,918.306335 296.827332,920.447327 296.827362,923.552551 
z"/>
<path fill="#EE432E" opacity="1.000000" stroke="none" 
	d="
M519.382690,949.471313 
	C517.297119,949.471313 515.656616,949.471313 513.038940,949.471313 
	C515.758179,944.763306 517.953430,940.597534 520.566772,936.712891 
	C521.166443,935.821594 523.200134,935.595032 524.580261,935.578064 
	C532.740234,935.477478 540.903503,935.608093 549.061646,935.450439 
	C550.399231,935.424683 551.716675,934.355408 553.043396,933.768494 
	C551.781982,933.150146 550.533630,932.030457 549.256958,931.997192 
	C542.432861,931.819336 535.595459,931.741272 528.775757,931.989075 
	C525.648865,932.102722 523.695496,931.140930 522.662659,928.242493 
	C522.607849,928.088623 522.489624,927.958496 522.413757,927.810730 
	C520.380737,923.852661 516.116699,919.432922 516.817444,916.038147 
	C518.002441,910.297363 522.259766,905.164307 525.408142,899.884766 
	C525.864380,899.119568 527.331787,898.579102 528.334351,898.574341 
	C544.967651,898.494934 561.601379,898.517822 579.116089,898.517822 
	C576.348816,903.290100 573.961792,907.735168 571.189453,911.925232 
	C570.596619,912.821228 568.610657,913.116272 567.258484,913.135925 
	C559.598633,913.246887 551.933716,913.088013 544.277039,913.280457 
	C542.843933,913.316467 541.440430,914.529724 540.023315,915.199707 
	C541.505981,915.975403 542.968140,917.371521 544.474792,917.421326 
	C551.628845,917.657654 558.803528,917.339478 565.950562,917.665039 
	C567.638855,917.741882 569.978821,919.146362 570.779419,920.615601 
	C577.507751,932.963074 577.445862,934.997070 570.060303,947.161194 
	C569.290894,948.428467 566.930054,949.356201 565.295959,949.374146 
	C550.141296,949.540100 534.984131,949.471741 519.382690,949.471313 
z"/>
<path fill="#EE432E" opacity="1.000000" stroke="none" 
	d="
M621.977539,898.520081 
	C631.944702,896.734192 638.212708,900.306213 642.968506,908.844788 
	C647.375244,916.756592 647.408447,921.375549 642.670471,929.275879 
	C638.250977,936.645264 632.755920,939.291565 624.360535,938.376648 
	C617.473633,937.626160 610.439819,938.223633 602.924072,938.223633 
	C602.924072,942.021729 602.924072,945.424011 602.924072,949.232971 
	C595.333923,949.232971 588.282837,949.232971 580.580750,949.232971 
	C580.580750,937.974304 579.422363,926.534546 581.052551,915.507019 
	C581.912170,909.691895 587.545776,904.531677 591.268982,899.248474 
	C591.795471,898.501465 593.716614,898.556519 594.994141,898.548523 
	C603.823181,898.493347 612.652710,898.519775 621.977539,898.520081 
M608.594604,915.362671 
	C605.833069,915.362671 603.071533,915.362671 600.220886,915.362671 
	C600.220886,918.381104 600.220886,920.649719 600.220886,923.076416 
	C609.402527,923.076416 618.329956,923.076416 627.499329,923.076416 
	C627.499329,920.565063 627.499329,918.301392 627.499329,915.362732 
	C621.456238,915.362732 615.513855,915.362732 608.594604,915.362671 
z"/>
<path fill="#ED432E" opacity="1.000000" stroke="none" 
	d="
M372.442627,938.250427 
	C371.363159,939.716492 370.428986,941.119019 370.208862,942.625793 
	C369.902802,944.720886 370.131897,946.894104 370.131897,949.337341 
	C362.658569,949.337341 355.591492,949.337341 348.022980,949.337341 
	C348.022980,938.017822 346.769531,926.713867 348.512909,915.892761 
	C349.492645,909.811340 355.354584,904.479553 359.218750,898.951050 
	C359.650848,898.332886 361.402740,898.532349 362.542938,898.529968 
	C374.692688,898.505066 386.845917,898.371155 398.988983,898.657837 
	C401.039276,898.706299 403.483002,900.193542 404.972443,901.753540 
	C407.357147,904.251343 409.102509,907.361389 411.105988,910.221069 
	C415.195404,916.058044 414.509552,921.892517 411.022400,928.064392 
	C406.268188,936.478760 399.873932,939.650513 390.362885,938.367310 
	C384.642181,937.595459 378.731659,938.230469 372.442627,938.250427 
M376.608398,915.353638 
	C373.701935,915.353638 370.795471,915.353638 367.941528,915.353638 
	C367.941528,918.455566 367.941528,920.705444 367.941528,922.937866 
	C377.102325,922.937866 385.954132,922.937866 394.769714,922.937866 
	C394.769714,920.290833 394.769714,918.050293 394.769714,915.353699 
	C388.826782,915.353699 383.203430,915.353699 376.608398,915.353638 
z"/>
<path fill="#EF432E" opacity="1.000000" stroke="none" 
	d="
M818.199951,949.467041 
	C815.931091,949.467102 814.134338,949.467102 811.937927,949.467102 
	C811.937927,937.826416 811.937927,926.722900 811.937927,914.957947 
	C806.950439,914.957947 802.324402,915.217957 797.754395,914.825500 
	C796.010925,914.675781 793.816406,913.427063 792.833374,911.990723 
	C790.123779,908.031494 787.945801,903.708496 785.242493,898.978027 
	C810.689331,898.978027 835.654724,898.978027 861.391785,898.978027 
	C858.526672,904.045837 855.925659,908.948242 852.964478,913.622437 
	C852.392456,914.525391 850.422607,914.853577 849.078735,914.899780 
	C844.605164,915.053284 840.122986,914.957825 835.092102,914.957825 
	C835.092102,926.447815 835.092102,937.674316 835.092102,949.466919 
	C829.260437,949.466919 823.966309,949.466919 818.199951,949.467041 
z"/>
<path fill="#EF432E" opacity="1.000000" stroke="none" 
	d="
M271.890625,898.524658 
	C275.150787,898.524719 277.928986,898.524719 281.645844,898.524719 
	C277.767548,904.131897 274.495605,909.054504 270.964539,913.783569 
	C270.357056,914.597046 268.656677,914.865356 267.444733,914.906921 
	C263.479980,915.042847 259.507660,914.957825 255.101685,914.957825 
	C255.101685,926.401550 255.101685,937.488770 255.101685,949.020386 
	C247.313736,949.020386 239.947739,949.020386 232.142700,949.020386 
	C232.142700,938.013123 232.142700,926.933533 232.142700,914.957947 
	C227.173904,914.957947 222.587173,914.800049 218.018402,915.018311 
	C215.360535,915.145264 213.763489,914.420837 212.520874,911.933228 
	C210.379135,907.645752 207.828156,903.562561 204.952911,898.524597 
	C227.596817,898.524597 249.502747,898.524597 271.890625,898.524658 
z"/>
<path fill="#EC432E" opacity="1.000000" stroke="none" 
	d="
M466.010437,885.570068 
	C486.426331,885.570129 506.344147,885.570129 527.138428,885.570129 
	C523.221985,892.484863 519.767883,898.798401 516.039429,904.945496 
	C515.447571,905.921326 513.622437,906.643127 512.364258,906.647827 
	C486.759430,906.744202 461.154144,906.720032 435.548920,906.701660 
	C435.272156,906.701477 434.995544,906.457764 434.128601,906.050232 
	C439.624237,899.510437 444.874542,892.982849 450.510681,886.807312 
	C451.553009,885.665405 454.141052,885.727295 456.037689,885.618591 
	C459.186493,885.438110 462.353180,885.569763 466.010437,885.570068 
z"/>
<path fill="#E6412D" opacity="1.000000" stroke="none" 
	d="
M384.614319,615.097900 
	C384.619629,619.712402 384.029236,624.515015 384.024231,629.318359 
	C383.961273,689.426941 383.980682,749.535645 383.986298,809.644287 
	C383.987000,816.951355 384.038696,817.011902 391.115692,817.012329 
	C489.354218,817.018311 587.592773,817.021973 685.831299,816.982361 
	C688.303894,816.981384 690.776306,816.481079 693.662231,816.129578 
	C692.572021,817.021973 691.110413,818.075500 689.540833,818.930847 
	C689.027161,819.210754 688.232666,818.975403 687.566589,818.975403 
	C587.652832,818.975464 487.739136,818.975464 387.825409,818.975403 
	C386.177704,818.975403 384.529968,818.975403 382.133484,818.975403 
	C382.133484,816.921631 382.133484,815.165222 382.133484,813.408813 
	C382.133240,749.797058 382.109192,686.185303 382.223877,622.573792 
	C382.228271,620.143433 383.571350,617.715393 384.614319,615.097900 
z"/>
<path fill="#FF4A33" opacity="1.000000" stroke="none" 
	d="
M760.142578,725.814880 
	C757.136719,725.647156 754.352905,725.042542 751.568726,725.040955 
	C663.692322,724.991211 575.815918,725.007629 487.939514,724.951660 
	C485.947510,724.950378 483.955994,724.228333 481.928345,723.564575 
	C517.042297,723.255188 552.192078,723.205078 587.341858,723.196533 
	C644.982117,723.182495 702.622437,723.195435 760.638794,723.512268 
	C761.014893,723.827576 761.129761,724.276794 761.129761,724.276794 
	C760.874634,724.737549 760.619507,725.198364 760.142578,725.814880 
z"/>
<path fill="#FF4C34" opacity="1.000000" stroke="none" 
	d="
M807.488525,610.582153 
	C808.876526,609.989136 810.721252,609.064941 812.566833,609.063049 
	C884.299988,608.990051 956.033264,608.998291 1027.766479,609.021240 
	C1029.246582,609.021729 1030.726562,609.320435 1032.575439,609.651733 
	C1031.727173,610.127319 1030.510010,610.696655 1029.292725,610.697021 
	C955.510376,610.721375 881.728027,610.698975 807.488525,610.582153 
z"/>
<path fill="#FF4A33" opacity="1.000000" stroke="none" 
	d="
M166.001144,817.999084 
	C168.437546,817.666138 170.873444,817.047485 173.310425,817.043213 
	C209.111282,816.980713 244.912262,817.003845 280.713226,816.996704 
	C287.966187,816.995239 287.992554,816.973145 287.993286,809.803833 
	C287.999786,747.193787 287.986420,684.583679 288.038635,621.973694 
	C288.040649,619.544983 288.646423,617.116760 289.247986,614.366211 
	C289.508362,679.414551 289.492065,744.784912 289.472809,810.155334 
	C289.472137,812.483765 289.441742,814.812195 289.021301,817.638184 
	C288.074158,818.349792 287.530884,818.563843 286.987610,818.777832 
	C246.979919,818.816467 206.972198,818.855042 166.496765,818.641235 
	C166.029053,818.388733 166.001144,817.999084 166.001144,817.999084 
z"/>
<path fill="#FF4C34" opacity="1.000000" stroke="none" 
	d="
M579.355591,209.762726 
	C579.909119,211.347198 580.930908,213.448044 580.933472,215.550140 
	C581.016968,284.216248 580.988403,352.882507 581.061707,421.548676 
	C581.064209,423.902466 581.941467,426.255341 582.748047,428.799927 
	C582.290466,430.289337 581.495850,431.587524 580.233643,432.876770 
	C579.766174,432.867828 579.389526,432.698975 579.389526,432.698975 
	C579.375916,358.559204 579.362305,284.419434 579.355591,209.762726 
z"/>
<path fill="#FF4C34" opacity="1.000000" stroke="none" 
	d="
M489.492004,610.624146 
	C490.860626,610.043213 492.691925,609.068848 494.524414,609.066650 
	C559.490479,608.988342 624.456665,608.996521 689.422852,609.028809 
	C691.057129,609.029602 692.691223,609.438293 694.683960,609.869812 
	C693.943848,610.301270 692.845276,610.710632 691.746582,610.710815 
	C624.482788,610.723145 557.218994,610.702087 489.492004,610.624146 
z"/>
<path fill="#E6412D" opacity="1.000000" stroke="none" 
	d="
M694.334412,815.913818 
	C694.616455,815.137390 695.180908,814.196655 696.078491,813.142273 
	C695.813354,813.935547 695.215088,814.842529 694.334412,815.913818 
z"/>
<path fill="#E6412D" opacity="1.000000" stroke="none" 
	d="
M386.735596,612.154419 
	C386.499023,612.888489 386.003326,613.790894 385.209167,614.819824 
	C385.432617,614.071838 385.954529,613.197327 386.735596,612.154419 
z"/>
<path fill="#E6412D" opacity="1.000000" stroke="none" 
	d="
M389.731995,608.059937 
	C389.468414,608.812683 388.937592,609.740662 388.091064,610.786987 
	C388.338440,610.015259 388.901581,609.125244 389.731995,608.059937 
z"/>
<path fill="#DC3D2A" opacity="1.000000" stroke="none" 
	d="
M287.315918,818.864685 
	C287.530884,818.563843 288.074158,818.349792 288.909668,818.099609 
	C288.682709,818.359497 288.163483,818.655518 287.315918,818.864685 
z"/>
<path fill="#DC3D2A" opacity="1.000000" stroke="none" 
	d="
M165.671356,818.003052 
	C166.001144,817.999084 166.029053,818.388733 166.033661,818.583984 
	C165.411636,818.732300 164.785019,818.685364 164.090530,818.317993 
	C164.462296,818.000671 164.901947,818.003845 165.671356,818.003052 
z"/>
<path fill="#EF432E" opacity="1.000000" stroke="none" 
	d="
M761.311401,724.162476 
	C761.129761,724.276794 761.014893,723.827576 760.994080,723.596680 
	C761.146484,723.593262 761.319763,723.820740 761.311401,724.162476 
z"/>
<path fill="#EE432E" opacity="1.000000" stroke="none" 
	d="
M579.928101,432.995789 
	C579.801575,433.100952 579.513184,433.078125 579.307129,432.877136 
	C579.389526,432.698975 579.766174,432.867828 579.928101,432.995789 
z"/>
<path fill="#010000" opacity="1.000000" stroke="none" 
	d="
M671.136475,148.613968 
	C665.731995,152.636780 660.090637,156.381622 654.974060,160.742126 
	C645.251953,169.027573 634.483154,172.378433 621.567444,171.262695 
	C609.665710,170.234543 597.601379,171.214844 585.616455,170.954697 
	C581.201721,170.858871 577.599426,171.789810 574.251526,174.745148 
	C571.027771,177.590866 567.382812,179.959366 563.644043,182.745285 
	C559.455139,179.602356 555.502625,176.319214 551.214844,173.556396 
	C549.134705,172.216049 546.434387,171.179428 544.001465,171.151108 
	C526.684021,170.949417 509.362061,171.140533 492.044556,170.941284 
	C489.409241,170.910950 486.420197,170.074127 484.226898,168.642166 
	C474.756653,162.459198 465.521606,155.916046 456.553345,149.163757 
	C526.155884,148.822647 595.406006,148.823669 664.656128,148.812271 
	C666.816223,148.811905 668.976379,148.682968 671.136475,148.613968 
z"/>
<path fill="#FF4A33" opacity="1.000000" stroke="none" 
	d="
M671.090942,148.342285 
	C668.976379,148.682968 666.816223,148.811905 664.656128,148.812271 
	C595.406006,148.823669 526.155884,148.822647 456.434967,148.835251 
	C457.744720,148.231781 459.524567,147.081024 461.305969,147.078629 
	C529.873047,146.986801 598.440186,146.993927 667.007324,147.044037 
	C668.353638,147.045029 669.699341,147.713531 671.090942,148.342285 
z"/>
<path fill="#0F0403" opacity="1.000000" stroke="none" 
	d="
M756.963623,915.345825 
	C760.757935,915.345886 764.060547,915.345886 767.709351,915.345886 
	C767.709351,917.691895 767.709351,919.591003 767.709351,921.859375 
	C759.080017,921.859375 750.354858,921.859375 741.283386,921.859375 
	C741.283386,919.958801 741.283386,918.056396 741.283386,915.345825 
	C746.305054,915.345825 751.388489,915.345825 756.963623,915.345825 
z"/>
<path fill="#0A0302" opacity="1.000000" stroke="none" 
	d="
M690.738892,915.379883 
	C692.668091,915.477722 694.127563,915.575623 695.731018,915.683228 
	C695.731018,921.160156 695.731018,926.284058 695.731018,931.854980 
	C688.186035,931.854980 680.641541,931.854980 672.679932,931.854980 
	C672.679932,926.717102 672.679932,921.482239 672.679932,915.380005 
	C678.407959,915.380005 684.338562,915.380005 690.738892,915.379883 
z"/>
<path fill="#060201" opacity="1.000000" stroke="none" 
	d="
M296.827332,923.070435 
	C296.827332,920.447327 296.827332,918.306335 296.827332,915.784302 
	C305.376892,915.784302 313.559998,915.784302 321.916199,915.784302 
	C321.916199,921.271606 321.916199,926.504761 321.916199,932.011230 
	C313.580109,932.011230 305.531006,932.011230 296.827362,932.011230 
	C296.827362,929.079712 296.827362,926.316101 296.827332,923.070435 
z"/>
<path fill="#0F0403" opacity="1.000000" stroke="none" 
	d="
M609.083008,915.362671 
	C615.513855,915.362732 621.456238,915.362732 627.499329,915.362732 
	C627.499329,918.301392 627.499329,920.565063 627.499329,923.076416 
	C618.329956,923.076416 609.402527,923.076416 600.220886,923.076416 
	C600.220886,920.649719 600.220886,918.381104 600.220886,915.362671 
	C603.071533,915.362671 605.833069,915.362671 609.083008,915.362671 
z"/>
<path fill="#0F0403" opacity="1.000000" stroke="none" 
	d="
M377.094238,915.353638 
	C383.203430,915.353699 388.826782,915.353699 394.769714,915.353699 
	C394.769714,918.050293 394.769714,920.290833 394.769714,922.937866 
	C385.954132,922.937866 377.102325,922.937866 367.941528,922.937866 
	C367.941528,920.705444 367.941528,918.455566 367.941528,915.353638 
	C370.795471,915.353638 373.701935,915.353638 377.094238,915.353638 
z"/>
</svg>