<?xml version="1.0" standalone="no"?>
<!DOCTYPE svg PUBLIC "-//W3C//DTD SVG 20010904//EN"
 "http://www.w3.org/TR/2001/REC-SVG-20010904/DTD/svg10.dtd">
<svg version="1.0" xmlns="http://www.w3.org/2000/svg"
 width="1000.000000pt" height="1000.000000pt" viewBox="0 0 1000.000000 1000.000000"
 preserveAspectRatio="xMidYMid meet">

<g transform="translate(0.000000,1000.000000) scale(0.100000,-0.100000)"
fill="#000000" stroke="none">
<path d="M6986 9571 c-26 -27 -66 -61 -88 -77 -69 -51 -152 -116 -279 -222
-227 -188 -293 -242 -394 -320 -55 -43 -107 -87 -115 -97 -8 -10 -31 -28 -50
-40 -19 -13 -61 -46 -93 -74 -66 -58 -92 -63 -140 -27 -18 12 -76 46 -129 74
-134 72 -348 191 -378 212 -14 10 -74 43 -135 75 -60 32 -127 69 -147 81 -55
35 -189 104 -201 104 -15 0 -56 -49 -146 -175 -44 -60 -88 -119 -98 -130 -19
-21 -117 -146 -188 -240 -22 -29 -65 -85 -95 -124 -56 -73 -185 -241 -230
-300 -14 -18 -44 -54 -66 -79 -23 -26 -54 -65 -68 -87 -48 -70 -121 -154 -135
-154 -15 -1 -240 58 -341 89 -36 11 -92 27 -125 35 -33 8 -80 22 -105 30 -72
23 -396 111 -487 132 -34 8 -29 -12 23 -113 47 -88 112 -221 138 -279 20 -43
38 -120 46 -195 5 -36 13 -79 20 -97 6 -17 10 -46 8 -65 -2 -27 -10 -36 -43
-52 -22 -10 -58 -21 -80 -24 -22 -2 -47 -10 -55 -17 -8 -7 -55 -26 -105 -42
-49 -17 -106 -36 -125 -43 -130 -49 -198 -73 -295 -104 -60 -20 -189 -63 -285
-97 -96 -34 -206 -72 -245 -84 -38 -13 -108 -38 -155 -55 -47 -18 -101 -36
-120 -42 -42 -12 -100 -31 -290 -99 -80 -28 -174 -60 -209 -71 -56 -17 -63
-22 -59 -43 3 -12 71 -135 153 -271 81 -137 180 -303 219 -369 39 -66 81 -133
93 -148 13 -16 23 -32 23 -37 0 -5 24 -48 53 -97 30 -48 76 -125 103 -171 27
-46 72 -122 101 -170 28 -48 73 -125 99 -172 26 -47 57 -98 69 -115 12 -16 24
-34 26 -40 2 -5 21 -40 42 -77 59 -103 58 -104 -118 -166 -82 -29 -169 -60
-193 -69 -24 -8 -46 -21 -49 -28 -2 -8 15 -39 39 -71 24 -31 65 -89 92 -128
27 -39 81 -114 120 -166 64 -86 130 -180 195 -279 13 -20 34 -47 46 -61 23
-26 56 -72 170 -240 69 -100 150 -214 250 -351 33 -46 85 -119 115 -164 30
-44 74 -105 97 -135 69 -90 104 -139 182 -255 118 -174 142 -208 166 -235 13
-14 26 -36 30 -50 4 -14 24 -44 44 -66 51 -59 186 -242 326 -444 109 -157 153
-220 205 -290 31 -41 74 -105 97 -142 l41 -67 -17 -63 c-10 -35 -25 -92 -34
-128 -9 -36 -30 -114 -47 -175 -17 -60 -37 -137 -44 -170 -20 -87 -63 -246
-76 -279 -9 -26 -29 -95 -62 -216 -5 -19 -17 -69 -28 -110 -10 -41 -21 -85
-25 -98 -13 -41 21 -24 71 35 27 32 96 111 154 176 58 65 117 134 132 154 16
20 58 68 95 107 86 91 172 187 315 352 62 72 185 212 273 310 88 98 192 215
230 259 39 45 149 171 245 280 96 109 194 221 218 249 24 28 49 56 56 61 12
11 260 290 336 379 25 29 110 126 190 216 80 89 152 172 160 184 8 12 56 64
107 116 50 52 118 127 150 167 32 40 114 135 183 213 69 77 149 169 179 203
29 34 80 89 112 123 33 33 59 65 59 69 0 5 35 45 78 89 43 45 104 112 137 150
68 79 140 160 230 261 34 39 93 106 130 150 38 44 92 105 120 135 29 30 58 64
66 76 12 18 54 66 215 243 23 25 57 64 75 85 19 22 41 46 49 55 8 9 46 52 84
96 38 44 110 125 161 180 51 55 110 123 132 150 22 28 91 106 154 174 63 68
120 133 128 145 8 11 38 46 67 76 69 73 174 200 174 211 0 15 -20 10 -89 -20
-36 -16 -109 -44 -161 -64 -188 -70 -517 -195 -545 -208 -11 -5 -47 -15 -79
-24 -32 -8 -69 -22 -82 -30 -26 -17 -84 -20 -84 -5 0 5 8 29 19 52 10 24 27
61 36 83 10 22 21 56 26 75 4 19 19 80 34 135 24 90 27 119 28 285 2 124 -3
207 -12 251 l-14 66 32 44 c37 51 684 1026 721 1088 14 22 51 78 82 123 31 46
66 97 77 113 36 52 316 478 339 515 39 64 54 92 49 96 -4 5 -157 -45 -172 -56
-5 -4 -55 -24 -110 -43 -55 -19 -125 -45 -155 -57 -30 -12 -64 -24 -75 -27
-11 -2 -29 -9 -40 -14 -11 -5 -56 -22 -100 -38 -44 -16 -111 -41 -150 -56
-141 -54 -202 -77 -295 -110 -52 -18 -126 -45 -165 -60 -38 -15 -85 -31 -103
-36 -18 -6 -54 -21 -80 -34 -26 -13 -92 -39 -147 -58 -55 -20 -145 -52 -200
-72 -55 -20 -129 -47 -165 -60 -111 -40 -250 -92 -385 -144 -71 -28 -131 -51
-132 -51 -10 0 -32 68 -43 131 -12 73 -11 78 15 150 15 41 36 97 46 126 10 29
24 67 32 85 9 18 34 85 57 148 24 63 49 126 56 140 8 14 50 126 94 250 45 124
85 234 89 245 35 82 96 246 118 318 10 32 -22 18 -71 -32z m-1900 -700 c99
-54 258 -143 354 -198 96 -55 212 -120 257 -144 47 -25 83 -51 83 -59 0 -10
-26 -24 -73 -41 -39 -14 -110 -40 -157 -57 -46 -16 -86 -34 -87 -39 -5 -13
153 -163 170 -163 20 0 445 153 451 162 16 27 34 78 28 82 -4 2 -88 -36 -187
-85 -243 -120 -251 -118 -80 22 61 49 188 154 283 232 95 78 192 158 216 177
24 19 78 63 120 98 77 62 96 72 96 51 0 -6 -21 -63 -46 -127 -25 -65 -56 -144
-69 -177 -41 -105 -132 -349 -145 -388 -13 -41 -32 -54 -120 -81 -30 -10 -71
-24 -90 -31 -19 -8 -105 -40 -190 -71 -85 -30 -227 -83 -316 -115 -89 -33
-167 -57 -175 -53 -22 10 -273 278 -277 294 -2 11 22 25 80 46 83 31 104 49
72 61 -10 4 -99 56 -198 116 -119 72 -184 106 -192 101 -16 -11 -384 -502
-392 -522 -6 -17 0 -16 91 18 38 14 62 19 68 13 7 -7 -22 -66 -79 -164 -49
-85 -114 -197 -143 -249 l-54 -95 -125 -46 c-337 -127 -741 -271 -746 -267 -8
9 -358 715 -359 723 0 19 23 14 315 -69 47 -14 135 -39 195 -56 61 -17 133
-37 160 -45 28 -8 92 -26 144 -40 52 -13 96 -27 99 -30 17 -16 -33 -24 -218
-35 -113 -6 -207 -13 -209 -16 -5 -5 47 -104 65 -123 12 -13 25 -10 96 16 46
17 142 52 213 79 72 26 135 51 142 56 6 5 43 63 83 128 39 66 76 122 81 125 5
4 9 15 9 27 0 15 -4 18 -17 13 -72 -31 -295 -107 -300 -102 -3 4 0 15 8 26 16
22 287 374 385 501 383 491 485 620 494 620 4 0 88 -44 186 -99z m-42 -553
c53 -33 96 -65 96 -69 0 -11 -30 -23 -240 -100 -93 -34 -173 -59 -177 -55 -10
9 4 30 107 171 50 68 92 115 102 115 9 0 60 -28 112 -62z m2915 -210 c0 -7
-24 -47 -53 -88 -46 -66 -58 -76 -97 -87 -24 -6 -107 -27 -184 -47 -77 -20
-183 -48 -235 -62 -52 -14 -144 -39 -205 -54 -60 -16 -239 -62 -397 -104 -256
-68 -342 -86 -327 -71 6 5 172 65 449 161 118 41 238 83 265 94 28 11 154 56
280 101 127 45 284 101 350 125 128 46 155 51 154 32z m-2902 -225 c148 -162
165 -182 160 -195 -2 -7 -56 -31 -118 -52 -63 -21 -173 -61 -246 -87 -117 -44
-173 -58 -173 -45 0 17 265 476 274 476 7 0 53 -44 103 -97z m983 -535 c0 -7
-16 -69 -35 -137 -19 -68 -32 -128 -29 -133 3 -5 25 2 48 16 73 43 212 96 401
155 58 18 231 50 343 62 133 15 306 1 408 -32 255 -83 414 -322 414 -624 0
-110 -24 -256 -56 -348 -160 -449 -489 -758 -1254 -1175 -206 -112 -570 -284
-825 -389 -60 -24 -115 -50 -121 -56 -6 -7 -20 -48 -31 -92 -11 -44 -40 -151
-63 -238 -23 -87 -39 -161 -36 -165 4 -3 37 4 74 17 78 27 188 69 217 81 11 5
40 16 65 24 68 22 192 66 215 76 58 24 247 91 274 96 19 4 31 2 31 -4 0 -6
-39 -66 -87 -134 -47 -68 -121 -172 -163 -233 -120 -173 -309 -443 -539 -770
-136 -194 -878 -1257 -1011 -1448 -52 -75 -139 -199 -192 -275 -53 -75 -109
-154 -123 -175 -25 -35 -54 -46 -47 -17 1 7 17 65 34 129 17 64 43 163 58 221
16 58 42 157 60 220 17 63 42 156 55 205 13 50 31 117 40 150 9 33 30 112 46
175 16 63 39 147 50 185 10 39 26 95 34 125 8 30 36 132 61 225 26 94 51 188
56 210 5 22 20 80 34 128 13 48 22 92 19 97 -3 4 -40 -5 -83 -22 -109 -43
-295 -108 -305 -108 -17 0 -4 57 112 480 15 58 38 141 50 185 11 44 38 144 60
223 21 78 35 145 31 147 -5 3 -40 -11 -78 -30 -239 -118 -579 -253 -812 -322
-109 -33 -121 -34 -245 -31 l-130 3 -85 42 c-142 71 -229 171 -287 330 -14 36
-18 77 -17 163 0 103 5 134 46 295 79 307 106 408 156 585 32 111 65 233 112
415 15 61 42 162 60 225 45 164 49 183 44 191 -2 4 -21 10 -41 13 -21 4 -58
13 -83 20 -25 8 -63 18 -85 24 -22 6 -76 21 -120 33 -44 12 -111 30 -150 40
-95 26 -142 39 -195 54 -25 7 -57 16 -72 19 -16 4 -28 12 -28 20 0 13 56 35
400 161 85 31 209 76 275 100 66 24 165 60 220 80 55 20 124 45 153 56 129 47
166 61 302 109 148 53 478 174 516 190 51 20 50 -4 -6 -195 -5 -16 -23 -84
-40 -150 -17 -66 -40 -151 -51 -190 -11 -38 -24 -86 -29 -105 -28 -109 -74
-284 -90 -340 -10 -36 -44 -162 -76 -280 -61 -229 -70 -260 -104 -385 -12 -44
-26 -98 -30 -120 -5 -22 -19 -74 -31 -115 -41 -142 -38 -208 12 -265 42 -48
94 -54 191 -24 281 89 582 345 718 613 31 59 62 157 125 392 112 414 185 699
185 722 0 15 -13 21 -72 31 -40 7 -96 19 -125 27 -28 8 -64 14 -80 14 -15 0
-34 4 -42 9 -33 21 -1 39 209 111 30 10 91 32 135 48 44 17 154 57 245 90 194
70 247 89 395 144 61 22 157 57 215 78 58 21 116 42 130 48 35 15 70 14 70 0z
m-3048 -198 c-18 -11 -38 -20 -45 -20 -7 0 -17 -4 -22 -9 -6 -5 -57 -29 -115
-54 -335 -143 -1349 -580 -1373 -591 -24 -11 -36 -11 -70 -1 -115 36 -121 47
-37 77 68 24 324 118 445 163 131 49 513 190 635 235 96 35 408 150 540 199
70 26 83 26 42 1z m4752 -1239 c3 -5 -29 -53 -71 -108 -42 -54 -172 -224 -288
-378 -116 -155 -241 -319 -276 -365 -36 -47 -169 -222 -295 -388 -126 -167
-354 -469 -507 -670 -152 -202 -376 -497 -497 -657 -121 -159 -267 -353 -326
-430 -98 -129 -158 -201 -139 -165 5 8 74 107 154 218 80 112 153 213 161 225
8 12 58 81 110 153 52 72 127 175 165 229 39 53 97 134 130 179 55 73 220 301
334 459 25 34 128 177 230 317 101 140 243 336 315 435 71 99 156 216 188 260
32 44 139 191 237 327 239 330 227 317 297 343 71 27 71 27 78 16z m-4853
-2365 c365 -729 661 -1328 657 -1331 -5 -6 -72 115 -275 495 -118 220 -257
479 -273 505 -10 17 -41 75 -70 130 -29 55 -98 183 -153 285 -55 102 -201 374
-324 605 -124 231 -245 457 -269 501 -24 45 -44 87 -44 93 0 12 53 40 76 41 6
0 310 -596 675 -1324z"/>
<path d="M6330 6570 c-124 -31 -317 -107 -480 -188 l-75 -37 -28 -100 c-15
-55 -36 -131 -46 -170 -11 -38 -34 -123 -52 -188 -18 -64 -29 -120 -26 -123
18 -18 326 113 477 202 172 101 346 273 418 412 63 122 66 169 12 197 -38 20
-108 18 -200 -5z"/>
</g>
</svg>
