<?xml version="1.0" encoding="utf-8"?>
<svg viewBox="0 0 583 400" width="583" height="400" xmlns="http://www.w3.org/2000/svg">
  <path fill="#F39800" opacity="1.000000" stroke="none" d="M 458.49 1.407 C 459.504 2.066 459.97 3.211 460.608 3.315 C 483.151 7.009 502.8 16.755 520.33 31.205 C 545.163 51.675 559.941 78.056 565.718 109.353 C 569.688 130.86 567.823 152.203 561.017 173.115 C 558.589 180.575 549.426 186.627 541.539 185.958 C 532.857 185.222 525.829 180.529 524.131 171.633 C 523.328 167.424 523.812 162.635 524.954 158.445 C 533.054 128.69 528.245 101.389 509.793 76.664 C 496.06 58.264 477.664 46.63 455.358 41.647 C 442.85 38.854 430.01 38.681 417.412 41.651 C 406.602 44.201 396.273 38.019 394.112 27.811 C 391.173 13.924 399.407 5.306 410.006 3.378 C 411.21 3.16 412.342 2.553 413.247 1.767 C 427.999 1.407 443.01 1.407 458.49 1.407 Z" style=""/>
  <path fill="#E60112" opacity="1.000000" stroke="none" d="M 105.952 342.978 C 90.791 327.489 78.398 310.543 75.094 289.035 C 73.368 277.798 73.615 266.103 74.298 254.693 C 75.359 236.977 82.208 220.787 90.205 205.191 C 99.108 187.827 109.869 171.635 122.805 156.957 C 130.648 148.058 138.041 138.685 146.541 130.457 C 172.358 105.466 200.344 83.29 233.508 68.605 C 249.467 61.538 266.052 56.314 283.868 57.327 C 302.631 58.396 316.618 69.666 319.237 89.019 C 320.992 101.986 317.877 113.985 315.021 126.221 C 314.643 127.84 314.136 130.499 314.905 131.085 C 316.297 132.145 318.847 132.762 320.493 132.24 C 328.713 129.634 336.767 126.509 344.933 123.726 C 364.425 117.083 384.479 113.49 405.044 115.321 C 422.001 116.833 436.788 124.935 441.408 141.101 C 444.987 153.623 442.326 165.722 438.076 177.604 C 437.8 178.374 437.311 179.072 437.068 179.849 C 434.399 188.398 434.908 189.984 444.321 193.058 C 458.092 197.554 470.921 203.674 482.016 213.375 C 492.458 222.507 499.708 233.289 502.939 246.777 C 506.629 262.175 504.155 276.91 498.133 291.226 C 489.682 311.315 476.122 327.446 459.709 341.602 C 434.354 363.469 405.162 377.976 373.437 387.825 C 356.73 393.01 339.739 397.123 322.261 398.533 C 305.993 399.845 289.65 401.757 273.391 401.351 C 235.848 400.413 199.242 393.778 164.364 379.26 C 146.305 371.742 129.382 362.223 114.048 350.017 C 111.346 347.867 108.814 345.502 105.952 342.978 M 366.096 194.361 C 361.994 192.562 357.978 190.528 353.777 189.001 C 303.421 170.688 253.298 172.886 203.638 191.521 C 179.314 200.65 157.835 214.374 141.293 234.809 C 115.585 266.566 116.821 303.494 144.649 332.491 C 157.177 345.544 172.562 354.492 189.485 360.546 C 239.19 378.332 288.725 376.26 337.753 357.917 C 364.215 348.016 387.332 333.064 404.295 309.876 C 425.884 280.358 424.067 245.26 399.563 218.717 C 390.215 208.591 379.138 200.744 366.096 194.361 Z" style=""/>
  <path fill="#F39800" opacity="1.000000" stroke="none" d="M 434.164 101.25 C 426.23 103.71 416.88 101.721 413.314 96.948 C 408.805 90.911 408.674 81.325 413.034 75.01 C 416.566 69.892 422.315 68.833 427.648 68.463 C 438.773 67.688 449.935 67.85 460.536 72.448 C 478.724 80.333 491.346 93.373 497.448 112.271 C 501.642 125.257 501.248 138.5 497.659 151.532 C 495.273 160.194 484.554 165.546 476.287 162.849 C 467.322 159.922 462.296 150.819 465.475 141.266 C 470.149 127.219 462.921 111.804 452.155 106.209 C 446.873 103.462 440.498 102.813 434.164 101.25 Z" style=""/>
  <path fill="#FEFEFD" opacity="1.000000" stroke="none" d="M 366.412 194.562 C 379.138 200.744 390.215 208.591 399.563 218.717 C 424.067 245.26 425.884 280.358 404.295 309.876 C 387.332 333.064 364.215 348.016 337.753 357.917 C 288.725 376.26 239.19 378.332 189.485 360.546 C 172.562 354.492 157.177 345.544 144.649 332.491 C 116.821 303.494 115.585 266.566 141.293 234.809 C 157.835 214.374 179.314 200.65 203.638 191.521 C 253.298 172.886 303.421 170.688 353.777 189.001 C 357.978 190.528 361.994 192.562 366.412 194.562 M 261.937 216.276 C 236.616 218.329 215.068 228.195 198.577 247.738 C 170.231 281.334 179.883 326.591 219.142 345.242 C 254.494 362.039 303.549 349.237 325.763 317.023 C 341.052 294.852 344.931 271.156 329.901 247.568 C 314.514 223.421 290.47 215.467 261.937 216.276 Z" style=""/>
  <path fill="#010101" opacity="1.000000" stroke="none" d="M 262.401 216.231 C 290.47 215.467 314.514 223.421 329.901 247.568 C 344.931 271.156 341.052 294.852 325.763 317.023 C 303.549 349.237 254.494 362.039 219.142 345.242 C 179.883 326.591 170.231 281.334 198.577 247.738 C 215.068 228.195 236.616 218.329 262.401 216.231 M 257.77 309.88 C 267.497 295.03 262.914 279.05 247.588 274.376 C 232.775 269.86 215.032 279.135 210.245 293.901 C 206.246 306.236 212.996 318.604 225.771 321.595 C 238.53 324.582 248.905 320.11 257.77 309.88 M 280.784 262.141 C 279.137 262.061 277.455 261.721 275.853 261.948 C 271.389 262.583 267.907 265.145 266.884 269.393 C 266.284 271.893 266.94 275.409 268.404 277.521 C 270.616 280.711 274.448 281.213 278.251 279.886 C 282.423 278.43 285.506 275.867 286.242 271.312 C 286.894 267.27 285.368 264.207 280.784 262.141 Z" style=""/>
  <path fill="#FCFCFC" opacity="1.000000" stroke="none" d="M 257.536 310.155 C 248.905 320.11 238.53 324.582 225.771 321.595 C 212.996 318.604 206.246 306.236 210.245 293.901 C 215.032 279.135 232.775 269.86 247.588 274.376 C 262.914 279.05 267.497 295.03 257.536 310.155 Z" style=""/>
  <path fill="#F8F8F8" opacity="1.000000" stroke="none" d="M 281.141 262.32 C 285.368 264.207 286.894 267.27 286.242 271.312 C 285.506 275.867 282.423 278.43 278.251 279.886 C 274.448 281.213 270.616 280.711 268.404 277.521 C 266.94 275.409 266.284 271.893 266.884 269.393 C 267.907 265.145 271.389 262.583 275.853 261.948 C 277.455 261.721 279.137 262.061 281.141 262.32 Z" style=""/>
</svg>