<svg version="1.1" id="Layer_1" xmlns="http://www.w3.org/2000/svg" xmlns:xlink="http://www.w3.org/1999/xlink" x="0px" y="0px"
	 width="100%" viewBox="0 0 583 515" enable-background="new 0 0 583 515" xml:space="preserve">
<path fill="#000000" opacity="1.000000" stroke="none" 
	d="
M459.000000,0.999996 
	C500.658325,1.000000 542.316650,1.000000 583.981201,0.999999 
	C583.987488,172.623978 583.987488,344.247955 583.987488,515.935974 
	C389.748230,515.935974 195.496429,515.935974 1.122320,515.935974 
	C1.122320,344.449310 1.122320,172.898483 1.122320,1.000000 
	C138.023132,1.000000 275.046539,1.000000 412.795532,1.360782 
	C412.355103,2.149237 411.221985,2.757107 410.018097,2.976348 
	C399.412628,4.907681 391.173187,13.543533 394.114838,27.458536 
	C396.277374,37.687943 406.612183,43.881588 417.428955,41.327332 
	C430.033752,38.350853 442.880829,38.523651 455.396912,41.323196 
	C477.716583,46.315578 496.123627,57.974464 509.864777,76.412498 
	C528.328735,101.187668 533.139709,128.543671 525.034485,158.360352 
	C523.893188,162.558884 523.408875,167.357834 524.212097,171.575745 
	C525.909790,180.489975 532.942322,185.193451 541.630005,185.930344 
	C549.522522,186.599808 558.690308,180.536255 561.119690,173.060867 
	C567.929688,152.105988 569.796021,130.719238 565.823608,109.168091 
	C560.042786,77.806030 545.255554,51.370697 520.409058,30.860043 
	C502.868134,16.380104 483.207062,6.613705 460.649933,2.913060 
	C460.012512,2.808489 459.546143,1.661119 459.000000,0.999996 
M106.031395,343.529633 
	C108.644112,345.800690 111.178017,348.170624 113.882576,350.326447 
	C129.225876,362.556671 146.159195,372.095551 164.227982,379.628174 
	C199.126297,394.176758 235.755249,400.824646 273.320770,401.764923 
	C289.589050,402.172150 305.941925,400.256165 322.219666,398.941040 
	C339.708679,397.528046 356.710205,393.407379 373.426697,388.210724 
	C405.171783,378.342072 434.381134,363.805115 459.750305,341.893158 
	C476.173248,327.708313 489.742126,311.544312 498.197845,291.413788 
	C504.223755,277.067932 506.698395,262.304016 503.006897,246.873886 
	C499.773254,233.357666 492.519653,222.553940 482.071442,213.404053 
	C470.969574,203.681656 458.132904,197.549927 444.352966,193.044159 
	C434.934479,189.964493 434.425171,188.374588 437.096497,179.808304 
	C437.339294,179.029739 437.829285,178.330917 438.104767,177.559464 
	C442.357117,165.652863 445.019531,153.528549 441.438843,140.980972 
	C436.816193,124.782074 422.020172,116.663383 405.052979,115.149406 
	C384.475739,113.313324 364.409912,116.912735 344.906494,123.570816 
	C336.735077,126.360374 328.676056,129.489685 320.450836,132.102264 
	C318.804230,132.625275 316.253265,132.006775 314.859009,130.944107 
	C314.089966,130.357941 314.597473,127.693329 314.975800,126.069733 
	C317.832764,113.810028 320.950226,101.785606 319.194489,88.792191 
	C316.574005,69.398979 302.577820,58.105717 283.803986,57.036419 
	C265.977295,56.021061 249.382523,61.255184 233.413803,68.336174 
	C200.229874,83.050903 172.226837,105.272774 146.394257,130.314651 
	C137.888962,138.559616 130.491547,147.952271 122.643921,156.869751 
	C109.699806,171.578491 98.932762,187.802780 90.024231,205.202698 
	C82.022850,220.830811 75.169403,237.054047 74.108177,254.806488 
	C73.424767,266.238800 73.177429,277.959106 74.904427,289.217529 
	C78.210686,310.771301 90.611160,327.751007 106.031395,343.529633 
M434.644073,101.012093 
	C440.528229,102.613876 446.907043,103.265282 452.192810,106.016663 
	C462.965118,111.623993 470.197174,127.070915 465.520508,141.146103 
	C462.339752,150.719086 467.368958,159.840622 476.338745,162.772842 
	C484.610626,165.476913 495.335785,160.112701 497.722961,151.434113 
	C501.315063,138.375137 501.708557,125.104042 497.512970,112.092133 
	C491.406677,93.154533 478.777863,80.089310 460.578918,72.186729 
	C449.971191,67.580475 438.803070,67.418129 427.670563,68.193542 
	C422.334839,68.565208 416.582336,69.626556 413.048157,74.753792 
	C408.685272,81.083275 408.816254,90.689453 413.327576,96.737694 
	C416.895691,101.521393 426.251465,103.513649 434.644073,101.012093 
z"/>
<path fill="#F39800" opacity="1.000000" stroke="none" 
	d="
M458.531342,0.999996 
	C459.546143,1.661119 460.012512,2.808489 460.649933,2.913060 
	C483.207062,6.613705 502.868134,16.380104 520.409058,30.860043 
	C545.255554,51.370697 560.042786,77.806030 565.823608,109.168091 
	C569.796021,130.719238 567.929688,152.105988 561.119690,173.060867 
	C558.690308,180.536255 549.522522,186.599808 541.630005,185.930344 
	C532.942322,185.193451 525.909790,180.489975 524.212097,171.575745 
	C523.408875,167.357834 523.893188,162.558884 525.034485,158.360352 
	C533.139709,128.543671 528.328735,101.187668 509.864777,76.412498 
	C496.123627,57.974464 477.716583,46.315578 455.396912,41.323196 
	C442.880829,38.523651 430.033752,38.350853 417.428955,41.327332 
	C406.612183,43.881588 396.277374,37.687943 394.114838,27.458536 
	C391.173187,13.543533 399.412628,4.907681 410.018097,2.976348 
	C411.221985,2.757107 412.355103,2.149237 413.260529,1.360782 
	C428.020905,1.000000 443.041779,1.000000 458.531342,0.999996 
z"/>
<path fill="#E60112" opacity="1.000000" stroke="none" 
	d="
M105.780457,343.271606 
	C90.611160,327.751007 78.210686,310.771301 74.904427,289.217529 
	C73.177429,277.959106 73.424767,266.238800 74.108177,254.806488 
	C75.169403,237.054047 82.022850,220.830811 90.024231,205.202698 
	C98.932762,187.802780 109.699806,171.578491 122.643921,156.869751 
	C130.491547,147.952271 137.888962,138.559616 146.394257,130.314651 
	C172.226837,105.272774 200.229874,83.050903 233.413803,68.336174 
	C249.382523,61.255184 265.977295,56.021061 283.803986,57.036419 
	C302.577820,58.105717 316.574005,69.398979 319.194489,88.792191 
	C320.950226,101.785606 317.832764,113.810028 314.975800,126.069733 
	C314.597473,127.693329 314.089966,130.357941 314.859009,130.944107 
	C316.253265,132.006775 318.804230,132.625275 320.450836,132.102264 
	C328.676056,129.489685 336.735077,126.360374 344.906494,123.570816 
	C364.409912,116.912735 384.475739,113.313324 405.052979,115.149406 
	C422.020172,116.663383 436.816193,124.782074 441.438843,140.980972 
	C445.019531,153.528549 442.357117,165.652863 438.104767,177.559464 
	C437.829285,178.330917 437.339294,179.029739 437.096497,179.808304 
	C434.425171,188.374588 434.934479,189.964493 444.352966,193.044159 
	C458.132904,197.549927 470.969574,203.681656 482.071442,213.404053 
	C492.519653,222.553940 499.773254,233.357666 503.006897,246.873886 
	C506.698395,262.304016 504.223755,277.067932 498.197845,291.413788 
	C489.742126,311.544312 476.173248,327.708313 459.750305,341.893158 
	C434.381134,363.805115 405.171783,378.342072 373.426697,388.210724 
	C356.710205,393.407379 339.708679,397.528046 322.219666,398.941040 
	C305.941925,400.256165 289.589050,402.172150 273.320770,401.764923 
	C235.755249,400.824646 199.126297,394.176758 164.227982,379.628174 
	C146.159195,372.095551 129.225876,362.556671 113.882576,350.326447 
	C111.178017,348.170624 108.644112,345.800690 105.780457,343.271606 
M366.081818,194.350647 
	C361.977478,192.548203 357.958923,190.510132 353.755676,188.979233 
	C303.369507,170.627594 253.215790,172.831116 203.526672,191.504761 
	C179.187836,200.651520 157.695358,214.404663 141.143509,234.881241 
	C115.420273,266.703918 116.655907,303.707153 144.501480,332.763306 
	C157.036896,345.843658 172.430328,354.808960 189.364548,360.876740 
	C239.099976,378.697693 288.664001,376.621704 337.721283,358.241241 
	C364.199432,348.320587 387.331055,333.337860 404.302643,310.101685 
	C425.905670,280.524475 424.087250,245.352585 399.569122,218.756760 
	C390.214722,208.609665 379.131470,200.747055 366.081818,194.350647 
z"/>
<path fill="#F39800" opacity="1.000000" stroke="none" 
	d="
M434.190918,101.048012 
	C426.251465,103.513649 416.895691,101.521393 413.327576,96.737694 
	C408.816254,90.689453 408.685272,81.083275 413.048157,74.753792 
	C416.582336,69.626556 422.334839,68.565208 427.670563,68.193542 
	C438.803070,67.418129 449.971191,67.580475 460.578918,72.186729 
	C478.777863,80.089310 491.406677,93.154533 497.512970,112.092133 
	C501.708557,125.104042 501.315063,138.375137 497.722961,151.434113 
	C495.335785,160.112701 484.610626,165.476913 476.338745,162.772842 
	C467.368958,159.840622 462.339752,150.719086 465.520508,141.146103 
	C470.197174,127.070915 462.965118,111.623993 452.192810,106.016663 
	C446.907043,103.265282 440.528229,102.613876 434.190918,101.048012 
z"/>
<path fill="#FEFEFD" opacity="1.000000" stroke="none" 
	d="
M366.397308,194.551880 
	C379.131470,200.747055 390.214722,208.609665 399.569122,218.756760 
	C424.087250,245.352585 425.905670,280.524475 404.302643,310.101685 
	C387.331055,333.337860 364.199432,348.320587 337.721283,358.241241 
	C288.664001,376.621704 239.099976,378.697693 189.364548,360.876740 
	C172.430328,354.808960 157.036896,345.843658 144.501480,332.763306 
	C116.655907,303.707153 115.420273,266.703918 141.143509,234.881241 
	C157.695358,214.404663 179.187836,200.651520 203.526672,191.504761 
	C253.215790,172.831116 303.369507,170.627594 353.755676,188.979233 
	C357.958923,190.510132 361.977478,192.548203 366.397308,194.551880 
M261.859894,216.309509 
	C236.523956,218.367615 214.961945,228.254013 198.462418,247.837296 
	C170.098465,281.502411 179.757355,326.851593 219.038681,345.541290 
	C254.413315,362.372223 303.496216,349.544342 325.723907,317.264282 
	C341.022339,295.047272 344.904144,271.302887 329.865143,247.667267 
	C314.468781,223.470016 290.410675,215.499191 261.859894,216.309509 
z"/>
<path fill="#010101" opacity="1.000000" stroke="none" 
	d="
M262.324799,216.265198 
	C290.410675,215.499191 314.468781,223.470016 329.865143,247.667267 
	C344.904144,271.302887 341.022339,295.047272 325.723907,317.264282 
	C303.496216,349.544342 254.413315,362.372223 219.038681,345.541290 
	C179.757355,326.851593 170.098465,281.502411 198.462418,247.837296 
	C214.961945,228.254013 236.523956,218.367615 262.324799,216.265198 
M257.690552,310.106323 
	C267.423401,295.226410 262.837891,279.213165 247.503143,274.530457 
	C232.680527,270.004089 214.926132,279.299408 210.136887,294.093536 
	C206.135147,306.454987 212.889618,318.847839 225.672455,321.845062 
	C238.439346,324.838623 248.819946,320.356537 257.690552,310.106323 
M280.717743,262.269836 
	C279.070831,262.188751 277.386963,261.848114 275.784027,262.076202 
	C271.317078,262.711731 267.832611,265.280457 266.810852,269.535980 
	C266.209473,272.040527 266.865936,275.565308 268.330353,277.679901 
	C270.544647,280.877258 274.377960,281.380096 278.184479,280.050018 
	C282.357880,278.591736 285.442932,276.023315 286.178894,271.458557 
	C286.831818,267.408875 285.304993,264.340271 280.717743,262.269836 
z"/>
<path fill="#FCFCFC" opacity="1.000000" stroke="none" 
	d="
M257.455750,310.382446 
	C248.819946,320.356537 238.439346,324.838623 225.672455,321.845062 
	C212.889618,318.847839 206.135147,306.454987 210.136887,294.093536 
	C214.926132,279.299408 232.680527,270.004089 247.503143,274.530457 
	C262.837891,279.213165 267.423401,295.226410 257.455750,310.382446 
z"/>
<path fill="#F8F8F8" opacity="1.000000" stroke="none" 
	d="
M281.075623,262.448242 
	C285.304993,264.340271 286.831818,267.408875 286.178894,271.458557 
	C285.442932,276.023315 282.357880,278.591736 278.184479,280.050018 
	C274.377960,281.380096 270.544647,280.877258 268.330353,277.679901 
	C266.865936,275.565308 266.209473,272.040527 266.810852,269.535980 
	C267.832611,265.280457 271.317078,262.711731 275.784027,262.076202 
	C277.386963,261.848114 279.070831,262.188751 281.075623,262.448242 
z"/>
</svg>